<?xml version="1.0" encoding="UTF-8" standalone="no"?>
<!-- Created with Inkscape (http://www.inkscape.org/) -->

<svg
   xmlns:dc="http://purl.org/dc/elements/1.1/"
   xmlns:cc="http://creativecommons.org/ns#"
   xmlns:rdf="http://www.w3.org/1999/02/22-rdf-syntax-ns#"
   xmlns:svg="http://www.w3.org/2000/svg"
   xmlns="http://www.w3.org/2000/svg"
   xmlns:sodipodi="http://sodipodi.sourceforge.net/DTD/sodipodi-0.dtd"
   xmlns:inkscape="http://www.inkscape.org/namespaces/inkscape"
   width="256"
   height="256"
   viewBox="0 0 256 256"
   id="svg2"
   version="1.1"
   inkscape:version="0.92.4 (5da689c313, 2019-01-14)"
   sodipodi:docname="connect.svg">
  <defs
     id="defs4" />
  <sodipodi:namedview
     id="base"
     pagecolor="#000000"
     bordercolor="#666666"
     borderopacity="1.0"
     inkscape:pageopacity="0"
     inkscape:pageshadow="2"
     inkscape:zoom="1.979899"
     inkscape:cx="-125.49678"
     inkscape:cy="153.0423"
     inkscape:document-units="px"
     inkscape:current-layer="layer1"
     showgrid="false"
     units="px"
     inkscape:object-nodes="true"
     inkscape:snap-smooth-nodes="true"
     inkscape:window-width="2560"
     inkscape:window-height="1361"
     inkscape:window-x="-9"
     inkscape:window-y="-9"
     inkscape:window-maximized="1">
    <inkscape:grid
       type="xygrid"
       id="grid4136"
       empspacing="8" />
  </sodipodi:namedview>
  <metadata
     id="metadata7">
    <rdf:RDF>
      <cc:Work
         rdf:about="">
        <dc:format>image/svg+xml</dc:format>
        <dc:type
           rdf:resource="http://purl.org/dc/dcmitype/StillImage" />
        <dc:title />
      </cc:Work>
    </rdf:RDF>
  </metadata>
  <g
     inkscape:label="Layer 1"
     inkscape:groupmode="layer"
     id="layer1"
     transform="translate(0,-796.36216)">
    <g
       id="g4395"
       style="fill-opacity:1;fill:#ffffff">
      <path
         sodipodi:nodetypes="cccccsssssssssssssssccccccccccccccccccccsssssccccccccccccccccccccccccc"
         inkscape:connector-curvature="0"
         id="rect4163"
         transform="translate(0,796.36216)"
         d="m 16,104 0,48 224,0 0,-48 z m 212,7 c 2.74958,0 5,2.25042 5,5 0,2.74958 -2.25042,5 -5,5 -2.74958,0 -5,-2.25042 -5,-5 0,-2.74958 2.25042,-5 5,-5 z m 0,2 c -1.6687,0 -3,1.3313 -3,3 0,1.6687 1.3313,3 3,3 1.6687,0 3,-1.3313 3,-3 0,-1.6687 -1.3313,-3 -3,-3 z m 0,9 c 1.64501,0 3,1.35499 3,3 0,1.64501 -1.35499,3 -3,3 -1.64501,0 -3,-1.35499 -3,-3 0,-1.64501 1.35499,-3 3,-3 z m -204,2 32,0 0,8 -32,0 z m 40,0 32,0 0,8 -32,0 z m 40,0 32,0 0,8 -32,0 z m 40,0 72,0 0,4 -72,0 z m 84,5 c 1.64501,0 3,1.35499 3,3 0,1.64501 -1.35499,3 -3,3 -1.64501,0 -3,-1.35499 -3,-3 0,-1.64501 1.35499,-3 3,-3 z m -204,7 32,0 0,8 -32,0 z m 40,0 32,0 0,8 -32,0 z m 40,0 32,0 0,8 -32,0 z m 40,-4 72,0 0,4 -72,0 z m 0,8 72,0 0,4 -72,0 z"
         style="fill:#ffffff;fill-opacity:1;stroke:none" />
      <path
         sodipodi:nodetypes="cccccccc"
         inkscape:connector-curvature="0"
         id="path4165"
         d="m 64,1004.3622 64,-32.00004 0,16 80,0 16,32.00004 -96,0 0,16 z"
         style="fill:#ffffff;fill-opacity:1;fill-rule:evenodd;stroke:none;stroke-width:1px;stroke-linecap:butt;stroke-linejoin:miter;stroke-opacity:1" />
      <path
         sodipodi:nodetypes="cccccccc"
         inkscape:connector-curvature="0"
         id="path4165-3"
         d="m 192,844.36216 -64,-32.00004 0,16 -96,4e-5 16,32 80,0 0,16 z"
         style="fill:#ffffff;fill-opacity:1;fill-rule:evenodd;stroke:none;stroke-width:1px;stroke-linecap:butt;stroke-linejoin:miter;stroke-opacity:1" />
    </g>
  </g>
</svg>
