<?xml version="1.0" encoding="UTF-8" standalone="no"?>
<!-- Created with Inkscape (http://www.inkscape.org/) -->

<svg
   xmlns:dc="http://purl.org/dc/elements/1.1/"
   xmlns:cc="http://creativecommons.org/ns#"
   xmlns:rdf="http://www.w3.org/1999/02/22-rdf-syntax-ns#"
   xmlns:svg="http://www.w3.org/2000/svg"
   xmlns="http://www.w3.org/2000/svg"
   xmlns:xlink="http://www.w3.org/1999/xlink"
   xmlns:sodipodi="http://sodipodi.sourceforge.net/DTD/sodipodi-0.dtd"
   xmlns:inkscape="http://www.inkscape.org/namespaces/inkscape"
   width="256"
   height="256"
   viewBox="0 0 256 256"
   id="svg2"
   version="1.1"
   inkscape:version="0.92.0 r"
   sodipodi:docname="disconnect.svg"
   inkscape:export-filename="/home/acerspyro/Desktop/Vectors/disconnect.png"
   inkscape:export-xdpi="90"
   inkscape:export-ydpi="90">
  <defs
     id="defs4">
    <linearGradient
       id="linearGradient4626"
       inkscape:collect="always">
      <stop
         id="stop4628"
         offset="0"
         style="stop-color:#888888;stop-opacity:1" />
      <stop
         id="stop4630"
         offset="1"
         style="stop-color:#ffffff;stop-opacity:1" />
    </linearGradient>
    <linearGradient
       inkscape:collect="always"
       xlink:href="#linearGradient4626"
       id="linearGradient4408"
       gradientUnits="userSpaceOnUse"
       x1="288"
       y1="256"
       x2="288"
       y2="0" />
    <filter
       style="color-interpolation-filters:sRGB;"
       inkscape:label="Drop Shadow"
       id="filter4614">
      <feFlood
         flood-opacity="0.752941"
         flood-color="rgb(0,0,0)"
         result="flood"
         id="feFlood4616" />
      <feComposite
         in="flood"
         in2="SourceGraphic"
         operator="in"
         result="composite1"
         id="feComposite4618" />
      <feGaussianBlur
         in="composite1"
         stdDeviation="3"
         result="blur"
         id="feGaussianBlur4620" />
      <feOffset
         dx="3"
         dy="1"
         result="offset"
         id="feOffset4622" />
      <feComposite
         in="SourceGraphic"
         in2="offset"
         operator="over"
         result="composite2"
         id="feComposite4624" />
    </filter>
  </defs>
  <sodipodi:namedview
     id="base"
     pagecolor="#ffffff"
     bordercolor="#666666"
     borderopacity="1.0"
     inkscape:pageopacity="0.0"
     inkscape:pageshadow="2"
     inkscape:zoom="1.3535156"
     inkscape:cx="85.204135"
     inkscape:cy="56.525528"
     inkscape:document-units="px"
     inkscape:current-layer="layer1"
     showgrid="false"
     units="px"
     inkscape:object-nodes="true"
     inkscape:snap-smooth-nodes="true"
     inkscape:window-width="1920"
     inkscape:window-height="1019"
     inkscape:window-x="0"
     inkscape:window-y="27"
     inkscape:window-maximized="1">
    <inkscape:grid
       type="xygrid"
       id="grid4136"
       empspacing="8" />
  </sodipodi:namedview>
  <metadata
     id="metadata7">
    <rdf:RDF>
      <cc:Work
         rdf:about="">
        <dc:format>image/svg+xml</dc:format>
        <dc:type
           rdf:resource="http://purl.org/dc/dcmitype/StillImage" />
        <dc:title></dc:title>
      </cc:Work>
    </rdf:RDF>
  </metadata>
  <g
     inkscape:label="Layer 1"
     inkscape:groupmode="layer"
     id="layer1"
     transform="translate(0,-796.36216)">
    <path
       style="fill:url(#linearGradient4408);fill-opacity:1;stroke:none;filter:url(#filter4614)"
       d="M 57.289062 40.318359 L 40.318359 57.289062 L 111.0293 128 L 40.318359 198.71094 L 57.289062 215.68164 L 128 144.9707 L 198.71094 215.68164 L 215.68164 198.71094 L 144.9707 128 L 215.68164 57.289062 L 198.71094 40.318359 L 128 111.0293 L 57.289062 40.318359 z M 16 104 L 16 152 L 81.373047 152 L 89.373047 144 L 64 144 L 64 136 L 96 136 L 96 137.37305 L 104 129.37305 L 104 126.63086 L 81.369141 104 L 16 104 z M 126.62695 104 L 128 105.37305 L 129.37305 104 L 126.62695 104 z M 174.63086 104 L 154.63086 124 L 216 124 L 216 128 L 150.63086 128 L 150.62891 128.00195 L 154.62695 132 L 216 132 L 216 136 L 158.62695 136 L 162.62695 140 L 216 140 L 216 144 L 166.62695 144 L 174.62695 152 L 240 152 L 240 104 L 174.63086 104 z M 228 111 C 230.74958 111 233 113.25042 233 116 C 233 118.74958 230.74958 121 228 121 C 225.25042 121 223 118.74958 223 116 C 223 113.25042 225.25042 111 228 111 z M 228 113 C 226.3313 113 225 114.3313 225 116 C 225 117.6687 226.3313 119 228 119 C 229.6687 119 231 117.6687 231 116 C 231 114.3313 229.6687 113 228 113 z M 228 122 C 229.64501 122 231 123.35499 231 125 C 231 126.64501 229.64501 128 228 128 C 226.35499 128 225 126.64501 225 125 C 225 123.35499 226.35499 122 228 122 z M 24 124 L 56 124 L 56 132 L 24 132 L 24 124 z M 64 124 L 96 124 L 96 132 L 64 132 L 64 124 z M 228 129 C 229.64501 129 231 130.35499 231 132 C 231 133.64501 229.64501 135 228 135 C 226.35499 135 225 133.64501 225 132 C 225 130.35499 226.35499 129 228 129 z M 24 136 L 56 136 L 56 144 L 24 144 L 24 136 z M 128 150.62891 L 126.62891 152 L 129.37109 152 L 128 150.62891 z "
       transform="translate(0,796.36216)"
       id="rect4163" />
  </g>
</svg>
