<?xml version="1.0" encoding="UTF-8" standalone="no"?>
<!-- Created with Inkscape (http://www.inkscape.org/) -->

<svg
   xmlns:dc="http://purl.org/dc/elements/1.1/"
   xmlns:cc="http://creativecommons.org/ns#"
   xmlns:rdf="http://www.w3.org/1999/02/22-rdf-syntax-ns#"
   xmlns:svg="http://www.w3.org/2000/svg"
   xmlns="http://www.w3.org/2000/svg"
   xmlns:sodipodi="http://sodipodi.sourceforge.net/DTD/sodipodi-0.dtd"
   xmlns:inkscape="http://www.inkscape.org/namespaces/inkscape"
   width="256"
   height="256"
   viewBox="0 0 256 256"
   id="svg2"
   version="1.1"
   inkscape:version="0.92.4 (5da689c313, 2019-01-14)"
   sodipodi:docname="unknown.svg"
   inkscape:export-filename="/home/acerspyro/Desktop/Vectors/servers.svg.png"
   inkscape:export-xdpi="90"
   inkscape:export-ydpi="90">
  <defs
     id="defs4" />
  <sodipodi:namedview
     id="base"
     pagecolor="#000000"
     bordercolor="#666666"
     borderopacity="1.0"
     inkscape:pageopacity="0"
     inkscape:pageshadow="2"
     inkscape:zoom="3.6203867"
     inkscape:cx="109.66618"
     inkscape:cy="130.50744"
     inkscape:document-units="px"
     inkscape:current-layer="layer1"
     showgrid="false"
     units="px"
     inkscape:object-nodes="true"
     inkscape:snap-smooth-nodes="true"
     inkscape:window-width="2560"
     inkscape:window-height="1361"
     inkscape:window-x="-9"
     inkscape:window-y="-9"
     inkscape:window-maximized="1"
     inkscape:snap-bbox="true"
     inkscape:snap-bbox-midpoints="true"
     inkscape:snap-nodes="false">
    <inkscape:grid
       type="xygrid"
       id="grid4136"
       empspacing="8" />
  </sodipodi:namedview>
  <metadata
     id="metadata7">
    <rdf:RDF>
      <cc:Work
         rdf:about="">
        <dc:format>image/svg+xml</dc:format>
        <dc:type
           rdf:resource="http://purl.org/dc/dcmitype/StillImage" />
        <dc:title></dc:title>
      </cc:Work>
    </rdf:RDF>
  </metadata>
  <g
     inkscape:label="Layer 1"
     inkscape:groupmode="layer"
     id="layer1"
     transform="translate(0,-796.36216)">
    <path
       style="fill:#ffffff;fill-opacity:1;stroke:none;stroke-width:8;stroke-linecap:square;stroke-miterlimit:4;stroke-dasharray:none;stroke-opacity:1"
       d="M 128 16 C 66.144108 16 16 66.144108 16 128 C 16 189.85589 66.144108 240 128 240 C 189.85589 240 240 189.85589 240 128 C 240 66.144108 189.85589 16 128 16 z M 128 32 C 181.01934 32 224 74.980664 224 128 C 224 181.01934 181.01934 224 128 224 C 74.980664 224 32 181.01934 32 128 C 32 74.980664 74.980664 32 128 32 z M 128 40 L 128 48 C 172.18278 48 208 83.81722 208 128 L 216 128 C 216 79.398942 176.60106 40 128 40 z M 75.265625 62.039062 L 84.054688 88.494141 L 154.36719 88.404297 L 154.36719 114.77148 L 119.12305 114.77148 C 107.40429 114.77148 101.54492 120.60157 101.54492 132.26172 L 101.54492 158.80469 L 127.91211 158.80664 L 127.91211 141.05273 L 163.15625 141.05273 C 174.875 141.05273 180.73438 135.22265 180.73438 123.5625 L 180.73438 79.617188 C 180.73438 67.898434 174.875 62.039062 163.15625 62.039062 L 75.265625 62.039062 z M 40 128 C 40 176.60106 79.398942 216 128 216 L 128 208 C 83.81722 208 48 172.18278 48 128 L 40 128 z M 101.63281 167.5957 L 101.63281 193.96289 L 128 193.96289 L 128 167.5957 L 101.63281 167.5957 z "
       transform="translate(0,796.36216)"
       id="path4256" />
    <flowRoot
       xml:space="preserve"
       id="flowRoot4274"
       style="fill:#ffffff;stroke:none;stroke-opacity:1;stroke-width:1px;stroke-linejoin:miter;stroke-linecap:butt;fill-opacity:1;font-family:Akashi;font-style:normal;font-weight:normal;font-size:40px;line-height:125%;letter-spacing:0px;word-spacing:0px;-inkscape-font-specification:Akashi;font-stretch:normal;font-variant:normal;"><flowRegion
         id="flowRegion4276"
         style="fill:#ffffff;fill-opacity:1;"><rect
           id="rect4278"
           width="256"
           height="256"
           x="0"
           y="0"
           style="-inkscape-font-specification:Akashi;font-family:Akashi;font-weight:normal;font-style:normal;font-stretch:normal;font-variant:normal;fill:#ffffff;fill-opacity:1;" /></flowRegion><flowPara
         id="flowPara4280" /></flowRoot>    <flowRoot
       xml:space="preserve"
       id="flowRoot4282"
       style="fill:#ffffff;stroke:none;stroke-opacity:1;stroke-width:1px;stroke-linejoin:miter;stroke-linecap:butt;fill-opacity:1;font-family:sans-serif;font-style:normal;font-weight:normal;font-size:40px;line-height:125%;letter-spacing:0px;word-spacing:0px;"><flowRegion
         id="flowRegion4284"
         style="fill:#ffffff;fill-opacity:1;"><rect
           id="rect4286"
           width="264"
           height="248"
           x="0"
           y="0"
           style="fill:#ffffff;fill-opacity:1;" /></flowRegion><flowPara
         id="flowPara4288" /></flowRoot>    <flowRoot
       xml:space="preserve"
       id="flowRoot4378"
       style="fill:#ffffff;stroke:none;stroke-opacity:1;stroke-width:1px;stroke-linejoin:miter;stroke-linecap:butt;fill-opacity:1;font-family:sans-serif;font-style:normal;font-weight:normal;font-size:40px;line-height:125%;letter-spacing:0px;word-spacing:0px;"><flowRegion
         id="flowRegion4380"
         style="fill:#ffffff;fill-opacity:1;"><rect
           id="rect4382"
           width="255.46875"
           height="253.90625"
           x="1.171875"
           y="1.3124989"
           style="fill:#ffffff;fill-opacity:1;" /></flowRegion><flowPara
         id="flowPara4384" /></flowRoot>  </g>
</svg>
