# 3ds Max Wavefront OBJ Exporter v0.97b - (c)2007 guruware
# File Created: 29.07.2013 13:59:49

#
# object ivy_bend_left
#

v  -35.2690 -20.7564 3.4912
v  -18.3784 -25.2755 14.9626
v  -11.2887 3.4362 11.2098
v  -31.2177 6.0404 -0.5605
v  -48.7618 -43.1703 0.1605
v  -46.1671 -58.1516 4.5874
v  -29.0190 -48.8303 12.6484
v  -44.0161 -35.4975 1.1002
v  -10.7366 28.4403 4.6498
v  -28.1390 25.4702 -3.1051
v  -39.7204 -79.5943 2.4181
v  -31.8149 -94.1057 -6.2197
v  7.8228 -71.3267 3.7983
v  -10.1437 -61.4582 13.6047
v  18.3702 -35.1807 12.3232
v  3.5080 -30.9933 17.3795
v  33.3936 -8.7468 0.9951
v  11.0484 -0.7755 12.3992
v  26.8585 25.2751 -2.0755
v  11.9912 28.1276 4.4051
# 20 vertices

vn -0.5077 0.1960 0.8390
vn -0.2948 0.1149 0.9486
vn -0.2408 0.2219 0.9449
vn -0.4656 0.2077 0.8603
vn -0.4877 0.1824 0.8537
vn -0.4089 -0.0364 0.9119
vn -0.3153 -0.0269 0.9486
vn -0.5022 0.1764 0.8466
vn -0.2229 0.2437 0.9439
vn -0.4261 0.1835 0.8859
vn 0.2408 -0.2219 -0.9449
vn 0.2948 -0.1149 -0.9486
vn 0.5077 -0.1960 -0.8390
vn 0.4656 -0.2077 -0.8603
vn 0.3153 0.0269 -0.9486
vn 0.4089 0.0364 -0.9119
vn 0.4877 -0.1824 -0.8537
vn 0.5022 -0.1764 -0.8466
vn 0.4261 -0.1835 -0.8859
vn 0.2229 -0.2437 -0.9439
vn -0.0786 -0.4044 0.9112
vn 0.0593 -0.4865 0.8716
vn 0.2071 -0.4449 0.8713
vn 0.0487 -0.3436 0.9378
vn 0.3328 -0.0202 0.9428
vn 0.1362 -0.0098 0.9906
vn 0.4642 0.1226 0.8772
vn 0.2522 0.1657 0.9534
vn 0.4554 0.2050 0.8664
vn 0.2240 0.2530 0.9412
vn -0.4642 -0.1226 -0.8772
vn -0.3328 0.0202 -0.9428
vn -0.1362 0.0098 -0.9906
vn -0.2522 -0.1657 -0.9534
vn -0.2071 0.4449 -0.8713
vn -0.0487 0.3436 -0.9378
vn -0.0593 0.4865 -0.8716
vn 0.0786 0.4044 -0.9112
vn -0.4554 -0.2050 -0.8664
vn -0.2240 -0.2530 -0.9412
# 40 vertex normals

vt 0.0000 0.5000 0.0000
vt 0.2936 0.5169 0.0000
vt 0.3316 0.7923 0.0000
vt 0.0125 0.8330 0.0000
vt 0.0449 0.1291 0.0000
vt 0.2589 0.0844 0.0000
vt 0.3250 0.2722 0.0000
vt 0.0000 0.2500 0.0000
vt 0.3403 0.9881 0.0000
vt 0.0708 0.9844 0.0000
vt 0.5614 0.0340 0.0000
vt 0.8123 0.0023 0.0000
vt 0.9612 0.2948 0.0000
vt 0.6432 0.2870 0.0000
vt 0.8410 0.5422 0.0000
vt 0.6134 0.5327 0.0000
vt 1.0112 0.7262 0.0000
vt 0.6459 0.7584 0.0000
vt 0.8887 0.9809 0.0000
vt 0.6592 0.9865 0.0000
# 20 texture coords

g ivy_bend_left
s 1
f 1/1/1 2/2/2 3/3/3 4/4/4 
f 5/5/5 6/6/6 7/7/7 8/8/8 
f 8/8/8 7/7/7 2/2/2 1/1/1 
f 4/4/4 3/3/3 9/9/9 10/10/10 
s 2
f 3/3/11 2/2/12 1/1/13 4/4/14 
f 7/7/15 6/6/16 5/5/17 8/8/18 
f 2/2/12 7/7/15 8/8/18 1/1/13 
f 4/4/14 10/10/19 9/9/20 3/3/11 
s 1
f 11/11/21 12/12/22 13/13/23 14/14/24 
f 14/14/24 13/13/23 15/15/25 16/16/26 
f 16/16/26 15/15/25 17/17/27 18/18/28 
f 18/18/28 17/17/27 19/19/29 20/20/30 
s 2
f 17/17/31 15/15/32 16/16/33 18/18/34 
f 15/15/32 13/13/35 14/14/36 16/16/33 
f 13/13/35 12/12/37 11/11/38 14/14/36 
f 19/19/39 17/17/31 18/18/34 20/20/40 
s 1
f 7/7/7 6/6/6 11/11/21 14/14/24 
f 2/2/2 7/7/7 14/14/24 16/16/26 
f 3/3/3 2/2/2 16/16/26 18/18/28 
f 9/9/9 3/3/3 18/18/28 20/20/30 
s 2
f 3/3/11 18/18/34 16/16/33 2/2/12 
f 2/2/12 16/16/33 14/14/36 7/7/15 
f 7/7/15 14/14/36 11/11/38 6/6/16 
f 9/9/20 20/20/40 18/18/34 3/3/11 
# 24 polygons

