<?xml version="1.0" encoding="UTF-8" standalone="no"?>
<!-- Created with Inkscape (http://www.inkscape.org/) -->

<svg
   xmlns:dc="http://purl.org/dc/elements/1.1/"
   xmlns:cc="http://creativecommons.org/ns#"
   xmlns:rdf="http://www.w3.org/1999/02/22-rdf-syntax-ns#"
   xmlns:svg="http://www.w3.org/2000/svg"
   xmlns="http://www.w3.org/2000/svg"
   xmlns:sodipodi="http://sodipodi.sourceforge.net/DTD/sodipodi-0.dtd"
   xmlns:inkscape="http://www.inkscape.org/namespaces/inkscape"
   width="1000"
   height="1000"
   viewBox="0 0 999.9999880656118 999.9999880410413"
   id="svg2"
   version="1.1"
   inkscape:version="0.92.0 r"
   sodipodi:docname="AbstraktTeleporter-c_part2.svg"
   inkscape:export-filename="D:\Samuel Daten\Ico\Eigene Ico\Inkscape\AbstraktTeleporter-c_part1-white.png"
   inkscape:export-xdpi="90"
   inkscape:export-ydpi="90">
  <defs
     id="defs4" />
  <sodipodi:namedview
     id="base"
     pagecolor="#000000"
     bordercolor="#666666"
     borderopacity="1.0"
     inkscape:pageopacity="0"
     inkscape:pageshadow="2"
     inkscape:zoom="0.9899494928776613"
     inkscape:cx="576.7494966716554"
     inkscape:cy="508.3167787602902"
     inkscape:document-units="px"
     inkscape:current-layer="layer1"
     showgrid="false"
     units="px"
     showguides="false"
     inkscape:object-paths="false"
     inkscape:snap-intersection-paths="true" />
  <metadata
     id="metadata7">
    <rdf:RDF>
      <cc:Work
         rdf:about="">
        <dc:format>image/svg+xml</dc:format>
        <dc:type
           rdf:resource="http://purl.org/dc/dcmitype/StillImage" />
        <dc:title></dc:title>
      </cc:Work>
    </rdf:RDF>
  </metadata>
  <g
     inkscape:label="Ebene 1"
     inkscape:groupmode="layer"
     id="layer1"
     transform="translate(0,-52.36228930856214)">
    <rect
       style="opacity:1;fill:none;fill-opacity:1;fill-rule:evenodd;stroke:#ffffff;stroke-width:40.47;stroke-linecap:butt;stroke-linejoin:miter;stroke-miterlimit:4;stroke-dasharray:none;stroke-opacity:1"
       id="rect4008"
       width="909.5298461914062"
       height="909.5298461914062"
       x="45.23507690429688"
       y="97.59736633300781"
       ry="62"
       rx="62"
       inkscape:export-xdpi="90"
       inkscape:export-ydpi="90" />
    <path
       style="display:inline;fill:#ffffff;fill-opacity:1;stroke:none;stroke-width:3.2657210827px;stroke-linecap:butt;stroke-linejoin:miter;stroke-opacity:0"
       d="M 395.1751445830608,238.7421884675748 C 664.2971817948234,220.8225448054817 626.7189266759933,371.8523288348196 637.3604066727696,410.4735381491501 L 531.9547849335071,410.1983274595783 Z"
       id="path3016"
       inkscape:connector-curvature="0"
       sodipodi:nodetypes="cccc" />
    <path
       inkscape:connector-curvature="0"
       style="display:inline;fill:#ffffff;fill-opacity:1;stroke:none;stroke-width:3.4755747318px;stroke-linecap:butt;stroke-linejoin:miter;stroke-opacity:0"
       d="m 661.5289564699861,595.1518127789548 54.9023926378316,0 1.8254302000804,2.3632419698829 -7.3881719497161,22.9043280773276 -49.0107102217555,0 z"
       id="path4341"
       sodipodi:nodetypes="cccccc" />
    <path
       inkscape:connector-curvature="0"
       style="display:inline;fill:#ffffff;fill-opacity:1;stroke:none;stroke-width:3.4755747318px;stroke-linecap:butt;stroke-linejoin:miter;stroke-opacity:0"
       d="m 561.6063459191199,552.9024996920437 34.8966921991696,-36.6949977808978 118.1028808501261,0 0,61.1380425452694 -53.3088149505461,0 -0.3187971216597,-24.4430447643716 z"
       id="path4335"
       sodipodi:nodetypes="ccccccc" />
    <path
       inkscape:connector-curvature="0"
       style="display:inline;fill:#ffffff;fill-opacity:1;stroke:none;stroke-width:3.4755747318px;stroke-linecap:butt;stroke-linejoin:miter;stroke-opacity:0"
       d="m 649.5639208629543,577.3455444564153 -111.2022323463293,0 9.8522801371214,-10.3594573761261 101.3499522092075,0 0,10.3594573761261 z"
       id="path4333" />
    <path
       inkscape:connector-curvature="0"
       style="display:inline;fill:#ffffff;fill-opacity:1;stroke:none;stroke-width:3.4755747318px;stroke-linecap:butt;stroke-linejoin:miter;stroke-opacity:0"
       d="m 475.5934334174127,395.0863318477128 37.6934124028237,38.9352720994722 141.6618482431212,0.4144362581583 -1.6562959548066,-32.3086392024206 58.4100535857502,70.4483460130722 3.158097050428,25.825486572612 -122.177279775057,0 c -0.030915966452,3.220093732e-4 -0.06183004606,8.050418656e-4 -0.092740980846,0.00144907782 -0.2968034734872,0.00305512651 -0.5932685403509,0.02094942907 -0.8882847071709,0.053615879552 -0.2953828777605,0.03262833998 -0.5889470562339,0.08002420405 -0.8795902402163,0.1420096269214 -0.2900690703025,0.06195783938 -0.5768610420796,0.1383712146603 -0.8593031506565,0.2289542964645 -0.2828112040753,0.090852540194 -0.5608988695401,0.1958004069864 -0.8332197497937,0.314449888183 -0.2720910136927,0.1185015656502 -0.5380873071,0.2505324531051 -0.79699280415,0.3955982464237 -0.2588856596649,0.1448164015436 -0.5103727700663,0.3024794746028 -0.7535204693785,0.4723993711874 -0.2432292758018,0.1702694249759 -0.4777898963242,0.3525979897942 -0.7028027454778,0.5463023402991 -0.2250263872172,0.1934469527086 -0.4402415165604,0.3980222329608 -0.6448396324481,0.6129599202828 l -62.6190000831631,65.8460964010569 -12.8112970572564,12.8112970572565 -49.332405499067,-51.4668971363636 38.5628590982602,66.7923442212583 16.1543196012102,0 0.1072317591038,-0.1072317591038 c 0.1409935550995,0.024662662673 0.282561299966,0.045921982721 0.4245798029377,0.063759424333 0.2956668586095,0.029326431166 0.5926163014043,0.043835361596 0.8897337849968,0.043472334771 l 131.9559249663979,0 0,4.5573497619132 -42.6637493450694,45.977790332508 -25.2675700472099,0 0,-26.0949934857008 -24.8531337890522,0 0,26.0949934857008 -98.998098898052,0 -51.7769997910696,-62.1321099337182 0.8288725163162,-122.1949367322968 z"
       id="path3786"
       sodipodi:nodetypes="ccccccccccccccccccccccccccccccccccc" />
    <path
       style="color:#000000;font-style:normal;font-variant:normal;font-weight:normal;font-stretch:normal;font-size:medium;line-height:normal;font-family:sans-serif;text-indent:0;text-align:start;text-decoration:none;text-decoration-line:none;text-decoration-style:solid;text-decoration-color:#000000;letter-spacing:normal;word-spacing:normal;text-transform:none;direction:ltr;block-progression:tb;writing-mode:lr-tb;baseline-shift:baseline;text-anchor:start;white-space:normal;clip-rule:nonzero;display:inline;overflow:visible;visibility:visible;opacity:1;isolation:auto;mix-blend-mode:normal;color-interpolation:sRGB;color-interpolation-filters:linearRGB;solid-color:#000000;solid-opacity:1;fill:#ffffff;fill-opacity:1;fill-rule:nonzero;stroke:none;stroke-width:24;stroke-linecap:butt;stroke-linejoin:round;stroke-miterlimit:4;stroke-dasharray:none;stroke-dashoffset:0;stroke-opacity:1;color-rendering:auto;image-rendering:auto;shape-rendering:auto;text-rendering:auto;enable-background:accumulate"
       d="m 721.9274981633661,516.2082378601212 -125.4244600450758,0 -58.1413496016648,61.1380425452688 178.0895192285343,0 5.4762904182063,-34.4967467192688 z"
       id="path3813"
       inkscape:connector-curvature="0"
       sodipodi:nodetypes="cccccc" />
    <path
       style="opacity:1;fill:#ffffff;fill-opacity:1;stroke:none;stroke-width:15.5959997177;stroke-linecap:butt;stroke-linejoin:round;stroke-miterlimit:4;stroke-dasharray:none;stroke-opacity:1"
       d="m 418.2321282056489,634.4625329828181 -20.239791659953,23.6372205457393 0,59.2497587003113 -216.3921596453569,215.1590755640201 166.9337675758739,0 -16.3225624876136,-20.0320518628572 191.4175343259188,-195.1270237011637 20.0320518628571,20.0320518628578 -108.3214656287815,108.3214656287822 68.2573619030682,86.8055580723809 0,-27.4513303305821 169.901474858833,-162.4823412280815 -66.5984112376849,-77.1603532794305 -161.4256931893693,-1.427849077e-4 z"
       id="path5904"
       inkscape:connector-curvature="0"
       sodipodi:nodetypes="ccccccccccccccc" />
  </g>
</svg>
