<?xml version="1.0" encoding="UTF-8" standalone="no"?>
<!-- Created with Inkscape (http://www.inkscape.org/) -->

<svg
   xmlns:osb="http://www.openswatchbook.org/uri/2009/osb"
   xmlns:dc="http://purl.org/dc/elements/1.1/"
   xmlns:cc="http://creativecommons.org/ns#"
   xmlns:rdf="http://www.w3.org/1999/02/22-rdf-syntax-ns#"
   xmlns:svg="http://www.w3.org/2000/svg"
   xmlns="http://www.w3.org/2000/svg"
   xmlns:sodipodi="http://sodipodi.sourceforge.net/DTD/sodipodi-0.dtd"
   xmlns:inkscape="http://www.inkscape.org/namespaces/inkscape"
   width="1000"
   height="1000"
   viewBox="0 0 1000 1000"
   id="svg2"
   version="1.1"
   inkscape:version="0.92.0 r"
   sodipodi:docname="AbstraktFeuer-b.svg"
   inkscape:export-xdpi="90"
   inkscape:export-ydpi="90">
  <defs
     id="defs4">
    <linearGradient
       id="linearGradient4816"
       osb:paint="solid">
      <stop
         style="stop-color:#000000;stop-opacity:1;"
         offset="0"
         id="stop4818" />
    </linearGradient>
    <pattern
       y="0"
       x="0"
       height="6"
       width="6"
       patternUnits="userSpaceOnUse"
       id="EMFhbasepattern" />
    <pattern
       y="0"
       x="0"
       height="6"
       width="6"
       patternUnits="userSpaceOnUse"
       id="EMFhbasepattern-9" />
  </defs>
  <sodipodi:namedview
     id="base"
     pagecolor="#000000"
     bordercolor="#666666"
     borderopacity="1.0"
     inkscape:pageopacity="0"
     inkscape:pageshadow="2"
     inkscape:zoom="0.6999999996306498"
     inkscape:cx="366.6823028435479"
     inkscape:cy="433.3662057082538"
     inkscape:document-units="px"
     inkscape:current-layer="layer1"
     showgrid="false"
     inkscape:snap-page="false"
     units="px"
     showguides="true" />
  <metadata
     id="metadata7">
    <rdf:RDF>
      <cc:Work
         rdf:about="">
        <dc:format>image/svg+xml</dc:format>
        <dc:type
           rdf:resource="http://purl.org/dc/dcmitype/StillImage" />
        <dc:title></dc:title>
      </cc:Work>
    </rdf:RDF>
  </metadata>
  <g
     inkscape:label="Ebene 1"
     inkscape:groupmode="layer"
     id="layer1"
     transform="translate(0,-52.362161)">
    <g
       transform="matrix(0.7505984841945031,0,0,0.7505984841945031,816.9355290194888,155.2246803371412)"
       id="g4196">
      <path
         sodipodi:nodetypes="cssscsssssc"
         inkscape:connector-curvature="0"
         id="path4232-5-1-36-9-3-6-4-0"
         d="m -429.0460453737745,563.1555266615262 c 77.887331359331,77.7946083874956 87.2639074743692,182.3675327202057 71.763671875,273.50390625 -8.4786276918825,49.8515893770577 -24.6479675147066,95.0076900941219 -40.548828125,126.8359375 -7.9504303051473,15.914123702939 -15.9147419873939,28.5372488452907 -22.12109375,36.2734375 -1.346263557468,1.6781112734018 -2.5596538241165,3.0053523916248 -3.677734375,4.1855468749998 -1.6866970932663,-2.58654394142 -3.7711920214979,-6.3354164066437 -5.970703125,-11.9374999999998 -5.7896876239327,-14.746146994689 -11.5394079490278,-37.9033613398514 -18.255859375,-63.80078125 -13.4329028519442,-51.7948398202988 -30.3812086056934,-115.7288975551716 -73.3300781249999,-158.109375 -10.9916963816581,-10.8462305480208 -11.6286976678062,-17.202789624786 -8.255859375,-30.529296875 3.3728382928066,-13.3265072502143 14.0658986990666,-31.8268502880361 28.2695312499999,-52.681640625 23.253756556755,-34.1428304202398 55.4334605931975,-74.8575171356811 72.126953125,-123.740234375 z"
         style="color:#000000;font-style:normal;font-variant:normal;font-weight:normal;font-stretch:normal;font-size:medium;line-height:normal;font-family:sans-serif;text-indent:0;text-align:start;text-decoration:none;text-decoration-line:none;text-decoration-style:solid;text-decoration-color:#000000;letter-spacing:normal;word-spacing:normal;text-transform:none;direction:ltr;block-progression:tb;writing-mode:lr-tb;baseline-shift:baseline;text-anchor:start;white-space:normal;clip-rule:nonzero;display:inline;overflow:visible;visibility:visible;opacity:1;isolation:auto;mix-blend-mode:normal;color-interpolation:sRGB;color-interpolation-filters:linearRGB;solid-color:#000000;solid-opacity:1;fill:#fffaff;fill-opacity:1;fill-rule:nonzero;stroke:none;stroke-width:40;stroke-linecap:round;stroke-linejoin:round;stroke-miterlimit:4;stroke-dasharray:none;stroke-dashoffset:260;stroke-opacity:1;color-rendering:auto;image-rendering:auto;shape-rendering:auto;text-rendering:auto;enable-background:accumulate" />
      <path
         style="opacity:1;fill:#ffffff;fill-opacity:1;fill-rule:nonzero;stroke:none;stroke-width:40;stroke-linecap:round;stroke-linejoin:miter;stroke-miterlimit:4;stroke-dasharray:none;stroke-dashoffset:260;stroke-opacity:1"
         d="m -837.0362335711389,83.32857422293321 c 88.6768902425507,60.09066859174658 103.4955653823625,119.38746242281379 113.0611000203163,181.4681112402026 -42.044356137051,-45.016254858271 -71.7074316832792,-24.7752852172251 -86.5384316580189,-44.4715908632467 -20.8045670718584,-27.6294998704375 -26.3101193267803,-90.75345188695 -27.8541384659601,-137.85198921130358 l 0.9848655905571,0.63277561878664 z"
         id="path4232-5-1-36-9-3-8-4"
         inkscape:connector-curvature="0"
         sodipodi:nodetypes="ccsccc" />
      <path
         style="opacity:1;fill:#ffffff;fill-opacity:1;fill-rule:nonzero;stroke:none;stroke-width:40;stroke-linecap:round;stroke-linejoin:miter;stroke-miterlimit:4;stroke-dasharray:none;stroke-dashoffset:260;stroke-opacity:1"
         d="m -152.2270563530799,29.21454097509312 c -75.7472195449287,78.77624029546159 -77.9573909446534,141.09367251573257 -74.3347850678267,205.07492156856429 32.408680801517,-53.841458934355 66.3038511597084,-39.9343964567219 76.9262545779428,-62.7358667929253 14.9008498924825,-31.9853495890059 7.0053573033305,-96.1465529455061 -1.4442128927751,-143.47518141453372 l -0.848606035427,0.84037338133588 z"
         id="path4232-5-1-36-9-3-9"
         inkscape:connector-curvature="0"
         sodipodi:nodetypes="ccsccc" />
      <path
         style="opacity:1;fill:#ffffff;fill-opacity:1;fill-rule:nonzero;stroke:none;stroke-width:40;stroke-linecap:round;stroke-linejoin:miter;stroke-miterlimit:4;stroke-dasharray:none;stroke-dashoffset:260;stroke-opacity:1"
         d="m -540.3421106292908,35.03717124973039 c 83.0286204193345,99.38211424056251 80.4900897446673,173.22981278176439 70.9191422776834,248.56216032216403 -33.859542459501,-66.3245179372169 -75.0763467895425,-52.6868503477971 -85.7482468687958,-80.5183586616409 -14.9702826081284,-39.0413648717288 -0.3335102778973,-114.23323833068961 13.5668527047976,-169.48164133835877 l 0.9336660628187,1.06354533950158 z"
         id="path4232-5-1-36-9-3-8"
         inkscape:connector-curvature="0"
         sodipodi:nodetypes="ccsccc" />
      <path
         sodipodi:nodetypes="ssscsss"
         inkscape:connector-curvature="0"
         id="path4352-3-0-6"
         d="m -736.0465154757722,986.1616919301989 c -114.4324190726602,-54.2936804317757 -176.9634743357955,-138.5518250638493 -143.4892452318004,-220.4076935717076 43.757578959326,-107.0021543554949 89.0933001650021,-165.9992599483901 136.0082913924382,-294.4494095485932 39.3131336354663,-107.6367652345482 7.9113840791731,-134.9621664672913 -24.4496967640713,-166.1942572380018 94.4162548384893,78.6425847948106 175.9780794801153,150.3765633320113 142.5038503761208,232.2324318398693 -43.757578959326,107.0021543554933 -89.0933001650011,165.9992599483894 -136.0082913924381,294.4494095485935 -39.3131336354661,107.6367652345474 160.7914282561692,218.5907750204289 25.4350916197509,154.3695189698376 z"
         style="opacity:1;fill:#ffffff;fill-opacity:1;fill-rule:nonzero;stroke:none;stroke-width:25;stroke-linecap:round;stroke-linejoin:miter;stroke-miterlimit:4;stroke-dasharray:none;stroke-dashoffset:260;stroke-opacity:1" />
      <path
         sodipodi:nodetypes="ssscsss"
         inkscape:connector-curvature="0"
         id="path4352-3-0-9-4"
         d="M -130.2255579472743,983.4547434099546 C 0.5543495643377126,921.4048229164972 72.01841272220609,825.1098004798417 33.76215088907009,731.5602364708603 -16.24651077873159,609.2720600645814 -68.05876358521787,541.8467965298439 -121.6758964165739,395.0466255581829 c -44.9292955833913,-123.0134459823405 -9.0415818047694,-154.2424759626187 27.94251058750991,-189.9362939862873 -107.90429124398781,89.8772397654976 -201.1178051201324,171.8589295222983 -162.8615432869949,265.4084935312803 50.008661667801,122.288176406278 101.8209144742881,189.7134399410156 155.4380473056441,336.5136109126772 44.92929558338961,123.0134459823397 -183.7616322927653,249.8180285947758 -29.0686761368595,176.4223073941024 z"
         style="opacity:1;fill:#ffffff;fill-opacity:1;fill-rule:nonzero;stroke:none;stroke-width:25;stroke-linecap:round;stroke-linejoin:miter;stroke-miterlimit:4;stroke-dasharray:none;stroke-dashoffset:260;stroke-opacity:1" />
      <path
         inkscape:connector-curvature="0"
         id="path4352-3-0-1"
         d="m -615.1466894745714,190.6562453883321 c -28.503400044223,0.2563703588121 -43.5098716925381,41.3188482247332 -22.953125,60.5234375 16.4239744223985,15.4151320812076 33.3157414336255,33.7617577674655 36.22265625,56.966796875 2.6216140233627,40.6272908429239 -13.7858260643288,79.3632484259908 -29.2799956898419,116.1147238819015 -46.4021144221157,115.6886389662311 -121.7228944486376,217.2003452956691 -166.8860199351582,333.4497292430983 -16.3564254430738,53.9789694682046 -1.6743214480366,113.9690528336396 31.2072046595654,158.7769785359317 40.8741843979568,58.625360492877 102.137264682274,99.2027653904714 165.2381078404346,130.6019277140686 16.156029258226,7.744566183503 32.619367100639,15.668511744188 50.22265625,19.373046875 23.2564047731021,1.011448980169 45.1217356214983,-23.331294659788 38.29296875,-46.400390625 -7.5678497062154,-24.5702558616217 -29.129525717914,-40.7783154439113 -42.6953125,-61.751953125 -20.4944865023731,-27.046926247506 -39.3412028131655,-58.6094381104907 -39.634765625,-93.3515625 2.3875966955417,-30.7014750051336 20.8486488479298,-57.2230013908729 31.7378071520134,-85.5469688760454 45.1747993609515,-98.1591957366368 108.8553874894778,-187.2614849413103 146.9028178479867,-288.8475623739527 13.2496071559693,-43.4614368675121 1.6809022031616,-90.9958485011173 -21.177734375,-129.12109375 -36.6022642488094,-59.8868341410355 -89.1975204222177,-107.6705746221372 -141.9082031250001,-153.09375 -8.9014508587204,-7.9283850257751 -18.4907895202066,-16.5410559630272 -30.982421875,-17.509765625 -1.430105797401,-0.1499111981803 -2.8686815785902,-0.2226024088852 -4.306640625,-0.18359375 z"
         style="opacity:1;fill:#000000;fill-opacity:1;fill-rule:nonzero;stroke:none;stroke-width:25;stroke-linecap:round;stroke-linejoin:miter;stroke-miterlimit:4;stroke-dasharray:none;stroke-dashoffset:260;stroke-opacity:1" />
      <path
         sodipodi:nodetypes="ssscsss"
         inkscape:connector-curvature="0"
         id="path4352-3-0"
         d="m -601.5934625709652,1006.634509026725 c -128.5347289298594,-66.57627430938 -196.5946102933515,-165.3066962566958 -155.0968204406214,-257.4641481152121 54.2459935515476,-120.4684046303562 108.3797914959407,-186.0443729703494 167.0875143014141,-330.8839062938159 49.1950332228939,-121.3704997117017 14.419058698673,-153.8329689593732 -21.2968076993817,-190.7957694840061 104.7018884324127,93.5882944358893 194.9974994431149,178.7731478825104 153.4997095903855,270.930599741027 -54.2459935515474,120.4684046303542 -108.3797914959404,186.0443729703486 -167.0875143014139,330.8839062938166 -49.1950332228943,121.3704997117006 174.931166206276,256.0790346818594 22.8939185496174,177.3293178581905 z"
         style="opacity:1;fill:#ffffff;fill-opacity:1;fill-rule:nonzero;stroke:none;stroke-width:25;stroke-linecap:round;stroke-linejoin:miter;stroke-miterlimit:4;stroke-dasharray:none;stroke-dashoffset:260;stroke-opacity:1" />
      <path
         inkscape:connector-curvature="0"
         id="path4352-3-0-3-5-3"
         d="m -263.0724707245714,56.92382351333208 c -21.3180988911479,0.78631314307137 -36.302380213529,18.21706406234399 -51.51953125,30.876953125 -53.5792647784971,44.96604343945222 -107.7432758045044,92.706738853865 -141.06640625,155.33398437500002 -24.3615157957238,46.1650117658214 -22.6450911176466,104.0421666124751 1.7902019865707,149.8113271033806 59.7327845731004,151.7131822434776 119.8252757843052,303.3226570191599 172.3894855134296,457.6945322716193 4.3799411875857,31.5185265723269 -12.3697649503697,61.1305267486405 -29.8376837206239,86.2974987339551 -18.9277006545037,25.8670138103763 -44.2020864214969,47.6314183128744 -57.5197381543761,77.3021106410449 -6.7084213304422,23.733879782673 16.4064375136087,48.703446119911 40.427734375,45.9296875 15.5483557119909,-1.704769941027 29.2317946791851,-10.126420238842 43.6916091376006,-15.428646158056 41.452042197055,-18.776735058665 81.7413413314505,-40.964708507797 117.480878262067,-69.2965579684066 41.3888804808779,-33.3677069809406 77.41582685979919,-76.6172793270758 92.1029870204872,-128.536409578257 11.1957749659263,-41.827221143674 5.85520160474192,-87.4738501692626 -13.57514056917518,-126.0573335218721 C -147.5131333599668,571.7926889672103 -206.0430256140096,422.5503601905685 -258.9115140150924,271.2744434594234 c -7.6896561654404,-23.6615866410822 -16.7462259227226,-47.2862685697834 -19.5250981140016,-71.9041363634349 -2.147298107295,-22.3012072732146 3.2595320561112,-46.7688218453569 20.2996882795228,-62.4035148326541 12.5922968897803,-13.1641463675139 28.6650241637982,-27.1133645357226 29.29296875,-46.7792968750004 -0.8214176599655,-17.47428217841882 -16.1562462258995,-34.05479059528799 -34.228515625,-33.26367187499995 z"
         style="opacity:1;fill:#000000;fill-opacity:1;fill-rule:nonzero;stroke:none;stroke-width:25;stroke-linecap:round;stroke-linejoin:miter;stroke-miterlimit:4;stroke-dasharray:none;stroke-dashoffset:260;stroke-opacity:1" />
      <path
         sodipodi:nodetypes="ssscsss"
         inkscape:connector-curvature="0"
         id="path4352-3-0-3-5"
         d="m -279.3837440250701,1008.454866852012 c 130.7799075116127,-62.04992049346 202.24397066948108,-158.3449429301131 163.9877088363453,-251.8945069390952 -50.0086616678011,-122.2881764062795 -124.821327252429,-320.155262773386 -178.438460083785,-466.9554337450476 -44.9292955833912,-123.0134459823406 -9.0415818047693,-154.2424759626184 27.9425105875099,-189.93629398628783 -107.9042912439869,89.87723976549742 -201.1178051201309,171.8589295222986 -162.861543286994,265.40849353128078 50.0086616678001,122.2881764062784 124.8213272524281,320.1552627733864 178.4384600837825,466.9554337450483 44.9292955833904,123.0134459823405 -183.7616322927638,249.8180285947767 -29.0686761368587,176.4223073941016 z"
         style="opacity:1;fill:#ffffff;fill-opacity:1;fill-rule:nonzero;stroke:none;stroke-width:25;stroke-linecap:round;stroke-linejoin:miter;stroke-miterlimit:4;stroke-dasharray:none;stroke-dashoffset:260;stroke-opacity:1" />
    </g>
    <rect
       style="opacity:1;fill:none;fill-opacity:1;fill-rule:evenodd;stroke:#ffffff;stroke-width:40.47;stroke-linecap:butt;stroke-linejoin:miter;stroke-miterlimit:4;stroke-dasharray:none;stroke-opacity:1"
       id="rect4008"
       width="909.5298461914062"
       height="909.5298461914062"
       x="45.23507690429688"
       y="97.59723663330078"
       ry="62"
       rx="62"
       inkscape:export-xdpi="90"
       inkscape:export-ydpi="90" />
    <path
       sodipodi:nodetypes="sscs"
       inkscape:connector-curvature="0"
       id="path4232-5-1-36-9-3-6-4-0-0"
       d="m -197.9847132397335,760.7669514173151 c -42.660660421702,0 -37.322642022725,-168.8093316300007 -112.013402253172,-242.5116226265197 -61.1617464857291,-60.3523223413275 76.2372118563369,-143.4805454151414 95.0236022295819,-258.1312225588745 213.276693955150875,169.2831903539972 54.7820888790709,500.6428451853942 16.9898000235889,500.6428451853942 z"
       style="opacity:1;fill:#fff085;fill-opacity:1;fill-rule:nonzero;stroke:#d70000;stroke-width:40;stroke-linecap:round;stroke-linejoin:round;stroke-miterlimit:4;stroke-dasharray:none;stroke-dashoffset:260;stroke-opacity:1" />
  </g>
</svg>
