# Exported from Wings 3D 1.5.4
mtllib pipe01a.mtl
o pipe01a
#96 vertices, 160 faces
v 1.40783646 6.00000000 7.6629309e-16
v 1.30067129 6.00000000 0.53875569
v 0.99549071 6.00000000 0.99549071
v 0.53875569 6.00000000 1.30067129
v 4.8849813e-15 6.00000000 1.40783646
v -0.53875569 6.00000000 1.30067129
v -0.99549071 6.00000000 0.99549071
v -1.30067129 6.00000000 0.53875569
v -1.40783646 6.00000000 8.2527546e-16
v -1.30067129 6.00000000 -0.53875569
v -0.99549071 6.00000000 -0.99549071
v -0.53875569 6.00000000 -1.30067129
v 4.8849813e-15 6.00000000 -1.40783646
v 0.53875569 6.00000000 -1.30067129
v 0.99549071 6.00000000 -0.99549071
v 1.30067129 6.00000000 -0.53875569
v 1.40783646 5.80000000 7.2600711e-16
v 1.30067129 5.80000000 0.53875569
v 0.99549071 5.80000000 0.99549071
v 0.53875569 5.80000000 1.30067129
v 4.8849813e-15 5.80000000 1.40783646
v -0.53875569 5.80000000 1.30067129
v -0.99549071 5.80000000 0.99549071
v -1.30067129 5.80000000 0.53875569
v -1.40783646 5.80000000 7.8498948e-16
v -1.30067129 5.80000000 -0.53875569
v -0.99549071 5.80000000 -0.99549071
v -0.53875569 5.80000000 -1.30067129
v 4.8849813e-15 5.80000000 -1.40783646
v 0.53875569 5.80000000 -1.30067129
v 0.99549071 5.80000000 -0.99549071
v 1.30067129 5.80000000 -0.53875569
v 1.00000000 5.80000000 6.6252884e-16
v 0.92387953 5.80000000 0.38268343
v 0.70710678 5.80000000 0.70710678
v 0.38268343 5.80000000 0.92387953
v 4.8849813e-15 5.80000000 1.00000000
v -0.38268343 5.80000000 0.92387953
v -0.70710678 5.80000000 0.70710678
v -0.92387953 5.80000000 0.38268343
v -1.00000000 5.80000000 7.8498948e-16
v -0.92387953 5.80000000 -0.38268343
v -0.70710678 5.80000000 -0.70710678
v -0.38268343 5.80000000 -0.92387953
v 4.8849813e-15 5.80000000 -1.00000000
v 0.38268343 5.80000000 -0.92387953
v 0.70710678 5.80000000 -0.70710678
v 0.92387953 5.80000000 -0.38268343
v -1.00000000 -1.80000000 -8.5249585e-16
v -0.92387953 -1.80000000 0.38268343
v -0.70710678 -1.80000000 0.70710678
v -0.38268343 -1.80000000 0.92387953
v 3.9968029e-15 -1.80000000 1.00000000
v 0.38268343 -1.80000000 0.92387953
v 0.70710678 -1.80000000 0.70710678
v 0.92387953 -1.80000000 0.38268343
v 1.00000000 -1.80000000 2.3543637e-16
v 0.92387953 -1.80000000 -0.38268343
v 0.70710678 -1.80000000 -0.70710678
v 0.38268343 -1.80000000 -0.92387953
v 5.7731597e-15 -1.80000000 -1.00000000
v -0.38268343 -1.80000000 -0.92387953
v -0.70710678 -1.80000000 -0.70710678
v -0.92387953 -1.80000000 -0.38268343
v -1.40783646 -2.00000000 -1.7564889e-15
v -1.30067129 -2.00000000 0.53875569
v -0.99549071 -2.00000000 0.99549071
v -0.53875569 -2.00000000 1.30067129
v 3.1086245e-15 -2.00000000 1.40783646
v 0.53875569 -2.00000000 1.30067129
v 0.99549071 -2.00000000 0.99549071
v 1.30067129 -2.00000000 0.53875569
v 1.40783646 -2.00000000 1.3657548e-15
v 1.30067129 -2.00000000 -0.53875569
v 0.99549071 -2.00000000 -0.99549071
v 0.53875569 -2.00000000 -1.30067129
v 6.6613381e-15 -2.00000000 -1.40783646
v -0.53875569 -2.00000000 -1.30067129
v -0.99549071 -2.00000000 -0.99549071
v -1.30067129 -2.00000000 -0.53875569
v -1.40783646 -1.80000000 -1.8112806e-15
v -1.30067129 -1.80000000 0.53875569
v -0.99549071 -1.80000000 0.99549071
v -0.53875569 -1.80000000 1.30067129
v 3.1086245e-15 -1.80000000 1.40783646
v 0.53875569 -1.80000000 1.30067129
v 0.99549071 -1.80000000 0.99549071
v 1.30067129 -1.80000000 0.53875569
v 1.40783646 -1.80000000 1.3109630e-15
v 1.30067129 -1.80000000 -0.53875569
v 0.99549071 -1.80000000 -0.99549071
v 0.53875569 -1.80000000 -1.30067129
v 6.6613381e-15 -1.80000000 -1.40783646
v -0.53875569 -1.80000000 -1.30067129
v -0.99549071 -1.80000000 -0.99549071
v -1.30067129 -1.80000000 -0.53875569
vt 2.1000059e-2 0.48821589
vt 2.1000196e-2 0.48803915
vt 2.1002044e-2 0.51134002
vt 2.1004405e-2 0.51151604
vt 5.2907007e-2 0.67224534
vt 5.2944655e-2 0.67241494
vt 5.3054936e-2 0.32730494
vt 5.3092307e-2 0.32712876
vt 6.1782949e-2 0.69382622
vt 6.1870263e-2 0.69397411
vt 6.1932649e-2 0.30582439
vt 6.2023743e-2 0.30567029
vt 7.9586506e-2 0.49972366
vt 7.9586575e-2 0.49988684
vt 0.10136663 1.4872000e-2
vt 0.10136663 0.98887200
vt 0.11148159 0.66063984
vt 0.11154028 0.66077505
vt 0.11163365 0.33900554
vt 0.11168851 0.33886426
vt 0.15137136 1.4872000e-2
vt 0.15137136 0.98887200
vt 0.15284679 0.83024209
vt 0.15297544 0.83036318
vt 0.15314613 0.16943630
vt 0.15326544 0.16930590
vt 0.16930607 0.84673179
vt 0.16943228 0.84685042
vt 0.16963871 0.15297676
vt 0.16975954 0.15284836
vt 0.20137609 1.4872000e-2
vt 0.20137609 0.98887200
vt 0.20147187 0.50019767
vt 0.20147237 0.50021039
vt 0.20251482 0.79708640
vt 0.20263372 0.79719244
vt 0.20280405 0.20264647
vt 0.20291473 0.20252634
vt 0.22406299 0.61408958
vt 0.22410295 0.61414908
vt 0.22426611 0.38610787
vt 0.22426912 0.38609968
vt 0.25138082 1.4872000e-2
vt 0.25138082 0.98887200
vt 0.28871844 0.71102189
vt 0.28878477 0.71109260
vt 0.28903135 0.28933435
vt 0.28904020 0.28932523
vt 0.30138555 1.4872000e-2
vt 0.30138555 0.98887200
vt 0.30565974 0.93794137
vt 0.30582055 0.93803993
vt 0.30605919 6.1886400e-2
vt 0.30620267 6.1786000e-2
vt 0.32715076 0.94689110
vt 0.32733703 0.94692776
vt 0.32760353 5.2922608e-2
vt 0.32776708 5.2872552e-2
vt 0.33886580 0.88831042
vt 0.33900516 0.88836438
vt 0.33922524 0.11154144
vt 0.33935980 0.11148105
vt 0.35139028 1.4872000e-2
vt 0.35139028 0.98887200
vt 0.38559213 0.77553167
vt 0.38559647 0.77553319
vt 0.38590751 0.22463245
vt 0.38591641 0.22462999
vt 0.40139501 1.4872000e-2
vt 0.40139501 0.98887200
vt 0.45139974 1.4872000e-2
vt 0.45139974 0.98887200
vt 0.48804431 0.97900027
vt 0.48821768 0.97899773
vt 0.48848417 2.1002670e-2
vt 0.48866063 2.1000274e-2
vt 0.49973502 0.92042009
vt 0.49982053 0.79814786
vt 0.49983313 0.79814690
vt 0.49989413 0.92042225
vt 0.50010599 7.9578151e-2
vt 0.50016699 0.20185365
vt 0.50017959 0.20185253
vt 0.50026510 7.9580453e-2
vt 0.50140447 1.4872000e-2
vt 0.50140447 0.98887200
vt 0.51133949 0.97900027
vt 0.51151594 0.97899773
vt 0.51178244 2.1002670e-2
vt 0.51195582 2.1000274e-2
vt 0.55140920 1.4872000e-2
vt 0.55140920 0.98887200
vt 0.60141393 1.4872000e-2
vt 0.60141393 0.98887200
vt 0.61408371 0.77537041
vt 0.61409262 0.77536809
vt 0.61440365 0.22446735
vt 0.61440798 0.22446873
vt 0.65141866 1.4872000e-2
vt 0.65141866 0.98887200
vt 0.66064033 0.88851950
vt 0.66077488 0.88845896
vt 0.66099496 0.11163602
vt 0.66113433 0.11169013
vt 0.67223304 0.94712800
vt 0.67239659 0.94707779
vt 0.67266309 5.3072642e-2
vt 0.67284937 5.3109447e-2
vt 0.69379745 0.93821455
vt 0.69394093 0.93811400
vt 0.69417957 6.1960462e-2
vt 0.69434038 6.2059180e-2
vt 0.70142339 1.4872000e-2
vt 0.70142339 0.98887200
vt 0.71095992 0.71067516
vt 0.71096877 0.71066620
vt 0.71121535 0.28890779
vt 0.71128168 0.28897865
vt 0.75142812 1.4872000e-2
vt 0.75142812 0.98887200
vt 0.77573100 0.61390071
vt 0.77573402 0.61389268
vt 0.77589717 0.38585132
vt 0.77593713 0.38591096
vt 0.79708539 0.79747421
vt 0.79719607 0.79735393
vt 0.79736640 0.20280796
vt 0.79748530 0.20291415
vt 0.79861480 0.50009234
vt 0.79861862 0.50018969
vt 0.80143285 1.4872000e-2
vt 0.80143285 0.98887200
vt 0.83024058 0.84715219
vt 0.83036141 0.84702364
vt 0.83056784 0.15314997
vt 0.83069405 0.15326876
vt 0.84673469 0.83069465
vt 0.84685399 0.83056410
vt 0.84702468 0.16963722
vt 0.84715333 0.16975846
vt 0.85143758 0.98887200
vt 0.85143758 1.4872000e-2
vt 0.88831162 0.66113628
vt 0.88836647 0.66099486
vt 0.88845984 0.33922535
vt 0.88851854 0.33936071
vt 0.90144231 1.4872000e-2
vt 0.90144231 0.98887200
vt 0.92041354 0.50011356
vt 0.92041362 0.50027689
vt 0.93797638 0.69433026
vt 0.93806747 0.69417600
vt 0.93812986 0.30602629
vt 0.93821718 0.30617432
vt 0.94690782 0.67287178
vt 0.94694518 0.67269546
vt 0.94705546 0.32758546
vt 0.94709312 0.32775521
vt 0.97899571 0.48848436
vt 0.97899808 0.48866052
vt 0.97899993 0.51196140
vt 0.97900006 0.51178451
vn 1.00000000 -4.5242753e-31 1.8394571e-16
vn 0.92387953 0.0000000e+0 0.38268343
vn 0.70710678 -3.8638444e-16 0.70710678
vn 0.38268343 -1.8675248e-15 0.92387953
vn -3.8911592e-16 -2.2217105e-15 1.00000000
vn -0.38268343 -2.1573131e-15 0.92387953
vn -0.70710678 -5.1517926e-16 0.70710678
vn -0.92387953 0.0000000e+0 0.38268343
vn -1.00000000 2.0107890e-31 -7.0748349e-17
vn -0.92387953 0.0000000e+0 -0.38268343
vn -0.70710678 3.8638444e-16 -0.70710678
vn -0.38268343 1.8997235e-15 -0.92387953
vn 0.0000000e+0 2.2217105e-15 -1.00000000
vn 0.38268343 1.8675248e-15 -0.92387953
vn 0.70710678 3.8638444e-16 -0.70710678
vn 0.92387953 0.0000000e+0 -0.38268343
vn 0.70021451 -0.71393252 1.2880145e-16
vn 0.64691385 -0.71393252 0.26796049
vn 0.49512643 -0.71393252 0.49512643
vn 0.26796049 -0.71393252 0.64691385
vn -5.4492922e-16 -0.71393252 0.70021451
vn -0.26796049 -0.71393252 0.64691385
vn -0.49512643 -0.71393252 0.49512643
vn -0.64691385 -0.71393252 0.26796049
vn -0.70021451 -0.71393252 -3.9631216e-17
vn -0.64691385 -0.71393252 -0.26796049
vn -0.49512643 -0.71393252 -0.49512643
vn -0.26796049 -0.71393252 -0.64691385
vn -8.7998977e-32 -0.71393252 -0.70021451
vn 0.26796049 -0.71393252 -0.64691385
vn 0.49512643 -0.71393252 -0.49512643
vn 0.64691385 -0.71393252 -0.26796049
vn 0.70021451 -0.71393252 5.9446824e-17
vn 0.64691385 -0.71393252 0.26796049
vn 0.49512643 -0.71393252 0.49512643
vn 0.26796049 -0.71393252 0.64691385
vn -3.7154265e-16 -0.71393252 0.70021451
vn -0.26796049 -0.71393252 0.64691385
vn -0.49512643 -0.71393252 0.49512643
vn -0.64691385 -0.71393252 0.26796049
vn -0.70021451 -0.71393252 -1.6330676e-18
vn -0.64691385 -0.71393252 -0.26796049
vn -0.49512643 -0.71393252 -0.49512643
vn -0.26796049 -0.71393252 -0.64691385
vn 3.2695753e-16 -0.71393252 -0.70021451
vn 0.26796049 -0.71393252 -0.64691385
vn 0.49512643 -0.71393252 -0.49512643
vn 0.64691385 -0.71393252 -0.26796049
vn -0.70021451 0.71393252 1.9815608e-17
vn -0.64691385 0.71393252 0.26796049
vn -0.49512643 0.71393252 0.49512643
vn -0.26796049 0.71393252 0.64691385
vn -6.4400726e-16 0.71393252 0.70021451
vn 0.26796049 0.71393252 0.64691385
vn 0.49512643 0.71393252 0.49512643
vn 0.64691385 0.71393252 0.26796049
vn 0.70021451 0.71393252 3.9631216e-17
vn 0.64691385 0.71393252 -0.26796049
vn 0.49512643 0.71393252 -0.49512643
vn 0.26796049 0.71393252 -0.64691385
vn 8.0253213e-16 0.71393252 -0.70021451
vn -0.26796049 0.71393252 -0.64691385
vn -0.49512643 0.71393252 -0.49512643
vn -0.64691385 0.71393252 -0.26796049
vn -1.00000000 2.0107890e-30 -1.5989127e-15
vn -0.92387953 5.1517926e-16 0.38268343
vn -0.70710678 0.0000000e+0 0.70710678
vn -0.38268343 5.4737796e-16 0.92387953
vn -1.4998650e-15 2.1895118e-15 1.00000000
vn 0.38268343 1.5455378e-15 0.92387953
vn 0.70710678 0.0000000e+0 0.70710678
vn 0.92387953 5.1517926e-16 0.38268343
vn 1.00000000 -1.2064734e-30 1.6979604e-15
vn 0.92387953 -5.1517926e-16 -0.38268343
vn 0.70710678 0.0000000e+0 -0.70710678
vn 0.38268343 -1.5455378e-15 -0.92387953
vn 6.0843580e-16 -2.2217105e-15 -1.00000000
vn -0.38268343 -6.9227213e-16 -0.92387953
vn -0.70710678 -2.5758963e-16 -0.70710678
vn -0.92387953 -5.1517926e-16 -0.38268343
vn -0.70021451 0.71393252 -1.2880145e-15
vn -0.64691385 0.71393252 0.26796049
vn -0.49512643 0.71393252 0.49512643
vn -0.26796049 0.71393252 0.64691385
vn -4.9043630e-16 0.71393252 0.70021451
vn 0.26796049 0.71393252 0.64691385
vn 0.49512643 0.71393252 0.49512643
vn 0.64691385 0.71393252 0.26796049
vn 0.70021451 0.71393252 1.0948123e-15
vn 0.64691385 0.71393252 -0.26796049
vn 0.49512643 0.71393252 -0.49512643
vn 0.26796049 0.71393252 -0.64691385
vn 6.9354628e-16 0.71393252 -0.70021451
vn -0.26796049 0.71393252 -0.64691385
vn -0.49512643 0.71393252 -0.49512643
vn -0.64691385 0.71393252 -0.26796049

g mat1
usemtl mat1
s 1
f 33/86/33 56/71/56 57/85/57
f 33/86/33 58/91/58 48/92/48
f 34/72/34 56/71/56 33/86/33
f 35/70/35 54/63/54 55/69/55
f 35/70/35 56/71/56 34/72/34
f 36/64/36 54/63/54 35/70/35
f 37/50/37 52/43/52 53/49/53
f 37/50/37 54/63/54 36/64/36
f 38/44/38 52/43/52 37/50/37
f 39/32/39 50/21/50 51/31/51
f 39/32/39 52/43/52 38/44/38
f 40/22/40 50/21/50 39/32/39
f 41/16/41 50/21/50 40/22/40
f 41/148/41 64/142/64 49/147/49
f 42/141/42 64/142/64 41/148/41
f 43/132/43 62/119/62 63/131/63
f 43/132/43 64/142/64 42/141/42
f 44/120/44 62/119/62 43/132/43
f 45/114/45 60/99/60 61/113/61
f 45/114/45 62/119/62 44/120/44
f 46/100/46 60/99/60 45/114/45
f 47/94/47 58/91/58 59/93/59
f 47/94/47 60/99/60 46/100/46
f 48/92/48 58/91/58 47/94/47
f 49/15/49 50/21/50 41/16/41
f 51/31/51 52/43/52 39/32/39
f 53/49/53 54/63/54 37/50/37
f 55/69/55 56/71/56 35/70/35
f 57/85/57 58/91/58 33/86/33
f 59/93/59 60/99/60 47/94/47
f 61/113/61 62/119/62 45/114/45
f 63/131/63 64/142/64 43/132/43

g mat2
usemtl mat4
s 1
f 1/57/1 18/81/18 17/61/17
f 1/53/1 32/37/32 16/29/16
f 2/75/2 18/81/18 1/57/1
f 3/107/3 18/81/18 2/89/2
f 3/111/3 20/127/20 19/103/19
f 4/135/4 20/127/20 3/111/3
f 5/153/5 20/127/20 4/139/4
f 5/157/5 22/149/22 21/145/21
f 6/159/6 22/149/22 5/157/5
f 7/156/7 22/149/22 6/162/6
f 7/152/7 24/126/24 23/144/23
f 8/138/8 24/126/24 7/152/7
f 9/110/9 24/126/24 8/134/8
f 9/106/9 26/80/26 25/102/25
f 10/88/10 26/80/26 9/106/9
f 11/56/11 26/80/26 10/74/10
f 11/52/11 28/36/28 27/60/27
f 12/28/12 28/36/28 11/52/11
f 13/10/13 28/36/28 12/24/12
f 13/6/13 30/14/30 29/18/29
f 14/4/14 30/14/30 13/6/13
f 15/7/15 30/14/30 14/1/14
f 15/11/15 32/37/32 31/19/31
f 16/25/16 32/37/32 15/11/15
f 17/61/17 18/81/18 33/68/33
f 17/61/17 32/37/32 1/53/1
f 18/81/18 35/98/35 34/83/34
f 19/103/19 18/81/18 3/107/3
f 19/103/19 20/127/20 35/98/35
f 20/127/20 37/123/37 36/117/36
f 21/145/21 20/127/20 5/153/5
f 21/145/21 22/149/22 37/123/37
f 22/149/22 39/121/39 38/129/38
f 23/144/23 22/149/22 7/156/7
f 23/144/23 24/126/24 39/121/39
f 24/126/24 41/95/41 40/115/40
f 25/102/25 24/126/24 9/110/9
f 25/102/25 26/80/26 41/95/41
f 26/80/26 43/65/43 42/78/42
f 27/60/27 26/80/26 11/56/11
f 27/60/27 28/36/28 43/65/43
f 28/36/28 45/40/45 44/46/44
f 29/18/29 28/36/28 13/10/13
f 29/18/29 30/14/30 45/40/45
f 30/14/30 47/42/47 46/33/46
f 31/19/31 30/14/30 15/7/15
f 31/19/31 32/37/32 47/42/47
f 32/37/32 33/68/33 48/48/48
f 33/68/33 32/37/32 17/61/17
f 34/83/34 33/68/33 18/81/18
f 35/98/35 18/81/18 19/103/19
f 36/117/36 35/98/35 20/127/20
f 37/123/37 20/127/20 21/145/21
f 38/129/38 37/123/37 22/149/22
f 39/121/39 22/149/22 23/144/23
f 40/115/40 39/121/39 24/126/24
f 41/95/41 24/126/24 25/102/25
f 42/78/42 41/95/41 26/80/26
f 43/65/43 26/80/26 27/60/27
f 44/46/44 43/65/43 28/36/28
f 45/40/45 28/36/28 29/18/29
f 46/33/46 45/40/45 30/14/30
f 47/42/47 30/14/30 31/19/31
f 48/48/48 47/42/47 32/37/32
f 49/67/49 81/62/81 50/82/50
f 50/82/50 81/62/81 82/84/82
f 50/82/50 83/104/83 51/97/51
f 51/97/51 83/104/83 52/118/52
f 52/118/52 83/104/83 84/128/84
f 52/118/52 85/146/85 53/124/53
f 53/124/53 85/146/85 54/130/54
f 54/130/54 85/146/85 86/150/86
f 54/130/54 87/143/87 55/122/55
f 55/122/55 87/143/87 56/116/56
f 56/116/56 87/143/87 88/125/88
f 56/116/56 89/101/89 57/96/57
f 57/96/57 89/101/89 58/79/58
f 58/79/58 89/101/89 90/77/90
f 58/79/58 91/59/91 59/66/59
f 59/66/59 91/59/91 60/45/60
f 60/45/60 91/59/91 92/35/92
f 60/45/60 93/17/93 61/39/61
f 61/39/61 93/17/93 62/34/62
f 62/34/62 93/17/93 94/13/94
f 62/34/62 95/20/95 63/41/63
f 63/41/63 95/20/95 64/47/64
f 64/47/64 81/62/81 49/67/49
f 64/47/64 95/20/95 96/38/96
f 65/54/65 81/62/81 80/30/80
f 66/76/66 81/62/81 65/58/65
f 66/90/66 83/104/83 82/84/82
f 67/108/67 83/104/83 66/90/66
f 68/136/68 83/104/83 67/112/67
f 68/140/68 85/146/85 84/128/84
f 69/154/69 85/146/85 68/140/68
f 70/160/70 85/146/85 69/158/69
f 70/161/70 87/143/87 86/150/86
f 71/155/71 87/143/87 70/161/70
f 72/137/72 87/143/87 71/151/71
f 72/133/72 89/101/89 88/125/88
f 73/109/73 89/101/89 72/133/72
f 74/87/74 89/101/89 73/105/73
f 74/73/74 91/59/91 90/77/90
f 75/55/75 91/59/91 74/73/74
f 76/27/76 91/59/91 75/51/75
f 76/23/76 93/17/93 92/35/92
f 77/9/77 93/17/93 76/23/76
f 78/3/78 93/17/93 77/5/77
f 78/2/78 95/20/95 94/13/94
f 79/8/79 95/20/95 78/2/78
f 80/30/80 81/62/81 96/38/96
f 80/26/80 95/20/95 79/12/79
f 82/84/82 81/62/81 66/76/66
f 82/84/82 83/104/83 50/82/50
f 84/128/84 83/104/83 68/136/68
f 84/128/84 85/146/85 52/118/52
f 86/150/86 85/146/85 70/160/70
f 86/150/86 87/143/87 54/130/54
f 88/125/88 87/143/87 72/137/72
f 88/125/88 89/101/89 56/116/56
f 90/77/90 89/101/89 74/87/74
f 90/77/90 91/59/91 58/79/58
f 92/35/92 91/59/91 76/27/76
f 92/35/92 93/17/93 60/45/60
f 94/13/94 93/17/93 78/3/78
f 94/13/94 95/20/95 62/34/62
f 96/38/96 81/62/81 64/47/64
f 96/38/96 95/20/95 80/26/80
