# Blender v3.1.2 OBJ File: 'project.blend'
# www.blender.org
mtllib mesh.mtl
o stalagmite_8_Mesh.012
v 0.169483 0.755283 0.070836
v 0.169483 0.755283 -0.036600
v 0.104816 0.755283 -0.123516
v 0.000184 0.755283 -0.156715
v -0.104448 0.755283 -0.123516
v -0.169114 0.755283 -0.036600
v -0.169114 0.755283 0.070836
v -0.104448 0.755283 0.157751
v 0.000184 0.755283 0.190950
v 0.104816 0.755283 0.157751
v 0.116543 1.348094 0.054036
v 0.116543 1.348094 -0.019802
v 0.072097 1.348094 -0.079539
v 0.000184 1.348094 -0.102357
v -0.071729 1.348094 -0.079539
v -0.116173 1.348094 -0.019802
v -0.116173 1.348094 0.054036
v -0.071729 1.348094 0.113774
v 0.000184 1.348094 0.136592
v 0.072097 1.348094 0.113774
v 0.106960 1.562048 0.050996
v 0.041805 1.777279 0.030325
v 0.106960 1.562048 -0.016761
v 0.041805 1.777279 0.003911
v 0.066175 1.562048 -0.071579
v 0.000184 1.777279 -0.025619
v 0.000184 1.562048 -0.092516
v -0.029666 1.777279 -0.009957
v -0.065807 1.562048 -0.071579
v -0.106591 1.562048 -0.016761
v -0.041437 1.777279 0.030325
v -0.106591 1.562048 0.050996
v -0.035222 1.777279 0.042239
v -0.065807 1.562048 0.105815
v 0.000184 1.777279 0.059855
v 0.000184 1.562048 0.126751
v 0.025908 1.777279 0.051693
v 0.066175 1.562048 0.105815
v 0.366487 -0.035130 0.133342
v 0.366486 -0.035130 -0.099107
v 0.226571 -0.035130 -0.287163
v 0.000184 -0.035130 -0.358994
v -0.226202 -0.035130 -0.287163
v -0.366117 -0.035130 -0.099107
v -0.366117 -0.035130 0.133342
v -0.226203 -0.035130 0.321399
v 0.000184 -0.035130 0.393229
v 0.226571 -0.035130 0.321399
v -0.009858 1.810625 0.026865
v 0.013536 1.810625 0.023245
v -0.012796 1.810625 0.008748
v 0.006658 1.810625 0.002574
v 0.096513 -0.035130 0.047683
v -0.096143 -0.035130 -0.013447
v 0.025597 1.779323 -0.028231
v -0.038969 1.779323 0.003377
v 0.254653 0.059720 0.097858
v 0.157454 0.059720 0.228500
v 0.000184 0.059720 0.278401
v -0.157086 0.059720 0.228500
v -0.254283 0.059720 0.097858
v -0.254283 0.059720 -0.063622
v -0.157085 0.059720 -0.194265
v 0.000184 0.059720 -0.244164
v 0.157454 0.059720 -0.194265
v 0.254652 0.059720 -0.063622
v 0.145820 1.110757 0.063327
v 0.145818 1.110774 -0.029091
v 0.090188 1.110803 -0.103855
v 0.000184 1.110806 -0.132412
v -0.089822 1.110776 -0.103857
v -0.145452 1.110756 -0.029091
v -0.145450 1.110774 0.063327
v -0.089820 1.110803 0.138090
v 0.000184 1.110806 0.166648
v 0.090190 1.110776 0.138093
v 0.134118 1.000583 0.059613
v 0.142388 0.855003 0.062238
v 0.134118 1.000579 -0.025379
v 0.142399 0.854968 -0.028005
v 0.082955 1.000521 0.128368
v 0.088093 0.854915 0.135273
v 0.082957 1.000521 -0.094134
v 0.088104 0.854866 -0.101053
v 0.000184 1.000429 -0.120384
v 0.000184 0.854783 -0.128987
v -0.082586 1.000521 -0.094133
v -0.087724 0.854915 -0.101038
v -0.133749 1.000583 -0.025378
v -0.142019 0.855003 -0.028003
v -0.133750 1.000579 0.059614
v -0.142031 0.854968 0.062241
v -0.082587 1.000521 0.128370
v -0.087735 0.854866 0.135288
v 0.000184 1.000429 0.154619
v 0.000184 0.854783 0.163223
v 0.168737 0.643254 0.070598
v 0.215205 0.170835 0.085342
v 0.168731 0.643339 -0.036361
v 0.215233 0.170753 -0.051116
v 0.104354 0.643301 -0.122894
v 0.133126 0.170598 -0.161565
v 0.000184 0.643203 -0.155953
v 0.000184 0.170388 -0.203823
v -0.103984 0.643301 -0.122894
v -0.132756 0.170597 -0.161565
v -0.168368 0.643251 -0.036363
v -0.214835 0.170832 -0.051107
v -0.168362 0.643339 0.070596
v -0.214863 0.170753 0.085351
v -0.103984 0.643301 0.157129
v -0.132757 0.170598 0.195801
v 0.000184 0.643203 0.190188
v 0.000184 0.170388 0.238059
v 0.104354 0.643301 0.157129
v 0.133126 0.170597 0.195801
v 0.155587 0.427029 0.066426
v 0.096242 0.426990 0.146226
v 0.000184 0.426859 0.176730
v -0.095873 0.426990 0.146226
v -0.155222 0.427064 0.066427
v -0.155217 0.427025 -0.032191
v -0.095872 0.426990 -0.111991
v 0.000184 0.426859 -0.142495
v 0.096242 0.426990 -0.111991
v 0.155591 0.427064 -0.032192
v 0.148570 0.324540 -0.029964
v 0.091909 0.324433 -0.106168
v 0.000184 0.324271 -0.135312
v -0.091540 0.324433 -0.106168
v -0.148187 0.324549 -0.029960
v -0.148200 0.324540 0.064199
v -0.091540 0.324433 0.140403
v 0.000184 0.324271 0.169548
v 0.091909 0.324433 0.140403
v 0.148557 0.324551 0.064195
vt 0.539834 0.560270
vt 0.600389 0.533372
vt 0.608663 0.549644
vt 0.538493 0.567822
vt 0.494619 0.551574
vt 0.460255 0.486854
vt 0.478502 0.482135
vt 0.501551 0.544285
vt 0.515660 0.539010
vt 0.507591 0.541616
vt 0.496849 0.479429
vt 0.514752 0.479227
vt 0.531966 0.481225
vt 0.519582 0.539162
vt 0.528863 0.540826
vt 0.525971 0.539537
vt 0.548347 0.486591
vt 0.563686 0.494690
vt 0.535813 0.547241
vt 0.577592 0.505522
vt 0.538784 0.553258
vt 0.589729 0.518582
vt 0.640777 0.484829
vt 0.655790 0.500188
vt 0.464070 0.419532
vt 0.485274 0.419552
vt 0.506946 0.420740
vt 0.528407 0.423606
vt 0.549349 0.428978
vt 0.569530 0.436027
vt 0.588986 0.445358
vt 0.607573 0.456867
vt 0.625055 0.470239
vt 0.872598 0.249537
vt 0.858442 0.206240
vt 0.899344 0.191181
vt 0.913925 0.250550
vt 0.533040 0.067561
vt 0.491726 0.088844
vt 0.460312 0.060153
vt 0.515973 0.028206
vt 0.580243 0.058940
vt 0.574549 0.018822
vt 0.628082 0.061064
vt 0.630634 0.018795
vt 0.673986 0.070302
vt 0.685095 0.027406
vt 0.717726 0.085599
vt 0.735991 0.046784
vt 0.758979 0.107701
vt 0.782659 0.073050
vt 0.798074 0.134767
vt 0.825345 0.105586
vt 0.832087 0.167964
vt 0.866543 0.142923
vt 0.984451 0.388296
vt 0.945094 0.441213
vt 0.881401 0.461434
vt 0.908488 0.364207
vt 0.516712 0.555361
vt 0.519217 0.550297
vt 0.523681 0.550602
vt 0.525098 0.555584
vt 0.945066 0.269990
vt 0.984441 0.322895
vt 0.817702 0.441233
vt 0.854280 0.347016
vt 0.881367 0.249790
vt 0.778328 0.388329
vt 0.778317 0.322927
vt 0.817675 0.270010
vt 0.679818 0.428104
vt 0.699818 0.444191
vt 0.472404 0.349155
vt 0.498105 0.351756
vt 0.523356 0.355229
vt 0.548127 0.360555
vt 0.571828 0.367564
vt 0.594746 0.375884
vt 0.617096 0.386257
vt 0.639022 0.398570
vt 0.659834 0.412792
vt 0.694557 0.399837
vt 0.714663 0.364419
vt 0.735108 0.380647
vt 0.713982 0.414685
vt 0.673991 0.385107
vt 0.693040 0.348745
vt 0.483283 0.317855
vt 0.493195 0.278705
vt 0.519193 0.281787
vt 0.507896 0.321490
vt 0.652213 0.371241
vt 0.670363 0.333860
vt 0.545843 0.286283
vt 0.533162 0.326001
vt 0.572184 0.292705
vt 0.558354 0.331505
vt 0.597714 0.300569
vt 0.582896 0.338529
vt 0.622470 0.309744
vt 0.606565 0.347649
vt 0.646650 0.320910
vt 0.629691 0.358482
vt 0.730222 0.340319
vt 0.753352 0.359045
vt 0.495913 0.250126
vt 0.525581 0.253819
vt 0.554276 0.258720
vt 0.581904 0.265047
vt 0.608465 0.272673
vt 0.634015 0.282360
vt 0.658951 0.294028
vt 0.683342 0.307816
vt 0.707031 0.323543
vt 0.793526 0.282452
vt 0.772489 0.262672
vt 0.788857 0.241996
vt 0.805994 0.264700
vt 0.768037 0.220089
vt 0.750598 0.243110
vt 0.552527 0.168791
vt 0.524103 0.167130
vt 0.529225 0.146110
vt 0.555887 0.142286
vt 0.582007 0.170906
vt 0.586258 0.142009
vt 0.612287 0.175634
vt 0.619165 0.146053
vt 0.642367 0.183197
vt 0.651752 0.154196
vt 0.671266 0.194383
vt 0.683614 0.165309
vt 0.699478 0.207995
vt 0.714086 0.180689
vt 0.726232 0.224526
vt 0.742917 0.199242
vt 0.745286 0.314132
vt 0.768843 0.332244
vt 0.504130 0.219959
vt 0.534270 0.224357
vt 0.563940 0.228657
vt 0.592499 0.234707
vt 0.619893 0.243002
vt 0.646560 0.252717
vt 0.672495 0.264797
vt 0.697704 0.279137
vt 0.721853 0.295975
vt 0.828065 0.219311
vt 0.804400 0.188026
vt 0.774476 0.160513
vt 0.740404 0.137073
vt 0.703809 0.118006
vt 0.665315 0.104268
vt 0.625285 0.095780
vt 0.584671 0.093356
vt 0.545187 0.098280
vt 0.509130 0.112672
vt 0.843172 0.254329
vn 0.8989 0.3282 0.2903
vn 0.9383 0.1491 0.3120
vn 0.9407 0.1485 -0.3050
vn 0.8974 0.3315 -0.2910
vn 0.5755 0.1436 -0.8051
vn 0.5397 0.3218 -0.7779
vn -0.5686 0.3322 -0.7525
vn -0.0913 0.3291 -0.9399
vn -0.0384 0.1445 -0.9888
vn -0.5714 0.1490 -0.8070
vn -0.9397 0.1477 -0.3084
vn -0.8987 0.3313 -0.2873
vn -0.5685 0.3240 0.7562
vn -0.9159 0.3268 0.2332
vn -0.9444 0.1449 0.2951
vn -0.5690 0.1486 0.8088
vn -0.0477 0.3329 0.9418
vn -0.0192 0.1533 0.9880
vn 0.5391 0.3275 0.7760
vn 0.5726 0.1474 0.8065
vn 0.9446 0.0939 0.3144
vn 0.9446 0.0939 -0.3144
vn 0.5760 0.0926 -0.8122
vn 0.0000 0.0919 -0.9958
vn -0.5760 0.0926 -0.8122
vn -0.9446 0.0939 -0.3144
vn -0.9446 0.0939 0.3144
vn -0.5760 0.0926 0.8122
vn 0.0000 0.0919 0.9958
vn 0.5760 0.0927 0.8122
vn 0.7130 0.6596 -0.2377
vn 0.7131 0.6596 0.2377
vn 0.5969 0.7776 0.1974
vn 0.5970 0.7776 -0.1972
vn 0.4371 0.6541 -0.6173
vn 0.3687 0.7735 -0.5154
vn 0.0000 0.6508 -0.7593
vn 0.0000 0.7710 -0.6368
vn -0.4372 0.6541 -0.6173
vn -0.3687 0.7735 -0.5154
vn -0.7131 0.6596 -0.2377
vn -0.5970 0.7776 -0.1971
vn -0.7130 0.6596 0.2377
vn -0.5971 0.7776 0.1967
vn -0.4371 0.6541 0.6173
vn -0.3687 0.7735 0.5154
vn -0.0000 0.6508 0.7593
vn 0.0000 0.7710 0.6368
vn 0.4372 0.6541 0.6173
vn 0.3688 0.7735 0.5154
vn 0.0000 -1.0000 -0.0000
vn 0.2132 0.8455 -0.4896
vn -0.4719 0.7982 -0.3743
vn -0.2263 0.8280 0.5131
vn 0.4673 0.8287 0.3080
vn 0.9478 0.0494 0.3150
vn 0.9478 0.0494 -0.3150
vn 0.5783 0.0487 -0.8143
vn 0.0000 0.0483 -0.9988
vn -0.5783 0.0487 -0.8143
vn -0.9478 0.0494 -0.3150
vn -0.9478 0.0493 0.3150
vn -0.5783 0.0487 0.8143
vn -0.0000 0.0483 0.9988
vn 0.5783 0.0487 0.8143
vn 0.9487 -0.0150 0.3159
vn 0.9367 0.1594 0.3118
vn 0.9367 0.1594 -0.3118
vn 0.9487 -0.0150 -0.3159
vn 0.5783 -0.0146 0.8157
vn 0.5713 0.1573 0.8056
vn 0.5713 0.1573 -0.8055
vn 0.5783 -0.0146 -0.8157
vn -0.0000 -0.0143 0.9999
vn 0.0000 0.1561 0.9877
vn -0.0000 0.1561 -0.9877
vn 0.0000 -0.0143 -0.9999
vn -0.5713 0.1573 -0.8055
vn -0.5783 -0.0146 -0.8157
vn -0.9367 0.1594 -0.3118
vn -0.9487 -0.0150 -0.3159
vn -0.9367 0.1594 0.3118
vn -0.9487 -0.0150 0.3159
vn -0.5713 0.1573 0.8055
vn -0.5783 -0.0146 0.8157
vn 0.9421 0.1198 0.3131
vn 0.9422 0.1198 -0.3131
vn 0.5750 0.1182 -0.8095
vn -0.0000 0.1174 -0.9931
vn -0.5751 0.1182 -0.8095
vn -0.9421 0.1198 -0.3131
vn -0.9422 0.1198 0.3131
vn -0.5750 0.1182 0.8095
vn 0.0000 0.1174 0.9931
vn 0.5751 0.1182 0.8095
vn 0.9468 -0.0660 -0.3151
vn 0.9468 -0.0661 0.3150
vn 0.9149 0.2643 0.3051
vn 0.9149 0.2644 -0.3051
vn 0.5577 0.2610 0.7879
vn 0.5774 -0.0651 0.8138
vn 0.5774 -0.0651 -0.8138
vn 0.5577 0.2609 -0.7879
vn 0.0000 -0.0645 -0.9979
vn -0.0000 0.2592 -0.9658
vn -0.5774 -0.0651 -0.8138
vn -0.5577 0.2609 -0.7879
vn -0.9468 -0.0661 -0.3150
vn -0.9149 0.2643 -0.3051
vn -0.9468 -0.0660 0.3151
vn -0.9149 0.2644 0.3051
vn -0.5774 -0.0651 0.8138
vn -0.5577 0.2609 0.7879
vn 0.0000 -0.0646 0.9979
vn 0.0000 0.2592 0.9658
vn 0.9480 -0.0437 0.3153
vn 0.9480 -0.0436 -0.3153
vn 0.5783 -0.0430 -0.8147
vn -0.0000 -0.0426 -0.9991
vn -0.5783 -0.0430 -0.8147
vn -0.9480 -0.0436 -0.3153
vn -0.9480 -0.0436 0.3153
vn -0.5783 -0.0430 0.8147
vn 0.0000 -0.0426 0.9991
vn 0.5783 -0.0430 0.8147
vn 0.8774 0.3808 0.2918
vn 0.5362 0.3766 0.7554
vn 0.0000 0.3741 0.9274
vn -0.5362 0.3766 0.7554
vn -0.8774 0.3808 0.2918
vn -0.8774 0.3808 -0.2918
vn -0.5362 0.3766 -0.7554
vn 0.0000 0.3740 -0.9274
vn 0.5362 0.3766 -0.7554
vn 0.8774 0.3808 -0.2918
usemtl stalagmite5
s 1
f 22/1/1 21/2/2 23/3/3 24/4/4
f 24/5/4 23/6/3 25/7/5 55/8/6
f 28/9/7 26/10/8 27/11/9 29/12/10
f 28/9/7 29/12/10 30/13/11 56/14/12
f 33/15/13 31/16/14 32/17/15 34/18/16
f 35/19/17 33/15/13 34/18/16 36/20/18
f 37/21/19 35/19/17 36/20/18 38/22/20
f 37/21/19 38/22/20 21/2/2 22/1/1
f 23/3/3 21/2/2 11/23/21 12/24/22
f 25/7/5 23/6/3 12/25/22 13/26/23
f 27/11/9 25/7/5 13/26/23 14/27/24
f 29/12/10 27/11/9 14/27/24 15/28/25
f 30/13/11 29/12/10 15/28/25 16/29/26
f 32/17/15 30/13/11 16/29/26 17/30/27
f 34/18/16 32/17/15 17/30/27 18/31/28
f 36/20/18 34/18/16 18/31/28 19/32/29
f 38/22/20 36/20/18 19/32/29 20/33/30
f 21/2/2 38/22/20 20/33/30 11/23/21
f 66/34/31 57/35/32 39/36/33 40/37/34
f 65/38/35 66/39/31 40/40/34 41/41/36
f 64/42/37 65/38/35 41/41/36 42/43/38
f 63/44/39 64/42/37 42/43/38 43/45/40
f 62/46/41 63/44/39 43/45/40 44/47/42
f 61/48/43 62/46/41 44/47/42 45/49/44
f 60/50/45 61/48/43 45/49/44 46/51/46
f 59/52/47 60/50/45 46/51/46 47/53/48
f 58/54/49 59/52/47 47/53/48 48/55/50
f 57/35/32 58/54/49 48/55/50 39/36/33
f 39/56/51 48/57/51 47/58/51 53/59/51
f 26/10/8 52/60/52 24/5/4 55/8/6
f 28/9/7 51/61/53 52/60/52 26/10/8
f 49/62/54 33/15/13 35/19/17
f 50/63/55 49/62/54 35/19/17 37/21/19
f 22/1/1 50/63/55 37/21/19
f 51/61/53 31/16/14 33/15/13 49/62/54
f 52/60/52 51/61/53 49/62/54 50/63/55
f 24/4/4 52/60/52 50/63/55 22/1/1
f 31/16/14 51/61/53 28/9/7 56/14/12
f 39/56/51 53/59/51 41/64/51 40/65/51
f 53/59/51 47/58/51 46/66/51 54/67/51
f 41/64/51 53/59/51 54/67/51 42/68/51
f 54/67/51 46/66/51 45/69/51 44/70/51
f 42/68/51 54/67/51 44/70/51 43/71/51
f 55/8/6 25/7/5 27/11/9 26/10/8
f 31/16/14 56/14/12 30/13/11 32/17/15
f 11/23/21 67/72/56 68/73/57 12/24/22
f 12/25/22 68/74/57 69/75/58 13/26/23
f 13/26/23 69/75/58 70/76/59 14/27/24
f 14/27/24 70/76/59 71/77/60 15/28/25
f 15/28/25 71/77/60 72/78/61 16/29/26
f 16/29/26 72/78/61 73/79/62 17/30/27
f 17/30/27 73/79/62 74/80/63 18/31/28
f 18/31/28 74/80/63 75/81/64 19/32/29
f 19/32/29 75/81/64 76/82/65 20/33/30
f 20/33/30 76/82/65 67/72/56 11/23/21
f 77/83/66 78/84/67 80/85/68 79/86/69
f 78/84/67 77/83/66 81/87/70 82/88/71
f 79/89/69 80/90/68 84/91/72 83/92/73
f 82/88/71 81/87/70 95/93/74 96/94/75
f 83/92/73 84/91/72 86/95/76 85/96/77
f 85/96/77 86/95/76 88/97/78 87/98/79
f 87/98/79 88/97/78 90/99/80 89/100/81
f 89/100/81 90/99/80 92/101/82 91/102/83
f 91/102/83 92/101/82 94/103/84 93/104/85
f 93/104/85 94/103/84 96/94/75 95/93/74
f 67/72/56 77/83/66 79/86/69 68/73/57
f 77/83/66 67/72/56 76/82/65 81/87/70
f 68/74/57 79/89/69 83/92/73 69/75/58
f 69/75/58 83/92/73 85/96/77 70/76/59
f 70/76/59 85/96/77 87/98/79 71/77/60
f 71/77/60 87/98/79 89/100/81 72/78/61
f 72/78/61 89/100/81 91/102/83 73/79/62
f 73/79/62 91/102/83 93/104/85 74/80/63
f 74/80/63 93/104/85 95/93/74 75/81/64
f 75/81/64 95/93/74 81/87/70 76/82/65
f 80/85/68 78/84/67 1/105/86 2/106/87
f 84/91/72 80/90/68 2/107/87 3/108/88
f 86/95/76 84/91/72 3/108/88 4/109/89
f 88/97/78 86/95/76 4/109/89 5/110/90
f 90/99/80 88/97/78 5/110/90 6/111/91
f 92/101/82 90/99/80 6/111/91 7/112/92
f 94/103/84 92/101/82 7/112/92 8/113/93
f 96/94/75 94/103/84 8/113/93 9/114/94
f 82/88/71 96/94/75 9/114/94 10/115/95
f 78/84/67 82/88/71 10/115/95 1/105/86
f 126/116/96 117/117/97 136/118/98 127/119/99
f 135/120/100 136/118/98 117/117/97 118/121/101
f 125/122/102 126/123/96 127/124/99 128/125/103
f 124/126/104 125/122/102 128/125/103 129/127/105
f 123/128/106 124/126/104 129/127/105 130/129/107
f 122/130/108 123/128/106 130/129/107 131/131/109
f 121/132/110 122/130/108 131/131/109 132/133/111
f 120/134/112 121/132/110 132/133/111 133/135/113
f 119/136/114 120/134/112 133/135/113 134/137/115
f 118/121/101 119/136/114 134/137/115 135/120/100
f 1/105/86 97/138/116 99/139/117 2/106/87
f 2/107/87 99/140/117 101/141/118 3/108/88
f 3/108/88 101/141/118 103/142/119 4/109/89
f 4/109/89 103/142/119 105/143/120 5/110/90
f 5/110/90 105/143/120 107/144/121 6/111/91
f 6/111/91 107/144/121 109/145/122 7/112/92
f 7/112/92 109/145/122 111/146/123 8/113/93
f 8/113/93 111/146/123 113/147/124 9/114/94
f 9/114/94 113/147/124 115/148/125 10/115/95
f 10/115/95 115/148/125 97/138/116 1/105/86
f 98/149/126 116/150/127 58/54/49 57/35/32
f 116/150/127 114/151/128 59/52/47 58/54/49
f 114/151/128 112/152/129 60/50/45 59/52/47
f 112/152/129 110/153/130 61/48/43 60/50/45
f 110/153/130 108/154/131 62/46/41 61/48/43
f 108/154/131 106/155/132 63/44/39 62/46/41
f 106/155/132 104/156/133 64/42/37 63/44/39
f 104/156/133 102/157/134 65/38/35 64/42/37
f 102/157/134 100/158/135 66/39/31 65/38/35
f 100/159/135 98/149/126 57/35/32 66/34/31
f 118/121/101 117/117/97 97/138/116 115/148/125
f 113/147/124 119/136/114 118/121/101 115/148/125
f 111/146/123 120/134/112 119/136/114 113/147/124
f 109/145/122 121/132/110 120/134/112 111/146/123
f 107/144/121 122/130/108 121/132/110 109/145/122
f 105/143/120 123/128/106 122/130/108 107/144/121
f 103/142/119 124/126/104 123/128/106 105/143/120
f 101/141/118 125/122/102 124/126/104 103/142/119
f 99/140/117 126/123/96 125/122/102 101/141/118
f 97/138/116 117/117/97 126/116/96 99/139/117
f 128/125/103 127/124/99 100/158/135 102/157/134
f 129/127/105 128/125/103 102/157/134 104/156/133
f 130/129/107 129/127/105 104/156/133 106/155/132
f 131/131/109 130/129/107 106/155/132 108/154/131
f 132/133/111 131/131/109 108/154/131 110/153/130
f 133/135/113 132/133/111 110/153/130 112/152/129
f 134/137/115 133/135/113 112/152/129 114/151/128
f 135/120/100 134/137/115 114/151/128 116/150/127
f 98/149/126 136/118/98 135/120/100 116/150/127
f 127/119/99 136/118/98 98/149/126 100/159/135
