# Blender v3.1.2 OBJ File: 'project.blend'
# www.blender.org
mtllib mesh.mtl
o stalacite_2_Mesh.004
v 0.000218 -1.123933 0.005812
v -0.006998 -1.123933 0.003743
v -0.011910 -1.123933 -0.009581
v -0.005367 -1.123933 -0.016251
v 0.006531 -1.123933 -0.016210
v 0.009315 -1.123933 -0.013632
v 0.011442 -1.123933 -0.002886
v 0.007262 -1.123933 0.003280
v 0.003148 -0.000001 0.083979
v -0.050897 0.000001 0.068485
v -0.085591 0.000001 0.024451
v -0.087681 0.000001 -0.031303
v -0.056369 0.000001 -0.077481
v -0.003615 0.000001 -0.096445
v 0.050430 0.000001 -0.080952
v 0.085123 0.000001 -0.036918
v 0.087214 0.000001 0.018836
v 0.055902 0.000001 0.065014
v 0.003191 -1.154562 -0.008126
v 0.000428 -1.154562 -0.002221
v -0.001536 -1.154562 -0.010323
v -0.004698 -1.154562 -0.005660
v 0.000811 -0.000000 0.021644
v -0.001279 -0.000000 -0.034110
v -0.014551 -1.125810 -0.003062
v -0.001018 -1.125810 -0.017667
v -0.008863 -0.847633 0.002634
v 0.009752 -0.847633 -0.004058
v 0.020800 -0.847633 -0.020352
v 0.020063 -0.847633 -0.040025
v 0.007821 -0.847633 -0.055562
v -0.011249 -0.847633 -0.061030
v -0.029863 -0.847633 -0.054338
v -0.040912 -0.847633 -0.038044
v -0.040174 -0.847633 -0.018371
v -0.027933 -0.847633 -0.002833
v 0.000634 -0.985549 0.016922
v -0.013238 -0.985549 0.012945
v -0.023019 -0.986112 0.001365
v -0.022679 -0.985549 -0.012668
v -0.013934 -0.985549 -0.024672
v -0.001202 -0.986112 -0.029205
v 0.012771 -0.985549 -0.025412
v 0.021121 -0.985549 -0.015100
v 0.022212 -0.985549 0.000201
v 0.014175 -0.985549 0.012054
v 0.003774 -0.664381 -0.001087
v -0.020563 -0.664381 -0.008064
v -0.036186 -0.664381 -0.027892
v -0.037127 -0.664381 -0.052999
v -0.023027 -0.664381 -0.073793
v 0.000728 -0.664381 -0.082332
v 0.025065 -0.664381 -0.075356
v 0.040687 -0.664381 -0.055527
v 0.041629 -0.664381 -0.030421
v 0.027529 -0.664381 -0.009627
v 0.004546 -0.481428 0.039205
v -0.024687 -0.481428 0.030825
v -0.043453 -0.481428 0.007007
v -0.044583 -0.481428 -0.023150
v -0.027647 -0.481428 -0.048128
v 0.000888 -0.481428 -0.058386
v 0.030121 -0.481428 -0.050005
v 0.048886 -0.481428 -0.026187
v 0.050017 -0.481428 0.003970
v 0.033080 -0.481428 0.028948
v 0.003111 -0.232321 0.076780
v 0.042026 -0.232320 0.062790
v 0.065123 -0.232320 0.028726
v 0.063582 -0.232320 -0.012403
v 0.037989 -0.232320 -0.044885
v -0.001878 -0.232320 -0.056314
v -0.040793 -0.232320 -0.042325
v -0.063891 -0.232320 -0.008260
v -0.062349 -0.232320 0.032868
v -0.036757 -0.232320 0.065350
v 0.000466 -0.339091 0.055127
v -0.033337 -0.339091 0.045437
v -0.055035 -0.339091 0.017897
v -0.056342 -0.339091 -0.016974
v -0.036759 -0.339091 -0.045856
v -0.003764 -0.339091 -0.057717
v 0.030038 -0.339091 -0.048026
v 0.051736 -0.339091 -0.020486
v 0.053043 -0.339091 0.014385
v 0.033460 -0.339091 0.043266
vt 0.922938 0.983230
vt 0.922203 0.934639
vt 0.927408 0.934398
vt 0.925575 0.983554
vt 0.932920 0.934460
vt 0.928964 0.984998
vt 0.934287 0.987068
vt 0.931398 0.985514
vt 0.938001 0.934401
vt 0.943410 0.934985
vt 0.909088 0.987692
vt 0.891707 0.938945
vt 0.896457 0.937648
vt 0.910804 0.987473
vt 0.914067 0.984916
vt 0.912883 0.985539
vt 0.901573 0.936306
vt 0.906332 0.935659
vt 0.917719 0.983751
vt 0.911855 0.935217
vt 0.920307 0.983325
vt 0.917013 0.934914
vt 0.927457 0.884293
vt 0.920189 0.884699
vt 0.916101 0.816241
vt 0.925543 0.816213
vt 0.934622 0.883759
vt 0.934936 0.816572
vt 0.941742 0.883318
vt 0.944173 0.817105
vt 0.948889 0.883266
vt 0.953325 0.817622
vt 0.883909 0.887577
vt 0.876982 0.889640
vt 0.861754 0.825250
vt 0.870696 0.823265
vt 0.891073 0.886194
vt 0.879627 0.821239
vt 0.898321 0.885430
vt 0.888578 0.819357
vt 0.905594 0.885097
vt 0.897576 0.817800
vt 0.912884 0.884924
vt 0.906736 0.816738
vt 0.911989 0.747214
vt 0.909940 0.695470
vt 0.923194 0.695329
vt 0.922878 0.747144
vt 0.936239 0.696177
vt 0.933726 0.748077
vt 0.948989 0.697824
vt 0.944510 0.749620
vt 0.961569 0.699915
vt 0.955342 0.751301
vt 0.847620 0.759912
vt 0.833363 0.710416
vt 0.845772 0.707360
vt 0.858510 0.757986
vt 0.858306 0.704245
vt 0.869389 0.755652
vt 0.870918 0.701209
vt 0.880096 0.753031
vt 0.883696 0.698527
vt 0.890647 0.750463
vt 0.896715 0.696528
vt 0.901233 0.748396
vt 0.923032 0.656315
vt 0.908319 0.656337
vt 0.906552 0.572451
vt 0.927199 0.572238
vt 0.937784 0.657130
vt 0.947713 0.572775
vt 0.952542 0.658764
vt 0.968007 0.574384
vt 0.967308 0.661208
vt 0.988112 0.577546
vt 0.835296 0.669302
vt 0.820949 0.674249
vt 0.787520 0.595016
vt 0.806353 0.587388
vt 0.849862 0.665089
vt 0.825864 0.581656
vt 0.864505 0.661637
vt 0.845707 0.577658
vt 0.879091 0.659008
vt 0.865748 0.575040
vt 0.893669 0.657237
vt 0.886019 0.573398
vt 0.060213 0.841568
vt 0.046586 0.844045
vt 0.034175 0.838049
vt 0.052994 0.827952
vt 0.922964 0.993481
vt 0.921537 0.995380
vt 0.920619 0.993584
vt 0.921833 0.992602
vt 0.071814 0.817854
vt 0.069849 0.831564
vt 0.027719 0.825871
vt 0.046538 0.815773
vt 0.065358 0.805676
vt 0.029684 0.812161
vt 0.039320 0.802157
vt 0.052946 0.799680
vn 0.0157 -0.0981 0.9951
vn 0.0404 0.0333 0.9986
vn -0.5326 -0.0063 0.8463
vn -0.5569 -0.1000 0.8245
vn -0.9278 -0.0691 0.3665
vn -0.9307 -0.1012 0.3516
vn -0.5747 -0.0988 -0.8124
vn -0.9140 -0.1003 -0.3931
vn -0.9339 -0.1373 -0.3302
vn -0.6044 -0.1786 -0.7764
vn -0.0179 -0.1726 -0.9848
vn -0.0008 -0.0990 -0.9951
vn 0.9256 -0.0973 -0.3658
vn 0.4538 -0.0959 -0.8859
vn 0.5375 -0.1303 -0.8331
vn 0.9437 -0.0612 -0.3251
vn 0.9742 -0.1032 0.2008
vn 0.9671 -0.0033 0.2545
vn 0.6209 -0.1005 0.7774
vn 0.6077 0.0366 0.7933
vn -0.5662 0.0412 0.8232
vn 0.0193 0.0507 0.9985
vn 0.0385 -0.1153 0.9926
vn -0.5624 -0.0840 0.8226
vn -0.9411 -0.0031 0.3380
vn -0.9447 -0.0374 0.3257
vn -0.9569 -0.0664 -0.2827
vn -0.9539 0.0045 -0.3002
vn -0.6153 -0.1215 -0.7789
vn -0.5963 0.0255 -0.8023
vn -0.0443 -0.1527 -0.9873
vn -0.0259 0.0205 -0.9995
vn 0.5375 -0.1492 -0.8299
vn 0.5493 -0.0071 -0.8356
vn 0.9304 -0.1077 -0.3503
vn 0.9294 -0.0492 -0.3657
vn 0.9616 -0.0429 0.2711
vn 0.9638 -0.0924 0.2503
vn 0.6057 0.0197 0.7955
vn 0.6233 -0.1185 0.7730
vn 0.0347 -0.1638 0.9859
vn 0.0272 -0.1538 0.9877
vn -0.5565 -0.1429 0.8185
vn -0.5427 -0.1537 0.8257
vn -0.9348 -0.1061 0.3389
vn -0.9286 -0.1050 0.3558
vn -0.9591 -0.0565 -0.2773
vn -0.9638 -0.0319 -0.2648
vn -0.6138 -0.0130 -0.7893
vn -0.6161 0.0367 -0.7868
vn -0.0378 0.0086 -0.9992
vn -0.0297 0.0708 -0.9970
vn 0.5518 -0.0010 -0.8340
vn 0.5639 0.0571 -0.8239
vn 0.9357 -0.0385 -0.3506
vn 0.9426 0.0017 -0.3340
vn 0.9580 -0.0899 0.2724
vn 0.9557 -0.0714 0.2855
vn 0.6056 -0.1342 0.7844
vn 0.6030 -0.1337 0.7864
vn -0.5470 -0.0777 0.8335
vn 0.0334 -0.0749 0.9966
vn 0.0328 -0.0310 0.9990
vn -0.5634 -0.0454 0.8250
vn -0.9291 -0.0890 0.3588
vn -0.9398 -0.0820 0.3317
vn -0.9599 -0.1043 -0.2601
vn -0.9499 -0.1257 -0.2862
vn -0.6147 -0.1174 -0.7800
vn -0.5985 -0.1590 -0.7852
vn -0.0311 -0.1236 -0.9918
vn -0.0328 -0.1704 -0.9848
vn 0.5610 -0.1213 -0.8189
vn 0.5433 -0.1571 -0.8247
vn 0.9376 -0.1110 -0.3296
vn 0.9264 -0.1234 -0.3557
vn 0.9527 -0.0960 0.2884
vn 0.9617 -0.0803 0.2619
vn 0.6037 -0.0820 0.7930
vn 0.6186 -0.0445 0.7845
vn -0.0000 1.0000 0.0000
vn -0.8760 -0.4647 0.1291
vn -0.3314 -0.4000 -0.8545
vn 0.8927 -0.4437 -0.0787
vn 0.2767 -0.4258 0.8615
usemtl Stalacite1
s 1
f 1/1/1 37/2/2 38/3/3 2/4/4
f 2/4/4 38/3/3 39/5/5 25/6/6
f 4/7/7 3/8/8 40/9/9 41/10/10
f 4/11/7 41/12/10 42/13/11 26/14/12
f 6/15/13 5/16/14 43/17/15 44/18/16
f 7/19/17 6/15/13 44/18/16 45/20/18
f 8/21/19 7/19/17 45/20/18 46/22/20
f 8/21/19 46/22/20 37/2/2 1/1/1
f 36/23/21 27/24/22 47/25/23 48/26/24
f 35/27/25 36/23/21 48/26/24 49/28/26
f 34/29/27 35/27/25 49/28/26 50/30/28
f 33/31/29 34/29/27 50/30/28 51/32/30
f 32/33/31 33/34/29 51/35/30 52/36/32
f 31/37/33 32/33/31 52/36/32 53/38/34
f 30/39/35 31/37/33 53/38/34 54/40/36
f 29/41/37 30/39/35 54/40/36 55/42/38
f 28/43/39 29/41/37 55/42/38 56/44/40
f 27/24/22 28/43/39 56/44/40 47/25/23
f 57/45/41 77/46/42 78/47/43 58/48/44
f 58/48/44 78/47/43 79/49/45 59/50/46
f 59/50/46 79/49/45 80/51/47 60/52/48
f 60/52/48 80/51/47 81/53/49 61/54/50
f 61/55/50 81/56/49 82/57/51 62/58/52
f 62/58/52 82/57/51 83/59/53 63/60/54
f 63/60/54 83/59/53 84/61/55 64/62/56
f 64/62/56 84/61/55 85/63/57 65/64/58
f 65/64/58 85/63/57 86/65/59 66/66/60
f 66/66/60 86/65/59 77/46/42 57/45/41
f 76/67/61 67/68/62 9/69/63 10/70/64
f 75/71/65 76/67/61 10/70/64 11/72/66
f 74/73/67 75/71/65 11/72/66 12/74/68
f 73/75/69 74/73/67 12/74/68 13/76/70
f 72/77/71 73/78/69 13/79/70 14/80/72
f 71/81/73 72/77/71 14/80/72 15/82/74
f 70/83/75 71/81/73 15/82/74 16/84/76
f 69/85/77 70/83/75 16/84/76 17/86/78
f 68/87/79 69/85/77 17/86/78 18/88/80
f 67/68/62 68/87/79 18/88/80 9/69/63
f 9/89/81 18/90/81 17/91/81 23/92/81
f 3/8/8 22/93/82 2/4/4 25/6/6
f 4/7/7 21/94/83 22/93/82 3/8/8
f 19/95/84 6/15/13 7/19/17
f 20/96/85 19/95/84 7/19/17 8/21/19
f 1/1/1 20/96/85 8/21/19
f 21/94/83 5/16/14 6/15/13 19/95/84
f 22/93/82 21/94/83 19/95/84 20/96/85
f 2/4/4 22/93/82 20/96/85 1/1/1
f 5/16/14 21/94/83 4/11/7 26/14/12
f 9/89/81 23/92/81 11/97/81 10/98/81
f 23/92/81 17/91/81 16/99/81 24/100/81
f 11/97/81 23/92/81 24/100/81 12/101/81
f 24/100/81 16/99/81 15/102/81 14/103/81
f 12/101/81 24/100/81 14/103/81 13/104/81
f 25/6/6 39/5/5 40/9/9 3/8/8
f 5/16/14 26/14/12 42/13/11 43/17/15
f 38/3/3 37/2/2 27/24/22 36/23/21
f 39/5/5 38/3/3 36/23/21 35/27/25
f 40/9/9 39/5/5 35/27/25 34/29/27
f 41/10/10 40/9/9 34/29/27 33/31/29
f 42/13/11 41/12/10 33/34/29 32/33/31
f 43/17/15 42/13/11 32/33/31 31/37/33
f 44/18/16 43/17/15 31/37/33 30/39/35
f 45/20/18 44/18/16 30/39/35 29/41/37
f 46/22/20 45/20/18 29/41/37 28/43/39
f 37/2/2 46/22/20 28/43/39 27/24/22
f 48/26/24 47/25/23 57/45/41 58/48/44
f 49/28/26 48/26/24 58/48/44 59/50/46
f 50/30/28 49/28/26 59/50/46 60/52/48
f 51/32/30 50/30/28 60/52/48 61/54/50
f 52/36/32 51/35/30 61/55/50 62/58/52
f 53/38/34 52/36/32 62/58/52 63/60/54
f 54/40/36 53/38/34 63/60/54 64/62/56
f 55/42/38 54/40/36 64/62/56 65/64/58
f 56/44/40 55/42/38 65/64/58 66/66/60
f 47/25/23 56/44/40 66/66/60 57/45/41
f 78/47/43 77/46/42 67/68/62 76/67/61
f 79/49/45 78/47/43 76/67/61 75/71/65
f 80/51/47 79/49/45 75/71/65 74/73/67
f 81/53/49 80/51/47 74/73/67 73/75/69
f 82/57/51 81/56/49 73/78/69 72/77/71
f 83/59/53 82/57/51 72/77/71 71/81/73
f 84/61/55 83/59/53 71/81/73 70/83/75
f 85/63/57 84/61/55 70/83/75 69/85/77
f 86/65/59 85/63/57 69/85/77 68/87/79
f 77/46/42 86/65/59 68/87/79 67/68/62
