# Blender v2.80 (sub 39) OBJ File: 'industrial_set.blend'
# www.blender.org
g collider
v -2.000000 -1.850000 1.850000
v -2.000000 1.843003 1.850000
v -2.000000 -1.850000 -1.850000
v -2.000000 1.843003 -1.850000
v -2.000000 -2.000000 -2.000000
v -2.000000 -2.000000 2.000000
v -2.000000 1.993003 2.000000
v -2.000000 1.993003 -2.000000
v 2.000000 -1.850000 1.850000
v 2.000000 1.843003 1.850000
v 2.000000 1.843003 -1.850000
v -0.000000 0.000000 2.150000
v -0.000000 2.143003 0.000000
v -0.000000 0.000000 -2.150000
v -0.000000 -2.150000 0.000000
v -0.000000 0.000000 1.924544
v -0.000000 -0.000000 -1.924544
v -0.000000 1.917547 0.000000
v 0.000000 -1.924544 -0.000000
v 2.000000 -1.850000 -1.850000
v 2.000000 1.993003 -2.000000
v 2.000000 -2.000000 -2.000000
v 2.000000 -2.000000 2.000000
v 2.000000 1.993003 2.000000
vt 0.415229 0.492665
vt 0.212183 0.492665
vt 0.313706 0.370416
vt 0.624366 0.492665
vt 0.421320 0.492665
vt 0.522843 0.370416
vt 0.989340 0.735330
vt 0.989340 0.509169
vt 0.996954 0.500000
vt 0.996954 0.744499
vt 0.801523 0.735330
vt 0.793909 0.744499
vt 0.801523 0.509169
vt 0.793909 0.500000
vt 0.206091 0.744499
vt 0.003046 0.744499
vt 0.104569 0.622249
vt 0.206091 0.003667
vt 0.206091 0.248166
vt 0.104569 0.125917
vt 0.212183 0.744499
vt 0.400000 0.744499
vt 0.306092 0.866748
vt 0.630457 0.248166
vt 0.818274 0.248166
vt 0.724366 0.370416
vt 0.406092 0.988997
vt 0.406092 0.744499
vt 0.500000 0.866748
vt 0.600000 0.744499
vt 0.787817 0.744499
vt 0.693909 0.866748
vt 0.212183 0.248166
vt 0.415229 0.248166
vt 0.421320 0.248166
vt 0.624366 0.248166
vt 0.003046 0.248166
vt 0.003046 0.003668
vt 0.003046 0.500000
vt 0.206091 0.500000
vt 0.787817 0.988998
vt 0.600000 0.988998
vt 0.818274 0.492665
vt 0.630457 0.492665
vt 0.593909 0.744499
vt 0.593909 0.988997
vt 0.400000 0.988997
vt 0.212183 0.988997
vt 0.801523 0.987164
vt 0.989340 0.987164
vt 0.996954 0.996333
vt 0.793909 0.996333
vt 0.989340 0.761002
vt 0.996954 0.751834
vt 0.801523 0.761002
vt 0.793909 0.751834
vn -0.0748 0.0000 0.9972
vn -0.0748 0.9972 0.0000
vn -1.0000 0.0000 -0.0000
vn 0.0748 -0.9972 0.0000
vn 0.0000 0.0751 -0.9972
vn -0.0372 0.9993 0.0000
vn -0.0372 0.0000 0.9993
vn 0.0000 -0.9992 0.0403
vn -0.0372 0.0000 -0.9993
vn 0.0748 0.0000 0.9972
vn 0.0000 -0.0748 0.9972
vn 0.0000 0.0751 0.9972
vn 0.0748 0.9972 0.0000
vn 0.0000 0.9972 0.0748
vn 0.0000 0.9972 -0.0748
vn 0.0000 -0.0748 -0.9972
vn 0.0748 0.0000 -0.9972
vn -0.0748 0.0000 -0.9972
vn -0.0748 -0.9972 0.0000
vn 0.0000 -0.9972 -0.0748
vn 0.0000 -0.9972 0.0748
vn 0.0372 0.0000 -0.9993
vn 0.0000 -0.0404 -0.9992
vn 0.0000 0.0403 -0.9992
vn 0.0372 0.0000 0.9993
vn 0.0000 0.0403 0.9992
vn 0.0000 -0.0404 0.9992
vn 0.0000 -0.9992 -0.0403
vn -0.0372 -0.9993 0.0000
vn 0.0372 -0.9993 0.0000
vn 0.0372 0.9993 0.0000
vn 0.0000 0.9992 -0.0403
vn 0.0000 0.9992 0.0403
vn 1.0000 0.0000 0.0000
s off
f 7/1/1 6/2/1 12/3/1
f 8/4/2 7/5/2 13/6/2
f 1/7/3 3/8/3 5/9/3 6/10/3
f 2/11/3 1/7/3 6/10/3 7/12/3
f 4/13/3 2/11/3 7/12/3 8/14/3
f 3/8/3 4/13/3 8/14/3 5/9/3
f 22/15/4 23/16/4 15/17/4
f 8/18/5 21/19/5 14/20/5
f 9/21/6 20/22/6 19/23/6
f 20/24/7 11/25/7 17/26/7
f 4/27/8 11/28/8 18/29/8
f 10/30/9 9/31/9 16/32/9
f 23/33/10 24/34/10 12/3/10
f 6/2/11 23/33/11 12/3/11
f 24/34/12 7/1/12 12/3/12
f 24/35/13 21/36/13 13/6/13
f 7/5/14 24/35/14 13/6/14
f 21/36/15 8/4/15 13/6/15
f 22/37/16 5/38/16 14/20/16
f 21/19/17 22/37/17 14/20/17
f 5/38/18 8/18/18 14/20/18
f 6/39/19 5/40/19 15/17/19
f 5/40/20 22/15/20 15/17/20
f 23/16/21 6/39/21 15/17/21
f 1/41/22 2/42/22 16/32/22
f 2/42/23 10/30/23 16/32/23
f 9/31/24 1/41/24 16/32/24
f 4/43/25 3/44/25 17/26/25
f 3/44/26 20/24/26 17/26/26
f 11/25/27 4/43/27 17/26/27
f 10/45/28 2/46/28 18/29/28
f 11/28/29 10/45/29 18/29/29
f 2/46/30 4/27/30 18/29/30
f 3/47/31 1/48/31 19/23/31
f 1/48/32 9/21/32 19/23/32
f 20/22/33 3/47/33 19/23/33
f 11/49/34 20/50/34 22/51/34 21/52/34
f 20/50/34 9/53/34 23/54/34 22/51/34
f 10/55/34 11/49/34 21/52/34 24/56/34
f 9/53/34 10/55/34 24/56/34 23/54/34
g mesh
v -1.727373 -1.850000 1.705797
v -2.000000 1.843003 1.850000
v -1.727373 -1.850000 -1.705797
v -2.000000 1.843003 -1.850000
v -1.727373 -2.000000 -1.705797
v -1.727373 -2.000000 1.705797
v -2.000000 1.993003 2.000000
v -2.000000 1.993003 -2.000000
v 1.727373 -1.850000 1.705797
v 2.000000 1.843003 1.850000
v 2.000000 1.843003 -1.850000
v -0.000000 0.000000 2.150000
v -0.000000 2.143003 0.000000
v -0.000000 0.000000 -2.150000
v -0.000000 0.000000 1.924544
v -0.000000 -0.000000 -1.924544
v -0.000000 1.917547 0.000000
v 1.727373 -1.850000 -1.705797
v 2.000000 1.993003 -2.000000
v 1.727373 -2.000000 -1.705797
v 1.727373 -2.000000 1.705797
v 2.000000 1.993003 2.000000
v -2.000000 -1.850000 -1.850000
v -2.000000 -1.850000 1.850000
v 2.000000 -1.850000 1.850000
v 2.000000 -1.850000 -1.850000
v -2.000000 -2.000000 -2.000000
v -2.000000 -2.000000 2.000000
v 2.000000 -2.000000 2.000000
v 2.000000 -2.000000 -2.000000
v -0.054801 -1.887416 1.705797
v -0.054801 -1.887416 -1.705800
v -0.054801 -1.962584 -1.705797
v -0.054801 -1.962584 1.705800
v 0.054801 -1.887416 1.705800
v 0.054801 -1.887416 -1.705800
v 0.054801 -1.962584 1.705800
v 0.054801 -1.962584 -1.705800
v -0.954801 -1.887416 1.705797
v -0.954801 -1.887416 -1.705800
v -0.954801 -1.962584 -1.705797
v -0.954801 -1.962584 1.705800
v -0.845199 -1.887416 1.705800
v -0.845199 -1.887416 -1.705800
v -0.845199 -1.962584 1.705800
v -0.845199 -1.962584 -1.705800
v -0.654801 -1.887416 1.705797
v -0.654801 -1.887416 -1.705800
v -0.654801 -1.962584 -1.705797
v -0.654801 -1.962584 1.705800
v -0.545199 -1.887416 1.705800
v -0.545199 -1.887416 -1.705800
v -0.545199 -1.962584 1.705800
v -0.545199 -1.962584 -1.705800
v -0.354801 -1.887416 1.705797
v -0.354801 -1.887416 -1.705800
v -0.354801 -1.962584 -1.705797
v -0.354801 -1.962584 1.705800
v -0.245199 -1.887416 1.705800
v -0.245199 -1.887416 -1.705800
v -0.245199 -1.962584 1.705800
v -0.245199 -1.962584 -1.705800
v 0.245199 -1.887416 1.705797
v 0.245199 -1.887416 -1.705800
v 0.245199 -1.962584 -1.705797
v 0.245199 -1.962584 1.705800
v 0.354801 -1.887416 1.705800
v 0.354801 -1.887416 -1.705800
v 0.354801 -1.962584 1.705800
v 0.354801 -1.962584 -1.705800
v 0.545199 -1.887416 1.705797
v 0.545199 -1.887416 -1.705800
v 0.545199 -1.962584 -1.705797
v 0.545199 -1.962584 1.705800
v 0.654801 -1.887416 1.705800
v 0.654801 -1.887416 -1.705800
v 0.654801 -1.962584 1.705800
v 0.654801 -1.962584 -1.705800
v 0.845199 -1.887416 1.705797
v 0.845199 -1.887416 -1.705800
v 0.845199 -1.962584 -1.705797
v 0.845199 -1.962584 1.705800
v 0.954801 -1.887416 1.705800
v 0.954801 -1.887416 -1.705800
v 0.954801 -1.962584 1.705800
v 0.954801 -1.962584 -1.705800
v 1.145199 -1.887416 1.705797
v 1.145199 -1.887416 -1.705800
v 1.145199 -1.962584 -1.705797
v 1.145199 -1.962584 1.705800
v 1.254801 -1.887416 1.705800
v 1.254801 -1.887416 -1.705800
v 1.254801 -1.962584 1.705800
v 1.254801 -1.962584 -1.705800
v 1.445199 -1.862416 1.705797
v 1.445199 -1.862416 -1.705800
v 1.445199 -1.937584 -1.705797
v 1.445199 -1.937584 1.705800
v 1.554801 -1.862416 1.705800
v 1.554801 -1.862416 -1.705800
v 1.554801 -1.937584 1.705800
v 1.554801 -1.937584 -1.705800
v -1.254801 -1.862416 1.705797
v -1.254801 -1.862416 -1.705800
v -1.254801 -1.937584 -1.705797
v -1.254801 -1.937584 1.705800
v -1.145199 -1.862416 1.705800
v -1.145199 -1.862416 -1.705800
v -1.145199 -1.937584 1.705800
v -1.145199 -1.937584 -1.705800
v -1.554801 -1.862416 1.705797
v -1.554801 -1.862416 -1.705800
v -1.554801 -1.937584 -1.705797
v -1.554801 -1.937584 1.705800
v -1.445199 -1.862416 1.705800
v -1.445199 -1.862416 -1.705800
v -1.445199 -1.937584 1.705800
v -1.445199 -1.937584 -1.705800
vt 0.415229 0.492665
vt 0.212183 0.492665
vt 0.313706 0.370416
vt 0.624366 0.492665
vt 0.421320 0.492665
vt 0.522843 0.370416
vt 0.989340 0.735330
vt 0.989340 0.509169
vt 0.996954 0.500000
vt 0.996954 0.744499
vt 0.801523 0.735330
vt 0.793909 0.744499
vt 0.801523 0.509169
vt 0.793909 0.500000
vt 0.206091 0.003667
vt 0.206091 0.248166
vt 0.104569 0.125917
vt 0.323911 0.506904
vt 0.334473 0.506904
vt 0.334473 0.729392
vt 0.323911 0.729392
vt 0.630457 0.248166
vt 0.818274 0.248166
vt 0.724366 0.370416
vt 0.406092 0.988997
vt 0.406092 0.744499
vt 0.500000 0.866748
vt 0.600000 0.744499
vt 0.787817 0.744499
vt 0.693909 0.866748
vt 0.212183 0.248166
vt 0.415229 0.248166
vt 0.421320 0.248166
vt 0.624366 0.248166
vt 0.003046 0.248166
vt 0.003046 0.003668
vt 0.277442 0.739174
vt 0.266881 0.739174
vt 0.266881 0.506904
vt 0.277442 0.506904
vt 0.787817 0.988998
vt 0.600000 0.988998
vt 0.818274 0.492665
vt 0.630457 0.492665
vt 0.593909 0.744499
vt 0.593909 0.988997
vt 0.801523 0.987164
vt 0.989340 0.987164
vt 0.996954 0.996333
vt 0.793909 0.996333
vt 0.989340 0.761002
vt 0.996954 0.751834
vt 0.801523 0.761002
vt 0.793909 0.751834
vt 0.221515 0.977760
vt 0.390668 0.977760
vt 0.400000 0.988997
vt 0.212183 0.988997
vt 0.221515 0.755736
vt 0.212183 0.744499
vt 0.390668 0.755736
vt 0.400000 0.744499
vt 0.193170 0.515560
vt 0.015967 0.515560
vt 0.003046 0.500000
vt 0.206091 0.500000
vt 0.015967 0.728939
vt 0.193170 0.728939
vt 0.206091 0.744499
vt 0.003046 0.744499
vt 0.285891 0.506904
vt 0.296452 0.506904
vt 0.296452 0.739174
vt 0.285891 0.739174
vt 0.304901 0.506904
vt 0.315462 0.506904
vt 0.315462 0.729392
vt 0.304901 0.729392
vt 0.323911 0.506904
vt 0.334473 0.506904
vt 0.334473 0.729392
vt 0.323911 0.729392
vt 0.989340 0.987164
vt 0.989340 0.761002
vt 0.996954 0.751834
vt 0.996954 0.996333
vt 0.390668 0.755736
vt 0.221515 0.755736
vt 0.212183 0.744499
vt 0.400000 0.744499
vt 0.015967 0.728939
vt 0.193170 0.728939
vt 0.206091 0.744499
vt 0.003046 0.744499
vt 0.323911 0.506904
vt 0.334473 0.506904
vt 0.334473 0.729392
vt 0.323911 0.729392
vt 0.989340 0.987164
vt 0.989340 0.761002
vt 0.996954 0.751834
vt 0.996954 0.996333
vt 0.390668 0.755736
vt 0.221515 0.755736
vt 0.212183 0.744499
vt 0.400000 0.744499
vt 0.015967 0.728939
vt 0.193170 0.728939
vt 0.206091 0.744499
vt 0.003046 0.744499
vt 0.323911 0.506904
vt 0.334473 0.506904
vt 0.334473 0.729392
vt 0.323911 0.729392
vt 0.989340 0.987164
vt 0.989340 0.761002
vt 0.996954 0.751834
vt 0.996954 0.996333
vt 0.390668 0.755736
vt 0.221515 0.755736
vt 0.212183 0.744499
vt 0.400000 0.744499
vt 0.015967 0.728939
vt 0.193170 0.728939
vt 0.206091 0.744499
vt 0.003046 0.744499
vt 0.323911 0.506904
vt 0.334473 0.506904
vt 0.334473 0.729392
vt 0.323911 0.729392
vt 0.989340 0.987164
vt 0.989340 0.761002
vt 0.996954 0.751834
vt 0.996954 0.996333
vt 0.390668 0.755736
vt 0.221515 0.755736
vt 0.212183 0.744499
vt 0.400000 0.744499
vt 0.015967 0.728939
vt 0.193170 0.728939
vt 0.206091 0.744499
vt 0.003046 0.744499
vt 0.323911 0.506904
vt 0.334473 0.506904
vt 0.334473 0.729392
vt 0.323911 0.729392
vt 0.989340 0.987164
vt 0.989340 0.761002
vt 0.996954 0.751834
vt 0.996954 0.996333
vt 0.390668 0.755736
vt 0.221515 0.755736
vt 0.212183 0.744499
vt 0.400000 0.744499
vt 0.015967 0.728939
vt 0.193170 0.728939
vt 0.206091 0.744499
vt 0.003046 0.744499
vt 0.323911 0.506904
vt 0.334473 0.506904
vt 0.334473 0.729392
vt 0.323911 0.729392
vt 0.989340 0.987164
vt 0.989340 0.761002
vt 0.996954 0.751834
vt 0.996954 0.996333
vt 0.390668 0.755736
vt 0.221515 0.755736
vt 0.212183 0.744499
vt 0.400000 0.744499
vt 0.015967 0.728939
vt 0.193170 0.728939
vt 0.206091 0.744499
vt 0.003046 0.744499
vt 0.323911 0.506904
vt 0.334473 0.506904
vt 0.334473 0.729392
vt 0.323911 0.729392
vt 0.989340 0.987164
vt 0.989340 0.761002
vt 0.996954 0.751834
vt 0.996954 0.996333
vt 0.390668 0.755736
vt 0.221515 0.755736
vt 0.212183 0.744499
vt 0.400000 0.744499
vt 0.015967 0.728939
vt 0.193170 0.728939
vt 0.206091 0.744499
vt 0.003046 0.744499
vt 0.323911 0.506904
vt 0.334473 0.506904
vt 0.334473 0.729392
vt 0.323911 0.729392
vt 0.989340 0.987164
vt 0.989340 0.761002
vt 0.996954 0.751834
vt 0.996954 0.996333
vt 0.390668 0.755736
vt 0.221515 0.755736
vt 0.212183 0.744499
vt 0.400000 0.744499
vt 0.015967 0.728939
vt 0.193170 0.728939
vt 0.206091 0.744499
vt 0.003046 0.744499
vt 0.323911 0.506904
vt 0.334473 0.506904
vt 0.334473 0.729392
vt 0.323911 0.729392
vt 0.989340 0.987164
vt 0.989340 0.761002
vt 0.996954 0.751834
vt 0.996954 0.996333
vt 0.390668 0.755736
vt 0.221515 0.755736
vt 0.212183 0.744499
vt 0.400000 0.744499
vt 0.015967 0.728939
vt 0.193170 0.728939
vt 0.206091 0.744499
vt 0.003046 0.744499
vt 0.323911 0.506904
vt 0.334473 0.506904
vt 0.334473 0.729392
vt 0.323911 0.729392
vt 0.989340 0.987164
vt 0.989340 0.761002
vt 0.996954 0.751834
vt 0.996954 0.996333
vt 0.390668 0.755736
vt 0.221515 0.755736
vt 0.212183 0.744499
vt 0.400000 0.744499
vt 0.015967 0.728939
vt 0.193170 0.728939
vt 0.206091 0.744499
vt 0.003046 0.744499
vt 0.323911 0.506904
vt 0.334473 0.506904
vt 0.334473 0.729392
vt 0.323911 0.729392
vt 0.989340 0.987164
vt 0.989340 0.761002
vt 0.996954 0.751834
vt 0.996954 0.996333
vt 0.390668 0.755736
vt 0.221515 0.755736
vt 0.212183 0.744499
vt 0.400000 0.744499
vt 0.015967 0.728939
vt 0.193170 0.728939
vt 0.206091 0.744499
vt 0.003046 0.744499
vn -0.0748 0.0000 0.9972
vn -0.0748 0.9972 0.0000
vn -1.0000 0.0000 -0.0000
vn 0.0000 0.0751 -0.9972
vn -0.0372 0.0000 0.9993
vn 0.0000 -0.9992 0.0403
vn -0.0372 0.0000 -0.9993
vn 0.0748 0.0000 0.9972
vn 0.0000 -0.0748 0.9972
vn 0.0000 0.0751 0.9972
vn 0.0748 0.9972 0.0000
vn 0.0000 0.9972 0.0748
vn 0.0000 0.9972 -0.0748
vn 0.0000 -0.0748 -0.9972
vn 0.0748 0.0000 -0.9972
vn -0.0748 0.0000 -0.9972
vn 0.0000 0.0000 1.0000
vn 0.0372 0.0000 -0.9993
vn 0.0000 -0.0404 -0.9992
vn 0.0000 0.0403 -0.9992
vn 0.0372 0.0000 0.9993
vn 0.0000 0.0403 0.9992
vn 0.0000 -0.0404 0.9992
vn 0.0000 -0.9992 -0.0403
vn -0.0372 -0.9993 0.0000
vn 0.0372 -0.9993 0.0000
vn 1.0000 0.0000 0.0000
vn 0.0000 1.0000 0.0000
vn 0.0000 -1.0000 0.0000
vn 0.0000 0.0000 -1.0000
s off
f 31/57/35 52/58/35 36/59/35
f 32/60/36 31/61/36 37/62/36
f 48/63/37 47/64/37 51/65/37 52/66/37
f 26/67/37 48/63/37 52/66/37 31/68/37
f 28/69/37 26/67/37 31/68/37 32/70/37
f 47/64/37 28/69/37 32/70/37 51/65/37
f 32/71/38 43/72/38 38/73/38
f 42/74/37 44/75/37 45/76/37 33/77/37
f 50/78/39 35/79/39 40/80/39
f 28/81/40 35/82/40 41/83/40
f 34/84/41 49/85/41 39/86/41
f 53/87/42 46/88/42 36/59/42
f 52/58/43 53/87/43 36/59/43
f 46/88/44 31/57/44 36/59/44
f 46/89/45 43/90/45 37/62/45
f 31/61/46 46/89/46 37/62/46
f 43/90/47 32/60/47 37/62/47
f 54/91/48 51/92/48 38/73/48
f 43/72/49 54/91/49 38/73/49
f 51/92/50 32/71/50 38/73/50
f 27/93/51 29/94/51 44/95/51 42/96/51
f 48/97/52 26/98/52 39/86/52
f 26/98/53 34/84/53 39/86/53
f 49/85/54 48/97/54 39/86/54
f 28/99/55 47/100/55 40/80/55
f 47/100/56 50/78/56 40/80/56
f 35/79/57 28/99/57 40/80/57
f 34/101/58 26/102/58 41/83/58
f 35/82/59 34/101/59 41/83/59
f 26/102/60 28/81/60 41/83/60
f 35/103/61 50/104/61 54/105/61 43/106/61
f 50/104/61 49/107/61 53/108/61 54/105/61
f 34/109/61 35/103/61 43/106/61 46/110/61
f 49/107/61 34/109/61 46/110/61 53/108/61
f 25/111/62 27/112/62 47/113/62 48/114/62
f 33/115/62 25/111/62 48/114/62 49/116/62
f 27/112/62 42/117/62 50/118/62 47/113/62
f 42/117/62 33/115/62 49/116/62 50/118/62
f 29/119/63 30/120/63 52/121/63 51/122/63
f 45/123/63 44/124/63 54/125/63 53/126/63
f 44/124/63 29/119/63 51/122/63 54/125/63
f 30/120/63 45/123/63 53/126/63 52/121/63
f 33/127/64 45/128/64 30/129/64 25/130/64
f 25/131/61 30/132/61 29/133/61 27/134/61
f 56/135/37 57/136/37 58/137/37 55/138/37
f 60/139/61 59/140/61 61/141/61 62/142/61
f 56/143/62 55/144/62 59/145/62 60/146/62
f 58/147/63 57/148/63 62/149/63 61/150/63
f 64/151/37 65/152/37 66/153/37 63/154/37
f 68/155/61 67/156/61 69/157/61 70/158/61
f 64/159/62 63/160/62 67/161/62 68/162/62
f 66/163/63 65/164/63 70/165/63 69/166/63
f 72/167/37 73/168/37 74/169/37 71/170/37
f 76/171/61 75/172/61 77/173/61 78/174/61
f 72/175/62 71/176/62 75/177/62 76/178/62
f 74/179/63 73/180/63 78/181/63 77/182/63
f 80/183/37 81/184/37 82/185/37 79/186/37
f 84/187/61 83/188/61 85/189/61 86/190/61
f 80/191/62 79/192/62 83/193/62 84/194/62
f 82/195/63 81/196/63 86/197/63 85/198/63
f 88/199/37 89/200/37 90/201/37 87/202/37
f 92/203/61 91/204/61 93/205/61 94/206/61
f 88/207/62 87/208/62 91/209/62 92/210/62
f 90/211/63 89/212/63 94/213/63 93/214/63
f 96/215/37 97/216/37 98/217/37 95/218/37
f 100/219/61 99/220/61 101/221/61 102/222/61
f 96/223/62 95/224/62 99/225/62 100/226/62
f 98/227/63 97/228/63 102/229/63 101/230/63
f 104/231/37 105/232/37 106/233/37 103/234/37
f 108/235/61 107/236/61 109/237/61 110/238/61
f 104/239/62 103/240/62 107/241/62 108/242/62
f 106/243/63 105/244/63 110/245/63 109/246/63
f 112/247/37 113/248/37 114/249/37 111/250/37
f 116/251/61 115/252/61 117/253/61 118/254/61
f 112/255/62 111/256/62 115/257/62 116/258/62
f 114/259/63 113/260/63 118/261/63 117/262/63
f 120/263/37 121/264/37 122/265/37 119/266/37
f 124/267/61 123/268/61 125/269/61 126/270/61
f 120/271/62 119/272/62 123/273/62 124/274/62
f 122/275/63 121/276/63 126/277/63 125/278/63
f 128/279/37 129/280/37 130/281/37 127/282/37
f 132/283/61 131/284/61 133/285/61 134/286/61
f 128/287/62 127/288/62 131/289/62 132/290/62
f 130/291/63 129/292/63 134/293/63 133/294/63
f 136/295/37 137/296/37 138/297/37 135/298/37
f 140/299/61 139/300/61 141/301/61 142/302/61
f 136/303/62 135/304/62 139/305/62 140/306/62
f 138/307/63 137/308/63 142/309/63 141/310/63
