<?xml version="1.0" encoding="UTF-8" standalone="no"?>
<!-- Created with Inkscape (http://www.inkscape.org/) -->

<svg
   xmlns:dc="http://purl.org/dc/elements/1.1/"
   xmlns:cc="http://creativecommons.org/ns#"
   xmlns:rdf="http://www.w3.org/1999/02/22-rdf-syntax-ns#"
   xmlns:svg="http://www.w3.org/2000/svg"
   xmlns="http://www.w3.org/2000/svg"
   xmlns:sodipodi="http://sodipodi.sourceforge.net/DTD/sodipodi-0.dtd"
   xmlns:inkscape="http://www.inkscape.org/namespaces/inkscape"
   width="1160"
   height="1160"
   viewBox="0 0 1159.99998615611 1159.999986127608"
   id="svg2"
   version="1.1"
   inkscape:version="0.91 r13725"
   sodipodi:docname="RE-modes-ffa.svg"
   inkscape:export-filename="D:\Samuel Daten\Ico\Eigene Ico\Inkscape\RE-player-white.png"
   inkscape:export-xdpi="90"
   inkscape:export-ydpi="90">
  <defs
     id="defs4">
    <filter
       style="color-interpolation-filters:sRGB"
       inkscape:label="Lightness-Contrast"
       id="filter4246">
      <feColorMatrix
         values="10.688 0 0 -5.844 -4.844 0 10.688 0 -5.844 -4.844 0 0 10.688 -5.844 -4.844 0 0 0 1 0"
         id="feColorMatrix4248"
         result="fbSourceGraphic" />
      <feColorMatrix
         result="fbSourceGraphicAlpha"
         in="fbSourceGraphic"
         values="0 0 0 -1 0 0 0 0 -1 0 0 0 0 -1 0 0 0 0 1 0"
         id="feColorMatrix4250" />
      <feColorMatrix
         id="feColorMatrix4252"
         values="10.688 0 0 -5.844 -4.844 0 10.688 0 -5.844 -4.844 0 0 10.688 -5.844 -4.844 0 0 0 1 0"
         in="fbSourceGraphic" />
    </filter>
  </defs>
  <sodipodi:namedview
     id="base"
     pagecolor="#000000"
     bordercolor="#666666"
     borderopacity="1.0"
     inkscape:pageopacity="0"
     inkscape:pageshadow="2"
     inkscape:zoom="2.828427134446543"
     inkscape:cx="524.9147655184074"
     inkscape:cy="526.5113718801534"
     inkscape:document-units="px"
     inkscape:current-layer="layer1"
     showgrid="false"
     units="px"
     inkscape:snap-bbox="true"
     inkscape:showpageshadow="false"
     borderlayer="true"
     showborder="true" />
  <metadata
     id="metadata7">
    <rdf:RDF>
      <cc:Work
         rdf:about="">
        <dc:format>image/svg+xml</dc:format>
        <dc:type
           rdf:resource="http://purl.org/dc/dcmitype/StillImage" />
        <dc:title></dc:title>
      </cc:Work>
    </rdf:RDF>
  </metadata>
  <g
     inkscape:label="Ebene 1"
     inkscape:groupmode="layer"
     id="layer1"
     transform="translate(0,107.6377106914379)">
    <path
       style="display:inline;fill:#ffffff;fill-opacity:1;stroke:#ffffff;stroke-width:2.7500808239px;stroke-linecap:butt;stroke-linejoin:miter;stroke-opacity:0"
       d="M 583.9364488710067,24.98860806265719 C 277.1211497097734,4.55913715046431 319.9626193482061,176.7421692399391 307.830692499867,220.7726693524992 l 120.1687446418978,-0.3137567288364 z"
       id="path3016"
       inkscape:connector-curvature="0"
       sodipodi:nodetypes="cccc" />
    <path
       inkscape:connector-curvature="0"
       style="display:inline;fill:#ffffff;fill-opacity:1;stroke:#ffffff;stroke-width:2.9267997742px;stroke-linecap:butt;stroke-linejoin:miter;stroke-opacity:0"
       d="m 280.2770929762002,431.3170033140418 -83.4030285946749,0 0,1.6536878602212 27.1528608097866,27.1528608097865 55.8751556527504,0 0.375012132138,-28.8065486700081 z"
       id="path4341" />
    <path
       inkscape:connector-curvature="0"
       style="display:inline;fill:#ffffff;fill-opacity:1;stroke:#ffffff;stroke-width:2.9267997742px;stroke-linecap:butt;stroke-linejoin:miter;stroke-opacity:0"
       d="m 394.1948752833097,383.1502468179273 -39.7843267231251,-41.8345031812015 -157.5364841786593,0 0,69.7010434671274 83.6673543265785,0 0.3634478813673,-27.8665402859249 113.2900086938386,0 z"
       id="path4335" />
    <path
       inkscape:connector-curvature="0"
       style="display:inline;fill:#ffffff;fill-opacity:1;stroke:#ffffff;stroke-width:2.9267997742px;stroke-linecap:butt;stroke-linejoin:miter;stroke-opacity:0"
       d="m 293.9179527782451,411.016787103853 126.7772291642143,0 -11.2321915700741,-11.8104041086129 -115.5450375941402,0 0,11.8104041086129 z"
       id="path4333" />
    <path
       inkscape:connector-curvature="0"
       style="display:inline;fill:#ffffff;fill-opacity:1;stroke:#ffffff;stroke-width:2.9267997742px;stroke-linecap:butt;stroke-linejoin:miter;stroke-opacity:0"
       d="m 492.2547657120335,203.230329254515 -42.9727558642108,44.388550565719 -161.5030221930363,0.4724822457775 1.8882769472856,-36.833790740752 -91.0023933869005,109.757956101278 160.1004437781232,0 a 10.15112311590476,10.15112311590477 0 0 1 0.1057302927614,0.00165203582 10.15112311590476,10.15112311590477 0 0 1 1.0126979603554,0.061125325503 10.15112311590476,10.15112311590477 0 0 1 1.0027857454091,0.1618995107908 10.15112311590476,10.15112311590477 0 0 1 0.9796572438673,0.2610216602546 10.15112311590476,10.15112311590477 0 0 1 0.9499205990283,0.3584917738941 10.15112311590476,10.15112311590477 0 0 1 0.9086197034184,0.4510057800605 10.15112311590476,10.15112311590477 0 0 1 0.8590586286863,0.5385636787534 10.15112311590476,10.15112311590477 0 0 1 0.8012373748322,0.6228175057977 10.15112311590476,10.15112311590477 0 0 1 0.7351559418566,0.6988111537198 l 71.3894240796612,75.068507860593 14.6056487234921,14.6056487234923 56.2419076057664,-58.6753563751029 -43.9639773588491,76.1472872539234 -18.4168953703757,0 -0.1222506510055,-0.1222506510046 a 10.15112311590476,10.15112311590477 0 0 1 -0.4840464965479,0.072689576274 10.15112311590476,10.15112311590477 0 0 1 -1.0143499961798,0.049561074732 l -150.4376862412262,0 0,5.1956526677281 48.6392387418922,52.4174446722875 28.8065486700078,0 0,-29.7498611257381 28.3340664242304,0 0,29.7498611257381 112.8637834511438,0 59.0288920415243,-70.8343400426623 -0.9449644915551,-139.3095729280888 -78.3907519034552,-75.5558584287905 z"
       id="path3786" />
    <path
       style="color:#000000;font-style:normal;font-variant:normal;font-weight:normal;font-stretch:normal;font-size:medium;line-height:normal;font-family:sans-serif;text-indent:0;text-align:start;text-decoration:none;text-decoration-line:none;text-decoration-style:solid;text-decoration-color:#000000;letter-spacing:normal;word-spacing:normal;text-transform:none;direction:ltr;block-progression:tb;writing-mode:lr-tb;baseline-shift:baseline;text-anchor:start;white-space:normal;clip-rule:nonzero;display:inline;overflow:visible;visibility:visible;opacity:1;isolation:auto;mix-blend-mode:normal;color-interpolation:sRGB;color-interpolation-filters:linearRGB;solid-color:#000000;solid-opacity:1;fill:#ffffff;fill-opacity:1;fill-rule:nonzero;stroke:none;stroke-width:24;stroke-linecap:butt;stroke-linejoin:round;stroke-miterlimit:4;stroke-dasharray:none;stroke-dashoffset:0;stroke-opacity:1;color-rendering:auto;image-rendering:auto;shape-rendering:auto;text-rendering:auto;enable-background:accumulate"
       d="m 27.42474987314018,341.3165826627948 326.98579868704445,0 66.2846333822748,69.7010434671276 -350.19029387652022,0 -43.08013819279674,-39.3283648355914 z"
       id="path3813"
       inkscape:connector-curvature="0"
       sodipodi:nodetypes="cccccc" />
    <path
       style="opacity:1;fill:#ffffff;fill-opacity:1;stroke:none;stroke-width:15.5959997177;stroke-linecap:butt;stroke-linejoin:round;stroke-miterlimit:4;stroke-dasharray:none;stroke-opacity:1"
       d="m 557.6501016018919,476.1335872866923 23.0745790922472,26.9478522391487 0,67.5482863804368 246.7000691790008,245.2942792064447 -190.3145293099949,0 18.6087023738396,-22.8377432364622 -218.2274951073596,-222.4565359699826 -22.8377432364621,22.8377432364617 123.4929819453124,123.4929819453137 -77.8174954723894,98.9635540246694 0,-31.2961666573741 -193.6978939994039,-185.2396357013472 75.9261919954733,-87.9674407941069 184.0349934228322,-1.627833767e-4 z"
       id="path5904"
       inkscape:connector-curvature="0"
       sodipodi:nodetypes="ccccccccccccccc" />
    <path
       style="display:inline;fill:#ffffff;fill-opacity:1;stroke:#ffffff;stroke-width:2.7500808239px;stroke-linecap:butt;stroke-linejoin:miter;stroke-opacity:0"
       d="M 576.0635511289923,88.5049327967944 C 882.8788502902258,68.0754618846015 840.0373806517934,240.2584939740764 852.1693075001328,284.2889940866364 L 732.0005628582347,283.9752373578 Z"
       id="path3016-9"
       inkscape:connector-curvature="0"
       sodipodi:nodetypes="cccc" />
    <path
       inkscape:connector-curvature="0"
       style="display:inline;fill:#ffffff;fill-opacity:1;stroke:#ffffff;stroke-width:2.9267997742px;stroke-linecap:butt;stroke-linejoin:miter;stroke-opacity:0"
       d="m 879.7229070237998,494.8333280481791 83.4030285946741,0 0,1.653687860221 -27.1528608097864,27.1528608097865 -55.8751556527505,0 -0.3750121321372,-28.8065486700075 z"
       id="path4341-9" />
    <path
       inkscape:connector-curvature="0"
       style="display:inline;fill:#ffffff;fill-opacity:1;stroke:#ffffff;stroke-width:2.9267997742px;stroke-linecap:butt;stroke-linejoin:miter;stroke-opacity:0"
       d="m 765.8051247166896,446.6665715520645 39.7843267231251,-41.8345031812018 157.5364841786592,0 0,69.701043467128 -83.6673543265781,0 -0.3634478813673,-27.8665402859266 -113.2900086938389,0 z"
       id="path4335-6" />
    <path
       inkscape:connector-curvature="0"
       style="display:inline;fill:#ffffff;fill-opacity:1;stroke:#ffffff;stroke-width:2.9267997742px;stroke-linecap:butt;stroke-linejoin:miter;stroke-opacity:0"
       d="m 866.0820472217549,474.5331118379907 -126.7772291642149,0 11.2321915700743,-11.8104041086134 115.5450375941405,0 0,11.8104041086134 z"
       id="path4333-1" />
    <path
       inkscape:connector-curvature="0"
       style="display:inline;fill:#ffffff;fill-opacity:1;stroke:#ffffff;stroke-width:2.9267997742px;stroke-linecap:butt;stroke-linejoin:miter;stroke-opacity:0"
       d="m 667.7452342879662,266.7466539886522 42.9727558642105,44.388550565719 161.5030221930363,0.4724822457775 -1.8882769472854,-36.8337907407522 91.0023933869003,109.757956101278 -160.1004437781236,0 a 10.15112311590476,10.15112311590477 0 0 0 -0.1057302927611,0.00165203582 10.15112311590476,10.15112311590477 0 0 0 -1.0126979603552,0.061125325503 10.15112311590476,10.15112311590477 0 0 0 -1.0027857454093,0.1618995107909 10.15112311590476,10.15112311590477 0 0 0 -0.979657243867,0.2610216602546 10.15112311590476,10.15112311590477 0 0 0 -0.9499205990287,0.3584917738941 10.15112311590476,10.15112311590477 0 0 0 -0.9086197034178,0.4510057800605 10.15112311590476,10.15112311590477 0 0 0 -0.8590586286864,0.5385636787534 10.15112311590476,10.15112311590477 0 0 0 -0.8012373748325,0.6228175057976 10.15112311590476,10.15112311590477 0 0 0 -0.7351559418566,0.6988111537199 l -71.389424079661,75.0685078605922 -14.6056487234921,14.6056487234925 -56.2419076057671,-58.6753563751026 43.9639773588491,76.1472872539235 18.4168953703762,0 0.1222506510054,-0.1222506510048 a 10.15112311590476,10.15112311590477 0 0 0 0.484046496548,0.072689576274 10.15112311590476,10.15112311590477 0 0 0 1.0143499961797,0.049561074732 l 150.437686241227,0 0,5.1956526677281 -48.6392387418928,52.4174446722874 -28.8065486700077,0 0,-29.7498611257381 -28.3340664242311,0 0,29.7498611257381 -112.8637834511436,0 -59.0288920415245,-70.8343400426635 0.9449644915552,-139.3095729280886 78.390751903455,-75.5558584287902 z"
       id="path3786-8" />
    <path
       style="color:#000000;font-style:normal;font-variant:normal;font-weight:normal;font-stretch:normal;font-size:medium;line-height:normal;font-family:sans-serif;text-indent:0;text-align:start;text-decoration:none;text-decoration-line:none;text-decoration-style:solid;text-decoration-color:#000000;letter-spacing:normal;word-spacing:normal;text-transform:none;direction:ltr;block-progression:tb;writing-mode:lr-tb;baseline-shift:baseline;text-anchor:start;white-space:normal;clip-rule:nonzero;display:inline;overflow:visible;visibility:visible;opacity:1;isolation:auto;mix-blend-mode:normal;color-interpolation:sRGB;color-interpolation-filters:linearRGB;solid-color:#000000;solid-opacity:1;fill:#ffffff;fill-opacity:1;fill-rule:nonzero;stroke:none;stroke-width:24;stroke-linecap:butt;stroke-linejoin:round;stroke-miterlimit:4;stroke-dasharray:none;stroke-dashoffset:0;stroke-opacity:1;color-rendering:auto;image-rendering:auto;shape-rendering:auto;text-rendering:auto;enable-background:accumulate"
       d="m 1132.57525012686,404.8329073969317 -326.9857986870453,0 -66.2846333822747,69.7010434671278 350.190293876523,0 43.080138192797,-39.3283648355912 z"
       id="path3813-6"
       inkscape:connector-curvature="0"
       sodipodi:nodetypes="cccccc" />
    <path
       style="color:#000000;font-style:normal;font-variant:normal;font-weight:normal;font-stretch:normal;font-size:medium;line-height:normal;font-family:sans-serif;text-indent:0;text-align:start;text-decoration:none;text-decoration-line:none;text-decoration-style:solid;text-decoration-color:#000000;letter-spacing:normal;word-spacing:normal;text-transform:none;direction:ltr;block-progression:tb;writing-mode:lr-tb;baseline-shift:baseline;text-anchor:start;white-space:normal;clip-rule:nonzero;display:inline;overflow:visible;visibility:visible;opacity:1;isolation:auto;mix-blend-mode:normal;color-interpolation:sRGB;color-interpolation-filters:linearRGB;solid-color:#000000;solid-opacity:1;fill:#000000;fill-opacity:1;fill-rule:nonzero;stroke:none;stroke-width:30;stroke-linecap:butt;stroke-linejoin:miter;stroke-miterlimit:4;stroke-dasharray:none;stroke-dashoffset:0;stroke-opacity:1;color-rendering:auto;image-rendering:auto;shape-rendering:auto;text-rendering:auto;enable-background:accumulate"
       d="m 602.193359375,516.76953125 -37.91796875,-49.716796875 0,160.85546875 -268.060546875,266.53125 258.24609375,0 -30.076171875,-36.91015625 L 724.1328125,656.984375 601.833984375,779.283203125 l 112.8359375,143.5 0,-68.228515625 199.3671875,-190.66015625 -89.7265625,-103.95703125 -184.123046875,0 z"
       id="path5357"
       inkscape:connector-curvature="0"
       sodipodi:nodetypes="cccccccccccccc" />
    <rect
       style="opacity:1;fill:#000000;fill-opacity:1;stroke:none;stroke-width:45;stroke-linecap:round;stroke-linejoin:miter;stroke-miterlimit:4;stroke-dasharray:none;stroke-opacity:0"
       id="rect4153"
       width="322"
       height="181.5"
       x="587.4339599609375"
       y="667.1119995117188" />
    <path
       style="opacity:1;fill:#ffffff;fill-opacity:1;stroke:none;stroke-width:15.5959997177;stroke-linecap:butt;stroke-linejoin:miter;stroke-miterlimit:4;stroke-dasharray:none;stroke-opacity:1"
       d="m 602.3498983981071,539.6499120208294 -23.0745790922474,26.9478522391486 0,67.5482863804367 -246.7000691790001,245.2942792064448 190.3145293099942,0 -18.6087023738393,-22.8377432364623 218.2274951073598,-222.4565359699825 22.8377432364621,22.8377432364622 -123.4929819453124,123.4929819453132 77.8174954723895,98.9635540246694 0,-31.2961666573741 193.6978939994037,-185.2396357013472 -75.926191995473,-87.9674407941068 -184.0349934228325,-1.627833768e-4 z"
       id="path5904-6"
       inkscape:connector-curvature="0"
       sodipodi:nodetypes="ccccccccccccccc" />
  </g>
</svg>
