# Exported from Wings 3D 1.5.4
mtllib model.mtl
o model.obj
#172 vertices, 176 faces
v -12.25000000 9.00000000 -15.00000000
v -12.25000000 8.25000000 -15.00000000
v 13.00000000 9.00000000 14.25000000
v 13.00000000 9.00000000 5.75000000
v 13.00000000 8.25000000 5.75000000
v 13.00000000 8.25000000 14.25000000
v -3.75000000 9.00000000 -15.00000000
v -3.75000000 8.25000000 -15.00000000
v -13.00000000 9.00000000 -14.25000000
v -13.00000000 8.25000000 -14.25000000
v -3.00000000 9.00000000 -14.25000000
v -3.00000000 8.25000000 -14.25000000
v 12.25000000 9.00000000 15.00000000
v 12.25000000 9.00000000 5.00000000
v 12.25000000 8.25000000 5.00000000
v 12.25000000 8.25000000 15.00000000
v 12.78030000 9.00000000 14.78030000
v 12.78030000 9.00000000 5.21967000
v 12.78030000 8.25000000 5.21967000
v 12.78030000 8.25000000 14.78030000
v -12.78090000 9.00000000 -14.78030000
v -12.78090000 8.25000000 -14.78030000
v -3.21967000 9.00000000 -14.78030000
v -3.21967000 8.25000000 -14.78030000
v 11.50000000 8.25000000 12.00000000
v -10.00000000 8.25000000 12.00000000
v -10.00000000 5.00000000 12.00000000
v 11.50000000 5.00000000 12.00000000
v -10.00000000 5.00000000 12.75000000
v 11.50000000 5.00000000 12.75000000
v -10.00000000 8.25000000 12.75000000
v 11.50000000 8.25000000 12.75000000
v -13.00000000 9.00000000 14.25000000
v -12.78030000 9.00000000 14.78030000
v -12.78030000 8.25000000 14.78030000
v -13.00000000 8.25000000 14.25000000
v -12.25000000 9.00000000 15.00000000
v -12.25000000 8.25000000 15.00000000
v -2.78030000 9.00000000 4.78030000
v -2.25000000 9.00000000 5.00000000
v -2.25000000 8.25000000 5.00000000
v -2.78030000 8.25000000 4.78030000
v -3.00000000 9.00000000 4.25000000
v -3.00000000 8.25000000 4.25000000
v -3.83331000 0.50000000 -14.23520000
v -3.83331000 8.25000000 -14.23520000
v -12.16671700 8.25000000 -14.23520000
v -12.16671700 0.50000000 -14.23520000
v -12.49637900 8.25000000 -14.04773300
v -12.49637900 8.25000000 -13.67266700
v -12.16671700 0.50000000 -13.48520000
v -12.16671700 8.25000000 -13.48520000
v -3.83331000 8.25000000 -13.48520000
v -3.83331000 0.50000000 -13.48520000
v -3.50364800 8.25000000 -13.67266700
v -3.50364800 8.25000000 -14.04773300
v -11.83706000 0.0000000e+0 -14.04773300
v -11.83706000 0.0000000e+0 -13.67266700
v -11.83706000 0.50000000 -13.67266700
v -11.83706000 0.50000000 -14.04773300
v -12.16672000 0.0000000e+0 -13.48520000
v -12.16672000 0.0000000e+0 -14.23520000
v -12.49637900 0.0000000e+0 -13.67266700
v -12.49637900 0.0000000e+0 -14.04773300
v -3.50362000 0.0000000e+0 -14.04773300
v -3.50362000 0.0000000e+0 -13.67266700
v -3.83328200 0.0000000e+0 -14.23520000
v -3.83328200 0.0000000e+0 -13.48520000
v -4.16293900 0.0000000e+0 -13.67266700
v -4.16293900 0.50000000 -13.67266700
v -4.16293900 0.0000000e+0 -14.04773300
v -4.16293900 0.50000000 -14.04773300
v -10.00000000 0.50000000 14.16307000
v -10.00000000 8.25000000 14.16307000
v -10.00000000 8.25000000 5.82966200
v -10.00000000 0.50000000 5.82966200
v -10.18746700 8.25000000 5.50000000
v -10.56253300 8.25000000 5.50000000
v -10.75000000 0.50000000 5.82966200
v -10.75000000 8.25000000 5.82966200
v -10.75000000 8.25000000 14.16307000
v -10.75000000 0.50000000 14.16307000
v -10.56253300 8.25000000 14.49273200
v -10.18746700 8.25000000 14.49273200
v -10.18746700 0.0000000e+0 6.15932000
v -10.56253300 0.0000000e+0 6.15932000
v -10.56253300 0.50000000 6.15932000
v -10.18746700 0.50000000 6.15932000
v -10.75000000 0.0000000e+0 5.82965800
v -10.00000000 0.0000000e+0 5.82965800
v -10.56253300 0.0000000e+0 5.50000000
v -10.18746700 0.0000000e+0 5.50000000
v -10.18746700 0.0000000e+0 14.49276000
v -10.56253300 0.0000000e+0 14.49276000
v -10.00000000 0.0000000e+0 14.16309800
v -10.75000000 0.0000000e+0 14.16309800
v -10.56253300 0.0000000e+0 13.83344100
v -10.56253300 0.50000000 13.83344100
v -10.18746700 0.0000000e+0 13.83344100
v -10.18746700 0.50000000 13.83344100
v 11.50000000 0.50000000 5.82966200
v 11.50000000 8.25000000 5.82966200
v 11.50000000 8.25000000 14.16307000
v 11.50000000 0.50000000 14.16307000
v 12.06253300 8.25000000 5.50000000
v 11.68746700 8.25000000 5.50000000
v 12.25000000 0.50000000 5.82966200
v 12.25000000 8.25000000 5.82966200
v 12.25000000 0.50000000 14.16307000
v 12.25000000 8.25000000 14.16307000
v 11.68746700 8.25000000 14.49273200
v 12.06253300 8.25000000 14.49273200
v 12.06253300 0.0000000e+0 6.15932000
v 11.68746700 0.0000000e+0 6.15932000
v 11.68746700 0.50000000 6.15932000
v 12.06253300 0.50000000 6.15932000
v 11.50000000 0.0000000e+0 5.82965800
v 12.25000000 0.0000000e+0 5.82965800
v 11.68746700 0.0000000e+0 5.50000000
v 12.06253300 0.0000000e+0 5.50000000
v 12.06253300 0.0000000e+0 14.49276000
v 11.68746700 0.0000000e+0 14.49276000
v 12.25000000 0.0000000e+0 14.16309800
v 11.50000000 0.0000000e+0 14.16309800
v 11.68746700 0.0000000e+0 13.83344100
v 11.68746700 0.50000000 13.83344100
v 12.06253300 0.0000000e+0 13.83344100
v 12.06253300 0.50000000 13.83344100
v -10.00000000 5.00000000 5.82966000
v -10.00000000 8.25000000 5.82966000
v -10.00000000 8.25000000 -13.50000000
v -10.00000000 5.00000000 -13.50000000
v -10.75000000 8.25000000 5.82966000
v -10.75000000 5.00000000 5.82966000
v -10.75000000 5.00000000 -13.50000000
v -10.75000000 8.25000000 -13.50000000
v -12.25000000 9.00000000 -15.00000000
v -3.75000000 9.00000000 -15.00000000
v -3.21967000 9.00000000 -14.78030000
v -12.78090000 9.00000000 -14.78030000
v -13.00000000 9.00000000 -14.25000000
v -3.00000000 9.00000000 -14.25000000
v -3.00000000 9.00000000 4.25000000
v -13.00000000 9.00000000 14.25000000
v -2.78030000 9.00000000 4.78030000
v -12.78030000 9.00000000 14.78030000
v -12.25000000 9.00000000 15.00000000
v -2.25000000 9.00000000 5.00000000
v 12.25000000 9.00000000 15.00000000
v 12.25000000 9.00000000 5.00000000
v 12.78030000 9.00000000 14.78030000
v 12.78030000 9.00000000 5.21967000
v 13.00000000 9.00000000 5.75000000
v 13.00000000 9.00000000 14.25000000
v -3.00000000 8.25000000 4.25000000
v -3.00000000 8.25000000 -14.25000000
v -13.00000000 8.25000000 -14.25000000
v -13.00000000 8.25000000 14.25000000
v -2.78030000 8.25000000 4.78030000
v -12.78030000 8.25000000 14.78030000
v -12.25000000 8.25000000 15.00000000
v -2.25000000 8.25000000 5.00000000
v 12.25000000 8.25000000 15.00000000
v 12.25000000 8.25000000 5.00000000
v -12.78090000 8.25000000 -14.78030000
v -3.21967000 8.25000000 -14.78030000
v -12.25000000 8.25000000 -15.00000000
v -3.75000000 8.25000000 -15.00000000
v 12.78030000 8.25000000 5.21967000
v 12.78030000 8.25000000 14.78030000
v 13.00000000 8.25000000 5.75000000
v 13.00000000 8.25000000 14.25000000
vt 2.0840000e-3 0.99861300
vt 2.0870000e-3 0.97384100
vt 2.3050000e-3 2.5170000e-2
vt 2.3050000e-3 0.90824000
vt 5.6680000e-3 0.92467100
vt 5.6780000e-3 8.7390000e-3
vt 1.1475000e-2 0.99861700
vt 1.1479000e-2 0.97384700
vt 1.2665000e-2 0.94045700
vt 1.2665000e-2 0.96522800
vt 1.3817000e-2 1.9320000e-3
vt 1.3817000e-2 0.93147800
vt 2.0866000e-2 0.99862300
vt 2.0870000e-2 0.97385100
vt 0.14428000 0.93147800
vt 0.15173100 0.94045700
vt 0.15173100 0.96522800
vt 0.15242000 0.92467100
vt 0.15579100 0.33502000
vt 0.15579100 0.90824000
vt 0.15916300 0.31858900
vt 0.15983000 0.96917800
vt 0.15983800 0.33075300
vt 0.16730300 0.31178000
vt 0.21300200 0.96918000
vt 0.21301100 0.33075500
vt 0.22527300 0.96918000
vt 0.22528100 0.33075700
vt 0.25809700 0.99875000
vt 0.25810000 0.97397800
vt 0.26981400 0.98168800
vt 0.26981400 0.99820300
vt 0.27595000 0.98168800
vt 0.27595000 0.99820300
vt 0.27844500 0.96918400
vt 0.27845400 0.33075900
vt 0.28215500 0.72572100
vt 0.28215500 0.98168800
vt 0.28215500 0.99820300
vt 0.28332500 0.69516600
vt 0.28332500 0.71168100
vt 0.28376300 0.31906500
vt 0.28376300 0.33159200
vt 0.28376300 0.34411600
vt 0.28376300 0.35650500
vt 0.28376300 0.36902900
vt 0.28376300 0.38155600
vt 0.28376300 0.39394300
vt 0.28835900 0.72572100
vt 0.28835900 0.99820300
vt 0.28952900 0.43919800
vt 0.28952900 0.69516600
vt 0.28952900 0.71168100
vt 0.29194300 0.31906500
vt 0.29194300 0.33159000
vt 0.29194300 0.36903100
vt 0.29194300 0.38155600
vt 0.29194300 0.39394300
vt 0.29449600 0.72572100
vt 0.29449600 0.99820300
vt 0.29573400 0.43919800
vt 0.29573400 0.71168100
vt 0.30070000 0.72572100
vt 0.30070000 0.98168800
vt 0.30070000 0.99820300
vt 0.30187000 0.43919800
vt 0.30187000 0.71168100
vt 0.30492200 0.40713300
vt 0.30492200 0.42364800
vt 0.30690500 0.98168800
vt 0.30690500 0.99820300
vt 0.30807500 0.43919800
vt 0.30807500 0.69516600
vt 0.30807500 0.71168100
vt 0.31024300 0.72167900
vt 0.31024300 0.99691700
vt 0.31105900 0.40713300
vt 0.31105900 0.42364800
vt 0.31428000 0.69516600
vt 0.31428000 0.71168100
vt 0.31726300 0.40713300
vt 0.31726300 0.42364800
vt 0.31726300 0.67961500
vt 0.32041600 0.69516600
vt 0.32041600 0.71168100
vt 0.32346800 0.40713300
vt 0.32346800 0.67961500
vt 0.32621700 0.71261400
vt 0.32622300 0.68784400
vt 0.32960500 0.40713300
vt 0.32960500 0.67961500
vt 0.33560800 0.71262400
vt 0.33561400 0.68785200
vt 0.33580900 0.40713300
vt 0.33580900 0.42364800
vt 0.33580900 0.67961500
vt 0.34201300 0.40713300
vt 0.34201300 0.42364800
vt 0.34500000 0.71263400
vt 0.34500600 0.68786200
vt 0.34741700 0.40600100
vt 0.34741700 0.68123900
vt 0.38985800 1.9320000e-3
vt 0.38985800 0.31178000
vt 0.39799700 8.7390000e-3
vt 0.39799700 0.30497400
vt 0.40136800 2.5170000e-2
vt 0.40136800 0.28854100
vt 0.40439700 1.2500000e-3
vt 0.40439700 1.7763000e-2
vt 0.40768600 0.37475000
vt 0.40769200 0.39952200
vt 0.41060100 1.2500000e-3
vt 0.41060100 1.7763000e-2
vt 0.41060100 0.27373300
vt 0.41680600 1.2500000e-3
vt 0.41680600 0.27373300
vt 0.41707700 0.37474200
vt 0.41708300 0.39951400
vt 0.41873900 0.33159200
vt 0.41873900 0.34411600
vt 0.41873900 0.35650500
vt 0.41873900 0.36902900
vt 0.42294300 1.2500000e-3
vt 0.42294300 0.27373300
vt 0.42646800 0.37473200
vt 0.42647400 0.39950400
vt 0.42914700 1.2500000e-3
vt 0.42914700 1.7763000e-2
vt 0.42914700 0.27373300
vt 0.43452600 9.2171000e-2
vt 0.43452600 0.36740900
vt 0.43468400 2.4704000e-2
vt 0.43468400 3.7228000e-2
vt 0.43468400 4.9617000e-2
vt 0.43468400 6.2141000e-2
vt 0.43535200 1.2500000e-3
vt 0.43535200 1.7763000e-2
vt 0.43703900 0.72167900
vt 0.43703900 0.99691700
vt 0.44119800 0.72157800
vt 0.44119800 0.99681600
vt 0.44148800 1.2500000e-3
vt 0.44148800 1.7763000e-2
vt 0.47421300 0.40600100
vt 0.47421300 0.68123900
vt 0.47832400 0.44033900
vt 0.47832400 0.54768000
vt 0.47832400 0.57245200
vt 0.47832400 0.67979300
vt 0.48700600 0.43274400
vt 0.48700900 0.40797100
vt 0.49639800 0.43274800
vt 0.49640100 0.40797600
vt 0.50578900 0.43275100
vt 0.50579200 0.40798100
vt 0.56132300 9.2171000e-2
vt 0.56132300 0.36740900
vt 0.56148000 1.2177000e-2
vt 0.56148000 2.4704000e-2
vt 0.56148000 6.2141000e-2
vt 0.56148000 7.4668000e-2
vt 0.56148000 8.7055000e-2
vt 0.56799400 0.72157800
vt 0.56799400 0.99681600
vt 0.56966000 1.2177000e-2
vt 0.56966000 2.4704000e-2
vt 0.56966000 3.7228000e-2
vt 0.56966000 4.9617000e-2
vt 0.56966000 6.2141000e-2
vt 0.56966000 7.4668000e-2
vt 0.56966000 8.7055000e-2
vt 0.57209100 0.72168600
vt 0.57209100 0.99692400
vt 0.57253600 2.6427000e-2
vt 0.57253600 0.30716600
vt 0.57613100 8.9120000e-3
vt 0.57613100 0.32468300
vt 0.58480700 1.6550000e-3
vt 0.58480700 0.33193800
vt 0.67768900 0.34151500
vt 0.67768900 0.36628500
vt 0.69888600 0.72168600
vt 0.69888600 0.99692400
vt 0.70292400 0.72138300
vt 0.70292400 0.99662100
vt 0.80846300 0.43288500
vt 0.80846600 0.40811300
vt 0.81128300 0.71308800
vt 0.81128900 0.68831800
vt 0.81675500 0.34151500
vt 0.81675500 0.36628500
vt 0.81785400 0.43288900
vt 0.81785700 0.40811700
vt 0.82067000 0.71309800
vt 0.82067600 0.68832600
vt 0.82203800 0.33193800
vt 0.82724500 0.43289300
vt 0.82724800 0.40812100
vt 0.82730600 0.37434400
vt 0.82731100 0.39911700
vt 0.82972000 0.72138300
vt 0.82972000 0.99662100
vt 0.83007100 0.71310600
vt 0.83007700 0.68833600
vt 0.83008100 0.44033900
vt 0.83008100 0.54768000
vt 0.83008100 0.57245200
vt 0.83008100 0.67979300
vt 0.83071400 0.33919400
vt 0.83430800 0.35670800
vt 0.83430800 0.96773100
vt 0.83790200 0.98524500
vt 0.84657900 0.99250300
vt 0.98564500 1.6550000e-3
vt 0.98564500 0.99250300
vt 0.99432200 8.9120000e-3
vt 0.99433100 0.98524500
vt 0.99791600 2.6427000e-2
vt 0.99791600 0.96773100
vn -0.19492790 0.0000000e+0 -0.98081757
vn -0.19492790 0.0000000e+0 -0.98081757
vn 0.99154052 0.0000000e+0 0.12979750
vn 0.96572107 0.0000000e+0 -0.25958202
vn 0.99154137 0.0000000e+0 -0.12979101
vn 0.96571757 0.0000000e+0 0.25959501
vn 0.19511410 0.0000000e+0 -0.98078055
vn 0.19511410 0.0000000e+0 -0.98078055
vn -0.98087274 0.0000000e+0 -0.19465013
vn -0.98087274 0.0000000e+0 -0.19465013
vn 0.98078331 0.0000000e+0 -0.19510023
vn 0.98078331 0.0000000e+0 -0.19510023
vn 0.19512390 0.0000000e+0 0.98077860
vn 0.19510023 0.0000000e+0 -0.98078331
vn 0.19510023 0.0000000e+0 -0.98078331
vn 0.19512390 0.0000000e+0 0.98077860
vn 0.79715935 0.0000000e+0 0.60376898
vn 0.60374727 0.0000000e+0 -0.79717578
vn 0.79715871 0.0000000e+0 -0.60376982
vn 0.60376898 0.0000000e+0 0.79715935
vn -0.70730700 0.0000000e+0 -0.70690651
vn -0.70730700 0.0000000e+0 -0.70690651
vn 0.70711678 0.0000000e+0 -0.70709678
vn 0.70711678 0.0000000e+0 -0.70709678
vn 0.0000000e+0 0.0000000e+0 -1.00000000
vn 0.0000000e+0 0.0000000e+0 -1.00000000
vn 0.0000000e+0 -0.44721360 -0.89442719
vn 0.0000000e+0 -0.89442719 -0.44721360
vn 0.0000000e+0 -0.89442719 0.44721360
vn 0.0000000e+0 -0.44721360 0.89442719
vn 0.0000000e+0 0.0000000e+0 1.00000000
vn 0.0000000e+0 0.0000000e+0 1.00000000
vn -0.98077860 0.0000000e+0 0.19512390
vn -0.60376898 0.0000000e+0 0.79715935
vn -0.79715935 0.0000000e+0 0.60376898
vn -0.98077860 0.0000000e+0 0.19512390
vn -0.19512390 0.0000000e+0 0.98077860
vn -0.19512390 0.0000000e+0 0.98077860
vn 0.79715935 0.0000000e+0 -0.60376898
vn 0.19512390 0.0000000e+0 -0.98077860
vn 0.19512390 0.0000000e+0 -0.98077860
vn 0.60376898 0.0000000e+0 -0.79715935
vn 0.98077860 0.0000000e+0 -0.19512390
vn 0.98077860 0.0000000e+0 -0.19512390
vn 7.7644561e-2 2.6349405e-7 -0.99698110
vn 0.25565957 0.0000000e+0 -0.96676687
vn -0.16978136 0.0000000e+0 -0.98548175
vn -0.21562905 -2.9645816e-12 -0.97647535
vn -0.86438603 0.0000000e+0 -0.50282879
vn -0.75286151 0.0000000e+0 0.65817896
vn -7.7655217e-2 1.0680139e-12 0.99698027
vn -0.25565957 0.0000000e+0 0.96676687
vn 0.16978136 0.0000000e+0 0.98548175
vn 0.21561551 3.6543907e-7 0.97647834
vn 0.86438172 2.4484239e-6 0.50283620
vn 0.75285345 1.9199896e-6 -0.65818819
vn 0.94429899 0.0000000e+0 -0.32908878
vn 0.75286366 -1.1228524e-6 0.65817650
vn 0.94429935 0.0000000e+0 0.32908773
vn 0.75286366 -1.1228602e-6 -0.65817650
vn -6.5174511e-7 3.9104706e-12 1.00000000
vn 0.18624051 -5.1210063e-12 -0.98250418
vn -0.86438652 8.5782771e-7 0.50282795
vn -0.75286243 1.1228557e-6 -0.65817791
vn 0.86438172 1.0454805e-5 -0.50283620
vn 0.75285345 1.2399954e-5 0.65818819
vn -3.2587255e-6 -1.8248796e-10 -1.00000000
vn -0.18625576 -7.8894733e-10 0.98250129
vn -0.94429935 0.0000000e+0 0.32908773
vn -0.75287317 -1.0480648e-5 0.65816563
vn -0.75287317 -1.0479975e-5 -0.65816563
vn -0.94430278 0.0000000e+0 -0.32907790
vn 0.99698110 2.6349405e-7 7.7644561e-2
vn 0.96676687 0.0000000e+0 0.25565957
vn 0.98548175 0.0000000e+0 -0.16978136
vn 0.97647525 -7.0201811e-21 -0.21562952
vn 0.50282879 0.0000000e+0 -0.86438603
vn -0.65817896 0.0000000e+0 -0.75286151
vn -0.99698022 5.6956937e-12 -7.7655909e-2
vn -0.96676687 0.0000000e+0 -0.25565957
vn -0.98548175 0.0000000e+0 0.16978136
vn -0.97647834 3.6543907e-7 0.21561551
vn -0.50283620 2.4484239e-6 0.86438172
vn 0.65818819 1.9199896e-6 0.75285345
vn 0.32908948 0.0000000e+0 0.94429874
vn -0.65817756 -1.4971305e-6 0.75286274
vn -0.32908808 0.0000000e+0 0.94429923
vn 0.65817756 -1.4971442e-6 0.75286274
vn -1.00000000 2.0854448e-11 -2.6069744e-6
vn 0.98250451 -1.2126632e-20 0.18623877
vn -0.50282767 1.1437727e-6 -0.86438668
vn 0.65817756 1.4971442e-6 -0.75286274
vn 0.50283620 1.0454805e-5 0.86438172
vn -0.65818819 1.2399954e-5 0.75285345
vn 1.00000000 -1.8248863e-10 -3.2587255e-6
vn -0.98250129 -7.8894778e-10 -0.18625576
vn -0.32908773 0.0000000e+0 -0.94429935
vn -0.65816563 -1.0480648e-5 -0.75287317
vn 0.65816563 -1.0479975e-5 -0.75287317
vn 0.32907790 0.0000000e+0 -0.94430278
vn -0.99698022 5.6960617e-12 -7.7655909e-2
vn -0.96676687 0.0000000e+0 -0.25565957
vn -0.98548175 0.0000000e+0 0.16978136
vn -0.97647834 3.6543907e-7 0.21561551
vn 0.50282879 0.0000000e+0 -0.86438603
vn -0.65817896 0.0000000e+0 -0.75286151
vn 0.97647525 -5.1081479e-16 -0.21562952
vn 0.98548175 0.0000000e+0 -0.16978136
vn 0.99698110 2.6349405e-7 7.7644561e-2
vn 0.96676687 0.0000000e+0 0.25565957
vn -0.50283620 2.4484239e-6 0.86438172
vn 0.65818819 1.9199896e-6 0.75285345
vn 0.32908948 0.0000000e+0 0.94429874
vn -0.65817756 -1.4971305e-6 0.75286274
vn -0.32908808 0.0000000e+0 0.94429923
vn 0.65817756 -1.4971442e-6 0.75286274
vn -1.00000000 2.0855796e-11 -2.6069744e-6
vn 0.98250451 -8.8237935e-16 0.18623877
vn -0.50282767 1.1437727e-6 -0.86438668
vn 0.65817756 1.4971442e-6 -0.75286274
vn 0.50283620 1.0454805e-5 0.86438172
vn -0.65818819 1.2399954e-5 0.75285345
vn 1.00000000 -1.8248863e-10 -3.2587255e-6
vn -0.98250129 -7.8894778e-10 -0.18625576
vn -0.32908773 0.0000000e+0 -0.94429935
vn -0.65816563 -1.0480648e-5 -0.75287317
vn 0.65816563 -1.0479975e-5 -0.75287317
vn 0.32907790 0.0000000e+0 -0.94430278
vn 0.70710678 -0.70710678 0.0000000e+0
vn 1.00000000 0.0000000e+0 0.0000000e+0
vn 1.00000000 0.0000000e+0 0.0000000e+0
vn 0.70710678 -0.70710678 0.0000000e+0
vn -1.00000000 0.0000000e+0 0.0000000e+0
vn -0.70710678 -0.70710678 0.0000000e+0
vn -0.70710678 -0.70710678 0.0000000e+0
vn -1.00000000 0.0000000e+0 0.0000000e+0
vn 0.0000000e+0 1.00000000 8.4463091e-16
vn 0.0000000e+0 1.00000000 1.5219529e-14
vn 0.0000000e+0 1.00000000 4.8380365e-16
vn 0.0000000e+0 1.00000000 -3.9623807e-15
vn 0.0000000e+0 1.00000000 6.1488194e-17
vn 0.0000000e+0 1.00000000 -2.6797765e-15
vn 0.0000000e+0 1.00000000 0.0000000e+0
vn 0.0000000e+0 1.00000000 0.0000000e+0
vn 0.0000000e+0 1.00000000 0.0000000e+0
vn 0.0000000e+0 1.00000000 0.0000000e+0
vn 0.0000000e+0 1.00000000 0.0000000e+0
vn 0.0000000e+0 1.00000000 0.0000000e+0
vn 0.0000000e+0 1.00000000 0.0000000e+0
vn 0.0000000e+0 1.00000000 0.0000000e+0
vn 0.0000000e+0 1.00000000 0.0000000e+0
vn 0.0000000e+0 1.00000000 0.0000000e+0
vn 0.0000000e+0 1.00000000 0.0000000e+0
vn 0.0000000e+0 1.00000000 0.0000000e+0
vn 0.0000000e+0 -1.00000000 0.0000000e+0
vn 0.0000000e+0 -1.00000000 -1.8685019e-15
vn 0.0000000e+0 -1.00000000 0.0000000e+0
vn 0.0000000e+0 -1.00000000 0.0000000e+0
vn 0.0000000e+0 -1.00000000 0.0000000e+0
vn 0.0000000e+0 -1.00000000 0.0000000e+0
vn 0.0000000e+0 -1.00000000 0.0000000e+0
vn 0.0000000e+0 -1.00000000 0.0000000e+0
vn 0.0000000e+0 -1.00000000 0.0000000e+0
vn 0.0000000e+0 -1.00000000 0.0000000e+0
vn 0.0000000e+0 -1.00000000 7.1516762e-15
vn 0.0000000e+0 -1.00000000 2.0784999e-15
vn 0.0000000e+0 -1.00000000 5.9205027e-15
vn 0.0000000e+0 -1.00000000 -1.5219529e-14
vn 0.0000000e+0 -1.00000000 0.0000000e+0
vn 0.0000000e+0 -1.00000000 0.0000000e+0
vn 0.0000000e+0 -1.00000000 0.0000000e+0
vn 0.0000000e+0 -1.00000000 0.0000000e+0

g mat1
usemtl mat1
s 1
f 1/10/1 7/17/7 2/9/2
f 2/205/2 21/195/21 1/204/1
f 2/205/2 22/196/22 21/195/21
f 3/181/3 5/192/5 4/191/4
f 3/181/3 6/182/6 5/192/5
f 3/112/3 17/119/17 6/111/6
f 4/2/4 19/7/19 18/8/18
f 5/1/5 19/7/19 4/2/4
f 7/17/7 8/16/8 2/9/2
f 7/151/7 24/154/24 8/152/8
f 9/189/9 21/195/21 10/190/10
f 10/190/10 33/99/33 9/189/9
f 10/190/10 36/100/36 33/99/33
f 11/155/11 24/154/24 23/153/23
f 11/155/11 44/188/44 12/156/12
f 12/156/12 24/154/24 11/155/11
f 13/127/13 20/118/20 17/119/17
f 13/127/13 38/200/38 16/126/16
f 14/14/14 18/8/18 15/13/15
f 15/13/15 40/30/40 14/14/14
f 15/13/15 41/29/41 40/30/40
f 16/126/16 20/118/20 13/127/13
f 17/119/17 20/118/20 6/111/6
f 18/8/18 19/7/19 15/13/15
f 21/195/21 22/196/22 10/190/10
f 23/153/23 24/154/24 7/151/7
f 25/147/25 27/207/27 26/206/26
f 25/147/25 28/148/28 27/207/27
f 28/148/28 29/208/29 27/207/27
f 28/148/28 30/149/30 29/208/29
f 30/149/30 31/209/31 29/208/29
f 30/149/30 32/150/32 31/209/31
f 33/99/33 35/93/35 34/92/34
f 33/99/33 36/100/36 35/93/35
f 34/92/34 38/89/38 37/88/37
f 35/93/35 38/89/38 34/92/34
f 37/201/37 38/200/38 13/127/13
f 39/193/39 44/188/44 43/187/43
f 40/198/40 42/194/42 39/193/39
f 41/199/41 42/194/42 40/198/40
f 42/194/42 44/188/44 39/193/39
f 43/187/43 44/188/44 11/155/11
f 45/141/45 47/165/47 46/164/46
f 45/141/45 48/142/48 47/165/47
f 46/83/46 56/87/56 45/82/45
f 48/161/48 49/135/49 47/136/47
f 48/161/48 64/169/64 49/135/49
f 49/135/49 63/168/63 50/134/50
f 49/135/49 64/169/64 63/168/63
f 50/134/50 63/168/63 51/160/51
f 51/160/51 52/133/52 50/134/50
f 51/185/51 53/203/53 52/202/52
f 51/185/51 54/186/54 53/203/53
f 51/160/51 61/167/61 58/166/58
f 51/160/51 63/168/63 61/167/61
f 54/95/54 55/91/55 53/96/53
f 54/95/54 66/90/66 55/91/55
f 54/95/54 68/94/68 66/90/66
f 54/95/54 70/98/70 68/94/68
f 55/91/55 65/86/65 56/87/56
f 55/91/55 66/90/66 65/86/65
f 56/87/56 65/86/65 45/82/45
f 57/171/57 59/163/59 58/172/58
f 57/171/57 60/162/60 59/163/59
f 57/171/57 62/170/62 60/162/60
f 58/166/58 59/159/59 51/160/51
f 60/162/60 62/170/62 48/161/48
f 62/170/62 64/169/64 48/161/48
f 65/86/65 67/81/67 45/82/45
f 67/81/67 71/77/71 45/82/45
f 68/94/68 70/98/70 69/97/69
f 69/68/69 72/78/72 71/77/71
f 70/69/70 72/78/72 69/68/69
f 71/77/71 72/78/72 45/82/45
f 73/131/73 75/158/75 74/157/74
f 73/131/73 76/132/76 75/158/75
f 74/115/74 84/117/84 73/114/73
f 76/52/76 77/61/77 75/51/75
f 76/52/76 92/62/92 77/61/77
f 77/61/77 91/67/91 78/66/78
f 77/61/77 92/62/92 91/67/91
f 78/66/78 91/67/91 79/73/79
f 79/73/79 80/72/80 78/66/78
f 79/140/79 81/75/81 80/76/80
f 79/140/79 82/139/82 81/75/81
f 79/73/79 89/74/89 86/80/86
f 79/73/79 91/67/91 89/74/89
f 82/129/82 83/125/83 81/130/81
f 82/129/82 94/124/94 83/125/83
f 82/129/82 96/128/96 94/124/94
f 82/129/82 98/138/98 96/128/96
f 83/125/83 93/116/93 84/117/84
f 83/125/83 94/124/94 93/116/93
f 84/117/84 93/116/93 73/114/73
f 85/85/85 87/79/87 86/80/86
f 85/85/85 88/84/88 87/79/87
f 85/41/85 90/53/90 88/40/88
f 86/80/86 87/79/87 79/73/79
f 88/40/88 90/53/90 76/52/76
f 90/53/90 92/62/92 76/52/76
f 93/116/93 95/113/95 73/114/73
f 95/113/95 99/109/99 73/114/73
f 96/128/96 98/138/98 97/137/97
f 97/137/97 100/144/100 99/143/99
f 98/138/98 100/144/100 97/137/97
f 99/109/99 100/110/100 73/114/73
f 101/146/101 103/101/103 102/102/102
f 101/146/101 104/145/104 103/101/103
f 101/64/101 117/65/117 114/71/114
f 101/64/101 119/60/119 117/65/117
f 102/63/102 106/59/106 101/64/101
f 104/55/104 111/121/111 103/120/103
f 104/55/104 122/44/122 111/121/111
f 104/55/104 124/43/124 122/44/122
f 104/55/104 126/54/126 124/43/124
f 105/49/105 108/37/108 107/38/107
f 105/49/105 119/60/119 106/59/106
f 105/49/105 120/50/120 119/60/119
f 106/59/106 119/60/119 101/64/101
f 107/38/107 120/50/120 105/49/105
f 108/184/108 109/173/109 107/174/107
f 108/184/108 110/183/110 109/173/109
f 110/123/110 112/122/112 109/56/109
f 111/121/111 121/45/121 112/122/112
f 111/121/111 122/44/122 121/45/121
f 112/122/112 121/45/121 109/56/109
f 113/34/113 115/31/115 114/32/114
f 113/34/113 116/33/116 115/31/115
f 113/34/113 118/39/118 116/33/116
f 114/71/114 115/70/115 101/64/101
f 116/33/116 118/39/118 107/38/107
f 118/39/118 120/50/120 107/38/107
f 121/45/121 123/46/123 109/56/109
f 123/46/123 127/47/127 109/56/109
f 124/43/124 126/54/126 125/42/125
f 125/48/125 128/57/128 127/47/127
f 126/58/126 128/57/128 125/48/125
f 127/47/127 128/57/128 109/56/109
f 129/28/129 131/35/131 130/36/130
f 129/28/129 132/27/132 131/35/131
f 129/28/129 135/25/135 132/27/132
f 133/23/133 135/25/135 134/26/134
f 133/23/133 136/22/136 135/25/135
f 134/26/134 135/25/135 129/28/129
f 137/216/137 139/213/139 138/214/138
f 137/216/137 140/218/140 139/213/139
f 140/218/140 141/220/141 139/213/139
f 141/220/141 142/212/142 139/213/139
f 141/220/141 143/211/143 142/212/142
f 141/220/141 144/219/144 143/211/143
f 144/219/144 145/210/145 143/211/143
f 144/219/144 146/217/146 145/210/145
f 146/217/146 147/215/147 145/210/145
f 147/215/147 148/197/148 145/210/145
f 147/215/147 149/179/149 148/197/148
f 149/179/149 150/180/150 148/197/148
f 149/179/149 151/177/151 150/180/150
f 151/177/151 152/178/152 150/180/150
f 151/177/151 153/176/153 152/178/152
f 151/177/151 154/175/154 153/176/153
f 155/19/155 157/4/157 156/20/156
f 155/19/155 158/3/158 157/4/157
f 155/19/155 159/21/159 158/3/158
f 157/4/157 165/5/165 156/20/156
f 159/21/159 160/6/160 158/3/158
f 159/21/159 161/11/161 160/6/160
f 159/21/159 162/24/162 161/11/161
f 162/24/162 163/103/163 161/11/161
f 162/24/162 164/104/164 163/103/163
f 164/104/164 169/106/169 163/103/163
f 165/5/165 166/18/166 156/20/156
f 165/5/165 167/12/167 166/18/166
f 167/12/167 168/15/168 166/18/166
f 169/106/169 170/105/170 163/103/163
f 169/106/169 171/108/171 170/105/170
f 171/108/171 172/107/172 170/105/170
