# Blender v2.79 (sub 0) OBJ File: ''
# www.blender.org
mtllib bridge1-connector.mtl
g bridge1
v -1.593101 2.955065 0.930551
v -1.593101 2.955065 0.887538
v 1.422634 2.955065 0.887538
v 1.422634 2.955065 0.930551
v -1.593101 3.122334 0.930551
v 1.422634 3.122334 0.930551
v 1.422634 3.122334 0.887539
v -1.593101 3.122334 0.887539
v -1.593101 2.955065 -1.183433
v -1.593101 2.955065 -1.226444
v 1.414720 2.955065 -1.226444
v 1.414720 2.955065 -1.183433
v -1.593101 3.122334 -1.183433
v 1.414720 3.122334 -1.183433
v 1.414720 3.122334 -1.226444
v -1.593101 3.122334 -1.226444
v -1.468556 -0.092942 1.353799
v -1.468556 -0.092942 1.108716
v -1.232539 -0.092942 1.108716
v -1.232539 -0.092942 1.353799
v -1.468556 4.143791 1.353800
v -1.232539 4.143791 1.353800
v -1.232539 4.143791 1.108717
v -1.468556 4.143791 1.108717
v -1.468556 -0.092942 -1.343916
v -1.468556 -0.092942 -1.589001
v -1.232539 -0.092942 -1.589001
v -1.232539 -0.092942 -1.343916
v -1.468556 4.143791 -1.343915
v -1.232539 4.143791 -1.343915
v -1.232539 4.143792 -1.589000
v -1.468556 4.143792 -1.589000
v 1.438683 -0.140784 -1.550937
v 1.436153 -0.140784 -1.305867
v 1.200150 -0.140784 -1.308303
v 1.202681 -0.140784 -1.553373
v 1.438683 3.992648 -1.550938
v 1.202681 3.992648 -1.553373
v 1.200150 3.992648 -1.308303
v 1.436153 3.992648 -1.305866
v 1.421629 -0.160579 1.146746
v 1.419101 -0.160579 1.391816
v 1.183099 -0.160579 1.389380
v 1.185627 -0.160579 1.144310
v 1.421629 4.009814 1.146747
v 1.185627 4.009814 1.144311
v 1.183099 4.009814 1.389381
v 1.419101 4.009814 1.391816
v 1.523390 3.185443 1.107235
v 1.523390 3.142431 1.107235
v 1.548163 3.142431 -1.292884
v 1.548163 3.185443 -1.292884
v 1.147120 3.185443 1.103351
v 1.171893 3.185443 -1.296767
v 1.171893 3.142431 -1.296767
v 1.147120 3.142431 1.103351
v 1.127195 3.116747 -1.541940
v 1.098176 3.116747 1.269839
v 0.816997 3.116747 1.266937
v 0.846016 3.116747 -1.544842
v 1.127195 3.211707 -1.541940
v 0.846016 3.211707 -1.544842
v 0.816997 3.211707 1.266937
v 1.098176 3.211707 1.269839
v 0.793942 3.116747 -1.523615
v 0.764924 3.116747 1.288164
v 0.483744 3.116747 1.285262
v 0.512766 3.116747 -1.526516
v 0.793942 3.211707 -1.523615
v 0.512766 3.211707 -1.526516
v 0.483744 3.211707 1.285262
v 0.764924 3.211707 1.288164
v 0.472316 3.116747 -1.548700
v 0.443297 3.116747 1.263079
v 0.162118 3.116747 1.260177
v 0.191137 3.116747 -1.551602
v 0.472316 3.211707 -1.548700
v 0.191137 3.211707 -1.551602
v 0.162118 3.211707 1.260177
v 0.443297 3.211707 1.263079
v 0.129480 3.116747 -1.573631
v 0.100461 3.116747 1.238148
v -0.180718 3.116747 1.235246
v -0.151696 3.116747 -1.576533
v 0.129480 3.211707 -1.573631
v -0.151696 3.211707 -1.576533
v -0.180718 3.211707 1.235246
v 0.100461 3.211707 1.238148
v -0.202608 3.116747 -1.555665
v -0.231627 3.116747 1.256114
v -0.512806 3.116747 1.253211
v -0.483784 3.116747 -1.558568
v -0.202608 3.211707 -1.555665
v -0.483784 3.211707 -1.558568
v -0.512806 3.211707 1.253211
v -0.231627 3.211707 1.256114
v -0.556006 3.116747 -1.526757
v -0.585025 3.116747 1.285022
v -0.866204 3.116747 1.282120
v -0.837182 3.116747 -1.529660
v -0.556006 3.211707 -1.526757
v -0.837182 3.211707 -1.529660
v -0.866204 3.211707 1.282120
v -0.585025 3.211707 1.285022
v -0.897532 3.116747 -1.562838
v -0.926551 3.116747 1.248941
v -1.207730 3.116747 1.246039
v -1.178708 3.116747 -1.565741
v -0.897532 3.211707 -1.562838
v -1.178708 3.211707 -1.565741
v -1.207730 3.211707 1.246039
v -0.926551 3.211707 1.248941
v -1.270093 3.125118 -1.265215
v -1.293659 3.125118 1.018390
v -1.574838 3.125118 1.015488
v -1.551269 3.125118 -1.268116
v -1.270093 3.207085 -1.265215
v -1.551269 3.207085 -1.268116
v -1.574838 3.207085 1.015488
v -1.293659 3.207085 1.018390
vt 0.605762 3.409147
vt 0.394231 3.409147
vt 0.394243 -7.796526
vt 0.605774 -7.796526
vt 0.394238 3.409147
vt 0.394226 -7.796526
vt 0.605757 -7.796526
vt 0.605769 3.409147
vt 0.513400 3.409147
vt 0.513400 -7.796526
vt 0.610994 -7.796526
vt 0.610994 3.409147
vt 0.486600 0.394226
vt 0.486600 0.605757
vt 0.389006 0.605757
vt 0.389006 0.394226
vt 0.486600 -7.796526
vt 0.486600 3.409147
vt 0.389006 3.409147
vt 0.389006 -7.796526
vt 0.513400 0.605769
vt 0.513400 0.394238
vt 0.610994 0.394238
vt 0.610994 0.605769
vt 0.605762 3.409147
vt 0.394231 3.409147
vt 0.394243 -7.787670
vt 0.605774 -7.787670
vt 0.394238 3.409147
vt 0.394226 -7.787670
vt 0.605757 -7.787670
vt 0.605769 3.409147
vt 0.513400 3.409147
vt 0.513400 -7.787670
vt 0.610994 -7.787670
vt 0.610994 3.409147
vt 0.486600 0.394226
vt 0.486600 0.605757
vt 0.389006 0.605757
vt 0.389006 0.394226
vt 0.486600 -7.787670
vt 0.486600 3.409147
vt 0.389006 3.409147
vt 0.389006 -7.787670
vt 0.513400 0.605769
vt 0.513400 0.394238
vt 0.610994 0.394238
vt 0.610994 0.605769
vt 0.482274 0.501949
vt 0.482274 0.614021
vt 0.380550 0.614021
vt 0.380550 0.501949
vt 0.517726 0.501949
vt 0.619450 0.501949
vt 0.619450 0.614021
vt 0.517726 0.614021
vt 0.517726 -0.958705
vt 0.619450 -0.958705
vt 0.619450 0.998048
vt 0.517726 0.998048
vt 0.501949 -0.958705
vt 0.614021 -0.958705
vt 0.614021 0.998048
vt 0.501949 0.998048
vt 0.380550 -0.958705
vt 0.482274 -0.958705
vt 0.482274 0.998048
vt 0.380550 0.998048
vt 0.385979 -0.958705
vt 0.498051 -0.958705
vt 0.498051 0.998048
vt 0.385979 0.998048
vt 0.482274 0.501949
vt 0.482274 0.614021
vt 0.380550 0.614021
vt 0.380550 0.501949
vt 0.517726 0.501949
vt 0.619450 0.501949
vt 0.619450 0.614021
vt 0.517726 0.614021
vt 0.517726 -0.958705
vt 0.619450 -0.958705
vt 0.619450 0.998048
vt 0.517726 0.998048
vt 0.501949 -0.958705
vt 0.614021 -0.958705
vt 0.614021 0.998048
vt 0.501949 0.998048
vt 0.380550 -0.958705
vt 0.482274 -0.958705
vt 0.482274 0.998048
vt 0.380550 0.998048
vt 0.385979 -0.958705
vt 0.498051 -0.958705
vt 0.498051 0.998048
vt 0.385979 0.998048
vt 0.482274 0.501949
vt 0.482274 0.614021
vt 0.380550 0.614021
vt 0.380550 0.501949
vt 0.517726 0.501949
vt 0.619450 0.501949
vt 0.619450 0.614021
vt 0.517726 0.614021
vt 0.517726 -0.451584
vt 0.619450 -0.451584
vt 0.619450 1.457460
vt 0.517726 1.457460
vt 0.501949 -0.451584
vt 0.614021 -0.451584
vt 0.614021 1.457460
vt 0.501949 1.457460
vt 0.380550 -0.451584
vt 0.482274 -0.451584
vt 0.482274 1.457460
vt 0.380550 1.457460
vt 0.385979 -0.451584
vt 0.498051 -0.451584
vt 0.498051 1.457460
vt 0.385979 1.457460
vt 0.482274 0.501949
vt 0.482274 0.614021
vt 0.380550 0.614021
vt 0.380550 0.501949
vt 0.517726 0.501949
vt 0.619450 0.501949
vt 0.619450 0.614021
vt 0.517726 0.614021
vt 0.517726 -0.460726
vt 0.619450 -0.460726
vt 0.619450 1.465388
vt 0.517726 1.465388
vt 0.501949 -0.460726
vt 0.614021 -0.460726
vt 0.614021 1.465388
vt 0.501949 1.465388
vt 0.380550 -0.460726
vt 0.482274 -0.460726
vt 0.482274 1.465388
vt 0.380550 1.465388
vt 0.385979 -0.460726
vt 0.498051 -0.460726
vt 0.498051 1.465388
vt 0.385979 1.465388
vt 0.605765 0.967540
vt 0.394234 0.967540
vt 0.394237 -0.388729
vt 0.605768 -0.388729
vt 0.394235 0.967540
vt 0.394232 -0.388729
vt 0.605763 -0.388729
vt 0.605766 0.967540
vt 0.255115 0.967540
vt 0.255115 -0.388729
vt 0.371970 -0.388729
vt 0.371970 0.967540
vt 0.744885 0.394232
vt 0.744885 0.605763
vt 0.628030 0.605763
vt 0.628030 0.394232
vt 0.744885 -0.388729
vt 0.744885 0.967540
vt 0.628030 0.967540
vt 0.628030 -0.388729
vt 0.255115 0.605766
vt 0.255115 0.394235
vt 0.371970 0.394235
vt 0.371970 0.605766
vt 0.735485 0.007104
vt 0.735484 0.996214
vt 0.622295 0.996214
vt 0.622296 0.007104
vt 0.264515 0.007104
vt 0.377704 0.007104
vt 0.377705 0.996214
vt 0.264515 0.996214
vt 0.264515 0.324771
vt 0.377704 0.324771
vt 0.377704 0.999501
vt 0.264515 0.999501
vt 0.007104 0.324771
vt 0.996214 0.324771
vt 0.996214 0.999501
vt 0.007104 0.999501
vt 0.622295 0.324771
vt 0.735484 0.324771
vt 0.735484 0.999501
vt 0.622295 0.999501
vt 0.003786 0.324771
vt 0.992896 0.324771
vt 0.992896 0.999501
vt 0.003786 0.999501
vt 0.847468 0.007104
vt 0.847468 0.996214
vt 0.734279 0.996214
vt 0.734279 0.007104
vt 0.152532 0.007104
vt 0.265721 0.007104
vt 0.265721 0.996214
vt 0.152532 0.996214
vt 0.152532 0.324771
vt 0.265721 0.324771
vt 0.265721 0.999501
vt 0.152532 0.999501
vt 0.007104 0.324771
vt 0.996214 0.324771
vt 0.996214 0.999501
vt 0.007104 0.999501
vt 0.734279 0.324771
vt 0.847468 0.324771
vt 0.847468 0.999501
vt 0.734279 0.999501
vt 0.003786 0.324771
vt 0.992896 0.324771
vt 0.992896 0.999501
vt 0.003786 0.999501
vt 0.989571 0.007104
vt 0.989570 0.996214
vt 0.876382 0.996214
vt 0.876382 0.007104
vt 0.010429 0.007104
vt 0.123618 0.007104
vt 0.123618 0.996214
vt 0.010430 0.996214
vt 0.010429 0.324771
vt 0.123618 0.324771
vt 0.123618 0.999501
vt 0.010429 0.999501
vt 0.007104 0.324771
vt 0.996214 0.324771
vt 0.996214 0.999501
vt 0.007104 0.999501
vt 0.876382 0.324771
vt 0.989570 0.324771
vt 0.989570 0.999501
vt 0.876382 0.999501
vt 0.003786 0.324771
vt 0.992896 0.324771
vt 0.992896 0.999501
vt 0.003786 0.999501
vt 0.375681 0.007104
vt 0.375680 0.996214
vt 0.262491 0.996214
vt 0.262491 0.007104
vt 0.624319 0.007104
vt 0.737509 0.007104
vt 0.737509 0.996214
vt 0.624320 0.996214
vt 0.624319 0.324771
vt 0.737509 0.324771
vt 0.737509 0.999501
vt 0.624319 0.999501
vt 0.007104 0.324771
vt 0.996214 0.324771
vt 0.996214 0.999501
vt 0.007104 0.999501
vt 0.262491 0.324771
vt 0.375680 0.324771
vt 0.375680 0.999501
vt 0.262491 0.999501
vt 0.003786 0.324771
vt 0.992896 0.324771
vt 0.992896 0.999501
vt 0.003786 0.999501
vt 0.491958 0.007104
vt 0.491958 0.996214
vt 0.378769 0.996214
vt 0.378770 0.007104
vt 0.508042 0.007104
vt 0.621230 0.007104
vt 0.621231 0.996214
vt 0.508042 0.996214
vt 0.508042 0.324771
vt 0.621230 0.324771
vt 0.621230 0.999501
vt 0.508042 0.999501
vt 0.007104 0.324771
vt 0.996214 0.324771
vt 0.996214 0.999501
vt 0.007104 0.999501
vt 0.378769 0.324771
vt 0.491958 0.324771
vt 0.491958 0.999501
vt 0.378769 0.999501
vt 0.003786 0.324771
vt 0.992896 0.324771
vt 0.992896 0.999501
vt 0.003786 0.999501
vt 0.599251 0.007104
vt 0.599251 0.996214
vt 0.486062 0.996214
vt 0.486062 0.007104
vt 0.400749 0.007104
vt 0.513938 0.007104
vt 0.513938 0.996214
vt 0.400749 0.996214
vt 0.400749 0.324771
vt 0.513938 0.324771
vt 0.513938 0.999501
vt 0.400749 0.999501
vt 0.007104 0.324771
vt 0.996214 0.324771
vt 0.996214 0.999501
vt 0.007104 0.999501
vt 0.486062 0.324771
vt 0.599251 0.324771
vt 0.599251 0.999501
vt 0.486062 0.999501
vt 0.003786 0.324771
vt 0.992896 0.324771
vt 0.992896 0.999501
vt 0.003786 0.999501
vt 0.254595 0.007104
vt 0.254595 0.996214
vt 0.141406 0.996214
vt 0.141407 0.007104
vt 0.745404 0.007104
vt 0.858594 0.007104
vt 0.858594 0.996214
vt 0.745405 0.996214
vt 0.745404 0.324771
vt 0.858594 0.324771
vt 0.858594 0.999501
vt 0.745404 0.999501
vt 0.007104 0.324771
vt 0.996214 0.324771
vt 0.996214 0.999501
vt 0.007104 0.999501
vt 0.141406 0.324771
vt 0.254595 0.324771
vt 0.254595 0.999501
vt 0.141406 0.999501
vt 0.003786 0.324771
vt 0.992896 0.324771
vt 0.992896 0.999501
vt 0.003786 0.999501
vt 0.368553 0.100135
vt 0.368553 0.903448
vt 0.255364 0.903448
vt 0.255364 0.100135
vt 0.631447 0.100135
vt 0.744636 0.100135
vt 0.744636 0.903448
vt 0.631447 0.903448
vt 0.631447 0.417091
vt 0.744636 0.417091
vt 0.744636 0.999501
vt 0.631447 0.999501
vt 0.100135 0.417091
vt 0.903448 0.417091
vt 0.903448 0.999501
vt 0.100135 0.999501
vt 0.255364 0.417091
vt 0.368553 0.417091
vt 0.368553 0.999501
vt 0.255364 0.999501
vt 0.096552 0.417091
vt 0.899865 0.417091
vt 0.899865 0.999501
vt 0.096552 0.999501
vn 0.0000 -1.0000 0.0000
vn 0.0000 1.0000 0.0000
vn 0.0000 -0.0000 1.0000
vn 1.0000 0.0000 0.0000
vn 0.0000 0.0000 -1.0000
vn -1.0000 -0.0000 0.0000
vn 0.0103 0.0000 -0.9999
vn -0.9999 -0.0000 -0.0103
vn -0.0103 -0.0000 0.9999
vn 0.9999 0.0000 0.0103
usemtl DockWood01.001
s 1
f 1/1/1 2/2/1 3/3/1
f 3/3/1 4/4/1 1/1/1
f 5/5/2 6/6/2 7/7/2
f 7/7/2 8/8/2 5/5/2
f 1/9/3 4/10/3 6/11/3
f 6/11/3 5/12/3 1/9/3
f 4/13/4 3/14/4 7/15/4
f 7/15/4 6/16/4 4/13/4
f 3/17/5 2/18/5 8/19/5
f 8/19/5 7/20/5 3/17/5
f 2/21/6 1/22/6 5/23/6
f 5/23/6 8/24/6 2/21/6
f 9/25/1 10/26/1 11/27/1
f 11/27/1 12/28/1 9/25/1
f 13/29/2 14/30/2 15/31/2
f 15/31/2 16/32/2 13/29/2
f 9/33/3 12/34/3 14/35/3
f 14/35/3 13/36/3 9/33/3
f 12/37/4 11/38/4 15/39/4
f 15/39/4 14/40/4 12/37/4
f 11/41/5 10/42/5 16/43/5
f 16/43/5 15/44/5 11/41/5
f 10/45/6 9/46/6 13/47/6
f 13/47/6 16/48/6 10/45/6
f 17/49/1 18/50/1 19/51/1
f 19/51/1 20/52/1 17/49/1
f 21/53/2 22/54/2 23/55/2
f 23/55/2 24/56/2 21/53/2
f 17/57/3 20/58/3 22/59/3
f 22/59/3 21/60/3 17/57/3
f 20/61/4 19/62/4 23/63/4
f 23/63/4 22/64/4 20/61/4
f 19/65/5 18/66/5 24/67/5
f 24/67/5 23/68/5 19/65/5
f 18/69/6 17/70/6 21/71/6
f 21/71/6 24/72/6 18/69/6
f 25/73/1 26/74/1 27/75/1
f 27/75/1 28/76/1 25/73/1
f 29/77/2 30/78/2 31/79/2
f 31/79/2 32/80/2 29/77/2
f 25/81/3 28/82/3 30/83/3
f 30/83/3 29/84/3 25/81/3
f 28/85/4 27/86/4 31/87/4
f 31/87/4 30/88/4 28/85/4
f 27/89/5 26/90/5 32/91/5
f 32/91/5 31/92/5 27/89/5
f 26/93/6 25/94/6 29/95/6
f 29/95/6 32/96/6 26/93/6
f 33/97/1 34/98/1 35/99/1
f 35/99/1 36/100/1 33/97/1
f 37/101/2 38/102/2 39/103/2
f 39/103/2 40/104/2 37/101/2
f 33/105/7 36/106/7 38/107/7
f 38/107/7 37/108/7 33/105/7
f 36/109/8 35/110/8 39/111/8
f 39/111/8 38/112/8 36/109/8
f 35/113/9 34/114/9 40/115/9
f 40/115/9 39/116/9 35/113/9
f 34/117/10 33/118/10 37/119/10
f 37/119/10 40/120/10 34/117/10
f 41/121/1 42/122/1 43/123/1
f 43/123/1 44/124/1 41/121/1
f 45/125/2 46/126/2 47/127/2
f 47/127/2 48/128/2 45/125/2
f 41/129/7 44/130/7 46/131/7
f 46/131/7 45/132/7 41/129/7
f 44/133/8 43/134/8 47/135/8
f 47/135/8 46/136/8 44/133/8
f 43/137/9 42/138/9 48/139/9
f 48/139/9 47/140/9 43/137/9
f 42/141/10 41/142/10 45/143/10
f 45/143/10 48/144/10 42/141/10
f 49/145/10 50/146/10 51/147/10
f 51/147/10 52/148/10 49/145/10
f 53/149/8 54/150/8 55/151/8
f 55/151/8 56/152/8 53/149/8
f 49/153/2 52/154/2 54/155/2
f 54/155/2 53/156/2 49/153/2
f 52/157/7 51/158/7 55/159/7
f 55/159/7 54/160/7 52/157/7
f 51/161/1 50/162/1 56/163/1
f 56/163/1 55/164/1 51/161/1
f 50/165/9 49/166/9 53/167/9
f 53/167/9 56/168/9 50/165/9
f 57/169/1 58/170/1 59/171/1
f 59/171/1 60/172/1 57/169/1
f 61/173/2 62/174/2 63/175/2
f 63/175/2 64/176/2 61/173/2
f 57/177/7 60/178/7 62/179/7
f 62/179/7 61/180/7 57/177/7
f 60/181/8 59/182/8 63/183/8
f 63/183/8 62/184/8 60/181/8
f 59/185/9 58/186/9 64/187/9
f 64/187/9 63/188/9 59/185/9
f 58/189/10 57/190/10 61/191/10
f 61/191/10 64/192/10 58/189/10
f 65/193/1 66/194/1 67/195/1
f 67/195/1 68/196/1 65/193/1
f 69/197/2 70/198/2 71/199/2
f 71/199/2 72/200/2 69/197/2
f 65/201/7 68/202/7 70/203/7
f 70/203/7 69/204/7 65/201/7
f 68/205/8 67/206/8 71/207/8
f 71/207/8 70/208/8 68/205/8
f 67/209/9 66/210/9 72/211/9
f 72/211/9 71/212/9 67/209/9
f 66/213/10 65/214/10 69/215/10
f 69/215/10 72/216/10 66/213/10
f 73/217/1 74/218/1 75/219/1
f 75/219/1 76/220/1 73/217/1
f 77/221/2 78/222/2 79/223/2
f 79/223/2 80/224/2 77/221/2
f 73/225/7 76/226/7 78/227/7
f 78/227/7 77/228/7 73/225/7
f 76/229/8 75/230/8 79/231/8
f 79/231/8 78/232/8 76/229/8
f 75/233/9 74/234/9 80/235/9
f 80/235/9 79/236/9 75/233/9
f 74/237/10 73/238/10 77/239/10
f 77/239/10 80/240/10 74/237/10
f 81/241/1 82/242/1 83/243/1
f 83/243/1 84/244/1 81/241/1
f 85/245/2 86/246/2 87/247/2
f 87/247/2 88/248/2 85/245/2
f 81/249/7 84/250/7 86/251/7
f 86/251/7 85/252/7 81/249/7
f 84/253/8 83/254/8 87/255/8
f 87/255/8 86/256/8 84/253/8
f 83/257/9 82/258/9 88/259/9
f 88/259/9 87/260/9 83/257/9
f 82/261/10 81/262/10 85/263/10
f 85/263/10 88/264/10 82/261/10
f 89/265/1 90/266/1 91/267/1
f 91/267/1 92/268/1 89/265/1
f 93/269/2 94/270/2 95/271/2
f 95/271/2 96/272/2 93/269/2
f 89/273/7 92/274/7 94/275/7
f 94/275/7 93/276/7 89/273/7
f 92/277/8 91/278/8 95/279/8
f 95/279/8 94/280/8 92/277/8
f 91/281/9 90/282/9 96/283/9
f 96/283/9 95/284/9 91/281/9
f 90/285/10 89/286/10 93/287/10
f 93/287/10 96/288/10 90/285/10
f 97/289/1 98/290/1 99/291/1
f 99/291/1 100/292/1 97/289/1
f 101/293/2 102/294/2 103/295/2
f 103/295/2 104/296/2 101/293/2
f 97/297/7 100/298/7 102/299/7
f 102/299/7 101/300/7 97/297/7
f 100/301/8 99/302/8 103/303/8
f 103/303/8 102/304/8 100/301/8
f 99/305/9 98/306/9 104/307/9
f 104/307/9 103/308/9 99/305/9
f 98/309/10 97/310/10 101/311/10
f 101/311/10 104/312/10 98/309/10
f 105/313/1 106/314/1 107/315/1
f 107/315/1 108/316/1 105/313/1
f 109/317/2 110/318/2 111/319/2
f 111/319/2 112/320/2 109/317/2
f 105/321/7 108/322/7 110/323/7
f 110/323/7 109/324/7 105/321/7
f 108/325/8 107/326/8 111/327/8
f 111/327/8 110/328/8 108/325/8
f 107/329/9 106/330/9 112/331/9
f 112/331/9 111/332/9 107/329/9
f 106/333/10 105/334/10 109/335/10
f 109/335/10 112/336/10 106/333/10
f 113/337/1 114/338/1 115/339/1
f 115/339/1 116/340/1 113/337/1
f 117/341/2 118/342/2 119/343/2
f 119/343/2 120/344/2 117/341/2
f 113/345/7 116/346/7 118/347/7
f 118/347/7 117/348/7 113/345/7
f 116/349/8 115/350/8 119/351/8
f 119/351/8 118/352/8 116/349/8
f 115/353/9 114/354/9 120/355/9
f 120/355/9 119/356/9 115/353/9
f 114/357/10 113/358/10 117/359/10
f 117/359/10 120/360/10 114/357/10
g collide
v -1.646994 2.942690 1.535152
v -1.646994 2.942690 -1.590806
v 1.530736 2.942690 -1.590806
v 1.530736 2.942690 1.535152
v -1.646994 3.222025 1.535152
v 1.530737 3.222025 1.535152
v 1.530737 3.222025 -1.590806
v -1.646994 3.222025 -1.590806
v -7.713904 -0.110919 -1.502256
v -7.713904 -0.110919 1.012333
v -3.719068 -0.110919 1.012333
v -3.699114 -0.110919 -1.503172
v 1.187784 -0.110919 -1.283401
v 1.187784 -0.110919 -1.571363
v 1.456887 -0.110919 -1.571363
v 1.456887 -0.110919 -1.283401
v 1.187784 4.029600 -1.283400
v 1.456887 4.029600 -1.283400
v 1.456887 4.029601 -1.571362
v 1.187784 4.029601 -1.571362
v 1.171418 -0.110919 1.404762
v 1.171418 -0.110919 1.116800
v 1.440521 -0.110919 1.116800
v 1.440521 -0.110919 1.404762
v 1.171418 4.045691 1.404763
v 1.440521 4.045691 1.404763
v 1.440521 4.045691 1.116801
v 1.171418 4.045691 1.116801
v -1.485800 -0.110919 1.375354
v -1.485800 -0.110919 1.087392
v -1.216697 -0.110919 1.087392
v -1.216697 -0.110919 1.375354
v -1.485800 4.161264 1.375355
v -1.216697 4.161264 1.375355
v -1.216697 4.161264 1.087394
v -1.485800 4.161264 1.087394
v -1.485800 -0.110919 -1.316300
v -1.485800 -0.110919 -1.604262
v -1.216697 -0.110919 -1.604262
v -1.216697 -0.110919 -1.316300
v -1.485800 4.161264 -1.316299
v -1.216697 4.161264 -1.316299
v -1.216697 4.161264 -1.604260
v -1.485800 4.161264 -1.604260
vt 1.000000 0.000000
vt 1.000000 1.000000
vt 0.000000 1.000000
vt 0.000000 0.000000
vt 0.000000 0.000000
vt 1.000000 0.000000
vt 1.000000 1.000000
vt 0.000000 1.000000
vt 0.000000 0.000000
vt 1.000000 0.000000
vt 1.000000 1.000000
vt 0.000000 1.000000
vt 1.000000 0.000000
vt 0.000000 1.000000
vt 0.000000 0.000000
vt 1.000000 0.000000
vt 1.000000 1.000000
vt 0.000000 1.000000
vt 0.000000 0.000000
vt 1.000000 1.000000
vt 0.000000 0.000000
vt 0.000000 0.000000
vt 0.000000 0.000000
vt 0.000000 0.000000
vt 0.000000 0.000000
vt 0.000000 0.000000
vt 0.000000 0.000000
vt 0.000000 0.000000
vt 0.000000 0.000000
vt 0.000000 0.000000
vt 0.000000 0.000000
vt 0.000000 0.000000
vt 0.000000 0.000000
vt 0.000000 0.000000
vt 0.000000 0.000000
vt 0.000000 0.000000
vt 0.000000 0.000000
vt 0.000000 0.000000
vt 0.000000 0.000000
vt 0.000000 0.000000
vt 0.000000 0.000000
vt 0.000000 0.000000
vt 0.000000 0.000000
vt 0.000000 0.000000
vt 0.000000 0.000000
vt 0.000000 0.000000
vt 0.000000 0.000000
vt 0.000000 0.000000
vt 0.000000 0.000000
vt 0.000000 0.000000
vt 0.000000 0.000000
vt 0.000000 0.000000
vn 0.0000 -1.0000 -0.0000
vn 0.0000 1.0000 0.0000
vn 0.0000 0.0000 1.0000
vn 1.0000 -0.0000 -0.0000
vn 0.0000 0.0000 -1.0000
vn -1.0000 0.0000 0.0000
usemtl None
s 1
f 121/361/11 122/362/11 123/363/11
f 123/363/11 124/364/11 121/361/11
f 125/365/12 126/366/12 127/367/12
f 127/367/12 128/368/12 125/365/12
f 121/369/13 124/370/13 126/371/13
f 126/371/13 125/372/13 121/369/13
f 124/364/14 123/373/14 127/367/14
f 127/367/14 126/374/14 124/364/14
f 123/375/15 122/376/15 128/377/15
f 128/377/15 127/378/15 123/375/15
f 122/379/16 121/361/16 125/380/16
f 125/380/16 128/368/16 122/379/16
f 133/381/11 134/382/11 135/383/11
f 135/383/11 136/384/11 133/381/11
f 137/385/12 138/386/12 139/387/12
f 139/387/12 140/388/12 137/385/12
f 133/381/13 136/384/13 138/386/13
f 138/386/13 137/385/13 133/381/13
f 136/384/14 135/383/14 139/387/14
f 139/387/14 138/386/14 136/384/14
f 135/383/15 134/382/15 140/388/15
f 140/388/15 139/387/15 135/383/15
f 134/382/16 133/381/16 137/385/16
f 137/385/16 140/388/16 134/382/16
f 141/389/11 142/390/11 143/391/11
f 143/391/11 144/392/11 141/389/11
f 145/393/12 146/394/12 147/395/12
f 147/395/12 148/396/12 145/393/12
f 141/389/13 144/392/13 146/394/13
f 146/394/13 145/393/13 141/389/13
f 144/392/14 143/391/14 147/395/14
f 147/395/14 146/394/14 144/392/14
f 143/391/15 142/390/15 148/396/15
f 148/396/15 147/395/15 143/391/15
f 142/390/16 141/389/16 145/393/16
f 145/393/16 148/396/16 142/390/16
f 149/397/11 150/398/11 151/399/11
f 151/399/11 152/400/11 149/397/11
f 153/401/12 154/402/12 155/403/12
f 155/403/12 156/404/12 153/401/12
f 149/397/13 152/400/13 154/402/13
f 154/402/13 153/401/13 149/397/13
f 152/400/14 151/399/14 155/403/14
f 155/403/14 154/402/14 152/400/14
f 151/399/15 150/398/15 156/404/15
f 156/404/15 155/403/15 151/399/15
f 150/398/16 149/397/16 153/401/16
f 153/401/16 156/404/16 150/398/16
f 157/405/11 158/406/11 159/407/11
f 159/407/11 160/408/11 157/405/11
f 161/409/12 162/410/12 163/411/12
f 163/411/12 164/412/12 161/409/12
f 157/405/13 160/408/13 162/410/13
f 162/410/13 161/409/13 157/405/13
f 160/408/14 159/407/14 163/411/14
f 163/411/14 162/410/14 160/408/14
f 159/407/15 158/406/15 164/412/15
f 164/412/15 163/411/15 159/407/15
f 158/406/16 157/405/16 161/409/16
f 161/409/16 164/412/16 158/406/16
