<?xml version="1.0" encoding="UTF-8" standalone="no"?>
<!-- Created with Inkscape (http://www.inkscape.org/) -->

<svg
   xmlns:dc="http://purl.org/dc/elements/1.1/"
   xmlns:cc="http://creativecommons.org/ns#"
   xmlns:rdf="http://www.w3.org/1999/02/22-rdf-syntax-ns#"
   xmlns:svg="http://www.w3.org/2000/svg"
   xmlns="http://www.w3.org/2000/svg"
   xmlns:sodipodi="http://sodipodi.sourceforge.net/DTD/sodipodi-0.dtd"
   xmlns:inkscape="http://www.inkscape.org/namespaces/inkscape"
   width="1000"
   height="1000"
   viewBox="0 0 999.9999880656118 999.9999880410413"
   id="svg2"
   version="1.1"
   inkscape:version="0.91 r13725"
   sodipodi:docname="AbstraktGluehbirne.svg"
   shape-rendering="crispEdges">
  <defs
     id="defs4" />
  <sodipodi:namedview
     id="base"
     pagecolor="#000000"
     bordercolor="#666666"
     borderopacity="1.0"
     inkscape:pageopacity="0"
     inkscape:pageshadow="2"
     inkscape:zoom="0.4949747466999942"
     inkscape:cx="-57.01081137905214"
     inkscape:cy="487.7217583007543"
     inkscape:document-units="px"
     inkscape:current-layer="layer1"
     showgrid="false"
     units="px"
     showguides="false"
     inkscape:object-paths="false"
     inkscape:snap-intersection-paths="true" />
  <metadata
     id="metadata7">
    <rdf:RDF>
      <cc:Work
         rdf:about="">
        <dc:format>image/svg+xml</dc:format>
        <dc:type
           rdf:resource="http://purl.org/dc/dcmitype/StillImage" />
        <dc:title />
      </cc:Work>
    </rdf:RDF>
  </metadata>
  <g
     inkscape:label="Ebene 1"
     inkscape:groupmode="layer"
     id="layer1"
     transform="translate(0,-52.36228930856214)">
    <rect
       style="opacity:1;fill:none;fill-opacity:1;fill-rule:evenodd;stroke:#ffffff;stroke-width:40.47;stroke-linecap:butt;stroke-linejoin:miter;stroke-miterlimit:4;stroke-dasharray:none;stroke-opacity:1"
       id="rect4008"
       width="909.5298461914062"
       height="909.5298461914062"
       x="45.23507690429688"
       y="97.59736633300781"
       ry="62"
       rx="62"
       inkscape:export-xdpi="90"
       inkscape:export-ydpi="90" />
    <path
       id="path4143-8"
       style="opacity:1;fill:#ffffff;fill-opacity:1;stroke:none;stroke-width:41.1730003357;stroke-miterlimit:4;stroke-dasharray:none;stroke-opacity:0.3921568627"
       d="m 500.0000671747421,925.0597283061779 c 65.4779662396043,-8e-13 121.9332087449955,-43.1294677927334 143.3724714895535,-233.0073758978415 7.3242489750739,-64.8675791886127 125.8547745915848,-79.7280213576355 131.46367555463,-237.5513550532065 C 780.2272147111935,302.8089501519467 651.7878798310954,179.6648503109466 500.000067174742,179.6648503109466 m -1.343494842e-4,745.3948779952313 c -65.4779662396048,-1e-13 -121.9332087449955,-43.1294677927334 -143.3724714895536,-233.0073758978415 C 349.30321236063,627.1847732197236 230.7726867441193,612.3243310507002 225.1637857810746,454.5009973551297 219.7727852888067,302.8089501519467 348.212120168904,179.6648503109464 499.9999328252581,179.6648503109464"
       inkscape:connector-curvature="0" />
    <path
       style="opacity:1;fill:#000000;fill-opacity:1;stroke:none;stroke-width:41.1730003357;stroke-miterlimit:4;stroke-dasharray:none;stroke-opacity:0.3921568627"
       d="m 392.0450024728356,806.9344044137884 c -2.0694226611878,-0.063194628224 -3.1690709097121,0.4283342075645 -3.1690709097121,1.719812213093 -3e-13,4.37373664022 13.8695461761989,19.7554094531929 34.7708568231041,29.16491228252 16.2037054599067,7.2947010331696 36.9986935139188,9.5431603991589 56.5210891682123,9.5431603991589 19.5223956542933,0 40.3154917256701,-2.2484593659892 56.5191971855766,-9.5431603991589 20.9013106469063,-9.4095028293266 34.7708568231051,-24.7911756423007 34.7708568231051,-29.16491228252 0,-5.1659120221143 -17.5792855598185,2.447226536959 -44.5486230687123,7.3068369273496 -13.566113175558,2.444480681938 -31.7800450602203,3.2844818503047 -46.7414309399691,3.2844818503047 -14.9613858797484,0 -33.1772097470447,-0.8400011683667 -46.7433229226033,-3.2844818503047 -20.2270031316705,-3.6447077927926 -35.1712841754363,-8.8370652557736 -41.3795521590002,-9.0266491404426 z"
       id="path4727"
       inkscape:connector-curvature="0" />
    <path
       style="opacity:1;fill:#000000;fill-opacity:1;stroke:none;stroke-width:41.1730003357;stroke-miterlimit:4;stroke-dasharray:none;stroke-opacity:0.3921568627"
       d="m 379.9735721881226,746.2529143085621 c -2.3528783699468,-0.071850606757 -3.6015625,0.4886552041288 -3.6015625,1.95703125 1e-13,4.9728219032396 15.7689704010712,22.4598493791457 39.533203125,33.158203125 18.4231809212519,8.2938805098039 42.0652755941283,10.8515625 64.26171875,10.8515625 22.1964431558715,0 45.8385378287479,-2.5576819901963 64.2617187499996,-10.8515625 23.7642327239289,-10.6983537458542 39.533203125,-28.1853812217599 39.533203125,-33.158203125 0,-5.8735041834832 -19.9869732059384,2.783346352084 -50.650390625,8.30859375 -15.424308844042,2.7793093359587 -36.1338345561305,3.7324218750001 -53.1445312499994,3.732421875 -17.0106966938691,1e-13 -37.7202224059579,-0.9531125390413 -53.14453125,-3.732421875 -22.9975630642963,-4.1439355484372 -39.9901930151598,-10.0500731797293 -47.048828125,-10.265625 z"
       id="use4750"
       inkscape:connector-curvature="0" />
    <path
       style="opacity:1;fill:#000000;fill-opacity:1;stroke:none;stroke-width:41.1730003357;stroke-miterlimit:4;stroke-dasharray:none;stroke-opacity:0.3921568627"
       d="M 598.4140682846684,678.112071450418 c -8.3306174435407,0.2543947556414 -28.3837279716025,7.2235920808963 -55.5255049640541,12.1142743767698 -18.2038048873802,3.2801472912039 -42.6455682693557,4.4053639787103 -62.721631757491,4.4053639787103 -20.0760634881357,0 -44.5178268701128,-1.1252166875064 -62.7216317574931,-4.4053639787103 -36.1890359899339,-6.5209097278308 -59.7783682425077,-16.7358119575722 -59.7783682425077,-9.8038887678566 2e-13,5.8689358843606 18.6109869502903,26.5073641690815 46.6575892440325,39.1335859450384 21.7430806324212,9.7884569147492 49.6461173279239,12.8062463041916 75.8424107559686,12.8062463041916 26.1962934280446,0 54.0993301235451,-3.0177893894421 75.8424107559669,-12.8062463041916 28.0466022937419,-12.6262217759569 46.6575892440319,-33.2646500606778 46.6575892440319,-39.1335859450384 0,-1.7329807974288 -1.4759907972726,-2.3951838607949 -4.2528632784537,-2.3103856089132 z"
       id="use4754"
       inkscape:connector-curvature="0" />
    <path
       style="opacity:1;fill:#000000;fill-opacity:1;stroke:none;stroke-width:41.1730003357;stroke-miterlimit:4;stroke-dasharray:none;stroke-opacity:0.3921568627"
       d="M 517.751953125 138.58984375 C 503.9999029326158 138.4653790531191 494.1520498374516 140.5469223012646 491.6640625 143.21484375 C 485.786834511821 149.5171196389241 515.8935906497298 160.228159841587 554.32421875 184.982421875 C 573.6555890531884 197.4343080294888 596.8314897349077 217.1347685156118 615.083984375 234.15625 C 633.3364790150923 251.1777314843881 654.6057725358474 272.9235541768051 668.375 291.33984375 C 695.7481272850117 327.951297799774 708.5309751368217 357.2378227639246 714.408203125 350.935546875 C 719.3841777999031 345.5997039775293 719.9618778267281 311.0574717007913 705.16796875 275.798828125 C 693.6990159494038 248.464624779117 670.8910245530017 222.0640313373335 647.07421875 199.853515625 C 623.257412946999 177.6429999126656 595.3289492192849 156.7288784841216 567.26171875 147.193359375 C 549.1596277039632 141.0433819031065 531.5040033173841 138.7143084468809 517.751953125 138.58984375 z "
       transform="translate(0,52.36228930856214)"
       id="use4754-1" />
  </g>
</svg>
