# Blender v2.78 (sub 0) OBJ File: 'ladder01.blend'
# www.blender.org
mtllib ladder01.mtl
o Cube
v -0.500000 -0.500000 0.050000
v -0.500000 0.500000 0.050000
v -0.500000 -0.500000 -0.050000
v -0.500000 0.500000 -0.050000
v -0.400000 -0.500000 0.050000
v -0.400000 0.500000 0.050000
v -0.400000 -0.500012 -0.050000
v -0.400000 0.499988 -0.050000
v 0.400000 -0.500000 0.050000
v 0.400000 0.500000 0.050000
v 0.400000 -0.500000 -0.050000
v 0.400000 0.500000 -0.050000
v 0.500000 -0.500000 0.050000
v 0.500000 0.500000 0.050000
v 0.500000 -0.500000 -0.050000
v 0.500000 0.500000 -0.050000
v -0.400000 -0.275000 0.025000
v 0.400000 -0.275000 0.025000
v -0.400000 -0.275000 -0.025000
v 0.400000 -0.275000 -0.025000
v -0.400000 -0.375000 0.025000
v 0.400000 -0.375000 0.025000
v -0.400000 -0.375000 -0.025000
v 0.400000 -0.375000 -0.025000
v -0.400000 0.050000 0.025000
v 0.400000 0.050000 0.025000
v -0.400000 0.050000 -0.025000
v 0.400000 0.050000 -0.025000
v -0.400000 -0.050000 0.025000
v 0.400000 -0.050000 0.025000
v -0.400000 -0.050000 -0.025000
v 0.400000 -0.050000 -0.025000
v -0.400000 0.375000 0.025000
v 0.400000 0.375000 0.025000
v -0.400000 0.375000 -0.025000
v 0.400000 0.375000 -0.025000
v -0.400000 0.275000 0.025000
v 0.400000 0.275000 0.025000
v -0.400000 0.275000 -0.025000
v 0.400000 0.275000 -0.025000
vt 0.1942 0.1724
vt 0.1942 0.7765
vt 0.1338 0.7765
vt 0.1338 0.1724
vt 0.0733 0.7765
vt 0.0733 0.1724
vt 0.0129 0.7765
vt 0.0129 0.1724
vt 0.2546 0.1724
vt 0.2546 0.7765
vt 0.1942 0.1119
vt 0.2546 0.1119
vt 0.2546 0.8370
vt 0.1942 0.8370
vt 0.3153 0.7398
vt 0.9195 0.7398
vt 0.9195 0.8002
vt 0.3153 0.8002
vt 0.9195 0.8606
vt 0.3153 0.8606
vt 0.9195 0.9210
vt 0.3153 0.9210
vt 0.9195 0.9815
vt 0.3153 0.9815
vt 0.2549 0.9815
vt 0.2549 0.9210
vt 0.9799 0.9210
vt 0.9799 0.9815
vt 0.6638 0.0109
vt 0.6638 0.4942
vt 0.6336 0.4942
vt 0.6336 0.0109
vt 0.5732 0.4942
vt 0.5732 0.0109
vt 0.5430 0.4942
vt 0.5430 0.0109
vt 0.7242 0.0109
vt 0.7242 0.4942
vt 0.9102 0.0122
vt 0.9102 0.4955
vt 0.8800 0.4955
vt 0.8800 0.0122
vt 0.8196 0.4955
vt 0.8196 0.0122
vt 0.7894 0.4955
vt 0.7894 0.0122
vt 0.9707 0.0122
vt 0.9707 0.4955
vt 0.3600 0.4942
vt 0.3600 0.0109
vt 0.3902 0.0109
vt 0.3902 0.4942
vt 0.4507 0.0109
vt 0.4507 0.4942
vt 0.4809 0.0109
vt 0.4809 0.4942
vt 0.2996 0.4942
vt 0.2996 0.0109
vn -1.0000 0.0000 0.0000
vn 0.0000 0.0000 -1.0000
vn 1.0000 0.0000 0.0000
vn 0.0000 0.0000 1.0000
vn -0.0001 -1.0000 0.0001
vn 0.0001 1.0000 -0.0001
vn 0.0000 -1.0000 0.0000
vn 0.0000 1.0000 0.0000
usemtl Material
s off
f 1/1/1 2/2/1 4/3/1 3/4/1
f 3/4/2 4/3/2 8/5/2 7/6/2
f 7/6/3 8/5/3 6/7/3 5/8/3
f 5/9/4 6/10/4 2/2/4 1/1/4
f 3/11/5 7/12/5 5/9/5 1/1/5
f 8/13/6 4/14/6 2/2/6 6/10/6
f 9/15/1 10/16/1 12/17/1 11/18/1
f 11/18/2 12/17/2 16/19/2 15/20/2
f 15/20/3 16/19/3 14/21/3 13/22/3
f 13/22/4 14/21/4 10/23/4 9/24/4
f 11/25/7 15/26/7 13/22/7 9/24/7
f 16/27/8 12/28/8 10/23/8 14/21/8
f 17/29/8 18/30/8 20/31/8 19/32/8
f 19/32/2 20/31/2 24/33/2 23/34/2
f 23/34/7 24/33/7 22/35/7 21/36/7
f 21/37/4 22/38/4 18/30/4 17/29/4
f 25/39/8 26/40/8 28/41/8 27/42/8
f 27/42/2 28/41/2 32/43/2 31/44/2
f 31/44/7 32/43/7 30/45/7 29/46/7
f 29/47/4 30/48/4 26/40/4 25/39/4
f 33/49/8 34/50/8 36/51/8 35/52/8
f 35/52/2 36/51/2 40/53/2 39/54/2
f 39/54/7 40/53/7 38/55/7 37/56/7
f 37/57/4 38/58/4 34/50/4 33/49/4
