# Exported from Wings 3D 1.5.4
mtllib lightsquares.mtl
o cone
#12 vertices, 12 faces
v -4.00000000 -1.80000000 -3.50000000
v -3.50000000 -1.80000000 -4.00000000
v -4.00000000 -1.80000000 3.50000000
v -3.50000000 -1.80000000 4.00000000
v 3.50000000 -1.80000000 -4.00000000
v 4.00000000 -1.80000000 -3.50000000
v 4.00000000 -1.80000000 3.50000000
v 3.50000000 -1.80000000 4.00000000
v 1.11062378 1.80000000 -1.11062378
v -1.11062378 1.80000000 1.11062378
v -1.11062378 1.80000000 -1.11062378
v 1.11062378 1.80000000 1.11062378
vt 3.0753504e-2 2.9770473e-2
vt 3.0753504e-2 2.9770473e-2
vt 3.0753504e-2 2.9770473e-2
vt 3.0753504e-2 2.9770473e-2
vt 0.33042398 0.97624275
vt 0.33042398 0.97624275
vt 0.33042398 0.97624275
vt 0.33042398 0.97624275
vt 0.60944227 0.97624275
vt 0.60944227 0.97624275
vt 0.60944227 0.97624275
vt 0.60944227 0.97624275
vt 0.91004677 2.9770473e-2
vt 0.91004677 2.9770473e-2
vt 0.91004677 2.9770473e-2
vt 0.91004677 2.9770473e-2
vt 0.97475350 9.5572854e-2
vt 0.97475350 9.5572854e-2
vt 0.97475350 9.5572854e-2
vt 0.97475350 9.5572854e-2
vn -0.66362451 0.70277123 -0.25634956
vn -0.25634956 0.70277123 -0.66362451
vn -0.71035487 0.68299434 0.17004319
vn -0.17004319 0.68299434 0.71035487
vn 0.17004319 0.68299434 -0.71035487
vn 0.71035487 0.68299434 -0.17004319
vn 0.66362451 0.70277123 0.25634956
vn 0.25634956 0.70277123 0.66362451
vn 0.47633457 0.73906073 -0.47633457
vn -0.47633457 0.73906073 0.47633457
vn -0.47292744 0.74342401 -0.47292744
vn 0.47292744 0.74342401 0.47292744

g mat1
usemtl mat1
s 1
f 2/16/2 1/20/1 11/9/11
f 2/16/2 11/9/11 5/1/5
f 3/15/3 11/6/11 1/2/1
f 5/19/5 9/10/9 6/13/6
f 6/13/6 12/7/12 7/3/7
f 7/17/7 12/12/12 8/14/8
f 8/14/8 12/12/12 4/4/4
f 9/5/9 5/1/5 11/9/11
f 10/11/10 3/15/3 4/18/4
f 10/8/10 4/4/4 12/12/12
f 11/6/11 3/15/3 10/11/10
f 12/7/12 6/13/6 9/10/9
