# Blender v2.79 (sub 0) OBJ File: 'cathedral map piece.blend'
# www.blender.org
mtllib cat_flying-buttress1-top.mtl
o flying_buttress1-top
v -7.999999 -4.000000 1.000000
v -7.999999 -3.999999 -1.000000
v 8.000000 2.000000 1.000000
v 8.000000 2.000000 -1.000000
v 4.000000 0.500000 1.000000
v 0.000000 -1.000000 1.000000
v -4.000000 -2.500000 1.000000
v 4.000000 0.500000 -1.000000
v -0.000000 -1.000000 -1.000000
v -4.000000 -2.500000 -1.000000
v -5.999999 -3.250000 1.000000
v -6.000000 -3.249999 -1.000000
v -2.000000 -1.750000 1.000000
v -2.000000 -1.750000 -1.000000
v 2.000000 -0.250000 1.000000
v 2.000000 -0.250000 -1.000000
v 6.000000 1.250000 1.000000
v 6.000000 1.250000 -1.000000
v -7.999999 -2.000000 -1.000000
v -7.999999 -2.000000 1.000000
v 8.000000 4.000000 -1.000000
v 8.000000 4.000000 1.000000
v -5.999999 -1.250000 1.000000
v -5.999999 -1.250000 -1.000000
v 6.000000 3.250000 1.000000
v 4.000000 2.500000 1.000000
v 2.000001 1.750000 1.000000
v -0.000000 1.000000 1.000000
v -2.000000 0.250000 1.000000
v -4.000000 -0.500000 1.000000
v 6.000000 3.250000 -1.000000
v 4.000000 2.500000 -1.000000
v 2.000000 1.750000 -1.000000
v -0.000000 1.000000 -1.000000
v -2.000000 0.250000 -1.000000
v -4.000000 -0.500000 -1.000000
v -7.999999 -3.333333 -1.000000
v -8.000000 -2.666666 -1.000000
v -6.000000 -1.916666 -1.000000
v -6.000000 -2.583333 -1.000000
v 6.000000 1.916667 1.000000
v 6.000000 2.583333 1.000000
v 4.000000 1.833333 1.000000
v 4.000000 1.166667 1.000000
v 2.000001 1.083334 1.000000
v 2.000000 0.416667 1.000000
v 0.000000 0.333333 1.000000
v 0.000000 -0.333333 1.000000
v 2.000000 0.416667 -1.000000
v 2.000000 1.083333 -1.000000
v 4.000000 1.833333 -1.000000
v 4.000000 1.166667 -1.000000
v -3.999999 -1.833333 1.000000
v -3.999999 -1.166667 1.000000
v -6.000000 -1.916666 1.000000
v -6.000000 -2.583333 1.000000
v -1.999999 -1.083333 1.000000
v -2.000000 -0.416667 1.000000
v -4.000000 -1.166666 -1.000000
v -4.000000 -1.833333 -1.000000
v 6.000000 2.583334 -1.000000
v 6.000000 1.916667 -1.000000
v 8.000001 2.666667 1.000000
v 8.000000 3.333333 1.000000
v -7.999999 -3.333333 1.000000
v -8.000000 -2.666667 1.000000
v -0.000000 -0.333333 -1.000000
v -0.000000 0.333333 -1.000000
v 8.000000 3.333333 -1.000000
v 8.000000 2.666667 -1.000000
v -2.000000 -0.416666 -1.000000
v -2.000000 -1.083333 -1.000000
v -5.999999 -3.250000 1.500000
v -8.000000 -4.000000 1.500000
v -6.000000 -3.249999 -1.500000
v -8.000000 -4.000000 -1.500000
v 6.000000 1.250000 1.500000
v 4.000000 0.500000 1.500000
v 2.000001 -0.250000 1.500000
v 0.000000 -1.000000 1.500000
v -2.000000 -1.750000 1.500000
v -3.999999 -2.500000 1.500000
v 6.000000 1.250000 -1.500000
v 4.000000 0.500000 -1.500000
v 2.000000 -0.250000 -1.500000
v -0.000000 -1.000000 -1.500000
v -2.000000 -1.750000 -1.500000
v -3.999999 -2.499999 -1.500000
v 7.999999 2.000000 1.500000
v 7.999999 2.000000 -1.500000
v -5.999999 -1.250000 1.500000
v -7.999999 -2.000000 1.500000
v -5.999999 -1.250000 -1.500000
v -7.999999 -2.000000 -1.500000
v 6.000000 3.250000 1.500000
v 4.000000 2.500000 1.500000
v 2.000001 1.750000 1.500000
v 0.000000 1.000000 1.500000
v -2.000000 0.250000 1.500000
v -4.000000 -0.500000 1.500000
v 6.000000 3.250000 -1.500000
v 4.000000 2.500000 -1.500000
v 2.000000 1.750000 -1.500000
v -0.000000 1.000000 -1.500000
v -2.000000 0.250000 -1.500000
v -4.000000 -0.500000 -1.500000
v 8.000000 4.000000 1.500000
v 8.000000 4.000000 -1.500000
v -8.000000 -2.416667 -1.500000
v -5.999999 -2.833333 -1.500000
v 6.000000 2.833333 1.500000
v 4.000000 0.916667 1.500000
v 2.000000 0.166667 1.500000
v 0.000000 -0.583333 1.500000
v 2.000000 1.333333 -1.500000
v 4.000000 0.916667 -1.500000
v -3.999999 -0.916667 1.500000
v -5.999999 -2.833333 1.500000
v -1.999999 -0.166667 1.500000
v -4.000000 -2.083333 -1.500000
v 6.000000 1.666667 -1.500000
v 7.999999 3.583333 1.500000
v -8.000000 -2.416667 1.500000
v -0.000000 0.583333 -1.500000
v 8.000000 2.416667 -1.500000
v -2.000000 -1.333333 -1.500000
v -7.999999 -3.583333 -1.500000
v -5.999999 -1.666666 -1.500000
v 6.000001 1.666667 1.500000
v 4.000000 2.083333 1.500000
v 2.000000 1.333334 1.500000
v 0.000000 0.583334 1.500000
v 2.000000 0.166667 -1.500000
v 4.000000 2.083333 -1.500000
v -4.000000 -2.083333 1.500000
v -5.999999 -1.666666 1.500000
v -1.999999 -1.333333 1.500000
v -4.000000 -0.916666 -1.500000
v 6.000000 2.833333 -1.500000
v 8.000000 2.416667 1.500000
v -7.999999 -3.583333 1.500000
v -0.000001 -0.583333 -1.500000
v 7.999999 3.583333 -1.500000
v -2.000000 -0.166666 -1.500000
v -7.999999 -3.999999 -1.000000
v -7.999999 -4.000000 1.000000
v 8.000000 2.000000 -1.000000
v 8.000000 2.000000 1.000000
v -7.999999 -2.000000 -1.000000
v -7.999999 -2.000000 1.000000
v 8.000000 4.000000 -1.000000
v 8.000000 4.000000 1.000000
v -8.000000 -2.666666 -1.000000
v -8.000000 -2.666666 -1.000000
v -8.000000 -2.416667 -1.500000
v -8.000000 -2.416667 -1.500000
v -7.999999 -3.583333 -1.500000
v -7.999999 -3.583333 -1.500000
v -7.999999 -3.333333 -1.000000
v -7.999999 -3.333333 -1.000000
v 8.000001 2.666667 1.000000
v 8.000001 2.666667 1.000000
v 8.000000 3.333333 1.000000
v 8.000000 3.333333 1.000000
v -7.999999 -3.333333 1.000000
v -7.999999 -3.333333 1.000000
v -8.000000 -2.666667 1.000000
v -8.000000 -2.666667 1.000000
v 8.000000 3.333333 -1.000000
v 8.000000 3.333333 -1.000000
v 8.000000 2.666667 -1.000000
v 8.000000 2.666667 -1.000000
v -2.000000 -1.083333 -1.000000
v -0.000000 -0.333333 -1.000000
v -2.000000 -0.416666 -1.000000
v -0.000000 0.333333 -1.000000
v -6.000000 -2.583333 1.000000
v -6.000000 -1.916666 1.000000
v -4.000000 -1.833333 -1.000000
v -4.000000 -1.166666 -1.000000
v 0.000000 -0.333333 1.000000
v -1.999999 -1.083333 1.000000
v 0.000000 0.333333 1.000000
v -2.000000 -0.416667 1.000000
v 6.000000 1.916667 -1.000000
v 6.000000 2.583334 -1.000000
v 2.000000 0.416667 -1.000000
v 2.000000 1.083333 -1.000000
v 6.000000 1.916667 1.000000
v 6.000000 2.583333 1.000000
v 4.000000 1.166667 -1.000000
v 4.000000 1.833333 -1.000000
v -6.000000 -2.583333 -1.000000
v -6.000000 -1.916666 -1.000000
v -3.999999 -1.833333 1.000000
v -3.999999 -1.166667 1.000000
v 2.000000 0.416667 1.000000
v 2.000001 1.083334 1.000000
v 4.000000 1.166667 1.000000
v 4.000000 1.833333 1.000000
v -5.999999 -3.250000 1.500000
v -8.000000 -4.000000 1.500000
v -8.000000 -4.000000 1.500000
v -6.000000 -3.249999 -1.500000
v -8.000000 -4.000000 -1.500000
v -8.000000 -4.000000 -1.500000
v 6.000000 1.250000 1.500000
v 4.000000 0.500000 1.500000
v 2.000001 -0.250000 1.500000
v 0.000000 -1.000000 1.500000
v -2.000000 -1.750000 1.500000
v -3.999999 -2.500000 1.500000
v 6.000000 1.250000 -1.500000
v 4.000000 0.500000 -1.500000
v 2.000000 -0.250000 -1.500000
v -0.000000 -1.000000 -1.500000
v -2.000000 -1.750000 -1.500000
v -3.999999 -2.499999 -1.500000
v 7.999999 2.000000 1.500000
v 7.999999 2.000000 1.500000
v 7.999999 2.000000 -1.500000
v 7.999999 2.000000 -1.500000
v -5.999999 -1.250000 1.500000
v -7.999999 -2.000000 1.500000
v -7.999999 -2.000000 1.500000
v -5.999999 -1.250000 -1.500000
v -7.999999 -2.000000 -1.500000
v -7.999999 -2.000000 -1.500000
v 6.000000 3.250000 1.500000
v 4.000000 2.500000 1.500000
v 2.000001 1.750000 1.500000
v 0.000000 1.000000 1.500000
v -2.000000 0.250000 1.500000
v -4.000000 -0.500000 1.500000
v 6.000000 3.250000 -1.500000
v 4.000000 2.500000 -1.500000
v 2.000000 1.750000 -1.500000
v -0.000000 1.000000 -1.500000
v -2.000000 0.250000 -1.500000
v -4.000000 -0.500000 -1.500000
v 8.000000 4.000000 1.500000
v 8.000000 4.000000 1.500000
v 8.000000 4.000000 -1.500000
v 8.000000 4.000000 -1.500000
v 7.999999 3.583333 1.500000
v 7.999999 3.583333 1.500000
v -8.000000 -2.416667 1.500000
v -8.000000 -2.416667 1.500000
v 8.000000 2.416667 -1.500000
v 8.000000 2.416667 -1.500000
v 8.000000 2.416667 1.500000
v 8.000000 2.416667 1.500000
v -7.999999 -3.583333 1.500000
v -7.999999 -3.583333 1.500000
v 7.999999 3.583333 -1.500000
v 7.999999 3.583333 -1.500000
v -2.000000 -1.333333 -1.500000
v -0.000001 -0.583333 -1.500000
v -2.000000 -0.166666 -1.500000
v -0.000000 0.583333 -1.500000
v -5.999999 -2.833333 1.500000
v -5.999999 -1.666666 1.500000
v -4.000000 -2.083333 -1.500000
v -4.000000 -0.916666 -1.500000
v 0.000000 -0.583333 1.500000
v -1.999999 -1.333333 1.500000
v 0.000000 0.583334 1.500000
v -1.999999 -0.166667 1.500000
v 6.000000 1.666667 -1.500000
v 6.000000 2.833333 -1.500000
v 2.000000 0.166667 -1.500000
v 2.000000 1.333333 -1.500000
v 6.000001 1.666667 1.500000
v 6.000000 2.833333 1.500000
v 4.000000 0.916667 -1.500000
v 4.000000 2.083333 -1.500000
v -5.999999 -2.833333 -1.500000
v -5.999999 -1.666666 -1.500000
v -4.000000 -2.083333 1.500000
v -3.999999 -0.916667 1.500000
v 2.000000 0.166667 1.500000
v 2.000000 1.333334 1.500000
v 4.000000 0.916667 1.500000
v 4.000000 2.083333 1.500000
vt 0.567967 0.573889
vt 0.387745 0.573889
vt 0.387745 0.548973
vt 0.567967 0.548973
vt 0.567967 0.723388
vt 0.387744 0.723388
vt 0.387745 0.698472
vt 0.567967 0.698472
vt 0.567967 0.673555
vt 0.387745 0.673555
vt 0.387745 0.648639
vt 0.567967 0.648639
vt 0.567967 0.623722
vt 0.387745 0.623722
vt 0.387745 0.598806
vt 0.567967 0.598806
vt 0.567967 0.748305
vt 0.387744 0.748305
vt 0.200630 0.764416
vt 0.225547 0.764416
vt 0.225546 0.944638
vt 0.200630 0.944638
vt 0.051131 0.764416
vt 0.076047 0.764416
vt 0.076047 0.944638
vt 0.051131 0.944638
vt 0.100964 0.764416
vt 0.125880 0.764416
vt 0.125880 0.944638
vt 0.100964 0.944638
vt 0.150797 0.764416
vt 0.175713 0.764416
vt 0.175713 0.944638
vt 0.150797 0.944638
vt 0.026214 0.764416
vt 0.026214 0.944639
vt 0.613022 0.648639
vt 0.613022 0.673555
vt 0.125880 0.989694
vt 0.100964 0.989694
vt 0.796617 0.097399
vt 0.796617 0.141860
vt 0.760573 0.125187
vt 0.760573 0.097399
vt 0.494143 0.969792
vt 0.494143 0.914217
vt 0.539199 0.935057
vt 0.539199 0.969792
vt 0.603435 0.046215
vt 0.603426 0.071132
vt 0.553982 0.066701
vt 0.553991 0.041784
vt 0.100964 0.719361
vt 0.125880 0.719361
vt 0.342689 0.723388
vt 0.342689 0.698472
vt 0.313921 0.914216
vt 0.313921 0.969792
vt 0.268865 0.969792
vt 0.268865 0.935057
vt 0.613022 0.698472
vt 0.613022 0.723388
vt 0.076047 0.989694
vt 0.051131 0.989694
vt 0.796617 0.186320
vt 0.940795 0.186320
vt 0.940795 0.230780
vt 0.796617 0.230780
vt 0.856374 0.883261
vt 0.880993 0.887101
vt 0.877734 0.936636
vt 0.853115 0.932796
vt 0.051131 0.719361
vt 0.076047 0.719361
vt 0.494143 0.858641
vt 0.313921 0.858641
vt 0.313921 0.803065
vt 0.494143 0.803065
vt 0.976839 0.202993
vt 0.976839 0.230780
vt 0.877734 0.831621
vt 0.853115 0.827781
vt 0.856375 0.778246
vt 0.880993 0.782086
vt 0.539199 0.803065
vt 0.539199 0.837800
vt 0.782518 0.871741
vt 0.807136 0.875581
vt 0.803877 0.925116
vt 0.779258 0.921276
vt 0.803877 0.820101
vt 0.779259 0.816261
vt 0.782518 0.766726
vt 0.807137 0.770566
vt 0.877734 0.831621
vt 0.902353 0.835462
vt 0.905612 0.890942
vt 0.880993 0.887101
vt 0.342689 0.673555
vt 0.603366 0.245547
vt 0.603374 0.220631
vt 0.657685 0.232420
vt 0.657677 0.257336
vt 0.342689 0.648639
vt 0.342689 0.623722
vt 0.926972 0.839302
vt 0.930230 0.894782
vt 0.954849 0.898622
vt 0.979468 0.902462
vt 0.976209 0.951997
vt 0.951590 0.948157
vt 0.603392 0.170798
vt 0.603400 0.145881
vt 0.657711 0.157670
vt 0.657702 0.182587
vt 0.779259 0.816261
vt 0.803877 0.820101
vt 0.807136 0.875581
vt 0.782518 0.871741
vt 0.342689 0.598806
vt 0.342689 0.573889
vt 0.853115 0.827781
vt 0.856374 0.883261
vt 0.940795 0.097399
vt 0.940795 0.141860
vt 0.976209 0.846982
vt 0.951590 0.843142
vt 0.954850 0.793607
vt 0.979468 0.797447
vt 0.603426 0.071132
vt 0.603435 0.046215
vt 0.657745 0.058004
vt 0.657737 0.082921
vt 0.150797 0.989694
vt 0.828496 0.823941
vt 0.831755 0.879421
vt 0.657702 0.182587
vt 0.657711 0.157670
vt 0.707155 0.162101
vt 0.707146 0.187018
vt 0.951590 0.843142
vt 0.954849 0.898622
vt 0.603383 0.195714
vt 0.657694 0.207503
vt 0.657728 0.107837
vt 0.657737 0.082921
vt 0.707181 0.087352
vt 0.707172 0.112268
vt 0.200630 0.989694
vt 0.175713 0.989694
vt 0.603400 0.145881
vt 0.603392 0.170798
vt 0.553948 0.166367
vt 0.553956 0.141450
vt 0.603409 0.120965
vt 0.657720 0.132754
vt 0.613022 0.623722
vt 0.603417 0.096048
vt 0.657728 0.107837
vt 0.603417 0.096048
vt 0.553973 0.091617
vt 0.976209 0.846982
vt 0.979468 0.902462
vt 0.951590 0.948157
vt 0.976209 0.951997
vt 0.978245 0.986672
vt 0.953627 0.982832
vt 0.707172 0.112268
vt 0.707181 0.087352
vt 0.741125 0.094720
vt 0.741116 0.119637
vt 0.707164 0.137185
vt 0.741108 0.144553
vt 0.707155 0.162101
vt 0.741099 0.169470
vt 0.828496 0.928956
vt 0.853115 0.932796
vt 0.855152 0.967471
vt 0.830533 0.963631
vt 0.707129 0.236851
vt 0.707138 0.211934
vt 0.741082 0.219303
vt 0.741073 0.244219
vt 0.707146 0.187018
vt 0.741091 0.194386
vt 0.926971 0.944317
vt 0.929008 0.978992
vt 0.803877 0.925116
vt 0.805914 0.959791
vt 0.707189 0.062435
vt 0.741134 0.069804
vt 0.877734 0.936636
vt 0.879770 0.971311
vt 0.779258 0.921276
vt 0.781295 0.955951
vt 0.902352 0.940477
vt 0.904389 0.975152
vt 0.707121 0.261767
vt 0.741065 0.269136
vt 0.878956 0.747411
vt 0.903575 0.751252
vt 0.905612 0.785927
vt 0.880993 0.782086
vt 0.519978 0.233748
vt 0.519986 0.208831
vt 0.553930 0.216200
vt 0.553922 0.241116
vt 0.928194 0.755092
vt 0.930231 0.789767
vt 0.520003 0.158998
vt 0.520012 0.134082
vt 0.553956 0.141450
vt 0.553948 0.166367
vt 0.780481 0.732051
vt 0.805100 0.735891
vt 0.807137 0.770566
vt 0.782518 0.766726
vt 0.854338 0.743571
vt 0.856375 0.778246
vt 0.520038 0.059332
vt 0.520046 0.034416
vt 0.553991 0.041784
vt 0.553982 0.066701
vt 0.829719 0.739731
vt 0.831756 0.774406
vt 0.952813 0.758932
vt 0.954850 0.793607
vt 0.519995 0.183915
vt 0.553939 0.191283
vt 0.520021 0.109165
vt 0.553965 0.116534
vt 0.520029 0.084249
vt 0.553973 0.091617
vt 0.977432 0.762772
vt 0.979468 0.797447
vt 0.657745 0.058004
vt 0.707189 0.062435
vt 0.828496 0.823941
vt 0.831756 0.774406
vt 0.976839 0.097399
vt 0.976839 0.125187
vt 0.150797 0.719361
vt 0.175713 0.719361
vt 0.831755 0.879421
vt 0.828496 0.928956
vt 0.613022 0.598806
vt 0.926972 0.839302
vt 0.930231 0.789767
vt 0.930230 0.894782
vt 0.926971 0.944317
vt 0.200630 0.719361
vt 0.225547 0.719361
vt 0.603383 0.195714
vt 0.553939 0.191283
vt 0.268865 0.837800
vt 0.268865 0.803065
vt 0.225546 0.989694
vt 0.613023 0.548973
vt 0.613023 0.573889
vt 0.657694 0.207503
vt 0.707138 0.211934
vt 0.342689 0.548973
vt 0.603374 0.220631
vt 0.553930 0.216200
vt 0.760573 0.230780
vt 0.760573 0.202993
vt 0.657685 0.232420
vt 0.707129 0.236851
vt 0.902353 0.835462
vt 0.905612 0.785927
vt 0.905612 0.890942
vt 0.902352 0.940477
vt 0.026214 0.719361
vt 0.603409 0.120965
vt 0.553965 0.116534
vt 0.603366 0.245547
vt 0.553922 0.241116
vt 0.026214 0.989694
vt 0.657720 0.132754
vt 0.707164 0.137185
vt 0.613022 0.748305
vt 0.657677 0.257336
vt 0.707121 0.261767
vt 0.342689 0.748305
vn 0.3511 -0.9363 0.0000
vn -0.3511 0.9363 0.0000
vn -1.0000 0.0000 0.0000
vn 1.0000 0.0000 0.0000
vn -0.3180 0.8480 0.4240
vn 0.3180 -0.8480 -0.4240
vn -0.3180 0.8480 -0.4240
vn 0.0000 0.0000 -1.0000
vn 0.0000 0.0000 1.0000
vn 0.3180 -0.8480 0.4240
usemtl None
s 1
f 17/1/1 18/2/1 147/3/1 148/4/1
f 11/5/1 12/6/1 10/7/1 7/8/1
f 13/9/1 14/10/1 9/11/1 6/12/1
f 15/13/1 16/14/1 8/15/1 5/16/1
f 146/17/1 145/18/1 12/6/1 11/5/1
f 7/8/1 10/7/1 14/10/1 13/9/1
f 6/12/1 9/11/1 16/14/1 15/13/1
f 5/16/1 8/15/1 18/2/1 17/1/1
f 25/19/2 152/20/2 151/21/2 31/22/2
f 23/23/2 30/24/2 36/25/2 24/26/2
f 29/27/2 28/28/2 34/29/2 35/30/2
f 27/31/2 26/32/2 32/33/2 33/34/2
f 150/35/2 23/23/2 24/26/2 149/36/2
f 30/24/2 29/27/2 35/30/2 36/25/2
f 28/28/2 27/31/2 33/34/2 34/29/2
f 26/32/2 25/19/2 31/22/2 32/33/2
f 13/9/1 6/12/1 210/37/1 211/38/1
f 35/30/2 34/29/2 238/39/2 239/40/2
f 2/41/3 159/42/3 157/43/3 206/44/3
f 3/45/4 161/46/4 251/47/4 220/48/4
f 162/49/5 41/50/5 273/51/5 252/52/5
f 28/28/2 29/27/2 233/53/2 98/54/2
f 10/7/1 12/6/1 75/55/1 218/56/1
f 171/57/4 4/58/4 222/59/4 249/60/4
f 11/5/1 7/8/1 212/61/1 73/62/1
f 24/26/2 36/25/2 240/63/2 93/64/2
f 153/65/3 167/66/3 20/67/3 19/68/3
f 50/69/6 68/70/6 124/71/6 115/72/6
f 30/24/2 23/23/2 91/73/2 234/74/2
f 163/75/4 169/76/4 21/77/4 22/78/4
f 20/67/3 167/66/3 247/79/3 225/80/3
f 67/81/7 49/82/7 133/83/7 142/84/7
f 163/75/4 22/78/4 242/85/4 245/86/4
f 170/87/6 61/88/6 139/89/6 256/90/6
f 62/91/7 172/92/7 250/93/7 121/94/7
f 174/95/8 173/96/8 175/97/8 176/98/8
f 14/10/1 10/7/1 218/56/1 217/99/1
f 166/100/9 177/101/9 178/102/9 168/103/9
f 16/14/1 9/11/1 216/104/1 215/105/1
f 173/96/8 179/106/8 180/107/8 175/97/8
f 194/108/6 154/109/6 155/110/6 278/111/6
f 57/112/9 181/113/9 47/114/9 58/115/9
f 3/45/4 4/58/4 171/57/4 161/46/4
f 161/46/4 171/57/4 169/76/4 163/75/4
f 36/25/2 35/30/2 239/40/2 240/63/2
f 70/116/8 185/117/8 186/118/8 69/119/8
f 18/2/1 8/15/1 214/120/1 213/121/1
f 187/122/8 174/95/8 176/98/8 188/123/8
f 2/41/3 1/124/3 165/125/3 159/42/3
f 159/42/3 165/125/3 167/66/3 153/65/3
f 160/126/7 193/127/7 277/128/7 158/129/7
f 189/130/9 63/131/9 164/132/9 190/133/9
f 34/29/2 33/34/2 237/134/2 238/39/2
f 185/117/8 191/135/8 192/136/8 186/118/8
f 184/137/10 183/138/10 267/139/10 268/140/10
f 179/106/8 40/141/8 39/142/8 180/107/8
f 7/8/1 13/9/1 211/38/1 212/61/1
f 195/143/9 57/112/9 58/115/9 196/144/9
f 200/145/10 42/146/10 274/147/10 284/148/10
f 177/101/9 195/143/9 196/144/9 178/102/9
f 32/33/2 31/22/2 235/149/2 236/150/2
f 191/135/8 187/122/8 188/123/8 192/136/8
f 48/151/5 182/152/5 266/153/5 265/154/5
f 181/113/9 197/155/9 198/156/9 47/114/9
f 6/12/1 15/13/1 209/157/1 210/37/1
f 197/155/9 199/158/9 43/159/9 198/156/9
f 41/50/5 44/160/5 283/161/5 273/51/5
f 199/158/9 189/130/9 190/133/9 43/159/9
f 29/27/2 30/24/2 234/74/2 233/53/2
f 40/141/8 37/162/8 38/163/8 39/142/8
f 128/164/8 156/165/8 227/166/8 226/167/8
f 130/168/9 111/169/9 229/170/9 230/171/9
f 282/172/9 130/168/9 230/171/9 231/173/9
f 132/174/9 282/172/9 231/173/9 232/175/9
f 276/176/8 272/177/8 103/178/8 102/179/8
f 262/180/9 280/181/9 100/182/9 223/183/9
f 280/181/9 119/184/9 99/185/9 100/182/9
f 264/186/8 128/164/8 226/167/8 106/187/8
f 270/188/8 276/176/8 102/179/8 101/189/8
f 111/169/9 246/190/9 241/191/9 229/170/9
f 272/177/8 260/192/8 104/193/8 103/178/8
f 255/194/8 270/188/8 101/189/8 243/195/8
f 119/184/9 132/174/9 232/175/9 99/185/9
f 259/196/8 264/186/8 106/187/8 105/197/8
f 248/198/9 262/180/9 223/183/9 224/199/9
f 260/192/8 259/196/8 105/197/8 104/193/8
f 86/200/8 87/201/8 257/202/8 258/203/8
f 202/204/9 201/205/9 261/206/9 253/207/9
f 87/201/8 88/208/8 263/209/8 257/202/8
f 81/210/9 80/211/9 114/212/9 137/213/9
f 221/214/8 83/215/8 269/216/8 125/217/8
f 85/218/8 86/200/8 258/203/8 271/219/8
f 207/220/9 219/221/9 140/222/9 129/223/9
f 83/215/8 84/224/8 275/225/8 269/216/8
f 88/208/8 204/226/8 110/227/8 263/209/8
f 82/228/9 81/210/9 137/213/9 279/229/9
f 201/205/9 82/228/9 279/229/9 261/206/9
f 84/224/8 85/218/8 271/219/8 275/225/8
f 80/211/9 79/230/9 281/231/9 114/212/9
f 79/230/9 208/232/9 112/233/9 281/231/9
f 208/232/9 207/220/9 129/223/9 112/233/9
f 204/226/8 205/234/8 127/235/8 110/227/8
f 42/146/10 64/236/10 122/237/10 274/147/10
f 9/11/1 14/10/1 217/99/1 216/104/1
f 52/238/7 62/91/7 121/94/7 116/239/7
f 165/125/3 1/124/3 203/240/3 254/241/3
f 26/32/2 27/31/2 97/242/2 96/243/2
f 61/88/6 51/244/6 134/245/6 139/89/6
f 33/34/2 32/33/2 236/150/2 237/134/2
f 15/13/1 5/16/1 78/246/1 209/157/1
f 193/127/7 60/247/7 120/248/7 277/128/7
f 8/15/1 16/14/1 215/105/1 214/120/1
f 59/249/6 194/108/6 278/111/6 138/250/6
f 152/20/2 25/19/2 95/251/2 107/252/2
f 182/152/5 53/253/5 135/254/5 266/153/5
f 21/77/4 169/76/4 143/255/4 244/256/4
f 31/22/2 151/21/2 108/257/2 235/149/2
f 17/1/1 148/4/1 89/258/1 77/259/1
f 54/260/10 184/137/10 268/140/10 117/261/10
f 147/3/1 18/2/1 213/121/1 90/262/1
f 53/253/5 56/263/5 118/264/5 135/254/5
f 153/65/3 19/68/3 228/265/3 109/266/3
f 55/267/10 54/260/10 117/261/10 136/268/10
f 49/82/7 52/238/7 116/239/7 133/83/7
f 72/269/7 67/81/7 142/84/7 126/270/7
f 51/244/6 50/69/6 115/72/6 134/245/6
f 68/70/6 71/271/6 144/272/6 124/71/6
f 23/23/2 150/35/2 92/273/2 91/73/2
f 46/274/5 48/151/5 265/154/5 113/275/5
f 56/263/5 65/276/5 141/277/5 118/264/5
f 149/36/2 24/26/2 93/64/2 94/278/2
f 183/138/10 45/279/10 131/280/10 267/139/10
f 146/17/1 11/5/1 73/62/1 74/281/1
f 66/282/10 55/267/10 136/268/10 123/283/10
f 25/19/2 26/32/2 96/243/2 95/251/2
f 44/160/5 46/274/5 113/275/5 283/161/5
f 12/6/1 145/18/1 76/284/1 75/55/1
f 60/247/7 72/269/7 126/270/7 120/248/7
f 27/31/2 28/28/2 98/54/2 97/242/2
f 45/279/10 200/145/10 284/148/10 131/280/10
f 5/16/1 17/1/1 77/259/1 78/246/1
f 71/271/6 59/249/6 138/250/6 144/272/6
