# Blender v2.80 (sub 39) OBJ File: 'industrial_set.blend'
# www.blender.org
g mesh
v -2.000000 -1.850417 -1.850000
v -2.000000 1.851581 -1.850000
v -2.000000 2.000000 -2.000000
v 2.000000 1.851581 -1.850000
v 0.000000 2.146998 0.000000
v 0.000000 -2.150000 0.000000
v 0.000000 1.921542 0.000000
v 0.000000 -1.924544 -0.000000
v 2.000000 -1.850417 -1.850000
v 2.000000 2.000000 -2.000000
v 2.000000 -2.000000 -2.000000
v -1.850000 -1.850417 2.000000
v -1.850000 1.850000 2.000000
v 1.850000 1.850000 2.000000
v 1.850000 -1.850417 2.000000
v -2.000000 -1.850417 1.850000
v -2.000000 1.851581 1.850000
v 2.000000 -1.850417 1.850000
v 2.000000 1.851581 1.850000
v -2.000000 -2.000000 2.000000
v -2.000000 2.000000 2.000000
v 2.000000 2.000000 2.000000
v 2.000000 -2.000000 2.000000
v -1.850000 -1.850000 -2.000000
v -1.850000 1.850000 -2.000000
v 1.850000 1.850000 -2.000000
v 1.850000 -1.850000 -2.000000
v -2.000000 -1.998333 -2.000000
vt 0.624366 0.492665
vt 0.421320 0.492665
vt 0.522843 0.370416
vt 0.989340 0.735330
vt 0.989340 0.509169
vt 0.996954 0.500000
vt 0.996954 0.744499
vt 0.801523 0.735330
vt 0.793909 0.744499
vt 0.801523 0.509169
vt 0.793909 0.500000
vt 0.315466 0.504435
vt 0.315339 0.735211
vt 0.301826 0.735214
vt 0.301826 0.504439
vt 0.206091 0.744499
vt 0.003046 0.744499
vt 0.104569 0.622249
vt 0.516789 0.737514
vt 0.516789 0.504674
vt 0.507821 0.504674
vt 0.507821 0.737514
vt 0.212183 0.744499
vt 0.400000 0.744499
vt 0.306092 0.866748
vt 0.406092 0.988997
vt 0.406092 0.744499
vt 0.500000 0.866748
vt 0.421320 0.248166
vt 0.624366 0.248166
vt 0.003046 0.500000
vt 0.206091 0.500000
vt 0.301700 0.504439
vt 0.288186 0.504435
vt 0.288186 0.735211
vt 0.301826 0.735214
vt 0.516789 0.737514
vt 0.507821 0.737514
vt 0.507821 0.504674
vt 0.516789 0.504674
vt 0.315466 0.504435
vt 0.301826 0.504439
vt 0.301826 0.735214
vt 0.315339 0.735211
vt 0.301700 0.504439
vt 0.301826 0.735214
vt 0.288186 0.735211
vt 0.288186 0.504435
vt 0.593909 0.744499
vt 0.593909 0.988997
vt 0.400000 0.988997
vt 0.212183 0.988997
vt 0.801523 0.735330
vt 0.793909 0.744499
vt 0.996954 0.744499
vt 0.989340 0.735330
vt 0.989340 0.987164
vt 0.989340 0.761002
vt 0.996954 0.751834
vt 0.996954 0.996333
vt 0.801523 0.761002
vt 0.801523 0.987164
vt 0.793909 0.996333
vt 0.793909 0.751834
vt 0.489884 0.737514
vt 0.480833 0.737514
vt 0.480833 0.504674
vt 0.489884 0.504674
vt 0.224728 0.477559
vt 0.401041 0.475581
vt 0.415229 0.492665
vt 0.212183 0.492665
vt 0.401041 0.265250
vt 0.224728 0.263273
vt 0.212183 0.248166
vt 0.415229 0.248166
vt 0.989340 0.761002
vt 0.996954 0.751834
vt 0.793909 0.751834
vt 0.801523 0.761002
vt 0.489884 0.737514
vt 0.489884 0.504674
vt 0.480833 0.504674
vt 0.480833 0.737514
vt 0.224728 0.477559
vt 0.212183 0.492665
vt 0.415229 0.492665
vt 0.401041 0.475581
vt 0.401041 0.265250
vt 0.415229 0.248166
vt 0.212183 0.248166
vt 0.224728 0.263273
vn -0.0733 0.9973 0.0000
vn -1.0000 0.0000 0.0000
vn -0.7071 0.0000 0.7071
vn 0.0748 -0.9972 0.0000
vn 0.0000 1.0000 0.0028
vn -0.0370 0.9993 0.0000
vn 0.0000 -0.9993 0.0378
vn 0.0733 0.9973 0.0000
vn 0.0000 0.9973 0.0733
vn 0.0000 0.9973 -0.0733
vn -0.0752 -0.9972 -0.0004
vn -0.0004 -0.9972 -0.0752
vn 0.0000 -0.9972 0.0748
vn 0.7071 0.0000 -0.7071
vn 0.0000 1.0000 0.0000
vn -0.7071 0.0000 -0.7071
vn 0.7071 0.0000 0.7071
vn 0.0000 -0.9993 -0.0378
vn -0.0350 -0.9994 0.0000
vn 0.0350 -0.9994 0.0000
vn 0.0370 0.9993 0.0000
vn 0.0000 0.9992 -0.0400
vn 0.0000 0.9992 0.0400
vn 1.0000 0.0000 0.0000
vn 0.0000 -0.9999 -0.0105
vn 0.0000 0.0000 1.0000
vn 0.0000 -0.9999 0.0105
vn 0.0000 0.0000 -1.0000
s off
f 3/1/1 21/2/1 5/3/1
f 16/4/2 1/5/2 28/6/2 20/7/2
f 17/8/2 16/4/2 20/7/2 21/9/2
f 2/10/2 17/8/2 21/9/2 3/11/2
f 26/12/3 27/13/3 9/14/3 4/15/3
f 11/16/4 23/17/4 6/18/4
f 27/19/5 24/20/5 1/21/5 9/22/5
f 18/23/6 9/24/6 8/25/6
f 2/26/7 4/27/7 7/28/7
f 22/29/8 10/30/8 5/3/8
f 21/2/9 22/29/9 5/3/9
f 10/30/10 3/1/10 5/3/10
f 20/31/11 28/32/11 6/18/11
f 28/32/12 11/16/12 6/18/12
f 23/17/13 20/31/13 6/18/13
f 12/33/14 16/34/14 17/35/14 13/36/14
f 15/37/15 18/38/15 16/39/15 12/40/15
f 14/41/16 19/42/16 18/43/16 15/44/16
f 24/45/17 25/46/17 2/47/17 1/48/17
f 19/49/18 17/50/18 7/28/18
f 4/27/19 19/49/19 7/28/19
f 17/50/20 2/26/20 7/28/20
f 1/51/21 16/52/21 8/25/21
f 16/52/22 18/23/22 8/25/22
f 9/24/23 1/51/23 8/25/23
f 2/53/2 3/54/2 28/55/2 1/56/2
f 9/57/24 18/58/24 23/59/24 11/60/24
f 19/61/24 4/62/24 10/63/24 22/64/24
f 18/58/24 19/61/24 22/64/24 23/59/24
f 13/65/25 17/66/25 19/67/25 14/68/25
f 12/69/26 13/70/26 21/71/26 20/72/26
f 14/73/26 15/74/26 23/75/26 22/76/26
f 13/70/26 14/73/26 22/76/26 21/71/26
f 15/74/26 12/69/26 20/72/26 23/75/26
f 9/77/24 11/78/24 10/79/24 4/80/24
f 25/81/27 26/82/27 4/83/27 2/84/27
f 24/85/28 28/86/28 3/87/28 25/88/28
f 26/89/28 10/90/28 11/91/28 27/92/28
f 25/88/28 3/87/28 10/90/28 26/89/28
f 27/92/28 11/91/28 28/86/28 24/85/28
g collider
v -2.000000 -1.850417 -1.850000
v -2.000000 1.851581 -1.850000
v -2.000000 2.000000 -2.000000
v 2.000000 1.851581 -1.850000
v 2.000000 -1.850417 -1.850000
v 2.000000 2.000000 -2.000000
v 2.000000 -2.000000 -2.000000
v -1.850000 -1.850417 2.000000
v -1.850000 1.850000 2.000000
v 1.850000 1.850000 2.000000
v 1.850000 -1.850417 2.000000
v -2.000000 -1.850417 1.850000
v -2.000000 1.851581 1.850000
v 2.000000 -1.850417 1.850000
v 2.000000 1.851581 1.850000
v -2.000000 -2.000000 2.000000
v -2.000000 2.000000 2.000000
v 2.000000 2.000000 2.000000
v 2.000000 -2.000000 2.000000
v -1.850000 -1.850000 -2.000000
v -1.850000 1.850000 -2.000000
v 1.850000 1.850000 -2.000000
v 1.850000 -1.850000 -2.000000
v -2.000000 -1.998333 -2.000000
vt 0.316377 0.225110
vt 0.316377 0.013436
vt 0.328344 0.004854
vt 0.328479 0.233692
vt 0.016862 0.225110
vt 0.004854 0.233692
vt 0.016862 0.013436
vt 0.004854 0.004855
vt 0.910067 0.946797
vt 0.910067 0.647444
vt 0.927230 0.647411
vt 0.927230 0.946925
vt 0.328479 0.472238
vt 0.328479 0.795862
vt 0.004854 0.795862
vt 0.004854 0.472238
vt 0.661812 0.661812
vt 0.338188 0.661812
vt 0.338188 0.338188
vt 0.661812 0.338188
vt 0.936939 0.647411
vt 0.954102 0.647411
vt 0.954102 0.946925
vt 0.936939 0.946797
vt 0.910067 0.338316
vt 0.927230 0.338188
vt 0.927230 0.637702
vt 0.910067 0.637702
vt 0.954102 0.338221
vt 0.954102 0.637574
vt 0.936939 0.637702
vt 0.936939 0.338188
vt 0.558444 0.683623
vt 0.346769 0.683623
vt 0.338188 0.671521
vt 0.567025 0.671521
vt 0.346769 0.983138
vt 0.558444 0.983138
vt 0.567025 0.995146
vt 0.338188 0.995146
vt 0.661812 0.016990
vt 0.661812 0.316343
vt 0.649676 0.328479
vt 0.350324 0.328479
vt 0.338188 0.316343
vt 0.338188 0.016990
vt 0.350324 0.004854
vt 0.649676 0.004854
vt 0.316377 0.242273
vt 0.016990 0.242273
vt 0.016990 0.453947
vt 0.316377 0.453947
vt 0.328479 0.462529
vt 0.004855 0.462529
vt 0.671521 0.316343
vt 0.671521 0.016990
vt 0.683657 0.004854
vt 0.983010 0.004854
vt 0.995146 0.016990
vt 0.995146 0.316343
vt 0.983010 0.328479
vt 0.683657 0.328479
vt 0.891777 0.350324
vt 0.900359 0.338323
vt 0.900359 0.661812
vt 0.891777 0.649676
vt 0.680103 0.649676
vt 0.671521 0.661812
vt 0.671521 0.338188
vt 0.680103 0.350324
vn -1.0000 0.0000 0.0000
vn -0.7071 0.0000 0.7071
vn -0.0002 -1.0000 -0.0002
vn 0.0000 1.0000 0.0000
vn 0.7071 0.0000 -0.7071
vn -0.7071 0.0000 -0.7071
vn 0.7071 0.0000 0.7071
vn 1.0000 0.0000 0.0000
vn 0.0000 1.0000 0.0001
vn 0.0000 0.0000 1.0000
vn 0.0000 -1.0000 0.0000
vn 0.0000 0.0000 -1.0000
s off
f 40/93/29 29/94/29 52/95/29 44/96/29
f 41/97/29 40/93/29 44/96/29 45/98/29
f 30/99/29 41/97/29 45/98/29 31/100/29
f 50/101/30 51/102/30 33/103/30 32/104/30
f 47/105/31 44/106/31 52/107/31 35/108/31
f 45/109/32 46/110/32 34/111/32 31/112/32
f 36/113/33 40/114/33 41/115/33 37/116/33
f 38/117/34 43/118/34 42/119/34 39/120/34
f 48/121/35 49/122/35 30/123/35 29/124/35
f 30/99/29 31/100/29 52/95/29 29/94/29
f 33/125/36 42/126/36 47/127/36 35/128/36
f 43/129/36 32/130/36 34/131/36 46/132/36
f 42/126/36 43/129/36 46/132/36 47/127/36
f 42/133/37 33/134/37 51/135/37 48/136/37 29/137/37 40/138/37 36/139/37 39/140/37
f 36/141/38 37/142/38 45/98/38 44/96/38
f 38/143/38 39/144/38 47/145/38 46/146/38
f 37/142/38 38/143/38 46/146/38 45/98/38
f 39/144/38 36/141/38 44/96/38 47/145/38
f 33/125/36 35/128/36 34/131/36 32/130/36
f 32/147/39 43/148/39 38/149/39 37/150/39 41/151/39 30/152/39 49/153/39 50/154/39
f 48/155/40 52/156/40 31/157/40 49/158/40
f 50/159/40 34/160/40 35/161/40 51/162/40
f 49/158/40 31/157/40 34/160/40 50/159/40
f 51/162/40 35/161/40 52/156/40 48/155/40
