# Blender v3.1.2 OBJ File: 'project.blend'
# www.blender.org
mtllib mesh.mtl
o stalagmite_7_Mesh.011
v 0.071369 0.214080 0.017052
v 0.055487 0.570110 0.012457
v 0.071369 0.214080 -0.030380
v 0.055487 0.570110 -0.025784
v 0.040063 0.214080 -0.068753
v 0.030247 0.570110 -0.056722
v -0.010592 0.214080 -0.083411
v -0.010592 0.570110 -0.068539
v -0.061247 0.214080 -0.068753
v -0.051432 0.570110 -0.056722
v -0.092554 0.214080 -0.030380
v -0.076672 0.570110 -0.025784
v -0.092554 0.214080 0.017052
v -0.076672 0.570110 0.012457
v -0.061248 0.214080 0.055426
v -0.051432 0.570110 0.043394
v -0.010592 0.214080 0.070083
v -0.010592 0.570110 0.055212
v 0.040063 0.214080 0.055426
v 0.030247 0.570110 0.043394
v 0.045728 0.748125 0.009633
v 0.030011 1.015147 0.005085
v 0.045728 0.748124 -0.022960
v 0.030011 1.015147 -0.018413
v 0.024216 0.748124 -0.049329
v 0.014502 1.015147 -0.037423
v -0.010592 0.748124 -0.059401
v -0.010592 1.015147 -0.044684
v -0.045400 0.748124 -0.049329
v -0.035687 1.015147 -0.037423
v -0.066913 0.748124 -0.022960
v -0.051196 1.015147 -0.018413
v -0.066913 0.748124 0.009633
v -0.051196 1.015147 0.005085
v -0.045400 0.748124 0.036002
v -0.035687 1.015147 0.024096
v -0.010592 0.748124 0.046074
v -0.010592 1.015147 0.031357
v 0.024216 0.748124 0.036002
v 0.014502 1.015147 0.024096
v 0.019471 1.175768 0.002035
v 0.002379 1.337347 -0.002910
v 0.019471 1.175768 -0.015363
v 0.002379 1.337347 -0.010417
v 0.007988 1.175768 -0.029439
v -0.010592 1.337347 -0.018810
v -0.010592 1.175768 -0.034815
v -0.019896 1.337347 -0.014359
v -0.029173 1.175768 -0.029439
v -0.040656 1.175768 -0.015363
v -0.023564 1.337347 -0.002910
v -0.040656 1.175768 0.002035
v -0.021627 1.337347 0.000476
v -0.029173 1.175768 0.016111
v -0.010592 1.337347 0.005483
v -0.010592 1.175768 0.021487
v -0.002575 1.337347 0.003163
v 0.007988 1.175768 0.016111
v 0.136255 -0.023271 0.035827
v 0.136255 -0.023272 -0.049155
v 0.080164 -0.023272 -0.117907
v -0.010592 -0.023272 -0.144169
v -0.101349 -0.023272 -0.117907
v -0.157440 -0.023272 -0.049155
v -0.157440 -0.023272 0.035827
v -0.101349 -0.023272 0.104580
v -0.010592 -0.023272 0.130841
v 0.080164 -0.023272 0.104580
v -0.013722 1.362381 -0.003894
v -0.006431 1.362381 -0.004922
v -0.014638 1.362381 -0.009043
v -0.008575 1.362381 -0.010797
v 0.019429 -0.023272 0.002023
v -0.040613 -0.023272 -0.015351
v -0.002672 1.338881 -0.019553
v -0.022795 1.338881 -0.010569
v 0.091422 0.047934 0.022855
v 0.052456 0.047933 0.070616
v -0.010592 0.047933 0.088860
v -0.073640 0.047933 0.070616
v -0.112606 0.047934 0.022855
v -0.112606 0.047934 -0.036182
v -0.073640 0.047934 -0.083944
v -0.010592 0.047934 -0.102187
v 0.052456 0.047934 -0.083944
v 0.091422 0.047934 -0.036182
vt 0.590992 0.757305
vt 0.626037 0.664859
vt 0.638003 0.671153
vt 0.600910 0.761420
vt 0.491325 0.735094
vt 0.499495 0.637780
vt 0.513429 0.637672
vt 0.502489 0.736039
vt 0.528388 0.638204
vt 0.514283 0.737376
vt 0.543462 0.639494
vt 0.526033 0.739020
vt 0.557615 0.641532
vt 0.536967 0.740939
vt 0.571034 0.644407
vt 0.547333 0.743208
vt 0.584847 0.648294
vt 0.558036 0.746089
vt 0.599245 0.653247
vt 0.569340 0.749578
vt 0.613260 0.658920
vt 0.580548 0.753382
vt 0.545151 0.874391
vt 0.573165 0.804218
vt 0.581634 0.807778
vt 0.551225 0.877081
vt 0.483028 0.860682
vt 0.487430 0.785134
vt 0.496992 0.785906
vt 0.489938 0.861114
vt 0.507127 0.787060
vt 0.497284 0.861837
vt 0.517214 0.788516
vt 0.504611 0.862812
vt 0.526627 0.790203
vt 0.511456 0.863994
vt 0.535560 0.792190
vt 0.517953 0.865419
vt 0.544795 0.794647
vt 0.524662 0.867221
vt 0.554539 0.797602
vt 0.531724 0.869417
vt 0.564194 0.800856
vt 0.538698 0.871859
vt 0.504548 0.956506
vt 0.527326 0.916503
vt 0.531604 0.918869
vt 0.505864 0.958186
vt 0.486076 0.953641
vt 0.481456 0.906777
vt 0.486574 0.906723
vt 0.488882 0.953027
vt 0.493737 0.951916
vt 0.490955 0.952235
vt 0.492065 0.906898
vt 0.497514 0.907333
vt 0.502614 0.908044
vt 0.494987 0.952288
vt 0.498100 0.952392
vt 0.497089 0.952138
vt 0.507451 0.909067
vt 0.512420 0.910463
vt 0.501075 0.953747
vt 0.517601 0.912261
vt 0.502951 0.955029
vt 0.522681 0.914316
vt 0.664018 0.637123
vt 0.651059 0.626468
vt 0.667723 0.608417
vt 0.683266 0.624508
vt 0.508709 0.592075
vt 0.491444 0.595798
vt 0.478964 0.575768
vt 0.502311 0.569056
vt 0.527891 0.590538
vt 0.526118 0.567953
vt 0.547192 0.591322
vt 0.548593 0.567719
vt 0.565289 0.593484
vt 0.569247 0.568748
vt 0.582455 0.596797
vt 0.588539 0.573230
vt 0.599921 0.602184
vt 0.607611 0.580083
vt 0.618128 0.608872
vt 0.627594 0.588645
vt 0.635599 0.617246
vt 0.648430 0.597215
vt 0.512956 0.151800
vt 0.497177 0.171146
vt 0.471643 0.178538
vt 0.480085 0.142293
vt 0.494949 0.960036
vt 0.495155 0.958377
vt 0.496122 0.958185
vt 0.496808 0.959154
vt 0.497169 0.108547
vt 0.512953 0.127889
vt 0.446107 0.171153
vt 0.463191 0.137407
vt 0.471632 0.101162
vt 0.430323 0.151811
vt 0.430320 0.127901
vt 0.446099 0.108555
vn 0.9382 0.0493 0.3425
vn 0.9367 0.0758 0.3420
vn 0.9367 0.0758 -0.3420
vn 0.9382 0.0493 -0.3425
vn 0.5416 0.0708 -0.8376
vn 0.5424 0.0462 -0.8389
vn -0.0000 0.0682 -0.9977
vn -0.0000 0.0445 -0.9990
vn -0.5416 0.0709 -0.8376
vn -0.5424 0.0462 -0.8389
vn -0.9367 0.0758 -0.3420
vn -0.9382 0.0493 -0.3425
vn -0.9367 0.0758 0.3420
vn -0.9382 0.0493 0.3425
vn -0.5416 0.0708 0.8376
vn -0.5424 0.0462 0.8389
vn 0.0000 0.0682 0.9977
vn -0.0000 0.0445 0.9990
vn 0.5416 0.0708 0.8376
vn 0.5424 0.0462 0.8389
vn 0.9375 0.0631 0.3423
vn 0.9378 0.0591 0.3420
vn 0.9378 0.0591 -0.3421
vn 0.9375 0.0631 -0.3423
vn 0.5425 0.0553 -0.8382
vn 0.5420 0.0591 -0.8383
vn -0.0000 0.0531 -0.9986
vn 0.0000 0.0570 -0.9984
vn -0.5425 0.0553 -0.8382
vn -0.5420 0.0591 -0.8383
vn -0.9378 0.0591 -0.3420
vn -0.9375 0.0631 -0.3423
vn -0.9378 0.0591 0.3420
vn -0.9375 0.0631 0.3423
vn -0.5425 0.0553 0.8382
vn -0.5420 0.0591 0.8383
vn -0.0000 0.0531 0.9986
vn -0.0000 0.0568 0.9984
vn 0.5425 0.0553 0.8382
vn 0.5420 0.0591 0.8383
vn 0.9356 0.1246 0.3303
vn 0.9362 0.0833 0.3416
vn 0.9390 0.0823 -0.3340
vn 0.9307 0.1256 -0.3437
vn 0.5427 0.0763 -0.8364
vn 0.5390 0.1165 -0.8342
vn -0.5687 0.1192 -0.8139
vn -0.0783 0.1143 -0.9904
vn -0.0367 0.0743 -0.9966
vn -0.5418 0.0790 -0.8368
vn -0.9375 0.0835 -0.3379
vn -0.9395 0.1258 -0.3185
vn -0.5532 0.1165 0.8249
vn -0.9595 0.1233 0.2534
vn -0.9430 0.0827 0.3224
vn -0.5401 0.0785 0.8379
vn -0.0477 0.1177 0.9919
vn -0.0184 0.0772 0.9968
vn 0.5306 0.1180 0.8393
vn 0.5416 0.0781 0.8370
vn 0.8898 0.3190 -0.3263
vn 0.8898 0.3190 0.3262
vn 0.7884 0.5475 0.2804
vn 0.7884 0.5475 -0.2804
vn 0.5167 0.2981 -0.8026
vn 0.4712 0.5224 -0.7107
vn 0.0000 0.2872 -0.9579
vn 0.0000 0.5079 -0.8614
vn -0.5167 0.2981 -0.8026
vn -0.4712 0.5224 -0.7107
vn -0.8898 0.3190 -0.3262
vn -0.7884 0.5475 -0.2803
vn -0.8898 0.3190 0.3263
vn -0.7884 0.5475 0.2804
vn -0.5167 0.2981 0.8026
vn -0.4712 0.5224 0.7107
vn -0.0000 0.2872 0.9579
vn -0.0000 0.5079 0.8614
vn 0.5167 0.2981 0.8026
vn 0.4712 0.5224 0.7107
vn 0.0000 -1.0000 0.0000
vn 0.3112 0.5455 -0.7782
vn -0.6589 0.4897 -0.5710
vn -0.2844 0.5190 0.8060
vn 0.6802 0.5237 0.5129
usemtl stalagmite4
s 1
f 2/1/1 1/2/2 3/3/3 4/4/4
f 4/5/4 3/6/3 5/7/5 6/8/6
f 6/8/6 5/7/5 7/9/7 8/10/8
f 8/10/8 7/9/7 9/11/9 10/12/10
f 10/12/10 9/11/9 11/13/11 12/14/12
f 12/14/12 11/13/11 13/15/13 14/16/14
f 14/16/14 13/15/13 15/17/15 16/18/16
f 16/18/16 15/17/15 17/19/17 18/20/18
f 18/20/18 17/19/17 19/21/19 20/22/20
f 20/22/20 19/21/19 1/2/2 2/1/1
f 22/23/21 21/24/22 23/25/23 24/26/24
f 24/27/24 23/28/23 25/29/25 26/30/26
f 26/30/26 25/29/25 27/31/27 28/32/28
f 28/32/28 27/31/27 29/33/29 30/34/30
f 30/34/30 29/33/29 31/35/31 32/36/32
f 32/36/32 31/35/31 33/37/33 34/38/34
f 34/38/34 33/37/33 35/39/35 36/40/36
f 36/40/36 35/39/35 37/41/37 38/42/38
f 38/42/38 37/41/37 39/43/39 40/44/40
f 40/44/40 39/43/39 21/24/22 22/23/21
f 42/45/41 41/46/42 43/47/43 44/48/44
f 44/49/44 43/50/43 45/51/45 75/52/46
f 48/53/47 46/54/48 47/55/49 49/56/50
f 48/53/47 49/56/50 50/57/51 76/58/52
f 53/59/53 51/60/54 52/61/55 54/62/56
f 55/63/57 53/59/53 54/62/56 56/64/58
f 57/65/59 55/63/57 56/64/58 58/66/60
f 57/65/59 58/66/60 41/46/42 42/45/41
f 43/47/43 41/46/42 22/23/21 24/26/24
f 45/51/45 43/50/43 24/27/24 26/30/26
f 47/55/49 45/51/45 26/30/26 28/32/28
f 49/56/50 47/55/49 28/32/28 30/34/30
f 50/57/51 49/56/50 30/34/30 32/36/32
f 52/61/55 50/57/51 32/36/32 34/38/34
f 54/62/56 52/61/55 34/38/34 36/40/36
f 56/64/58 54/62/56 36/40/36 38/42/38
f 58/66/60 56/64/58 38/42/38 40/44/40
f 41/46/42 58/66/60 40/44/40 22/23/21
f 23/25/23 21/24/22 2/1/1 4/4/4
f 25/29/25 23/28/23 4/5/4 6/8/6
f 27/31/27 25/29/25 6/8/6 8/10/8
f 29/33/29 27/31/27 8/10/8 10/12/10
f 31/35/31 29/33/29 10/12/10 12/14/12
f 33/37/33 31/35/31 12/14/12 14/16/14
f 35/39/35 33/37/33 14/16/14 16/18/16
f 37/41/37 35/39/35 16/18/16 18/20/18
f 39/43/39 37/41/37 18/20/18 20/22/20
f 21/24/22 39/43/39 20/22/20 2/1/1
f 86/67/61 77/68/62 59/69/63 60/70/64
f 85/71/65 86/72/61 60/73/64 61/74/66
f 84/75/67 85/71/65 61/74/66 62/76/68
f 83/77/69 84/75/67 62/76/68 63/78/70
f 82/79/71 83/77/69 63/78/70 64/80/72
f 81/81/73 82/79/71 64/80/72 65/82/74
f 80/83/75 81/81/73 65/82/74 66/84/76
f 79/85/77 80/83/75 66/84/76 67/86/78
f 78/87/79 79/85/77 67/86/78 68/88/80
f 77/68/62 78/87/79 68/88/80 59/69/63
f 59/89/81 68/90/81 67/91/81 73/92/81
f 46/54/48 72/93/82 44/49/44 75/52/46
f 48/53/47 71/94/83 72/93/82 46/54/48
f 69/95/84 53/59/53 55/63/57
f 70/96/85 69/95/84 55/63/57 57/65/59
f 42/45/41 70/96/85 57/65/59
f 71/94/83 51/60/54 53/59/53 69/95/84
f 72/93/82 71/94/83 69/95/84 70/96/85
f 44/48/44 72/93/82 70/96/85 42/45/41
f 51/60/54 71/94/83 48/53/47 76/58/52
f 59/89/81 73/92/81 61/97/81 60/98/81
f 73/92/81 67/91/81 66/99/81 74/100/81
f 61/97/81 73/92/81 74/100/81 62/101/81
f 74/100/81 66/99/81 65/102/81 64/103/81
f 62/101/81 74/100/81 64/103/81 63/104/81
f 75/52/46 45/51/45 47/55/49 46/54/48
f 51/60/54 76/58/52 50/57/51 52/61/55
f 1/2/2 19/21/19 78/87/79 77/68/62
f 19/21/19 17/19/17 79/85/77 78/87/79
f 17/19/17 15/17/15 80/83/75 79/85/77
f 15/17/15 13/15/13 81/81/73 80/83/75
f 13/15/13 11/13/11 82/79/71 81/81/73
f 11/13/11 9/11/9 83/77/69 82/79/71
f 9/11/9 7/9/7 84/75/67 83/77/69
f 7/9/7 5/7/5 85/71/65 84/75/67
f 5/7/5 3/6/3 86/72/61 85/71/65
f 3/3/3 1/2/2 77/68/62 86/67/61
