# Blender v2.78 (sub 0) OBJ File: 'fence01.blend'
# www.blender.org
mtllib fence01_pole.mtl
o fence01_pole_Cube.007
v -0.025000 -0.550000 0.025000
v -0.025000 0.550000 0.025000
v -0.025000 -0.550000 -0.025000
v -0.025000 0.550000 -0.025000
v 0.025000 -0.550000 0.025000
v 0.025000 0.550000 0.025000
v 0.025000 -0.550000 -0.025000
v 0.025000 0.550000 -0.025000
vt 0.7964 0.0928
vt 0.7964 0.9541
vt 0.8628 0.9541
vt 0.8628 0.0928
vt 0.8970 0.9541
vt 0.8970 0.0928
vt 0.9639 0.9541
vt 0.9639 0.0928
vt 0.9976 0.9541
vt 0.9976 0.0928
vt 0.8970 0.0503
vt 0.8628 0.0503
vt 0.9639 0.9971
vt 0.9976 0.9971
vn -1.0000 0.0000 0.0000
vn 0.0000 0.0000 -1.0000
vn 1.0000 0.0000 0.0000
vn 0.0000 0.0000 1.0000
vn 0.0000 -1.0000 0.0000
vn 0.0000 1.0000 0.0000
usemtl Material
s off
f 1/1/1 2/2/1 4/3/1 3/4/1
f 3/4/2 4/3/2 8/5/2 7/6/2
f 7/6/3 8/5/3 6/7/3 5/8/3
f 5/8/4 6/7/4 2/9/4 1/10/4
f 3/4/5 7/6/5 5/11/5 1/12/5
f 8/13/6 4/14/6 2/9/6 6/7/6
