# Blender v2.80 (sub 39) OBJ File: 'industrial_set.blend'
# www.blender.org
g mesh
v 4.000000 -1.850000 -0.150000
v 4.000000 1.843003 -0.150000
v 4.000000 1.843003 -3.850000
v 4.000000 -1.850000 -3.850000
v 4.000000 1.993003 -4.000000
v 4.000000 -2.000000 -4.000000
v 4.000000 -2.000000 0.000000
v 4.000000 1.993003 0.000000
v 3.280546 -1.850000 -0.084359
v 3.280546 1.843003 -0.084359
v 2.638048 1.843003 -3.728148
v 2.638048 -1.850000 -3.728148
v 2.612000 1.993003 -3.875869
v 2.612000 -2.000000 -3.875869
v 3.306593 -2.000000 0.063362
v 3.306593 1.993003 0.063362
v 2.583420 -1.850000 0.105216
v 2.583420 1.843003 0.105216
v 1.317946 1.843003 -3.371646
v 1.317946 -1.850000 -3.371646
v 1.266643 1.993003 -3.512600
v 1.266643 -2.000000 -3.512600
v 2.634723 -2.000000 0.246170
v 2.634723 1.993003 0.246170
v 1.929805 -1.850000 0.412966
v 1.929805 1.843003 0.412966
v 0.079805 1.843003 -2.791328
v 0.079805 -1.850000 -2.791328
v 0.004805 1.993003 -2.921231
v 0.004805 -2.000000 -2.921231
v 2.004805 -2.000000 0.542870
v 2.004805 1.993003 0.542870
v 1.339560 -1.850000 0.829540
v 1.339560 1.843003 0.829540
v -1.038754 1.843003 -2.004824
v -1.038754 -1.850000 -2.004824
v -1.135172 1.993003 -2.119731
v -1.135172 -2.000000 -2.119731
v 1.435978 -2.000000 0.944446
v 1.435978 1.993003 0.944446
v 0.830619 -1.850000 1.342280
v 0.830619 1.843003 1.342280
v -2.003746 1.843003 -1.036034
v -2.003746 -1.850000 -1.036034
v -2.118652 1.993003 -1.132452
v -2.118652 -2.000000 -1.132452
v 0.945526 -2.000000 1.438698
v 0.945526 1.993003 1.438698
v 0.418446 -1.850000 1.935607
v 0.418446 1.843003 1.935607
v -2.785848 1.843003 0.085607
v -2.785848 -1.850000 0.085607
v -2.915751 1.993003 0.010607
v -2.915751 -2.000000 0.010607
v 0.548350 -2.000000 2.010606
v 0.548350 1.993003 2.010606
v 0.115566 -1.850000 2.591493
v 0.115566 1.843003 2.591493
v -3.361297 1.843003 1.326018
v -3.361297 -1.850000 1.326018
v -3.502250 1.993003 1.274715
v -3.502250 -2.000000 1.274715
v 0.256520 -2.000000 2.642796
v 0.256520 1.993003 2.642796
v -0.068820 -1.850000 3.290009
v -0.068820 1.843003 3.290009
v -3.712608 1.843003 2.647511
v -3.712608 -1.850000 2.647511
v -3.860329 1.993003 2.621464
v -3.860329 -2.000000 2.621464
v 0.078902 -2.000000 3.316055
v 0.078902 1.993003 3.316055
v -0.129108 -1.850000 4.009931
v -0.129108 1.843003 4.009931
v -3.829108 1.843003 4.009931
v -3.829108 -1.850000 4.009931
v -3.979107 1.993003 4.009932
v -3.979107 -2.000000 4.009932
v 0.020892 -2.000000 4.009931
v 0.020892 1.993003 4.009931
vt 0.626370 0.001459
vt 0.754821 0.129156
vt 0.731936 0.156068
vt 0.582965 0.052321
vt 0.001478 0.554162
vt 0.173958 0.554162
vt 0.173958 0.620887
vt 0.001478 0.620887
vt 0.334611 0.806162
vt 0.176915 0.806162
vt 0.176915 0.739668
vt 0.334611 0.739668
vt 0.511119 0.413174
vt 0.372273 0.551245
vt 0.328029 0.499418
vt 0.489063 0.387236
vt 0.173958 0.688652
vt 0.001478 0.688652
vt 0.293578 0.440797
vt 0.471906 0.357913
vt 0.176915 0.674193
vt 0.334611 0.674193
vt 0.885233 0.543847
vt 0.920834 0.543847
vt 0.920835 0.699456
vt 0.885233 0.699456
vt 0.850166 0.872572
vt 0.850166 0.702374
vt 0.884479 0.702374
vt 0.884479 0.872572
vt 0.115974 0.001459
vt 0.254820 0.139529
vt 0.232764 0.165467
vt 0.071730 0.053286
vt 0.998522 0.413232
vt 0.870071 0.540929
vt 0.826666 0.490067
vt 0.975637 0.386320
vt 0.850166 0.699456
vt 0.850166 0.543847
vt 0.955890 0.543847
vt 0.955890 0.699456
vt 0.215607 0.194790
vt 0.203872 0.226608
vt 0.013666 0.175540
vt 0.037279 0.111906
vt 0.918256 0.702374
vt 0.950470 0.702374
vt 0.950470 0.872572
vt 0.918256 0.872572
vt 0.792871 0.432541
vt 0.769713 0.370097
vt 0.945660 0.322884
vt 0.957836 0.355896
vt 0.714135 0.186492
vt 0.549170 0.109847
vt 0.510048 0.750830
vt 0.510048 0.780169
vt 0.337568 0.780169
vt 0.337568 0.750830
vt 0.757895 0.304634
vt 0.939477 0.288286
vt 0.701958 0.219505
vt 0.695776 0.254102
vt 0.514194 0.237754
vt 0.526012 0.172291
vt 0.173958 0.755398
vt 0.173958 0.819097
vt 0.001478 0.819097
vt 0.001478 0.755398
vt 0.176915 0.611725
vt 0.334611 0.611725
vt 0.269965 0.377164
vt 0.460171 0.326096
vt 0.695776 0.289233
vt 0.514076 0.304247
vt 0.686556 0.543847
vt 0.686556 0.605237
vt 0.514076 0.605237
vt 0.514076 0.543847
vt 0.257910 0.310451
vt 0.257777 0.242686
vt 0.454212 0.258891
vt 0.454212 0.292751
vt 0.689513 0.866274
vt 0.689513 0.803812
vt 0.847209 0.803812
vt 0.847209 0.866274
vt 0.197913 0.259953
vt 0.001611 0.242252
vt 0.989334 0.543847
vt 0.989334 0.699456
vt 0.176915 0.554162
vt 0.334611 0.554162
vt 0.269572 0.175928
vt 0.460171 0.225546
vt 0.689513 0.738340
vt 0.847209 0.738340
vt 0.176915 0.946942
vt 0.176915 0.913000
vt 0.334611 0.913000
vt 0.334611 0.946942
vt 0.197913 0.293812
vt 0.203872 0.327157
vt 0.013273 0.376775
vt 0.001478 0.310017
vt 0.757777 0.238141
vt 0.939477 0.253155
vt 0.510048 0.811997
vt 0.337568 0.811997
vt 0.176915 0.978794
vt 0.334611 0.978794
vt 0.176915 0.878000
vt 0.334611 0.878000
vt 0.215608 0.358975
vt 0.036636 0.440498
vt 0.510048 0.845348
vt 0.510048 0.879207
vt 0.337568 0.879207
vt 0.337568 0.845348
vt 0.769362 0.172637
vt 0.792298 0.110114
vt 0.957836 0.185546
vt 0.945660 0.218558
vt 0.686556 0.670677
vt 0.514076 0.670677
vt 0.701958 0.323830
vt 0.525661 0.369751
vt 0.825888 0.052471
vt 0.975637 0.155122
vt 0.714135 0.356842
vt 0.731936 0.387266
vt 0.582187 0.489917
vt 0.548597 0.432274
vt 0.686556 0.738179
vt 0.686556 0.805692
vt 0.514076 0.805692
vt 0.514076 0.738179
vt 0.292935 0.112205
vt 0.327157 0.053454
vt 0.489063 0.164406
vt 0.471906 0.193729
vt 0.689513 0.671846
vt 0.847209 0.671846
vt 0.754820 0.414178
vt 0.625411 0.540929
vt 0.686556 0.871163
vt 0.514076 0.871163
vt 0.371198 0.001459
vt 0.511119 0.138468
vt 0.689513 0.606352
vt 0.689513 0.543847
vt 0.847209 0.543847
vt 0.847209 0.606352
vt 0.510048 0.912547
vt 0.337568 0.912547
vt 0.232764 0.388298
vt 0.070858 0.499250
vt 0.176915 0.843005
vt 0.334611 0.843005
vt 0.344960 0.561428
vt 0.337568 0.554162
vt 0.510048 0.554162
vt 0.502656 0.561428
vt 0.510048 0.747912
vt 0.502656 0.740646
vt 0.344960 0.740646
vt 0.337568 0.747912
vt 0.869112 0.001459
vt 0.998522 0.128210
vt 0.510048 0.944353
vt 0.337568 0.944353
vt 0.254821 0.414236
vt 0.114899 0.551245
vt 0.176915 0.809080
vt 0.334611 0.809080
vt 0.001478 0.998541
vt 0.008870 0.991921
vt 0.166566 0.991921
vt 0.173959 0.998541
vt 0.008870 0.828635
vt 0.001478 0.822015
vt 0.166566 0.828635
vt 0.173958 0.822015
vn 0.0000 -1.0000 -0.0000
vn -0.0891 0.0000 -0.9960
vn 0.0891 0.0000 0.9960
vn 0.0000 1.0000 -0.0000
vn -0.2607 0.0000 -0.9654
vn 0.2607 0.0000 0.9654
vn -0.2624 0.0000 -0.9650
vn 0.0910 0.0000 0.9959
vn -0.0909 0.0000 -0.9959
vn -0.4260 0.0000 -0.9047
vn 0.4261 0.0000 0.9047
vn 0.2625 0.0000 0.9649
vn 0.5767 0.0000 0.8169
vn -0.5752 0.0000 -0.8180
vn 0.4244 0.0000 0.9055
vn -0.4244 0.0000 -0.9055
vn -0.7085 0.0000 -0.7057
vn 0.7085 0.0000 0.7057
vn -0.5766 0.0000 -0.8170
vn 0.5752 0.0000 0.8180
vn 0.8203 0.0000 0.5720
vn -0.8213 0.0000 -0.5705
vn 0.7098 0.0000 0.7044
vn -0.7097 0.0000 -0.7045
vn -0.9079 0.0000 -0.4192
vn 0.9079 0.0000 0.4191
vn -0.8203 0.0000 -0.5720
vn 0.8214 0.0000 0.5704
vn -0.9664 0.0000 -0.2570
vn 0.9071 0.0000 0.4208
vn -0.9071 0.0000 -0.4209
vn -0.9964 0.0000 -0.0852
vn 0.9964 0.0000 0.0852
vn 0.9669 0.0000 0.2551
vn -0.9669 0.0000 -0.2552
vn 0.9664 0.0000 0.2569
vn 0.0000 0.0000 1.0000
vn 0.9965 0.0000 0.0833
vn -0.9965 0.0000 -0.0835
vn 1.0000 0.0000 0.0000
s off
f 3/1/1 2/2/1 10/3/1 11/4/1
f 5/5/2 6/6/2 14/7/2 13/8/2
f 4/9/3 3/10/3 11/11/3 12/12/3
f 8/13/4 5/14/4 13/15/4 16/16/4
f 14/7/5 22/17/5 21/18/5 13/8/5
f 13/15/4 21/19/4 24/20/4 16/16/4
f 11/11/6 19/21/6 20/22/6 12/12/6
f 9/23/7 17/24/7 18/25/7 10/26/7
f 7/27/8 8/28/8 16/29/8 15/30/8
f 6/31/1 7/32/1 15/33/1 14/34/1
f 1/35/4 4/36/4 12/37/4 9/38/4
f 2/39/9 1/40/9 9/23/9 10/26/9
f 17/24/10 25/41/10 26/42/10 18/25/10
f 23/43/1 31/44/1 30/45/1 22/46/1
f 24/47/11 32/48/11 31/49/11 23/50/11
f 20/51/4 28/52/4 25/53/4 17/54/4
f 10/3/1 18/55/1 19/56/1 11/4/1
f 12/37/4 20/51/4 17/54/4 9/38/4
f 16/29/12 24/47/12 23/50/12 15/30/12
f 15/33/1 23/43/1 22/46/1 14/34/1
f 32/57/13 40/58/13 39/59/13 31/60/13
f 28/52/4 36/61/4 33/62/4 25/53/4
f 26/63/1 34/64/1 35/65/1 27/66/1
f 30/67/14 38/68/14 37/69/14 29/70/14
f 19/21/15 27/71/15 28/72/15 20/22/15
f 21/19/4 29/73/4 32/74/4 24/20/4
f 22/17/16 30/67/16 29/70/16 21/18/16
f 18/55/1 26/63/1 27/66/1 19/56/1
f 34/64/1 42/75/1 43/76/1 35/65/1
f 38/77/17 46/78/17 45/79/17 37/80/17
f 37/81/4 45/82/4 48/83/4 40/84/4
f 35/85/18 43/86/18 44/87/18 36/88/18
f 31/44/1 39/89/1 38/90/1 30/45/1
f 25/41/19 33/91/19 34/92/19 26/42/19
f 27/71/20 35/93/20 36/94/20 28/72/20
f 29/73/4 37/81/4 40/84/4 32/74/4
f 45/82/4 53/95/4 56/96/4 48/83/4
f 43/86/21 51/97/21 52/98/21 44/87/21
f 41/99/22 49/100/22 50/101/22 42/102/22
f 47/103/1 55/104/1 54/105/1 46/106/1
f 36/61/4 44/107/4 41/108/4 33/62/4
f 40/58/23 48/109/23 47/110/23 39/59/23
f 39/89/1 47/103/1 46/106/1 38/90/1
f 33/111/24 41/99/24 42/102/24 34/112/24
f 49/100/25 57/113/25 58/114/25 50/101/25
f 55/104/1 63/115/1 62/116/1 54/105/1
f 56/117/26 64/118/26 63/119/26 55/120/26
f 52/121/4 60/122/4 57/123/4 49/124/4
f 46/78/27 54/125/27 53/126/27 45/79/27
f 42/75/1 50/127/1 51/128/1 43/76/1
f 44/107/4 52/121/4 49/124/4 41/108/4
f 48/109/28 56/117/28 55/120/28 47/110/28
f 60/122/4 68/129/4 65/130/4 57/123/4
f 58/131/1 66/132/1 67/133/1 59/134/1
f 62/135/29 70/136/29 69/137/29 61/138/29
f 61/139/4 69/140/4 72/141/4 64/142/4
f 51/97/30 59/143/30 60/144/30 52/98/30
f 53/95/4 61/139/4 64/142/4 56/96/4
f 54/125/31 62/135/31 61/138/31 53/126/31
f 50/127/1 58/131/1 59/134/1 51/128/1
f 66/132/1 74/145/1 75/146/1 67/133/1
f 70/136/32 78/147/32 77/148/32 69/137/32
f 69/140/4 77/149/4 80/150/4 72/141/4
f 67/151/33 75/152/33 76/153/33 68/154/33
f 64/118/34 72/155/34 71/156/34 63/119/34
f 63/115/1 71/157/1 70/158/1 62/116/1
f 57/113/35 65/159/35 66/160/35 58/114/35
f 59/143/36 67/151/36 68/154/36 60/144/36
f 75/161/37 77/162/37 78/163/37 76/164/37
f 76/164/37 78/163/37 79/165/37 73/166/37
f 74/167/37 80/168/37 77/162/37 75/161/37
f 73/166/37 79/165/37 80/168/37 74/167/37
f 68/129/4 76/169/4 73/170/4 65/130/4
f 72/155/38 80/171/38 79/172/38 71/156/38
f 71/157/1 79/173/1 78/174/1 70/158/1
f 65/159/39 73/175/39 74/176/39 66/160/39
f 5/177/40 3/178/40 4/179/40 6/180/40
f 2/181/40 3/178/40 5/177/40 8/182/40
f 1/183/40 2/181/40 8/182/40 7/184/40
f 6/180/40 4/179/40 1/183/40 7/184/40
g collider
v 4.000000 -1.850000 -0.150000
v 4.000000 1.843003 -0.150000
v 4.000000 1.843003 -3.850000
v 4.000000 -1.850000 -3.850000
v 4.000000 1.993003 -4.000000
v 4.000000 -2.000000 -4.000000
v 4.000000 -2.000000 0.000000
v 4.000000 1.993003 0.000000
v 2.931983 -1.850000 0.010429
v 2.931983 1.843003 0.010429
v 1.977997 1.843003 -3.549897
v 1.977997 -1.850000 -3.549897
v 1.939322 1.993003 -3.694234
v 1.939322 -2.000000 -3.694234
v 2.634723 -2.000000 0.246170
v 2.634723 1.993003 0.246170
v 1.634682 -1.850000 0.621253
v 1.634682 1.843003 0.621253
v -0.479475 1.843003 -2.398076
v -0.479475 -1.850000 -2.398076
v -0.565184 1.993003 -2.520481
v -0.565184 -2.000000 -2.520481
v 1.190752 -2.000000 1.191572
v 1.190752 1.993003 1.191572
v 0.624533 -1.850000 1.638943
v 0.624533 1.843003 1.638943
v -2.394796 1.843003 -0.475214
v -2.394796 -1.850000 -0.475214
v -2.517201 1.993003 -0.560923
v -2.517201 -2.000000 -0.560923
v 0.023373 -1.850000 2.940751
v 0.023373 1.843003 2.940751
v -3.536953 1.843003 1.986765
v -3.536953 -1.850000 1.986765
v -3.681290 1.993003 1.948090
v -3.681290 -2.000000 1.948090
v 0.256520 -2.000000 2.642796
v 0.256520 1.993003 2.642796
v -0.129108 -1.850000 4.009931
v -0.129108 1.843003 4.009931
v -3.829108 1.843003 4.009931
v -3.829108 -1.850000 4.009931
v -3.979107 1.993003 4.009932
v -3.979107 -2.000000 4.009932
v 0.020892 -2.000000 4.009931
v 0.020892 1.993003 4.009931
vt 0.568727 0.001334
vt 0.688726 0.118126
vt 0.659032 0.156652
vt 0.512392 0.074159
vt 0.469233 0.497400
vt 0.653061 0.497400
vt 0.653061 0.585611
vt 0.469233 0.585611
vt 0.825840 0.818409
vt 0.655823 0.818409
vt 0.655823 0.730996
vt 0.825840 0.730996
vt 0.466471 0.377888
vt 0.336760 0.504166
vt 0.279335 0.429959
vt 0.429838 0.327346
vt 0.969044 0.669901
vt 0.969044 0.847490
vt 0.907120 0.847490
vt 0.907120 0.669901
vt 0.102834 0.001334
vt 0.232545 0.127613
vt 0.195912 0.178154
vt 0.045409 0.075542
vt 0.910981 0.377940
vt 0.790982 0.494732
vt 0.734647 0.421907
vt 0.881287 0.339414
vt 0.828602 0.497400
vt 0.998619 0.497400
vt 0.998619 0.543157
vt 0.828602 0.543157
vt 0.998619 0.606920
vt 0.828602 0.606920
vt 0.179382 0.253236
vt 0.001627 0.191056
vt 0.828602 0.847490
vt 0.828602 0.669901
vt 0.691707 0.308553
vt 0.858709 0.279487
vt 0.655823 0.610300
vt 0.825840 0.610300
vt 0.235553 0.314445
vt 0.413308 0.252265
vt 0.653061 0.708600
vt 0.469233 0.708600
vt 0.636454 0.216579
vt 0.469452 0.187513
vt 0.636454 0.280352
vt 0.469233 0.308218
vt 0.653061 0.825011
vt 0.469233 0.825011
vt 0.235307 0.191432
vt 0.655823 0.497400
vt 0.825840 0.497400
vt 0.691488 0.187848
vt 0.858709 0.215714
vt 0.001381 0.314069
vt 0.998619 0.667232
vt 0.828602 0.667232
vt 0.469233 0.827679
vt 0.534558 0.827679
vt 0.534558 0.991925
vt 0.469233 0.991925
vt 0.195912 0.328317
vt 0.044701 0.429745
vt 0.788211 0.998666
vt 0.719244 0.998666
vt 0.719244 0.821077
vt 0.788211 0.821077
vt 0.734016 0.074350
vt 0.881287 0.155787
vt 0.187971 0.709373
vt 0.187971 0.597371
vt 0.357988 0.597371
vt 0.357988 0.709373
vt 0.278627 0.075756
vt 0.429838 0.177184
vt 0.185209 0.506835
vt 0.185209 0.628533
vt 0.001381 0.628533
vt 0.001381 0.506835
vt 0.659032 0.340279
vt 0.511761 0.421717
vt 0.688726 0.378806
vt 0.567831 0.494732
vt 0.185209 0.720218
vt 0.001381 0.720218
vt 0.335756 0.001334
vt 0.466471 0.126642
vt 0.187971 0.506835
vt 0.357988 0.506835
vt 0.162803 0.729558
vt 0.169092 0.722887
vt 0.169092 0.900476
vt 0.162803 0.893804
vt 0.001381 0.900476
vt 0.007670 0.893804
vt 0.007670 0.729558
vt 0.001381 0.722887
vt 0.790086 0.001334
vt 0.910981 0.117260
vt 0.655823 0.998666
vt 0.655823 0.821077
vt 0.232545 0.378858
vt 0.101830 0.504166
vt 0.583747 0.827679
vt 0.583747 0.991925
vt 0.187971 0.889699
vt 0.194877 0.883036
vt 0.364894 0.883036
vt 0.371799 0.889699
vt 0.194877 0.718704
vt 0.187971 0.712042
vt 0.364894 0.718704
vt 0.371799 0.712042
vn 0.0000 -1.0000 -0.0000
vn -0.1468 0.0000 -0.9892
vn 0.1468 0.0000 0.9892
vn 0.0000 1.0000 0.0000
vn 0.1774 0.0000 0.9841
vn -0.1485 0.0000 -0.9889
vn -0.4260 0.0000 -0.9047
vn 0.5478 0.0000 0.8366
vn 0.4244 0.0000 0.9055
vn -0.4244 0.0000 -0.9055
vn -0.7085 0.0000 -0.7057
vn 0.7085 0.0000 0.7057
vn -0.7097 0.0000 -0.7045
vn -0.9079 0.0000 -0.4192
vn 0.8408 0.0000 0.5413
vn 0.9071 0.0000 0.4208
vn -0.9071 0.0000 -0.4209
vn -0.9897 0.0000 -0.1430
vn 0.9897 0.0000 0.1429
vn 0.0000 0.0000 1.0000
vn 0.9855 0.0000 0.1698
vn -0.9900 0.0000 -0.1412
vn 1.0000 0.0000 0.0000
s off
f 83/185/41 82/186/41 90/187/41 91/188/41
f 85/189/42 86/190/42 94/191/42 93/192/42
f 84/193/43 83/194/43 91/195/43 92/196/43
f 88/197/44 85/198/44 93/199/44 96/200/44
f 87/201/45 88/202/45 96/203/45 95/204/45
f 86/205/41 87/206/41 95/207/41 94/208/41
f 81/209/44 84/210/44 92/211/44 89/212/44
f 82/213/46 81/214/46 89/215/46 90/216/46
f 89/215/47 97/217/47 98/218/47 90/216/47
f 95/207/41 103/219/41 102/220/41 94/208/41
f 96/203/48 104/221/48 103/222/48 95/204/48
f 92/211/44 100/223/44 97/224/44 89/212/44
f 91/195/49 99/225/49 100/226/49 92/196/49
f 93/199/44 101/227/44 104/228/44 96/200/44
f 94/191/50 102/229/50 101/230/50 93/192/50
f 90/187/41 98/231/41 99/232/41 91/188/41
f 98/231/41 106/233/41 107/234/41 99/232/41
f 102/229/51 110/235/51 109/236/51 101/230/51
f 101/227/44 109/237/44 104/228/44
f 99/225/52 107/238/52 108/239/52 100/226/52
f 100/223/44 108/240/44 105/241/44 97/224/44
f 103/219/41 110/242/41 102/220/41
f 97/217/53 105/243/53 106/244/53 98/218/53
f 105/245/54 111/246/54 112/247/54 106/248/54
f 103/219/41 117/249/41 116/250/41 110/242/41
f 104/251/55 118/252/55 117/253/55 103/254/55
f 108/240/44 114/255/44 111/256/44 105/241/44
f 107/257/56 113/258/56 114/259/56 108/260/56
f 109/237/44 115/261/44 118/262/44 104/228/44
f 110/263/57 116/264/57 115/265/57 109/266/57
f 106/233/41 112/267/41 113/268/41 107/234/41
f 112/267/41 120/269/41 121/270/41 113/268/41
f 116/264/58 124/271/58 123/272/58 115/265/58
f 115/261/44 123/273/44 126/274/44 118/262/44
f 113/258/59 121/275/59 122/276/59 114/259/59
f 121/277/60 123/278/60 124/279/60 122/280/60
f 122/280/60 124/279/60 125/281/60 119/282/60
f 120/283/60 126/284/60 123/278/60 121/277/60
f 119/282/60 125/281/60 126/284/60 120/283/60
f 114/255/44 122/285/44 119/286/44 111/256/44
f 118/252/61 126/287/61 125/288/61 117/253/61
f 117/249/41 125/289/41 124/290/41 116/250/41
f 111/246/62 119/291/62 120/292/62 112/247/62
f 85/293/63 83/294/63 84/295/63 86/296/63
f 82/297/63 83/294/63 85/293/63 88/298/63
f 81/299/63 82/297/63 88/298/63 87/300/63
f 86/296/63 84/295/63 81/299/63 87/300/63
