# Blender v2.78 (sub 0) OBJ File: 'boiler_set.blend'
# www.blender.org
mtllib mesh.mtl
o valve_obj.013
v 0.016890 0.180527 -0.084912
v 0.005670 0.172947 -0.028503
v -0.028503 0.172947 -0.005670
v -0.016890 0.180527 0.084912
v -0.005670 0.172947 0.028503
v 0.028503 0.172947 0.005670
v 0.028503 0.172947 -0.005670
v 0.084912 0.180527 -0.016890
v -0.005670 0.172947 -0.028503
v -0.016890 0.180527 -0.084912
v -0.028503 0.172947 0.005670
v -0.084912 0.180527 0.016890
v 0.005670 0.172947 0.028503
v 0.016890 0.180527 0.084912
v -0.084912 0.180527 -0.016890
v 0.084912 0.180527 0.016890
v 0.081553 0.152047 -0.033780
v 0.033780 0.152047 -0.081553
v 0.038268 0.152047 -0.092388
v 0.092388 0.152047 -0.038268
v 0.084912 0.152047 -0.016890
v 0.016890 0.152047 -0.084912
v 0.000000 0.152047 -0.100000
v -0.033780 0.152047 -0.081553
v -0.081553 0.152047 -0.033780
v -0.092388 0.152047 -0.038268
v -0.038268 0.152047 -0.092388
v -0.016890 0.152047 -0.084912
v -0.084912 0.152047 -0.016890
v -0.100000 0.152047 0.000000
v 0.100000 0.152047 0.000000
v 0.092388 0.180527 -0.038268
v 0.100000 0.180527 0.000000
v 0.038268 0.180527 -0.092388
v 0.000000 0.180527 -0.100000
v -0.038268 0.180527 -0.092388
v -0.092388 0.180527 -0.038268
v -0.100000 0.180527 0.000000
v -0.092388 0.152047 0.038268
v -0.092388 0.180527 0.038268
v 0.092388 0.180527 0.038268
v 0.092388 0.152047 0.038268
v 0.081553 0.180527 -0.033780
v 0.033780 0.180527 -0.081553
v -0.033780 0.180527 -0.081553
v -0.081553 0.180527 -0.033780
v -0.068439 0.085316 -0.028348
v -0.028348 0.085316 -0.068439
v -0.028348 0.000000 -0.068439
v -0.068439 0.000000 -0.028348
v -0.068439 0.085316 0.028348
v -0.062082 0.095085 0.025715
v -0.062082 0.095085 -0.025715
v -0.025715 0.095085 -0.062082
v 0.028348 0.085316 -0.068439
v 0.028348 0.000000 -0.068439
v 0.025715 0.095085 -0.062082
v 0.068439 0.085316 -0.028348
v 0.068439 0.000000 -0.028348
v 0.062082 0.095085 -0.025715
v 0.068439 0.085316 0.028348
v 0.068439 0.000000 0.028348
v -0.068439 0.000000 0.028348
v 0.027376 0.095085 -0.011339
v 0.011339 0.095085 -0.027376
v 0.005670 0.152047 -0.028503
v 0.028503 0.152047 -0.005670
v -0.011339 0.095085 -0.027376
v -0.005670 0.152047 -0.028503
v -0.027376 0.095085 -0.011339
v -0.028503 0.152047 -0.005670
v -0.027376 0.095085 0.011339
v -0.028503 0.152047 0.005670
v -0.084912 0.152047 0.016890
v 0.028503 0.152047 0.005670
v 0.027376 0.095085 0.011339
v 0.084912 0.152047 0.016890
v 0.081553 0.152047 0.033780
v 0.033780 0.152047 0.081553
v 0.033780 0.180527 0.081553
v 0.081553 0.180527 0.033780
v 0.016890 0.152047 0.084912
v -0.033780 0.152047 0.081553
v -0.081553 0.152047 0.033780
v -0.081553 0.180527 0.033780
v -0.033780 0.180527 0.081553
v -0.016890 0.152047 0.084912
v 0.038268 0.152047 0.092388
v 0.000000 0.152047 0.100000
v -0.038268 0.152047 0.092388
v 0.038268 0.180527 0.092388
v 0.000000 0.180527 0.100000
v -0.038268 0.180527 0.092388
v -0.028348 0.085316 0.068439
v -0.025715 0.095085 0.062082
v 0.028348 0.085316 0.068439
v 0.025715 0.095085 0.062082
v 0.062082 0.095085 0.025715
v -0.028348 0.000000 0.068439
v 0.028348 0.000000 0.068439
v 0.011339 0.095085 0.027376
v -0.011339 0.095085 0.027376
v -0.005670 0.152047 0.028503
v 0.005670 0.152047 0.028503
vt 0.6928 0.3559
vt 0.6818 0.4991
vt 0.6571 0.5009
vt 0.6709 0.3499
vt 0.7051 0.3191
vt 0.6868 0.5405
vt 0.6589 0.5901
vt 0.4947 0.3613
vt 0.4837 0.5045
vt 0.4589 0.5063
vt 0.4727 0.3553
vt 0.4906 0.2732
vt 0.5070 0.3246
vt 0.4886 0.5459
vt 0.4608 0.5955
vt 0.6887 0.2678
vt 0.6127 0.3457
vt 0.6173 0.2579
vt 0.5984 0.5004
vt 0.5867 0.5833
vt 0.4145 0.3511
vt 0.4192 0.2633
vt 0.4003 0.5058
vt 0.3885 0.5888
vt 0.8053 0.6285
vt 0.7882 0.7112
vt 0.7301 0.7075
vt 0.7333 0.6193
vt 0.3824 0.9489
vt 0.3953 0.8656
vt 0.4540 0.8665
vt 0.4552 0.9563
vt 0.3785 0.5009
vt 0.3895 0.3512
vt 0.5876 0.3458
vt 0.5766 0.4955
vt 0.5138 0.4846
vt 0.5257 0.3435
vt 0.5672 0.5329
vt 0.5067 0.5212
vt 0.3157 0.4900
vt 0.3275 0.3489
vt 0.5388 0.6083
vt 0.3691 0.5383
vt 0.3086 0.5266
vt 0.1079 0.9951
vt 0.1079 0.8713
vt 0.2946 0.8713
vt 0.2946 0.9951
vt 0.1079 0.0049
vt 0.1079 0.1287
vt 0.0824 0.1229
vt 0.0824 0.0107
vt 0.0824 0.9893
vt 0.0824 0.8771
vt 0.1079 0.7475
vt 0.2946 0.7475
vt 0.0824 0.8656
vt 0.0824 0.7533
vt 0.1079 0.6238
vt 0.2946 0.6238
vt 0.0824 0.7418
vt 0.0824 0.6295
vt 0.1079 0.5000
vt 0.2946 0.5000
vt 0.2946 0.0049
vt 0.2946 0.1287
vt 0.8491 0.6820
vt 0.8511 0.6325
vt 0.9760 0.6272
vt 0.9731 0.6976
vt 0.0067 0.7104
vt 0.0067 0.6609
vt 0.8539 0.5831
vt 0.9774 0.6025
vt 0.0067 0.8342
vt 0.0067 0.7847
vt 0.8525 0.9789
vt 0.8501 0.9295
vt 0.9739 0.9128
vt 0.9774 0.9832
vt 0.0067 0.9580
vt 0.0067 0.9084
vt 0.8484 0.8800
vt 0.9731 0.8881
vt 0.8727 0.2687
vt 0.8474 0.2119
vt 0.9689 0.1760
vt 0.9874 0.2176
vt 0.8177 0.4227
vt 0.8675 0.4726
vt 0.8352 0.5048
vt 0.7854 0.4550
vt 0.8406 0.1384
vt 0.8549 0.0779
vt 0.9771 0.1069
vt 0.9666 0.1513
vt 0.3271 0.3117
vt 0.3887 0.3111
vt 0.8856 0.0109
vt 0.9874 0.0844
vt 0.7051 0.6233
vt 0.8675 0.3481
vt 0.8177 0.3980
vt 0.7854 0.3657
vt 0.8352 0.3158
vt 0.8312 0.0917
vt 0.8209 0.1142
vt 0.6987 0.0852
vt 0.7294 0.0181
vt 0.7164 0.2759
vt 0.6912 0.2191
vt 0.8126 0.1832
vt 0.8312 0.2249
vt 0.5070 0.6288
vt 0.6342 0.1110
vt 0.6237 0.1554
vt 0.4977 0.1425
vt 0.5121 0.0821
vt 0.9724 0.7224
vt 0.8478 0.7315
vt 0.5253 0.3063
vt 0.5868 0.3056
vt 0.5427 0.0150
vt 0.6445 0.0885
vt 0.3110 0.8510
vt 0.3226 0.7083
vt 0.3845 0.7120
vt 0.3737 0.8605
vt 0.3634 0.8978
vt 0.3045 0.8856
vt 0.3227 0.6727
vt 0.3827 0.6719
vt 0.6317 0.8469
vt 0.6433 0.7042
vt 0.7052 0.7079
vt 0.6944 0.8564
vt 0.6841 0.8938
vt 0.6252 0.8815
vt 0.6434 0.6686
vt 0.7034 0.6679
vt 0.4675 0.7152
vt 0.4895 0.7211
vt 0.4788 0.8647
vt 0.4836 0.9064
vt 0.4846 0.6326
vt 0.5016 0.6840
vt 0.7759 0.9523
vt 0.8043 0.9024
vt 0.8223 0.9861
vt 0.7747 0.8624
vt 0.8102 0.7170
vt 0.7995 0.8607
vt 0.8223 0.6799
vt 0.4094 0.7115
vt 0.4126 0.6234
vt 0.7031 0.9448
vt 0.7160 0.8616
vt 0.3338 0.9734
vt 0.6545 0.9694
vt 0.3406 0.6137
vt 0.1079 0.2525
vt 0.0824 0.2467
vt 0.0824 0.1344
vt 0.1079 0.3762
vt 0.0824 0.3705
vt 0.0824 0.2582
vt 0.0824 0.4943
vt 0.0824 0.3820
vt 0.2946 0.2525
vt 0.2946 0.3762
vt 0.0067 0.4629
vt 0.0067 0.4134
vt 0.0067 0.3391
vt 0.0067 0.2896
vt 0.0067 0.2153
vt 0.0067 0.1658
vt 0.0067 0.0916
vt 0.0067 0.0420
vt 0.4449 0.1760
vt 0.4634 0.2177
vt 0.3487 0.2687
vt 0.3235 0.2119
vt 0.9421 0.3980
vt 0.8923 0.3481
vt 0.9245 0.3158
vt 0.9744 0.3657
vt 0.3166 0.1385
vt 0.3310 0.0780
vt 0.4531 0.1070
vt 0.4426 0.1514
vt 0.9717 0.7929
vt 0.9717 0.8176
vt 0.8474 0.8305
vt 0.8472 0.7810
vt 0.4634 0.0845
vt 0.3617 0.0110
vt 0.8103 0.1586
vt 0.6843 0.1457
vt 0.8923 0.4726
vt 0.9421 0.4227
vt 0.9744 0.4550
vt 0.9245 0.5048
vt 0.5045 0.2160
vt 0.6260 0.1801
vt 0.5016 0.9902
vt 0.5298 0.2728
vt 0.6445 0.2218
vt 0.0824 0.5057
vt 0.0824 0.6180
vt 0.0067 0.5866
vt 0.0067 0.5371
vn -0.5534 -0.7786 0.2958
vn -0.2958 -0.7786 0.5534
vn 0.3593 -0.6472 -0.6723
vn 0.6723 -0.6472 -0.3593
vn -0.3545 -0.9045 -0.2369
vn 0.2369 -0.9045 0.3545
vn 0.0000 -0.6657 -0.7462
vn 0.2958 -0.7786 0.5534
vn 0.5534 -0.7786 0.2958
vn -0.6723 -0.6472 -0.3593
vn -0.3593 -0.6472 -0.6723
vn -0.2369 -0.9045 0.3545
vn 0.3545 -0.9045 -0.2369
vn -0.7462 -0.6657 0.0000
vn 0.7462 -0.6657 0.0000
vn 0.6723 0.6472 -0.3593
vn 0.7462 0.6657 0.0000
vn 0.3593 0.6472 -0.6723
vn 0.0000 0.6657 -0.7462
vn -0.3593 0.6472 -0.6723
vn -0.6723 0.6472 -0.3593
vn -0.7462 0.6657 0.0000
vn -0.6723 -0.6472 0.3593
vn -0.6723 0.6472 0.3593
vn 0.6723 0.6472 0.3593
vn 0.6723 -0.6472 0.3593
vn 0.5534 0.7786 0.2958
vn 0.2958 0.7786 0.5534
vn -0.5534 0.7786 0.2958
vn -0.2958 0.7786 0.5534
vn 0.2114 0.8991 0.3833
vn -0.2114 0.8991 0.3833
vn 0.3833 0.8991 -0.2114
vn -0.8862 0.2827 -0.3670
vn -0.3670 0.2827 -0.8862
vn -0.3827 0.0000 -0.9239
vn -0.9239 0.0000 -0.3827
vn -0.8862 0.2827 0.3670
vn -0.5002 0.8407 0.2072
vn -0.5002 0.8407 -0.2072
vn -0.2072 0.8407 -0.5002
vn 0.3670 0.2827 -0.8862
vn 0.3827 0.0000 -0.9239
vn 0.2072 0.8407 -0.5002
vn 0.8862 0.2827 -0.3670
vn 0.9239 0.0000 -0.3827
vn 0.5002 0.8407 -0.2072
vn 0.8862 0.2827 0.3670
vn 0.9239 0.0000 0.3827
vn -0.9239 0.0000 0.3827
vn 0.5359 0.8103 -0.2372
vn 0.2372 0.8103 -0.5359
vn 0.6865 -0.3184 -0.6536
vn 0.6536 -0.3184 -0.6865
vn -0.2372 0.8103 -0.5359
vn -0.6865 -0.3184 -0.6536
vn -0.5359 0.8103 -0.2372
vn -0.6536 -0.3184 -0.6865
vn -0.5359 0.8103 0.2372
vn -0.6536 -0.3184 0.6865
vn 0.5573 0.8231 -0.1090
vn 0.1090 0.8231 -0.5573
vn -0.5573 0.8231 -0.1090
vn -0.1090 0.8231 -0.5573
vn 0.3545 -0.9045 0.2369
vn -0.3833 0.8991 -0.2114
vn 0.6536 -0.3184 0.6865
vn 0.5359 0.8103 0.2372
vn -0.3545 -0.9045 0.2369
vn -0.5534 -0.7786 -0.2958
vn -0.2958 -0.7786 -0.5534
vn -0.2958 0.7786 -0.5534
vn -0.5534 0.7786 -0.2958
vn -0.3833 0.8991 0.2114
vn 0.2369 -0.9045 -0.3545
vn 0.2114 0.8991 -0.3833
vn 0.2958 -0.7786 -0.5534
vn 0.5534 -0.7786 -0.2958
vn 0.5534 0.7786 -0.2958
vn 0.2958 0.7786 -0.5534
vn -0.2114 0.8991 -0.3833
vn -0.2369 -0.9045 -0.3545
vn 0.3833 0.8991 0.2114
vn 0.3593 -0.6472 0.6723
vn 0.0000 -0.6657 0.7462
vn -0.3593 -0.6472 0.6723
vn 0.3593 0.6472 0.6723
vn 0.0000 0.6657 0.7462
vn -0.3593 0.6472 0.6723
vn -0.3670 0.2827 0.8862
vn -0.2072 0.8407 0.5002
vn 0.3670 0.2827 0.8862
vn 0.2072 0.8407 0.5002
vn 0.5002 0.8407 0.2072
vn -0.3827 0.0000 0.9239
vn 0.3827 0.0000 0.9239
vn 0.2372 0.8103 0.5359
vn -0.2372 0.8103 0.5359
vn -0.5573 0.8231 0.1090
vn -0.6865 -0.3184 0.6536
vn -0.1090 0.8231 0.5573
vn 0.6865 -0.3184 0.6536
vn 0.5573 0.8231 0.1090
vn 0.1090 0.8231 0.5573
usemtl valve
s 1
f 17/1/1 18/2/2 19/3/3 20/4/4
f 17/1/1 20/4/4 21/5/5
f 18/2/2 22/6/6 23/7/7 19/3/3
f 24/8/8 25/9/9 26/10/10 27/11/11
f 24/8/8 27/11/11 23/12/7 28/13/12
f 25/9/9 29/14/13 30/15/14 26/10/10
f 31/16/15 20/4/4 32/17/16 33/18/17
f 31/16/15 21/5/5 20/4/4
f 20/4/4 19/3/3 34/19/18 32/17/16
f 19/3/3 23/7/7 35/20/19 34/19/18
f 23/12/7 27/11/11 36/21/20 35/22/19
f 27/11/11 26/10/10 37/23/21 36/21/20
f 26/10/10 30/15/14 38/24/22 37/23/21
f 30/25/14 39/26/23 40/27/24 38/28/22
f 33/29/17 41/30/25 42/31/26 31/32/15
f 36/21/20 37/23/21 46/33/27 45/34/28
f 43/35/29 44/36/30 18/37/2 17/38/1
f 44/36/30 1/39/31 22/40/6 18/37/2
f 45/34/28 46/33/27 25/41/9 24/42/8
f 1/39/31 35/20/19 10/43/32
f 46/33/27 15/44/33 29/45/13 25/41/9
f 47/46/34 48/47/35 49/48/36 50/49/37
f 47/50/34 51/51/38 52/52/39 53/53/40
f 48/47/35 47/46/34 53/54/40 54/55/41
f 48/47/35 55/56/42 56/57/43 49/48/36
f 55/56/42 48/47/35 54/58/41 57/59/44
f 55/56/42 58/60/45 59/61/46 56/57/43
f 58/60/45 55/56/42 57/62/44 60/63/47
f 58/60/45 61/64/48 62/65/49 59/61/46
f 50/66/37 63/67/50 51/51/38 47/50/34
f 64/68/51 65/69/52 66/70/53 67/71/54
f 65/72/52 64/73/51 60/63/47 57/62/44
f 65/69/52 68/74/55 69/75/56 66/70/53
f 68/76/55 65/77/52 57/59/44 54/58/41
f 68/78/55 70/79/57 71/80/58 69/81/56
f 70/82/57 68/83/55 54/55/41 53/54/40
f 70/79/57 72/84/59 73/85/60 71/80/58
f 22/86/6 1/87/31 2/88/61 66/89/53
f 2/90/61 7/91/62 67/92/54 66/93/53
f 10/94/32 28/95/12 69/96/56 9/97/63
f 37/23/21 38/24/22 15/44/33 46/33/27
f 1/87/31 10/94/32 9/97/63 2/88/61
f 28/98/12 10/99/32 45/34/28 24/42/8
f 28/95/12 22/100/6 66/101/53 69/96/56
f 22/6/6 28/102/12 23/7/7
f 3/103/64 9/104/63 69/105/56 71/106/58
f 71/107/58 73/108/60 74/109/65 29/110/13
f 29/111/13 15/112/33 3/113/64 71/114/58
f 29/14/13 74/115/65 30/15/14
f 67/116/54 7/117/62 8/118/66 21/119/5
f 67/71/54 75/120/67 76/121/68 64/68/51
f 21/122/5 8/123/66 43/35/29 17/38/1
f 21/119/5 77/124/69 75/125/67 67/116/54
f 78/126/70 79/127/71 80/128/72 81/129/73
f 78/126/70 81/129/73 16/130/74 77/131/69
f 79/127/71 82/132/75 14/133/76 80/128/72
f 83/134/77 84/135/78 85/136/79 86/137/80
f 83/134/77 86/137/80 4/138/81 87/139/82
f 84/135/78 74/140/65 12/141/83 85/136/79
f 42/31/26 88/142/84 79/143/71 78/144/70
f 42/31/26 77/145/69 31/32/15
f 88/142/84 89/146/85 82/147/75 79/143/71
f 89/148/85 87/149/82 82/150/75
f 90/151/86 39/26/23 84/152/78 83/153/77
f 39/26/23 30/25/14 74/154/65 84/152/78
f 41/30/25 91/155/87 88/142/84 42/31/26
f 91/155/87 41/30/25 81/129/73 80/128/72
f 91/155/87 92/156/88 89/146/85 88/142/84
f 92/156/88 91/155/87 80/128/72 14/133/76
f 92/157/88 93/158/89 90/151/86 89/148/85
f 40/27/24 93/158/89 86/137/80 85/136/79
f 93/158/89 40/27/24 39/26/23 90/151/86
f 38/28/22 40/27/24 85/136/79 12/141/83
f 33/18/17 32/17/16 43/35/29 8/123/66
f 34/19/18 35/20/19 1/39/31 44/36/30
f 16/130/74 33/29/17 8/159/66
f 4/138/81 92/157/88 14/160/76
f 15/44/33 38/24/22 12/161/83
f 51/51/38 94/162/90 95/163/91 52/164/39
f 94/162/90 96/165/92 97/166/93 95/167/91
f 96/165/92 61/64/48 98/168/94 97/169/93
f 63/67/50 99/170/95 94/162/90 51/51/38
f 99/170/95 100/171/96 96/165/92 94/162/90
f 100/171/96 62/65/49 61/64/48 96/165/92
f 76/172/68 101/173/97 97/169/93 98/168/94
f 101/174/97 102/175/98 95/167/91 97/166/93
f 102/176/98 72/177/59 52/164/39 95/163/91
f 72/178/59 70/179/57 53/53/40 52/52/39
f 5/180/99 103/181/100 87/182/82 4/183/81
f 5/184/99 11/185/101 73/186/60 103/187/100
f 92/157/88 4/138/81 86/137/80 93/158/89
f 14/188/76 82/189/75 104/190/102 13/191/103
f 104/192/102 103/193/100 102/194/98 101/195/97
f 103/196/100 104/190/102 82/189/75 87/197/82
f 103/193/100 73/85/60 72/84/59 102/194/98
f 87/149/82 89/148/85 90/151/86 83/153/77
f 73/108/60 11/198/101 12/199/83 74/109/65
f 6/200/104 13/201/103 104/202/102 75/203/67
f 75/120/67 104/192/102 101/195/97 76/121/68
f 16/204/74 8/118/66 7/117/62 6/205/104
f 77/145/69 21/206/5 31/32/15
f 77/145/69 42/31/26 78/144/70
f 77/207/69 16/204/74 6/205/104 75/208/67
f 98/209/94 60/210/47 64/211/51 76/212/68
f 60/210/47 98/209/94 61/64/48 58/60/45
f 41/30/25 33/29/17 16/130/74 81/129/73
f 32/17/16 34/19/18 44/36/30 43/35/29
f 35/22/19 36/21/20 45/34/28 10/99/32
f 3/113/64 15/112/33 12/199/83 11/198/101
f 5/180/99 4/183/81 14/188/76 13/191/103
f 2/90/61 9/104/63 3/103/64 11/185/101 5/184/99 13/201/103 6/200/104 7/91/62
