<?xml version="1.0" encoding="UTF-8" standalone="no"?>
<!-- Created with Inkscape (http://www.inkscape.org/) -->

<svg
   xmlns:dc="http://purl.org/dc/elements/1.1/"
   xmlns:cc="http://creativecommons.org/ns#"
   xmlns:rdf="http://www.w3.org/1999/02/22-rdf-syntax-ns#"
   xmlns:svg="http://www.w3.org/2000/svg"
   xmlns="http://www.w3.org/2000/svg"
   xmlns:sodipodi="http://sodipodi.sourceforge.net/DTD/sodipodi-0.dtd"
   xmlns:inkscape="http://www.inkscape.org/namespaces/inkscape"
   width="1000"
   height="1000"
   viewBox="0 0 999.9999880656117 999.9999880410411"
   id="svg4166"
   version="1.1"
   inkscape:version="0.91 r13725"
   sodipodi:docname="RE-alerts-shock_export.svg">
  <defs
     id="defs4168" />
  <sodipodi:namedview
     id="base"
     pagecolor="#000000"
     bordercolor="#666666"
     borderopacity="1.0"
     inkscape:pageopacity="0"
     inkscape:pageshadow="2"
     inkscape:zoom="0.3535533923654275"
     inkscape:cx="-634.2345318739932"
     inkscape:cy="540.8428810692219"
     inkscape:document-units="px"
     inkscape:current-layer="layer1"
     showgrid="false"
     units="px"
     showguides="true"
     inkscape:snap-intersection-paths="false"
     inkscape:object-paths="false"
     inkscape:object-nodes="true"
     inkscape:snap-smooth-nodes="true"
     inkscape:snap-nodes="true" />
  <metadata
     id="metadata4171">
    <rdf:RDF>
      <cc:Work
         rdf:about="">
        <dc:format>image/svg+xml</dc:format>
        <dc:type
           rdf:resource="http://purl.org/dc/dcmitype/StillImage" />
        <dc:title></dc:title>
      </cc:Work>
    </rdf:RDF>
  </metadata>
  <g
     inkscape:label="Ebene 1"
     inkscape:groupmode="layer"
     id="layer1"
     transform="translate(0,-52.36228930856214)">
    <path
       style="opacity:1;fill:#ffffff;fill-opacity:1;fill-rule:nonzero;stroke:none;stroke-width:20;stroke-linecap:round;stroke-linejoin:miter;stroke-miterlimit:4;stroke-dasharray:none;stroke-dashoffset:260;stroke-opacity:1"
       d="M 804.0000000000003,80.02478930856202 195.9999999999999,282.0247893085621 c -70.9753364400531,23.5806216462014 -135,50.2099999999999 -135,125.0000000000001 l 0,496.6749999999992 c 0,74.7899999999997 64.02466355995011,144.5806216462046 135,121.0000000000015 L 804.0000000000001,822.6997893085613 C 874.9753364400519,799.1191676623601 939,772.4897893085609 939,697.6997893085607 l 0,-496.6749999999996 c 0,-74.79 -64.0246635599481,-144.58062164620207 -134.9999999999999,-121.00000000000025 z"
       id="rect4193-9-5-0-5"
       inkscape:connector-curvature="0"
       sodipodi:nodetypes="sssssssss" />
    <path
       style="opacity:1;fill:#000000;fill-opacity:1;fill-rule:nonzero;stroke:none;stroke-width:20;stroke-linecap:round;stroke-linejoin:miter;stroke-miterlimit:4;stroke-dasharray:none;stroke-dashoffset:260;stroke-opacity:1"
       d="M 855.322265625 336.662109375 C 810.7138118552331 336.9045704597933 616.9999999999999 414.7500000000001 617 414.75 C 617 414.75 508.3634284496119 454.2454512484892 508 472.75 C 507.6365715503882 491.2545487515115 598.4324446231865 511.5395001308937 600.900390625 520.75 C 603.3683366268141 529.9604998691061 451.3284210921825 584.3872269341814 460 616.75 C 468.6715789078178 649.1127730658187 565.5 650.049483729397 565.5 660.25 C 565.5 670.4505162706025 358.8658517720231 761.4650895701403 370 780.75 C 381.1341482279772 800.0349104298588 616.9999999999999 705.25 617 705.25 C 617 705.25 725.636571550388 665.7545487515108 726 647.25 C 726.3634284496118 628.7454512484885 635.5675553768137 608.4604998691061 633.099609375 599.25 C 630.631663373186 590.0395001308939 782.6715789078177 535.6127730658186 774 503.25 C 765.3284210921822 470.8872269341813 668.5 469.9505162706027 668.5 459.75 C 668.5 449.5494837293975 875.134148227977 358.5349104298596 864 339.25 C 862.9561736036271 337.4420396472007 859.9369332563552 336.6370271938145 855.322265625 336.662109375 z "
       transform="translate(0,52.36228930856214)"
       id="path4159" />
    <path
       style="opacity:1;fill:#000000;fill-opacity:1;fill-rule:nonzero;stroke:none;stroke-width:20;stroke-linecap:round;stroke-linejoin:miter;stroke-miterlimit:4;stroke-dasharray:none;stroke-dashoffset:260;stroke-opacity:1"
       d="M 621.322265625 216.662109375 C 576.7138118552331 216.9045704597933 382.9999999999999 294.7500000000001 383 294.75 C 383 294.75 274.3634284496121 334.2454512484892 274 352.75 C 273.6365715503883 371.2545487515115 364.4324446231863 391.5395001308939 366.900390625 400.75 C 369.3683366268139 409.9604998691061 217.3284210921825 464.3872269341815 226 496.75 C 234.6715789078178 529.1127730658187 331.5 530.4582582925078 331.5 540.25 C 331.5 550.8592908337129 124.865851772023 641.4650895701402 136 660.75 C 147.1341482279771 680.0349104298588 382.9999999999999 585.25 383 585.25 C 383 585.25 491.6365715503881 545.7545487515108 492 527.25 C 492.3634284496117 508.7454512484885 401.5675553768136 488.4604998691061 399.099609375 479.25 C 396.6316633731861 470.0395001308939 548.6715789078175 415.6127730658187 540 383.25 C 531.3284210921822 350.8872269341813 434.5000000000001 349.541741707492 434.5 339.75 C 434.5 329.140709166287 641.1341482279769 238.5349104298597 630 219.25 C 628.9561736036271 217.4420396472007 625.9369332563552 216.6370271938145 621.322265625 216.662109375 z "
       transform="translate(0,52.36228930856214)"
       id="path4159-0" />
  </g>
</svg>
