# Blender v3.1.2 OBJ File: 'project.blend'
# www.blender.org
mtllib mesh.mtl
o stalagmite_4_Mesh.008
v 0.233732 -0.026962 -0.128219
v 0.177418 -0.027159 -0.201343
v 0.095707 -0.035985 -0.250696
v -0.050709 -0.032951 -0.240971
v -0.137131 -0.028191 -0.203105
v -0.198038 -0.027666 -0.131305
v -0.242234 -0.027189 0.003940
v -0.231156 -0.027431 0.096561
v -0.181020 -0.028373 0.172174
v -0.067563 -0.028617 0.253787
v 0.020313 -0.028747 0.273350
v 0.099526 -0.028767 0.259266
v 0.229171 -0.028767 0.165269
v 0.266967 -0.028767 0.094465
v 0.275114 -0.028539 0.005084
v 0.261957 0.051608 -0.144574
v 0.209775 0.060212 -0.236566
v 0.108745 0.050000 -0.287046
v -0.059634 0.029741 -0.276442
v -0.158658 0.033584 -0.237950
v -0.231997 0.040783 -0.152147
v -0.286104 0.045072 -0.000896
v -0.263853 0.044445 0.106297
v -0.199976 0.042052 0.182798
v -0.077768 0.045208 0.267150
v 0.018150 0.043398 0.282543
v 0.102124 0.036921 0.263899
v 0.243816 0.037690 0.171764
v 0.284493 0.037382 0.097604
v 0.295000 0.039220 0.002766
v 0.112740 1.100856 0.015271
v 0.129522 1.022664 0.058524
v 0.112796 1.027407 0.094098
v 0.050625 1.032072 0.122944
v 0.017231 1.036689 0.118147
v -0.019842 1.089269 0.101491
v -0.059089 1.111840 0.074795
v -0.072453 1.133455 0.044297
v -0.074687 1.125378 0.009346
v -0.063618 1.084794 -0.039721
v -0.041077 1.066503 -0.065377
v -0.009095 1.054680 -0.079418
v 0.041078 1.059168 -0.073346
v 0.059701 1.128423 -0.047546
v 0.083831 1.145620 -0.024834
v 0.076273 1.276923 0.041622
v 0.041704 1.387012 0.004814
v 0.014522 1.368585 -0.018386
v -0.004207 1.273969 -0.044611
v -0.048296 1.303176 -0.013596
v -0.036374 1.388045 0.012633
v -0.015723 1.384141 0.039254
v 0.020817 1.254523 0.076931
v -0.028086 1.311967 -0.029615
v -0.011388 1.408623 -0.003530
v 0.013732 1.420420 0.021246
v 0.049581 1.295974 0.059251
v 0.082505 1.033858 0.111252
v 0.167153 -0.028767 0.216120
v 0.248959 0.213986 -0.134272
v 0.275758 0.197904 0.001750
v 0.276483 0.197780 0.091463
v 0.229633 0.198885 0.145965
v 0.071380 0.180581 0.169163
v 0.003990 0.222800 0.220779
v -0.084542 0.240282 0.228363
v -0.184537 0.210355 0.160260
v -0.238674 0.202572 0.092805
v -0.260894 0.203380 0.000069
v -0.208633 0.198189 -0.133275
v -0.138937 0.199161 -0.199853
v -0.052654 0.204728 -0.240908
v 0.101805 0.220948 -0.258484
v 0.195883 0.225249 -0.223249
v 0.197629 0.464614 -0.077886
v 0.157325 0.475089 -0.131515
v 0.093246 0.477127 -0.161887
v -0.022269 0.478852 -0.171278
v -0.077649 0.459691 -0.132111
v -0.115668 0.460647 -0.078188
v -0.145351 0.465064 0.013536
v -0.139339 0.465695 0.074209
v -0.109797 0.464238 0.128141
v -0.049546 0.450200 0.184418
v 0.015890 0.415046 0.170515
v 0.077274 0.402766 0.139239
v 0.214014 0.458448 0.133587
v 0.268503 0.450546 0.094230
v 0.251734 0.447854 0.015544
v 0.076715 0.745173 0.147983
v 0.035385 0.744550 0.144579
v -0.015827 0.765712 0.135956
v -0.063224 0.733741 0.109738
v -0.085823 0.725930 0.071798
v -0.092086 0.706639 0.024103
v -0.082889 0.741286 -0.052986
v -0.053744 0.757533 -0.101568
v 0.009513 0.730940 -0.121854
v 0.091084 0.679697 -0.103098
v 0.137299 0.679637 -0.081047
v 0.170429 0.692142 -0.046012
v 0.199521 0.742844 0.015672
v 0.199117 0.755149 0.077752
v 0.166255 0.730718 0.115854
v 0.203352 0.013134 -0.231734
v 0.259867 0.008315 -0.144864
v 0.107227 0.002835 -0.286027
v -0.059743 -0.006096 -0.275316
v -0.157725 -0.001143 -0.234839
v -0.227881 0.003224 -0.150834
v -0.279297 0.005368 0.000931
v -0.262481 0.004962 0.106443
v -0.202574 0.002383 0.187475
v -0.076951 0.001602 0.276752
v 0.020150 0.001079 0.296393
v 0.107194 0.001000 0.280800
v 0.181279 0.001000 0.233652
v 0.249357 0.001000 0.178297
v 0.290778 0.001000 0.101052
v 0.300493 0.001913 0.003592
v 0.154380 0.201653 0.151542
v 0.120802 0.743302 0.135852
v 0.149622 0.432880 0.134042
v 0.175785 0.038957 0.220647
v 0.026280 -0.027668 0.022033
vt 0.000000 0.337531
vt 0.002777 0.312299
vt 0.017255 0.290283
vt 0.071630 0.342417
vt 0.307622 0.769060
vt 0.288338 0.748566
vt 0.318923 0.714981
vt 0.337776 0.736181
vt 0.326693 0.788452
vt 0.360769 0.755595
vt 0.395404 0.785217
vt 0.356723 0.819501
vt 0.373422 0.840211
vt 0.414920 0.807716
vt 0.027052 0.618677
vt 0.000000 0.618263
vt 0.002725 0.565097
vt 0.032580 0.573299
vt 0.074537 0.582504
vt 0.065616 0.625104
vt 0.090496 0.631180
vt 0.102745 0.588571
vt 0.111649 0.640491
vt 0.128476 0.595368
vt 0.165959 0.609940
vt 0.138789 0.659750
vt 0.162472 0.666552
vt 0.190322 0.619882
vt 0.188186 0.670855
vt 0.212150 0.629050
vt 0.250428 0.655583
vt 0.224822 0.695363
vt 0.205665 0.686637
vt 0.231339 0.642751
vt 0.241617 0.706517
vt 0.268933 0.669588
vt 0.261501 0.721462
vt 0.289413 0.685931
vt 0.203131 0.852952
vt 0.190998 0.844925
vt 0.238518 0.801187
vt 0.250725 0.816413
vt 0.212363 0.864586
vt 0.263655 0.832398
vt 0.214529 0.892613
vt 0.282918 0.859903
vt 0.217286 0.912823
vt 0.296646 0.874781
vt 0.025338 0.783594
vt 0.008781 0.786493
vt 0.009998 0.700976
vt 0.028734 0.701894
vt 0.049112 0.777143
vt 0.056745 0.705642
vt 0.061824 0.785274
vt 0.074409 0.709157
vt 0.073854 0.790702
vt 0.091973 0.713652
vt 0.086166 0.804454
vt 0.116236 0.717547
vt 0.102527 0.804626
vt 0.138220 0.718080
vt 0.113620 0.809700
vt 0.157096 0.724736
vt 0.140659 0.818344
vt 0.126050 0.815038
vt 0.171229 0.741691
vt 0.183982 0.756177
vt 0.150305 0.831665
vt 0.201039 0.763818
vt 0.166654 0.840695
vt 0.218922 0.777327
vt 0.101364 0.937574
vt 0.101320 0.918717
vt 0.106469 0.893902
vt 0.096857 0.888782
vt 0.087451 0.885878
vt 0.079059 0.881471
vt 0.069863 0.879446
vt 0.054935 0.889808
vt 0.040657 0.892311
vt 0.030603 0.896732
vt 0.021512 0.893327
vt 0.009167 0.880765
vt 0.000054 0.875085
vt 0.141060 0.958879
vt 0.139586 0.948463
vt 0.131155 0.937032
vt 0.110626 0.942081
vt 0.327514 0.706312
vt 0.335496 0.696019
vt 0.358026 0.715278
vt 0.347117 0.727029
vt 0.380515 0.736648
vt 0.369917 0.746468
vt 0.402473 0.777968
vt 0.410387 0.768652
vt 0.429972 0.788460
vt 0.422281 0.800013
vt 0.005962 0.555041
vt 0.013047 0.543185
vt 0.039302 0.550685
vt 0.034942 0.562928
vt 0.077532 0.571798
vt 0.080834 0.558372
vt 0.109361 0.566064
vt 0.105654 0.578072
vt 0.136670 0.574279
vt 0.132112 0.584611
vt 0.171657 0.598697
vt 0.175330 0.588462
vt 0.200452 0.599177
vt 0.196153 0.608745
vt 0.222475 0.610413
vt 0.217338 0.619285
vt 0.237281 0.632615
vt 0.256454 0.646804
vt 0.242772 0.623776
vt 0.262237 0.637882
vt 0.281921 0.652364
vt 0.275138 0.661140
vt 0.303225 0.669498
vt 0.295992 0.677568
vt 0.053251 0.950302
vt 0.063059 0.949871
vt 0.046239 0.978627
vt 0.032940 0.983728
vt 0.042531 0.994048
vt 0.054953 0.984674
vt 0.082732 0.977790
vt 0.075186 0.989702
vt 0.012970 0.944947
vt 0.020665 0.968110
vt 0.029511 0.968627
vt 0.050015 0.936442
vt 0.005766 0.948713
vt 0.018502 0.978498
vt 0.066611 0.410126
vt 0.044120 0.407062
vt 0.025051 0.395243
vt 0.050897 0.268624
vt 0.076966 0.264352
vt 0.136130 0.296588
vt 0.143973 0.322396
vt 0.143975 0.348122
vt 0.127647 0.383779
vt 0.110481 0.401959
vt 0.089168 0.409948
vt 0.009392 0.375567
vt 0.102890 0.271160
vn -0.1044 -0.9889 0.1055
vn -0.1334 -0.9901 0.0446
vn -0.1512 -0.9883 -0.0190
vn -0.0021 -1.0000 0.0052
vn 0.6255 0.2506 -0.7389
vn 0.9142 0.1776 -0.3643
vn 0.9400 0.0782 -0.3320
vn 0.6631 0.0821 -0.7440
vn 0.0988 0.2584 -0.9610
vn 0.0999 0.1246 -0.9872
vn -0.2090 0.1512 -0.9662
vn -0.2286 0.2572 -0.9389
vn -0.5890 0.2810 -0.7577
vn -0.5603 0.1676 -0.8112
vn -0.8312 0.2937 -0.4720
vn -0.8599 0.1269 -0.4945
vn -0.9856 0.1095 -0.1286
vn -0.9448 0.2978 -0.1365
vn -0.8861 0.2709 0.3761
vn -0.8979 0.1270 0.4215
vn -0.6815 0.2245 0.6965
vn -0.6535 0.1470 0.7425
vn -0.3578 0.2049 0.9110
vn -0.3490 0.2349 0.9072
vn 0.3101 0.2512 0.9169
vn 0.1962 0.3535 0.9146
vn 0.3688 0.3168 0.8738
vn 0.3699 0.4480 0.8139
vn 0.6332 0.2275 0.7398
vn 0.4952 0.1304 0.8589
vn 0.1663 0.2127 0.9629
vn 0.3435 0.3971 0.8510
vn 0.9516 0.0803 0.2967
vn 0.9477 0.1195 0.2960
vn 0.9779 0.1196 -0.1713
vn 0.9905 0.0943 -0.1005
vn 0.5943 0.1890 -0.7817
vn 0.7958 0.1746 -0.5799
vn 0.8670 0.2105 -0.4517
vn 0.6104 0.3021 -0.7322
vn 0.3152 0.1898 -0.9299
vn 0.1733 0.2937 -0.9401
vn -0.0289 0.1622 -0.9863
vn -0.1702 0.2649 -0.9491
vn -0.6120 0.1302 -0.7800
vn -0.6325 0.2615 -0.7290
vn -0.9381 0.1045 -0.3303
vn -0.8625 0.2922 -0.4132
vn -0.9885 0.1308 -0.0758
vn -0.9417 0.3143 -0.1202
vn -0.9526 0.1132 0.2824
vn -0.8996 0.2946 0.3223
vn -0.7230 0.1347 0.6776
vn -0.7121 0.2425 0.6589
vn -0.3355 0.1117 0.9354
vn -0.2922 0.2054 0.9340
vn 0.0657 0.0739 0.9951
vn 0.2908 0.1183 0.9495
vn 0.1723 0.0405 0.9842
vn 0.2758 0.0695 0.9587
vn 0.4992 0.1393 0.8552
vn 0.2632 0.0640 0.9626
vn 0.1131 0.0446 0.9926
vn 0.4194 0.0914 0.9032
vn 0.9352 0.2256 0.2729
vn 0.9449 0.1314 0.2997
vn 0.9271 0.2009 -0.3163
vn 0.9522 0.1565 -0.2624
vn 0.7837 0.1998 -0.5882
vn 0.9347 0.2147 -0.2834
vn 0.9502 0.2368 0.2025
vn 0.7195 0.2048 0.6636
vn 0.4113 0.1769 0.8942
vn 0.0962 0.1434 0.9850
vn -0.1669 0.1139 0.9794
vn -0.3812 0.1325 0.9149
vn -0.6785 0.1221 0.7244
vn -0.9512 0.1085 0.2890
vn -0.9962 0.0683 -0.0533
vn -0.9364 0.0733 -0.3431
vn -0.5972 0.1162 -0.7936
vn -0.0372 0.1297 -0.9909
vn 0.3561 0.1385 -0.9241
vn 0.5568 0.1762 -0.8117
vn 0.8549 -0.3598 -0.3737
vn 0.1654 -0.9843 -0.0620
vn 0.1475 -0.9845 -0.0953
vn 0.6234 -0.3987 -0.6726
vn 0.0413 -0.9887 -0.1441
vn 0.1855 -0.4126 -0.8918
vn -0.1615 -0.4532 -0.8766
vn -0.0463 -0.9942 -0.0972
vn -0.0769 -0.9951 -0.0616
vn -0.5332 -0.4874 -0.6914
vn -0.1185 -0.9916 -0.0523
vn -0.7815 -0.4820 -0.3961
vn -0.8791 -0.4638 -0.1096
vn -0.8513 -0.3913 0.3494
vn -0.6518 -0.2719 0.7080
vn -0.4170 -0.1972 0.8872
vn -0.0625 -0.9907 0.1210
vn -0.0042 -0.9930 0.1182
vn -0.0095 -0.1185 0.9929
vn 0.0485 -0.9911 0.1242
vn 0.3593 -0.0865 0.9292
vn 0.5686 -0.1252 0.8130
vn 0.7518 -0.1909 0.6311
vn 0.0693 -0.9929 0.0962
vn 0.1018 -0.9911 0.0852
vn 0.1133 -0.9932 0.0286
vn 0.9307 -0.2420 0.2744
vn 0.1385 -0.9899 -0.0298
vn 0.9461 -0.2993 -0.1242
vn 0.4373 0.3154 0.8422
vn 0.9453 0.2812 0.1655
vn 0.8610 0.4067 -0.3055
vn 0.3731 0.7003 0.6086
vn -0.3265 0.6723 -0.6643
vn 0.3795 0.2645 -0.8866
vn 0.0724 0.1940 -0.9783
vn -0.4744 0.2243 -0.8513
vn -0.9287 0.1683 -0.3304
vn -0.9252 0.3159 0.2101
vn -0.4423 0.3127 0.8406
vn -0.1056 0.2264 0.9683
usemtl stalagmite1
s 1
f 9/1/1 8/2/2 7/3/3 125/4/4
f 74/5/5 60/6/6 16/7/7 17/8/8
f 73/9/9 74/5/5 17/8/8 18/10/10
f 19/11/11 72/12/12 73/9/9 18/10/10
f 71/13/13 72/12/12 19/11/11 20/14/14
f 70/15/15 71/16/13 20/17/14 21/18/16
f 22/19/17 69/20/18 70/15/15 21/18/16
f 68/21/19 69/20/18 22/19/17 23/22/20
f 67/23/21 68/21/19 23/22/20 24/24/22
f 25/25/23 66/26/24 67/23/21 24/24/22
f 65/27/25 66/26/24 25/25/23 26/28/26
f 64/29/27 65/27/25 26/28/26 27/30/28
f 28/31/29 63/32/30 121/33/31 124/34/32
f 62/35/33 63/32/30 28/31/29 29/36/34
f 61/37/35 62/35/33 29/36/34 30/38/36
f 16/7/7 60/6/6 61/37/35 30/38/36
f 100/39/37 101/40/38 75/41/39 76/42/40
f 99/43/41 100/39/37 76/42/40 77/44/42
f 98/45/43 99/43/41 77/44/42 78/46/44
f 97/47/45 98/45/43 78/46/44 79/48/46
f 96/49/47 97/50/45 79/51/46 80/52/48
f 95/53/49 96/49/47 80/52/48 81/54/50
f 94/55/51 95/53/49 81/54/50 82/56/52
f 93/57/53 94/55/51 82/56/52 83/58/54
f 92/59/55 93/57/53 83/58/54 84/60/56
f 91/61/57 92/59/55 84/60/56 85/62/58
f 90/63/59 91/61/57 85/62/58 86/64/60
f 104/65/61 122/66/62 123/67/63 87/68/64
f 103/69/65 104/65/61 87/68/64 88/70/66
f 102/71/67 103/69/65 88/70/66 89/72/68
f 75/41/39 101/40/38 102/71/67 89/72/68
f 101/40/38 45/73/69 31/74/70 102/71/67
f 31/74/70 32/75/71 103/69/65 102/71/67
f 32/75/71 33/76/72 104/65/61 103/69/65
f 104/65/61 33/76/72 58/77/73 122/66/62
f 34/78/74 35/79/75 91/61/57 90/63/59
f 35/79/75 36/80/76 92/59/55 91/61/57
f 92/59/55 36/80/76 37/81/77 93/57/53
f 37/81/77 38/82/78 94/55/51 93/57/53
f 38/82/78 39/83/79 95/53/49 94/55/51
f 95/53/49 39/83/79 40/84/80 96/49/47
f 40/84/80 41/85/81 97/50/45 96/49/47
f 41/86/81 42/87/82 98/45/43 97/47/45
f 98/45/43 42/87/82 43/88/83 99/43/41
f 43/88/83 44/89/84 100/39/37 99/43/41
f 44/89/84 45/73/69 101/40/38 100/39/37
f 106/90/85 1/91/86 2/92/87 105/93/88
f 106/90/85 105/93/88 17/8/8 16/7/7
f 105/93/88 2/92/87 3/94/89 107/95/90
f 105/93/88 107/95/90 18/10/10 17/8/8
f 19/11/11 18/10/10 107/95/90 108/96/91
f 107/95/90 3/94/89 4/97/92 108/96/91
f 108/96/91 4/97/92 5/98/93 109/99/94
f 108/96/91 109/99/94 20/14/14 19/11/11
f 109/100/94 5/101/93 6/102/95 110/103/96
f 109/100/94 110/103/96 21/18/16 20/17/14
f 22/19/17 21/18/16 110/103/96 111/104/97
f 110/103/96 6/102/95 7/105/3 111/104/97
f 111/104/97 7/105/3 8/106/2 112/107/98
f 111/104/97 112/107/98 23/22/20 22/19/17
f 112/107/98 8/106/2 9/108/1 113/109/99
f 112/107/98 113/109/99 24/24/22 23/22/20
f 25/25/23 24/24/22 113/109/99 114/110/100
f 113/109/99 9/108/1 10/111/101 114/110/100
f 114/110/100 10/111/101 11/112/102 115/113/103
f 114/110/100 115/113/103 26/28/26 25/25/23
f 115/113/103 11/112/102 12/114/104 116/115/105
f 115/113/103 116/115/105 27/30/28 26/28/26
f 28/31/29 124/34/32 117/116/106 118/117/107
f 117/116/106 59/118/108 13/119/109 118/117/107
f 118/117/107 13/119/109 14/120/110 119/121/111
f 118/117/107 119/121/111 29/36/34 28/31/29
f 119/121/111 14/120/110 15/122/112 120/123/113
f 119/121/111 120/123/113 30/38/36 29/36/34
f 106/90/85 16/7/7 30/38/36 120/123/113
f 106/90/85 120/123/113 15/122/112 1/91/86
f 57/124/114 58/77/73 33/76/72 46/125/115
f 57/124/114 46/125/115 47/126/116 56/127/117
f 55/128/118 56/127/117 47/126/116 48/129/119
f 49/130/120 43/88/83 42/87/82
f 54/131/121 55/128/118 48/129/119 49/130/120
f 46/125/115 33/76/72 32/75/71 31/74/70
f 46/125/115 31/74/70 45/73/69 47/126/116
f 48/129/119 47/126/116 45/73/69 44/89/84
f 40/84/80 39/83/79 50/132/122
f 50/132/122 39/83/79 38/82/78 51/133/123
f 51/133/123 38/82/78 37/81/77 52/134/124
f 52/134/124 37/81/77 36/80/76 53/135/125
f 53/135/125 36/80/76 35/79/75 34/78/74
f 48/129/119 44/89/84 43/88/83 49/130/120
f 49/130/120 42/87/82 41/86/81 54/131/121
f 54/136/121 41/85/81 40/84/80 50/132/122
f 54/136/121 50/132/122 51/133/123 55/137/118
f 55/137/118 51/133/123 52/134/124 56/127/117
f 57/124/114 56/127/117 52/134/124 53/135/125
f 57/124/114 53/135/125 34/78/74 58/77/73
f 58/77/73 34/78/74 90/63/59 122/66/62
f 123/67/63 122/66/62 90/63/59 86/64/60
f 124/34/32 121/33/31 64/29/27 27/30/28
f 124/34/32 27/30/28 116/115/105 117/116/106
f 116/115/105 12/114/104 59/118/108 117/116/106
f 76/42/40 75/41/39 60/6/6 74/5/5
f 77/44/42 76/42/40 74/5/5 73/9/9
f 72/12/12 78/46/44 77/44/42 73/9/9
f 79/48/46 78/46/44 72/12/12 71/13/13
f 80/52/48 79/51/46 71/16/13 70/15/15
f 69/20/18 81/54/50 80/52/48 70/15/15
f 82/56/52 81/54/50 69/20/18 68/21/19
f 83/58/54 82/56/52 68/21/19 67/23/21
f 66/26/24 84/60/56 83/58/54 67/23/21
f 85/62/58 84/60/56 66/26/24 65/27/25
f 86/64/60 85/62/58 65/27/25 64/29/27
f 123/67/63 86/64/60 64/29/27 121/33/31
f 63/32/30 87/68/64 123/67/63 121/33/31
f 88/70/66 87/68/64 63/32/30 62/35/33
f 89/72/68 88/70/66 62/35/33 61/37/35
f 60/6/6 75/41/39 89/72/68 61/37/35
f 59/138/108 12/139/104 11/140/102 125/4/4
f 7/3/3 6/141/95 5/142/93 125/4/4
f 3/143/89 2/144/87 1/145/86 125/4/4
f 1/145/86 15/146/112 14/147/110 125/4/4
f 14/147/110 13/148/109 59/138/108 125/4/4
f 125/4/4 11/140/102 10/149/101 9/1/1
f 5/142/93 4/150/92 3/143/89 125/4/4
