# Blender v2.80 (sub 75) OBJ File: 'pyramid.blend'
# www.blender.org
mtllib pyramid2.mtl
o Cone
v -0.057362 -0.888797 -0.551733
v 0.057362 -0.888797 -0.551733
v 0.000000 -0.948390 -0.470057
v 0.692820 -0.291409 0.534123
v 0.752437 -0.229679 0.455715
v 0.695075 -0.175284 0.538856
v -0.692820 -0.291410 0.534122
v -0.695075 -0.175284 0.538856
v -0.752437 -0.229679 0.455715
v -0.057362 0.529061 -0.520245
v 0.000000 0.583455 -0.437104
v 0.057362 0.529061 -0.520245
v 0.490374 -0.478184 0.075880
v 0.433013 -0.537777 0.157555
v 0.243049 -0.567518 0.069075
v 0.259808 -0.702022 -0.093490
v 0.319424 -0.640291 -0.171897
v 0.351421 -0.450696 -0.082125
v 0.490374 0.056387 0.087751
v 0.351421 0.049394 -0.071019
v 0.319424 0.242995 -0.152281
v 0.262062 0.297389 -0.069140
v 0.245159 0.150159 0.082998
v 0.433013 0.110781 0.170892
v -0.170950 -0.175284 0.538856
v -0.173205 -0.291409 0.534123
v -0.000000 -0.337042 0.421353
v 0.173205 -0.291409 0.534123
v 0.170950 -0.175284 0.538856
v -0.000000 -0.117455 0.427227
v 0.057362 -0.005511 -0.532116
v 0.106262 -0.183082 -0.426354
v 0.057362 -0.354226 -0.539861
v -0.057362 -0.354226 -0.539861
v -0.106262 -0.183082 -0.426354
v -0.057362 -0.005511 -0.532116
v -0.433013 0.110781 0.170892
v -0.245159 0.150159 0.082998
v -0.262062 0.297389 -0.069141
v -0.319424 0.242995 -0.152281
v -0.351421 0.049394 -0.071019
v -0.490374 0.056387 0.087751
v -0.319424 -0.640291 -0.171897
v -0.259808 -0.702022 -0.093490
v -0.243049 -0.567518 0.069075
v -0.433013 -0.537777 0.157555
v -0.490374 -0.478184 0.075880
v -0.351421 -0.450696 -0.082125
vt 0.891959 0.490047
vt 0.891959 0.641940
vt 0.762179 0.568969
vt 0.747640 0.957647
vt 0.619809 0.883844
vt 0.747640 0.810040
vt 0.891959 0.650044
vt 0.891959 0.801937
vt 0.762179 0.728966
vt 0.762179 0.877224
vt 0.894579 0.802780
vt 0.894579 0.951668
vt 0.141950 0.836370
vt 0.000421 0.756793
vt 0.141950 0.677216
vt 0.759380 0.079314
vt 0.896025 0.000421
vt 0.896025 0.158206
vt 0.759380 0.405731
vt 0.896025 0.326839
vt 0.896025 0.484623
vt 0.619809 0.411202
vt 0.758537 0.326839
vt 0.758537 0.489205
vt 0.284320 0.836370
vt 0.142792 0.756793
vt 0.284320 0.677216
vt 0.761337 0.809198
vt 0.619809 0.729621
vt 0.761337 0.650044
vt 0.896025 0.321414
vt 0.759380 0.242522
vt 0.896025 0.163630
vt 0.619809 0.084785
vt 0.758537 0.000421
vt 0.758537 0.162787
vt 0.569062 0.836370
vt 0.427534 0.756793
vt 0.569062 0.677216
vt 0.761337 0.649201
vt 0.619809 0.569624
vt 0.761337 0.490047
vt 0.426691 0.836370
vt 0.285163 0.756793
vt 0.426691 0.677216
vt 0.539247 0.218026
vt 0.618966 0.198540
vt 0.558035 0.255125
vt 0.246039 0.627540
vt 0.221957 0.676373
vt 0.215721 0.623010
vt 0.284503 0.357488
vt 0.277104 0.357420
vt 0.280999 0.351162
vt 0.067487 0.215456
vt 0.056923 0.239797
vt 0.020554 0.209621
vt 0.439947 0.643492
vt 0.418268 0.598966
vt 0.480365 0.521634
vt 0.538034 0.617840
vt 0.043366 0.551425
vt 0.000421 0.480262
vt 0.089584 0.460856
vt 0.077703 0.525504
vt 0.272008 0.402621
vt 0.285902 0.401772
vt 0.311474 0.442850
vt 0.233549 0.435281
vt 0.166509 0.060659
vt 0.252556 0.000421
vt 0.285177 0.107024
vt 0.191710 0.103751
vt 0.239731 0.334495
vt 0.197247 0.338407
vt 0.232672 0.281114
vt 0.245212 0.322181
vt 0.386189 0.286530
vt 0.400206 0.320480
vt 0.355217 0.346640
vt 0.335830 0.304141
vt 0.618966 0.544328
vt 0.550243 0.505464
vt 0.041993 0.397717
vt 0.002920 0.400839
vt 0.245569 0.496082
vt 0.277962 0.503522
vt 0.347015 0.061458
vt 0.358679 0.010589
vt 0.173458 0.268631
vt 0.157981 0.294086
vt 0.314911 0.333730
vt 0.318495 0.344973
vt 0.350076 0.989908
vt 0.350076 0.842301
vt 0.414145 0.837213
vt 0.414145 0.994997
vt 0.349233 0.837213
vt 0.349233 0.994997
vt 0.285163 0.989908
vt 0.285163 0.842301
vt 0.491604 0.842301
vt 0.491604 0.989908
vt 0.427534 0.994997
vt 0.427534 0.837213
vt 0.959445 0.810059
vt 0.959445 0.961952
vt 0.895421 0.965146
vt 0.895421 0.802780
vt 0.960891 0.326839
vt 0.960891 0.489205
vt 0.896868 0.486011
vt 0.896868 0.334118
vt 0.207923 0.991234
vt 0.207923 0.842346
vt 0.272212 0.837213
vt 0.272212 0.996367
vt 0.896868 0.318716
vt 0.896868 0.166823
vt 0.960891 0.163630
vt 0.960891 0.325996
vt 0.960891 0.000421
vt 0.960891 0.162787
vt 0.896868 0.159594
vt 0.896868 0.007701
vt 0.207081 0.842346
vt 0.207081 0.991234
vt 0.142792 0.996367
vt 0.142792 0.837213
vt 0.064445 0.844492
vt 0.064445 0.996385
vt 0.000421 0.999579
vt 0.000421 0.837213
vt 0.956826 0.490047
vt 0.956826 0.652413
vt 0.892802 0.649220
vt 0.892802 0.497327
vt 0.065288 0.991234
vt 0.065288 0.842346
vt 0.129576 0.837213
vt 0.129576 0.996367
vt 0.758537 0.163630
vt 0.758537 0.325996
vt 0.619809 0.241633
vn 0.8647 -0.2273 -0.4478
vn 0.6205 0.0172 -0.7840
vn 0.8703 0.2539 -0.4220
vn -0.2435 -0.8800 0.4077
vn 0.2435 -0.8800 0.4077
vn 0.0000 -0.6491 0.7607
vn -0.8647 -0.2273 -0.4478
vn -0.8703 0.2539 -0.4220
vn -0.6205 0.0172 -0.7840
vn 0.0000 0.5926 0.8054
vn 0.2497 0.8424 0.4774
vn -0.2497 0.8424 0.4774
vn 0.7170 -0.5178 -0.4666
vn 0.7323 0.5345 -0.4219
vn 0.9999 -0.0076 0.0077
vn 0.3044 -0.9468 0.1043
vn 0.4933 -0.5318 0.6883
vn -0.2211 -0.4484 0.8660
vn -0.3044 -0.9468 0.1043
vn 0.2211 -0.4484 0.8660
vn -0.4933 -0.5318 0.6883
vn 0.4980 -0.4836 -0.7198
vn 0.4185 0.2369 -0.8768
vn 0.9422 -0.3043 -0.1403
vn 0.4178 -0.1959 -0.8871
vn 0.5046 0.5206 -0.6887
vn 0.9447 0.3037 -0.1234
vn 0.2251 0.3756 0.8990
vn -0.3138 0.9313 0.1847
vn -0.5019 0.4646 0.7295
vn 0.0000 -0.9996 -0.0267
vn 0.5256 -0.7371 0.4248
vn -0.5256 -0.7371 0.4248
vn -0.9999 -0.0076 0.0077
vn -0.7323 0.5345 -0.4219
vn -0.7170 -0.5178 -0.4666
vn -0.9447 0.3037 -0.1234
vn -0.5046 0.5206 -0.6887
vn -0.4178 -0.1959 -0.8871
vn 0.5019 0.4646 0.7295
vn 0.3138 0.9313 0.1847
vn -0.2251 0.3756 0.8990
vn 0.5269 0.6999 0.4821
vn 0.0000 0.9991 0.0427
vn -0.5269 0.6999 0.4821
vn -0.4980 -0.4836 -0.7198
vn -0.9422 -0.3043 -0.1403
vn -0.4185 0.2369 -0.8768
usemtl glow
s 1
f 18/1/1 32/2/2 20/3/3
f 45/4/4 15/5/5 27/6/6
f 48/7/7 41/8/8 35/9/9
f 30/10/10 23/11/11 38/12/12
usemtl base
f 13/13/13 19/14/14 5/15/15
f 14/16/16 4/17/17 28/18/18
f 46/19/19 26/20/20 7/21/21
f 2/22/22 33/23/23 17/24/24
f 31/25/25 12/26/26 21/27/27
f 25/28/28 37/29/29 8/30/30
f 3/31/31 16/32/32 44/33/33
f 9/34/34 42/35/35 47/36/36
f 40/37/37 10/38/38 36/39/39
f 6/40/40 24/41/41 29/42/42
f 22/43/43 11/44/44 39/45/45
f 1/46/46 2/47/22 3/48/31
f 4/49/17 5/50/15 6/51/40
f 7/52/21 8/53/30 9/54/34
f 10/55/38 11/56/44 12/57/26
f 13/58/13 14/59/16 15/60/5 18/61/1
f 19/62/14 20/63/3 23/64/11 24/65/41
f 25/66/28 26/67/20 27/68/6 30/69/10
f 31/70/25 32/71/2 35/72/9 36/73/39
f 37/74/29 38/75/12 41/76/8 42/77/35
f 43/78/47 44/79/33 45/80/4 48/81/7
f 13/58/13 5/50/15 4/49/17 14/59/16
f 24/65/41 6/51/40 5/50/15 19/62/14
f 25/66/28 8/53/30 7/52/21 26/67/20
f 36/73/39 10/55/38 12/57/26 31/70/25
f 42/77/35 9/54/34 8/53/30 37/74/29
f 43/78/47 1/46/46 3/48/31 44/79/33
f 2/47/22 17/82/24 16/83/32 3/48/31
f 11/56/44 22/84/43 21/85/27 12/57/26
f 6/51/40 29/86/42 28/87/18 4/49/17
f 1/46/46 34/88/48 33/89/23 2/47/22
f 10/55/38 40/90/37 39/91/45 11/56/44
f 9/54/34 47/92/36 46/93/19 7/52/21
f 45/94/4 27/95/6 26/96/20 46/97/19
f 44/98/33 16/99/32 15/100/5 45/101/4
f 27/102/6 15/103/5 14/104/16 28/105/18
f 48/106/7 35/107/9 34/108/48 43/109/47
f 47/110/36 42/111/35 41/112/8 48/113/7
f 35/114/9 41/115/8 40/116/37 36/117/39
f 30/118/10 38/119/12 37/120/29 25/121/28
f 29/122/42 24/123/41 23/124/11 30/125/10
f 38/126/12 23/127/11 22/128/43 39/129/45
f 18/130/1 20/131/3 19/132/14 13/133/13
f 17/134/24 33/135/23 32/136/2 18/137/1
f 20/138/3 32/139/2 31/140/25 21/141/27
f 43/142/47 34/143/48 1/144/46
f 23/64/11 20/63/3 21/85/27 22/84/43
f 30/69/10 27/68/6 28/87/18 29/86/42
f 41/76/8 38/75/12 39/91/45 40/90/37
f 35/72/9 32/71/2 33/89/23 34/88/48
f 18/61/1 15/60/5 16/83/32 17/82/24
f 48/81/7 45/80/4 46/93/19 47/92/36
