# Blender v2.78 (sub 0) OBJ File: 'metal_cover.blend'
# www.blender.org
mtllib mesh.mtl
o Cylinder.016_Cylinder.027
v 0.000000 -0.000000 -0.490000
v 0.000000 0.050000 -0.490000
v 0.187515 -0.000000 -0.452701
v 0.187515 0.050000 -0.452701
v 0.346482 -0.000000 -0.346482
v 0.346482 0.050000 -0.346482
v 0.452701 -0.000000 -0.187515
v 0.452701 0.050000 -0.187515
v 0.490000 -0.000000 0.000000
v 0.490000 0.050000 0.000000
v 0.452701 -0.000000 0.187515
v 0.452701 0.050000 0.187515
v 0.346482 -0.000000 0.346482
v 0.346482 0.050000 0.346482
v 0.187515 -0.000000 0.452701
v 0.187515 0.050000 0.452701
v 0.000000 -0.000000 0.490000
v 0.000000 0.050000 0.490000
v -0.187515 -0.000000 0.452701
v -0.187515 0.050000 0.452701
v -0.346482 -0.000000 0.346482
v -0.346482 0.050000 0.346482
v -0.452701 -0.000000 0.187515
v -0.452701 0.050000 0.187515
v -0.490000 -0.000000 0.000000
v -0.490000 0.050000 0.000000
v -0.452701 -0.000000 -0.187515
v -0.452701 0.050000 -0.187515
v -0.346482 -0.000000 -0.346482
v -0.346482 0.050000 -0.346482
v -0.187515 -0.000000 -0.452701
v -0.187515 0.050000 -0.452701
v -0.383701 0.050000 0.116796
v -0.355992 0.050000 0.128273
v -0.344515 0.050000 0.155981
v -0.355992 0.050000 0.183690
v -0.383701 0.050000 0.195167
v -0.411409 0.050000 0.183690
v -0.422886 0.050000 0.155981
v -0.411409 0.050000 0.128273
v -0.355992 0.060835 0.128273
v -0.383701 0.060835 0.116796
v -0.344515 0.060835 0.155981
v -0.355992 0.060835 0.183690
v -0.383701 0.060835 0.195167
v -0.411409 0.060835 0.183690
v -0.422886 0.060835 0.155981
v -0.411409 0.060835 0.128273
v -0.386837 0.050000 -0.199847
v -0.359129 0.050000 -0.188370
v -0.347652 0.050000 -0.160662
v -0.359129 0.050000 -0.132953
v -0.386837 0.050000 -0.121476
v -0.414546 0.050000 -0.132953
v -0.426023 0.050000 -0.160662
v -0.414546 0.050000 -0.188370
v -0.359129 0.060835 -0.188370
v -0.386837 0.060835 -0.199847
v -0.347652 0.060835 -0.160662
v -0.359129 0.060835 -0.132953
v -0.386837 0.060835 -0.121476
v -0.414546 0.060835 -0.132953
v -0.426023 0.060835 -0.160662
v -0.414546 0.060835 -0.188370
v -0.169494 0.050000 -0.425099
v -0.141786 0.050000 -0.413621
v -0.130309 0.050000 -0.385913
v -0.141786 0.050000 -0.358205
v -0.169494 0.050000 -0.346727
v -0.197203 0.050000 -0.358205
v -0.208680 0.050000 -0.385913
v -0.197203 0.050000 -0.413621
v -0.141786 0.060835 -0.413621
v -0.169494 0.060835 -0.425099
v -0.130309 0.060835 -0.385913
v -0.141786 0.060835 -0.358205
v -0.169494 0.060835 -0.346727
v -0.197203 0.060835 -0.358205
v -0.208680 0.060835 -0.385913
v -0.197203 0.060835 -0.413621
v 0.145294 0.050000 -0.429385
v 0.173002 0.050000 -0.417907
v 0.184479 0.050000 -0.390199
v 0.173002 0.050000 -0.362491
v 0.145294 0.050000 -0.351013
v 0.117585 0.050000 -0.362491
v 0.106108 0.050000 -0.390199
v 0.117585 0.050000 -0.417908
v 0.173002 0.060835 -0.417907
v 0.145294 0.060835 -0.429385
v 0.184479 0.060835 -0.390199
v 0.173002 0.060835 -0.362491
v 0.145294 0.060835 -0.351013
v 0.117585 0.060835 -0.362491
v 0.106108 0.060835 -0.390199
v 0.117585 0.060835 -0.417908
v -0.155629 0.050000 0.336738
v -0.127921 0.050000 0.348215
v -0.116443 0.050000 0.375924
v -0.127921 0.050000 0.403632
v -0.155629 0.050000 0.415109
v -0.183337 0.050000 0.403632
v -0.194815 0.050000 0.375924
v -0.183337 0.050000 0.348215
v -0.127921 0.060835 0.348215
v -0.155629 0.060835 0.336738
v -0.116443 0.060835 0.375924
v -0.127921 0.060835 0.403632
v -0.155629 0.060835 0.415109
v -0.183337 0.060835 0.403632
v -0.194815 0.060835 0.375924
v -0.183337 0.060835 0.348215
v 0.157693 0.050000 0.331540
v 0.185402 0.050000 0.343017
v 0.196879 0.050000 0.370725
v 0.185402 0.050000 0.398434
v 0.157693 0.050000 0.409911
v 0.129985 0.050000 0.398434
v 0.118508 0.050000 0.370725
v 0.129985 0.050000 0.343017
v 0.185402 0.060835 0.343017
v 0.157693 0.060835 0.331540
v 0.196879 0.060835 0.370725
v 0.185402 0.060835 0.398434
v 0.157693 0.060835 0.409911
v 0.129985 0.060835 0.398434
v 0.118508 0.060835 0.370725
v 0.129985 0.060835 0.343017
v 0.380235 0.050000 0.107311
v 0.407943 0.050000 0.118788
v 0.419421 0.050000 0.146497
v 0.407943 0.050000 0.174205
v 0.380235 0.050000 0.185682
v 0.352527 0.050000 0.174205
v 0.341049 0.050000 0.146497
v 0.352527 0.050000 0.118788
v 0.407943 0.060835 0.118788
v 0.380235 0.060835 0.107311
v 0.419421 0.060835 0.146497
v 0.407943 0.060835 0.174205
v 0.380235 0.060835 0.185682
v 0.352527 0.060835 0.174205
v 0.341049 0.060835 0.146497
v 0.352527 0.060835 0.118788
v 0.374594 0.050000 -0.206454
v 0.402302 0.050000 -0.194976
v 0.413780 0.050000 -0.167268
v 0.402302 0.050000 -0.139560
v 0.374594 0.050000 -0.128082
v 0.346886 0.050000 -0.139560
v 0.335408 0.050000 -0.167268
v 0.346886 0.050000 -0.194976
v 0.402302 0.060835 -0.194976
v 0.374594 0.060835 -0.206454
v 0.413780 0.060835 -0.167268
v 0.402302 0.060835 -0.139560
v 0.374594 0.060835 -0.128082
v 0.346886 0.060835 -0.139560
v 0.335408 0.060835 -0.167268
v 0.346886 0.060835 -0.194976
vt 0.0438 0.7819
vt 0.0438 0.9976
vt 0.0024 0.9976
vt 0.0025 0.7819
vt 0.9976 0.0013
vt 0.9976 0.2170
vt 0.9562 0.2170
vt 0.9562 0.0013
vt 0.9148 0.2170
vt 0.9148 0.0013
vt 0.9966 0.7821
vt 0.9966 0.9978
vt 0.9552 0.9978
vt 0.9552 0.7821
vt 0.9138 0.9978
vt 0.9138 0.7821
vt 0.0856 0.0030
vt 0.0856 0.2187
vt 0.0442 0.2187
vt 0.0442 0.0030
vt 0.0029 0.2187
vt 0.0029 0.0030
vt 0.0851 0.7819
vt 0.0851 0.9976
vt 0.0438 0.9972
vt 0.0438 0.7819
vt 0.0024 0.9972
vt 0.0024 0.7819
vt 0.9976 0.0013
vt 0.9975 0.2170
vt 0.9562 0.2170
vt 0.9562 0.0013
vt 0.9148 0.2170
vt 0.9148 0.0013
vt 0.9966 0.7821
vt 0.9966 0.9978
vt 0.9552 0.9978
vt 0.9552 0.7821
vt 0.9138 0.9978
vt 0.9138 0.7821
vt 0.0856 0.0030
vt 0.0856 0.2183
vt 0.0442 0.2183
vt 0.0442 0.0030
vt 0.6886 0.9554
vt 0.5000 0.9929
vt 0.3114 0.9554
vt 0.1515 0.8485
vt 0.0446 0.6886
vt 0.0071 0.5000
vt 0.0446 0.3114
vt 0.1515 0.1515
vt 0.3114 0.0446
vt 0.5000 0.0071
vt 0.6886 0.0446
vt 0.8485 0.1515
vt 0.9554 0.3114
vt 0.9929 0.5000
vt 0.9554 0.6886
vt 0.8485 0.8485
vt 0.0029 0.2187
vt 0.0029 0.0030
vt 0.0851 0.7819
vt 0.0851 0.9976
vt 0.2910 0.0416
vt 0.1925 0.0416
vt 0.1925 0.0022
vt 0.2910 0.0022
vt 0.0941 0.0416
vt 0.0941 0.0022
vt 0.9026 0.9953
vt 0.8042 0.9953
vt 0.8042 0.9559
vt 0.9026 0.9559
vt 0.7058 0.9953
vt 0.7058 0.9559
vt 0.0940 0.9563
vt 0.1925 0.9563
vt 0.1925 0.9957
vt 0.0940 0.9957
vt 0.2909 0.9563
vt 0.2909 0.9957
vt 0.7120 0.0005
vt 0.8105 0.0005
vt 0.8105 0.0399
vt 0.7120 0.0399
vt 0.9089 0.0005
vt 0.9089 0.0399
vt 0.8337 0.0961
vt 0.8422 0.0756
vt 0.8627 0.0671
vt 0.8832 0.0756
vt 0.8916 0.0961
vt 0.8832 0.1165
vt 0.8627 0.1250
vt 0.8422 0.1165
vt 0.2910 0.0416
vt 0.1925 0.0416
vt 0.1925 0.0022
vt 0.2910 0.0022
vt 0.0941 0.0416
vt 0.0941 0.0022
vt 0.9026 0.9953
vt 0.8042 0.9953
vt 0.8042 0.9559
vt 0.9026 0.9559
vt 0.7058 0.9953
vt 0.7058 0.9559
vt 0.0940 0.9563
vt 0.1925 0.9563
vt 0.1925 0.9957
vt 0.0940 0.9957
vt 0.2909 0.9563
vt 0.2909 0.9957
vt 0.7120 0.0005
vt 0.8105 0.0005
vt 0.8105 0.0399
vt 0.7120 0.0399
vt 0.9089 0.0005
vt 0.9089 0.0399
vt 0.8337 0.0961
vt 0.8422 0.0756
vt 0.8627 0.0671
vt 0.8832 0.0756
vt 0.8916 0.0961
vt 0.8832 0.1165
vt 0.8627 0.1250
vt 0.8422 0.1165
vt 0.2910 0.0416
vt 0.1925 0.0416
vt 0.1925 0.0022
vt 0.2910 0.0022
vt 0.0941 0.0416
vt 0.0941 0.0022
vt 0.9026 0.9953
vt 0.8042 0.9953
vt 0.8042 0.9559
vt 0.9026 0.9559
vt 0.7058 0.9953
vt 0.7058 0.9559
vt 0.0940 0.9563
vt 0.1925 0.9563
vt 0.1925 0.9957
vt 0.0940 0.9957
vt 0.2909 0.9563
vt 0.2909 0.9957
vt 0.7120 0.0005
vt 0.8105 0.0005
vt 0.8105 0.0399
vt 0.7120 0.0399
vt 0.9089 0.0005
vt 0.9089 0.0399
vt 0.8337 0.0961
vt 0.8422 0.0756
vt 0.8627 0.0671
vt 0.8832 0.0756
vt 0.8916 0.0961
vt 0.8832 0.1165
vt 0.8627 0.1250
vt 0.8422 0.1165
vt 0.2910 0.0416
vt 0.1925 0.0416
vt 0.1925 0.0022
vt 0.2910 0.0022
vt 0.0941 0.0416
vt 0.0941 0.0022
vt 0.9026 0.9953
vt 0.8042 0.9953
vt 0.8042 0.9559
vt 0.9026 0.9559
vt 0.7058 0.9953
vt 0.7058 0.9559
vt 0.0940 0.9563
vt 0.1925 0.9563
vt 0.1925 0.9957
vt 0.0940 0.9957
vt 0.2909 0.9563
vt 0.2909 0.9957
vt 0.7120 0.0005
vt 0.8105 0.0005
vt 0.8105 0.0399
vt 0.7120 0.0399
vt 0.9089 0.0005
vt 0.9089 0.0399
vt 0.8337 0.0961
vt 0.8422 0.0756
vt 0.8627 0.0671
vt 0.8832 0.0756
vt 0.8916 0.0961
vt 0.8832 0.1165
vt 0.8627 0.1250
vt 0.8422 0.1165
vt 0.2910 0.0416
vt 0.1925 0.0416
vt 0.1925 0.0022
vt 0.2910 0.0022
vt 0.0941 0.0416
vt 0.0941 0.0022
vt 0.9026 0.9953
vt 0.8042 0.9953
vt 0.8042 0.9559
vt 0.9026 0.9559
vt 0.7058 0.9953
vt 0.7058 0.9559
vt 0.0940 0.9563
vt 0.1925 0.9563
vt 0.1925 0.9957
vt 0.0940 0.9957
vt 0.2909 0.9563
vt 0.2909 0.9957
vt 0.7120 0.0005
vt 0.8105 0.0005
vt 0.8105 0.0399
vt 0.7120 0.0399
vt 0.9089 0.0005
vt 0.9089 0.0399
vt 0.8337 0.0961
vt 0.8422 0.0756
vt 0.8627 0.0671
vt 0.8832 0.0756
vt 0.8916 0.0961
vt 0.8832 0.1165
vt 0.8627 0.1250
vt 0.8422 0.1165
vt 0.2910 0.0416
vt 0.1925 0.0416
vt 0.1925 0.0022
vt 0.2910 0.0022
vt 0.0941 0.0416
vt 0.0941 0.0022
vt 0.9026 0.9953
vt 0.8042 0.9953
vt 0.8042 0.9559
vt 0.9026 0.9559
vt 0.7058 0.9953
vt 0.7058 0.9559
vt 0.0940 0.9563
vt 0.1925 0.9563
vt 0.1925 0.9957
vt 0.0940 0.9957
vt 0.2909 0.9563
vt 0.2909 0.9957
vt 0.7120 0.0005
vt 0.8105 0.0005
vt 0.8105 0.0399
vt 0.7120 0.0399
vt 0.9089 0.0005
vt 0.9089 0.0399
vt 0.8337 0.0961
vt 0.8422 0.0756
vt 0.8627 0.0671
vt 0.8832 0.0756
vt 0.8916 0.0961
vt 0.8832 0.1165
vt 0.8627 0.1250
vt 0.8422 0.1165
vt 0.2910 0.0416
vt 0.1925 0.0416
vt 0.1925 0.0022
vt 0.2910 0.0022
vt 0.0941 0.0416
vt 0.0941 0.0022
vt 0.9026 0.9953
vt 0.8042 0.9953
vt 0.8042 0.9559
vt 0.9026 0.9559
vt 0.7058 0.9953
vt 0.7058 0.9559
vt 0.0940 0.9563
vt 0.1925 0.9563
vt 0.1925 0.9957
vt 0.0940 0.9957
vt 0.2909 0.9563
vt 0.2909 0.9957
vt 0.7120 0.0005
vt 0.8105 0.0005
vt 0.8105 0.0399
vt 0.7120 0.0399
vt 0.9089 0.0005
vt 0.9089 0.0399
vt 0.8337 0.0961
vt 0.8422 0.0756
vt 0.8627 0.0671
vt 0.8832 0.0756
vt 0.8916 0.0961
vt 0.8832 0.1165
vt 0.8627 0.1250
vt 0.8422 0.1165
vt 0.2910 0.0416
vt 0.1925 0.0416
vt 0.1925 0.0022
vt 0.2910 0.0022
vt 0.0941 0.0416
vt 0.0941 0.0022
vt 0.9026 0.9953
vt 0.8042 0.9953
vt 0.8042 0.9559
vt 0.9026 0.9559
vt 0.7058 0.9953
vt 0.7058 0.9559
vt 0.0940 0.9563
vt 0.1925 0.9563
vt 0.1925 0.9957
vt 0.0940 0.9957
vt 0.2909 0.9563
vt 0.2909 0.9957
vt 0.7120 0.0005
vt 0.8105 0.0005
vt 0.8105 0.0399
vt 0.7120 0.0399
vt 0.9089 0.0005
vt 0.9089 0.0399
vt 0.8337 0.0961
vt 0.8422 0.0756
vt 0.8627 0.0671
vt 0.8832 0.0756
vt 0.8916 0.0961
vt 0.8832 0.1165
vt 0.8627 0.1250
vt 0.8422 0.1165
vn 0.0000 0.0000 -1.0000
vn 0.0000 0.6657 -0.7462
vn 0.2855 0.6657 -0.6894
vn 0.3827 0.0000 -0.9239
vn 0.5276 0.6657 -0.5276
vn 0.7071 0.0000 -0.7071
vn 0.6894 0.6657 -0.2855
vn 0.9239 0.0000 -0.3827
vn 0.7462 0.6657 0.0000
vn 1.0000 0.0000 0.0000
vn 0.6894 0.6657 0.2855
vn 0.9239 0.0000 0.3827
vn 0.5276 0.6657 0.5276
vn 0.7071 0.0000 0.7071
vn 0.2855 0.6657 0.6894
vn 0.3827 0.0000 0.9239
vn 0.0000 0.6657 0.7462
vn 0.0000 0.0000 1.0000
vn -0.2855 0.6657 0.6894
vn -0.3827 0.0000 0.9239
vn -0.5276 0.6657 0.5276
vn -0.7071 0.0000 0.7071
vn -0.6894 0.6657 0.2855
vn -0.9239 0.0000 0.3827
vn -0.7462 0.6657 0.0000
vn -1.0000 0.0000 0.0000
vn -0.6894 0.6657 -0.2855
vn -0.9239 0.0000 -0.3827
vn -0.5276 0.6657 -0.5276
vn -0.7071 0.0000 -0.7071
vn -0.2855 0.6657 -0.6894
vn -0.3827 0.0000 -0.9239
vn 0.5490 0.6302 -0.5490
vn 0.7764 0.6302 0.0000
vn 0.5490 0.6302 0.5490
vn 0.0000 0.6302 0.7764
vn -0.5490 0.6302 0.5490
vn -0.7764 0.6302 0.0000
vn -0.5490 0.6302 -0.5490
vn 0.0000 0.6302 -0.7764
usemtl Material
s 1
f 1/1/1 2/2/2 4/3/3 3/4/4
f 3/5/4 4/6/3 6/7/5 5/8/6
f 5/8/6 6/7/5 8/9/7 7/10/8
f 7/11/8 8/12/7 10/13/9 9/14/10
f 9/14/10 10/13/9 12/15/11 11/16/12
f 11/17/12 12/18/11 14/19/13 13/20/14
f 13/20/14 14/19/13 16/21/15 15/22/16
f 15/23/16 16/24/15 18/25/17 17/26/18
f 17/26/18 18/25/17 20/27/19 19/28/20
f 19/29/20 20/30/19 22/31/21 21/32/22
f 21/32/22 22/31/21 24/33/23 23/34/24
f 23/35/24 24/36/23 26/37/25 25/38/26
f 25/38/26 26/37/25 28/39/27 27/40/28
f 27/41/28 28/42/27 30/43/29 29/44/30
f 4/45/3 2/46/2 32/47/31 30/48/29 28/49/27 26/50/25 24/51/23 22/52/21 20/53/19 18/54/17 16/55/15 14/56/13 12/57/11 10/58/9 8/59/7 6/60/5
f 29/44/30 30/43/29 32/61/31 31/62/32
f 31/63/32 32/64/31 2/2/2 1/1/1
s 2
f 41/65/33 43/66/34 35/67/10 34/68/6
f 43/66/34 44/69/35 36/70/14 35/67/10
f 44/71/35 45/72/36 37/73/18 36/74/14
f 45/72/36 46/75/37 38/76/22 37/73/18
f 46/77/37 47/78/38 39/79/26 38/80/22
f 47/78/38 48/81/39 40/82/30 39/79/26
f 48/83/39 42/84/40 33/85/1 40/86/30
f 42/84/40 41/87/33 34/88/6 33/85/1
f 47/89/38 46/90/37 45/91/36 44/92/35 43/93/34 41/94/33 42/95/40 48/96/39
s 3
f 57/97/33 59/98/34 51/99/10 50/100/6
f 59/98/34 60/101/35 52/102/14 51/99/10
f 60/103/35 61/104/36 53/105/18 52/106/14
f 61/104/36 62/107/37 54/108/22 53/105/18
f 62/109/37 63/110/38 55/111/26 54/112/22
f 63/110/38 64/113/39 56/114/30 55/111/26
f 64/115/39 58/116/40 49/117/1 56/118/30
f 58/116/40 57/119/33 50/120/6 49/117/1
f 63/121/38 62/122/37 61/123/36 60/124/35 59/125/34 57/126/33 58/127/40 64/128/39
s 4
f 73/129/33 75/130/34 67/131/10 66/132/6
f 75/130/34 76/133/35 68/134/14 67/131/10
f 76/135/35 77/136/36 69/137/18 68/138/14
f 77/136/36 78/139/37 70/140/22 69/137/18
f 78/141/37 79/142/38 71/143/26 70/144/22
f 79/142/38 80/145/39 72/146/30 71/143/26
f 80/147/39 74/148/40 65/149/1 72/150/30
f 74/148/40 73/151/33 66/152/6 65/149/1
f 79/153/38 78/154/37 77/155/36 76/156/35 75/157/34 73/158/33 74/159/40 80/160/39
s 5
f 89/161/33 91/162/34 83/163/10 82/164/6
f 91/162/34 92/165/35 84/166/14 83/163/10
f 92/167/35 93/168/36 85/169/18 84/170/14
f 93/168/36 94/171/37 86/172/22 85/169/18
f 94/173/37 95/174/38 87/175/26 86/176/22
f 95/174/38 96/177/39 88/178/30 87/175/26
f 96/179/39 90/180/40 81/181/1 88/182/30
f 90/180/40 89/183/33 82/184/6 81/181/1
f 95/185/38 94/186/37 93/187/36 92/188/35 91/189/34 89/190/33 90/191/40 96/192/39
s 6
f 105/193/33 107/194/34 99/195/10 98/196/6
f 107/194/34 108/197/35 100/198/14 99/195/10
f 108/199/35 109/200/36 101/201/18 100/202/14
f 109/200/36 110/203/37 102/204/22 101/201/18
f 110/205/37 111/206/38 103/207/26 102/208/22
f 111/206/38 112/209/39 104/210/30 103/207/26
f 112/211/39 106/212/40 97/213/1 104/214/30
f 106/212/40 105/215/33 98/216/6 97/213/1
f 111/217/38 110/218/37 109/219/36 108/220/35 107/221/34 105/222/33 106/223/40 112/224/39
s 7
f 121/225/33 123/226/34 115/227/10 114/228/6
f 123/226/34 124/229/35 116/230/14 115/227/10
f 124/231/35 125/232/36 117/233/18 116/234/14
f 125/232/36 126/235/37 118/236/22 117/233/18
f 126/237/37 127/238/38 119/239/26 118/240/22
f 127/238/38 128/241/39 120/242/30 119/239/26
f 128/243/39 122/244/40 113/245/1 120/246/30
f 122/244/40 121/247/33 114/248/6 113/245/1
f 127/249/38 126/250/37 125/251/36 124/252/35 123/253/34 121/254/33 122/255/40 128/256/39
s 8
f 137/257/33 139/258/34 131/259/10 130/260/6
f 139/258/34 140/261/35 132/262/14 131/259/10
f 140/263/35 141/264/36 133/265/18 132/266/14
f 141/264/36 142/267/37 134/268/22 133/265/18
f 142/269/37 143/270/38 135/271/26 134/272/22
f 143/270/38 144/273/39 136/274/30 135/271/26
f 144/275/39 138/276/40 129/277/1 136/278/30
f 138/276/40 137/279/33 130/280/6 129/277/1
f 143/281/38 142/282/37 141/283/36 140/284/35 139/285/34 137/286/33 138/287/40 144/288/39
s 9
f 153/289/33 155/290/34 147/291/10 146/292/6
f 155/290/34 156/293/35 148/294/14 147/291/10
f 156/295/35 157/296/36 149/297/18 148/298/14
f 157/296/36 158/299/37 150/300/22 149/297/18
f 158/301/37 159/302/38 151/303/26 150/304/22
f 159/302/38 160/305/39 152/306/30 151/303/26
f 160/307/39 154/308/40 145/309/1 152/310/30
f 154/308/40 153/311/33 146/312/6 145/309/1
f 159/313/38 158/314/37 157/315/36 156/316/35 155/317/34 153/318/33 154/319/40 160/320/39
