# Blender v2.80 (sub 39) OBJ File: 'industrial_set.blend'
# www.blender.org
g mesh
v -4.000000 2.150000 1.850001
v -4.000000 5.843003 1.850001
v -4.000000 2.150000 -1.849999
v -4.000000 5.843003 -1.849999
v 4.000000 -1.850000 1.850000
v 4.000000 1.843003 1.850000
v 4.000000 -1.850000 -1.850000
v 4.000000 1.843003 -1.850000
v -4.000000 2.000000 -2.000000
v -4.000000 2.000000 2.000000
v -4.000000 6.000000 2.000000
v -4.000000 6.000000 -2.000000
v 4.000000 2.000000 -2.000000
v 4.000000 -2.000000 -2.000000
v 4.000000 -2.000000 2.000000
v 4.000000 2.000000 2.000000
v 0.000000 0.000000 -2.000000
v 0.000000 4.000000 -2.000000
v 0.000000 0.000000 2.000000
v 0.000000 4.000000 2.000000
v 0.000000 0.150000 1.850000
v 0.000000 3.843003 1.850000
v 0.000000 3.843003 -1.850000
v 0.000000 0.150000 -1.850000
v 2.000000 1.000000 2.150000
v -2.000000 3.000000 2.150001
v -2.000000 5.143003 0.000000
v 2.000000 3.143003 0.000000
v 2.000000 1.000000 -2.150000
v -2.000000 3.000000 -2.150000
v -2.000000 0.850000 0.000000
v 2.000000 -1.150000 0.000000
v 2.000000 1.000000 1.924544
v -2.000000 3.000000 1.924544
v -2.000000 3.000000 -1.924543
v 2.000000 1.000000 -1.924544
v 2.000000 2.917547 0.000000
v -2.000000 4.917547 0.000000
v -2.000000 1.075456 0.000000
v 2.000000 -0.924544 0.000000
vt 0.206091 0.248166
vt 0.206091 0.492665
vt 0.104569 0.370416
vt 0.415229 0.492665
vt 0.212183 0.492665
vt 0.313706 0.370416
vt 0.206091 0.988997
vt 0.003046 0.988997
vt 0.104569 0.866748
vt 0.624366 0.492665
vt 0.421320 0.492665
vt 0.522843 0.370416
vt 0.989340 0.735330
vt 0.989340 0.509169
vt 0.996954 0.500000
vt 0.996954 0.744499
vt 0.801523 0.735330
vt 0.793909 0.744499
vt 0.801523 0.509169
vt 0.793909 0.500000
vt 0.801523 0.987164
vt 0.989340 0.987164
vt 0.996954 0.996333
vt 0.793909 0.996333
vt 0.989340 0.761002
vt 0.996954 0.751834
vt 0.801523 0.761002
vt 0.793909 0.751834
vt 0.600000 0.744499
vt 0.600000 0.500000
vt 0.693909 0.622249
vt 0.406092 0.744499
vt 0.406091 0.500000
vt 0.500000 0.622249
vt 0.630457 0.248166
vt 0.630457 0.003667
vt 0.724366 0.125917
vt 0.212183 0.500000
vt 0.400000 0.500000
vt 0.306091 0.622249
vt 0.624366 0.248166
vt 0.421320 0.248166
vt 0.522843 0.125917
vt 0.206091 0.744499
vt 0.003046 0.744499
vt 0.104569 0.622249
vt 0.415228 0.003667
vt 0.415229 0.248166
vt 0.313706 0.125917
vt 0.206091 0.003667
vt 0.104569 0.125917
vt 0.212183 0.744499
vt 0.400000 0.744499
vt 0.306092 0.866748
vt 0.818274 0.248166
vt 0.724366 0.370416
vt 0.406092 0.988997
vt 0.500000 0.866748
vt 0.787817 0.744499
vt 0.693909 0.866748
vt 0.212183 0.248166
vt 0.212183 0.003667
vt 0.421320 0.003668
vt 0.624366 0.003667
vt 0.003046 0.492665
vt 0.003046 0.248166
vt 0.003046 0.003668
vt 0.003046 0.500000
vt 0.206091 0.500000
vt 0.787817 0.500000
vt 0.787817 0.988998
vt 0.600000 0.988998
vt 0.818274 0.492665
vt 0.630457 0.492665
vt 0.818274 0.003667
vt 0.593909 0.500000
vt 0.593909 0.744499
vt 0.593909 0.988997
vt 0.400000 0.988997
vt 0.212183 0.988997
vn 0.0374 0.0747 -0.9965
vn -0.0748 0.0000 0.9972
vn -0.3911 -0.9203 0.0000
vn 0.3939 0.9192 0.0000
vn -1.0000 0.0000 0.0000
vn 1.0000 0.0000 0.0000
vn -0.0202 -0.0404 -0.9990
vn -0.4469 -0.8938 0.0360
vn 0.0201 0.0403 0.9990
vn 0.4199 0.9075 0.0000
vn 0.0374 0.0747 0.9965
vn -0.0372 0.0000 0.9993
vn -0.0372 0.0000 -0.9993
vn -0.0374 -0.0747 0.9965
vn 0.0748 0.0000 0.9972
vn 0.4962 0.8682 0.0000
vn 0.4463 0.8926 0.0638
vn 0.4463 0.8926 -0.0638
vn -0.0374 -0.0747 -0.9965
vn -0.0748 0.0000 -0.9972
vn 0.0748 0.0000 -0.9972
vn -0.4985 -0.8669 0.0000
vn -0.4462 -0.8924 -0.0669
vn -0.4462 -0.8924 0.0669
vn 0.0201 0.0403 -0.9990
vn 0.0372 0.0000 -0.9993
vn 0.0372 0.0000 0.9993
vn -0.0202 -0.0404 0.9990
vn -0.4469 -0.8938 -0.0360
vn -0.4199 -0.9075 0.0000
vn -0.4733 -0.8809 0.0000
vn 0.4733 0.8809 0.0000
vn 0.4469 0.8938 -0.0360
vn 0.4469 0.8938 0.0360
s off
f 18/1/1 13/2/1 29/3/1
f 11/4/2 10/5/2 26/6/2
f 14/7/3 15/8/3 32/9/3
f 12/10/4 11/11/4 27/12/4
f 1/13/5 3/14/5 9/15/5 10/16/5
f 2/17/5 1/13/5 10/16/5 11/18/5
f 4/19/5 2/17/5 11/18/5 12/20/5
f 3/14/5 4/19/5 12/20/5 9/15/5
f 8/21/6 7/22/6 14/23/6 13/24/6
f 7/22/6 5/25/6 15/26/6 14/23/6
f 6/27/6 8/21/6 13/24/6 16/28/6
f 5/25/6 6/27/6 16/28/6 15/26/6
f 22/29/7 6/30/7 33/31/7
f 23/32/8 8/33/8 37/34/8
f 24/35/9 7/36/9 36/37/9
f 5/38/10 7/39/10 40/40/10
f 18/41/4 20/42/4 28/43/4
f 17/44/3 19/45/3 31/46/3
f 16/47/11 20/48/11 25/49/11
f 12/50/1 18/1/1 30/51/1
f 21/52/10 24/53/10 39/54/10
f 24/35/12 23/55/12 35/56/12
f 4/57/8 23/32/8 38/58/8
f 22/29/13 21/59/13 34/60/13
f 19/61/14 15/62/14 25/49/14
f 20/48/2 19/61/2 25/49/2
f 15/62/15 16/47/15 25/49/15
f 19/61/15 20/48/15 26/6/15
f 10/5/14 19/61/14 26/6/14
f 20/48/11 11/4/11 26/6/11
f 20/42/16 18/41/16 27/12/16
f 11/11/17 20/42/17 27/12/17
f 18/41/18 12/10/18 27/12/18
f 16/63/16 13/64/16 28/43/16
f 13/64/18 18/41/18 28/43/18
f 20/42/17 16/63/17 28/43/17
f 14/65/19 17/66/19 29/3/19
f 17/66/20 18/1/20 29/3/20
f 13/2/21 14/65/21 29/3/21
f 17/66/19 9/67/19 30/51/19
f 18/1/21 17/66/21 30/51/21
f 9/67/20 12/50/20 30/51/20
f 10/68/22 9/69/22 31/46/22
f 9/69/23 17/44/23 31/46/23
f 19/45/24 10/68/24 31/46/24
f 19/45/22 17/44/22 32/9/22
f 15/8/24 19/45/24 32/9/24
f 17/44/23 14/7/23 32/9/23
f 5/70/25 21/59/25 33/31/25
f 21/59/26 22/29/26 33/31/26
f 6/30/13 5/70/13 33/31/13
f 1/71/26 2/72/26 34/60/26
f 2/72/7 22/29/7 34/60/7
f 21/59/25 1/71/25 34/60/25
f 4/73/27 3/74/27 35/56/27
f 3/74/9 24/35/9 35/56/9
f 23/55/28 4/73/28 35/56/28
f 8/75/28 23/55/28 36/37/28
f 23/55/27 24/35/27 36/37/27
f 7/36/12 8/75/12 36/37/12
f 6/76/29 22/77/29 37/34/29
f 22/77/30 23/32/30 37/34/30
f 8/33/31 6/76/31 37/34/31
f 22/77/29 2/78/29 38/58/29
f 23/32/31 22/77/31 38/58/31
f 2/78/30 4/57/30 38/58/30
f 3/79/32 1/80/32 39/54/32
f 1/80/33 21/52/33 39/54/33
f 24/53/34 3/79/34 39/54/34
f 24/53/32 21/52/32 40/40/32
f 7/39/34 24/53/34 40/40/34
f 21/52/33 5/38/33 40/40/33
g collider
v -4.000000 2.150000 1.850001
v -4.000000 5.843003 1.850001
v -4.000000 2.150000 -1.849999
v -4.000000 5.843003 -1.849999
v 4.000000 -1.850000 1.850000
v 4.000000 1.843003 1.850000
v 4.000000 -1.850000 -1.850000
v 4.000000 1.843003 -1.850000
v -4.000000 2.000000 -2.000000
v -4.000000 2.000000 2.000000
v -4.000000 6.000000 2.000000
v -4.000000 6.000000 -2.000000
v 4.000000 2.000000 -2.000000
v 4.000000 -2.000000 -2.000000
v 4.000000 -2.000000 2.000000
v 4.000000 2.000000 2.000000
vt 0.011019 0.083137
vt 0.205157 0.083137
vt 0.213028 0.086267
vt 0.003148 0.086267
vt 0.011019 0.006076
vt 0.003148 0.002800
vt 0.205157 0.006076
vt 0.213028 0.002800
vt 0.421333 0.082991
vt 0.421333 0.005930
vt 0.429204 0.002800
vt 0.429204 0.086267
vt 0.227195 0.005930
vt 0.219324 0.002800
vt 0.227195 0.082991
vt 0.219324 0.086267
vt 0.623222 0.420139
vt 0.435500 0.503607
vt 0.435500 0.086267
vt 0.623222 0.002800
vt 0.213028 0.503607
vt 0.003148 0.503607
vt 0.227195 0.423269
vt 0.421333 0.423269
vt 0.817241 0.503607
vt 0.629519 0.420139
vt 0.629519 0.002800
vt 0.817241 0.086267
vt 0.205157 0.423415
vt 0.011019 0.423415
vt 0.996852 0.502800
vt 0.996852 0.920139
vt 0.823537 0.997200
vt 0.823537 0.579861
vt 0.823537 0.002800
vt 0.996852 0.079861
vt 0.996852 0.497200
vt 0.823537 0.420139
vt 0.429204 0.503606
vt 0.219324 0.503606
vn -1.0000 0.0000 0.0000
vn 1.0000 0.0000 0.0000
vn -0.0000 0.0000 -1.0000
vn -0.4472 -0.8944 0.0000
vn 0.4472 0.8944 0.0000
vn 0.0000 0.0000 1.0000
s off
f 41/81/35 43/82/35 49/83/35 50/84/35
f 42/85/35 41/81/35 50/84/35 51/86/35
f 44/87/35 42/85/35 51/86/35 52/88/35
f 43/82/35 44/87/35 52/88/35 49/83/35
f 48/89/36 47/90/36 54/91/36 53/92/36
f 47/90/36 45/93/36 55/94/36 54/91/36
f 46/95/36 48/89/36 53/92/36 56/96/36
f 45/93/36 46/95/36 56/96/36 55/94/36
f 49/97/37 52/98/37 53/99/37 54/100/37
f 49/83/38 54/101/38 55/102/38 50/84/38
f 41/103/39 45/93/39 47/90/39 43/104/39
f 51/105/40 50/106/40 55/107/40 56/108/40
f 42/85/38 44/87/38 48/109/38 46/110/38
f 42/111/37 46/112/37 45/113/37 41/114/37
f 47/115/40 48/116/40 44/117/40 43/118/40
f 53/92/39 52/119/39 51/120/39 56/96/39
