# Exported from Wings 3D 1.5.4
mtllib FanCase.mtl
o case
#92 vertices, 132 faces
v 20.15639100 13.76744228 -20.15638841
v -20.15641400 13.76743828 -20.15638841
v -20.15641200 13.76743628 20.15640941
v 20.15639300 13.76744028 20.15640941
v -10.90857900 13.76743928 -26.33559315
v -1.4000000e-5 13.76744128 -28.50544271
v 10.90855400 13.76744128 -26.33559315
v -26.33561500 13.76743728 10.90857528
v -28.50546400 13.76743628 1.1500000e-5
v -26.33561500 13.76743828 -10.90855228
v 10.90856400 13.76743928 26.33561115
v -1.0000000e-6 13.76743828 28.50545971
v -10.90856900 13.76743728 26.33561115
v 26.33560000 13.76744228 -10.90856228
v 28.50544900 13.76744228 -5.0000000e-7
v 26.33560000 13.76744128 10.90856728
v -9.81771900 -15.99999700 -23.70203369
v -18.14077000 -15.99999700 -18.14075182
v -23.70205500 -15.99999800 -9.81769651
v -25.65491500 -16.00000000 9.5000000e-6
v -23.70205300 -16.00000000 9.81771651
v -18.14076800 -15.99999800 18.14076581
v -9.81771000 -15.99999800 23.70205069
v 1.5473733e-15 -15.99999800 25.65491229
v 9.81770800 -15.99999700 23.70205069
v 18.14075900 -15.99999700 18.14076581
v 23.70204200 -15.99999500 9.81770851
v 25.65490700 -15.99999300 -5.0000000e-7
v 23.70204000 -15.99999300 -9.81770551
v 18.14075700 -15.99999500 -18.14075182
v 9.81769900 -15.99999500 -23.70203369
v -1.0000000e-5 -15.99999500 -25.65489929
v 20.15639100 16.00000000 -20.15638841
v -20.15641400 15.99999700 -20.15638841
v -20.15641200 15.99999500 20.15640941
v 20.15639300 15.99999900 20.15640941
v -10.90858000 15.99999800 -26.33559315
v -1.4000000e-5 15.99999900 -28.50544271
v 10.90855300 15.99999900 -26.33559315
v -26.33561500 15.99999500 10.90857528
v -28.50546400 15.99999500 1.2500000e-5
v -26.33561500 15.99999600 -10.90855228
v 10.90856400 15.99999800 26.33561115
v -1.0000000e-6 15.99999600 28.50545971
v -10.90856900 15.99999600 26.33561115
v 26.33560000 16.00000000 -10.90856228
v 28.50544900 16.00000000 -5.0000000e-7
v 26.33560000 15.99999900 10.90856728
v -9.81772100 15.99999800 -23.70203369
v -18.14077400 15.99999700 -18.14074782
v -23.70205700 15.99999600 -9.81769551
v -25.65492000 15.99999600 1.1500000e-5
v -23.70205700 15.99999500 9.81771851
v -18.14077200 15.99999500 18.14076881
v -9.81771200 15.99999600 23.70205069
v -2.0000000e-6 15.99999700 25.65491629
v 9.81770700 15.99999800 23.70205069
v 18.14075300 15.99999900 18.14076881
v 23.70204000 15.99999900 9.81770851
v 25.65490200 15.99999900 5.0000000e-7
v 23.70204000 16.00000000 -9.81770451
v 18.14075100 16.00000000 -18.14074782
v 9.81769800 15.99999900 -23.70203369
v -1.3000000e-5 15.99999900 -25.65489529
v -9.97735900 13.76743928 -24.08743261
v -18.43574300 13.76743728 18.43574076
v 18.43572400 13.76744028 18.43574076
v 18.43572300 13.76744228 -18.43571976
v 31.99998100 13.76744428 -32.00000000
v -32.00000000 -1.11628186 32.00000000
v -32.00000000 13.76743528 32.00000000
v -18.43574500 13.76743828 -18.43571976
v -24.08745600 13.76743728 9.97735547
v 9.97734500 13.76743928 24.08744961
v 24.08743900 13.76744228 -9.97734247
v -32.00000000 -1.11627886 -31.99998100
v -32.00000000 13.76743828 -31.99998100
v 31.99998100 -1.11627386 -32.00000000
v -26.07207300 13.76743728 1.1500000e-5
v -2.0000000e-6 13.76743828 26.07206920
v 26.07205400 13.76744128 5.0000000e-7
v -1.3000000e-5 13.76744028 -26.07204720
v -1.0000000e-6 13.76743828 32.00000000
v -32.00000000 13.76743628 1.2500000e-5
v 31.99999300 13.76744228 -5.0000000e-7
v -24.08745600 13.76743828 -9.97733247
v -9.97734900 13.76743728 24.08744961
v 24.08743900 13.76744128 9.97734647
v 9.97733500 13.76744128 -24.08743261
v 32.00000000 -1.11627686 32.00000000
v 32.00000000 13.76744128 32.00000000
v -1.4000000e-5 13.76744128 -31.99998900
vt 5.9680000e-3 0.96564500
vt 5.9680000e-3 0.99272500
vt 1.2331000e-2 0.54358300
vt 1.2331000e-2 0.93173300
vt 1.9871000e-2 1.0275000e-2
vt 1.9871000e-2 0.23203700
vt 2.0944000e-2 0.24560100
vt 2.0944000e-2 0.46736300
vt 0.12051300 0.96564500
vt 0.12051300 0.99272500
vt 0.12687700 0.54358300
vt 0.12687700 0.93173300
vt 0.13324100 0.96564500
vt 0.13324100 0.99272500
vt 0.23505900 0.96564500
vt 0.23505900 0.99272500
vt 0.24142300 0.54358300
vt 0.24142300 0.93173300
vt 0.24778700 0.96564500
vt 0.24778700 0.99272500
vt 0.34960500 0.96564500
vt 0.34960500 0.99272500
vt 0.35596900 0.54358300
vt 0.35596900 0.93173300
vt 0.36233300 0.96564500
vt 0.36233300 0.99272500
vt 0.47051500 0.54358300
vt 0.47051500 0.93173300
vt 0.47687900 0.96564500
vt 0.47687900 0.99272500
vt 0.49019100 0.49065100
vt 0.49019100 0.74065100
vt 0.49019100 0.99065100
vt 0.49665900 1.0275000e-2
vt 0.49773200 0.24560100
vt 0.53650300 0.74065100
vt 0.55200800 0.66270300
vt 0.55200800 0.81859900
vt 0.59616200 0.59662200
vt 0.59616200 0.88468000
vt 0.66224300 0.55246800
vt 0.66224300 0.92883400
vt 0.74019100 0.49065100
vt 0.74019100 0.53696300
vt 0.74019100 0.94433900
vt 0.74019100 0.99065100
vt 0.81813900 0.55246800
vt 0.81813900 0.92883400
vt 0.88422000 0.59662200
vt 0.88422000 0.88468000
vt 0.92837400 0.66270300
vt 0.92837400 0.81859900
vt 0.94387900 0.74065100
vt 0.97344700 1.0275000e-2
vt 0.97344700 0.23203700
vt 0.97452000 0.24560100
vt 0.97452000 0.46736300
vt 0.99019100 0.49065100
vt 0.99019100 0.74065100
vt 0.99019100 0.99065100
vn 0.75233862 0.0000000e+0 -0.65877660
vn -0.65877628 -8.4389481e-8 -0.75233889
vn -0.75233888 0.0000000e+0 0.65877630
vn 0.65877627 0.0000000e+0 0.75233890
vn -0.32072223 -1.1402313e-7 -0.94717330
vn 6.6158860e-2 2.9633667e-8 -0.99780910
vn 0.44296772 1.1402316e-7 -0.89653756
vn -0.94717331 -2.9633657e-8 0.32072220
vn -0.99780910 -2.6367239e-15 -6.6158874e-2
vn -0.89653762 0.0000000e+0 -0.44296760
vn 0.32072220 0.0000000e+0 0.94717330
vn -6.6158824e-2 0.0000000e+0 0.99780911
vn -0.44296739 0.0000000e+0 0.89653773
vn 0.94717321 0.0000000e+0 -0.32072247
vn 0.99780911 0.0000000e+0 6.6158821e-2
vn 0.89653759 0.0000000e+0 0.44296766
vn 0.44296780 4.2148535e-9 0.89653752
vn 0.75233901 1.1735318e-8 0.65877615
vn 0.94717337 7.8289859e-8 0.32072202
vn 0.99780910 1.4964878e-7 -6.6158902e-2
vn 0.89653751 1.4564034e-7 -0.44296783
vn 0.65877589 1.1466910e-7 -0.75233923
vn 0.32072206 6.1620519e-8 -0.94717335
vn -6.6158929e-2 8.1083299e-8 -0.99780910
vn -0.44296778 -1.6846518e-8 -0.89653753
vn -0.75233915 -6.1720339e-8 -0.65877599
vn -0.94717336 -8.8312422e-8 -0.32072203
vn -0.99780910 -1.0600594e-7 6.6158919e-2
vn -0.89653732 -8.4374547e-8 0.44296821
vn -0.65877601 -1.5287882e-7 0.75233913
vn -0.32072198 -5.5732880e-8 0.94717338
vn 6.6158795e-2 -7.9015854e-8 0.99780911
vn -7.5781914e-8 1.00000000 8.4538869e-8
vn -7.3723131e-8 1.00000000 7.3723193e-8
vn -1.0773274e-7 1.00000000 3.4009721e-8
vn -1.0915870e-7 1.00000000 3.8287559e-8
vn -0.44721360 0.0000000e+0 0.89442719
vn -3.5435619e-8 1.00000000 3.5435603e-8
vn -1.2554012e-7 1.00000000 4.5710146e-8
vn -9.8636956e-8 1.00000000 2.1768916e-8
vn -3.5763553e-8 1.00000000 7.7966039e-8
vn -0.94868331 0.0000000e+0 -0.31622774
vn 0.70710657 -3.1672542e-8 -0.70710699
vn -1.6669289e-7 1.00000000 4.3427844e-8
vn -9.6950123e-8 1.00000000 5.6201033e-9
vn -8.0131245e-8 1.00000000 4.7655862e-8
vn -1.0274154e-7 1.00000000 1.4519727e-7
vn -1.1421555e-7 1.00000000 4.3057320e-8
vn -8.4345235e-8 1.00000000 2.6740152e-8
vn -5.7532450e-8 1.00000000 2.0670943e-8
vn -1.1915397e-7 1.00000000 1.0147439e-7
vn 0.44721365 0.0000000e+0 0.89442716
vn 0.65877594 8.4389492e-8 -0.75233920
vn 0.65877594 8.4389492e-8 -0.75233920
vn 0.65877594 8.4389492e-8 -0.75233920
vn -5.2238881e-8 1.00000000 -3.5701518e-8
vn -5.2238881e-8 1.00000000 -3.5701518e-8
vn -5.2238881e-8 1.00000000 -3.5701518e-8
vn -0.75233914 0.0000000e+0 -0.65877600
vn -0.75233914 0.0000000e+0 -0.65877600
vn -0.75233914 0.0000000e+0 -0.65877600
vn -5.7308643e-8 1.00000000 7.3845957e-8
vn -5.7308643e-8 1.00000000 7.3845957e-8
vn -5.7308643e-8 1.00000000 7.3845957e-8
vn -0.65877589 0.0000000e+0 0.75233923
vn -0.65877589 0.0000000e+0 0.75233923
vn -0.65877589 0.0000000e+0 0.75233923
vn -5.2238857e-8 1.00000000 -3.5701523e-8
vn -5.2238857e-8 1.00000000 -3.5701523e-8
vn -5.2238857e-8 1.00000000 -3.5701523e-8
vn 0.75233908 0.0000000e+0 0.65877607
vn 0.75233908 0.0000000e+0 0.65877607
vn 0.75233908 0.0000000e+0 0.65877607
vn -2.1607099e-8 1.00000000 2.1607092e-8
vn -2.1607099e-8 1.00000000 2.1607092e-8
vn -2.1607099e-8 1.00000000 2.1607092e-8
vn -0.44296782 -1.1402313e-7 -0.89653751
vn -0.44296782 -1.1402313e-7 -0.89653751
vn -0.44296782 -1.1402313e-7 -0.89653751
vn -8.1205860e-8 1.00000000 4.6293767e-8
vn -8.1205860e-8 1.00000000 4.6293767e-8
vn -8.1205860e-8 1.00000000 4.6293767e-8
vn -6.6158895e-2 -2.9633659e-8 -0.99780910
vn -6.6158895e-2 -2.9633659e-8 -0.99780910
vn -6.6158895e-2 -2.9633659e-8 -0.99780910
vn -6.2183257e-8 1.00000000 1.1693708e-8
vn -6.2183257e-8 1.00000000 1.1693708e-8
vn -6.2183257e-8 1.00000000 1.1693708e-8
vn 0.32072216 1.1402316e-7 -0.94717332
vn 0.32072216 1.1402316e-7 -0.94717332
vn 0.32072216 1.1402316e-7 -0.94717332
vn -2.8231013e-8 1.00000000 -1.1693657e-8
vn -2.8231013e-8 1.00000000 -1.1693657e-8
vn -2.8231013e-8 1.00000000 -1.1693657e-8
vn -0.89653755 0.0000000e+0 0.44296775
vn -0.89653755 0.0000000e+0 0.44296775
vn -0.89653755 0.0000000e+0 0.44296775
vn 0.0000000e+0 1.00000000 3.3852535e-16
vn 0.0000000e+0 1.00000000 3.3852535e-16
vn 0.0000000e+0 1.00000000 3.3852535e-16
vn -0.99780910 -2.6367239e-15 6.6158891e-2
vn -0.99780910 -2.6367239e-15 6.6158891e-2
vn -0.99780910 -2.6367239e-15 6.6158891e-2
vn -2.3387346e-7 1.00000000 6.4509275e-8
vn -2.3387346e-7 1.00000000 6.4509275e-8
vn -2.3387346e-7 1.00000000 6.4509275e-8
vn -0.94717334 2.9633654e-8 -0.32072211
vn -0.94717334 2.9633654e-8 -0.32072211
vn -0.94717334 2.9633654e-8 -0.32072211
vn -1.2863042e-7 1.00000000 3.5527867e-8
vn -1.2863042e-7 1.00000000 3.5527867e-8
vn -1.2863042e-7 1.00000000 3.5527867e-8
vn 0.44296783 0.0000000e+0 0.89653751
vn 0.44296783 0.0000000e+0 0.89653751
vn 0.44296783 0.0000000e+0 0.89653751
vn -1.0943693e-7 1.00000000 5.7987419e-8
vn -1.0943693e-7 1.00000000 5.7987419e-8
vn -1.0943693e-7 1.00000000 5.7987419e-8
vn 6.6158876e-2 0.0000000e+0 0.99780910
vn 6.6158876e-2 0.0000000e+0 0.99780910
vn 6.6158876e-2 0.0000000e+0 0.99780910
vn -9.0414250e-8 1.00000000 2.5726089e-7
vn -9.0414250e-8 1.00000000 2.5726089e-7
vn -9.0414250e-8 1.00000000 2.5726089e-7
vn -0.32072195 0.0000000e+0 0.94717339
vn -0.32072195 0.0000000e+0 0.94717339
vn -0.32072195 0.0000000e+0 0.94717339
vn -8.2858945e-8 1.00000000 9.2250141e-8
vn -8.2858945e-8 1.00000000 9.2250141e-8
vn -8.2858945e-8 1.00000000 9.2250141e-8
vn 0.89653729 0.0000000e+0 -0.44296827
vn 0.89653729 0.0000000e+0 -0.44296827
vn 0.89653729 0.0000000e+0 -0.44296827
vn 0.0000000e+0 1.00000000 0.0000000e+0
vn 0.0000000e+0 1.00000000 0.0000000e+0
vn 0.0000000e+0 1.00000000 0.0000000e+0
vn 0.99780910 0.0000000e+0 -6.6158926e-2
vn 0.99780910 0.0000000e+0 -6.6158926e-2
vn 0.99780910 0.0000000e+0 -6.6158926e-2
vn -2.3387322e-7 1.00000000 6.4509273e-8
vn -2.3387322e-7 1.00000000 6.4509273e-8
vn -2.3387322e-7 1.00000000 6.4509273e-8
vn 0.94717333 0.0000000e+0 0.32072211
vn 0.94717333 0.0000000e+0 0.32072211
vn 0.94717333 0.0000000e+0 0.32072211
vn -1.1693662e-7 1.00000000 7.2968817e-9
vn -1.1693662e-7 1.00000000 7.2968817e-9
vn -1.1693662e-7 1.00000000 7.2968817e-9
vn 0.32072219 -1.9462786e-8 0.94717331
vn 0.32072219 -1.9462786e-8 0.94717331
vn 0.32072219 -1.9462786e-8 0.94717331
vn -9.3551026e-8 1.00000000 2.4686698e-8
vn -9.3551026e-8 1.00000000 2.4686698e-8
vn -9.3551026e-8 1.00000000 2.4686698e-8
vn 0.65877619 1.1775281e-8 0.75233897
vn 0.65877619 1.1775281e-8 0.75233897
vn 0.65877619 1.1775281e-8 0.75233897
vn -7.6982731e-8 1.00000000 5.8607940e-8
vn -7.6982731e-8 1.00000000 5.8607940e-8
vn -7.6982731e-8 1.00000000 5.8607940e-8
vn 0.89653758 4.2150907e-8 0.44296768
vn 0.89653758 4.2150907e-8 0.44296768
vn 0.89653758 4.2150907e-8 0.44296768
vn -3.5701556e-8 1.00000000 5.2238876e-8
vn -3.5701556e-8 1.00000000 5.2238876e-8
vn -3.5701556e-8 1.00000000 5.2238876e-8
vn 0.99780911 1.2265870e-7 6.6158753e-2
vn 0.99780911 1.2265870e-7 6.6158753e-2
vn 0.99780911 1.2265870e-7 6.6158753e-2
vn -2.3387346e-7 1.00000000 6.4509275e-8
vn -2.3387346e-7 1.00000000 6.4509275e-8
vn -2.3387346e-7 1.00000000 6.4509275e-8
vn 0.94717332 1.4883567e-7 -0.32072216
vn 0.94717332 1.4883567e-7 -0.32072216
vn 0.94717332 1.4883567e-7 -0.32072216
vn -1.1693672e-7 1.00000000 5.7212416e-8
vn -1.1693672e-7 1.00000000 5.7212416e-8
vn -1.1693672e-7 1.00000000 5.7212416e-8
vn 0.75233876 1.4991502e-7 -0.65877643
vn 0.75233876 1.4991502e-7 -0.65877643
vn 0.75233876 1.4991502e-7 -0.65877643
vn -2.4007863e-8 1.00000000 -2.4007856e-8
vn -2.4007863e-8 1.00000000 -2.4007856e-8
vn -2.4007863e-8 1.00000000 -2.4007856e-8
vn 0.44296753 6.5895191e-8 -0.89653765
vn 0.44296753 6.5895191e-8 -0.89653765
vn 0.44296753 6.5895191e-8 -0.89653765
vn -8.3606642e-8 1.00000000 -4.8694491e-8
vn -8.3606642e-8 1.00000000 -4.8694491e-8
vn -8.3606642e-8 1.00000000 -4.8694491e-8
vn 6.6158775e-2 8.7285697e-8 -0.99780911
vn 6.6158775e-2 8.7285697e-8 -0.99780911
vn 6.6158775e-2 8.7285697e-8 -0.99780911
vn -6.5320010e-8 1.00000000 2.2088058e-7
vn -6.5320010e-8 1.00000000 2.2088058e-7
vn -6.5320010e-8 1.00000000 2.2088058e-7
vn -0.32072220 2.9485347e-8 -0.94717330
vn -0.32072220 2.9485347e-8 -0.94717330
vn -0.32072220 2.9485347e-8 -0.94717330
vn -9.8521894e-8 1.00000000 1.5331710e-7
vn -9.8521894e-8 1.00000000 1.5331710e-7
vn -9.8521894e-8 1.00000000 1.5331710e-7
vn -0.65877630 -4.9985018e-8 -0.75233888
vn -0.65877630 -4.9985018e-8 -0.75233888
vn -0.65877630 -4.9985018e-8 -0.75233888
vn -5.2974908e-8 1.00000000 3.4600070e-8
vn -5.2974908e-8 1.00000000 3.4600070e-8
vn -5.2974908e-8 1.00000000 3.4600070e-8
vn -0.89653766 -7.3616616e-8 -0.44296753
vn -0.89653766 -7.3616616e-8 -0.44296753
vn -0.89653766 -7.3616616e-8 -0.44296753
vn 0.0000000e+0 1.00000000 -1.6926239e-16
vn 0.0000000e+0 1.00000000 -1.6926239e-16
vn 0.0000000e+0 1.00000000 -1.6926239e-16
vn -0.99780910 -1.2472616e-7 -6.6158878e-2
vn -0.99780910 -1.2472616e-7 -6.6158878e-2
vn -0.99780910 -1.2472616e-7 -6.6158878e-2
vn -2.3387322e-7 1.00000000 6.4509273e-8
vn -2.3387322e-7 1.00000000 6.4509273e-8
vn -2.3387322e-7 1.00000000 6.4509273e-8
vn -0.94717319 -6.1991823e-8 0.32072253
vn -0.94717319 -6.1991823e-8 0.32072253
vn -0.94717319 -6.1991823e-8 0.32072253
vn -1.1693660e-7 1.00000000 5.7212391e-8
vn -1.1693660e-7 1.00000000 5.7212391e-8
vn -1.1693660e-7 1.00000000 5.7212391e-8
vn -0.75233876 -1.5287883e-7 0.65877643
vn -0.75233876 -1.5287883e-7 0.65877643
vn -0.75233876 -1.5287883e-7 0.65877643
vn -2.4007868e-8 1.00000000 -2.4007861e-8
vn -2.4007868e-8 1.00000000 -2.4007861e-8
vn -2.4007868e-8 1.00000000 -2.4007861e-8
vn -0.44296755 -7.8526853e-8 0.89653764
vn -0.44296755 -7.8526853e-8 0.89653764
vn -0.44296755 -7.8526853e-8 0.89653764
vn -5.2238881e-8 1.00000000 -3.5701518e-8
vn -5.2238881e-8 1.00000000 -3.5701518e-8
vn -5.2238881e-8 1.00000000 -3.5701518e-8
vn -6.6158897e-2 -8.5218246e-8 0.99780910
vn -6.6158897e-2 -8.5218246e-8 0.99780910
vn -6.6158897e-2 -8.5218246e-8 0.99780910
vn -3.3952253e-8 1.00000000 1.1746812e-14
vn -3.3952253e-8 1.00000000 1.1746812e-14
vn -3.3952253e-8 1.00000000 1.1746812e-14
vn 0.70710653 0.0000000e+0 -0.70710704
vn 0.70710653 0.0000000e+0 -0.70710704
vn -9.2779935e-8 1.00000000 7.0832538e-8
vn -9.2779935e-8 1.00000000 7.0832538e-8
vn -9.2779935e-8 1.00000000 7.0832538e-8
vn -9.2779935e-8 1.00000000 7.0832538e-8
vn -9.2779935e-8 1.00000000 7.0832538e-8
vn -0.89442719 0.0000000e+0 0.44721360
vn -0.89442719 0.0000000e+0 0.44721360
vn -0.89442719 0.0000000e+0 0.44721360
vn -1.1451638e-7 1.00000000 4.0578149e-8
vn -1.1451638e-7 1.00000000 4.0578149e-8
vn -1.1451638e-7 1.00000000 4.0578149e-8
vn -1.1451638e-7 1.00000000 4.0578149e-8
vn -1.1451638e-7 1.00000000 4.0578149e-8
vn -0.44721379 9.0141430e-8 -0.89442709
vn -0.44721379 9.0141430e-8 -0.89442709
vn -0.44721379 9.0141430e-8 -0.89442709
vn -8.3853493e-8 1.00000000 8.0054076e-8
vn -8.3853493e-8 1.00000000 8.0054076e-8
vn -8.3853493e-8 1.00000000 8.0054076e-8
vn -8.3853493e-8 1.00000000 8.0054076e-8
vn -8.3853493e-8 1.00000000 8.0054076e-8
vn 0.0000000e+0 0.0000000e+0 1.00000000
vn 0.0000000e+0 0.0000000e+0 1.00000000
vn 0.0000000e+0 0.0000000e+0 1.00000000
vn -9.5909016e-8 1.00000000 -2.7223980e-9
vn -9.5909016e-8 1.00000000 -2.7223980e-9
vn -9.5909016e-8 1.00000000 -2.7223980e-9
vn -1.00000000 0.0000000e+0 0.0000000e+0
vn -1.00000000 0.0000000e+0 0.0000000e+0
vn -1.7044656e-7 1.00000000 5.3473991e-8
vn -1.7044656e-7 1.00000000 5.3473991e-8
vn -1.7044656e-7 1.00000000 5.3473991e-8
vn 1.00000000 -1.6796880e-7 -2.9687501e-7
vn 1.00000000 -1.6796880e-7 -2.9687501e-7
vn -1.6869269e-7 1.00000000 4.6875050e-8
vn -1.6869269e-7 1.00000000 4.6875050e-8
vn 0.89442728 -1.5023588e-7 0.44721341
vn 0.89442728 -1.5023588e-7 0.44721341
vn 0.89442728 -1.5023588e-7 0.44721341
vn -9.5796916e-8 1.00000000 1.9354962e-8
vn -9.5796916e-8 1.00000000 1.9354962e-8
vn -9.5796916e-8 1.00000000 1.9354962e-8
vn -9.5796916e-8 1.00000000 1.9354962e-8
vn -9.5796916e-8 1.00000000 1.9354962e-8
vn -9.5796916e-8 1.00000000 1.9354962e-8
vn -2.9687509e-7 1.0078119e-7 -1.00000000
vn -2.9687509e-7 1.0078119e-7 -1.00000000
vn -1.0709400e-7 1.00000000 1.5186648e-7
vn -1.0709400e-7 1.00000000 1.5186648e-7
vn -1.0709400e-7 1.00000000 1.5186648e-7
g case
usemtl default3
s 1
f 1/16/1 46/25/131 14/26/14
f 2/16/2 37/25/77 5/26/5
f 3/16/3 40/25/95 8/26/8
f 4/16/4 43/25/113 11/26/11
f 5/22/5 38/29/83 6/30/6
f 6/2/6 39/13/89 7/14/7
f 7/10/7 33/19/53 1/20/1
f 7/10/7 39/9/90 33/19/54
f 8/22/8 41/29/101 9/30/9
f 9/2/9 42/13/107 10/14/10
f 10/10/10 34/19/59 2/20/2
f 10/10/10 42/9/108 34/19/60
f 11/22/11 44/29/119 12/30/12
f 12/2/12 45/13/125 13/14/13
f 13/10/13 35/19/65 3/20/3
f 13/10/13 45/9/126 35/19/66
f 14/22/14 47/29/137 15/30/15
f 15/2/15 48/13/143 16/14/16
f 16/10/16 36/19/71 4/20/4
f 16/10/16 48/9/144 36/19/72
f 17/23/17 50/18/155 18/17/18
f 18/17/18 51/12/161 19/11/19
f 19/11/19 52/4/167 20/3/20
f 20/27/20 53/24/173 21/23/21
f 21/23/21 54/18/179 22/17/22
f 22/17/22 55/12/185 23/11/23
f 23/11/23 56/4/191 24/3/24
f 24/27/24 57/24/197 25/23/25
f 25/23/25 58/18/203 26/17/26
f 26/17/26 59/12/209 27/11/27
f 27/11/27 60/4/215 28/3/28
f 28/27/28 61/24/221 29/23/29
f 29/23/29 62/18/227 30/17/30
f 30/17/30 63/12/233 31/11/31
f 31/11/31 64/4/239 32/3/32
f 32/27/32 49/24/149 17/23/17
f 32/27/32 64/28/240 49/24/150
f 33/15/55 46/25/132 1/16/1
f 34/15/61 37/25/78 2/16/2
f 35/15/67 40/25/96 3/16/3
f 36/15/73 43/25/114 4/16/4
f 37/21/79 38/29/84 5/22/5
f 38/1/85 39/13/91 6/2/6
f 40/21/97 41/29/102 8/22/8
f 41/1/103 42/13/109 9/2/9
f 43/21/115 44/29/120 11/22/11
f 44/1/121 45/13/127 12/2/12
f 46/21/133 47/29/138 14/22/14
f 47/1/139 48/13/145 15/2/15
f 49/24/151 50/18/156 17/23/17
f 50/18/157 51/12/162 18/17/18
f 51/12/163 52/4/168 19/11/19
f 52/28/169 53/24/174 20/27/20
f 53/24/175 54/18/180 21/23/21
f 54/18/181 55/12/186 22/17/22
f 55/12/187 56/4/192 23/11/23
f 56/28/193 57/24/198 24/27/24
f 57/24/199 58/18/204 25/23/25
f 58/18/205 59/12/210 26/17/26
f 59/12/211 60/4/216 27/11/27
f 60/28/217 61/24/222 28/27/28
f 61/24/223 62/18/228 29/23/29
f 62/18/229 63/12/234 30/17/30
f 63/12/235 64/4/241 31/11/31
f 69/56/245 85/35/279 78/57/43
f 70/6/37 83/34/268 71/5/252
f 70/6/37 90/55/52 83/34/269
f 71/7/253 76/57/42 70/8/37
f 71/7/254 84/35/274 76/57/42
f 76/57/42 84/35/275 77/56/260
f 77/5/261 78/55/43 76/6/42
f 77/5/262 92/34/292 78/55/43
f 78/57/43 91/7/283 90/8/52
f 78/55/43 92/34/293 69/54/246
f 85/35/280 91/7/284 78/57/43
f 90/55/52 91/54/285 83/34/270
s 2
f 33/15/56 62/18/230 46/25/134
f 33/19/57 63/12/236 62/18/231
f 34/15/62 50/18/158 37/25/80
f 34/19/63 51/12/164 50/18/159
f 35/15/68 54/18/182 40/25/98
f 35/19/69 55/12/188 54/18/183
f 36/15/74 58/18/206 43/25/116
f 36/19/75 59/12/212 58/18/207
f 37/21/81 49/24/152 38/29/86
f 37/25/82 50/18/160 49/24/153
f 38/1/87 64/4/242 39/13/92
f 39/9/93 63/12/237 33/19/58
f 39/13/94 64/4/243 63/12/238
f 40/21/99 53/24/176 41/29/104
f 40/25/100 54/18/184 53/24/177
f 41/1/105 52/4/170 42/13/110
f 41/29/106 53/24/178 52/28/171
f 42/9/111 51/12/165 34/19/64
f 42/13/112 52/4/172 51/12/166
f 43/21/117 57/24/200 44/29/122
f 43/25/118 58/18/208 57/24/201
f 44/1/123 56/4/194 45/13/128
f 44/29/124 57/24/202 56/28/195
f 45/9/129 55/12/189 35/19/70
f 45/13/130 56/4/196 55/12/190
f 46/21/135 61/24/224 47/29/140
f 46/25/136 62/18/232 61/24/225
f 47/1/141 60/4/218 48/13/146
f 47/29/142 61/24/226 60/28/219
f 48/9/147 59/12/213 36/19/76
f 48/13/148 60/4/220 59/12/214
f 49/24/154 64/28/244 38/29/88
f 65/37/33 77/31/263 72/39/38
f 65/37/33 82/36/47 77/31/264
f 66/49/34 73/47/39 71/58/255
f 67/50/35 91/60/286 88/48/50
f 68/40/36 75/42/41 69/33/247
f 69/33/248 89/38/51 68/40/36
f 69/33/249 92/32/294 89/38/51
f 71/58/256 87/51/49 66/49/34
f 73/47/39 79/44/44 71/58/257
f 74/52/40 91/60/287 67/50/35
f 75/42/41 81/45/46 69/33/250
f 77/31/265 86/41/48 72/39/38
f 79/44/44 84/43/276 71/58/258
f 79/44/44 86/41/48 84/43/277
f 80/53/45 87/51/49 83/59/271
f 80/53/45 91/60/288 74/52/40
f 81/45/46 85/46/281 69/33/251
f 81/45/46 91/60/289 85/46/282
f 82/36/47 92/32/295 77/31/266
f 83/59/272 87/51/49 71/58/259
f 83/59/273 91/60/290 80/53/45
f 84/43/278 86/41/48 77/31/267
f 88/48/50 91/60/291 81/45/46
f 89/38/51 92/32/296 82/36/47
o grate
#4 vertices, 2 faces
v -30.84344500 13.17743635 -30.84984023
v 30.85255400 13.17744235 -30.84985923
v -30.84342600 13.17743335 30.84614623
v 30.85257400 13.17743935 30.84612723
vt 0.0000000e+0 0.0000000e+0
vt 0.0000000e+0 1.00000000
vt 1.00000000 0.0000000e+0
vt 1.00000000 1.00000000
vn -9.7251023e-8 1.00000000 4.8625560e-8
vn -9.7251024e-8 1.00000000 4.8625561e-8
vn -9.7251022e-8 1.00000000 4.8625559e-8
vn -9.7251023e-8 1.00000000 4.8625560e-8
g grate
usemtl default2
s 1
f 93/61/297 96/64/300 94/62/298
f 95/63/299 96/64/300 93/61/297
