# Blender v3.1.2 OBJ File: 'project.blend'
# www.blender.org
mtllib mesh.mtl
o stalacite_3_Mesh.005
v 0.000860 -1.123933 0.022955
v -0.012892 -1.123933 0.019013
v -0.022252 -1.123933 -0.006379
v -0.009783 -1.123933 -0.019091
v 0.012892 -1.123933 -0.019013
v 0.018196 -1.123933 -0.014101
v 0.022251 -1.123933 0.006379
v 0.014284 -1.123933 0.018130
v 0.006444 -0.000001 0.171921
v -0.096552 0.000000 0.142393
v -0.162669 0.000000 0.058477
v -0.166652 0.000000 -0.047776
v -0.106979 0.000000 -0.135780
v -0.006445 0.000000 -0.171921
v 0.096552 0.000000 -0.142394
v 0.162669 0.000000 -0.058477
v 0.166651 0.000000 0.047776
v 0.106979 0.000000 0.135780
v 0.006526 -1.154562 -0.003608
v 0.001261 -1.154562 0.007646
v -0.002482 -1.154562 -0.007794
v -0.008508 -1.154562 0.001093
v 0.001991 -0.000000 0.053127
v -0.001992 -0.000000 -0.053126
v -0.027285 -1.125810 0.006043
v -0.001496 -1.125810 -0.021791
v -0.016445 -0.847633 0.016898
v 0.019029 -0.847633 0.004145
v 0.040085 -0.847633 -0.026907
v 0.038680 -0.847633 -0.064399
v 0.015350 -0.847633 -0.094009
v -0.020993 -0.847633 -0.104428
v -0.056467 -0.847633 -0.091675
v -0.077522 -0.847633 -0.060623
v -0.076117 -0.847633 -0.023131
v -0.052787 -0.847633 0.006479
v 0.001654 -0.985549 0.044128
v -0.024783 -0.985549 0.036549
v -0.043423 -0.986112 0.014480
v -0.042776 -0.985549 -0.012263
v -0.026109 -0.985549 -0.035140
v -0.001845 -0.986112 -0.043779
v 0.024783 -0.985549 -0.036549
v 0.040696 -0.985549 -0.016898
v 0.042775 -0.985549 0.012263
v 0.027459 -0.985549 0.034851
v 0.007637 -0.664382 0.009807
v -0.038743 -0.664381 -0.003489
v -0.068515 -0.664381 -0.041277
v -0.070309 -0.664381 -0.089123
v -0.043438 -0.664381 -0.128751
v 0.001833 -0.664381 -0.145026
v 0.048212 -0.664381 -0.131729
v 0.077985 -0.664381 -0.093942
v 0.079778 -0.664381 -0.046096
v 0.052908 -0.664381 -0.006467
v 0.009108 -0.481428 0.086594
v -0.046602 -0.481427 0.070623
v -0.082365 -0.481427 0.025233
v -0.084519 -0.481427 -0.032239
v -0.052242 -0.481427 -0.079841
v 0.002137 -0.481427 -0.099389
v 0.057847 -0.481427 -0.083418
v 0.093610 -0.481427 -0.038028
v 0.095764 -0.481427 0.019444
v 0.063487 -0.481427 0.067046
v 0.006373 -0.232321 0.158201
v 0.080535 -0.232320 0.131541
v 0.124554 -0.232320 0.066623
v 0.121616 -0.232320 -0.011757
v 0.072843 -0.232320 -0.073660
v -0.003134 -0.232320 -0.095441
v -0.077296 -0.232320 -0.068781
v -0.121315 -0.232320 -0.003863
v -0.118377 -0.232320 0.074517
v -0.069604 -0.232320 0.136420
v 0.001332 -0.339091 0.116937
v -0.063085 -0.339091 0.098470
v -0.104437 -0.339091 0.045985
v -0.106929 -0.339091 -0.020469
v -0.069607 -0.339091 -0.075510
v -0.006729 -0.339091 -0.098114
v 0.057689 -0.339091 -0.079647
v 0.099041 -0.339091 -0.027162
v 0.101532 -0.339091 0.039292
v 0.064211 -0.339091 0.094333
vt 0.817654 0.442621
vt 0.818536 0.396583
vt 0.827859 0.396605
vt 0.822155 0.443679
vt 0.837824 0.397391
vt 0.827884 0.445077
vt 0.834512 0.453226
vt 0.830762 0.448616
vt 0.847034 0.398890
vt 0.856825 0.402183
vt 0.796075 0.454359
vt 0.764727 0.410290
vt 0.772615 0.405302
vt 0.798473 0.452449
vt 0.802940 0.446779
vt 0.801167 0.448321
vt 0.781628 0.401082
vt 0.790117 0.398840
vt 0.808697 0.443612
vt 0.800020 0.397540
vt 0.813125 0.442653
vt 0.809242 0.396970
vt 0.832875 0.347530
vt 0.818875 0.347689
vt 0.814199 0.277352
vt 0.833195 0.278237
vt 0.846361 0.347150
vt 0.851867 0.280533
vt 0.859651 0.347316
vt 0.869671 0.283463
vt 0.872938 0.348919
vt 0.886897 0.286261
vt 0.748990 0.357013
vt 0.737004 0.363798
vt 0.712876 0.301228
vt 0.729011 0.295401
vt 0.762284 0.352327
vt 0.744968 0.289506
vt 0.776132 0.349527
vt 0.761184 0.284294
vt 0.790279 0.348218
vt 0.777872 0.280217
vt 0.804580 0.347730
vt 0.795527 0.277840
vt 0.810849 0.203170
vt 0.811341 0.151526
vt 0.836583 0.152527
vt 0.831403 0.204529
vt 0.860888 0.156769
vt 0.851488 0.208859
vt 0.883946 0.163662
vt 0.871154 0.214933
vt 0.906402 0.172034
vt 0.890903 0.221246
vt 0.691286 0.237053
vt 0.668600 0.192422
vt 0.690975 0.183277
vt 0.711523 0.231312
vt 0.713780 0.174127
vt 0.731928 0.224497
vt 0.736990 0.165471
vt 0.751771 0.217206
vt 0.761020 0.158190
vt 0.771088 0.210400
vt 0.785935 0.153308
vt 0.790646 0.205365
vt 0.837558 0.112444
vt 0.810554 0.111009
vt 0.812345 0.027827
vt 0.851550 0.029799
vt 0.864623 0.116904
vt 0.890067 0.034951
vt 0.891560 0.124326
vt 0.927475 0.043803
vt 0.918030 0.134519
vt 0.963468 0.057819
vt 0.675558 0.146636
vt 0.650027 0.160899
vt 0.598289 0.089977
vt 0.629564 0.068449
vt 0.702249 0.134536
vt 0.663743 0.052593
vt 0.729479 0.124586
vt 0.699243 0.041527
vt 0.756576 0.117164
vt 0.735774 0.034099
vt 0.783545 0.112578
vt 0.773489 0.029565
vt 0.097554 0.978723
vt 0.071585 0.983444
vt 0.047932 0.972018
vt 0.083798 0.952775
vt 0.817824 0.454503
vt 0.814909 0.457855
vt 0.813016 0.454535
vt 0.815628 0.452423
vt 0.119663 0.933532
vt 0.115918 0.959659
vt 0.035628 0.948809
vt 0.071494 0.929566
vt 0.107359 0.910323
vt 0.039374 0.922682
vt 0.057737 0.903617
vt 0.083706 0.898896
vn 0.0159 -0.1832 0.9830
vn 0.0474 0.0638 0.9968
vn -0.5194 -0.0077 0.8545
vn -0.5438 -0.1889 0.8177
vn -0.9157 -0.1246 0.3822
vn -0.9221 -0.1878 0.3382
vn -0.5721 -0.1880 -0.7984
vn -0.8984 -0.1917 -0.3951
vn -0.9158 -0.2540 -0.3111
vn -0.5834 -0.3287 -0.7427
vn -0.0120 -0.3201 -0.9473
vn -0.0091 -0.1853 -0.9826
vn 0.9128 -0.1819 -0.3657
vn 0.4552 -0.1814 -0.8717
vn 0.5387 -0.2397 -0.8077
vn 0.9454 -0.1102 -0.3067
vn 0.9610 -0.1922 0.1987
vn 0.9630 -0.0017 0.2694
vn 0.6132 -0.1876 0.7673
vn 0.6026 0.0695 0.7950
vn -0.5741 0.0758 0.8152
vn 0.0076 0.0975 0.9952
vn 0.0430 -0.2197 0.9746
vn -0.5627 -0.1592 0.8112
vn -0.9434 -0.0092 0.3315
vn -0.9487 -0.0677 0.3088
vn -0.9521 -0.1243 -0.2795
vn -0.9469 0.0124 -0.3214
vn -0.6108 -0.2220 -0.7600
vn -0.5813 0.0487 -0.8123
vn -0.0537 -0.2794 -0.9587
vn -0.0200 0.0380 -0.9991
vn 0.5140 -0.2780 -0.8115
vn 0.5421 -0.0108 -0.8402
vn 0.9138 -0.2061 -0.3499
vn 0.9199 -0.0872 -0.3825
vn 0.9591 -0.0827 0.2706
vn 0.9590 -0.1701 0.2266
vn 0.5994 0.0398 0.7995
vn 0.6239 -0.2234 0.7489
vn 0.0359 -0.2992 0.9535
vn 0.0224 -0.2863 0.9579
vn -0.5462 -0.2656 0.7945
vn -0.5204 -0.2841 0.8053
vn -0.9230 -0.1981 0.3300
vn -0.9110 -0.2012 0.3600
vn -0.9547 -0.1063 -0.2780
vn -0.9646 -0.0650 -0.2555
vn -0.6149 -0.0247 -0.7882
vn -0.6183 0.0692 -0.7829
vn -0.0420 0.0157 -0.9990
vn -0.0272 0.1355 -0.9904
vn 0.5471 -0.0012 -0.8371
vn 0.5681 0.1075 -0.8159
vn 0.9325 -0.0721 -0.3540
vn 0.9461 -0.0004 -0.3239
vn 0.9482 -0.1704 0.2681
vn 0.9463 -0.1384 0.2921
vn 0.5900 -0.2522 0.7670
vn 0.5865 -0.2481 0.7710
vn -0.5354 -0.1453 0.8320
vn 0.0341 -0.1395 0.9896
vn 0.0321 -0.0589 0.9977
vn -0.5686 -0.0870 0.8180
vn -0.9149 -0.1673 0.3674
vn -0.9353 -0.1564 0.3173
vn -0.9495 -0.1965 -0.2447
vn -0.9269 -0.2360 -0.2917
vn -0.6088 -0.2209 -0.7619
vn -0.5739 -0.2938 -0.7644
vn -0.0296 -0.2325 -0.9721
vn -0.0314 -0.3129 -0.9493
vn 0.5568 -0.2282 -0.7987
vn 0.5203 -0.2907 -0.8030
vn 0.9267 -0.2087 -0.3125
vn 0.9038 -0.2320 -0.3597
vn 0.9378 -0.1796 0.2970
vn 0.9566 -0.1532 0.2478
vn 0.5928 -0.1526 0.7908
vn 0.6223 -0.0850 0.7781
vn -0.0000 1.0000 -0.0000
vn -0.7139 -0.6927 0.1027
vn -0.2847 -0.6236 -0.7280
vn 0.7372 -0.6698 -0.0891
vn 0.2218 -0.6586 0.7191
usemtl Stalacite2
s 1
f 1/1/1 37/2/2 38/3/3 2/4/4
f 2/4/4 38/3/3 39/5/5 25/6/6
f 4/7/7 3/8/8 40/9/9 41/10/10
f 4/11/7 41/12/10 42/13/11 26/14/12
f 6/15/13 5/16/14 43/17/15 44/18/16
f 7/19/17 6/15/13 44/18/16 45/20/18
f 8/21/19 7/19/17 45/20/18 46/22/20
f 8/21/19 46/22/20 37/2/2 1/1/1
f 36/23/21 27/24/22 47/25/23 48/26/24
f 35/27/25 36/23/21 48/26/24 49/28/26
f 34/29/27 35/27/25 49/28/26 50/30/28
f 33/31/29 34/29/27 50/30/28 51/32/30
f 32/33/31 33/34/29 51/35/30 52/36/32
f 31/37/33 32/33/31 52/36/32 53/38/34
f 30/39/35 31/37/33 53/38/34 54/40/36
f 29/41/37 30/39/35 54/40/36 55/42/38
f 28/43/39 29/41/37 55/42/38 56/44/40
f 27/24/22 28/43/39 56/44/40 47/25/23
f 57/45/41 77/46/42 78/47/43 58/48/44
f 58/48/44 78/47/43 79/49/45 59/50/46
f 59/50/46 79/49/45 80/51/47 60/52/48
f 60/52/48 80/51/47 81/53/49 61/54/50
f 61/55/50 81/56/49 82/57/51 62/58/52
f 62/58/52 82/57/51 83/59/53 63/60/54
f 63/60/54 83/59/53 84/61/55 64/62/56
f 64/62/56 84/61/55 85/63/57 65/64/58
f 65/64/58 85/63/57 86/65/59 66/66/60
f 66/66/60 86/65/59 77/46/42 57/45/41
f 76/67/61 67/68/62 9/69/63 10/70/64
f 75/71/65 76/67/61 10/70/64 11/72/66
f 74/73/67 75/71/65 11/72/66 12/74/68
f 73/75/69 74/73/67 12/74/68 13/76/70
f 72/77/71 73/78/69 13/79/70 14/80/72
f 71/81/73 72/77/71 14/80/72 15/82/74
f 70/83/75 71/81/73 15/82/74 16/84/76
f 69/85/77 70/83/75 16/84/76 17/86/78
f 68/87/79 69/85/77 17/86/78 18/88/80
f 67/68/62 68/87/79 18/88/80 9/69/63
f 9/89/81 18/90/81 17/91/81 23/92/81
f 3/8/8 22/93/82 2/4/4 25/6/6
f 4/7/7 21/94/83 22/93/82 3/8/8
f 19/95/84 6/15/13 7/19/17
f 20/96/85 19/95/84 7/19/17 8/21/19
f 1/1/1 20/96/85 8/21/19
f 21/94/83 5/16/14 6/15/13 19/95/84
f 22/93/82 21/94/83 19/95/84 20/96/85
f 2/4/4 22/93/82 20/96/85 1/1/1
f 5/16/14 21/94/83 4/11/7 26/14/12
f 9/89/81 23/92/81 11/97/81 10/98/81
f 23/92/81 17/91/81 16/99/81 24/100/81
f 11/97/81 23/92/81 24/100/81 12/101/81
f 24/100/81 16/99/81 15/102/81 14/103/81
f 12/101/81 24/100/81 14/103/81 13/104/81
f 25/6/6 39/5/5 40/9/9 3/8/8
f 5/16/14 26/14/12 42/13/11 43/17/15
f 38/3/3 37/2/2 27/24/22 36/23/21
f 39/5/5 38/3/3 36/23/21 35/27/25
f 40/9/9 39/5/5 35/27/25 34/29/27
f 41/10/10 40/9/9 34/29/27 33/31/29
f 42/13/11 41/12/10 33/34/29 32/33/31
f 43/17/15 42/13/11 32/33/31 31/37/33
f 44/18/16 43/17/15 31/37/33 30/39/35
f 45/20/18 44/18/16 30/39/35 29/41/37
f 46/22/20 45/20/18 29/41/37 28/43/39
f 37/2/2 46/22/20 28/43/39 27/24/22
f 48/26/24 47/25/23 57/45/41 58/48/44
f 49/28/26 48/26/24 58/48/44 59/50/46
f 50/30/28 49/28/26 59/50/46 60/52/48
f 51/32/30 50/30/28 60/52/48 61/54/50
f 52/36/32 51/35/30 61/55/50 62/58/52
f 53/38/34 52/36/32 62/58/52 63/60/54
f 54/40/36 53/38/34 63/60/54 64/62/56
f 55/42/38 54/40/36 64/62/56 65/64/58
f 56/44/40 55/42/38 65/64/58 66/66/60
f 47/25/23 56/44/40 66/66/60 57/45/41
f 78/47/43 77/46/42 67/68/62 76/67/61
f 79/49/45 78/47/43 76/67/61 75/71/65
f 80/51/47 79/49/45 75/71/65 74/73/67
f 81/53/49 80/51/47 74/73/67 73/75/69
f 82/57/51 81/56/49 73/78/69 72/77/71
f 83/59/53 82/57/51 72/77/71 71/81/73
f 84/61/55 83/59/53 71/81/73 70/83/75
f 85/63/57 84/61/55 70/83/75 69/85/77
f 86/65/59 85/63/57 69/85/77 68/87/79
f 77/46/42 86/65/59 68/87/79 67/68/62
