# Blender v2.78 (sub 0) OBJ File: 'fence01.blend'
# www.blender.org
mtllib fence01_a.mtl
o fence01_a_Cube.005
v -0.500000 0.499978 0.000000
v -0.500000 -0.499978 -0.000000
v 0.500000 0.499978 0.000000
v 0.500000 -0.499978 -0.000000
v 0.000000 0.499978 0.000000
v 0.000000 -0.499978 -0.000000
v -0.500000 0.000000 0.000000
v 0.500000 0.000000 0.000000
v 0.000000 0.000000 0.000000
vt 0.7749 0.8311
vt 0.7749 0.0786
vt 0.0000 0.0786
vt 0.0000 0.8311
vt 0.7749 0.8311
vt 0.7749 0.0796
vt 0.0000 0.0796
vt 0.0000 0.8311
vt 0.0000 0.8311
vt 0.0000 0.0791
vt 0.7866 0.0791
vt 0.7866 0.8311
vt 0.0000 0.8311
vt 0.0000 0.0786
vt 0.7871 0.0786
vt 0.7871 0.8311
vn 0.0000 0.0000 -1.0000
usemtl Material
s off
f 9/1/1 8/2/1 4/3/1 6/4/1
f 7/5/1 9/6/1 6/7/1 2/8/1
f 1/9/1 5/10/1 9/11/1 7/12/1
f 5/13/1 3/14/1 8/15/1 9/16/1
