# Blender v2.78 (sub 0) OBJ File: 'cable set.blend'
# www.blender.org
mtllib cable set.mtl
o power-cable
v 0.000000 0.035000 0.060000
v 0.500000 0.026716 0.031716
v 0.500000 0.015000 0.060000
v 0.000000 -0.246716 0.088284
v 0.000000 -0.275000 0.100000
v 0.500000 -0.295000 0.100000
v 0.500000 -0.266716 0.088284
v 0.000000 0.203284 0.088284
v 0.500000 0.155000 0.100000
v 0.500000 0.183284 0.088284
v 0.000000 -0.046716 0.031716
v 0.500000 0.026716 0.088284
v 0.500000 -0.255000 0.060000
v 0.000000 0.215000 0.060000
v 0.500000 0.195000 0.060000
v 0.000000 -0.103284 0.031716
v 0.500000 0.055000 0.100000
v 0.000000 0.303284 0.031716
v 0.500000 0.083284 0.088284
v 0.500000 0.095000 0.060000
v 0.000000 0.246716 0.031716
v 0.000000 -0.146716 0.031716
v 0.000000 -0.135000 0.060000
v 0.000000 0.246716 0.088284
v 0.000000 -0.203284 0.031716
v 0.500000 -0.266716 0.031716
v 0.000000 0.203284 0.031716
v 0.500000 0.183284 0.031716
v 0.000000 0.303284 0.088284
v 0.000000 -0.203284 0.088284
v 0.500000 -0.323284 0.031716
v 0.500000 0.126716 0.031716
v 0.000000 -0.175000 0.100000
v 0.500000 0.083284 0.031716
v 0.000000 -0.315000 0.060000
v 0.500000 -0.335000 0.060000
v 0.000000 0.135000 0.060000
v 0.500000 0.115000 0.060000
v 0.000000 -0.146716 0.088284
v 0.500000 -0.323284 0.088284
v 0.000000 0.146716 0.088284
v 0.500000 0.126716 0.088284
v 1.000000 -0.146716 0.031716
v 1.000000 -0.203284 0.031716
v 1.000000 -0.235000 0.060000
v 1.000000 -0.246716 0.031716
v 1.000000 0.215000 0.060000
v 1.000000 0.203284 0.031716
v 1.000000 -0.215000 0.060000
v 1.000000 -0.203284 0.088284
v 1.000000 -0.303284 0.031716
v 1.000000 0.146716 0.031716
v 1.000000 -0.175000 0.100000
v 1.000000 0.115000 0.060000
v 1.000000 0.103284 0.031716
v 1.000000 -0.315000 0.060000
v 1.000000 0.135000 0.060000
v 1.000000 -0.146716 0.088284
v 1.000000 -0.303284 0.088284
v 1.000000 0.146716 0.088284
v 1.000000 -0.135000 0.060000
v 1.000000 0.046716 0.031716
v 1.000000 -0.275000 0.100000
v 1.000000 0.175000 0.100000
v 1.000000 0.035000 0.060000
v 1.000000 -0.246716 0.088284
v 1.000000 0.203284 0.088284
v 1.000000 0.046716 0.088284
v 1.000000 0.075000 0.100000
v 1.000000 0.103284 0.088284
v 1.500000 0.083284 0.088284
v 1.500000 0.095000 0.060000
v 1.500000 -0.175000 0.060000
v 1.500000 -0.186716 0.031716
v 1.500000 -0.243284 0.031716
v 1.500000 -0.275000 0.060000
v 1.500000 -0.286716 0.031716
v 1.500000 -0.255000 0.060000
v 1.500000 -0.243284 0.088284
v 1.500000 -0.343284 0.031716
v 1.500000 -0.215000 0.100000
v 1.500000 0.083284 0.031716
v 1.500000 -0.355000 0.060000
v 1.500000 -0.186716 0.088284
v 1.500000 -0.343284 0.088284
v 1.500000 0.026716 0.031716
v 1.500000 -0.315000 0.100000
v 1.500000 0.015000 0.060000
v 1.500000 -0.286716 0.088284
v 1.500000 0.026716 0.088284
v 1.500000 0.055000 0.100000
v 2.000000 -0.246716 0.088284
v 2.000000 -0.235000 0.060000
v 2.000000 0.203284 0.088284
v 2.000000 0.215000 0.060000
v 2.000000 0.315000 0.060000
v 2.000000 0.303284 0.031716
v 2.000000 -0.115000 0.060000
v 2.000000 -0.075000 0.100000
v 2.000000 -0.135000 0.060000
v 2.000000 -0.146716 0.031716
v 2.000000 0.235000 0.060000
v 2.000000 -0.046716 0.088284
v 2.000000 0.246716 0.088284
v 2.000000 -0.035000 0.060000
v 2.000000 -0.246716 0.031716
v 2.000000 -0.215000 0.060000
v 2.000000 0.303284 0.088284
v 2.000000 -0.203284 0.088284
v 2.000000 0.146716 0.031716
v 2.000000 0.103284 0.031716
v 2.000000 0.135000 0.060000
v 2.000000 -0.146716 0.088284
v 2.000000 -0.303284 0.088284
v 2.000000 0.046716 0.031716
v 2.000000 -0.275000 0.100000
v 2.000000 0.175000 0.100000
v 0.020000 0.340000 0.120000
v 0.060000 0.340000 0.120000
v 0.060000 -0.340000 0.120000
v 0.060000 0.400000 0.180000
v 0.020000 0.400000 0.180000
v 0.020000 0.400000 0.000000
v 0.020000 0.340000 0.000000
v 0.060000 0.340000 0.000000
v 0.060000 0.400000 0.000000
v 0.060000 -0.400000 0.180000
v 0.020000 -0.400000 0.180000
v 0.020000 -0.400000 -0.000000
v 0.020000 -0.340000 0.120000
v 0.020000 -0.340000 -0.000000
v 0.060000 -0.400000 -0.000000
v 0.060000 -0.340000 -0.000000
v 1.020000 -0.340000 -0.000000
v 1.020000 -0.400000 -0.000000
v 0.980000 -0.340000 -0.000000
v 0.980000 -0.340000 0.120000
v 0.980000 -0.400000 -0.000000
v 0.980000 -0.400000 0.180000
v 1.020000 -0.400000 0.180000
v 1.020000 0.400000 0.000000
v 1.020000 0.340000 0.000000
v 0.980000 0.340000 0.000000
v 0.980000 0.400000 0.000000
v 0.980000 0.400000 0.180000
v 1.020000 0.400000 0.180000
v 1.020000 -0.340000 0.120000
v 1.020000 0.340000 0.120000
v 0.980000 0.340000 0.120000
v 0.000000 0.146716 0.031716
v 0.000000 0.175000 0.100000
v 0.000000 0.235000 0.060000
v 0.000000 0.275000 0.100000
v 0.000000 0.315000 0.060000
v 0.000000 0.103284 0.031716
v 0.000000 0.046716 0.031716
v 0.000000 0.046716 0.088284
v 0.000000 0.075000 0.100000
v 0.000000 0.103284 0.088284
v 0.000000 0.115000 0.060000
v 0.000000 -0.215000 0.060000
v 0.000000 -0.115000 0.060000
v 0.000000 -0.103284 0.088284
v 0.000000 -0.075000 0.100000
v 0.000000 -0.046716 0.088284
v 0.000000 -0.035000 0.060000
v 0.000000 -0.246716 0.031716
v 0.000000 -0.303284 0.031716
v 0.000000 -0.303284 0.088284
v 0.000000 -0.235000 0.060000
v 2.000000 0.203284 0.031716
v 2.000000 0.146716 0.088284
v 2.000000 0.275000 0.100000
v 2.000000 0.246716 0.031716
v 2.000000 0.115000 0.060000
v 2.000000 0.103284 0.088284
v 2.000000 0.075000 0.100000
v 2.000000 0.046716 0.088284
v 2.000000 0.035000 0.060000
v 2.000000 -0.175000 0.100000
v 2.000000 -0.203284 0.031716
v 2.000000 -0.046716 0.031716
v 2.000000 -0.103284 0.088284
v 2.000000 -0.103284 0.031716
v 2.000000 -0.315000 0.060000
v 2.000000 -0.303284 0.031716
vt 0.0000 0.5273
vt 0.2500 0.4541
vt 0.2500 0.5273
vt 0.0000 0.6846
vt 0.2500 0.7578
vt 0.0000 0.7578
vt 0.0000 0.6846
vt 0.2500 0.7578
vt 0.0000 0.7578
vt 0.9990 0.6846
vt 0.0000 0.6055
vt 0.9990 0.6055
vt 0.2500 0.6055
vt 0.0000 0.6055
vt 0.2500 0.8359
vt 0.0000 0.8359
vt 0.2500 0.8359
vt 0.0000 0.8359
vt 0.2500 0.6846
vt 0.0000 0.6846
vt 0.9990 0.8359
vt 0.0000 0.7578
vt 0.9990 0.7578
vt 0.5000 0.9092
vt 0.0000 0.8359
vt 0.5000 0.8359
vt 0.2500 0.7578
vt 0.0000 0.7578
vt 0.5000 0.6846
vt 0.0000 0.6055
vt 0.5000 0.6055
vt 0.2500 0.8359
vt 0.0000 0.8359
vt 0.0000 0.6846
vt 0.9990 0.6055
vt 0.9990 0.6846
vt 0.0000 0.5273
vt 0.9990 0.5273
vt 0.0000 0.8359
vt 0.9990 0.9092
vt 0.0000 0.9092
vt 0.9990 0.4541
vt 0.5000 0.5273
vt 0.5000 0.4541
vt 0.0000 0.8359
vt 0.9990 0.9092
vt 0.0000 0.9092
vt 0.0000 0.7578
vt 0.9990 0.7578
vt 0.9990 0.7578
vt 0.5000 0.6846
vt 0.9990 0.6846
vt 0.0000 0.9092
vt 0.2500 0.9092
vt 0.0000 0.9092
vt 0.2500 0.9092
vt 0.0000 0.5273
vt 0.9990 0.5273
vt 0.0000 0.7578
vt 0.0000 0.6846
vt 0.0000 0.9092
vt 0.2500 0.9092
vt 0.0000 0.5273
vt 0.2500 0.4541
vt 0.2500 0.5273
vt 0.0000 0.5273
vt 0.2500 0.4541
vt 0.2500 0.5273
vt 0.2500 0.6055
vt 0.0000 0.6055
vt 0.2500 0.6055
vt 0.0000 0.6055
vt 0.2500 0.6846
vt 0.2500 0.6846
vt 0.5000 0.7578
vt 0.5000 0.9092
vt 0.5000 0.9092
vt 0.5000 0.9092
vt 0.5000 0.5273
vt 0.5000 0.6055
vt 0.5000 0.6055
vt 0.5000 0.6846
vt 0.5000 0.5273
vt 0.5000 0.7578
vt 0.5000 0.7578
vt 0.5000 0.6055
vt 0.5000 0.8359
vt 0.5000 0.8359
vt 0.5000 0.6846
vt 0.5000 0.7578
vt 0.5000 0.8359
vt 0.0000 0.5273
vt 0.5000 0.5273
vt 0.7500 0.8359
vt 0.7500 0.8359
vt 0.7500 0.9092
vt 0.9990 0.4541
vt 0.9990 0.6055
vt 0.9990 0.8359
vt 0.7500 0.8359
vt 0.7500 0.9092
vt 0.7500 0.4541
vt 0.7500 0.5273
vt 0.9990 0.9092
vt 0.9990 0.8359
vt 0.7500 0.6055
vt 0.9990 0.5273
vt 0.7500 0.6846
vt 0.7500 0.9092
vt 0.7500 0.4541
vt 0.7500 0.5273
vt 0.7500 0.7578
vt 0.7500 0.6055
vt 0.7500 0.6846
vt 0.7500 0.4541
vt 0.7500 0.5273
vt 0.7500 0.7578
vt 0.7500 0.6055
vt 0.7500 0.6846
vt 0.0000 0.4541
vt 0.5000 0.4541
vt 0.7500 0.7578
vt 0.9990 0.5273
vt 0.9990 0.6055
vt 0.9990 0.7578
vt 0.9990 0.8359
vt 0.9990 0.6846
vt 0.9990 0.7578
vt 0.9990 0.8359
vt 0.9990 0.9092
vt 0.9990 0.9092
vt 0.9990 0.5273
vt 0.9990 0.6055
vt 0.9990 0.6846
vt 0.9990 0.9092
vt 0.9990 0.5273
vt 0.9990 0.7578
vt 0.9990 0.6055
vt 0.9990 0.8359
vt 0.9990 0.6846
vt 0.8447 0.2227
vt 0.2070 0.2744
vt 0.1553 0.2227
vt 0.7588 0.1357
vt 0.7930 0.0332
vt 0.7930 0.1357
vt 0.8447 0.1875
vt 0.1553 0.1875
vt 0.7588 0.1357
vt 0.7930 0.0332
vt 0.7930 0.1357
vt 0.2070 0.1357
vt 0.2412 0.0322
vt 0.2412 0.1357
vt 0.0000 0.1875
vt 0.0000 0.2217
vt 0.8447 0.1875
vt 0.1553 0.2227
vt 0.1553 0.1875
vt 0.8447 0.2227
vt 0.2070 0.2744
vt 0.0000 0.1875
vt 0.0000 0.2217
vt 0.2070 0.1357
vt 0.2412 0.0322
vt 0.2412 0.1357
vt 1.0000 0.2227
vt 1.0000 0.1885
vt 1.0000 0.2227
vt 1.0000 0.1885
vt 0.9990 0.4541
vt 0.0000 0.4541
vt 0.0000 0.4541
vt 0.0000 0.6846
vt 0.0000 0.9092
vt 0.0000 0.6055
vt 0.0000 0.4541
vt 0.0000 0.4541
vt 0.5000 0.4541
vt 0.5000 0.4541
vt 0.0000 0.4541
vt 0.9990 0.4541
vt 0.9990 0.4541
vt 0.9990 0.4541
vt 0.8447 0.3779
vt 0.7930 0.2744
vt 0.7930 0.3779
vt 0.2070 0.3770
vt 0.1553 0.3770
vt 0.7588 0.0332
vt 0.8447 0.0332
vt 0.1553 0.0322
vt 0.2070 0.0322
vt 0.7588 0.0332
vt 0.8447 0.3779
vt 0.7930 0.2744
vt 0.7930 0.3779
vt 0.2070 0.3770
vt 0.1553 0.3770
vt 0.2070 0.0322
vt 0.8447 0.0332
vt 0.1553 0.0322
vn -0.0400 -0.9992 -0.0000
vn -0.0000 -0.9239 -0.3827
vn 0.0000 -1.0000 -0.0000
vn 0.0004 0.0097 1.0000
vn 0.0000 0.7022 0.7120
vn 0.0285 0.7116 0.7020
vn 0.0000 -0.0000 1.0000
vn 0.0000 -0.7071 0.7071
vn 0.0000 -0.7119 0.7023
vn -0.0281 -0.7019 0.7117
vn 0.0000 1.0000 0.0000
vn 0.0400 0.9992 0.0000
vn 0.0000 -0.0097 1.0000
vn 0.0000 0.7071 0.7071
vn 0.0372 0.9232 -0.3824
vn 0.0395 0.9992 -0.0000
vn 0.0008 0.0097 1.0000
vn -0.0280 -0.7018 0.7118
vn 0.0000 0.9239 -0.3827
vn 0.0201 -0.9998 -0.0000
vn 0.0184 -0.9237 -0.3826
vn -0.0002 0.0049 1.0000
vn 0.0369 0.9232 -0.3824
vn 0.0284 0.7115 0.7021
vn 0.0187 0.9237 -0.3826
vn -0.0186 0.9237 -0.3826
vn -0.0202 -0.9998 -0.0000
vn -0.0140 -0.6996 0.7144
vn 0.0141 -0.7046 0.7095
vn 0.0006 0.0146 0.9999
vn 0.0142 0.7142 0.6998
vn -0.0142 0.7094 0.7046
vn -0.0000 -0.7022 0.7120
vn 0.0196 0.9998 0.0000
vn -0.0199 0.9998 -0.0000
vn -0.0000 0.0097 1.0000
vn -0.0000 0.7119 0.7023
vn -0.0403 -0.9992 0.0000
vn -0.0000 -0.7166 0.6975
vn 0.0000 -0.0194 0.9998
vn -0.0000 0.6971 0.7170
vn -0.0365 -0.9233 -0.3824
vn 0.0400 -0.9992 -0.0000
vn 0.0281 -0.7019 0.7117
vn -0.0572 0.7154 0.6964
vn -0.0797 0.9968 0.0000
vn -0.0004 0.0097 1.0000
vn -0.0285 0.7116 0.7020
vn -0.0400 0.9992 0.0000
vn -0.0737 0.9214 -0.3817
vn 0.0797 -0.9968 -0.0000
vn 0.0557 -0.6960 0.7158
vn -0.0016 0.0194 0.9998
vn -0.0369 0.9232 -0.3824
vn -1.0000 0.0000 0.0000
vn 1.0000 0.0000 0.0000
vn -0.0369 -0.9232 -0.3824
vn -0.0181 -0.9237 -0.3826
vn 0.0737 -0.9214 -0.3817
vn 0.0369 -0.9232 -0.3824
usemtl Material
s 1
f 1/1/1 2/2/2 3/3/3
f 5/4/4 7/5/5 4/6/6
f 151/7/4 10/8/5 8/9/6
f 173/10/7 24/11/8 104/12/8
f 1/1/1 12/13/9 157/14/10
f 4/6/6 13/15/11 170/16/12
f 8/9/6 15/17/11 14/18/12
f 157/14/10 17/19/13 158/20/4
f 96/21/11 29/22/14 108/23/14
f 43/24/15 23/25/11 61/26/16
f 158/20/4 19/27/5 159/28/6
f 53/29/17 30/30/8 50/31/18
f 159/28/6 20/32/11 160/33/12
f 164/34/7 183/35/8 99/36/7
f 104/12/8 152/37/3 102/38/3
f 154/39/11 97/40/19 18/41/19
f 110/42/2 57/43/20 52/44/21
f 166/45/11 182/46/19 11/47/19
f 165/48/14 99/36/7 103/49/14
f 94/50/14 64/51/22 117/52/7
f 167/53/23 13/15/11 26/54/19
f 27/55/23 15/17/11 28/56/19
f 183/35/8 162/57/3 98/58/3
f 53/29/17 39/59/14 33/60/7
f 155/61/23 20/32/11 34/62/19
f 35/63/1 31/64/2 36/65/3
f 37/66/1 32/67/2 38/68/3
f 29/22/14 173/10/7 108/23/14
f 35/63/1 40/69/9 169/70/10
f 37/66/1 42/71/9 41/72/10
f 169/70/10 6/73/13 5/4/4
f 41/72/10 9/74/13 151/7/4
f 61/26/16 39/59/14 58/75/24
f 13/15/11 46/76/25 26/54/19
f 15/17/11 48/77/26 28/56/19
f 20/32/11 55/78/19 34/62/19
f 31/64/2 56/79/27 36/65/3
f 32/67/2 57/43/20 38/68/3
f 40/69/9 56/79/27 59/80/28
f 42/71/9 57/43/20 60/81/29
f 6/73/13 59/80/28 63/82/30
f 9/74/13 60/81/29 64/51/22
f 2/2/2 65/83/3 3/3/3
f 7/5/5 63/82/30 66/84/31
f 10/8/5 64/51/22 67/85/32
f 12/13/9 65/83/3 68/86/33
f 13/15/11 66/84/31 45/87/34
f 15/17/11 67/85/32 47/88/35
f 17/19/13 68/86/33 69/89/36
f 19/27/5 69/89/36 70/90/37
f 20/32/11 70/90/37 54/91/11
f 50/31/18 161/92/3 49/93/38
f 70/90/37 72/94/11 54/91/11
f 43/24/15 73/95/11 74/96/19
f 152/37/3 174/97/2 102/38/3
f 172/98/8 64/51/22 60/81/29
f 105/99/11 165/48/14 103/49/14
f 46/76/25 76/100/11 77/101/19
f 49/93/38 75/102/2 78/103/3
f 171/104/19 47/88/35 95/105/11
f 49/93/38 79/106/39 50/31/18
f 172/98/8 57/43/20 112/107/3
f 50/31/18 81/108/40 53/29/17
f 55/78/19 72/94/11 82/109/19
f 56/79/27 80/110/2 83/111/3
f 53/29/17 84/112/41 58/75/24
f 56/79/27 85/113/39 59/80/28
f 58/75/24 73/95/11 61/26/16
f 59/80/28 87/114/40 63/82/30
f 65/83/3 86/115/2 88/116/3
f 63/82/30 89/117/41 66/84/31
f 65/83/3 90/118/9 68/86/33
f 66/84/31 76/100/11 45/87/34
f 94/50/14 47/88/35 67/85/32
f 68/86/33 91/119/13 69/89/36
f 49/93/38 25/120/2 44/121/42
f 69/89/36 71/122/5 70/90/37
f 90/118/9 179/123/43 178/124/44
f 76/100/11 92/125/45 93/126/46
f 91/119/13 178/124/44 177/127/47
f 71/122/5 177/127/47 176/128/48
f 72/94/11 176/128/48 175/129/49
f 73/95/11 101/130/50 74/96/19
f 76/100/11 106/131/50 77/101/19
f 75/102/2 107/132/51 78/103/3
f 79/106/39 107/132/51 109/133/52
f 81/108/40 109/133/52 180/134/53
f 72/94/11 111/135/54 82/109/19
f 80/110/2 185/136/51 83/111/3
f 84/112/41 180/134/53 113/137/45
f 85/113/39 185/136/51 114/138/52
f 73/95/11 113/137/45 100/139/46
f 87/114/40 114/138/52 116/140/53
f 86/115/2 179/123/43 88/116/3
f 89/117/41 116/140/53 92/125/45
f 122/141/55 130/142/55 128/143/55
f 118/144/3 125/145/3 119/146/3
f 119/146/56 121/147/56 127/148/56
f 149/149/3 142/150/3 148/151/3
f 121/147/7 128/143/7 127/148/7
f 120/152/11 131/153/11 130/154/11
f 132/155/3 128/143/3 129/156/3
f 146/157/7 139/158/7 140/159/7
f 145/160/55 137/161/55 139/158/55
f 135/162/3 139/158/3 138/163/3
f 147/164/11 136/165/11 137/166/11
f 148/151/56 146/157/56 140/159/56
f 144/167/11 146/157/11 141/168/11
f 123/169/11 121/147/11 126/170/11
f 184/171/2 162/57/3 16/172/2
f 1/1/1 156/173/57 2/2/2
f 5/4/4 6/73/13 7/5/5
f 151/7/4 9/74/13 10/8/5
f 173/10/7 153/174/7 24/11/8
f 1/1/1 3/3/3 12/13/9
f 4/6/6 7/5/5 13/15/11
f 8/9/6 10/8/5 15/17/11
f 157/14/10 12/13/9 17/19/13
f 96/21/11 154/39/11 29/22/14
f 43/24/15 22/175/19 23/25/11
f 158/20/4 17/19/13 19/27/5
f 53/29/17 33/60/7 30/30/8
f 159/28/6 19/27/5 20/32/11
f 164/34/7 163/176/8 183/35/8
f 104/12/8 24/11/8 152/37/3
f 154/39/11 96/21/11 97/40/19
f 110/42/2 112/107/3 57/43/20
f 166/45/11 105/99/11 182/46/19
f 165/48/14 164/34/7 99/36/7
f 94/50/14 67/85/32 64/51/22
f 167/53/23 170/16/12 13/15/11
f 27/55/23 14/18/12 15/17/11
f 183/35/8 163/176/8 162/57/3
f 53/29/17 58/75/24 39/59/14
f 155/61/23 160/33/12 20/32/11
f 35/63/1 168/177/57 31/64/2
f 37/66/1 150/178/57 32/67/2
f 29/22/14 153/174/7 173/10/7
f 35/63/1 36/65/3 40/69/9
f 37/66/1 38/68/3 42/71/9
f 169/70/10 40/69/9 6/73/13
f 41/72/10 42/71/9 9/74/13
f 61/26/16 23/25/11 39/59/14
f 13/15/11 45/87/34 46/76/25
f 15/17/11 47/88/35 48/77/26
f 20/32/11 54/91/11 55/78/19
f 31/64/2 51/179/58 56/79/27
f 32/67/2 52/44/21 57/43/20
f 40/69/9 36/65/3 56/79/27
f 42/71/9 38/68/3 57/43/20
f 6/73/13 40/69/9 59/80/28
f 9/74/13 42/71/9 60/81/29
f 2/2/2 62/180/2 65/83/3
f 7/5/5 6/73/13 63/82/30
f 10/8/5 9/74/13 64/51/22
f 12/13/9 3/3/3 65/83/3
f 13/15/11 7/5/5 66/84/31
f 15/17/11 10/8/5 67/85/32
f 17/19/13 12/13/9 68/86/33
f 19/27/5 17/19/13 69/89/36
f 20/32/11 19/27/5 70/90/37
f 50/31/18 30/30/8 161/92/3
f 70/90/37 71/122/5 72/94/11
f 43/24/15 61/26/16 73/95/11
f 152/37/3 21/181/2 174/97/2
f 172/98/8 117/52/7 64/51/22
f 105/99/11 166/45/11 165/48/14
f 46/76/25 45/87/34 76/100/11
f 49/93/38 44/121/42 75/102/2
f 171/104/19 48/77/26 47/88/35
f 49/93/38 78/103/3 79/106/39
f 172/98/8 60/81/29 57/43/20
f 50/31/18 79/106/39 81/108/40
f 55/78/19 54/91/11 72/94/11
f 56/79/27 51/179/58 80/110/2
f 53/29/17 81/108/40 84/112/41
f 56/79/27 83/111/3 85/113/39
f 58/75/24 84/112/41 73/95/11
f 59/80/28 85/113/39 87/114/40
f 65/83/3 62/180/2 86/115/2
f 63/82/30 87/114/40 89/117/41
f 65/83/3 88/116/3 90/118/9
f 66/84/31 89/117/41 76/100/11
f 94/50/14 95/105/11 47/88/35
f 68/86/33 90/118/9 91/119/13
f 49/93/38 161/92/3 25/120/2
f 69/89/36 91/119/13 71/122/5
f 90/118/9 88/116/3 179/123/43
f 76/100/11 89/117/41 92/125/45
f 91/119/13 90/118/9 178/124/44
f 71/122/5 91/119/13 177/127/47
f 72/94/11 71/122/5 176/128/48
f 73/95/11 100/139/46 101/130/50
f 76/100/11 93/126/46 106/131/50
f 75/102/2 181/182/59 107/132/51
f 79/106/39 78/103/3 107/132/51
f 81/108/40 79/106/39 109/133/52
f 72/94/11 175/129/49 111/135/54
f 80/110/2 186/183/59 185/136/51
f 84/112/41 81/108/40 180/134/53
f 85/113/39 83/111/3 185/136/51
f 73/95/11 84/112/41 113/137/45
f 87/114/40 85/113/39 114/138/52
f 86/115/2 115/184/60 179/123/43
f 89/117/41 87/114/40 116/140/53
f 122/141/55 123/185/55 118/186/55
f 123/185/55 124/187/55 118/186/55
f 131/188/55 129/189/55 130/142/55
f 122/141/55 118/186/55 130/142/55
f 130/142/55 129/189/55 128/143/55
f 118/144/3 124/190/3 125/145/3
f 119/146/56 125/145/56 126/191/56
f 127/148/56 132/192/56 120/152/56
f 132/192/56 133/193/56 120/152/56
f 119/146/56 126/191/56 121/147/56
f 127/148/56 120/152/56 119/146/56
f 149/149/3 143/194/3 142/150/3
f 121/147/7 122/141/7 128/143/7
f 120/152/11 133/193/11 131/153/11
f 132/155/3 127/148/3 128/143/3
f 146/157/7 145/160/7 139/158/7
f 145/160/55 144/195/55 149/196/55
f 144/195/55 143/197/55 149/196/55
f 136/198/55 138/199/55 137/161/55
f 145/160/55 149/196/55 137/161/55
f 137/161/55 138/199/55 139/158/55
f 135/162/3 140/159/3 139/158/3
f 147/164/11 134/200/11 136/165/11
f 148/151/56 142/150/56 141/201/56
f 140/159/56 135/202/56 147/164/56
f 135/202/56 134/200/56 147/164/56
f 148/151/56 141/201/56 146/157/56
f 140/159/56 147/164/56 148/151/56
f 144/167/11 145/160/11 146/157/11
f 123/169/11 122/141/11 121/147/11
f 184/171/2 98/58/3 162/57/3
