# Exported from Wings 3D 2.1.5
mtllib windowedge.mtl
o Torus1
#21 vertices, 21 faces
v -54.15672927 -9.2836882e-15 0.44069050
v -45.54327720 -2.29610059 5.5774429e-15
v -44.24264069 -4.24264069 5.4181608e-15
v -42.29610059 -5.54327720 5.1797784e-15
v -40.00000000 -6.00000000 4.8985872e-15
v -37.70389941 -5.54327720 4.6173960e-15
v -35.75735931 -4.24264069 4.3790136e-15
v -34.45672280 -2.29610059 4.2197315e-15
v -34.00000000 -7.3478808e-16 4.1637991e-15
v -45.54327720 -2.29610059 -60.00000000
v -46.00000000 0.0000000e+0 -60.00000000
v -34.00000000 -7.3478808e-16 -60.00000000
v -34.45672280 -2.29610059 -60.00000000
v -35.75735931 -4.24264069 -60.00000000
v -37.70389941 -5.54327720 -60.00000000
v -40.00000000 -6.00000000 -60.00000000
v -42.29610059 -5.54327720 -60.00000000
v -44.24264069 -4.24264069 -60.00000000
v -53.38955944 -3.85682317 0.44069050
v -54.15672927 -1.2695653e-15 -60.00000000
v -53.38955944 -3.85682317 -60.00000000
vt 8.4415534e-3 0.49771900
vt 8.4415534e-3 0.99407335
vt 2.7808340e-2 0.49771900
vt 2.7808340e-2 0.99407335
vt 4.7175126e-2 0.49771900
vt 4.7175126e-2 0.99407335
vt 6.6541912e-2 0.49771900
vt 6.6541912e-2 0.99407335
vt 8.5908698e-2 0.49771900
vt 8.5908698e-2 0.99407335
vt 0.10527548 0.49771900
vt 0.10527548 0.99407335
vt 0.12464227 0.49771900
vt 0.12464227 0.99407335
vt 0.14400906 0.49771900
vt 0.14400906 0.99407335
vt 0.21018964 0.49407335
vt 0.21018964 0.99407335
vt 0.24272056 0.49407335
vt 0.24272056 0.99407335
vt 0.49845553 0.77589584
vt 0.49845553 0.43678784
vt 0.54421961 0.77589584
vt 0.61154670 0.77589584
vt 0.61154670 0.43926037
vn -0.47745924 0.87865390 2.1074421e-16
vn -0.38268343 -0.92387953 3.9404609e-17
vn -0.70710678 -0.70710678 1.0315209e-16
vn -0.38268343 -0.92387953 9.0258080e-17
vn 3.2544240e-16 -1.00000000 6.4470057e-18
vn 0.38268343 -0.92387953 -3.8682034e-17
vn 0.70710678 -0.70710678 -8.3811074e-17
vn 0.92387953 -0.38268343 -1.1121085e-16
vn 0.77301045 0.63439328 -5.3486863e-17
vn -0.38268343 -0.92387953 2.8029382e-17
vn -1.7214080e-16 1.00000000 7.6414323e-17
vn 0.77301045 0.63439328 -9.0950751e-17
vn 0.92387953 -0.38268343 -1.1080791e-16
vn 0.70710678 -0.70710678 -9.0258080e-17
vn 0.38268343 -0.92387953 -4.5129040e-17
vn 6.5088481e-16 -1.00000000 -8.3259232e-32
vn -0.38268343 -0.92387953 7.0917063e-17
vn -0.70710678 -0.70710678 9.0258080e-17
vn -0.55557023 -0.83146961 6.9759799e-17
vn -0.95491849 0.29686813 2.1372226e-16
vn -0.55557023 -0.83146961 2.0711428e-17
g Torus1_Torus1_auv
usemtl Torus1_auv
s 1
f 1/22/1 11/23/11 20/21/20
f 1/19/1 20/20/20 19/17/19
f 2/15/2 10/16/10 3/13/3
f 2/15/2 19/17/19 10/16/10
f 3/13/3 17/12/17 4/11/4
f 4/11/4 17/12/17 5/9/5
f 5/9/5 15/8/15 6/7/6
f 6/7/6 15/8/15 7/5/7
f 7/5/7 13/4/13 8/3/8
f 8/3/8 13/4/13 9/1/9
f 9/25/9 11/23/11 1/22/1
f 10/16/10 19/17/19 21/18/21
f 12/2/12 9/1/9 13/4/13
f 12/24/12 11/23/11 9/25/9
f 13/4/13 7/5/7 14/6/14
f 14/6/14 7/5/7 15/8/15
f 15/8/15 5/9/5 16/10/16
f 16/10/16 5/9/5 17/12/17
f 17/12/17 3/13/3 18/14/18
f 18/14/18 3/13/3 10/16/10
f 21/18/21 19/17/19 20/20/20
