<?xml version="1.0" encoding="UTF-8" standalone="no"?>
<!-- Created with Inkscape (http://www.inkscape.org/) -->

<svg
   xmlns:dc="http://purl.org/dc/elements/1.1/"
   xmlns:cc="http://creativecommons.org/ns#"
   xmlns:rdf="http://www.w3.org/1999/02/22-rdf-syntax-ns#"
   xmlns:svg="http://www.w3.org/2000/svg"
   xmlns="http://www.w3.org/2000/svg"
   xmlns:sodipodi="http://sodipodi.sourceforge.net/DTD/sodipodi-0.dtd"
   xmlns:inkscape="http://www.inkscape.org/namespaces/inkscape"
   width="1000"
   height="1000"
   viewBox="0 0 999.9999880656118 999.9999880410413"
   id="svg4166"
   version="1.1"
   inkscape:version="0.91 r13725"
   sodipodi:docname="RE-hud-dead_export.svg">
  <defs
     id="defs4168" />
  <sodipodi:namedview
     id="base"
     pagecolor="#000000"
     bordercolor="#666666"
     borderopacity="1.0"
     inkscape:pageopacity="0"
     inkscape:pageshadow="2"
     inkscape:zoom="0.6999999996306284"
     inkscape:cx="498.8090081964231"
     inkscape:cy="328.1603833950417"
     inkscape:document-units="px"
     inkscape:current-layer="g4346"
     showgrid="false"
     units="px"
     showguides="true"
     inkscape:snap-nodes="false"
     inkscape:snap-intersection-paths="true"
     inkscape:object-nodes="true"
     inkscape:snap-smooth-nodes="true" />
  <metadata
     id="metadata4171">
    <rdf:RDF>
      <cc:Work
         rdf:about="">
        <dc:format>image/svg+xml</dc:format>
        <dc:type
           rdf:resource="http://purl.org/dc/dcmitype/StillImage" />
        <dc:title></dc:title>
      </cc:Work>
    </rdf:RDF>
  </metadata>
  <g
     inkscape:label="Ebene 1"
     inkscape:groupmode="layer"
     id="layer1"
     transform="translate(0,-52.36228930856214)">
    <g
       id="g4346">
      <g
         id="g4179">
        <path
           id="path4146-1-3-0-4"
           transform="translate(0,52.36228930856214)"
           d="M 500 65.333984375 C 165.8238333464881 66.0482700900393 117.3195022910297 369.7872047937782 200 550.333984375 C 214.9076406128736 530.5324970186118 232 450.3339843750001 232 450.333984375 C 247.3723014063113 533.2485675102121 202 539.8937117678959 202 632.333984375 C 202 719.8748011960364 321 776.3857447626051 321 841.333984375 C 321 873.102911069425 282.3419080548715 896.1211424260194 315.5 904.369140625 C 340.7165101790685 910.641688842966 338.1460857035643 891.1213416456657 344.0234375 883.677734375 C 346.3253362723847 880.7624026011134 349.1152343749999 880.662534544667 349.115234375 885.119140625 C 349.115234375 895.173147747514 339.9472319888695 917.7753906249998 368.03125 917.775390625 C 385.4613064024036 917.775390625 390.8808593750001 910.9172646804053 390.880859375 893.45703125 C 390.880859375 889.6313501834918 399.9999999999999 890.3317999429166 400 893.333984375 C 400 896.8895084607183 391.5625459771177 928.0449218749999 420 928.044921875 C 435.6196455210448 928.044921875 443.0058593750001 926.7713837026773 443.005859375 897.333984375 C 443.005859375 893.499839446946 454.0000000000001 890.5194310519015 454 899.333984375 C 454 915.2797857688239 442.0441371852901 934.6660156250003 473 934.666015625 C 508.0061485388334 934.666015625 483.3796903484543 895.3339843749999 497 895.333984375 L 500 895.333984375 L 503 895.333984375 C 516.6203096515458 895.333984375 491.9938514611666 934.666015625 527 934.666015625 C 557.9558628147098 934.6660156250002 546 915.2797857688239 546 899.333984375 C 546.0000000000001 890.5194310519013 556.994140625 893.4998394469461 556.994140625 897.333984375 C 556.9941406249999 926.7713837026773 564.3803544789555 928.044921875 580 928.044921875 C 608.4374540228823 928.0449218749999 600 896.8895084607184 600 893.333984375 C 600.0000000000001 890.3317999429169 609.119140625 889.6313501834918 609.119140625 893.45703125 C 609.1191406249999 910.9172646804052 614.5386935975964 917.775390625 631.96875 917.775390625 C 660.0527680111304 917.775390625 650.884765625 895.1731477475141 650.884765625 885.119140625 C 650.8847656250001 880.6625345446665 653.6746637276158 880.7624026011133 655.9765625 883.677734375 C 661.8539142964361 891.1213416456659 659.2834898209318 910.6416888429659 684.5 904.369140625 C 717.6580919451283 896.121142426019 679 873.1029110694251 679 841.333984375 C 679 776.3857447626051 798 719.8748011960364 798 632.333984375 C 797.9999999999999 539.8937117678961 752.6276985936887 533.2485675102121 768 450.333984375 C 767.9999999999999 450.3339843750001 785.0923593871264 530.5324970186117 800 550.333984375 C 882.6804977089697 369.787204793778 834.1761666535119 66.0482700900393 500 65.333984375 z "
           style="opacity:1;fill:#ffffff;fill-opacity:1;fill-rule:nonzero;stroke:none;stroke-width:20;stroke-linecap:round;stroke-linejoin:miter;stroke-miterlimit:4;stroke-dasharray:none;stroke-dashoffset:260;stroke-opacity:1" />
        <g
           id="g4162">
          <path
             sodipodi:nodetypes="ssss"
             inkscape:connector-curvature="0"
             id="path4239"
             d="m 480.0002352284012,762.6959895182418 c 5.514747210727,0 6.3527365627179,51.9340613326118 4.3884508442864,72.3425839997651 -0.9717056064298,10.0958204341356 -24.7690424680768,16.9154761766688 -24.7690424680768,0.525381364978 0,-59.387624598853 20.3805916237904,-72.8679653647431 20.3805916237904,-72.8679653647431 z"
             style="opacity:1;fill:#000000;fill-opacity:1;fill-rule:nonzero;stroke:none;stroke-width:20;stroke-linecap:round;stroke-linejoin:miter;stroke-miterlimit:4;stroke-dasharray:none;stroke-dashoffset:260;stroke-opacity:1" />
          <path
             sodipodi:nodetypes="ssss"
             inkscape:connector-curvature="0"
             id="path4239-9"
             d="m 519.9989815452451,762.6960067736929 c -5.5147472107273,0 -6.352736562718,51.9340613326118 -4.3884508442864,72.3425839997651 0.9717056064294,10.0958204341356 24.7690424680768,16.9154761766688 24.7690424680768,0.5253813649781 0,-59.3876245988531 -20.3805916237905,-72.8679653647432 -20.3805916237905,-72.8679653647432 z"
             style="opacity:1;fill:#000000;fill-opacity:1;fill-rule:nonzero;stroke:none;stroke-width:20;stroke-linecap:round;stroke-linejoin:miter;stroke-miterlimit:4;stroke-dasharray:none;stroke-dashoffset:260;stroke-opacity:1" />
        </g>
        <g
           id="g4229"
           transform="translate(2.352284011521988e-4,-4.666299790320183)"
           style="stroke:none;fill:#000000;fill-opacity:1">
          <path
             sodipodi:nodetypes="ssss"
             inkscape:connector-curvature="0"
             id="path4208"
             d="m 343,777.0051461663033 c 31.8135018672626,0 104,-86.2993878456935 104,-142.6428568577412 0,-72.1362623276168 -199,-44.3476521622356 -199,31 0,24.9906759522875 58.9207594102047,111.6428568577412 95,111.6428568577412 z"
             style="opacity:1;fill:#000000;fill-opacity:1;fill-rule:nonzero;stroke:none;stroke-width:20;stroke-linecap:round;stroke-linejoin:miter;stroke-miterlimit:4;stroke-dasharray:none;stroke-dashoffset:260;stroke-opacity:1" />
          <path
             sodipodi:nodetypes="ssss"
             inkscape:connector-curvature="0"
             id="path4208-0"
             d="m 657,777.005289308562 c -31.8135018672627,0 -104,-86.2993878456939 -104,-142.6428568577414 0,-72.1362623276165 199,-44.3476521622355 199,31 0,24.9906759522877 -58.9207594102046,111.6428568577414 -95,111.6428568577414 z"
             style="opacity:1;fill:#000000;fill-opacity:1;fill-rule:nonzero;stroke:none;stroke-width:20;stroke-linecap:round;stroke-linejoin:miter;stroke-miterlimit:4;stroke-dasharray:none;stroke-dashoffset:260;stroke-opacity:1" />
        </g>
      </g>
    </g>
  </g>
</svg>
