<?xml version="1.0" encoding="UTF-8" standalone="no"?>
<!-- Created with Inkscape (http://www.inkscape.org/) -->

<svg
   xmlns:dc="http://purl.org/dc/elements/1.1/"
   xmlns:cc="http://creativecommons.org/ns#"
   xmlns:rdf="http://www.w3.org/1999/02/22-rdf-syntax-ns#"
   xmlns:svg="http://www.w3.org/2000/svg"
   xmlns="http://www.w3.org/2000/svg"
   xmlns:sodipodi="http://sodipodi.sourceforge.net/DTD/sodipodi-0.dtd"
   xmlns:inkscape="http://www.inkscape.org/namespaces/inkscape"
   width="1025"
   height="1025"
   viewBox="0 0 1024.999987767252 1024.999987742067"
   id="svg4166"
   version="1.1"
   inkscape:version="0.91 r13725"
   sodipodi:docname="RE-editing.svg">
  <defs
     id="defs4168" />
  <sodipodi:namedview
     id="base"
     pagecolor="#000000"
     bordercolor="#666666"
     borderopacity="1.0"
     inkscape:pageopacity="0"
     inkscape:pageshadow="2"
     inkscape:zoom="0.7071067843576841"
     inkscape:cx="312.7729483629142"
     inkscape:cy="403.9759986584735"
     inkscape:document-units="px"
     inkscape:current-layer="layer1"
     showgrid="false"
     units="px"
     showguides="true"
     inkscape:object-paths="true"
     inkscape:object-nodes="true"
     inkscape:snap-intersection-paths="false" />
  <metadata
     id="metadata4171">
    <rdf:RDF>
      <cc:Work
         rdf:about="">
        <dc:format>image/svg+xml</dc:format>
        <dc:type
           rdf:resource="http://purl.org/dc/dcmitype/StillImage" />
        <dc:title></dc:title>
      </cc:Work>
    </rdf:RDF>
  </metadata>
  <g
     inkscape:label="Ebene 1"
     inkscape:groupmode="layer"
     id="layer1"
     transform="translate(0,-27.36228930856214)">
    <path
       style="display:none;opacity:1;fill:#ff0000;fill-opacity:0.5583756391;stroke:none;stroke-width:0;stroke-linecap:round;stroke-linejoin:miter;stroke-miterlimit:4;stroke-dasharray:none;stroke-dashoffset:260;stroke-opacity:1"
       d="m 334,825.4422893085618 0,-321.0799999999994 312,-122.0800000000001 0,321.0799999999998 z"
       id="path4146-4"
       inkscape:connector-curvature="0"
       sodipodi:nodetypes="ccccc" />
    <g
       id="g4936"
       transform="translate(4.62135520349278,-32.65088595694442)">
      <path
         sodipodi:nodetypes="ccccc"
         inkscape:connector-curvature="0"
         id="path4144"
         d="M 34.999998102478,367.3622934947268 333.9999981024779,250.362293494727 632.9999981024775,367.3622934947268 333.999998102478,484.3622934947267 Z"
         style="opacity:1;fill:#ffffff;fill-opacity:1;stroke:none;stroke-width:0;stroke-linecap:round;stroke-linejoin:miter;stroke-miterlimit:4;stroke-dasharray:none;stroke-dashoffset:260;stroke-opacity:1" />
      <path
         sodipodi:nodetypes="ccccc"
         inkscape:connector-curvature="0"
         id="path4146"
         d="m 333.9999981024776,825.4422934947263 2e-13,-321.0799999999995 L 21.999998102478,382.282293494727 l 6e-14,321.0799999999998 z"
         style="opacity:1;fill:#ffffff;fill-opacity:1;stroke:none;stroke-width:0;stroke-linecap:round;stroke-linejoin:miter;stroke-miterlimit:4;stroke-dasharray:none;stroke-dashoffset:260;stroke-opacity:1" />
      <path
         sodipodi:nodetypes="cc"
         inkscape:connector-curvature="0"
         id="path4180-4"
         d="m 645.9999981024775,392.2822934947271 0,100.0193398312975"
         style="opacity:1;fill:none;fill-opacity:0.314720842;stroke:#ffffff;stroke-width:20;stroke-linecap:round;stroke-linejoin:miter;stroke-miterlimit:4;stroke-dasharray:none;stroke-dashoffset:260;stroke-opacity:1" />
      <path
         sodipodi:nodetypes="cc"
         inkscape:connector-curvature="0"
         id="path4182-4"
         d="M 364.1327000082301,813.6519080823732 438.7433011723435,784.458119011492"
         style="opacity:1;fill:none;fill-opacity:0.314720842;stroke:#ffffff;stroke-width:20;stroke-linecap:round;stroke-linejoin:miter;stroke-miterlimit:4;stroke-dasharray:none;stroke-dashoffset:260;stroke-opacity:1" />
      <path
         id="path4253"
         d="m 881.8033569671199,246.5459333321657 -56.0095148034354,69.1659905696704 c 19.0312621245871,-4.8462154611085 46.0076078302501,-1.2860514817174 74.8341209563971,21.9966893118791 28.767326130201,23.3558306465941 37.8583896326097,49.0024787626104 37.0748974934065,68.6254469992974 L 993.712375416924,337.1680696433422 937.7578661920221,291.857001487754 881.8033569671199,246.5459333321657 Z m 6.2381983319649,106.7055991106889 c -28.826513126147,-23.2827407935966 -55.8028588318101,-26.8429047729874 -74.8341209563971,-21.9966893118792 l -12.5864078209969,15.5429192291395 c 19.0312621245863,-4.8462154611092 46.00760783025,-1.2860514817178 74.8341209563971,21.9966893118792 28.7673261302008,23.3558306465933 37.8583896326109,49.0024787626105 37.074897493407,68.6254469992973 l 12.5864078209968,-15.5429192291393 c 0.7834921392035,-19.6229682366867 -8.307571363206,-45.2696163527037 -37.0748974934069,-68.6254469992975 z m -25.1728156419938,31.0858384582789 c -28.8265131261472,-23.2827407935971 -55.8028588318109,-26.842904772988 -74.8341209563967,-21.9966893118792 L 485.9608309967728,735.3707430886004 c 19.0312621245873,-4.8462154611091 46.0076078302499,-1.2860514817177 74.8341209563969,21.9966893118792 28.7673261302,23.3558306465941 37.8583896326103,49.0024787626098 37.0748974934069,68.6254469992971 L 899.9436371504981,452.9628179004308 c 0.783492139204,-19.6229682366863 -8.3075713632062,-45.2696163527039 -37.0748974934066,-68.6254469992973 z M 548.2085441321728,772.9103516296188 C 519.382031006025,749.6276108360226 492.4056853003632,746.0674468566304 473.374423175776,750.9136623177397 l -10.6416378323048,56.0447529847644 c 11.894538827867,-3.0288846631944 28.7559840352955,-0.8053000392796 46.7725547391369,13.746412956718 17.9795788313754,14.5973941541214 23.6614935203817,30.6265492266316 23.1718109333792,42.8909043745613 l 52.6062906095925,-22.0599340048673 c 0.7834921392034,-19.6229682366868 -8.3075713632052,-45.2696163527041 -37.074897493407,-68.6254469992973 z m -46.5697089376877,57.5088011478158 c -15.0765029362094,-12.177064510077 -29.3306345011333,-15.7057556129109 -40.5554478349677,-14.7636901363969 l -16.0833873595177,84.7068266675244 79.5118550106188,-33.3434663136369 c -1.4122908337656,-11.1753906572584 -7.8274721645364,-24.38437911447 -22.8730198161334,-36.5996702174906 z"
         style="opacity:1;fill:#ffffff;fill-opacity:1;stroke:none;stroke-width:20;stroke-linecap:round;stroke-linejoin:miter;stroke-miterlimit:4;stroke-dasharray:none;stroke-dashoffset:260;stroke-opacity:0.3807106766"
         inkscape:connector-curvature="0" />
      <path
         id="path4270-6-8"
         d="M 956.6363642470289,268.5426761121374 C 927.8098511208819,245.2599353185407 900.8335054152188,241.69977133915 881.8022432906318,246.5459868002583 l -12.5864078209969,15.5429192291394 c 0,0 26.0941158145139,33.9981940058659 49.661305314404,53.082527770158 23.5671894998893,19.0843337642918 62.2477131354002,37.5396085410184 62.2477131354002,37.5396085410184 l 12.5864078209961,-15.5429192291396 c 0.7834921392033,-19.6229682366867 -8.3075713632054,-45.2696163527035 -37.0748974934063,-68.6254469992972 z"
         style="color:#000000;clip-rule:nonzero;display:inline;overflow:visible;visibility:visible;opacity:1;isolation:auto;mix-blend-mode:normal;color-interpolation:sRGB;color-interpolation-filters:linearRGB;solid-color:#000000;solid-opacity:1;fill:#ffffff;fill-opacity:1;fill-rule:nonzero;stroke:none;stroke-width:5;stroke-linecap:round;stroke-linejoin:miter;stroke-miterlimit:4;stroke-dasharray:none;stroke-dashoffset:0;stroke-opacity:0.3921568627;color-rendering:auto;image-rendering:auto;shape-rendering:auto;text-rendering:auto;enable-background:accumulate"
         inkscape:connector-curvature="0" />
    </g>
  </g>
</svg>
