# Blender v2.80 (sub 39) OBJ File: 'industrial_set.blend'
# www.blender.org
g mesh
v -2.000000 -1.850000 1.850000
v -2.000000 1.843003 1.850000
v -2.000000 -1.850000 -1.850000
v -2.000000 1.843003 -1.850000
v -2.000000 -2.000000 -2.000000
v -2.000000 -2.000000 2.000000
v -2.000000 1.993003 2.000000
v -2.000000 1.993003 -2.000000
v 2.000000 -1.850000 1.850000
v 2.000000 1.843003 1.850000
v 2.000000 1.843003 -1.850000
v 0.000000 0.000000 2.150000
v 0.000000 2.143003 0.000000
v 0.000000 0.000000 -2.150000
v 0.000000 -2.150000 0.000000
v 0.000000 0.000000 1.924544
v 0.000000 -0.000000 -1.924544
v 0.000000 1.917547 0.000000
v 0.000000 -1.924544 -0.000000
v 2.000000 -1.850000 -1.850000
v 2.000000 1.993003 -2.000000
v 2.000000 -2.000000 -2.000000
v 2.000000 -2.000000 2.000000
v 2.000000 1.993003 2.000000
vt 0.415229 0.492665
vt 0.212183 0.492665
vt 0.313706 0.370416
vt 0.624366 0.492665
vt 0.421320 0.492665
vt 0.522843 0.370416
vt 0.989340 0.735330
vt 0.989340 0.509169
vt 0.996954 0.500000
vt 0.996954 0.744499
vt 0.801523 0.735330
vt 0.793909 0.744499
vt 0.801523 0.509169
vt 0.793909 0.500000
vt 0.206091 0.744499
vt 0.003046 0.744499
vt 0.104569 0.622249
vt 0.206091 0.003667
vt 0.206091 0.248166
vt 0.104569 0.125917
vt 0.212183 0.744499
vt 0.400000 0.744499
vt 0.306092 0.866748
vt 0.630457 0.248166
vt 0.818274 0.248166
vt 0.724366 0.370416
vt 0.406092 0.988997
vt 0.406092 0.744499
vt 0.500000 0.866748
vt 0.600000 0.744499
vt 0.787817 0.744499
vt 0.693909 0.866748
vt 0.212183 0.248166
vt 0.415229 0.248166
vt 0.421320 0.248166
vt 0.624366 0.248166
vt 0.003046 0.248166
vt 0.003046 0.003668
vt 0.003046 0.500000
vt 0.206091 0.500000
vt 0.787817 0.988998
vt 0.600000 0.988998
vt 0.818274 0.492665
vt 0.630457 0.492665
vt 0.593909 0.744499
vt 0.593909 0.988997
vt 0.400000 0.988997
vt 0.212183 0.988997
vt 0.801523 0.987164
vt 0.989340 0.987164
vt 0.996954 0.996333
vt 0.793909 0.996333
vt 0.989340 0.761002
vt 0.996954 0.751834
vt 0.801523 0.761002
vt 0.793909 0.751834
vn -0.0748 0.0000 0.9972
vn -0.0748 0.9972 0.0000
vn -1.0000 0.0000 0.0000
vn 0.0748 -0.9972 0.0000
vn 0.0000 0.0751 -0.9972
vn -0.0372 0.9993 0.0000
vn -0.0372 0.0000 0.9993
vn 0.0000 -0.9992 0.0403
vn -0.0372 0.0000 -0.9993
vn 0.0748 0.0000 0.9972
vn 0.0000 -0.0748 0.9972
vn 0.0000 0.0751 0.9972
vn 0.0748 0.9972 0.0000
vn 0.0000 0.9972 0.0748
vn 0.0000 0.9972 -0.0748
vn 0.0000 -0.0748 -0.9972
vn 0.0748 0.0000 -0.9972
vn -0.0748 0.0000 -0.9972
vn -0.0748 -0.9972 0.0000
vn 0.0000 -0.9972 -0.0748
vn 0.0000 -0.9972 0.0748
vn 0.0372 0.0000 -0.9993
vn 0.0000 -0.0404 -0.9992
vn 0.0000 0.0403 -0.9992
vn 0.0372 0.0000 0.9993
vn 0.0000 0.0403 0.9992
vn 0.0000 -0.0404 0.9992
vn 0.0000 -0.9992 -0.0403
vn -0.0372 -0.9993 0.0000
vn 0.0372 -0.9993 0.0000
vn 0.0372 0.9993 0.0000
vn 0.0000 0.9992 -0.0403
vn 0.0000 0.9992 0.0403
vn 1.0000 0.0000 0.0000
s off
f 7/1/1 6/2/1 12/3/1
f 8/4/2 7/5/2 13/6/2
f 1/7/3 3/8/3 5/9/3 6/10/3
f 2/11/3 1/7/3 6/10/3 7/12/3
f 4/13/3 2/11/3 7/12/3 8/14/3
f 3/8/3 4/13/3 8/14/3 5/9/3
f 22/15/4 23/16/4 15/17/4
f 8/18/5 21/19/5 14/20/5
f 9/21/6 20/22/6 19/23/6
f 20/24/7 11/25/7 17/26/7
f 4/27/8 11/28/8 18/29/8
f 10/30/9 9/31/9 16/32/9
f 23/33/10 24/34/10 12/3/10
f 6/2/11 23/33/11 12/3/11
f 24/34/12 7/1/12 12/3/12
f 24/35/13 21/36/13 13/6/13
f 7/5/14 24/35/14 13/6/14
f 21/36/15 8/4/15 13/6/15
f 22/37/16 5/38/16 14/20/16
f 21/19/17 22/37/17 14/20/17
f 5/38/18 8/18/18 14/20/18
f 6/39/19 5/40/19 15/17/19
f 5/40/20 22/15/20 15/17/20
f 23/16/21 6/39/21 15/17/21
f 1/41/22 2/42/22 16/32/22
f 2/42/23 10/30/23 16/32/23
f 9/31/24 1/41/24 16/32/24
f 4/43/25 3/44/25 17/26/25
f 3/44/26 20/24/26 17/26/26
f 11/25/27 4/43/27 17/26/27
f 10/45/28 2/46/28 18/29/28
f 11/28/29 10/45/29 18/29/29
f 2/46/30 4/27/30 18/29/30
f 3/47/31 1/48/31 19/23/31
f 1/48/32 9/21/32 19/23/32
f 20/22/33 3/47/33 19/23/33
f 11/49/34 20/50/34 22/51/34 21/52/34
f 20/50/34 9/53/34 23/54/34 22/51/34
f 10/55/34 11/49/34 21/52/34 24/56/34
f 9/53/34 10/55/34 24/56/34 23/54/34
g collider
v -2.000000 -1.850000 1.850000
v -2.000000 1.843003 1.850000
v -2.000000 -1.850000 -1.850000
v -2.000000 1.843003 -1.850000
v -2.000000 -2.000000 -2.000000
v -2.000000 -2.000000 2.000000
v -2.000000 1.993003 2.000000
v -2.000000 1.993003 -2.000000
v 2.000000 -1.850000 1.850000
v 2.000000 1.843003 1.850000
v 2.000000 1.843003 -1.850000
v 2.000000 -1.850000 -1.850000
v 2.000000 1.993003 -2.000000
v 2.000000 -2.000000 -2.000000
v 2.000000 -2.000000 2.000000
v 2.000000 1.993003 2.000000
vt 0.752937 0.651888
vt 0.752937 0.348112
vt 0.762359 0.335796
vt 0.762359 0.664204
vt 0.520950 0.651888
vt 0.511527 0.664204
vt 0.520950 0.348112
vt 0.511527 0.335796
vt 0.507758 0.997537
vt 0.256926 0.997537
vt 0.256926 0.669130
vt 0.507758 0.669130
vt 0.743954 0.669130
vt 0.743954 0.997537
vt 0.511527 0.997537
vt 0.511527 0.669130
vt 0.256926 0.664204
vt 0.256925 0.335796
vt 0.507758 0.335796
vt 0.507758 0.664204
vt 0.253156 0.335796
vt 0.253156 0.664204
vt 0.001885 0.664204
vt 0.001885 0.335796
vt 0.253156 0.330870
vt 0.001885 0.330870
vt 0.001885 0.002463
vt 0.253156 0.002463
vt 0.747723 0.997537
vt 0.747723 0.669130
vt 0.979710 0.669130
vt 0.979710 0.997537
vt 0.766128 0.664204
vt 0.766128 0.335796
vt 0.998115 0.335796
vt 0.998115 0.664204
vt 0.256925 0.002463
vt 0.489352 0.002463
vt 0.489352 0.330870
vt 0.256925 0.330870
vt 0.011307 0.985222
vt 0.243294 0.985222
vt 0.252717 0.997537
vt 0.001885 0.997537
vt 0.243294 0.681445
vt 0.252717 0.669130
vt 0.011307 0.681445
vt 0.001885 0.669130
vn -1.0000 0.0000 0.0000
vn 0.0000 0.0000 -1.0000
vn 0.0000 1.0000 0.0000
vn 0.0000 0.0000 1.0000
vn 0.0000 -1.0000 0.0000
vn 1.0000 0.0000 0.0000
s off
f 25/57/35 27/58/35 29/59/35 30/60/35
f 26/61/35 25/57/35 30/60/35 31/62/35
f 28/63/35 26/61/35 31/62/35 32/64/35
f 27/58/35 28/63/35 32/64/35 29/59/35
f 29/65/36 32/66/36 37/67/36 38/68/36
f 25/69/37 33/70/37 36/71/37 27/72/37
f 30/73/38 39/74/38 40/75/38 31/76/38
f 31/77/37 40/78/37 37/79/37 32/80/37
f 29/81/39 38/82/39 39/83/39 30/84/39
f 26/85/36 34/86/36 33/87/36 25/88/36
f 27/89/38 36/90/38 35/91/38 28/92/38
f 26/93/39 28/94/39 35/95/39 34/96/39
f 35/97/40 36/98/40 38/99/40 37/100/40
f 36/98/40 33/101/40 39/102/40 38/99/40
f 34/103/40 35/97/40 37/100/40 40/104/40
f 33/101/40 34/103/40 40/104/40 39/102/40
