<?xml version="1.0" encoding="UTF-8" standalone="no"?>
<!-- Created with Inkscape (http://www.inkscape.org/) -->

<svg
     xmlns:dc="http://purl.org/dc/elements/1.1/"
     xmlns:cc="http://creativecommons.org/ns#"
     xmlns:rdf="http://www.w3.org/1999/02/22-rdf-syntax-ns#"
     xmlns:svg="http://www.w3.org/2000/svg"
     xmlns="http://www.w3.org/2000/svg"
     xmlns:sodipodi="http://sodipodi.sourceforge.net/DTD/sodipodi-0.dtd"
     xmlns:inkscape="http://www.inkscape.org/namespaces/inkscape"
     width="1000"
     height="1000"
     viewBox="0 0 1000 1000"
     id="svg2"
     version="1.1"
     inkscape:version="0.92.0 r"
     sodipodi:docname="RE-modes-gladiator.svg"
     inkscape:export-xdpi="90"
     inkscape:export-ydpi="90">
    <defs
         id="defs4" />
    <sodipodi:namedview
         id="base"
         pagecolor="#000000"
         bordercolor="#666666"
         borderopacity="1.0"
         inkscape:pageopacity="0"
         inkscape:pageshadow="2"
         inkscape:zoom="0.5"
         inkscape:cx="254.14587"
         inkscape:cy="514.55742"
         inkscape:document-units="px"
         inkscape:current-layer="layer1"
         showgrid="false"
         units="px"
         inkscape:snap-bbox="true"
         inkscape:showpageshadow="false"
         borderlayer="true"
         showborder="true"
         inkscape:snap-intersection-paths="true"
         inkscape:object-nodes="true"
         inkscape:snap-smooth-nodes="false"
         inkscape:object-paths="true"
         inkscape:snap-nodes="true"
         showguides="true"
         inkscape:window-width="1680"
         inkscape:window-height="987"
         inkscape:window-x="-8"
         inkscape:window-y="-8"
         inkscape:window-maximized="1" />
    <metadata
         id="metadata7">
        <rdf:RDF>
            <cc:Work
                 rdf:about="">
                <dc:format>image/svg+xml</dc:format>
                <dc:type
                     rdf:resource="http://purl.org/dc/dcmitype/StillImage" />
                <dc:title></dc:title>
                <dc:creator>
                    <cc:Agent>
                        <dc:title>Iceflower S</dc:title>
                    </cc:Agent>
                </dc:creator>
                <dc:rights>
                    <cc:Agent>
                        <dc:title></dc:title>
                    </cc:Agent>
                </dc:rights>
            </cc:Work>
        </rdf:RDF>
    </metadata>
    <g
         inkscape:label="Ebene 1"
         inkscape:groupmode="layer"
         id="layer1"
         transform="translate(0,-52.36228930856214)">
        <path
             style="display:inline;fill:#ffffff;fill-opacity:1;stroke:none;stroke-width:3.2657210827px;stroke-linecap:butt;stroke-linejoin:miter;stroke-opacity:0"
             d="M 905.9501819008678,127.694787915382 C 673.8933190305738,112.2431499333657 706.2960612413628,242.3541938989099 697.1201925910909,275.6562481141444 l 90.8884986273323,0 z"
             id="path3016"
             inkscape:connector-curvature="0"
             sodipodi:nodetypes="cccc" />
        <path
             sodipodi:nodetypes="cccccccccccccccccccccccccc"
             inkscape:connector-curvature="0"
             id="path4341"
             d="m 836.6080398755664,262.5066398410345 -32.502741457599,33.8499731247215 -122.1514924482343,0 1.4280904467745,-27.7793447447046 -70.1829327753684,36.2421490211914 -51.5903891625793,48.0463808251939 -44.9509514321513,92.4102953549971 46.6583059734488,0 44.5553858334333,-68.5893776434403 52.4790734474625,-26.1685612879074 15.7629258156644,48.0688355791357 107.871831961715,0 22.2635319912217,23.2151776286628 42.5379380030081,-44.3777862353941 -33.2516181552976,57.5925987929601 -17.4592764986756,0 -24.0872084676779,-25.327457749415 -87.3909250665104,0 0,29.2571944404954 36.7882567791478,39.6456816539221 21.7870871818884,0 21.4300645701951,0 85.2997926265906,0 44.7099292225796,-53.5745394348747 0,-105.3664537737327 z"
             style="display:inline;fill:#ffffff;fill-opacity:1;stroke:none;stroke-width:3.4755747318px;stroke-linecap:butt;stroke-linejoin:miter;stroke-opacity:0" />
        <path
             sodipodi:nodetypes="ccccccccccccccc"
             inkscape:connector-curvature="0"
             id="path4157"
             d="m 846.0082240118382,494.3620996794695 16.9524299824152,165.1852869407277 108.1098392073891,108.109851945757 -71.9100986008756,89.7050505953424 0,-31.2226947284986 -129.2807516375958,-129.2807388992278 -16.9524299824154,-165.185286940728 -69.0341827910925,81.8856736141132 37.2180648318588,37.2180648318581 -63.8435399626751,79.7520479697556 0,-31.3462505264724 -81.5255535886865,-81.5255535886869 119.8736071775715,-146.4912291046708 21.5239626615338,23.1957778907304 z"
             style="color:#000000;clip-rule:nonzero;display:inline;overflow:visible;visibility:visible;opacity:1;isolation:auto;mix-blend-mode:normal;color-interpolation:sRGB;color-interpolation-filters:linearRGB;solid-color:#000000;solid-opacity:1;fill:#ffffff;fill-opacity:1;fill-rule:evenodd;stroke:none;stroke-width:1px;stroke-linecap:butt;stroke-linejoin:miter;stroke-miterlimit:4;stroke-dasharray:none;stroke-dashoffset:0;stroke-opacity:1;color-rendering:auto;image-rendering:auto;shape-rendering:auto;text-rendering:auto;enable-background:accumulate" />
        <path
             style="fill:#ffffff;fill-opacity:1;fill-rule:evenodd;stroke:none;stroke-width:1px;stroke-linecap:butt;stroke-linejoin:miter;stroke-opacity:1"
             d="m 490.229716772994,600.8176252783414 c -13.7078712534475,-24.5806816465447 -21.6064632383592,-39.3839296754153 -7.3006753136132,-67.4606193460503 5.6098541600367,-23.1240055727321 9.7289206108353,-24.1493669147836 9.7289206108353,-24.1493669147836 11.3493250885438,-37.8560052553396 -0.9554471074954,-13.2906848195766 25.1232288284869,-64.4729681812002 0,0 -3.456211133518,-2.2590683346909 7.8534438397495,-20.4685365010209 l 9.5078555762068,-8.5496470052219 c 3.0947713334087,-20.9935392731905 14.5041558887733,-34.3573994473768 23.8144750407572,-54.3214665731798 l 12.4203766187654,-0.1109930739986 c 4.3654687846746,-3.5502188869865 8.8967309576424,-5.6885177140753 13.2967748732756,-7.3918351237125 l 6.748189091899,3.4383740803239 -5.394669629222,7.5544642180009 c 0,0 0.7383245931511,3.7474712743941 -0.7443369934697,7.2710522264112 -13.459340435052,31.9864465442589 -20.185979676487,44.9733648194542 -30.0123934009582,53.1231023214653 l -2.0449057854246,-1.0419315394923 -13.6531988967008,27.3014401000902 3.8385722400336,8.1377616574431 -12.2947921660051,24.1298882680042 -3.2786491767281,-14.2919576604946 c -20.3749819260991,39.9881535776392 -11.9551107832394,58.7373465181573 -16.2235524123798,80.1052167878681 l -8.4984867177342,-14.3975136767026 1.1309470835267,38.4621660843178 -7.9969995947683,-12.8540950142443 z"
             id="path4702-9"
             inkscape:connector-curvature="0"
             sodipodi:nodetypes="ccsccccccccsccccccccccc" />
        <path
             style="display:inline;fill:#000000;fill-opacity:1;stroke:none;stroke-width:3.4755747318px;stroke-linecap:butt;stroke-linejoin:miter;stroke-opacity:0"
             d="m 169.15625,405.31640625 c -22.9619547203364,21.8582091873043 -45.9206210906457,43.7270597235374 -68.880859375,65.58984375 10e-14,37.758463541667 -3e-13,75.5169270833328 0,113.275390625 16.6774284758708,19.9840868603688 33.3543279539574,39.9686154535647 50.03125,59.953125 45.8535156249999,5e-13 91.7070312500001,-1.3e-12 137.560546875,0 14.1369401114731,-15.2367260721372 28.2732199468552,-30.4740685203083 42.412109375,-45.708984375 0.2200331113023,-11.2422038145108 -0.3322767928029,-22.5935365755782 0.19140625,-33.7578125 6.737740367872,0.00111822797 11.4413931364518,-6.5144626386689 11.5674684512155,-12.7959135141351 C 345.4818279258113,541.37108369891 348.9254842754044,530.8701121619546 352.369140625,520.369140625 c 14.1167634803362,7.6007350463238 30.2398370665685,12.2368369971261 42.136532971399,23.2722012775597 14.5457750002745,22.3922480701146 29.0904432008633,44.785215441963 43.636904528601,67.1770174724403 22.7148437500025,6e-13 45.4296874999977,-5e-13 68.14453125,0 C 487.8762581727494,574.3757571956855 471.3405448520059,536.9200186221132 451.9921875,500.998046875 432.0755633137831,483.8794174369343 414.8654056455339,463.3694344443829 392.9456136684445,448.7210010934348 366.1727311877726,434.8953724805335 339.3998130225789,421.0698129689442 312.626953125,407.244140625 c 0.5912517014013,11.5515269330099 1.1864626117028,23.1028510220935 1.779296875,34.654296875 -35.7864583333335,7e-13 -71.5729166666663,-7e-13 -107.359375,0 -12.1491456677709,-12.6509868010803 -24.2978340014394,-25.3024128392522 -36.447265625,-37.953125 l -0.7250239281022,0.6887236773041 L 169.15625,405.31640625 Z"
             id="path4341-4-8"
             inkscape:connector-curvature="0" />
        <path
             style="display:inline;fill:#ffffff;fill-opacity:1;stroke:none;stroke-width:3.2657210827px;stroke-linecap:butt;stroke-linejoin:miter;stroke-opacity:0"
             d="m 100.937157918533,283.2363197712896 c 232.056862870294,-15.4516379820163 199.654120659505,114.6594059835279 208.8299893097769,147.9614601987623 l -90.8884986273323,0 z"
             id="path3016-4"
             inkscape:connector-curvature="0"
             sodipodi:nodetypes="cccc" />
        <path
             style="fill:#000000;fill-opacity:1;fill-rule:evenodd;stroke:none;stroke-width:1px;stroke-linecap:butt;stroke-linejoin:miter;stroke-opacity:1"
             d="m 421.205078125,499.7109375 c -8.814110554285,0.3166175771976 -18.9824803099896,9.499557081743 -14.55859375,18.6875 6.1929059999682,5.9465843560569 4.9277992625312,15.5550015552714 9.7271288776112,22.4257787344225 C 424.4522444669974,558.4839539963916 431.4927155669895,578.5110605490217 447.9375,590.357421875 c 2.0692756590663,6.0298272637201 6.0829692448856,11.4380112198152 8.15234375,17.279296875 -2.3472204703753,4.1231675315689 -3.1918355076027,8.954019546114 -0.931640625,13.349609375 3.8240610952623,8.4205711612976 9.0185457837827,16.0341432099704 12.577880184002,24.6122718477258 2.8060804405304,5.5081442540742 5.6120455054383,11.0163472861011 8.418213565998,16.5244469022742 1.8601976133855,-1.6816137447773 3.3624492129102,-4.4486923518207 4.31640625,-6.38671875 5.1571191529088,21.8561481683423 1.5454050268731,45.532722306041 8.357421875,67.341796875 1.1058483906577,2.4316890850268 5.2684645178438,-0.8634306434911 3.9081381402344,2.6632021031382 C 492.3912882490786,737.5046363630222 492.0455338999736,749.2679227770686 491.701171875,761.03125 c 4.3548870979823,-5.5412562026273 8.8674489446669,-10.9603965748498 13.037109375,-16.64453125 2.1941917617478,14.5611705821702 4.3861932577595,29.1226713073501 6.58203125,43.68359375 9.7597130551428,-23.5236049659989 28.8695908703223,-44.1114026676109 30.166015625,-70.576171875 0.5204607330325,-17.79524516369 -9.214555574318,-33.6131631987965 -14.0134686542381,-50.196510043061 C 521.5055793988008,658.1114186418321 520.0394186611631,647.2340174570365 517.431640625,636.87109375 c -5.0658616393824,-16.4608999318507 -16.0534001563224,-30.4764849986955 -19.96875,-47.3203125 -2.838737494709,-9.1695715089521 -8.7766999416142,-16.9229884753307 -15.73828125,-23.310546875 -3.4494163334659,-6.9648734963451 -3.6310147704137,-15.1738040300718 -8.0065516221988,-21.8194617906128 C 467.6712441658174,531.9729425214004 459.9923268231473,520.2318249200448 454.642578125,507.525390625 c -7.9681131966354,-1.3655786768934 -17.2335085008367,1.4145046389292 -23.5,-5.181640625 -3.0581907982441,-1.591397333272 -6.4404673217202,-2.8085075230197 -9.9375,-2.6328125 z"
             id="path4702-9-5-6"
             inkscape:connector-curvature="0" />
        <path
             sodipodi:nodetypes="cccccccccccccccccccccccccc"
             inkscape:connector-curvature="0"
             id="path4341-4"
             d="m 170.2792999438344,418.0481716969422 32.5027414575991,33.8499731247215 122.1514924482343,0 -1.4280904467745,-27.7793447447048 70.1829327753689,36.2421490211915 51.5903891625804,48.046380825194 44.9509514321514,92.4102953549971 -46.6583059734489,0 -44.555385833434,-68.5893776434401 -52.4790734474631,-26.1685612879072 -15.7629258156645,48.0688355791353 -107.8718319617154,0 -22.2635319912217,23.2151776286628 -42.5379380030081,-44.3777862353937 33.2516181552976,57.5925987929597 17.4592764986756,0 24.0872084676779,-25.3274577494145 87.3909250665104,0 0,29.257194440495 -36.7882567791477,39.6456816539226 -21.7870871818885,0 -21.4300645701951,0 -85.2997926265906,0 -44.7099292225797,-53.5745394348752 0,-105.3664537737327 z"
             style="display:inline;fill:#ffffff;fill-opacity:1;stroke:none;stroke-width:3.4755747318px;stroke-linecap:butt;stroke-linejoin:miter;stroke-opacity:0" />
        <path
             sodipodi:nodetypes="ccccccccccccccc"
             inkscape:connector-curvature="0"
             id="path4157-6"
             d="M 160.8791158075626,649.9036315353768 143.9266858251474,815.0889184761045 35.8168466177583,923.1987704218622 l 71.91009860087559,89.7050505953419 0,-31.2226947284987 129.2807516375957,-129.2807388992266 16.9524299824155,-165.1852869407279 69.0341827910926,81.8856736141131 -37.2180648318588,37.2180648318581 63.8435399626751,79.7520479697541 0,-31.3462505264708 81.5255535886868,-81.5255535886869 -119.8736071775716,-146.4912291046709 -21.5239626615338,23.1957778907299 z"
             style="color:#000000;clip-rule:nonzero;display:inline;overflow:visible;visibility:visible;opacity:1;isolation:auto;mix-blend-mode:normal;color-interpolation:sRGB;color-interpolation-filters:linearRGB;solid-color:#000000;solid-opacity:1;fill:#ffffff;fill-opacity:1;fill-rule:evenodd;stroke:none;stroke-width:1px;stroke-linecap:butt;stroke-linejoin:miter;stroke-miterlimit:4;stroke-dasharray:none;stroke-dashoffset:0;stroke-opacity:1;color-rendering:auto;image-rendering:auto;shape-rendering:auto;text-rendering:auto;enable-background:accumulate" />
        <path
             style="fill:#ffffff;fill-opacity:1;fill-rule:evenodd;stroke:none;stroke-width:1px;stroke-linecap:butt;stroke-linejoin:miter;stroke-opacity:1"
             d="m 516.6576230464066,756.3591571342489 c 13.7078712534476,-24.5806816465449 21.6064632383594,-39.3839296754154 7.3006753136133,-67.4606193460503 -5.6098541600367,-23.1240055727319 -9.7289206108353,-24.1493669147836 -9.7289206108353,-24.1493669147836 -11.3493250885438,-37.8560052553396 0.9554471074954,-13.2906848195764 -25.123228828487,-64.4729681812006 0,0 3.456211133518,-2.2590683346905 -7.8534438397495,-20.4685365010205 l -9.5078555762068,-8.5496470052218 c -3.0947713334086,-20.9935392731905 -14.5041558887732,-34.357399447377 -23.8144750407571,-54.3214665731799 l -12.4203766187654,-0.1109930739984 c -4.3654687846746,-3.5502188869865 -8.8967309576424,-5.6885177140754 -13.2967748732756,-7.3918351237126 l -6.748189091899,3.4383740803237 5.394669629222,7.5544642180008 c 0,0 -0.7383245931511,3.7474712743943 0.7443369934697,7.2710522264114 13.459340435052,31.9864465442589 20.185979676487,44.9733648194543 30.0123934009582,53.123102321465 l 2.0449057854246,-1.0419315394919 13.6531988967008,27.3014401000903 -3.8385722400337,8.1377616574429 12.2947921660052,24.129888268004 3.278649176728,-14.2919576604944 c 20.3749819260993,39.9881535776391 11.9551107832395,58.7373465181576 16.2235524123799,80.1052167878684 l 8.4984867177342,-14.3975136767026 -1.1309470835267,38.4621660843177 7.9969995947682,-12.8540950142442 z"
             id="path4702-9-5"
             inkscape:connector-curvature="0"
             sodipodi:nodetypes="ccsccccccccsccccccccccc" />
    </g>
</svg>
