<?xml version="1.0" encoding="UTF-8" standalone="no"?>
<!-- Created with Inkscape (http://www.inkscape.org/) -->

<svg
   xmlns:dc="http://purl.org/dc/elements/1.1/"
   xmlns:cc="http://creativecommons.org/ns#"
   xmlns:rdf="http://www.w3.org/1999/02/22-rdf-syntax-ns#"
   xmlns:svg="http://www.w3.org/2000/svg"
   xmlns="http://www.w3.org/2000/svg"
   xmlns:sodipodi="http://sodipodi.sourceforge.net/DTD/sodipodi-0.dtd"
   xmlns:inkscape="http://www.inkscape.org/namespaces/inkscape"
   width="1000"
   height="1000"
   viewBox="0 0 999.9999880656118 999.9999880410413"
   id="svg4166"
   version="1.1"
   inkscape:version="0.92.0 r"
   sodipodi:docname="RE-modes-onslaught.svg">
  <defs
     id="defs4168" />
  <sodipodi:namedview
     id="base"
     pagecolor="#000000"
     bordercolor="#666666"
     borderopacity="1.0"
     inkscape:pageopacity="0"
     inkscape:pageshadow="2"
     inkscape:zoom="0.7"
     inkscape:cx="668.23661"
     inkscape:cy="469.56545"
     inkscape:document-units="px"
     inkscape:current-layer="layer1"
     showgrid="false"
     units="px"
     showguides="false"
     inkscape:showpageshadow="false"
     showborder="true"
     inkscape:window-width="1680"
     inkscape:window-height="987"
     inkscape:window-x="-8"
     inkscape:window-y="-8"
     inkscape:window-maximized="1"
     inkscape:object-paths="true"
     inkscape:snap-intersection-paths="true"
     inkscape:object-nodes="true"
     inkscape:snap-nodes="false" />
  <metadata
     id="metadata4171">
    <rdf:RDF>
      <cc:Work
         rdf:about="">
        <dc:format>image/svg+xml</dc:format>
        <dc:type
           rdf:resource="http://purl.org/dc/dcmitype/StillImage" />
        <dc:title></dc:title>
      </cc:Work>
    </rdf:RDF>
  </metadata>
  <g
     inkscape:label="Ebene 1"
     inkscape:groupmode="layer"
     id="layer1"
     transform="translate(0,-52.36228930856214)">
    <g
       id="g4409"
       transform="translate(-6,0)">
      <path
         sodipodi:nodetypes="sccccccccccccccccccs"
         inkscape:connector-curvature="0"
         id="path4148-8"
         d="m 710,232.36229 c -78.2295,0 -90,101.85894 -90,190 -79.0745,0 -80.54554,67.83124 -75,110 l -115,65 2,73 38,-33 50,22 115,-125 -90,148 0,160 330,0 0,-160 -90,-148 115,125 50,-22 38,33 2,-73 -115,-65 c 5.54554,-42.16876 4.0745,-110 -75,-110 0,-88.14106 -11.7705,-190 -90,-190 z"
         style="fill:#ffffff;fill-opacity:1;fill-rule:evenodd;stroke:none;stroke-width:1px;stroke-linecap:butt;stroke-linejoin:miter;stroke-opacity:1" />
      <path
         d="m 691,302.3623 a 24,22.999998 0 0 1 -12,19.91859 24,22.999998 0 0 1 -24,0 24,22.999998 0 0 1 -12,-19.91859 l 24,0 z"
         sodipodi:end="3.1415927"
         sodipodi:start="0"
         sodipodi:ry="22.999998"
         sodipodi:rx="24"
         sodipodi:cy="302.3623"
         sodipodi:cx="667"
         sodipodi:type="arc"
         id="path4182-47"
         style="fill:#000000;fill-opacity:1;stroke:none;stroke-width:5;stroke-linecap:butt;stroke-miterlimit:0;stroke-dasharray:none;stroke-opacity:0.33953486" />
      <rect
         y="337.36227"
         x="650"
         height="65"
         width="15"
         id="rect4184-37"
         style="fill:#000000;fill-opacity:1;stroke:none;stroke-width:5;stroke-linecap:butt;stroke-miterlimit:0;stroke-dasharray:none;stroke-opacity:0.33953486" />
      <rect
         y="337.36227"
         x="685"
         height="65"
         width="15"
         id="rect4184-3-6"
         style="fill:#000000;fill-opacity:1;stroke:none;stroke-width:5;stroke-linecap:butt;stroke-miterlimit:0;stroke-dasharray:none;stroke-opacity:0.33953486" />
      <rect
         y="337.36227"
         x="720"
         height="65"
         width="15"
         id="rect4184-3-2-1"
         style="fill:#000000;fill-opacity:1;stroke:none;stroke-width:5;stroke-linecap:butt;stroke-miterlimit:0;stroke-dasharray:none;stroke-opacity:0.33953486" />
      <rect
         y="337.36227"
         x="750"
         height="65"
         width="15"
         id="rect4184-3-5-8"
         style="fill:#000000;fill-opacity:1;stroke:none;stroke-width:5;stroke-linecap:butt;stroke-miterlimit:0;stroke-dasharray:none;stroke-opacity:0.33953486" />
      <path
         d="m 777,302.3623 a 24,22.999998 0 0 1 -12,19.91859 24,22.999998 0 0 1 -24,0 24,22.999998 0 0 1 -12,-19.91859 l 24,0 z"
         sodipodi:end="3.1415927"
         sodipodi:start="0"
         sodipodi:ry="22.999998"
         sodipodi:rx="24"
         sodipodi:cy="302.3623"
         sodipodi:cx="753"
         sodipodi:type="arc"
         id="path4182-4-7"
         style="fill:#000000;fill-opacity:1;stroke:none;stroke-width:5;stroke-linecap:butt;stroke-miterlimit:0;stroke-dasharray:none;stroke-opacity:0.33953486" />
    </g>
    <g
       id="g4391"
       transform="translate(6,0)">
      <path
         sodipodi:nodetypes="sccccccccccccccccccs"
         inkscape:connector-curvature="0"
         id="path4148-9"
         d="m 290,232.36229 c -78.2295,0 -90,101.85894 -90,190 -79.0745,0 -80.54554,67.83124 -75,110 l -115,65 2,73 38,-33 50,22 115,-125 -90,148 0,160 330,0 0,-160 -90,-148 115,125 50,-22 38,33 2,-73 -115,-65 c 5.54554,-42.16876 4.0745,-110 -75,-110 0,-88.14106 -11.7705,-190 -90,-190 z"
         style="fill:#ffffff;fill-opacity:1;fill-rule:evenodd;stroke:none;stroke-width:1px;stroke-linecap:butt;stroke-linejoin:miter;stroke-opacity:1" />
      <path
         d="m 271,302.3623 a 24,22.999998 0 0 1 -12,19.91859 24,22.999998 0 0 1 -24,0 24,22.999998 0 0 1 -12,-19.91859 l 24,0 z"
         sodipodi:end="3.1415927"
         sodipodi:start="0"
         sodipodi:ry="22.999998"
         sodipodi:rx="24"
         sodipodi:cy="302.3623"
         sodipodi:cx="247"
         sodipodi:type="arc"
         id="path4182-1"
         style="fill:#000000;fill-opacity:1;stroke:none;stroke-width:5;stroke-linecap:butt;stroke-miterlimit:0;stroke-dasharray:none;stroke-opacity:0.33953486" />
      <rect
         y="337.36227"
         x="230"
         height="65"
         width="15"
         id="rect4184-4"
         style="fill:#000000;fill-opacity:1;stroke:none;stroke-width:5;stroke-linecap:butt;stroke-miterlimit:0;stroke-dasharray:none;stroke-opacity:0.33953486" />
      <rect
         y="337.36227"
         x="265"
         height="65"
         width="15"
         id="rect4184-3-1"
         style="fill:#000000;fill-opacity:1;stroke:none;stroke-width:5;stroke-linecap:butt;stroke-miterlimit:0;stroke-dasharray:none;stroke-opacity:0.33953486" />
      <rect
         y="337.36227"
         x="300"
         height="65"
         width="15"
         id="rect4184-3-2-3"
         style="fill:#000000;fill-opacity:1;stroke:none;stroke-width:5;stroke-linecap:butt;stroke-miterlimit:0;stroke-dasharray:none;stroke-opacity:0.33953486" />
      <rect
         y="337.36227"
         x="330"
         height="65"
         width="15"
         id="rect4184-3-5-4"
         style="fill:#000000;fill-opacity:1;stroke:none;stroke-width:5;stroke-linecap:butt;stroke-miterlimit:0;stroke-dasharray:none;stroke-opacity:0.33953486" />
      <path
         d="m 357,302.3623 a 24,22.999998 0 0 1 -12,19.91859 24,22.999998 0 0 1 -24,0 24,22.999998 0 0 1 -12,-19.91859 l 24,0 z"
         sodipodi:end="3.1415927"
         sodipodi:start="0"
         sodipodi:ry="22.999998"
         sodipodi:rx="24"
         sodipodi:cy="302.3623"
         sodipodi:cx="333"
         sodipodi:type="arc"
         id="path4182-4-4"
         style="fill:#000000;fill-opacity:1;stroke:none;stroke-width:5;stroke-linecap:butt;stroke-miterlimit:0;stroke-dasharray:none;stroke-opacity:0.33953486" />
    </g>
    <path
       inkscape:connector-curvature="0"
       id="path4148-2"
       d="m 499.14844,252.0332 c -40.13445,-0.42391 -76.59677,29.23109 -88.79391,66.71722 -16.27942,39.39527 -18.66796,82.64069 -20.09672,124.73005 -33.97386,4.02748 -65.31875,29.70791 -72.53282,63.71364 -4.86514,17.62464 -5.30001,36.14068 -4.00624,54.27659 -38.09454,21.3178 -75.97355,43.01896 -114.04297,64.38282 1.16588,42.45311 2.32852,84.90631 3.4961,127.35937 20.12658,-17.48274 40.25255,-34.9662 60.3789,-52.44922 17.1805,7.22914 34.38038,15.79188 51.54883,22.19336 -0.97288,11.63543 0.67225,23.32516 -0.0996,34.99219 0,48.13737 0,96.27474 0,144.41211 123.33333,0 246.66667,0 370,0 0,-60.02735 0,-120.05469 0,-180.08203 6.08261,0.70276 10.54411,-4.99856 16.30642,-6.05019 11.71426,-5.15514 23.42853,-10.31029 35.1428,-15.46544 20.12635,17.48302 40.25232,34.96647 60.3789,52.44922 1.16374,-42.44525 2.3258,-84.89055 3.48438,-127.33594 -38.00971,-21.48448 -76.01954,-42.96873 -114.0293,-64.45312 3.02603,-32.3463 -2.13286,-68.22085 -25.08136,-92.84441 C 647.59752,454.58853 628.83826,446.41084 609.69922,443.60938 608.66741,393.0891 604.15695,340.08297 578.13281,295.50586 561.46596,268.9423 530.76582,251.11364 499.14844,252.0332 Z"
       style="fill:#000000;fill-opacity:1;fill-rule:evenodd;stroke:none;stroke-width:1px;stroke-linecap:butt;stroke-linejoin:miter;stroke-opacity:1" />
    <g
       id="g4400">
      <path
         sodipodi:nodetypes="sccccccccccccccccccs"
         inkscape:connector-curvature="0"
         id="path4148"
         d="m 500,272.36229 c -78.2295,0 -90,101.85894 -90,190 -79.0745,0 -80.54554,67.83124 -75,110 l -115,65 2,73 38,-33 50,22 115,-125 -90,148 0,160 330,0 0,-160 -90,-148 115,125 50,-22 38,33 2,-73 -115,-65 c 5.54554,-42.16876 4.0745,-110 -75,-110 0,-88.14106 -11.7705,-190 -90,-190 z"
         style="fill:#ffffff;fill-opacity:1;fill-rule:evenodd;stroke:none;stroke-width:1px;stroke-linecap:butt;stroke-linejoin:miter;stroke-opacity:1" />
      <path
         d="m 481,342.3623 a 24,22.999998 0 0 1 -12,19.91859 24,22.999998 0 0 1 -24,0 24,22.999998 0 0 1 -12,-19.91859 l 24,0 z"
         sodipodi:end="3.1415927"
         sodipodi:start="0"
         sodipodi:ry="22.999998"
         sodipodi:rx="24"
         sodipodi:cy="342.3623"
         sodipodi:cx="457"
         sodipodi:type="arc"
         id="path4182"
         style="fill:#000000;fill-opacity:1;stroke:none;stroke-width:5;stroke-linecap:butt;stroke-miterlimit:0;stroke-dasharray:none;stroke-opacity:0.33953486" />
      <rect
         y="377.36227"
         x="440"
         height="65"
         width="15"
         id="rect4184"
         style="fill:#000000;fill-opacity:1;stroke:none;stroke-width:5;stroke-linecap:butt;stroke-miterlimit:0;stroke-dasharray:none;stroke-opacity:0.33953486" />
      <rect
         y="377.36227"
         x="475"
         height="65"
         width="15"
         id="rect4184-3"
         style="fill:#000000;fill-opacity:1;stroke:none;stroke-width:5;stroke-linecap:butt;stroke-miterlimit:0;stroke-dasharray:none;stroke-opacity:0.33953486" />
      <rect
         y="377.36227"
         x="510"
         height="65"
         width="15"
         id="rect4184-3-2"
         style="fill:#000000;fill-opacity:1;stroke:none;stroke-width:5;stroke-linecap:butt;stroke-miterlimit:0;stroke-dasharray:none;stroke-opacity:0.33953486" />
      <rect
         y="377.36227"
         x="540"
         height="65"
         width="15"
         id="rect4184-3-5"
         style="fill:#000000;fill-opacity:1;stroke:none;stroke-width:5;stroke-linecap:butt;stroke-miterlimit:0;stroke-dasharray:none;stroke-opacity:0.33953486" />
      <path
         d="m 567,342.3623 a 24,22.999998 0 0 1 -12,19.91859 24,22.999998 0 0 1 -24,0 24,22.999998 0 0 1 -12,-19.91859 l 24,0 z"
         sodipodi:end="3.1415927"
         sodipodi:start="0"
         sodipodi:ry="22.999998"
         sodipodi:rx="24"
         sodipodi:cy="342.3623"
         sodipodi:cx="543"
         sodipodi:type="arc"
         id="path4182-4"
         style="fill:#000000;fill-opacity:1;stroke:none;stroke-width:5;stroke-linecap:butt;stroke-miterlimit:0;stroke-dasharray:none;stroke-opacity:0.33953486" />
    </g>
  </g>
</svg>
