# Blender v3.1.2 OBJ File: 'project.blend'
# www.blender.org
mtllib mesh.mtl
o stalacite_1_Mesh.003
v 0.093317 -0.237352 -0.023716
v 0.075234 -0.593382 -0.019121
v 0.093317 -0.237352 0.023716
v 0.075234 -0.593382 0.019120
v 0.057673 -0.237352 0.062089
v 0.046497 -0.593382 0.050058
v 0.000000 -0.237352 0.076747
v 0.000000 -0.593382 0.061875
v -0.057673 -0.237352 0.062089
v -0.046497 -0.593382 0.050058
v -0.093317 -0.237352 0.023716
v -0.075234 -0.593382 0.019120
v -0.093317 -0.237352 -0.023716
v -0.075234 -0.593382 -0.019121
v -0.057673 -0.237352 -0.062090
v -0.046497 -0.593382 -0.050058
v 0.000000 -0.237352 -0.076747
v 0.000000 -0.593382 -0.061875
v 0.057673 -0.237352 -0.062090
v 0.046498 -0.593382 -0.050058
v 0.064124 -0.771396 -0.016297
v 0.046229 -1.038419 -0.011749
v 0.064124 -0.771396 0.016297
v 0.046229 -1.038419 0.011749
v 0.039631 -0.771396 0.042665
v 0.028571 -1.038419 0.030759
v 0.000000 -0.771396 0.052737
v 0.000000 -1.038419 0.038020
v -0.039630 -0.771396 0.042665
v -0.028571 -1.038419 0.030759
v -0.064123 -0.771396 0.016297
v -0.046229 -1.038419 0.011749
v -0.064123 -0.771396 -0.016297
v -0.046229 -1.038419 -0.011749
v -0.039630 -0.771396 -0.042666
v -0.028571 -1.038419 -0.030759
v 0.000000 -0.771396 -0.052738
v 0.000000 -1.038419 -0.038021
v 0.039631 -0.771396 -0.042666
v 0.028571 -1.038419 -0.030759
v 0.034229 -1.199040 -0.008699
v 0.014769 -1.360619 -0.003754
v 0.034229 -1.199040 0.008699
v 0.014769 -1.360619 0.003753
v 0.021155 -1.199040 0.022775
v 0.000000 -1.360619 0.012146
v 0.000000 -1.199040 0.028151
v -0.010592 -1.360619 0.007695
v -0.021155 -1.199040 0.022775
v -0.034229 -1.199040 0.008699
v -0.014769 -1.360619 -0.003754
v -0.034229 -1.199040 -0.008699
v -0.012563 -1.360619 -0.007140
v -0.021155 -1.199040 -0.022775
v 0.000000 -1.360619 -0.012147
v 0.000000 -1.199040 -0.028151
v 0.009128 -1.360619 -0.009827
v 0.021155 -1.199040 -0.022775
v 0.194332 -0.000001 -0.049389
v 0.194331 -0.000000 0.049389
v 0.120103 -0.000000 0.129301
v 0.000000 -0.000000 0.159825
v -0.120103 -0.000000 0.129301
v -0.194331 -0.000000 0.049389
v -0.194331 0.000000 -0.049389
v -0.120103 0.000000 -0.129301
v 0.000000 0.000000 -0.159825
v 0.120103 0.000000 -0.129301
v -0.003563 -1.385652 -0.002770
v 0.004738 -1.385652 -0.001742
v -0.004606 -1.385652 0.002379
v 0.002297 -1.385652 0.004133
v 0.034181 -0.000000 -0.008687
v -0.034180 -0.000000 0.008687
v 0.009018 -1.362153 0.012889
v -0.013893 -1.362153 0.003905
v 0.135001 -0.071206 -0.034310
v 0.083435 -0.071205 -0.089825
v 0.000000 -0.071205 -0.111029
v -0.083435 -0.071205 -0.089825
v -0.135000 -0.071205 -0.034310
v -0.135000 -0.071205 0.034310
v -0.083435 -0.071205 0.089824
v 0.000000 -0.071205 0.111029
v 0.083435 -0.071205 0.089824
v 0.135001 -0.071205 0.034310
vt 0.680925 0.691539
vt 0.686992 0.553820
vt 0.706084 0.555975
vt 0.695156 0.692463
vt 0.726575 0.560376
vt 0.710897 0.694421
vt 0.749085 0.566820
vt 0.728826 0.697254
vt 0.770612 0.574131
vt 0.746669 0.700414
vt 0.583575 0.700062
vt 0.560307 0.572586
vt 0.579252 0.565554
vt 0.599377 0.696956
vt 0.597047 0.560641
vt 0.613660 0.694728
vt 0.617640 0.557054
vt 0.629382 0.693103
vt 0.641514 0.554384
vt 0.647264 0.691983
vt 0.665678 0.553375
vt 0.665175 0.691382
vt 0.674999 0.861412
vt 0.678735 0.759677
vt 0.691041 0.760408
vt 0.683974 0.861992
vt 0.704602 0.761901
vt 0.693828 0.863192
vt 0.719981 0.764112
vt 0.704953 0.864980
vt 0.735321 0.766714
vt 0.715993 0.867083
vt 0.614148 0.866922
vt 0.594949 0.766568
vt 0.608411 0.763966
vt 0.623834 0.864841
vt 0.620668 0.762204
vt 0.632687 0.863425
vt 0.634243 0.760937
vt 0.642547 0.862399
vt 0.649683 0.760038
vt 0.653797 0.861666
vt 0.665135 0.759586
vt 0.665072 0.861319
vt 0.667008 0.981271
vt 0.672331 0.921949
vt 0.678975 0.922647
vt 0.669622 0.981861
vt 0.686244 0.924001
vt 0.673012 0.983886
vt 0.679160 0.988260
vt 0.675897 0.985446
vt 0.694328 0.925982
vt 0.702308 0.928271
vt 0.650888 0.986417
vt 0.627571 0.927866
vt 0.634503 0.925615
vt 0.652685 0.985793
vt 0.656146 0.983104
vt 0.654792 0.983728
vt 0.640981 0.924073
vt 0.648226 0.922941
vt 0.660757 0.981712
vt 0.656569 0.922161
vt 0.664065 0.981220
vt 0.664946 0.921808
vt 0.721460 0.488809
vt 0.695520 0.485334
vt 0.700131 0.448328
vt 0.730122 0.453721
vt 0.748885 0.498063
vt 0.760669 0.466684
vt 0.778653 0.511404
vt 0.796425 0.484585
vt 0.806608 0.529123
vt 0.834000 0.509700
vt 0.548539 0.508540
vt 0.525806 0.525909
vt 0.501800 0.504525
vt 0.528743 0.477703
vt 0.572747 0.497854
vt 0.558938 0.464190
vt 0.601503 0.492216
vt 0.592870 0.459526
vt 0.634095 0.488238
vt 0.630619 0.457211
vt 0.666614 0.485815
vt 0.667469 0.451983
vt 0.159683 0.878793
vt 0.132737 0.878701
vt 0.107075 0.862005
vt 0.140246 0.842893
vt 0.666310 0.990395
vt 0.664276 0.992683
vt 0.663528 0.990785
vt 0.665124 0.989222
vt 0.179696 0.835381
vt 0.177619 0.862246
vt 0.092498 0.835082
vt 0.131949 0.827569
vt 0.165120 0.808458
vt 0.094575 0.808217
vt 0.112512 0.791670
vt 0.139458 0.791762
vn 0.9219 -0.0552 -0.3835
vn 0.9146 -0.1331 -0.3819
vn 0.9146 -0.1331 0.3819
vn 0.9219 -0.0552 0.3835
vn 0.4890 -0.1145 0.8648
vn 0.4930 -0.0478 0.8687
vn -0.0000 -0.1064 0.9943
vn 0.0000 -0.0446 0.9990
vn -0.4890 -0.1145 0.8648
vn -0.4930 -0.0478 0.8687
vn -0.9146 -0.1331 0.3819
vn -0.9219 -0.0552 0.3836
vn -0.9146 -0.1331 -0.3819
vn -0.9219 -0.0552 -0.3835
vn -0.4890 -0.1145 -0.8648
vn -0.4930 -0.0478 -0.8687
vn 0.0000 -0.1064 -0.9943
vn 0.0000 -0.0446 -0.9990
vn 0.4890 -0.1145 -0.8648
vn 0.4930 -0.0478 -0.8687
vn 0.9209 -0.0706 -0.3833
vn 0.9216 -0.0661 -0.3826
vn 0.9216 -0.0661 0.3826
vn 0.9209 -0.0706 0.3833
vn 0.4935 -0.0573 0.8679
vn 0.4925 -0.0611 0.8682
vn 0.0000 -0.0531 0.9986
vn 0.0000 -0.0569 0.9984
vn -0.4935 -0.0573 0.8679
vn -0.4925 -0.0611 0.8682
vn -0.9216 -0.0661 0.3826
vn -0.9209 -0.0706 0.3833
vn -0.9216 -0.0661 -0.3826
vn -0.9209 -0.0706 -0.3833
vn -0.4935 -0.0573 -0.8679
vn -0.4925 -0.0611 -0.8682
vn 0.0000 -0.0531 -0.9986
vn -0.0000 -0.0569 -0.9984
vn 0.4935 -0.0573 -0.8679
vn 0.4925 -0.0611 -0.8682
vn 0.9183 -0.1390 -0.3708
vn 0.9195 -0.0931 -0.3820
vn 0.9229 -0.0920 0.3739
vn 0.9127 -0.1398 0.3839
vn 0.4938 -0.0790 0.8660
vn 0.4861 -0.1209 0.8655
vn -0.5174 -0.1239 0.8467
vn -0.0698 -0.1147 0.9909
vn -0.0323 -0.0744 0.9967
vn -0.4925 -0.0817 0.8664
vn -0.9211 -0.0933 0.3780
vn -0.9220 -0.1405 0.3607
vn -0.5029 -0.1207 -0.8558
vn -0.9480 -0.1383 -0.2866
vn -0.9278 -0.0926 -0.3613
vn -0.4909 -0.0812 -0.8674
vn -0.0417 -0.1179 -0.9922
vn -0.0162 -0.0772 -0.9969
vn 0.4803 -0.1218 -0.8686
vn 0.4925 -0.0808 -0.8666
vn 0.8210 -0.4557 0.3438
vn 0.8210 -0.4557 -0.3438
vn 0.7090 -0.6491 -0.2755
vn 0.7090 -0.6491 0.2755
vn 0.4501 -0.3993 0.7987
vn 0.4152 -0.5952 0.6880
vn 0.0000 -0.3736 0.9276
vn -0.0000 -0.5653 0.8249
vn -0.4501 -0.3993 0.7987
vn -0.4152 -0.5952 0.6880
vn -0.8210 -0.4557 0.3438
vn -0.7090 -0.6491 0.2755
vn -0.8210 -0.4557 -0.3438
vn -0.7090 -0.6491 -0.2755
vn -0.4501 -0.3993 -0.7987
vn -0.4152 -0.5952 -0.6880
vn -0.0000 -0.3736 -0.9276
vn -0.0000 -0.5653 -0.8249
vn 0.4501 -0.3993 -0.7987
vn 0.4152 -0.5952 -0.6880
vn 0.0000 1.0000 -0.0000
vn 0.2757 -0.5538 0.7857
vn -0.6103 -0.5108 0.6055
vn -0.2545 -0.5237 -0.8130
vn 0.6340 -0.5494 -0.5442
usemtl Stalacite
s 1
f 2/1/1 1/2/2 3/3/3 4/4/4
f 4/4/4 3/3/3 5/5/5 6/6/6
f 6/6/6 5/5/5 7/7/7 8/8/8
f 8/8/8 7/7/7 9/9/9 10/10/10
f 10/11/10 9/12/9 11/13/11 12/14/12
f 12/14/12 11/13/11 13/15/13 14/16/14
f 14/16/14 13/15/13 15/17/15 16/18/16
f 16/18/16 15/17/15 17/19/17 18/20/18
f 18/20/18 17/19/17 19/21/19 20/22/20
f 20/22/20 19/21/19 1/2/2 2/1/1
f 22/23/21 21/24/22 23/25/23 24/26/24
f 24/26/24 23/25/23 25/27/25 26/28/26
f 26/28/26 25/27/25 27/29/27 28/30/28
f 28/30/28 27/29/27 29/31/29 30/32/30
f 30/33/30 29/34/29 31/35/31 32/36/32
f 32/36/32 31/35/31 33/37/33 34/38/34
f 34/38/34 33/37/33 35/39/35 36/40/36
f 36/40/36 35/39/35 37/41/37 38/42/38
f 38/42/38 37/41/37 39/43/39 40/44/40
f 40/44/40 39/43/39 21/24/22 22/23/21
f 42/45/41 41/46/42 43/47/43 44/48/44
f 44/48/44 43/47/43 45/49/45 75/50/46
f 48/51/47 46/52/48 47/53/49 49/54/50
f 48/55/47 49/56/50 50/57/51 76/58/52
f 53/59/53 51/60/54 52/61/55 54/62/56
f 55/63/57 53/59/53 54/62/56 56/64/58
f 57/65/59 55/63/57 56/64/58 58/66/60
f 57/65/59 58/66/60 41/46/42 42/45/41
f 43/47/43 41/46/42 22/23/21 24/26/24
f 45/49/45 43/47/43 24/26/24 26/28/26
f 47/53/49 45/49/45 26/28/26 28/30/28
f 49/54/50 47/53/49 28/30/28 30/32/30
f 50/57/51 49/56/50 30/33/30 32/36/32
f 52/61/55 50/57/51 32/36/32 34/38/34
f 54/62/56 52/61/55 34/38/34 36/40/36
f 56/64/58 54/62/56 36/40/36 38/42/38
f 58/66/60 56/64/58 38/42/38 40/44/40
f 41/46/42 58/66/60 40/44/40 22/23/21
f 23/25/23 21/24/22 2/1/1 4/4/4
f 25/27/25 23/25/23 4/4/4 6/6/6
f 27/29/27 25/27/25 6/6/6 8/8/8
f 29/31/29 27/29/27 8/8/8 10/10/10
f 31/35/31 29/34/29 10/11/10 12/14/12
f 33/37/33 31/35/31 12/14/12 14/16/14
f 35/39/35 33/37/33 14/16/14 16/18/16
f 37/41/37 35/39/35 16/18/16 18/20/18
f 39/43/39 37/41/37 18/20/18 20/22/20
f 21/24/22 39/43/39 20/22/20 2/1/1
f 86/67/61 77/68/62 59/69/63 60/70/64
f 85/71/65 86/67/61 60/70/64 61/72/66
f 84/73/67 85/71/65 61/72/66 62/74/68
f 83/75/69 84/73/67 62/74/68 63/76/70
f 82/77/71 83/78/69 63/79/70 64/80/72
f 81/81/73 82/77/71 64/80/72 65/82/74
f 80/83/75 81/81/73 65/82/74 66/84/76
f 79/85/77 80/83/75 66/84/76 67/86/78
f 78/87/79 79/85/77 67/86/78 68/88/80
f 77/68/62 78/87/79 68/88/80 59/69/63
f 59/89/81 68/90/81 67/91/81 73/92/81
f 46/52/48 72/93/82 44/48/44 75/50/46
f 48/51/47 71/94/83 72/93/82 46/52/48
f 69/95/84 53/59/53 55/63/57
f 70/96/85 69/95/84 55/63/57 57/65/59
f 42/45/41 70/96/85 57/65/59
f 71/94/83 51/60/54 53/59/53 69/95/84
f 72/93/82 71/94/83 69/95/84 70/96/85
f 44/48/44 72/93/82 70/96/85 42/45/41
f 51/60/54 71/94/83 48/55/47 76/58/52
f 59/89/81 73/92/81 61/97/81 60/98/81
f 73/92/81 67/91/81 66/99/81 74/100/81
f 61/97/81 73/92/81 74/100/81 62/101/81
f 74/100/81 66/99/81 65/102/81 64/103/81
f 62/101/81 74/100/81 64/103/81 63/104/81
f 75/50/46 45/49/45 47/53/49 46/52/48
f 51/60/54 76/58/52 50/57/51 52/61/55
f 1/2/2 19/21/19 78/87/79 77/68/62
f 19/21/19 17/19/17 79/85/77 78/87/79
f 17/19/17 15/17/15 80/83/75 79/85/77
f 15/17/15 13/15/13 81/81/73 80/83/75
f 13/15/13 11/13/11 82/77/71 81/81/73
f 11/13/11 9/12/9 83/78/69 82/77/71
f 9/9/9 7/7/7 84/73/67 83/75/69
f 7/7/7 5/5/5 85/71/65 84/73/67
f 5/5/5 3/3/3 86/67/61 85/71/65
f 3/3/3 1/2/2 77/68/62 86/67/61
