# Exported from Wings 3D 1.5.4
mtllib ivy01.mtl
o 1
#48 vertices, 48 faces
v -10.29217771 11.65734481 -2.91196959
v 6.56145810 14.06709349 -3.41271785
v 6.10659151 4.97009091 -3.24563484
v -0.70226771 -5.72362242 -2.76148581
v -8.12804699 3.10102178 -3.26329464
v 0.31292363 18.91155413 -3.78696196
v -1.89185988 11.72740979 -3.36364512
v -1.85170567 4.76692291 -3.59556518
v 17.72817723 5.15883269 -2.11014261
v 4.02680343 6.09165253 -3.34832420
v -0.83112661 -1.62222226 -4.69009053
v 7.90317680 -8.82654903 -3.34477437
v 18.37545374 3.0862594e-2 -3.00145435
v 9.91813318 11.96294515 -3.01596726
v 10.87678694 4.24752617 -2.57033735
v 9.05105817 -1.94927852 -2.45959327
v -5.15531864 -1.47568137 -3.81729202
v 6.30678256 -4.38112658 -3.45211092
v 6.03887425 -11.85947022 -2.90772846
v 0.21422453 -18.90261125 -3.53974997
v -4.88576942 -9.43534194 -3.27595100
v 2.15622035 -0.84912931 -3.46900652
v 1.06508315 -4.99932035 -3.95318588
v 0.71503233 -11.08604127 -4.02872093
v -15.90922502 8.45119252 -2.55883844
v -0.25892325 6.64948621 -3.17398545
v 0.76291452 -4.92456642 -3.90137936
v -7.42852113 -14.74105601 -2.83213031
v -16.15773681 -1.18896939 -3.43461120
v -4.39465307 13.09833448 -3.34826620
v -6.96875118 5.60278953 -2.49416663
v -6.60492201 -3.95907592 -2.32717846
v -3.92459634 5.32093301 -2.46769141
v 8.81318210 1.47992472 -2.72546355
v 6.83915157 -8.11212472 -2.45105393
v -0.16781613 -13.46000543 -2.54091857
v -6.21461727 -3.15150281 -2.80692650
v 6.98445589 10.15649900 -3.53712861
v 4.03275441 3.19144435 -1.60855160
v 1.74744674 -2.77071894 -1.43452221
v -1.67909387 13.10779271 -2.87780971
v 10.24486896 16.16417430 -2.74884999
v 15.36085139 10.19424510 -1.36108226
v 12.93541751 2.35739243 -3.44791637
v 2.98301364 5.49021682 -2.47181421
v -0.28525754 18.66124830 -3.60476952
v 6.18934851 13.68897981 -3.26323297
v 9.21962328 8.25619659 -3.14730823
vt 0.11639844 0.77725550
vt 0.12821267 0.25881468
vt 0.42847959 0.98630078
vt 0.48344135 0.59411260
vt 0.50082775 0.32481878
vt 0.54294753 2.9528546e-2
vt 0.88868993 0.52941169
vt 0.91909610 0.29533817
vn -5.5673047e-2 5.4644890e-3 -0.99843410
vn 1.3649495e-2 -1.6576625e-2 -0.99976943
vn 4.5086388e-2 -4.7399722e-2 -0.99785795
vn 7.4459094e-3 -7.8444667e-2 -0.99689066
vn -4.5327655e-2 -2.8394890e-2 -0.99856854
vn -2.0929258e-2 -5.2406769e-2 -0.99840648
vn -2.7727537e-2 -9.6629296e-3 -0.99956881
vn -1.1574707e-2 -1.4248899e-2 -0.99983148
vn -1.8311207e-2 -2.4148479e-2 0.99954067
vn -0.14098355 2.0642777e-2 0.98979670
vn -0.22164744 -5.9165328e-2 0.97333030
vn -6.8214909e-2 -0.11615234 0.99088615
vn 8.9165425e-2 -0.15044543 0.98458910
vn -8.7082101e-2 4.6655705e-2 0.99510801
vn -8.6617996e-2 4.4913398e-2 0.99522867
vn -7.3694438e-2 -5.6117225e-2 0.99570075
vn -4.3534332e-2 1.5716258e-2 -0.99892831
vn 0.12468702 7.5259848e-3 -0.99216758
vn 0.19487552 -7.5916368e-2 -0.97788559
vn 2.3894202e-2 -6.3940691e-2 -0.99766761
vn -0.15095007 -6.2261241e-2 -0.98657874
vn 6.1039006e-2 9.9815185e-2 -0.99313200
vn 5.0609961e-2 5.5041050e-2 -0.99720064
vn 2.8298444e-2 -4.3186968e-2 -0.99866615
vn -3.8534754e-2 1.1970712e-2 0.99918556
vn 0.12983306 2.0250003e-2 0.99132906
vn 0.20209333 -5.2332048e-2 0.97796710
vn 3.8152003e-2 -4.9655334e-2 0.99803746
vn -0.13250393 -6.1452223e-2 0.98927566
vn 5.6868118e-2 9.3731277e-2 0.99397206
vn 5.2460281e-2 5.6551733e-2 0.99702047
vn 3.9600854e-2 -3.1844741e-2 0.99870801
vn -9.7391989e-2 0.11713575 0.98832890
vn 0.22424924 2.8411784e-2 0.97411758
vn 0.13113372 -6.3280038e-2 0.98934301
vn -4.5425520e-2 -9.4792596e-2 0.99446010
vn -0.16824929 -3.2775395e-2 0.98519945
vn 0.12440385 0.21546555 0.96855474
vn 9.2975899e-2 0.11135919 0.98942135
vn 7.5328569e-3 -3.0415082e-2 0.99950897
vn -5.0469944e-2 -8.6696724e-2 -0.99495551
vn 0.15817773 3.4389406e-2 -0.98681162
vn 0.24856310 0.10029841 -0.96340885
vn 5.9939350e-2 8.8426439e-2 -0.99427765
vn -8.4052415e-2 -5.3482442e-2 -0.99502503
vn 2.7035080e-2 -3.3421235e-2 -0.99907564
vn 2.8142872e-2 -1.9204862e-2 -0.99941941
vn 6.5185286e-2 1.4021430e-2 -0.99777466

g mat1
usemtl mat1
s 1
f 1/8/1 8/4/8 5/7/5
f 2/2/2 7/5/7 6/6/6
f 3/1/3 8/4/8 2/2/2
f 4/3/4 8/4/8 3/1/3
f 5/7/5 8/4/8 4/3/4
f 6/6/6 7/5/7 1/8/1
f 7/5/7 2/2/2 8/4/8
f 8/4/8 1/8/1 7/5/7
f 9/8/9 16/4/16 13/7/13
f 10/2/10 15/5/15 14/6/14
f 11/1/11 16/4/16 10/2/10
f 12/3/12 16/4/16 11/1/11
f 13/7/13 16/4/16 12/3/12
f 14/6/14 15/5/15 9/8/9
f 15/5/15 10/2/10 16/4/16
f 16/4/16 9/8/9 15/5/15
f 17/8/17 24/4/24 21/7/21
f 18/2/18 23/5/23 22/6/22
f 19/1/19 24/4/24 18/2/18
f 20/3/20 24/4/24 19/1/19
f 21/7/21 24/4/24 20/3/20
f 22/6/22 23/5/23 17/8/17
f 23/5/23 18/2/18 24/4/24
f 24/4/24 17/8/17 23/5/23
f 25/8/25 31/5/31 30/6/30
f 26/2/26 32/4/32 27/1/27
f 27/1/27 32/4/32 28/3/28
f 28/3/28 32/4/32 29/7/29
f 29/7/29 32/4/32 25/8/25
f 30/6/30 31/5/31 26/2/26
f 31/5/31 25/8/25 32/4/32
f 32/4/32 26/2/26 31/5/31
f 33/8/33 39/5/39 38/6/38
f 34/2/34 40/4/40 35/1/35
f 35/1/35 40/4/40 36/3/36
f 36/3/36 40/4/40 37/7/37
f 37/7/37 40/4/40 33/8/33
f 38/6/38 39/5/39 34/2/34
f 39/5/39 33/8/33 40/4/40
f 40/4/40 34/2/34 39/5/39
f 41/8/41 48/4/48 45/7/45
f 42/2/42 47/5/47 46/6/46
f 43/1/43 48/4/48 42/2/42
f 44/3/44 48/4/48 43/1/43
f 45/7/45 48/4/48 44/3/44
f 46/6/46 47/5/47 41/8/41
f 47/5/47 42/2/42 48/4/48
f 48/4/48 41/8/41 47/5/47
