<?xml version="1.0" encoding="UTF-8" standalone="no"?>
<!-- Created with Inkscape (http://www.inkscape.org/) -->

<svg
   xmlns:dc="http://purl.org/dc/elements/1.1/"
   xmlns:cc="http://creativecommons.org/ns#"
   xmlns:rdf="http://www.w3.org/1999/02/22-rdf-syntax-ns#"
   xmlns:svg="http://www.w3.org/2000/svg"
   xmlns="http://www.w3.org/2000/svg"
   xmlns:sodipodi="http://sodipodi.sourceforge.net/DTD/sodipodi-0.dtd"
   xmlns:inkscape="http://www.inkscape.org/namespaces/inkscape"
   width="1000"
   height="1000"
   viewBox="0 0 999.9999880656118 999.9999880410413"
   id="svg4166"
   version="1.1"
   inkscape:version="0.91 r13725"
   sodipodi:docname="RE-hud-dead_export.svg">
  <defs
     id="defs4168" />
  <sodipodi:namedview
     id="base"
     pagecolor="#000000"
     bordercolor="#666666"
     borderopacity="1.0"
     inkscape:pageopacity="0"
     inkscape:pageshadow="2"
     inkscape:zoom="0.6999999996306281"
     inkscape:cx="269.641581722834"
     inkscape:cy="500.6473503900895"
     inkscape:document-units="px"
     inkscape:current-layer="layer1"
     showgrid="false"
     units="px"
     showguides="true"
     inkscape:snap-nodes="false"
     inkscape:snap-intersection-paths="true"
     inkscape:object-nodes="true"
     inkscape:snap-smooth-nodes="true" />
  <metadata
     id="metadata4171">
    <rdf:RDF>
      <cc:Work
         rdf:about="">
        <dc:format>image/svg+xml</dc:format>
        <dc:type
           rdf:resource="http://purl.org/dc/dcmitype/StillImage" />
        <dc:title />
      </cc:Work>
    </rdf:RDF>
  </metadata>
  <g
     inkscape:label="Ebene 1"
     inkscape:groupmode="layer"
     id="layer1"
     transform="translate(0,-52.36228930856214)">
    <g
       id="g4159">
      <path
         sodipodi:nodetypes="cccssssssssssssccssssssssssssccc"
         inkscape:connector-curvature="0"
         id="path4146-1-3-0-4"
         transform="translate(0,52.36228930856214)"
         d="m 500,65.333984375 c -334.1761666535119,0.7142857150393 -382.6804977089703,304.45322041877818 -300,485 14.9076406128736,-19.8014873563882 32,-99.99999999999988 32,-100 15.3723014063113,82.914583135212 -30,89.5597273928958 -30,182 0,87.5408168210364 119,144.051760387605 119,209 0,31.7689266944249 -38.6580919451285,54.7871580510194 -5.5,63.03515625 25.2165101790685,6.272548217966 22.6460857035643,-13.2477989793344 28.5234375,-20.69140625 2.3018987723847,-2.9153317738866 5.0917968749999,-3.0151998303331 5.091796875,1.44140625 0,10.054007122514 -9.1680023861305,32.6562499999997 18.916015625,32.65625 17.4300564024036,0 22.8496093750001,-6.8581259445947 22.849609375,-24.318359375 0,-3.8256810665082 9.1191406249999,-3.1252313070834 9.119140625,-0.123046875 0,3.5555240857182 -8.4374540228823,34.7109374999998 20,34.7109375 15.6196455210448,0 23.0058593750001,-1.2735381723227 23.005859375,-30.7109375 0,-3.8341449280541 10.9941406250001,-6.8145533230985 10.994140625,2 0,15.9458013938238 -11.9558628147099,35.3320312500003 19,35.33203125 35.0061485388334,0 10.3796903484543,-39.3320312500002 24,-39.33203125 2,0 4,0 6,0 13.6203096515457,0 -11.0061485388334,39.33203125 24,39.33203125 30.9558628147098,2e-13 19,-19.3862298561762 19,-35.33203125 1e-13,-8.8145533230988 10.994140625,-5.8341449280539 10.994140625,-2 -2e-13,29.4373993276773 7.3862138539554,30.7109375 23.005859375,30.7109375 28.4374540228823,-2e-13 20,-31.1554134142817 20,-34.7109375 1e-13,-3.0021844320833 9.119140625,-3.7026341915082 9.119140625,0.123046875 -2e-13,17.4602334304051 5.4195529725964,24.318359375 22.849609375,24.318359375 28.0840180111304,0 18.916015625,-22.6022428774859 18.916015625,-32.65625 1e-13,-4.4566060803335 2.7898981026157,-4.3567380238867 5.091796875,-1.44140625 5.877351796436,7.4436072706658 3.3069273209317,26.9639544679658 28.5234375,20.69140625 33.1580919451281,-8.2479981989811 -5.5,-31.266229555575 -5.5,-63.03515625 0,-64.948239612395 119,-121.4591831789636 119,-209 -2e-13,-92.440272607104 -45.3723014063113,-99.0854168647881 -30,-182 -2e-13,1e-13 17.0923593871264,80.1985126436117 32,100 82.6804977089702,-180.5467795812219 34.1761666535119,-484.2857142849607 -300,-485 z"
         style="opacity:1;fill:#ffffff;fill-opacity:1;fill-rule:nonzero;stroke:none;stroke-width:20;stroke-linecap:round;stroke-linejoin:miter;stroke-miterlimit:4;stroke-dasharray:none;stroke-dashoffset:260;stroke-opacity:1" />
      <path
         sodipodi:nodetypes="ssss"
         inkscape:connector-curvature="0"
         id="path4208"
         d="m 343.0002352284012,772.338846375983 c 31.8135018672626,0 104,-86.2993878456933 104,-142.6428568577412 0,-72.1362623276167 -199,-44.3476521622356 -199,31 0,24.9906759522876 58.9207594102047,111.6428568577412 95,111.6428568577412 z"
         style="opacity:1;fill:#000000;fill-opacity:1;fill-rule:nonzero;stroke:none;stroke-width:20;stroke-linecap:round;stroke-linejoin:miter;stroke-miterlimit:4;stroke-dasharray:none;stroke-dashoffset:260;stroke-opacity:1" />
      <path
         sodipodi:nodetypes="ssss"
         inkscape:connector-curvature="0"
         id="path4208-0"
         d="m 657.0002352284011,772.3389895182417 c -31.8135018672627,0 -104,-86.2993878456939 -104,-142.6428568577413 0,-72.1362623276166 199,-44.3476521622356 199,31 0,24.9906759522877 -58.9207594102046,111.6428568577413 -95,111.6428568577413 z"
         style="opacity:1;fill:#000000;fill-opacity:1;fill-rule:nonzero;stroke:none;stroke-width:20;stroke-linecap:round;stroke-linejoin:miter;stroke-miterlimit:4;stroke-dasharray:none;stroke-dashoffset:260;stroke-opacity:1" />
      <path
         sodipodi:nodetypes="ssss"
         inkscape:connector-curvature="0"
         id="path4239"
         d="m 480.0002352284012,762.6959895182418 c 5.514747210727,0 4.3884508442864,19.3437980431521 4.3884508442864,72.3425839997651 0,10.1424751428774 -24.7690424680768,16.9154761766688 -24.7690424680768,0.5253813649781 0,-59.3876245988531 20.3805916237904,-72.8679653647432 20.3805916237904,-72.8679653647432 z"
         style="opacity:1;fill:#000000;fill-opacity:1;fill-rule:nonzero;stroke:none;stroke-width:20;stroke-linecap:round;stroke-linejoin:miter;stroke-miterlimit:4;stroke-dasharray:none;stroke-dashoffset:260;stroke-opacity:1" />
      <path
         sodipodi:nodetypes="ssss"
         inkscape:connector-curvature="0"
         id="path4239-9"
         d="M 520.0004129922865,762.695989518242 c -5.5147472107273,0 -4.3884508442867,19.343798043152 -4.3884508442867,72.342583999765 0,10.1424751428774 24.7690424680768,16.9154761766689 24.7690424680768,0.5253813649781 0,-59.3876245988531 -20.3805916237901,-72.8679653647431 -20.3805916237901,-72.8679653647431 z"
         style="opacity:1;fill:#000000;fill-opacity:1;fill-rule:nonzero;stroke:none;stroke-width:20;stroke-linecap:round;stroke-linejoin:miter;stroke-miterlimit:4;stroke-dasharray:none;stroke-dashoffset:260;stroke-opacity:1" />
    </g>
  </g>
</svg>
