<?xml version="1.0" encoding="UTF-8" standalone="no"?>
<!-- Created with Inkscape (http://www.inkscape.org/) -->

<svg
   xmlns:dc="http://purl.org/dc/elements/1.1/"
   xmlns:cc="http://creativecommons.org/ns#"
   xmlns:rdf="http://www.w3.org/1999/02/22-rdf-syntax-ns#"
   xmlns:svg="http://www.w3.org/2000/svg"
   xmlns="http://www.w3.org/2000/svg"
   xmlns:sodipodi="http://sodipodi.sourceforge.net/DTD/sodipodi-0.dtd"
   xmlns:inkscape="http://www.inkscape.org/namespaces/inkscape"
   width="1000"
   height="1000"
   viewBox="0 0 999.9999880656118 999.9999880410413"
   id="svg4166"
   version="1.1"
   inkscape:version="0.92.0 r"
   sodipodi:docname="RE-hud-healthbg.svg">
  <defs
     id="defs4168" />
  <sodipodi:namedview
     id="base"
     pagecolor="#000000"
     bordercolor="#666666"
     borderopacity="1.0"
     inkscape:pageopacity="0"
     inkscape:pageshadow="2"
     inkscape:zoom="1.414213567969431"
     inkscape:cx="249.5245260211349"
     inkscape:cy="456.3543094783506"
     inkscape:document-units="px"
     inkscape:current-layer="layer1"
     showgrid="false"
     units="px"
     showguides="true"
     inkscape:snap-intersection-paths="false"
     inkscape:object-paths="false"
     inkscape:object-nodes="true"
     inkscape:snap-smooth-nodes="true" />
  <metadata
     id="metadata4171">
    <rdf:RDF>
      <cc:Work
         rdf:about="">
        <dc:format>image/svg+xml</dc:format>
        <dc:type
           rdf:resource="http://purl.org/dc/dcmitype/StillImage" />
        <dc:title />
      </cc:Work>
    </rdf:RDF>
  </metadata>
  <g
     inkscape:label="Ebene 1"
     inkscape:groupmode="layer"
     id="layer1"
     transform="translate(0,-52.36228930856214)">
    <path
       style="opacity:1;fill:#ffffff;fill-opacity:1;fill-rule:nonzero;stroke:none;stroke-width:20;stroke-linecap:round;stroke-linejoin:miter;stroke-miterlimit:4;stroke-dasharray:none;stroke-dashoffset:260;stroke-opacity:1"
       d="M 337,163.6403249154457 660,59.64032479529692 c 31.6403293380718,-10.18759831257284 60,26.75999999999999 60,59.99999999999999 l 0,757 c 0,33.24 -28.3596706584945,49.8124016980911 -60,60 l -323,104 c -31.6403293415053,10.187598301909 -60,-26.76 -60,-60 l 0,-756.9999998798514 c 0,-33.24 28.3596706619283,-49.8124016874271 60,-59.9999999999998 z"
       id="rect4419"
       inkscape:connector-curvature="0"
       sodipodi:nodetypes="sssssssss" />
    <g
       id="g4586"
       style="stroke:none;stroke-opacity:1;fill:#000000;fill-opacity:1">
      <path
         sodipodi:nodetypes="sssccss"
         inkscape:connector-curvature="0"
         id="rect4416-9"
         d="M 342.7162227525464,219.0970015603513 638.9686792869445,118.631248135694 c 7.9832341955175,-2.7072910976014 30.5611041298368,10.2575470211582 30.531305979376,23.4072875454004 L 668.5,648.6262346398726 l -341.000014733679,0 0,-405.7931784108362 c 0,-13.1497742864528 7.2330032907087,-21.0287635710856 15.2162374862254,-23.7360546686851 z"
         style="opacity:1;fill:#000000;fill-opacity:1;fill-rule:nonzero;stroke:none;stroke-width:20;stroke-linecap:round;stroke-linejoin:miter;stroke-miterlimit:4;stroke-dasharray:none;stroke-dashoffset:260;stroke-opacity:1" />
      <path
         sodipodi:nodetypes="sssccss"
         inkscape:connector-curvature="0"
         id="rect4416-9-1"
         d="M 654.2837772474531,881.1831025806261 358.0313207130553,981.648856005283 c -7.9832341955182,2.7072910976018 -30.5611041298372,-10.2575470211583 -30.531305979376,-23.4072875454001 L 327.5,451.653869501105 l 341,0 1.0000147336791,405.7931784108354 c 0.032405493244,13.1497343573425 -7.2330032907096,21.0287635710855 -15.216237486226,23.7360546686857 z"
         style="opacity:1;fill:#000000;fill-opacity:1;fill-rule:nonzero;stroke:none;stroke-width:20;stroke-linecap:round;stroke-linejoin:miter;stroke-miterlimit:4;stroke-dasharray:none;stroke-dashoffset:260;stroke-opacity:1" />
    </g>
    <g
       id="g4592"
       style="fill:#ffffff;fill-opacity:1">
      <path
         sodipodi:nodetypes="sssccss"
         inkscape:connector-curvature="0"
         id="rect4416"
         d="M 366.4785555029573,240.0477791703795 622.5762390175907,152.650518896407 c 6.8047808881339,-2.3222357899756 20.9237609824088,7.0431730738079 20.9237609824088,18.2591570240178 l 0,441.4526133881375 -289.9999999999996,0 0,-352.0690517443009 c 0,-11.2159839502101 6.1737746148235,-17.9232226039053 12.9785555029573,-20.2454583938818 z"
         style="opacity:1;fill:#ffffff;fill-opacity:1;fill-rule:nonzero;stroke:none;stroke-width:20;stroke-linecap:round;stroke-linejoin:miter;stroke-miterlimit:4;stroke-dasharray:none;stroke-dashoffset:260;stroke-opacity:1" />
      <path
         sodipodi:nodetypes="sssccss"
         inkscape:connector-curvature="0"
         id="rect4416-3"
         d="M 630.5214444970414,860.2326663925181 374.4237609824086,947.6299266664906 C 367.6189800942746,949.9521624564662 353.5,940.5867535926827 353.5,929.3707696424727 l 0,-441.4526133881374 289.9999999999988,0 0,352.0690517443002 c 0,11.2159839502101 -6.1737746148234,17.9232226039051 -12.9785555029573,20.2454583938818 z"
         style="opacity:1;fill:#ffffff;fill-opacity:1;fill-rule:nonzero;stroke:none;stroke-width:20;stroke-linecap:round;stroke-linejoin:miter;stroke-miterlimit:4;stroke-dasharray:none;stroke-dashoffset:260;stroke-opacity:1" />
    </g>
    <path
       style="opacity:1;fill:#000000;fill-opacity:1;fill-rule:nonzero;stroke:none;stroke-width:20;stroke-linecap:round;stroke-linejoin:miter;stroke-miterlimit:4;stroke-dasharray:none;stroke-dashoffset:260;stroke-opacity:1"
       d="M 510.1666666666666,591.6403249154459 833.1666666666659,487.6403247952973 c 31.6403293380721,-10.1875983125727 60,26.7599999999999 60,59.9999999999998 l 0,756.9999999999997 c 0,33.24 -28.359670658494,49.812401698092 -60,60 l -322.9999999999994,104 c -31.6403293415055,10.187598301909 -59.9999999999999,-26.76 -59.9999999999999,-60 l 0,-756.9999998798519 c 0,-33.24 28.3596706619282,-49.8124016874274 59.9999999999999,-59.9999999999999 z"
       id="rect4419-89"
       inkscape:connector-curvature="0"
       sodipodi:nodetypes="sssssssss" />
    <path
       style="opacity:1;fill:#ffffff;fill-opacity:1;fill-rule:nonzero;stroke:none;stroke-width:20;stroke-linecap:round;stroke-linejoin:miter;stroke-miterlimit:4;stroke-dasharray:none;stroke-dashoffset:260;stroke-opacity:1"
       d="M 540.1669999999999,613.640324915446 863.1669999999992,509.6403247952978 c 31.6403293380722,-10.1875983125726 60,26.7599999999995 60,59.9999999999994 l 0,756.9999999999997 c 0,33.240000000001 -28.359670658494,49.812401698092 -60,60 l -322.9999999999993,104 c -31.6403293415055,10.187598301909 -59.9999999999999,-26.76 -59.9999999999999,-60 l 0,-756.9999998798517 c 0,-33.2399999999999 28.3596706619282,-49.8124016874275 59.9999999999999,-59.9999999999994 z"
       id="rect4419-89-5"
       inkscape:connector-curvature="0"
       sodipodi:nodetypes="sssssssss" />
    <g
       id="g4685"
       transform="translate(-1.879385241571754,0)"
       style="fill:#000000;fill-opacity:1">
      <path
         sodipodi:nodetypes="ccccc"
         inkscape:connector-curvature="0"
         id="path4647"
         d="m 572.2529697962985,842.3622893085621 55.9999997931699,-20 -0.9999977064032,-151 -55,20 z"
         style="opacity:1;fill:#000000;fill-opacity:1;fill-rule:nonzero;stroke:none;stroke-width:20;stroke-linecap:round;stroke-linejoin:miter;stroke-miterlimit:4;stroke-dasharray:none;stroke-dashoffset:260;stroke-opacity:1" />
      <path
         sodipodi:nodetypes="ccccc"
         inkscape:connector-curvature="0"
         id="path4647-6"
         d="m 529.4858149502947,811.9465596149788 -0.3592755397791,-59.4631894361675 142.2356050975411,-50.7053511766661 0.017255467194,58.5234970097382 z"
         style="opacity:1;fill:#000000;fill-opacity:1;fill-rule:nonzero;stroke:none;stroke-width:20;stroke-linecap:round;stroke-linejoin:miter;stroke-miterlimit:4;stroke-dasharray:none;stroke-dashoffset:260;stroke-opacity:1" />
    </g>
  </g>
</svg>
