<?xml version="1.0" encoding="UTF-8" standalone="no"?>
<!-- Created with Inkscape (http://www.inkscape.org/) -->

<svg
   xmlns:dc="http://purl.org/dc/elements/1.1/"
   xmlns:cc="http://creativecommons.org/ns#"
   xmlns:rdf="http://www.w3.org/1999/02/22-rdf-syntax-ns#"
   xmlns:svg="http://www.w3.org/2000/svg"
   xmlns="http://www.w3.org/2000/svg"
   xmlns:sodipodi="http://sodipodi.sourceforge.net/DTD/sodipodi-0.dtd"
   xmlns:inkscape="http://www.inkscape.org/namespaces/inkscape"
   width="1020"
   height="1020"
   viewBox="0 0 1019.999987826924 1019.999987801862"
   id="svg4166"
   version="1.1"
   inkscape:version="0.92.0 r"
   sodipodi:docname="RE-hud-inventorybar_export.svg">
  <defs
     id="defs4168" />
  <sodipodi:namedview
     id="base"
     pagecolor="#000000"
     bordercolor="#666666"
     borderopacity="1.0"
     inkscape:pageopacity="0"
     inkscape:pageshadow="2"
     inkscape:zoom="1.000000004220998"
     inkscape:cx="118.6290738189841"
     inkscape:cy="586.8475567310418"
     inkscape:document-units="px"
     inkscape:current-layer="layer1"
     showgrid="false"
     units="px"
     showguides="true"
     inkscape:snap-intersection-paths="false"
     inkscape:object-paths="false"
     inkscape:object-nodes="true"
     inkscape:snap-smooth-nodes="true"
     inkscape:snap-nodes="false" />
  <metadata
     id="metadata4171">
    <rdf:RDF>
      <cc:Work
         rdf:about="">
        <dc:format>image/svg+xml</dc:format>
        <dc:type
           rdf:resource="http://purl.org/dc/dcmitype/StillImage" />
        <dc:title />
      </cc:Work>
    </rdf:RDF>
  </metadata>
  <g
     inkscape:label="Ebene 1"
     inkscape:groupmode="layer"
     id="layer1"
     transform="translate(0,-32.36228930856214)">
    <path
       style="opacity:1;fill:#ffffff;fill-opacity:1;fill-rule:nonzero;stroke:none;stroke-width:20;stroke-linecap:round;stroke-linejoin:miter;stroke-miterlimit:4;stroke-dasharray:none;stroke-dashoffset:260;stroke-opacity:1"
       d="M 149.1875 78 C 140.4366351072713 77.90418101568798 133 87.63006324390658 133 96.0546875 L 133 160.1484375 L 198 178.333984375 L 198 104.744140625 C 198 95.1159986180359 188.2875217350087 90.94103654699957 178 87.365234375 L 153 78.67578125 C 151.7140597831239 78.22880597850003 150.4376235561041 78.01368842633029 149.1875 78 z M 133 177.52734375 L 133 303.52734375 L 198 321.71484375 L 198 195.71484375 L 133 177.52734375 z M 133 320.90625 L 133 446.90625 L 198 465.09375 L 198 339.09375 L 133 320.90625 z M 133 464.28515625 L 133 590.28515625 L 198 608.47265625 L 198 482.47265625 L 133 464.28515625 z M 133 607.666015625 L 133 681.255859375 C 133 690.8840013819637 142.7124782649915 695.058963453 153 698.634765625 L 178 707.32421875 C 188.2875217350087 710.9000209219993 198 699.5734545069632 198 689.9453125 L 198 625.8515625 L 133 607.666015625 z "
       transform="translate(0,32.36228930856214)"
       id="rect4847" />
  </g>
</svg>
