<?xml version="1.0" encoding="UTF-8" standalone="no"?>
<!-- Created with Inkscape (http://www.inkscape.org/) -->

<svg
   xmlns:dc="http://purl.org/dc/elements/1.1/"
   xmlns:cc="http://creativecommons.org/ns#"
   xmlns:rdf="http://www.w3.org/1999/02/22-rdf-syntax-ns#"
   xmlns:svg="http://www.w3.org/2000/svg"
   xmlns="http://www.w3.org/2000/svg"
   xmlns:xlink="http://www.w3.org/1999/xlink"
   xmlns:sodipodi="http://sodipodi.sourceforge.net/DTD/sodipodi-0.dtd"
   xmlns:inkscape="http://www.inkscape.org/namespaces/inkscape"
   width="1000"
   height="1000"
   viewBox="0 0 1000 1000"
   id="svg2"
   version="1.1"
   inkscape:version="0.92.0 r"
   style="shape-rendering:crispEdges"
   sodipodi:docname="RE-hud-arrow.svg"
   inkscape:export-filename="/home/samuel/Daten/Vorschriften/Inkscape/RE/textures/hud/RE-hud-arrow.svg.png"
   inkscape:export-xdpi="23.04000091552734"
   inkscape:export-ydpi="23.04000091552734">
  <defs
     id="defs4">
    <linearGradient
       inkscape:collect="always"
       id="linearGradient4446">
      <stop
         style="stop-color:#575757;stop-opacity:1"
         offset="0"
         id="stop4448" />
      <stop
         id="stop4458"
         offset="0.206246376"
         style="stop-color:#575757;stop-opacity:1" />
      <stop
         style="stop-color:#ffffff;stop-opacity:1"
         offset="0.9257031083"
         id="stop4464" />
      <stop
         style="stop-color:#ffffff;stop-opacity:1"
         offset="1"
         id="stop4450" />
    </linearGradient>
    <linearGradient
       inkscape:collect="always"
       xlink:href="#linearGradient4446"
       id="linearGradient5032"
       x1="500"
       y1="195.1281890869141"
       x2="500"
       y2="968.1278076171875"
       gradientUnits="userSpaceOnUse"
       gradientTransform="translate(0,4.234375000173716)" />
  </defs>
  <sodipodi:namedview
     id="base"
     pagecolor="#000000"
     bordercolor="#666666"
     borderopacity="1.0"
     inkscape:pageopacity="0"
     inkscape:pageshadow="2"
     inkscape:zoom="0.3535533923653346"
     inkscape:cx="482.778124880118"
     inkscape:cy="313.5105002776149"
     inkscape:document-units="px"
     inkscape:current-layer="layer1"
     showgrid="false"
     units="px"
     showguides="true"
     inkscape:object-paths="true"
     inkscape:object-nodes="true"
     inkscape:snap-intersection-paths="true"
     inkscape:snap-smooth-nodes="true"
     inkscape:snap-text-baseline="false"
     inkscape:snap-nodes="true" />
  <metadata
     id="metadata7">
    <rdf:RDF>
      <cc:Work
         rdf:about="">
        <dc:format>image/svg+xml</dc:format>
        <dc:type
           rdf:resource="http://purl.org/dc/dcmitype/StillImage" />
        <dc:title></dc:title>
        <dc:creator>
          <cc:Agent>
            <dc:title>Iceflower S</dc:title>
          </cc:Agent>
        </dc:creator>
      </cc:Work>
    </rdf:RDF>
  </metadata>
  <g
     inkscape:label="Ebene 1"
     inkscape:groupmode="layer"
     id="layer1"
     transform="translate(0,-52.362161)">
    <path
       style="fill:#575757;fill-opacity:1;fill-rule:evenodd;stroke:none;stroke-width:1px;stroke-linecap:butt;stroke-linejoin:miter;stroke-opacity:1;shape-rendering:crispEdges"
       d="m 500,51.921875 c -7.2934283035571,6.5764336e-5 -14.2881127706681,2.8974220060361 -19.4453125,8.0546875 L 55.826171875,485.06640625 55.814453125,485.078125 c -7.84620368003224,7.8654179742204 -10.18940912520847,19.6801663688875 -5.9375,29.9453125 C 54.13353065495527,525.3001330426455 64.16180588967647,532.0005533931872 75.28515625,532 L 286,532 l 0,398 c 0,13.8071187404572 11.1928812595425,25.0000000000001 25,25 l 378,0 c 13.8071187404576,0 25,-11.1928812595426 25,-25 l 0,-398 210.71484375,0 c 11.123350360323,5.53393187e-4 21.1516255950449,-6.699866957355 25.408203125,-16.9765625 4.2519091252078,-10.2651461311125 1.9087036800319,-22.0798945257799 -5.9375,-29.9453125 l -0.01171875,-0.01171875 L 519.4453125,59.9765625 C 514.2881127706679,54.8192970060361 507.2934283035568,51.921940764336 500,51.921875 Z"
       transform="translate(0,52.362161)"
       id="path4344-6-1-9"
       inkscape:connector-curvature="0"
       sodipodi:nodetypes="ccccsccsccsccscccc" />
    <path
       style="fill:#ffffff;fill-opacity:1;fill-rule:evenodd;stroke:none;stroke-width:1px;stroke-linecap:butt;stroke-linejoin:miter;stroke-opacity:1;shape-rendering:crispEdges"
       d="m 500,98.71484375 c -5.3046999731864,2.832682279e-4 -10.3919894742989,2.10798503640061 -14.142578125,5.859375 L 127.57421875,462.857421875 c -5.7205789918737,5.7200493018968 -7.4319174686273,14.3229940769286 -4.3359375,21.796875 C 126.3342257173531,492.1278493277616 133.6273680830943,497.0004793767891 141.716796875,497 L 331,497 l 0,403 c 0,11.0456949923649 8.9543050076343,19.9999999999998 20,20 l 298,0 c 11.0456949923658,0 20,-8.9543050076348 20,-20 l 0,-403 189.283203125,0 c 8.0894287919054,4.793767893e-4 15.3825711576469,-4.8721506722383 18.478515625,-12.345703125 3.0959799686273,-7.4738809230714 1.3846414918737,-16.0768256981032 -4.3359375,-21.796875 L 514.142578125,104.57421875 C 510.391989474299,100.8228287864006 505.3046999731864,98.71512701822791 500,98.71484375 Z"
       transform="translate(0,52.362161)"
       id="path4344-6-1"
       inkscape:connector-curvature="0"
       sodipodi:nodetypes="ccccccsccscccccc" />
    <path
       style="fill:url(#linearGradient5032);fill-opacity:1;fill-rule:evenodd;stroke:none;stroke-width:1px;stroke-linecap:butt;stroke-linejoin:miter;stroke-opacity:1"
       d="M 500.0000025696928,199.362161 190,509.362161 l 161.0000025696928,0 c 11.0456949923661,0 20,8.9543050076339 20,20 l 0,443 258,0 0,-443 c 0,-11.0456949923662 8.9543050076339,-20 20,-20 L 810,509.362161 Z"
       id="path4344"
       inkscape:connector-curvature="0"
       sodipodi:nodetypes="ccssccsscc" />
  </g>
</svg>
