<?xml version="1.0" encoding="UTF-8" standalone="no"?>
<svg
   xmlns:dc="http://purl.org/dc/elements/1.1/"
   xmlns:cc="http://creativecommons.org/ns#"
   xmlns:rdf="http://www.w3.org/1999/02/22-rdf-syntax-ns#"
   xmlns:svg="http://www.w3.org/2000/svg"
   xmlns="http://www.w3.org/2000/svg"
   xmlns:sodipodi="http://sodipodi.sourceforge.net/DTD/sodipodi-0.dtd"
   xmlns:inkscape="http://www.inkscape.org/namespaces/inkscape"
   inkscape:export-ydpi="49.152"
   inkscape:export-xdpi="49.152"
   inkscape:export-filename="D:\iceflower\vorschriften\projects\community\re-graphics\textures\icons\bleed.png"
   sodipodi:docname="bleed.svg"
   inkscape:version="1.0beta1 (41b5402, 2019-11-21)"
   version="1.1"
   id="svg4166"
   viewBox="0 0 999.9999880656117 999.9999880410411"
   height="1000"
   width="1000">
  <defs
     id="defs4168" />
  <sodipodi:namedview
     inkscape:snap-bbox-midpoints="true"
     inkscape:snap-bbox-edge-midpoints="true"
     inkscape:bbox-nodes="true"
     inkscape:snap-bbox="false"
     inkscape:document-rotation="0"
     inkscape:snap-nodes="false"
     inkscape:snap-smooth-nodes="true"
     inkscape:object-nodes="true"
     inkscape:object-paths="true"
     inkscape:snap-intersection-paths="true"
     showguides="true"
     units="px"
     showgrid="false"
     inkscape:current-layer="layer1"
     inkscape:document-units="px"
     inkscape:cy="497.7588868948915"
     inkscape:cx="42.22882175140194"
     inkscape:zoom="0.5000000023743064"
     inkscape:pageshadow="2"
     inkscape:pageopacity="0"
     borderopacity="1.0"
     bordercolor="#666666"
     pagecolor="#000000"
     id="base" />
  <metadata
     id="metadata4171">
    <rdf:RDF>
      <cc:Work
         rdf:about="">
        <dc:format>image/svg+xml</dc:format>
        <dc:type
           rdf:resource="http://purl.org/dc/dcmitype/StillImage" />
        <dc:title />
      </cc:Work>
    </rdf:RDF>
  </metadata>
  <g
     transform="translate(0,-52.36228930856214)"
     id="layer1"
     inkscape:groupmode="layer"
     inkscape:label="Ebene 1">
    <path
       sodipodi:nodetypes="csssc"
       inkscape:connector-curvature="0"
       d="M 655.99066,419.33285 C 660.1365,626.79097 565.5286,703.16007 582.83342,844.09673 595.48666,947.14898 688.72966,1020.5002 791.09731,1007.931 893.46525,995.36175 966.19323,901.63193 953.54003,798.57968 936.23524,657.64301 790.25971,540.28499 655.99066,419.33285 Z"
       style="fill:#ffffff;fill-opacity:1;stroke:none;stroke-width:50;stroke-linecap:square;stroke-miterlimit:4;stroke-dasharray:none;stroke-opacity:1"
       id="path1026-1-4-0-2-4-3" />
    <path
       sodipodi:nodetypes="csssc"
       inkscape:connector-curvature="0"
       d="m 40,102.36229 c 97.03654,81.42332 24.948382,106.84917 45.249496,159.73538 14.844074,38.67012 58.226024,57.985 96.896034,43.14097 38.67031,-14.84413 57.98501,-58.22601 43.14094,-96.89612 C 204.98536,155.4563 82.666501,105.34582 40,102.36229 Z"
       style="fill:#ffffff;fill-opacity:1;stroke-width:2.50001;stroke-linecap:square"
       id="path1026-1-4-9-9" />
    <path
       id="path1026-1-4-0-2-8"
       style="fill:#ffffff;fill-opacity:1;stroke:none;stroke-width:49.9999;stroke-linecap:square;stroke-miterlimit:4;stroke-dasharray:none;stroke-opacity:1"
       d="m 136.93839,658.1376 c 43.63936,132.93539 -23.18405,162.99049 -4.42007,240.06182 13.72013,56.3541 69.00729,90.76142 123.48721,76.85088 54.48,-13.91077 87.5224,-70.8716 73.80226,-127.22586 C 311.04382,770.75327 183.45468,667.5877 136.93839,658.1376 Z"
       inkscape:connector-curvature="0"
       sodipodi:nodetypes="csssc" />
    <path
       sodipodi:nodetypes="csssc"
       inkscape:connector-curvature="0"
       d="m 712.88127,119.02065 c 35.45698,108.01002 -18.83705,132.42979 -3.59132,195.05024 11.14761,45.78772 56.06843,73.74362 100.33338,62.44135 44.265,-11.30251 71.11195,-57.58318 59.96433,-103.37102 C 854.34193,210.52088 750.67575,126.69886 712.88127,119.02065 Z"
       style="fill:#ffffff;fill-opacity:1;stroke:none;stroke-width:49.9999;stroke-linecap:square;stroke-miterlimit:4;stroke-dasharray:none;stroke-opacity:1"
       id="path1026-1-4-0-2-8-4" />
    <path
       id="path1026-1-4-0-2-7"
       style="fill:#ffffff;fill-opacity:1;stroke:none;stroke-width:50;stroke-linecap:square;stroke-miterlimit:4;stroke-dasharray:none;stroke-opacity:1"
       d="m 278.26565,160.38086 c 67.03605,199.40321 -35.61388,244.48579 -6.78985,360.0927 21.076,84.53125 106.00466,136.14225 189.69336,115.27632 83.68876,-20.86596 134.44642,-106.30736 113.37041,-190.83862 -28.82403,-115.6069 -224.8185,-270.3552 -296.27392,-284.5304 z"
       inkscape:connector-curvature="0"
       sodipodi:nodetypes="csssc" />
  </g>
</svg>
