<?xml version="1.0" encoding="UTF-8" standalone="no"?>
<svg
   xmlns:dc="http://purl.org/dc/elements/1.1/"
   xmlns:cc="http://creativecommons.org/ns#"
   xmlns:rdf="http://www.w3.org/1999/02/22-rdf-syntax-ns#"
   xmlns:svg="http://www.w3.org/2000/svg"
   xmlns="http://www.w3.org/2000/svg"
   xmlns:sodipodi="http://sodipodi.sourceforge.net/DTD/sodipodi-0.dtd"
   xmlns:inkscape="http://www.inkscape.org/namespaces/inkscape"
   sodipodi:docname="burn.svg"
   inkscape:version="1.0beta1 (41b5402, 2019-11-21)"
   version="1.1"
   id="svg4166"
   viewBox="0 0 999.9999880656117 999.9999880410411"
   height="1000"
   width="1000">
  <defs
     id="defs4168" />
  <sodipodi:namedview
     inkscape:document-rotation="0"
     inkscape:snap-nodes="true"
     inkscape:snap-smooth-nodes="true"
     inkscape:object-nodes="true"
     inkscape:object-paths="true"
     inkscape:snap-intersection-paths="false"
     showguides="false"
     units="px"
     showgrid="false"
     inkscape:current-layer="layer1"
     inkscape:document-units="px"
     inkscape:cy="447.8444990345831"
     inkscape:cx="408.8111852161771"
     inkscape:zoom="1.000000004220864"
     inkscape:pageshadow="2"
     inkscape:pageopacity="0"
     borderopacity="1.0"
     bordercolor="#666666"
     pagecolor="#000000"
     id="base" />
  <metadata
     id="metadata4171">
    <rdf:RDF>
      <cc:Work
         rdf:about="">
        <dc:format>image/svg+xml</dc:format>
        <dc:type
           rdf:resource="http://purl.org/dc/dcmitype/StillImage" />
        <dc:title />
      </cc:Work>
    </rdf:RDF>
  </metadata>
  <g
     transform="translate(0,-52.36228930856214)"
     id="layer1"
     inkscape:groupmode="layer"
     inkscape:label="Ebene 1">
    <path
       sodipodi:nodetypes="cccccccccsccccc"
       inkscape:connector-curvature="0"
       id="path4232-5"
       d="m 779.48259,138.90987 c 0,0 -189.40517,72.87954 -315.57764,163.11018 0,0 -50.26847,-67.26341 -91.40014,-97.1243 36.22552,84.46678 -44.09543,120.76656 -76.06867,209.46788 0,0 -30.47332,-18.11072 -41.04655,-70.50821 0,0 -62.52919,53.7862 -98.30965,199.42504 0,0 -40.40291,-32.11303 -61.381979,-116.32837 0,0 -105.6890796,327.86066 4.392669,538.86259 l 769.84184,2e-5 c 0,0 83.66818,-93.43511 72.72057,-151.71589 -21.3703,-113.76744 -35.51462,-58.23815 7.34695,-267.49477 0,0 -46.25655,47.19133 -102.87171,72.13425 0,0 31.53784,-88.17824 9.31076,-218.10929 0,0 -16.63343,34.84449 -60.86135,53.42359 C 779.20928,316.05573 688.5755,252.09297 779.48259,138.90987 Z"
       style="fill:#ffffff;fill-opacity:1;fill-rule:nonzero;stroke:none;stroke-width:26.3786;stroke-linecap:round;stroke-linejoin:miter;stroke-miterlimit:4;stroke-dasharray:none;stroke-dashoffset:260;stroke-opacity:1" />
    <path
       sodipodi:nodetypes="cscscc"
       inkscape:connector-curvature="0"
       id="path4137"
       d="M 733.95291,895.28767 C 729.07096,802.9834 648.96351,745.90453 637.66504,715.66054 610.58972,643.18464 749.596,483.64529 749.596,483.64529 c -28.83606,106.49923 62.53625,131.82306 125.12922,275.68803 39.22685,90.15982 -13.2686,104.75477 -25.75626,135.95434 z"
       style="fill:#000000;fill-opacity:1;fill-rule:nonzero;stroke:none;stroke-width:26.3786;stroke-linecap:round;stroke-linejoin:miter;stroke-miterlimit:4;stroke-dasharray:none;stroke-dashoffset:260;stroke-opacity:1" />
    <path
       sodipodi:nodetypes="ccscc"
       inkscape:connector-curvature="0"
       id="path4137-7-2"
       d="m 705.47064,463.68023 c 0,0 -62.6645,59.99279 -88.69478,129.0162 0,0 -89.94074,-82.89068 -75.60855,-125.97484 22.23272,-66.83403 102.96024,-43.12487 124.61403,-153.14501 32.57755,75.97689 39.6893,150.10365 39.6893,150.10365 z"
       style="fill:#000000;fill-opacity:1;fill-rule:nonzero;stroke:none;stroke-width:26.3786;stroke-linecap:round;stroke-linejoin:miter;stroke-miterlimit:4;stroke-dasharray:none;stroke-dashoffset:260;stroke-opacity:1" />
    <path
       sodipodi:nodetypes="ccccccscc"
       inkscape:connector-curvature="0"
       id="path4137-7"
       d="m 462.16569,857.63993 c 30.06439,-147.58557 135.28618,-220.33054 135.28618,-220.33054 0,0 -18.49713,49.21164 -14.27673,75.62735 5.94028,38.58728 35.78724,66.66418 59.45419,95.39893 28.41813,33.59878 45.5017,73.1249 33.37697,116.77163 l -305.26539,-10e-6 6.98425,-26.85817 c 11.63557,-44.74501 -17.78356,-95.66617 -17.78356,-95.66617 49.74569,4.2916 102.22409,55.05698 102.22409,55.05698 z"
       style="fill:#000000;fill-opacity:1;fill-rule:nonzero;stroke:none;stroke-width:26.3786;stroke-linecap:round;stroke-linejoin:miter;stroke-miterlimit:4;stroke-dasharray:none;stroke-dashoffset:260;stroke-opacity:1" />
    <path
       sodipodi:nodetypes="cccc"
       inkscape:connector-curvature="0"
       id="path4137-7-0"
       d="M 128.48619,904.82513 C 92.767603,776.36117 155.4495,602.50844 155.4495,602.50844 150.47175,757.31763 353.86109,728.80167 326.88108,905.73988 Z"
       style="fill:#000000;fill-opacity:1;fill-rule:nonzero;stroke:none;stroke-width:26.3786;stroke-linecap:round;stroke-linejoin:miter;stroke-miterlimit:4;stroke-dasharray:none;stroke-dashoffset:260;stroke-opacity:1" />
    <path
       sodipodi:nodetypes="ccccc"
       inkscape:connector-curvature="0"
       id="path4137-7-6"
       d="m 559.91238,600.37344 c -62.70971,51.3339 -99.27905,107.44301 -129.5042,179.03846 -19.9854,-10.6572 -42.59885,-19.5891 -65.47649,-21.21272 11.22776,-139.15398 140.77224,-310.22464 140.77224,-310.22464 -37.1615,78.30979 54.20845,152.3989 54.20845,152.3989 z"
       style="fill:#000000;fill-opacity:1;fill-rule:nonzero;stroke:none;stroke-width:26.3786;stroke-linecap:round;stroke-linejoin:miter;stroke-miterlimit:4;stroke-dasharray:none;stroke-dashoffset:260;stroke-opacity:1" />
    <path
       sodipodi:nodetypes="cscc"
       inkscape:connector-curvature="0"
       id="path4137-7-6-3"
       d="m 322.60434,446.83498 c -9.76006,46.50309 65.06911,105.28543 65.06911,105.28543 -29.91218,56.63093 -53.42893,116.39009 -64.72867,179.7527 0,0 -123.3757,-35.05525 -0.34044,-285.03813 z"
       style="fill:#000000;fill-opacity:1;fill-rule:nonzero;stroke:none;stroke-width:26.3786;stroke-linecap:round;stroke-linejoin:miter;stroke-miterlimit:4;stroke-dasharray:none;stroke-dashoffset:260;stroke-opacity:1" />
  </g>
</svg>
