<?xml version="1.0" encoding="UTF-8" standalone="no"?>
<!-- Created with Inkscape (http://www.inkscape.org/) -->

<svg
   xmlns:dc="http://purl.org/dc/elements/1.1/"
   xmlns:cc="http://creativecommons.org/ns#"
   xmlns:rdf="http://www.w3.org/1999/02/22-rdf-syntax-ns#"
   xmlns:svg="http://www.w3.org/2000/svg"
   xmlns="http://www.w3.org/2000/svg"
   xmlns:sodipodi="http://sodipodi.sourceforge.net/DTD/sodipodi-0.dtd"
   xmlns:inkscape="http://www.inkscape.org/namespaces/inkscape"
   width="1000"
   height="1000"
   viewBox="0 0 999.9999880656118 999.9999880410413"
   id="svg4166"
   version="1.1"
   inkscape:version="0.92.0 r"
   sodipodi:docname="RE-talk-export.svg">
  <defs
     id="defs4168" />
  <sodipodi:namedview
     id="base"
     pagecolor="#000000"
     bordercolor="#666666"
     borderopacity="1.0"
     inkscape:pageopacity="0"
     inkscape:pageshadow="2"
     inkscape:zoom="0.6999999996306526"
     inkscape:cx="107.013712380859"
     inkscape:cy="497.4723801262573"
     inkscape:document-units="px"
     inkscape:current-layer="text4155"
     showgrid="false"
     units="px"
     showguides="true" />
  <metadata
     id="metadata4171">
    <rdf:RDF>
      <cc:Work
         rdf:about="">
        <dc:format>image/svg+xml</dc:format>
        <dc:type
           rdf:resource="http://purl.org/dc/dcmitype/StillImage" />
        <dc:title></dc:title>
      </cc:Work>
    </rdf:RDF>
  </metadata>
  <g
     inkscape:label="Ebene 1"
     inkscape:groupmode="layer"
     id="layer1"
     transform="translate(0,-52.36228930856214)">
    <ellipse
       style="color:#000000;clip-rule:nonzero;display:inline;overflow:visible;visibility:visible;opacity:1;isolation:auto;mix-blend-mode:normal;color-interpolation:sRGB;color-interpolation-filters:linearRGB;solid-color:#000000;solid-opacity:1;fill:#ffffff;fill-opacity:1;fill-rule:nonzero;stroke:none;stroke-width:5;stroke-linecap:round;stroke-linejoin:miter;stroke-miterlimit:4;stroke-dasharray:none;stroke-dashoffset:0;stroke-opacity:0.3921568627;color-rendering:auto;image-rendering:auto;shape-rendering:auto;text-rendering:auto;enable-background:accumulate"
       id="path4144"
       cx="500"
       cy="433.8622741699219"
       rx="450"
       ry="300" />
    <path
       style="opacity:1;fill:#ffffff;fill-opacity:1;stroke:none;stroke-width:20;stroke-linecap:round;stroke-linejoin:miter;stroke-miterlimit:4;stroke-dasharray:none;stroke-dashoffset:260;stroke-opacity:1"
       d="m 850,970.8622968778821 -195,-325 -290,0 z"
       id="path4149"
       inkscape:connector-curvature="0"
       sodipodi:nodetypes="cccc" />
    <g
       style="font-style:normal;font-variant:normal;font-weight:bold;font-stretch:normal;font-size:406.25px;line-height:125%;font-family:Play;-inkscape-font-specification:'Play, Bold';text-align:start;letter-spacing:0px;word-spacing:0px;writing-mode:lr-tb;text-anchor:start;fill:#000000;fill-opacity:1;stroke:none;stroke-width:1px;stroke-linecap:butt;stroke-linejoin:miter;stroke-opacity:1"
       id="text4155">
      <g
         id="g4147">
        <path
           id="path4138"
           style=""
           d="m 287.947021484375,560.6123046875 q -17.0625,2.03125 -32.90625,2.03125 -13.8125,0 -24.375,-1.21875 -10.15625,-0.8125 -21.53125,-4.46875 -10.96875,-4.0625 -18.28125,-10.15625 -6.90625,-6.5 -11.78125,-17.875 -4.46875,-11.78125 -4.46875,-27.625 l 0,-102.78125 -39.8125,0 0,-36.5625 39.8125,0 0,-56.875 59.3125,0 0,56.875 54.03125,0 0,36.5625 -54.03125,0 0,92.625 q 0,20.3125 6.09375,27.625 6.09375,6.90625 26.8125,6.90625 6.90625,0 21.125,-2.03125 l 0,36.96875 z" />
        <path
           id="path4140"
           style=""
           d="m 498.892333984375,558.5810546875 -58.09375,0 0,-17.875 q -6.5,11.78125 -18.6875,17.0625 -12.1875,4.875 -44.6875,4.875 -39.8125,0 -52.8125,-12.1875 -13,-12.1875 -13,-50.78125 0,-34.9375 13.40625,-48.34375 13.40625,-13.8125 47.9375,-13.8125 l 66.625,0 0,-13.40625 q 0,-17.875 -8.53125,-23.5625 -8.125,-6.09375 -34.9375,-6.09375 -25.1875,0 -69.0625,4.875 l 0,-37.375 q 33.71875,-4.0625 75.15625,-4.0625 54.4375,0 75.5625,13.40625 21.125,13 21.125,52 l 0,135.28125 z m -59.3125,-50.375 0,-38.1875 -40.625,0 q -19.5,0 -24.375,4.46875 -4.875,4.46875 -4.875,23.96875 0,19.09375 4.875,23.15625 5.28125,4.0625 26,4.0625 10.15625,0 15.03125,0 4.875,-0.40625 10.5625,-1.21875 5.6875,-0.8125 7.71875,-2.4375 2.4375,-2.03125 4.0625,-5.28125 1.625,-3.25 1.625,-8.53125 z" />
        <path
           id="path4142"
           style=""
           d="m 612.013916015625,558.5810546875 -59.3125,0 0,-284.375 59.3125,0 0,284.375 z" />
        <path
           id="path4145"
           style=""
           d="m 865.209228515625,558.5810546875 -67.03125,0 -71.09375,-110.5 64.59375,-86.125 67.84375,0 -68.25,85.71875 73.9375,110.90625 z m -140.5625,0 -59.3125,0 0,-284.375 59.3125,0 0,284.375 z" />
      </g>
    </g>
  </g>
</svg>
