<?xml version="1.0" encoding="UTF-8" standalone="no"?>
<svg
   xmlns:dc="http://purl.org/dc/elements/1.1/"
   xmlns:cc="http://creativecommons.org/ns#"
   xmlns:rdf="http://www.w3.org/1999/02/22-rdf-syntax-ns#"
   xmlns:svg="http://www.w3.org/2000/svg"
   xmlns="http://www.w3.org/2000/svg"
   xmlns:sodipodi="http://sodipodi.sourceforge.net/DTD/sodipodi-0.dtd"
   xmlns:inkscape="http://www.inkscape.org/namespaces/inkscape"
   inkscape:export-ydpi="49.152"
   inkscape:export-xdpi="49.152"
   inkscape:export-filename="D:\iceflower\vorschriften\projects\community\re-graphics\textures\icons\femaleShape.png"
   sodipodi:docname="female.svg"
   inkscape:version="1.0beta1 (41b5402, 2019-11-21)"
   version="1.1"
   id="svg2"
   viewBox="0 0 999.9999880656118 999.9999880410413"
   height="1000"
   width="1000">
  <defs
     id="defs4">
    <filter
       id="filter4246"
       inkscape:label="Lightness-Contrast"
       style="color-interpolation-filters:sRGB;">
      <feColorMatrix
         result="fbSourceGraphic"
         id="feColorMatrix4248"
         values="10.688 0 0 -5.844 -4.844 0 10.688 0 -5.844 -4.844 0 0 10.688 -5.844 -4.844 0 0 0 1 0" />
      <feColorMatrix
         id="feColorMatrix4250"
         values="0 0 0 -1 0 0 0 0 -1 0 0 0 0 -1 0 0 0 0 1 0"
         in="fbSourceGraphic"
         result="fbSourceGraphicAlpha" />
      <feColorMatrix
         in="fbSourceGraphic"
         values="10.688 0 0 -5.844 -4.844 0 10.688 0 -5.844 -4.844 0 0 10.688 -5.844 -4.844 0 0 0 1 0"
         id="feColorMatrix4252" />
    </filter>
  </defs>
  <sodipodi:namedview
     inkscape:document-rotation="0"
     inkscape:object-paths="true"
     inkscape:snap-smooth-nodes="true"
     inkscape:object-nodes="true"
     inkscape:snap-intersection-paths="true"
     showborder="true"
     borderlayer="true"
     inkscape:showpageshadow="false"
     inkscape:snap-bbox="true"
     units="px"
     showgrid="false"
     inkscape:current-layer="g4159"
     inkscape:document-units="px"
     inkscape:cy="394.1179414819026"
     inkscape:cx="-85.57887130128597"
     inkscape:zoom="0.5000000023743019"
     inkscape:pageshadow="2"
     inkscape:pageopacity="0"
     borderopacity="1.0"
     bordercolor="#666666"
     pagecolor="#000000"
     id="base" />
  <metadata
     id="metadata7">
    <rdf:RDF>
      <cc:Work
         rdf:about="">
        <dc:format>image/svg+xml</dc:format>
        <dc:type
           rdf:resource="http://purl.org/dc/dcmitype/StillImage" />
        <dc:title />
      </cc:Work>
    </rdf:RDF>
  </metadata>
  <g
     transform="translate(0,-52.36228930856214)"
     id="layer1"
     inkscape:groupmode="layer"
     inkscape:label="Ebene 1">
    <g
       transform="translate(0,-0.8133121303205825)"
       id="g4159">
      <path
         inkscape:connector-curvature="0"
         d="m 500.00005,103.1756 c -10.66295,0.62864 -30.00391,17.36069 -34.26973,24.74929 -2.85048,4.93707 -7.50192,20.88098 -10.76532,29.84706 -2.60522,7.15768 -0.5679,26.21598 5.06768,43.92346 l 1.29648,16.25442 c 0,0 -4.60995,3.20252 -8.33361,7.15108 -3.72366,3.94856 -13.07233,17.17463 -13.07233,17.17463 l 1.16748,13.81625 c -6.60937,0 -12.09372,0.0782 -15.59864,2.11352 l -25.85227,15.01167 -1.9458,3.8916 c 0,0 -16.01017,-10.89648 -19.8493,-10.89648 -3.83903,0 -12.99943,5.77485 -17.90351,11.87046 -4.90408,6.09562 -18.097,46.70349 -18.097,46.70349 l 6.4222,37.75281 -9.34198,36.77884 2.14146,5.25472 c -18.10686,23.81392 -9.63758,26.92788 -11.99731,31.98852 0,0 -3.44419,12.31745 -8.79158,26.29516 -5.91089,15.45036 -13.84142,33.05217 -15.24389,41.00584 -2.67116,15.14926 1.78241,24.47623 1.78241,24.47623 4.36929,21.43928 1.99493,40.63698 2.14145,52.34738 0.14641,11.7104 2.922,11.50962 5.06983,16.86288 3.67886,9.16903 14.12139,24.84988 17.11443,24.58803 0,0 2.60347,0.10975 3.30679,-0.77832 0.24163,-0.3051 -0.14894,-0.80791 0,-1.16749 0.17558,-0.42376 0.73278,-0.58379 0.97397,-0.97396 0.53918,-0.87247 0.29576,-2.14825 0.97398,-2.91763 1.18944,-1.34937 4.59487,-1.20073 4.0722,-2.92193 -3.89043,-12.81069 -10.69007,-26.85203 -10.69007,-26.85203 l 1.75229,-24.32571 c 0.31958,-3.65334 6.7713,4.76053 9.38929,8.02615 1.12812,1.40712 4.09338,-1.12547 3.8916,-2.91763 -0.68934,-6.12167 -12.50257,-24.37517 -12.50257,-24.37517 l -1.75229,-9.33983 c 4.55885,-11.02603 9.21004,-21.89127 11.09213,-37.55716 l 13.42709,-26.85633 c 0,0 8.91843,-14.30321 11.87261,-21.40595 2.95429,-7.10274 6.03089,-20.82113 6.03089,-20.82113 l 1.94795,-13.62274 4.86343,-7.39405 -0.24295,-10.55891 6.86082,-5.64174 c 6.3979,-11.23549 15.15897,-20.44553 19.07098,-33.81177 l 21.4382,26.85418 -0.0323,11.2878 14.78807,11.67479 -3.04447,75.36802 c -7.12027,5.86881 -9.2303,24.75139 -11.91346,41.4466 -14.39476,19.12572 -26.77377,50.76895 -29.33319,64.40489 -2.78003,14.81187 -4.13213,34.38858 -7.18979,54.59419 -0.92304,6.09945 -6.14169,22.86145 -7.7445,30.92638 -2.65674,13.36785 -0.62432,15.546 -1.33733,23.2894 -0.53423,5.80122 -2.07594,11.51363 -2.20165,17.33804 -0.23844,11.04386 2.75207,33.02484 2.75207,33.02484 l -8.80663,24.76863 c 6.25282,21.33382 18.23396,59.51807 18.96348,67.85573 2.64089,30.18532 1.46806,47.24941 -4.48071,73.25236 -0.9881,4.23956 -6.22656,19.6128 -6.22656,19.6128 -0.11867,9.08184 -0.12923,18.16366 -1.37603,27.24549 l -9.08183,6.88017 c 0,0 -12.15964,13.4628 -13.62275,18.30127 -2.28829,8.88896 2.5919,13.88034 9.49464,19.12689 h 92.46955 c 0,-36.07326 -2.72917,-29.99757 -3.9217,-45.13395 2.7742,-7.6054 8.04981,-17.58825 8.04981,-26.97029 0,-4.75403 -11.8339,-31.09839 -11.8339,-31.09839 0,0 2.89154,-34.10209 1.92645,-45.13395 -0.6845,-7.8241 -9.08183,-21.74135 -9.08183,-21.74135 l 0.68156,-17.56164 -7.28653,-5.83096 2.20165,-15.13638 -4.95372,-12.65952 11.28349,-39.90502 12.65952,-10.73307 c 0,0 17.18612,-51.45301 27.5207,-76.50755 C 490.37105,644.74762 500,626.1076 500,626.1076 c 0,0 9.62905,18.64002 13.76035,28.65593 10.33457,25.05454 27.5207,76.50755 27.5207,76.50755 l 12.65952,10.73307 11.28349,39.90502 -4.95373,12.65952 2.20166,15.13638 -7.28654,5.83096 0.68157,17.56164 c 0,0 -8.39734,13.91725 -9.08183,21.74135 -0.9651,11.03186 1.92645,45.13395 1.92645,45.13395 0,0 -11.8339,26.34436 -11.8339,31.09839 0,9.38204 5.2756,19.36489 8.0498,26.97029 -1.19253,15.13638 -3.9217,9.06069 -3.9217,45.13395 h 92.46955 c 6.90274,-5.24655 11.78293,-10.23793 9.49464,-19.12689 -1.46311,-4.83847 -13.62274,-18.30127 -13.62274,-18.30127 l -9.08183,-6.88017 c -1.2468,-9.08183 -1.25737,-18.16365 -1.37604,-27.24549 0,0 -5.23845,-15.37324 -6.22656,-19.6128 -5.94876,-26.00295 -7.12148,-43.06704 -4.48071,-73.25236 0.72952,-8.33766 12.71067,-46.52191 18.96348,-67.85573 l -8.80662,-24.76863 c 0,0 2.99051,-21.98098 2.75207,-33.02484 -0.12572,-5.82441 -1.66743,-11.53682 -2.20166,-17.33804 -0.71301,-7.7434 1.31941,-9.92155 -1.33733,-23.2894 -1.6028,-8.06493 -6.82146,-24.82693 -7.7445,-30.92638 -3.05766,-20.20561 -4.40964,-39.78232 -7.18978,-54.59419 -2.55943,-13.63594 -14.93844,-45.27917 -29.33319,-64.40489 -2.68316,-16.69521 -4.7932,-35.57779 -11.91346,-41.4466 l -3.04447,-75.36802 14.78807,-11.67479 -0.0323,-11.2878 21.4382,-26.85418 c 3.91201,13.36624 12.67308,22.57628 19.07099,33.81177 l 6.86082,5.64174 -0.24295,10.55891 4.86342,7.39405 1.94795,13.62274 c 0,0 3.0766,13.71839 6.0309,20.82113 2.95418,7.10274 11.8726,21.40595 11.8726,21.40595 l 13.4271,26.85633 c 1.88197,15.66589 6.53327,26.53113 11.09213,37.55716 l -1.7523,9.33983 c 0,0 -11.81323,18.2535 -12.50257,24.37517 -0.20178,1.79216 2.76348,4.32475 3.89161,2.91763 2.61799,-3.26562 9.06971,-11.67949 9.38928,-8.02615 l 1.7523,24.32571 c 0,0 -6.79975,14.04134 -10.69008,26.85203 -0.52278,1.7212 2.88276,1.57256 4.07221,2.92193 0.67822,0.76938 0.43479,2.04516 0.97398,2.91763 0.24119,0.39017 0.79838,0.5502 0.97397,0.97396 0.14894,0.35958 -0.24164,0.86239 0,1.16749 0.70331,0.88804 3.30678,0.77832 3.30678,0.77832 2.99305,0.26185 13.43558,-15.419 17.11443,-24.58803 2.14794,-5.35326 4.92342,-5.15248 5.06983,-16.86288 0.14652,-11.7104 -2.22784,-30.9081 2.14146,-52.34738 0,0 4.45356,-9.32697 1.7824,-24.47623 -1.40245,-7.95366 -9.33299,-25.55548 -15.24389,-41.00584 -5.34738,-13.97771 -8.79158,-26.29516 -8.79158,-26.29516 -2.35973,-5.06064 6.10956,-8.1746 -11.9973,-31.98852 l 2.14146,-5.25472 -9.34199,-36.77884 6.42221,-37.75281 c 0,0 -13.19293,-40.60789 -18.09701,-46.70349 -4.90397,-6.09561 -14.06436,-11.87046 -17.9035,-11.87046 -3.83914,0 -19.84931,10.89648 -19.84931,10.89648 l -1.9458,-3.8916 -25.85226,-15.01167 c -3.50493,-2.03533 -8.98928,-2.11352 -15.59865,-2.11352 l 1.16749,-13.81625 c 0,0 -9.34868,-13.22607 -13.07234,-17.17463 -3.72366,-3.94856 -8.33361,-7.15108 -8.33361,-7.15108 l 1.29648,-16.25442 c 5.63569,-17.70748 7.67291,-36.76578 5.06769,-43.92346 -3.26341,-8.96608 -7.91496,-24.90999 -10.76533,-29.84706 -4.26582,-7.3886 -23.60688,-24.12065 -34.26972,-24.74929 z"
         style="fill:#ffffff;fill-opacity:1;stroke:none;stroke-width:1px;stroke-linecap:butt;stroke-linejoin:miter;stroke-opacity:1"
         id="path19-0-7" />
    </g>
  </g>
</svg>
