<?xml version="1.0" encoding="UTF-8" standalone="no"?>
<svg
   xmlns:dc="http://purl.org/dc/elements/1.1/"
   xmlns:cc="http://creativecommons.org/ns#"
   xmlns:rdf="http://www.w3.org/1999/02/22-rdf-syntax-ns#"
   xmlns:svg="http://www.w3.org/2000/svg"
   xmlns="http://www.w3.org/2000/svg"
   xmlns:sodipodi="http://sodipodi.sourceforge.net/DTD/sodipodi-0.dtd"
   xmlns:inkscape="http://www.inkscape.org/namespaces/inkscape"
   width="1000"
   height="1000"
   viewBox="0 0 999.9999880656118 999.9999880410413"
   id="svg2"
   version="1.1"
   inkscape:version="1.0beta1 (41b5402, 2019-11-21)"
   sodipodi:docname="femaleShape.svg"
   inkscape:export-filename="D:\iceflower\vorschriften\projects\community\re-graphics\textures\icons\femaleShape.png"
   inkscape:export-xdpi="49.152"
   inkscape:export-ydpi="49.152">
  <defs
     id="defs4">
    <filter
       style="color-interpolation-filters:sRGB;"
       inkscape:label="Lightness-Contrast"
       id="filter4246">
      <feColorMatrix
         values="10.688 0 0 -5.844 -4.844 0 10.688 0 -5.844 -4.844 0 0 10.688 -5.844 -4.844 0 0 0 1 0"
         id="feColorMatrix4248"
         result="fbSourceGraphic" />
      <feColorMatrix
         result="fbSourceGraphicAlpha"
         in="fbSourceGraphic"
         values="0 0 0 -1 0 0 0 0 -1 0 0 0 0 -1 0 0 0 0 1 0"
         id="feColorMatrix4250" />
      <feColorMatrix
         id="feColorMatrix4252"
         values="10.688 0 0 -5.844 -4.844 0 10.688 0 -5.844 -4.844 0 0 10.688 -5.844 -4.844 0 0 0 1 0"
         in="fbSourceGraphic" />
    </filter>
  </defs>
  <sodipodi:namedview
     id="base"
     pagecolor="#000000"
     bordercolor="#666666"
     borderopacity="1.0"
     inkscape:pageopacity="0"
     inkscape:pageshadow="2"
     inkscape:zoom="0.5000000023743019"
     inkscape:cx="-85.57887130128597"
     inkscape:cy="394.1179414819026"
     inkscape:document-units="px"
     inkscape:current-layer="g4159"
     showgrid="false"
     units="px"
     inkscape:snap-bbox="true"
     inkscape:showpageshadow="false"
     borderlayer="true"
     showborder="true"
     inkscape:snap-intersection-paths="true"
     inkscape:object-nodes="true"
     inkscape:snap-smooth-nodes="true"
     inkscape:object-paths="true"
     inkscape:document-rotation="0" />
  <metadata
     id="metadata7">
    <rdf:RDF>
      <cc:Work
         rdf:about="">
        <dc:format>image/svg+xml</dc:format>
        <dc:type
           rdf:resource="http://purl.org/dc/dcmitype/StillImage" />
        <dc:title />
      </cc:Work>
    </rdf:RDF>
  </metadata>
  <g
     inkscape:label="Ebene 1"
     inkscape:groupmode="layer"
     id="layer1"
     transform="translate(0,-52.36228930856214)">
    <g
       id="g4159"
       transform="translate(0,-0.8133121303205825)">
      <path
         inkscape:connector-curvature="0"
         d="m 499.99999,103.1756 c -18.12519,0 -38.60264,17.23098 -44.73851,51.4021 -2.10008,11.69551 -1.05845,25.8882 4.60145,43.67181 l 1.2999,16.32429 c 0,0 -4.62761,3.2163 -8.36728,7.18184 -3.73967,3.96553 -13.13069,17.24847 -13.13069,17.24847 l 1.1725,13.87565 c -6.63782,0 -12.14576,0.0785 -15.66572,2.12259 l -25.96125,15.07623 -1.95632,3.90833 c 0,0 -16.07904,-10.94333 -19.93465,-10.94333 -3.85561,0 -13.05317,5.79966 -17.97832,11.92149 -4.92515,6.12182 -18.17697,46.90429 -18.17697,46.90429 l 6.44982,37.91512 -9.37998,36.93696 2.14849,5.27733 c -18.18477,23.9163 -9.67677,27.04364 -12.04673,32.12604 0,0 -3.45892,12.37042 -8.82937,26.40822 -5.93625,15.51679 -13.90311,33.19428 -15.31159,41.18215 -2.68271,15.21437 1.79006,24.58146 1.79006,24.58146 4.38809,21.53145 2.00356,40.81169 2.15067,52.57244 0.14711,11.76074 2.93667,11.5591 5.09378,16.93538 3.69469,9.20845 14.17997,24.95672 17.18586,24.69374 0,0 2.61679,0.11022 3.32316,-0.78167 0.24268,-0.3064 -0.14958,-0.81138 0,-1.1725 0.17628,-0.42558 0.73382,-0.5863 0.976,-0.97815 0.54153,-0.87622 0.29703,-2.15748 0.97817,-2.93017 1.19462,-1.35518 4.61681,-1.20589 4.09187,-2.93449 -3.90707,-12.86578 -10.73604,-26.96749 -10.73604,-26.96749 l 1.75767,-24.4303 c 0.321,-3.66905 6.80035,4.781 9.42966,8.06066 1.13294,1.41317 4.11101,-1.1303 3.90833,-2.93017 -0.69231,-6.14799 -12.55632,-24.47997 -12.55632,-24.47997 l -1.75767,-9.37998 c 4.57853,-11.07343 9.24965,-21.98539 11.13982,-37.71863 l 13.48482,-26.97181 c 0,0 8.95456,-14.3647 11.92149,-21.49797 2.96693,-7.13328 6.05899,-20.91065 6.05899,-20.91065 l 1.95418,-13.68132 4.88648,-7.42583 -0.24616,-10.60431 6.89032,-5.666 c 6.42546,-11.28379 15.2241,-20.53342 19.15299,-33.95713 l 21.53037,26.96964 -0.0324,11.33632 14.85381,11.72499 -3.05973,75.69205 c -7.15084,5.89404 -9.26997,24.85781 -11.96467,41.6248 -14.45666,19.20795 -26.88892,50.98723 -29.45932,64.68179 -2.79206,14.87556 -4.1499,34.53643 -7.22068,54.82891 -0.92698,6.12568 -6.1681,22.95975 -7.7778,31.05935 -2.66815,13.42533 -0.62701,15.61283 -1.34308,23.38953 -0.53647,5.82616 -2.08485,11.56314 -2.21112,17.41258 -0.23943,11.09134 2.7639,33.16683 2.7639,33.16683 l -8.84449,24.87512 c 6.27975,21.42555 18.31243,59.77396 19.04502,68.14747 2.65223,30.3151 1.47433,47.45254 -4.49998,73.5673 -0.99232,4.25777 -6.25333,19.69712 -6.25333,19.69712 -0.1192,9.12088 -0.1298,18.24175 -1.38195,27.36268 l -9.12088,6.9097 c 0,0 -12.2119,13.5207 -13.68131,18.38 -2.29815,8.9271 2.60306,13.94 9.53546,19.2091 h 92.86712 c 0,-36.2284 -2.74088,-30.1266 -3.93857,-45.328 2.78615,-7.63815 8.08442,-17.66393 8.08442,-27.08626 0,-4.77448 -11.88478,-31.2321 -11.88478,-31.2321 0,0 2.90404,-34.2487 1.93473,-45.32799 -0.68746,-7.85774 -9.12088,-21.83483 -9.12088,-21.83483 l 0.6845,-17.63715 -7.31786,-5.85602 2.21112,-15.20146 -4.97502,-12.71395 11.33199,-40.07659 12.71396,-10.77921 c 0,0 17.26006,-51.67423 27.63902,-76.83649 4.14913,-10.05898 13.81951,-28.77913 13.81951,-28.77913 0,0 9.67037,18.72015 13.8195,28.77913 10.37896,25.16226 27.63903,76.83649 27.63903,76.83649 l 12.71395,10.77921 11.33199,40.07659 -4.97501,12.71395 2.21112,15.20146 -7.31572,5.85602 0.68235,17.63715 c 0,0 -8.43341,13.97709 -9.12087,21.83483 -0.96931,11.07929 1.93473,45.32799 1.93473,45.32799 0,0 -11.88478,26.45762 -11.88478,31.2321 0,9.42233 5.29827,19.44811 8.08441,27.08626 -1.19768,15.2014 -3.93856,9.0996 -3.93856,45.328 h 92.86712 c 6.9324,-5.2691 11.83361,-10.282 9.53545,-19.2091 -1.4694,-4.8593 -13.68131,-18.38 -13.68131,-18.38 l -9.12087,-6.9097 c -1.25217,-9.12093 -1.26275,-18.2418 -1.38196,-27.36268 0,0 -5.26101,-15.43935 -6.25333,-19.69712 -5.97431,-26.11476 -7.15222,-43.2522 -4.49999,-73.5673 0.7326,-8.37351 12.76528,-46.72192 19.04502,-68.14747 l -8.84448,-24.87512 c 0,0 3.00333,-22.07549 2.7639,-33.16683 -0.12626,-5.84944 -1.67465,-11.58642 -2.21112,-17.41258 -0.71607,-7.7767 1.32723,-9.9642 -1.34093,-23.38953 -1.60971,-8.0996 -6.85297,-24.93367 -7.77995,-31.05935 -3.07079,-20.29248 -4.42862,-39.95335 -7.2207,-54.82891 -2.57038,-13.69456 -15.00049,-45.47384 -29.45715,-64.68179 -2.6947,-16.76699 -4.816,-35.73076 -11.96683,-41.6248 l -3.05757,-75.69205 14.85382,-11.72499 -0.0345,-11.33632 21.53253,-26.96964 c 3.92888,13.42371 12.72753,22.67334 19.15299,33.95713 l 6.88815,5.666 -0.244,10.60431 4.88649,7.42583 1.95417,13.68132 c 0,0 3.09204,13.77737 6.05899,20.91065 2.96694,7.13327 11.92149,21.49797 11.92149,21.49797 l 13.48481,26.97181 c 1.89017,15.73324 6.56131,26.6452 11.13983,37.71863 l -1.75983,9.37998 c 0,0 -11.86401,18.33198 -12.55632,24.47997 -0.20268,1.79987 2.77538,4.34334 3.90832,2.93017 2.62932,-3.27966 9.11082,-11.72971 9.43183,-8.06066 l 1.75767,24.4303 c 0,0 -6.82898,14.10171 -10.73604,26.96749 -0.52494,1.7286 2.89725,1.57931 4.09187,2.93449 0.68115,0.77269 0.43447,2.05395 0.97601,2.93017 0.24217,0.39185 0.80188,0.55257 0.97816,0.97815 0.14958,0.36112 -0.24268,0.8661 0,1.1725 0.70637,0.89186 3.32316,0.78167 3.32316,0.78167 3.00589,0.26298 13.49117,-15.48529 17.18585,-24.69374 2.15712,-5.37628 4.94668,-5.17464 5.09379,-16.93538 0.1471,-11.76075 -2.23959,-31.04099 2.14851,-52.57244 0,0 4.47276,-9.36709 1.79006,-24.58146 -1.40848,-7.98787 -9.37318,-25.66536 -15.30942,-41.18215 -5.37045,-14.0378 -8.82939,-26.40822 -8.82939,-26.40822 -2.36995,-5.0824 6.13803,-8.20974 -12.04673,-32.12604 l 2.1485,-5.27733 -9.37998,-36.93696 6.44982,-37.91512 c 0,0 -13.25181,-40.78247 -18.17697,-46.90429 -4.92516,-6.12183 -14.12488,-11.92149 -17.98048,-11.92149 -3.85561,0 -19.93465,10.94333 -19.93465,10.94333 l -1.95415,-3.90833 -25.96342,-15.07623 c -3.51996,-2.04407 -9.02573,-2.12259 -15.66355,-2.12259 l 1.1725,-13.87565 c 0,0 -9.39103,-13.28294 -13.13069,-17.24847 -3.73967,-3.96554 -8.36728,-7.18184 -8.36728,-7.18184 l 1.2999,-16.32429 c 5.65989,-17.78361 6.70154,-31.9763 4.60145,-43.67181 -6.13587,-34.17112 -26.61547,-51.4021 -44.74067,-51.4021 z"
         style="fill:#ffffff;fill-opacity:1;stroke:none;stroke-width:4;stroke-linecap:butt;stroke-linejoin:round;stroke-miterlimit:4;stroke-dasharray:none;stroke-opacity:1"
         id="path19-0-1" />
    </g>
  </g>
</svg>
