<?xml version="1.0" encoding="UTF-8" standalone="no"?>
<svg
   xmlns:dc="http://purl.org/dc/elements/1.1/"
   xmlns:cc="http://creativecommons.org/ns#"
   xmlns:rdf="http://www.w3.org/1999/02/22-rdf-syntax-ns#"
   xmlns:svg="http://www.w3.org/2000/svg"
   xmlns="http://www.w3.org/2000/svg"
   xmlns:sodipodi="http://sodipodi.sourceforge.net/DTD/sodipodi-0.dtd"
   xmlns:inkscape="http://www.inkscape.org/namespaces/inkscape"
   sodipodi:docname="bombtaken.svg"
   inkscape:version="1.0beta1 (41b5402, 2019-11-21)"
   version="1.1"
   id="svg4166"
   viewBox="0 0 999.9999880656118 999.9999880410413"
   height="1000"
   width="1000">
  <defs
     id="defs4168" />
  <sodipodi:namedview
     inkscape:document-rotation="0"
     inkscape:snap-smooth-nodes="true"
     inkscape:object-nodes="true"
     inkscape:snap-intersection-paths="true"
     inkscape:object-paths="true"
     inkscape:snap-nodes="false"
     showborder="true"
     inkscape:showpageshadow="false"
     showguides="true"
     units="px"
     showgrid="false"
     inkscape:current-layer="layer1"
     inkscape:document-units="px"
     inkscape:cy="349.8710980957569"
     inkscape:cx="277.4221868804954"
     inkscape:zoom="0.6999999996306325"
     inkscape:pageshadow="2"
     inkscape:pageopacity="0"
     borderopacity="1.0"
     bordercolor="#666666"
     pagecolor="#000000"
     id="base" />
  <metadata
     id="metadata4171">
    <rdf:RDF>
      <cc:Work
         rdf:about="">
        <dc:format>image/svg+xml</dc:format>
        <dc:type
           rdf:resource="http://purl.org/dc/dcmitype/StillImage" />
        <dc:title />
      </cc:Work>
    </rdf:RDF>
  </metadata>
  <g
     transform="translate(0,-52.36228930856214)"
     id="layer1"
     inkscape:groupmode="layer"
     inkscape:label="Ebene 1">
    <path
       sodipodi:nodetypes="ssccsccccccsscscccsccsccs"
       inkscape:connector-curvature="0"
       id="path4144-2"
       d="m 347.16844,134.94653 c -23.77846,0.10897 -47.91082,17.535 -32.38086,59.83203 l 123,335 -213,-340 c -25.67724,-40.97622 -91.05916,-14.91799 -70,35 l 135,320 L 92.572735,312.63598 C 55.122334,269.43457 5.2719108,313.56969 29.787579,359.77856 74.545885,466.72302 137.95335,583.04342 137.95335,583.04342 c 44.68152,-15.38491 89.00002,10.05355 151.83423,46.73514 l 185,108 226.3461,-83.93668 c 28.43301,-10.5439 30.89386,22.54353 13.6539,28.93668 l -240,89 -185,-108 c -84.96238,-49.59966 -136.07143,-78.64285 -200.000001,-14 l 310.000001,312 340,8 c 232.34984,0 317.22792,-295.8647 148,-385 l -131,-69 -201,-304 c -22.11672,-32.28355 -88.30192,-19.88741 -66,33 l 105,249 -215,-344 c -6.05253,-9.50531 -19.28001,-14.89316 -32.61914,-14.83203 z"
       style="opacity:1;fill:#ffffff;fill-opacity:1;fill-rule:nonzero;stroke:none;stroke-width:20;stroke-linecap:butt;stroke-linejoin:miter;stroke-miterlimit:0;stroke-dasharray:none;stroke-dashoffset:0;stroke-opacity:1" />
  </g>
</svg>
