<?xml version="1.0" encoding="UTF-8" standalone="no"?>
<svg
   xmlns:dc="http://purl.org/dc/elements/1.1/"
   xmlns:cc="http://creativecommons.org/ns#"
   xmlns:rdf="http://www.w3.org/1999/02/22-rdf-syntax-ns#"
   xmlns:svg="http://www.w3.org/2000/svg"
   xmlns="http://www.w3.org/2000/svg"
   xmlns:sodipodi="http://sodipodi.sourceforge.net/DTD/sodipodi-0.dtd"
   xmlns:inkscape="http://www.inkscape.org/namespaces/inkscape"
   width="1000"
   height="1000"
   viewBox="0 0 999.9999880656118 999.9999880410413"
   id="svg2"
   version="1.1"
   inkscape:version="1.0beta1 (41b5402, 2019-11-21)"
   sodipodi:docname="male.svg"
   inkscape:export-filename="D:\iceflower\vorschriften\projects\community\re-graphics\textures\icons\outline.png"
   inkscape:export-xdpi="49.152"
   inkscape:export-ydpi="49.152">
  <defs
     id="defs4">
    <filter
       style="color-interpolation-filters:sRGB;"
       inkscape:label="Lightness-Contrast"
       id="filter4246">
      <feColorMatrix
         values="10.688 0 0 -5.844 -4.844 0 10.688 0 -5.844 -4.844 0 0 10.688 -5.844 -4.844 0 0 0 1 0"
         id="feColorMatrix4248"
         result="fbSourceGraphic" />
      <feColorMatrix
         result="fbSourceGraphicAlpha"
         in="fbSourceGraphic"
         values="0 0 0 -1 0 0 0 0 -1 0 0 0 0 -1 0 0 0 0 1 0"
         id="feColorMatrix4250" />
      <feColorMatrix
         id="feColorMatrix4252"
         values="10.688 0 0 -5.844 -4.844 0 10.688 0 -5.844 -4.844 0 0 10.688 -5.844 -4.844 0 0 0 1 0"
         in="fbSourceGraphic" />
    </filter>
  </defs>
  <sodipodi:namedview
     id="base"
     pagecolor="#000000"
     bordercolor="#666666"
     borderopacity="1.0"
     inkscape:pageopacity="0"
     inkscape:pageshadow="2"
     inkscape:zoom="0.5000000023743019"
     inkscape:cx="-85.57887130128597"
     inkscape:cy="394.1179414819026"
     inkscape:document-units="px"
     inkscape:current-layer="g4159"
     showgrid="false"
     units="px"
     inkscape:snap-bbox="true"
     inkscape:showpageshadow="false"
     borderlayer="true"
     showborder="true"
     inkscape:snap-intersection-paths="true"
     inkscape:object-nodes="true"
     inkscape:snap-smooth-nodes="true"
     inkscape:object-paths="true"
     inkscape:document-rotation="0" />
  <metadata
     id="metadata7">
    <rdf:RDF>
      <cc:Work
         rdf:about="">
        <dc:format>image/svg+xml</dc:format>
        <dc:type
           rdf:resource="http://purl.org/dc/dcmitype/StillImage" />
        <dc:title />
      </cc:Work>
    </rdf:RDF>
  </metadata>
  <g
     inkscape:label="Ebene 1"
     inkscape:groupmode="layer"
     id="layer1"
     transform="translate(0,-52.36228930856214)">
    <g
       id="g4159"
       transform="translate(0,-0.8133121303205825)">
      <path
         inkscape:connector-curvature="0"
         d="m 499.99999,103.1756 c -10.66295,0.62868 -31.10473,17.36063 -35.37055,24.74928 -2.85048,4.93699 -8.60275,20.88092 -11.86615,29.84705 -2.60511,7.1577 -0.56801,26.21385 5.06768,43.92132 l -0.90518,11.85326 c 0,0 -4.60995,5.40428 -8.33361,9.35273 -3.72366,3.94856 -13.07233,17.17464 -13.07233,17.17464 l -1.03417,16.0179 c -6.60937,0 -12.57764,-2.79023 -15.59865,-0.0882 l -19.24729,17.21332 -1.9458,3.89161 c 0,0 -16.01017,-10.89648 -19.84931,-10.89648 -3.83903,0 -10.52256,5.08682 -17.9035,11.87046 -7.38094,6.78363 -15.89535,46.70348 -15.89535,46.70348 l 8.62386,39.95447 c -1.82902,14.79623 -11.43002,27.07793 -11.60384,42.03356 -18.10686,23.81392 -11.83923,24.72623 -14.19896,29.78687 0,0 -1.24254,12.31745 -6.58992,26.29516 -5.9109,15.45036 -11.63978,33.05218 -13.04224,41.00584 -2.67114,15.14924 -0.41925,24.47623 -0.41925,24.47623 4.3693,21.43927 1.99494,40.63697 2.14146,52.34737 0.14641,11.7104 2.922,11.51178 5.06983,16.86504 3.67885,9.16903 14.12138,24.84773 17.11443,24.58587 0,0 2.60347,0.10975 3.30678,-0.77832 0.24164,-0.30509 -0.14894,-0.80791 0,-1.16748 0.17559,-0.42376 0.73278,-0.58379 0.97397,-0.97397 0.53919,-0.87246 0.29576,-2.14824 0.97398,-2.91762 1.18945,-1.34937 4.59488,-1.20073 4.07221,-2.92193 -3.89044,-12.8107 -10.69008,-26.85203 -10.69008,-26.85203 l 1.7523,-24.32572 c 0.31957,-3.65334 6.77129,4.76053 9.38928,8.02615 1.12813,1.40712 4.35836,-1.17558 3.89161,-2.91762 -1.91864,-7.16037 -10.30091,-24.37517 -10.30091,-24.37517 l -1.7523,-9.33984 c 4.55886,-11.02602 11.4117,-15.28629 13.29378,-30.95219 l 22.23372,-33.46129 c 0,0 8.91843,-9.8999 11.87261,-17.00264 2.95429,-7.10274 6.0309,-25.22444 6.0309,-25.22444 l 4.1496,-9.21944 0.46011,-9.59569 8.56368,-6.15346 c 0,0 8.49007,-14.15519 11.17598,-21.93055 4.81105,15.3493 11.8041,23.08891 16.73603,33.66556 4.94205,10.59832 18.01771,63.64123 17.97445,77.84702 -0.0198,6.43547 -6.53588,8.02225 -5.32354,33.19039 -14.12891,10.43184 -14.74827,25.85184 -20.76737,41.75192 -3.92588,10.37055 -11.88383,14.66913 -12.96913,20.45131 -2.78003,14.81188 -12.93875,34.38858 -15.99641,54.59419 -0.92304,6.09946 -6.1417,22.86146 -7.7445,30.92639 -2.65674,13.36785 -0.62432,15.54599 -1.33733,23.28939 -0.53423,5.80122 -2.07594,11.51364 -2.20166,17.33804 -0.23844,11.04386 2.75207,33.02484 2.75207,33.02484 l -11.00828,24.76863 c -2.50416,31.64766 8.27451,41.85975 9.43874,50.14788 4.29499,30.57452 5.03644,63.42738 2.84238,90.96022 -0.34588,4.33944 -6.22656,19.61279 -6.22656,19.61279 -0.11878,9.08183 -11.13752,13.76035 -12.38432,22.84218 -8.41792,8.60172 -18.75073,18.06392 -22.70458,29.58482 -2.2884,8.8889 2.5919,13.8803 9.49465,19.1269 h 112.28445 c 0,-36.0733 -0.5274,-27.796 -1.72004,-42.9323 6.93731,-8.26758 10.25146,-19.79002 10.25146,-29.17201 0,-4.75404 -11.09213,-35.7683 -11.09213,-35.7683 0,0 -0.90547,-13.1563 1.32013,-19.27094 13.45311,-28.85016 8.40371,-40.59457 6.87587,-69.30272 -4.39725,-4.66085 -9.13262,-6.44083 -14.99233,-8.37662 l -1.44483,-12.38431 -6.71248,-6.71032 c 0.82783,-5.77929 -1.85799,-8.04528 -4.85697,-9.99775 l 7.07583,-24.33647 12.56277,-11.99731 c 0,0 15.24044,-53.10855 25.5749,-78.16309 4.13141,-10.01592 13.76035,-28.65593 13.76035,-28.65593 0,0 9.62895,18.64001 13.76035,28.65593 10.33447,25.05454 25.5749,78.16309 25.5749,78.16309 l 12.56277,11.99731 7.07583,24.33647 c -2.99898,1.95247 -5.68479,4.21846 -4.85697,9.99775 l -6.71247,6.71032 -1.44484,12.38431 c -5.85971,1.93579 -10.59507,3.71577 -14.99233,8.37662 -1.52784,28.70815 -6.57724,40.45256 6.87587,69.30272 2.22555,6.11464 1.32014,19.27094 1.32014,19.27094 0,0 -11.09213,31.01426 -11.09213,35.7683 0,9.38199 3.31414,20.90443 10.25146,29.17201 -1.19264,15.1363 -1.72005,6.859 -1.72005,42.9323 h 112.28446 c 6.90274,-5.2466 11.78304,-10.238 9.49464,-19.1269 -3.95384,-11.5209 -14.28665,-20.9831 -22.70458,-29.58482 -1.24679,-9.08183 -12.26553,-13.76035 -12.38431,-22.84218 0,0 -5.88068,-15.27335 -6.22656,-19.61279 -2.19406,-27.53284 -1.45262,-60.3857 2.84237,-90.96022 1.16424,-8.28813 11.94291,-18.50022 9.43874,-50.14788 L 618.339,746.13221 c 0,0 2.99051,-21.98098 2.75207,-33.02484 -0.12571,-5.8244 -1.66742,-11.53682 -2.20165,-17.33804 -0.71301,-7.7434 1.3194,-9.92154 -1.33734,-23.28939 -1.6028,-8.06493 -6.82145,-24.82693 -7.74449,-30.92639 -3.05766,-20.20561 -13.21638,-39.78231 -15.99641,-54.59419 -1.08531,-5.78218 -9.04325,-10.08076 -12.96913,-20.45131 -6.01911,-15.90008 -6.63847,-31.32008 -20.76738,-41.75192 1.21234,-25.16814 -5.30372,-26.75492 -5.32354,-33.19039 -0.0433,-14.20579 13.0324,-67.2487 17.97446,-77.84702 4.93193,-10.57665 11.92497,-18.31626 16.73603,-33.66556 2.68591,7.77536 11.17598,21.93055 11.17598,21.93055 l 8.56367,6.15346 0.46011,9.59569 4.14961,9.21944 c 0,0 3.07661,18.1217 6.0309,25.22444 2.95418,7.10274 11.8726,17.00264 11.8726,17.00264 l 22.23372,33.46129 c 1.88208,15.6659 8.73493,19.92617 13.29379,30.95219 l -1.7523,9.33984 c 0,0 -8.38228,17.2148 -10.30091,24.37517 -0.46675,1.74204 2.76347,4.32474 3.8916,2.91762 2.61799,-3.26562 9.06972,-11.67949 9.38929,-8.02615 l 1.75229,24.32572 c 0,0 -6.79963,14.04133 -10.69007,26.85203 -0.52267,1.7212 2.88276,1.57256 4.0722,2.92193 0.67822,0.76938 0.43479,2.04516 0.97398,2.91762 0.24119,0.39018 0.79839,0.55021 0.97397,0.97397 0.14895,0.35957 -0.24163,0.86239 0,1.16748 0.70332,0.88804 3.30679,0.77832 3.30679,0.77832 2.99304,0.26186 13.43553,-15.41684 17.11443,-24.58587 2.1478,-5.35326 4.9234,-5.15464 5.0698,-16.86504 0.1466,-11.7104 -2.2278,-30.9081 2.1415,-52.34737 0,0 2.2519,-9.32699 -0.4193,-24.47623 -1.4024,-7.95366 -7.1313,-25.55548 -13.0422,-41.00584 -5.34739,-13.97771 -6.58992,-26.29516 -6.58992,-26.29516 -2.35974,-5.06064 3.90789,-5.97295 -14.19897,-29.78687 -0.17382,-14.95563 -9.77481,-27.23733 -11.60384,-42.03356 l 8.62387,-39.95443 c 0,0 -8.51441,-39.91986 -15.89535,-46.70349 -7.38095,-6.78363 -14.06448,-11.87046 -17.90351,-11.87046 -3.83914,0 -19.84931,10.89648 -19.84931,10.89648 l -1.94579,-3.8916 -19.24729,-17.21333 c -3.02101,-2.70209 -8.98928,0.0882 -15.59865,0.0882 l -1.03418,-16.01791 c 0,0 -9.34867,-13.22608 -13.07233,-17.17463 -3.72366,-3.94845 -8.33361,-9.35274 -8.33361,-9.35274 l -0.90517,-11.85325 c 5.63568,-17.70748 7.67289,-36.76363 5.06767,-43.92132 -3.2634,-8.96614 -9.01577,-24.91007 -11.86615,-29.84706 -4.26582,-7.38865 -24.70771,-24.1206 -35.37055,-24.74928 z"
         style="fill:#ffffff;fill-opacity:1;stroke:none;stroke-width:1px;stroke-linecap:butt;stroke-linejoin:miter;stroke-opacity:1"
         id="path19-7" />
    </g>
  </g>
</svg>
