<?xml version="1.0" encoding="UTF-8" standalone="no"?>
<svg
   xmlns:dc="http://purl.org/dc/elements/1.1/"
   xmlns:cc="http://creativecommons.org/ns#"
   xmlns:rdf="http://www.w3.org/1999/02/22-rdf-syntax-ns#"
   xmlns:svg="http://www.w3.org/2000/svg"
   xmlns="http://www.w3.org/2000/svg"
   xmlns:sodipodi="http://sodipodi.sourceforge.net/DTD/sodipodi-0.dtd"
   xmlns:inkscape="http://www.inkscape.org/namespaces/inkscape"
   inkscape:export-ydpi="49.152"
   inkscape:export-xdpi="49.152"
   inkscape:export-filename="D:\iceflower\vorschriften\projects\community\re-graphics\textures\icons\outline.png"
   sodipodi:docname="maleShape.svg"
   inkscape:version="1.0beta1 (41b5402, 2019-11-21)"
   version="1.1"
   id="svg2"
   viewBox="0 0 999.9999880656118 999.9999880410413"
   height="1000"
   width="1000">
  <defs
     id="defs4">
    <filter
       id="filter4246"
       inkscape:label="Lightness-Contrast"
       style="color-interpolation-filters:sRGB;">
      <feColorMatrix
         result="fbSourceGraphic"
         id="feColorMatrix4248"
         values="10.688 0 0 -5.844 -4.844 0 10.688 0 -5.844 -4.844 0 0 10.688 -5.844 -4.844 0 0 0 1 0" />
      <feColorMatrix
         id="feColorMatrix4250"
         values="0 0 0 -1 0 0 0 0 -1 0 0 0 0 -1 0 0 0 0 1 0"
         in="fbSourceGraphic"
         result="fbSourceGraphicAlpha" />
      <feColorMatrix
         in="fbSourceGraphic"
         values="10.688 0 0 -5.844 -4.844 0 10.688 0 -5.844 -4.844 0 0 10.688 -5.844 -4.844 0 0 0 1 0"
         id="feColorMatrix4252" />
    </filter>
  </defs>
  <sodipodi:namedview
     inkscape:document-rotation="0"
     inkscape:object-paths="true"
     inkscape:snap-smooth-nodes="true"
     inkscape:object-nodes="true"
     inkscape:snap-intersection-paths="true"
     showborder="true"
     borderlayer="true"
     inkscape:showpageshadow="false"
     inkscape:snap-bbox="true"
     units="px"
     showgrid="false"
     inkscape:current-layer="g4159"
     inkscape:document-units="px"
     inkscape:cy="394.1179414819026"
     inkscape:cx="-85.57887130128597"
     inkscape:zoom="0.5000000023743019"
     inkscape:pageshadow="2"
     inkscape:pageopacity="0"
     borderopacity="1.0"
     bordercolor="#666666"
     pagecolor="#000000"
     id="base" />
  <metadata
     id="metadata7">
    <rdf:RDF>
      <cc:Work
         rdf:about="">
        <dc:format>image/svg+xml</dc:format>
        <dc:type
           rdf:resource="http://purl.org/dc/dcmitype/StillImage" />
        <dc:title></dc:title>
      </cc:Work>
    </rdf:RDF>
  </metadata>
  <g
     transform="translate(0,-52.36228930856214)"
     id="layer1"
     inkscape:groupmode="layer"
     inkscape:label="Ebene 1">
    <g
       transform="translate(0,-0.8133121303205825)"
       id="g4159">
      <path
         id="path19"
         style="fill:#ffffff;fill-opacity:1;stroke:none;stroke-width:4;stroke-linecap:butt;stroke-linejoin:round;stroke-miterlimit:4;stroke-dasharray:none;stroke-opacity:1"
         d="m 500,103.17561 c -18.08072,0 -40.71579,19.39438 -46.83661,53.48171 -2.09493,11.66681 -1.05585,25.82467 4.59018,43.56467 l -0.90684,11.87502 c 0,0 -4.61841,5.41416 -8.34891,9.36991 -3.7305,3.95576 -13.09633,17.20616 -13.09633,17.20616 l -1.03607,16.04731 c -6.62154,0 -12.60072,-2.79508 -15.62728,-0.0883 l -19.28263,17.24494 -1.94937,3.89875 c 0,0 -16.03959,-10.91863 -19.88574,-10.91863 -3.84616,0 -10.54189,5.09617 -17.93637,11.89224 -7.39448,6.79606 -15.92453,46.79137 -15.92453,46.79137 l 8.63969,40.02782 c -1.83235,14.82342 -11.45104,27.12764 -11.62514,42.11072 -18.14015,23.85763 -11.86088,24.77161 -14.22503,29.84154 0,0 -1.24474,12.33792 -6.60201,26.34129 -5.9217,15.47872 -11.66116,33.11499 -13.06618,41.08326 -2.67612,15.17706 -0.42002,24.52116 -0.42002,24.52116 4.37733,21.47863 1.99864,40.71158 2.14538,52.44347 0.14675,11.7319 2.92732,11.53075 5.07914,16.89384 3.68562,9.18586 14.14733,24.8955 17.14585,24.63316 0,0 2.60821,0.10775 3.31285,-0.7819 0.24209,-0.30566 -0.14921,-0.80938 0,-1.16962 0.17585,-0.42454 0.73417,-0.58272 0.97576,-0.97362 0.5402,-0.87406 0.2963,-2.15433 0.97577,-2.92513 1.19169,-1.35185 4.60333,-1.20077 4.07968,-2.92513 -3.89748,-12.83421 -10.7097,-26.90347 -10.7097,-26.90347 l 1.75551,-24.36823 c 0.32022,-3.66005 6.78366,4.76928 9.40652,8.04089 1.13017,1.40971 4.36638,-1.1799 3.89875,-2.92514 -1.92213,-7.17351 -10.31982,-24.41776 -10.31982,-24.41776 l -1.75552,-9.35698 c 4.5673,-11.04627 11.43266,-15.31651 13.31819,-31.01116 l 22.27669,-33.52058 c 0,0 8.93259,-9.91806 11.89225,-17.03384 2.95966,-7.11578 6.04197,-25.2729 6.04197,-25.2729 l 4.15507,-9.2342 0.46311,-9.61546 8.57939,-6.16476 c 0,0 8.50564,-14.18117 11.1965,-21.97081 4.81993,15.37748 11.82572,23.13344 16.76675,33.7295 4.95115,10.61778 18.05082,63.75807 18.00745,77.98994 -0.0196,6.44729 -6.54785,8.03483 -5.33331,33.24917 -14.15476,10.45099 -14.77529,25.90143 -20.8055,41.8307 -3.9331,10.38959 -11.90566,14.69607 -12.99294,20.48887 -2.78521,14.83907 -12.96252,34.45171 -16.02577,54.69441 -0.92471,6.11065 -6.15296,22.90342 -7.75872,30.98316 -2.6616,13.39239 -0.62547,15.57453 -1.33978,23.33214 -0.53516,5.81187 -2.07974,11.53478 -2.2057,17.36987 -0.23884,11.06413 2.75712,33.08547 2.75712,33.08547 l -11.02849,24.81409 c -2.50877,31.70576 8.28966,41.93443 9.45607,50.23778 4.30287,30.63064 5.04572,63.54596 2.84759,91.12934 -0.34645,4.34743 -6.23799,19.64883 -6.23799,19.64883 -0.11891,9.0985 -11.15796,13.78561 -12.40705,22.88411 -8.43337,8.61749 -18.78506,18.09699 -22.74625,29.63899 -2.29252,8.9053 2.59668,13.9059 9.51207,19.16201 h 112.49058 c 0,-36.13941 -0.52846,-27.84691 -1.72321,-43.01111 6.95,-8.28261 10.27028,-19.82621 10.27028,-29.22542 0,-4.76277 -11.11249,-35.83398 -11.11249,-35.83398 0,0 -0.90708,-13.18044 1.32256,-19.30631 13.47775,-28.90312 8.41913,-40.67124 6.88849,-69.43209 -4.40524,-4.6694 -9.14943,-6.45049 -15.01985,-8.38983 l -1.44749,-12.40705 -6.7248,-6.72264 c 0.8293,-5.7899 -1.86134,-8.06005 -4.86589,-10.0161 l 7.08883,-24.38115 12.58583,-12.02149 c 0,0 15.26835,-53.20388 25.62185,-78.30441 C 490.35338,644.08972 500,625.41549 500,625.41549 c 0,0 9.64662,18.67423 13.78561,28.70853 10.3535,25.10053 25.62184,78.30441 25.62184,78.30441 l 12.58584,12.02149 7.08882,24.38115 c -3.00454,1.95605 -5.69519,4.2262 -4.86589,10.0161 l -6.7248,6.72264 -1.44748,12.40705 c -5.87042,1.93934 -10.61462,3.72043 -15.01986,8.38983 -1.53063,28.76085 -6.58925,40.52897 6.8885,69.43209 2.22964,6.12587 1.32255,19.30631 1.32255,19.30631 0,0 -11.11249,31.07121 -11.11249,35.83398 0,9.39921 3.32028,20.94281 10.27028,29.22542 -1.19475,15.1642 -1.7232,6.8717 -1.7232,43.01111 H 649.1603 c 6.91539,-5.25611 11.80458,-10.25671 9.51207,-19.16201 -3.96119,-11.542 -14.31288,-21.0215 -22.74626,-29.63899 -1.24908,-9.0985 -12.28814,-13.78561 -12.40705,-22.88411 0,0 -5.89154,-15.3014 -6.23798,-19.6488 -2.19814,-27.58339 -1.45528,-60.49871 2.84758,-91.12935 1.16642,-8.30335 11.96484,-18.53202 9.45607,-50.23777 l -11.02849,-24.8141 c 0,0 2.99597,-22.02133 2.75713,-33.08547 -0.12596,-5.83509 -1.67054,-11.55799 -2.2057,-17.36986 -0.71432,-7.75762 1.32182,-9.93976 -1.33979,-23.33215 -1.60576,-8.07973 -6.83401,-24.8725 -7.75871,-30.98316 -3.06325,-20.2427 -13.24056,-39.85534 -16.02578,-54.69441 -1.08727,-5.7928 -9.05984,-10.09928 -12.99293,-20.48886 -6.03021,-15.92928 -6.65074,-31.37971 -20.8055,-41.83071 1.21454,-25.21434 -5.31368,-26.80188 -5.33331,-33.24917 -0.0433,-14.23186 13.0563,-67.37216 18.00745,-77.98993 4.94102,-10.59607 11.94682,-18.35203 16.76675,-33.72951 2.69085,7.78964 11.1965,21.97081 11.1965,21.97081 l 8.57939,6.16476 0.46311,9.61546 4.15507,9.2342 c 0,0 3.08231,18.15713 6.04197,25.2729 2.95966,7.11578 11.89225,17.03385 11.89225,17.03385 l 22.27668,33.52057 c 1.88553,15.69465 8.7509,19.96489 13.31819,31.01116 l -1.75551,9.35699 c 0,0 -8.39769,17.24424 -10.31982,24.41775 -0.46763,1.74524 2.76858,4.33485 3.89874,2.92514 2.62287,-3.27161 9.08631,-11.70094 9.40652,-8.04089 l 1.75552,24.36823 c 0,0 -6.81222,14.06926 -10.7097,26.90348 -0.52366,1.72435 2.88798,1.57328 4.07968,2.92513 0.67946,0.77079 0.43557,2.05106 0.97577,2.92513 0.24159,0.39089 0.7999,0.54907 0.97575,0.97361 0.14922,0.36024 -0.24208,0.86396 0,1.16962 0.70465,0.88967 3.31286,0.78191 3.31286,0.78191 2.99851,0.26233 13.46023,-15.44731 17.14585,-24.63317 2.15182,-5.36309 4.93239,-5.16194 5.07914,-16.89383 0.14674,-11.7319 -2.23195,-30.96484 2.14538,-52.44347 0,0 2.2561,-9.34411 -0.42002,-24.52116 -1.40503,-7.96827 -7.14449,-25.60455 -13.06618,-41.08327 -5.35728,-14.00337 -6.60202,-26.34129 -6.60202,-26.34129 -2.36414,-5.06993 3.91513,-5.9839 -14.22503,-29.84154 -0.17409,-14.98308 -9.79279,-27.2873 -11.62514,-42.11072 l 8.6397,-40.02782 c 0,0 -8.53005,-39.99531 -15.92453,-46.79137 -7.39448,-6.79607 -14.09022,-11.89224 -17.93637,-11.89224 -3.84615,0 -19.88574,10.91863 -19.88574,10.91863 l -1.94938,-3.89875 -19.28262,-17.24493 c -3.02656,-2.70677 -9.00574,0.0883 -15.62728,0.0883 l -1.03607,-16.04731 c 0,0 -9.36584,-13.25039 -13.09633,-17.20616 -3.7305,-3.95575 -8.34891,-9.36991 -8.34891,-9.36991 l -0.90684,-11.87501 c 5.64602,-17.74001 6.68511,-31.89787 4.59018,-43.56468 C 540.71579,122.57 518.08072,103.17562 500,103.17562 Z"
         inkscape:connector-curvature="0" />
    </g>
  </g>
</svg>
