<?xml version="1.0" encoding="UTF-8" standalone="no"?>
<svg
   xmlns:dc="http://purl.org/dc/elements/1.1/"
   xmlns:cc="http://creativecommons.org/ns#"
   xmlns:rdf="http://www.w3.org/1999/02/22-rdf-syntax-ns#"
   xmlns:svg="http://www.w3.org/2000/svg"
   xmlns="http://www.w3.org/2000/svg"
   xmlns:sodipodi="http://sodipodi.sourceforge.net/DTD/sodipodi-0.dtd"
   xmlns:inkscape="http://www.inkscape.org/namespaces/inkscape"
   inkscape:export-ydpi="90"
   inkscape:export-xdpi="90"
   inkscape:export-filename="/home/acerspyro/Desktop/Vectors/settings.png"
   sodipodi:docname="settings.svg"
   inkscape:version="1.0beta1 (41b5402, 2019-11-21)"
   version="1.1"
   id="svg2"
   height="256"
   width="256">
  <metadata
     id="metadata957">
    <rdf:RDF>
      <cc:Work
         rdf:about="">
        <dc:format>image/svg+xml</dc:format>
        <dc:type
           rdf:resource="http://purl.org/dc/dcmitype/StillImage" />
        <dc:title></dc:title>
      </cc:Work>
    </rdf:RDF>
  </metadata>
  <defs
     id="defs955" />
  <sodipodi:namedview
     inkscape:document-rotation="0"
     inkscape:bbox-paths="false"
     inkscape:current-layer="Tue Feb 14 17:26:04 2017"
     inkscape:window-maximized="1"
     inkscape:window-y="27"
     inkscape:window-x="1440"
     inkscape:cy="52.402493"
     inkscape:cx="228.03102"
     inkscape:zoom="1.1521956"
     inkscape:snap-nodes="false"
     inkscape:object-nodes="true"
     inkscape:bbox-nodes="false"
     inkscape:snap-bbox-midpoints="true"
     inkscape:snap-bbox="true"
     showgrid="false"
     id="namedview953"
     inkscape:window-height="1019"
     inkscape:window-width="1920"
     inkscape:pageshadow="2"
     inkscape:pageopacity="0"
     guidetolerance="10"
     gridtolerance="10"
     objecttolerance="10"
     borderopacity="1"
     bordercolor="#666666"
     pagecolor="#000000">
    <inkscape:grid
       empspacing="8"
       id="grid5085"
       type="xygrid" />
  </sodipodi:namedview>
  <g
     transform="translate(0,-824)"
     id="Tue Feb 14 17:26:04 2017"
     inkscape:groupmode="layer">
    <path
       style="fill:#ffffff;fill-opacity:1;fill-rule:evenodd;stroke:none;stroke-width:1px;stroke-linecap:butt;stroke-linejoin:miter;stroke-opacity:1"
       d="m 153.13422,839.62105 -7.66871,14.05277 c 6.3725,0.11571 12.83101,0.97268 19.26753,2.64752 6.43652,1.67483 12.4936,4.0745 18.11427,7.07952 l 0.15345,-16.0083 z m 10.73495,20.02023 c -42.17177,-10.97343 -85.254476,14.3178 -96.227912,56.48958 -10.973436,42.17173 14.31781,85.25444 56.489582,96.22784 42.17177,10.9734 85.25447,-14.3178 96.22791,-56.48959 10.97343,-42.1717 -14.31782,-85.25439 -56.48958,-96.22783 z m -54.94687,-13.8753 -26.614666,15.62387 4.520721,15.3795 c 9.397609,-9.04664 20.839605,-15.76356 33.319405,-19.55981 z m 109.68788,28.54168 -15.3795,4.52072 c 9.04664,9.39761 15.76356,20.83961 19.55981,33.31939 l 11.44355,-11.22545 z m -69.42692,41.77269 c 11.00133,2.86264 17.59905,14.10161 14.73641,25.10294 -2.86263,11.00126 -14.1016,17.59905 -25.10293,14.73642 -11.00133,-2.86267 -17.59905,-14.10167 -14.73641,-25.10295 2.86263,-11.00133 14.1016,-17.59906 25.10293,-14.73641 z M 71.400836,897.1527 55.392535,896.99927 47.62102,926.86581 61.673788,934.5345 c 0.115709,-6.37249 0.972691,-12.831 2.647525,-19.26751 1.674833,-6.43653 4.074513,-12.49361 7.079523,-18.11429 z m 154.925384,40.3128 c -0.1157,6.37252 -0.97269,12.83097 -2.64753,19.26753 -1.67485,6.43642 -4.07452,12.49357 -7.07952,18.11427 l 16.00829,0.15348 7.77152,-29.86661 z M 65.209508,959.85238 53.765963,971.07771 69.38982,997.69234 84.76931,993.17165 C 75.722677,983.77404 69.00577,972.33204 65.209508,959.85238 Z m 135.962142,35.37841 c -9.39762,9.04651 -20.83962,15.76341 -33.31941,19.55971 l 11.22547,11.4436 26.61466,-15.624 z m -96.01897,13.36841 -0.15343,16.0082 29.86654,7.7716 7.66869,-14.0527 c -6.3725,-0.1151 -12.831,-0.9728 -19.26753,-2.6475 -6.43651,-1.675 -12.4936,-4.0745 -18.11427,-7.0796 z"
       id="path5087"
       inkscape:connector-curvature="0"
       sodipodi:nodetypes="ccscccsssssccccccccccsssssccccsccsccccccccccccccccccsc" />
    <path
       inkscape:connector-curvature="0"
       d="m 84.322266,929.00977 -1.513672,0.17382 -0.0078,0.002 -1.535156,0.17187 h -0.002 l -0.01563,0.002 -0.107422,0.0117 -0.05273,0.0117 -20.335938,2.65235 -1.548828,0.20117 -1.548828,0.20117 -1.548828,0.20117 -0.179688,1.55078 -0.179687,1.55078 -0.179688,1.55079 -1.134765,9.79882 -0.277344,0.13868 -0.01172,0.006 -0.0078,0.004 -0.02344,0.0117 h -0.002 l -0.03516,0.0176 -0.0059,0.004 -0.0059,0.002 -1.126953,0.57226 -0.01172,0.006 -0.0078,0.004 -0.0098,0.006 -0.0098,0.004 -0.06836,0.0352 -0.04883,0.0254 -0.04883,0.0293 -0.05664,0.0332 -0.02539,0.0156 -0.914063,0.49023 -0.0293,0.0137 -0.0078,0.004 -0.03125,0.0156 -0.01172,0.008 -0.01563,0.008 -0.0039,0.002 h -0.002 l -0.01953,0.0117 -0.02148,0.0117 -0.03711,0.0176 -0.0625,0.0391 -0.01953,0.0117 -0.984375,0.55859 -0.0078,0.004 -0.02734,0.0156 -0.0098,0.006 -0.0039,0.002 -0.0078,0.004 -0.01367,0.008 -0.01563,0.008 -0.0039,0.002 h -0.002 l -0.04883,0.0273 -0.05273,0.0332 -0.05664,0.0351 -0.0098,0.006 -0.0098,0.006 -0.002,0.002 -0.01953,0.0117 -0.933594,0.5625 -0.0039,0.002 -0.05469,0.0293 -0.05273,0.0332 -0.05664,0.0351 -0.0098,0.006 -0.0098,0.006 -0.02148,0.0137 -1.074219,0.6836 -0.0059,0.004 -0.03125,0.0195 -0.01953,0.0137 -0.02148,0.0137 -0.04102,0.0273 -0.002,0.002 h -0.002 l -0.640625,0.42968 h -0.214844 l -8.923828,-3.88671 -1.431641,-0.62305 -1.43164,-0.62305 -1.431641,-0.62305 -0.953125,1.23829 -0.949219,1.23437 -0.002,0.002 -0.873047,1.13477 -0.002,0.002 -0.07617,0.0996 -0.0039,0.004 -12.568359,16.33984 -0.951172,1.23633 -0.951172,1.23633 -0.951172,1.23633 0.970703,1.22461 0.970703,1.2246 0.970703,1.22461 6.134766,7.74219 -0.242187,0.70313 -0.0039,0.0117 -0.0078,0.0215 -0.002,0.004 -0.0078,0.0176 -0.002,0.008 -0.002,0.006 -0.03125,0.0762 -0.02539,0.0859 -0.0078,0.0293 -0.0098,0.0293 -0.339843,1.07422 -0.0059,0.0176 -0.03906,0.10351 -0.01367,0.0527 -0.103516,0.25781 v 0.10351 l -0.242187,0.83008 -0.115235,0.30078 v 0.10938 l -0.289062,1.0918 -0.0039,0.0137 -0.002,0.0137 -0.0078,0.0312 -0.002,0.01 -0.0039,0.01 -0.002,0.0117 -0.0039,0.01 -0.002,0.008 -0.0039,0.0176 -0.0039,0.0195 -0.002,0.006 -0.0039,0.0156 -0.01563,0.0664 -0.263672,1.12109 -0.0039,0.0156 -0.002,0.0117 -0.0059,0.0234 0.0039,-0.0215 -0.002,0.006 -0.01367,0.0508 -0.01172,0.0508 -0.0078,0.0352 -0.002,0.01 -0.002,0.01 -0.267578,1.26367 v 0.004 l -0.05859,0.17187 v 0.13672 l -0.01367,0.0703 -9.191406,3.61524 -1.453125,0.57226 -1.453125,0.57227 -1.4531248,0.57226 0.203125,1.54883 0.203125,1.54883 0.203125,1.54297 v 0.002 l 2.6660158,20.43747 0.201172,1.5489 0.201172,1.5488 0.201172,1.5488 1.550781,0.1797 1.550781,0.1797 1.550781,0.1797 9.808594,1.1367 0.09766,0.2051 0.0078,0.018 0.002,0 0.002,0 0.03516,0.09 0.02734,0.047 0.474609,1 h 0.0332 l 0.04102,0.08 0.03125,0.062 0.0059,0.012 0.01562,0.031 0.01172,0.022 0.0098,0.021 0.02148,0.035 0.0039,0.01 0.0098,0.02 0.542969,1.0118 0.01563,0.037 0.04687,0.084 0.0078,0.016 0.002,0 0.01172,0.022 0.0059,0.014 0.0059,0.01 0.01563,0.029 0.0098,0.017 0.0039,0.01 0.0059,0.01 0.634766,1.1152 0.01172,0.018 v 0 l 0.01172,0.02 0.002,0 0.0098,0.016 0.546875,0.9883 h 0.05078 l 0.101563,0.1699 0.0039,0 0.01953,0.033 0.02148,0.037 0.539062,0.8965 h 0.0332 l 0.119141,0.1855 0.0059,0.01 0.0078,0.012 0.0098,0.02 0.0039,0 0.01563,0.025 0.02539,0.039 0.01367,0.02 0.01367,0.02 0.01172,0.018 0.0078,0.012 0.002,0 v 0 l 0.002,0 0.002,0 0.474609,0.707 -3.943359,9.0547 -0.623047,1.4317 -0.623047,1.4316 -0.623047,1.4316 1.238281,0.9532 1.234375,0.9492 0.002,0 1.236329,0.9512 0.0039,0 0.537109,0.414 h 0.002 l 15.800782,12.1543 1.236328,0.9512 1.236328,0.9512 1.236328,0.9511 1.224609,-0.9707 1.22461,-0.9707 1.224609,-0.9707 7.732422,-6.125 0.689453,0.2363 0.02539,0.01 0.0039,0 0.02148,0.01 0.0059,0 h 0.002 0.002 l 0.0039,0 0.01367,0 0.03906,0.016 0.06641,0.025 0.06836,0.022 0.02734,0.01 0.0078,0 0.01367,0.01 0.0098,0 0.07031,0.025 h 0.0098 l 0.828125,0.2636 0.0957,0.047 0.173828,0.049 0.154297,0.043 0.02148,0.01 0.93164,0.2695 0.08594,0.041 0.166015,0.043 0.16211,0.043 1.046875,0.2773 0.09766,0.035 0.115234,0.027 0.13086,0.031 h 0.002 l 0.875,0.209 0.06641,0.029 0.390625,0.1778 h 0.431641 0.04102 l 0.41211,0.088 0.101562,0.047 0.248047,0.045 0.242188,0.045 h 0.0039 l 0.234375,0.043 3.609375,9.1817 0.572266,1.4531 0.572265,1.4531 0.572266,1.4532 1.548828,-0.2032 1.548828,-0.2031 1.548828,-0.2031 20.304688,-2.6504 h 0.0059 l 0.128906,-0.018 1.544924,-0.2012 1.54883,-0.2011 1.54882,-0.2012 0.17969,-1.5508 0.17969,-1.5508 0.17969,-1.5527 1.13476,-9.7969 0.2793,-0.1426 0.082,-0.041 0.99414,-0.5039 0.0254,-0.012 0.0957,-0.043 0.0996,-0.045 0.0937,-0.055 0.0898,-0.053 0.0781,-0.045 0.83203,-0.4473 0.0234,-0.012 0.008,-0 0.0195,-0.012 -0.0117,0.01 0.0918,-0.047 0.082,-0.043 0.0781,-0.049 0.0254,-0.016 1.0332,-0.5879 0.0215,-0.012 0.0195,-0.012 0.0195,-0.012 0.0195,-0.012 0.0527,-0.031 0.008,-0 0.01,-0.01 0.0195,-0.014 0.0195,-0.012 0.002,-0 0.0195,-0.012 0.96289,-0.58 0.0254,-0.016 0.004,-0 0.01,-0.01 0.043,-0.027 0.0762,-0.047 0.0508,-0.029 0.008,-0.01 1.03711,-0.6602 0.006,-0 0.0312,-0.019 0.0195,-0.014 0.0215,-0.014 0.041,-0.027 0.002,-0 h 0.002 l 0.64063,-0.4297 h 0.0312 l 0.0664,-0.047 9.04101,3.9375 1.43164,0.623 1.43164,0.6231 1.43164,0.623 0.95313,-1.2382 0.94922,-1.2344 0.002,-0 0.35156,-0.457 h 0.002 l 0.60156,-0.7813 12.56836,-16.3398 0.95117,-1.2363 0.95117,-1.2364 0.95117,-1.2363 -0.96875,-1.2246 -0.96875,-1.2207 v -0 l -0.96875,-1.2226 v -0 l -6.13281,-7.7382 0.26172,-0.7579 0.0566,-0.1406 0.0137,-0.066 0.002,-0.01 v -0 l 0.0215,-0.061 0.002,-0.014 0.33399,-1.0547 h 0.01 l 0.40821,-1.4218 h 0.0996 l 0.29492,-1.4727 0.008,-0.022 0.0137,-0.084 v -0 l 0.002,-0.01 v -0 l 0.004,-0.016 0.002,-0.01 0.25977,-1.0899 0.0137,-0.039 0.0234,-0.1016 v -0 l 0.004,-0.016 0.002,-0.01 0.002,-0.01 0.002,-0.01 0.004,-0.018 0.004,-0.018 0.002,-0.01 0.002,-0.01 0.25782,-1.2149 0.006,-0.019 0.0137,-0.072 0.004,-0.021 0.002,-0.019 0.006,-0.027 0.008,-0.043 v 0.01 l 0.0449,-0.2402 9.18945,-3.6133 1.45313,-0.5723 1.45312,-0.5723 1.45313,-0.5722 -0.20313,-1.5488 -0.20312,-1.5489 -0.20313,-1.5488 -2.65039,-20.30469 v -0.006 l -0.0156,-0.12695 -0.20117,-1.56445 -0.002,-0.002 -0.20117,-1.54882 -0.20117,-1.54883 -1.55078,-0.17969 -1.55078,-0.17969 -1.55078,-0.17968 -9.80664,-1.13477 -0.084,-0.17578 -0.008,-0.0176 -0.0137,-0.0273 -0.006,-0.0137 -0.0195,-0.041 -0.01,-0.0195 -0.0117,-0.0234 -0.0117,-0.0234 -0.002,-0.004 -0.0566,-0.11133 -0.008,-0.0117 -0.47657,-0.94141 -0.0156,-0.0332 -0.0352,-0.082 -0.0391,-0.0644 -0.006,-0.0117 v -0.002 l -0.0898,-0.17578 -0.0234,-0.0312 -0.49219,-0.91211 -0.004,-0.008 -0.002,-0.004 -0.008,-0.0156 -0.008,-0.0156 -0.006,-0.01 -0.01,-0.0176 -0.002,-0.004 -0.002,-0.006 -0.01,-0.0156 -0.006,-0.0117 -0.0625,-0.12109 -0.0332,-0.0449 -0.53711,-0.94532 -0.004,-0.008 -0.0156,-0.0273 -0.006,-0.01 -0.002,-0.004 -0.004,-0.008 -0.008,-0.0137 -0.008,-0.0156 -0.002,-0.004 v -0.002 l -0.0273,-0.0488 -0.0332,-0.0527 -0.0352,-0.0566 -0.006,-0.01 -0.006,-0.01 -0.002,-0.002 -0.0117,-0.0195 -0.5625,-0.9336 -0.002,-0.004 -0.0293,-0.0547 -0.0332,-0.0527 -0.0352,-0.0566 -0.006,-0.01 -0.006,-0.01 -0.0137,-0.0215 -0.6836,-1.07422 -0.004,-0.006 -0.0195,-0.0312 -0.0137,-0.0195 -0.0137,-0.0215 -0.0273,-0.041 -0.002,-0.002 v -0.002 l -0.42968,-0.64062 v -0.20899 l 3.88867,-8.92968 0.62305,-1.43164 0.62304,-1.43164 0.62305,-1.43165 -1.23828,-0.95312 -1.23438,-0.94922 -0.002,-0.002 -1.13476,-0.87305 -0.002,-0.002 -0.0996,-0.0762 -0.004,-0.004 -16.33985,-12.56836 -1.23633,-0.95117 -1.23632,-0.95117 -1.23633,-0.95117 -1.22461,0.96874 -1.2207,0.96876 h -0.002 l -0.67773,0.5371 h -0.004 l -0.54492,0.43164 -7.744141,6.13672 -0.765625,-0.26367 -0.140625,-0.0566 -0.06641,-0.0137 -0.0078,-0.002 h -0.002 l -0.06055,-0.0215 -0.01563,-0.002 -1.025391,-0.32422 h -0.002 l -0.07813,-0.0293 -0.0059,-0.004 -0.0078,-0.002 -0.0098,-0.004 -0.107421,-0.0293 -0.05078,-0.0137 -0.01563,-0.004 -0.02148,-0.006 -1.019531,-0.29883 -0.01172,-0.004 -0.08203,-0.0312 -0.09766,-0.0234 -0.09961,-0.0254 -0.01563,-0.004 -1.222656,-0.32421 -0.01367,-0.004 -0.01367,-0.002 -0.03125,-0.008 -0.0078,-0.002 -0.01172,-0.004 -0.01172,-0.002 -0.0098,-0.004 -0.0078,-0.002 -0.01758,-0.004 -0.01953,-0.004 -0.0059,-0.002 -0.01563,-0.004 -0.06641,-0.0156 -1.066406,-0.25196 -0.0078,-0.002 -0.04883,-0.0117 -0.03516,-0.01 -0.05078,-0.0137 -0.05078,-0.0117 -0.03516,-0.008 -0.0098,-0.002 -0.0098,-0.002 -1.263672,-0.26758 -0.02734,-0.006 -0.0293,-0.004 -0.03711,-0.006 -0.0039,-0.002 h -0.002 -0.002 l -0.0059,-0.002 h -0.0039 l -0.01172,-0.004 h -0.0078 l -0.0098,-0.002 h -0.002 l -0.01367,-0.004 -0.226563,-0.043 -3.613281,-9.18945 -0.572266,-1.45313 v -0.002 l -0.5625,-1.42578 -0.564453,-1.42969 z m -61.591797,57.97656 0.002,-0.002 v -0.006 z m 70.242187,-44.27344 h -0.002 l -0.02148,-0.006 z m -12.351562,49.51563 h 0.01563 l 0.302734,0.0293 0.371094,0.0547 0.394531,0.0801 0.421875,0.10742 0.02148,0.006 0.28125,0.0859 0.365234,0.1289 0.238281,0.0996 0.02344,0.01 0.396484,0.18554 0.375,0.20118 0.246094,0.14453 0.33789,0.22265 0.02539,0.0176 0.326172,0.23828 0.195312,0.15821 0.0078,0.008 0.337891,0.30078 0.246093,0.23828 0.002,0.002 0.01367,0.0137 0.0039,0.004 0.22461,0.24219 0.0078,0.01 0.283204,0.33398 0.01562,0.0195 0.181641,0.24024 0.191406,0.27734 0.01367,0.0195 0.0039,0.008 0.0039,0.006 0.0039,0.006 0.0078,0.0117 0.167969,0.27149 0.0098,0.0176 0.197265,0.35938 0.01172,0.0195 0.158203,0.32813 0.0098,0.0215 0.136719,0.32422 0.125,0.32812 0.111328,0.36328 0.105469,0.40235 0.07813,0.37305 0.06055,0.3789 0.05469,0.52734 0.01367,0.2793 0.002,0.38478 -0.02148,0.4355 -0.03711,0.3653 -0.04883,0.3379 -0.08008,0.4023 -0.107422,0.4219 -0.0059,0.021 -0.08594,0.2812 -0.109375,0.3106 -0.363281,0.8105 -0.08984,0.1719 -0.02148,0.041 -0.01367,0.023 -0.189453,0.3203 -0.0098,0.014 -0.002,0 -0.002,0 -0.0098,0.014 -0.177734,0.2676 -0.208984,0.2851 -0.01172,0.016 -0.25,0.3086 -0.251953,0.2812 -0.242188,0.25 -0.002,0 -0.01367,0.014 -0.0039,0 -0.242187,0.2246 -0.0098,0.01 -0.333984,0.2832 -0.01953,0.016 -0.232422,0.1758 -0.314453,0.2168 -0.01367,0.01 -0.0098,0.01 -0.0098,0.01 -0.296875,0.1816 -0.378906,0.209 -0.01758,0.01 -0.314453,0.1524 -0.0039,0 -0.3125,0.1348 -0.265625,0.1 -0.02539,0.01 -0.328125,0.1035 -0.03906,0.01 -0.414062,0.1074 -0.416016,0.088 -0.367187,0.057 -0.427735,0.045 h -0.01172 l -0.339844,0.019 h -0.400391 l -0.443359,-0.021 -0.326172,-0.031 -0.47461,-0.068 -0.02539,-0 -0.275391,-0.057 -0.333984,-0.082 -0.0098,-0 -0.392578,-0.1192 -0.302734,-0.1074 -0.01563,-0.01 -0.369141,-0.1524 -0.01953,-0.01 h -0.002 l -0.347657,-0.168 -0.01367,-0.01 -0.0039,-0 -0.01172,-0.01 -0.183594,-0.098 -0.0059,-0 -0.02148,-0.014 -0.371094,-0.2207 -0.300781,-0.1972 -0.01563,-0.012 -0.333984,-0.2421 -0.02148,-0.016 -0.185547,-0.1523 -0.332031,-0.2949 -0.27539,-0.2715 -0.222657,-0.2402 -0.210937,-0.2481 -0.01758,-0.021 -0.0078,-0.01 -0.269531,-0.3497 -0.175781,-0.2558 -0.273438,-0.4434 -0.002,-0 -0.128906,-0.2344 -0.130859,-0.2676 -0.0078,-0.016 -0.179687,-0.4219 -0.117188,-0.3125 -0.154297,-0.4863 -0.0039,-0.012 -0.05078,-0.1953 -0.09375,-0.4454 -0.07227,-0.4746 -0.03125,-0.2832 -0.02539,-0.5 -0.002,-0.34958 0.01953,-0.42382 0.03125,-0.32422 0.05469,-0.375 0.08594,-0.41992 0.08203,-0.32422 0.11914,-0.39453 0.107422,-0.30079 0.154297,-0.37304 0.191406,-0.4043 v -0.002 l 0.09766,-0.18555 0.01172,-0.0195 0.0059,-0.01 0.185547,-0.3125 0.261718,-0.39843 0.164063,-0.22461 0.0078,-0.01 0.296875,-0.37109 0.0098,-0.0117 0.002,-0.002 0.0078,-0.01 0.002,-0.002 0.148437,-0.16602 0.02148,-0.0215 0.269531,-0.27735 0.002,-0.002 0.01367,-0.0137 0.0039,-0.004 0.242188,-0.22461 0.0098,-0.008 0.335938,-0.2832 0.01758,-0.0156 0.205078,-0.15625 0.363281,-0.24609 0.0078,-0.006 0.308593,-0.19141 0.03711,-0.0215 0.0293,-0.0176 0.0039,-0.004 0.0059,-0.002 0.0078,-0.006 0.0039,-0.002 0.234375,-0.12891 0.267578,-0.13086 0.01563,-0.008 0.445313,-0.18945 0.01563,-0.008 0.291015,-0.10938 0.339844,-0.10547 0.464844,-0.12109 0.0098,-0.002 0.01172,-0.002 0.298828,-0.0625 0.416016,-0.0645 0.02539,-0.002 0.318359,-0.0352 0.494141,-0.0254 0.322265,-0.002 z"
       style="fill:#000000;fill-opacity:1;fill-rule:evenodd;stroke:none;stroke-width:1px;stroke-linecap:butt;stroke-linejoin:miter;stroke-opacity:1"
       id="path5236-1" />
    <path
       inkscape:connector-curvature="0"
       id="path5195-4"
       d="M 144,870.8206 A 65.179469,65.179469 0 0 0 78.820521,936.00007 65.179469,65.179469 0 0 0 144,1001.1794 65.179469,65.179469 0 0 0 209.17948,936.00007 65.179469,65.179469 0 0 0 144,870.8206 Z m 0,30.87448 A 34.304983,34.304983 0 0 1 178.30499,936.00007 34.304983,34.304983 0 0 1 144,970.30509 34.304983,34.304983 0 0 1 109.69502,936.00007 34.304983,34.304983 0 0 1 144,901.69508 Z"
       style="fill:none;fill-opacity:1;stroke:#000000;stroke-width:6;stroke-linecap:square;stroke-miterlimit:4;stroke-dasharray:none;stroke-opacity:1" />
    <!-- end flatgear -->
    <path
       sodipodi:nodetypes="ccscccsssssccccccccccsssssccccsccsccccccccccccccccccsc"
       inkscape:connector-curvature="0"
       id="path5236"
       d="m 61.522245,938.02862 -1.230001,10.6227 c 3.975237,-1.52408 8.189351,-2.61066 12.594659,-3.18527 4.405301,-0.5746 8.757141,-0.60533 12.990311,-0.1519 l -3.913623,-9.9518 z m 11.66104,9.70968 c -28.863342,3.76477 -49.209768,30.21507 -45.445016,59.0784 3.764775,28.8633 30.215097,49.2098 59.078437,45.445 28.863344,-3.7648 49.209754,-30.2151 45.444974,-59.07847 -3.76477,-28.86333 -30.21506,-49.20969 -59.078395,-45.44493 z m -37.501168,5.16675 -12.56915,16.33989 6.650704,8.39195 c 3.554245,-7.95551 8.957884,-14.98026 15.735561,-20.45621 z m 75.072953,-9.79207 -8.39195,6.6507 c 7.95552,3.55424 14.98027,8.95788 20.45623,15.73558 l 4.27559,-9.81714 z m -32.533338,43.25355 c 7.529537,-0.98217 14.429635,4.32561 15.411752,11.8552 0.982103,7.52957 -4.325675,14.42957 -11.85521,15.41177 -7.529574,0.9821 -14.429668,-4.3257 -15.41175,-11.8552 -0.982115,-7.52956 4.325615,-14.42973 11.855208,-15.41177 z m -52.907586,7.75625 -9.951785,3.91365 2.66624,20.44137 10.622736,1.23 c -1.524093,-3.9752 -2.610691,-8.1894 -3.185287,-12.5947 -0.574595,-4.4053 -0.605318,-8.75713 -0.151892,-12.99029 z M 131.34868,980.29221 c 1.52408,3.97526 2.61065,8.18934 3.18527,12.59469 0.57453,4.40517 0.6053,8.7571 0.15189,12.9903 l 9.95179,-3.9136 -2.66634,-20.44159 z m -94.167961,54.20869 -4.275674,9.817 16.339881,12.5691 8.391919,-6.6507 c -7.955521,-3.5543 -14.980254,-8.9579 -20.456126,-15.7354 z m 93.055621,-12.1377 c -3.55426,7.9554 -8.95792,14.9801 -15.73556,20.4562 l 9.81714,4.2756 12.5691,-16.3399 z m -56.113567,32.3226 3.913588,9.9518 20.441401,-2.6662 1.230011,-10.6227 c -3.975127,1.5244 -8.189381,2.6106 -12.594668,3.1853 -4.405322,0.5745 -8.757116,0.6054 -12.990332,0.1518 z"
       style="fill:#ffffff;fill-opacity:1;fill-rule:evenodd;stroke:none;stroke-width:1px;stroke-linecap:butt;stroke-linejoin:miter;stroke-opacity:1" />
    <path
       style="fill:none;fill-opacity:1;stroke:#000000;stroke-width:4;stroke-linecap:square;stroke-miterlimit:4;stroke-dasharray:none;stroke-opacity:1"
       d="M 80.000676,956.4536 A 43.538416,43.538416 0 0 0 36.462255,999.99203 43.538416,43.538416 0 0 0 80.000676,1043.5304 43.538416,43.538416 0 0 0 123.53909,999.99203 43.538416,43.538416 0 0 0 80.000676,956.4536 Z m 0,20.62346 A 22.914955,22.914955 0 0 1 102.91563,999.99203 22.914955,22.914955 0 0 1 80.000676,1022.907 22.914955,22.914955 0 0 1 57.085715,999.99203 22.914955,22.914955 0 0 1 80.000676,977.07706 Z"
       id="path5238-8"
       inkscape:connector-curvature="0" />
  </g>
</svg>
