<?xml version="1.0" encoding="UTF-8" standalone="no"?>
<svg
   xmlns:dc="http://purl.org/dc/elements/1.1/"
   xmlns:cc="http://creativecommons.org/ns#"
   xmlns:rdf="http://www.w3.org/1999/02/22-rdf-syntax-ns#"
   xmlns:svg="http://www.w3.org/2000/svg"
   xmlns="http://www.w3.org/2000/svg"
   xmlns:xlink="http://www.w3.org/1999/xlink"
   xmlns:sodipodi="http://sodipodi.sourceforge.net/DTD/sodipodi-0.dtd"
   xmlns:inkscape="http://www.inkscape.org/namespaces/inkscape"
   width="256"
   height="256"
   id="svg2"
   version="1.1"
   inkscape:version="0.92.0 r"
   sodipodi:docname="settings.svg"
   inkscape:export-filename="/home/acerspyro/Desktop/Vectors/settings.png"
   inkscape:export-xdpi="90"
   inkscape:export-ydpi="90">
  <metadata
     id="metadata957">
    <rdf:RDF>
      <cc:Work
         rdf:about="">
        <dc:format>image/svg+xml</dc:format>
        <dc:type
           rdf:resource="http://purl.org/dc/dcmitype/StillImage" />
        <dc:title></dc:title>
      </cc:Work>
    </rdf:RDF>
  </metadata>
  <defs
     id="defs955">
    <linearGradient
       inkscape:collect="always"
       id="linearGradient5175">
      <stop
         style="stop-color:#808080;stop-opacity:1"
         offset="0"
         id="stop5177" />
      <stop
         style="stop-color:#ffffff;stop-opacity:1"
         offset="1"
         id="stop5179" />
    </linearGradient>
    <linearGradient
       inkscape:collect="always"
       xlink:href="#linearGradient5175"
       id="linearGradient5181"
       x1="248"
       y1="256"
       x2="248"
       y2="0"
       gradientUnits="userSpaceOnUse"
       gradientTransform="translate(-8.8010324e-7,824.00001)" />
    <filter
       style="color-interpolation-filters:sRGB;"
       inkscape:label="Drop Shadow"
       id="filter5183">
      <feFlood
         flood-opacity="0.752941"
         flood-color="rgb(0,0,0)"
         result="flood"
         id="feFlood5185" />
      <feComposite
         in="flood"
         in2="SourceGraphic"
         operator="in"
         result="composite1"
         id="feComposite5187" />
      <feGaussianBlur
         in="composite1"
         stdDeviation="2"
         result="blur"
         id="feGaussianBlur5189" />
      <feOffset
         dx="3"
         dy="3"
         result="offset"
         id="feOffset5191" />
      <feComposite
         in="SourceGraphic"
         in2="offset"
         operator="over"
         result="composite2"
         id="feComposite5193" />
    </filter>
    <linearGradient
       inkscape:collect="always"
       xlink:href="#linearGradient5175"
       id="linearGradient5206"
       x1="272"
       y1="256"
       x2="272"
       y2="0"
       gradientUnits="userSpaceOnUse"
       gradientTransform="translate(0,824.00001)" />
    <filter
       style="color-interpolation-filters:sRGB;"
       inkscape:label="Drop Shadow"
       id="filter5220">
      <feFlood
         flood-opacity="0.752941"
         flood-color="rgb(0,0,0)"
         result="flood"
         id="feFlood5222" />
      <feComposite
         in="flood"
         in2="SourceGraphic"
         operator="out"
         result="composite1"
         id="feComposite5224" />
      <feGaussianBlur
         in="composite1"
         stdDeviation="2"
         result="blur"
         id="feGaussianBlur5226" />
      <feOffset
         dx="3"
         dy="3"
         result="offset"
         id="feOffset5228" />
      <feComposite
         in="offset"
         in2="SourceGraphic"
         operator="atop"
         result="composite2"
         id="feComposite5230" />
    </filter>
    <linearGradient
       inkscape:collect="always"
       xlink:href="#linearGradient5175"
       id="linearGradient5242"
       gradientUnits="userSpaceOnUse"
       gradientTransform="translate(8.1579802e-7,824)"
       x1="248"
       y1="256"
       x2="248"
       y2="0" />
    <linearGradient
       inkscape:collect="always"
       xlink:href="#linearGradient5175"
       id="linearGradient5244"
       gradientUnits="userSpaceOnUse"
       gradientTransform="translate(8.1579802e-7,824)"
       x1="272"
       y1="256"
       x2="272"
       y2="0" />
  </defs>
  <sodipodi:namedview
     pagecolor="#ffffff"
     bordercolor="#666666"
     borderopacity="1"
     objecttolerance="10"
     gridtolerance="10"
     guidetolerance="10"
     inkscape:pageopacity="0"
     inkscape:pageshadow="2"
     inkscape:window-width="1920"
     inkscape:window-height="1019"
     id="namedview953"
     showgrid="false"
     inkscape:snap-bbox="true"
     inkscape:snap-bbox-midpoints="true"
     inkscape:bbox-nodes="false"
     inkscape:object-nodes="true"
     inkscape:snap-nodes="false"
     inkscape:zoom="1.1521956"
     inkscape:cx="228.03102"
     inkscape:cy="52.402493"
     inkscape:window-x="1440"
     inkscape:window-y="27"
     inkscape:window-maximized="1"
     inkscape:current-layer="Tue Feb 14 17:26:04 2017"
     inkscape:bbox-paths="false">
    <inkscape:grid
       type="xygrid"
       id="grid5085"
       empspacing="8" />
  </sodipodi:namedview>
  <g
     inkscape:groupmode="layer"
     id="Tue Feb 14 17:26:04 2017"
     transform="translate(0,-824)">
    <path
       sodipodi:nodetypes="ccscccsssssccccccccccsssssccccsccsccccccccccccccccccsc"
       inkscape:connector-curvature="0"
       id="path5087"
       d="m 153.13422,839.62105 -7.66871,14.05277 c 6.3725,0.11571 12.83101,0.97268 19.26753,2.64752 6.43652,1.67483 12.4936,4.0745 18.11427,7.07952 l 0.15345,-16.0083 z m 10.73495,20.02023 c -42.17177,-10.97343 -85.254476,14.3178 -96.227912,56.48958 -10.973436,42.17173 14.31781,85.25444 56.489582,96.22784 42.17177,10.9734 85.25447,-14.3178 96.22791,-56.48959 10.97343,-42.1717 -14.31782,-85.25439 -56.48958,-96.22783 z m -54.94687,-13.8753 -26.614666,15.62387 4.520721,15.3795 c 9.397609,-9.04664 20.839605,-15.76356 33.319405,-19.55981 z m 109.68788,28.54168 -15.3795,4.52072 c 9.04664,9.39761 15.76356,20.83961 19.55981,33.31939 l 11.44355,-11.22545 z m -69.42692,41.77269 c 11.00133,2.86264 17.59905,14.10161 14.73641,25.10294 -2.86263,11.00126 -14.1016,17.59905 -25.10293,14.73642 -11.00133,-2.86267 -17.59905,-14.10167 -14.73641,-25.10295 2.86263,-11.00133 14.1016,-17.59906 25.10293,-14.73641 z M 71.400836,897.1527 55.392535,896.99927 47.62102,926.86581 61.673788,934.5345 c 0.115709,-6.37249 0.972691,-12.831 2.647525,-19.26751 1.674833,-6.43653 4.074513,-12.49361 7.079523,-18.11429 z m 154.925384,40.3128 c -0.1157,6.37252 -0.97269,12.83097 -2.64753,19.26753 -1.67485,6.43642 -4.07452,12.49357 -7.07952,18.11427 l 16.00829,0.15348 7.77152,-29.86661 z M 65.209508,959.85238 53.765963,971.07771 69.38982,997.69234 84.76931,993.17165 C 75.722677,983.77404 69.00577,972.33204 65.209508,959.85238 Z m 135.962142,35.37841 c -9.39762,9.04651 -20.83962,15.76341 -33.31941,19.55971 l 11.22547,11.4436 26.61466,-15.624 z m -96.01897,13.36841 -0.15343,16.0082 29.86654,7.7716 7.66869,-14.0527 c -6.3725,-0.1151 -12.831,-0.9728 -19.26753,-2.6475 -6.43651,-1.675 -12.4936,-4.0745 -18.11427,-7.0796 z"
       style="fill:url(#linearGradient5242);fill-opacity:1;fill-rule:evenodd;stroke:none;stroke-width:1px;stroke-linecap:butt;stroke-linejoin:miter;stroke-opacity:1;filter:url(#filter5183)" />
    <path
       inkscape:connector-curvature="0"
       id="path5195"
       d="M 144,870.82055 A 65.179469,65.179469 0 0 0 78.820525,936.00002 65.179469,65.179469 0 0 0 144,1001.1794 65.179469,65.179469 0 0 0 209.17948,936.00002 65.179469,65.179469 0 0 0 144,870.82055 Z m 0,30.87448 A 34.304983,34.304983 0 0 1 178.30499,936.00002 34.304983,34.304983 0 0 1 144,970.30504 34.304983,34.304983 0 0 1 109.69502,936.00002 34.304983,34.304983 0 0 1 144,901.69503 Z"
       style="fill:url(#linearGradient5244);fill-opacity:1;stroke:none;stroke-width:8;stroke-linecap:square;stroke-miterlimit:4;stroke-dasharray:none;stroke-opacity:1;filter:url(#filter5220)" />
    <!-- end flatgear -->
    <path
       style="fill:url(#linearGradient5181);fill-opacity:1;fill-rule:evenodd;stroke:none;stroke-width:1px;stroke-linecap:butt;stroke-linejoin:miter;stroke-opacity:1;filter:url(#filter5183)"
       d="m 61.522245,938.02862 -1.230001,10.6227 c 3.975237,-1.52408 8.189351,-2.61066 12.594659,-3.18527 4.405301,-0.5746 8.757141,-0.60533 12.990311,-0.1519 l -3.913623,-9.9518 z m 11.66104,9.70968 c -28.863342,3.76477 -49.209768,30.21507 -45.445016,59.0784 3.764775,28.8633 30.215097,49.2098 59.078437,45.445 28.863344,-3.7648 49.209754,-30.2151 45.444974,-59.07847 -3.76477,-28.86333 -30.21506,-49.20969 -59.078395,-45.44493 z m -37.501168,5.16675 -12.56915,16.33989 6.650704,8.39195 c 3.554245,-7.95551 8.957884,-14.98026 15.735561,-20.45621 z m 75.072953,-9.79207 -8.39195,6.6507 c 7.95552,3.55424 14.98027,8.95788 20.45623,15.73558 l 4.27559,-9.81714 z m -32.533338,43.25355 c 7.529537,-0.98217 14.429635,4.32561 15.411752,11.8552 0.982103,7.52957 -4.325675,14.42957 -11.85521,15.41177 -7.529574,0.9821 -14.429668,-4.3257 -15.41175,-11.8552 -0.982115,-7.52956 4.325615,-14.42973 11.855208,-15.41177 z m -52.907586,7.75625 -9.951785,3.91365 2.66624,20.44137 10.622736,1.23 c -1.524093,-3.9752 -2.610691,-8.1894 -3.185287,-12.5947 -0.574595,-4.4053 -0.605318,-8.75713 -0.151892,-12.99029 z M 131.34868,980.29221 c 1.52408,3.97526 2.61065,8.18934 3.18527,12.59469 0.57453,4.40517 0.6053,8.7571 0.15189,12.9903 l 9.95179,-3.9136 -2.66634,-20.44159 z m -94.167961,54.20869 -4.275674,9.817 16.339881,12.5691 8.391919,-6.6507 c -7.955521,-3.5543 -14.980254,-8.9579 -20.456126,-15.7354 z m 93.055621,-12.1377 c -3.55426,7.9554 -8.95792,14.9801 -15.73556,20.4562 l 9.81714,4.2756 12.5691,-16.3399 z m -56.113567,32.3226 3.913588,9.9518 20.441401,-2.6662 1.230011,-10.6227 c -3.975127,1.5244 -8.189381,2.6106 -12.594668,3.1853 -4.405322,0.5745 -8.757116,0.6054 -12.990332,0.1518 z"
       id="path5236"
       inkscape:connector-curvature="0"
       sodipodi:nodetypes="ccscccsssssccccccccccsssssccccsccsccccccccccccccccccsc" />
    <path
       style="fill:url(#linearGradient5206);fill-opacity:1;stroke:none;stroke-width:8;stroke-linecap:square;stroke-miterlimit:4;stroke-dasharray:none;stroke-opacity:1;filter:url(#filter5220)"
       d="M 80.000003,956.46159 A 43.538416,43.538416 0 0 0 36.461587,1000 43.538416,43.538416 0 0 0 80.000003,1043.5384 43.538416,43.538416 0 0 0 123.53842,1000 43.538416,43.538416 0 0 0 80.000003,956.46159 Z m 0,20.62346 A 22.914955,22.914955 0 0 1 102.91496,1000 22.914955,22.914955 0 0 1 80.000003,1022.915 22.914955,22.914955 0 0 1 57.085047,1000 22.914955,22.914955 0 0 1 80.000003,977.08505 Z"
       id="path5238"
       inkscape:connector-curvature="0" />
  </g>
</svg>
