# Blender v2.78 (sub 0) OBJ File: 'pipe_set.blend'
# www.blender.org
mtllib mesh.mtl
o pipe_a_short_obj.008
v -0.130000 0.249763 -0.053876
v 0.130000 0.249763 0.053876
v 0.099956 0.229785 -0.000000
v 0.099956 -0.230215 -0.000000
v -0.000044 -0.230215 0.100000
v -0.070754 0.229785 0.070711
v -0.070754 -0.230215 0.070711
v -0.070754 0.229785 -0.070711
v -0.000044 -0.230215 -0.100000
v 0.070667 -0.230215 -0.070711
v -0.054144 -0.250237 0.130000
v -0.130000 -0.250237 0.053875
v 0.053608 -0.250237 0.130000
v 0.130000 -0.250237 0.053875
v 0.130000 -0.250237 -0.053876
v -0.054144 -0.250237 -0.130000
v -0.100044 0.229785 -0.000000
v -0.130000 0.230453 0.053876
v -0.000044 0.229785 0.100000
v -0.054144 0.230453 0.130000
v 0.070667 0.229785 0.070711
v 0.053608 0.230453 0.130000
v 0.130000 0.230453 0.053876
v 0.070667 0.229785 -0.070711
v 0.130000 0.230453 -0.053876
v -0.000044 0.229785 -0.100000
v 0.053608 0.230453 -0.130000
v -0.054144 0.230453 -0.130000
v -0.130000 0.230453 -0.053876
v -0.100044 -0.230215 -0.000000
v -0.070754 -0.230215 -0.070711
v -0.130000 -0.229547 -0.053876
v -0.130000 -0.229547 0.053875
v -0.054144 -0.229548 0.130000
v 0.053608 -0.229548 0.130000
v 0.070667 -0.230215 0.070711
v 0.130000 -0.229547 0.053875
v 0.130000 -0.229547 -0.053876
v 0.053608 -0.229547 -0.130000
v -0.054144 -0.229547 -0.130000
v -0.054144 0.249763 0.130000
v -0.130000 0.249763 0.053876
v 0.053608 0.249763 0.130000
v 0.130000 0.249763 -0.053876
v 0.053608 0.249763 -0.130000
v -0.054144 0.249763 -0.130000
v -0.130000 -0.250237 -0.053876
v 0.053608 -0.250237 -0.130000
vt 0.6392 0.7895
vt 0.6392 0.8394
vt 0.0096 0.8395
vt 0.0096 0.7895
vt 0.6392 0.8894
vt 0.0096 0.8894
vt 0.6392 0.9394
vt 0.0096 0.9394
vt 0.6392 0.9893
vt 0.0096 0.9893
vt 0.6392 0.5896
vt 0.6392 0.6396
vt 0.0096 0.6396
vt 0.0096 0.5897
vt 0.6392 0.6896
vt 0.0096 0.6896
vt 0.6392 0.7395
vt 0.0096 0.7395
vt 0.8408 0.0723
vt 0.8216 0.1184
vt 0.8017 0.0832
vt 0.8408 0.1646
vt 0.8017 0.1535
vt 0.8872 0.1837
vt 0.8517 0.2032
vt 0.9335 0.1646
vt 0.9224 0.2032
vt 0.9527 0.1184
vt 0.9724 0.1535
vt 0.9335 0.0723
vt 0.9724 0.0832
vt 0.8872 0.0532
vt 0.9224 0.0334
vt 0.8517 0.0334
vt 0.8408 0.0723
vt 0.8216 0.1184
vt 0.8017 0.0832
vt 0.8517 0.0334
vt 0.8872 0.0532
vt 0.9224 0.0334
vt 0.9335 0.0723
vt 0.9724 0.0832
vt 0.9527 0.1184
vt 0.9724 0.1535
vt 0.9335 0.1646
vt 0.9224 0.2032
vt 0.8872 0.1837
vt 0.8517 0.2032
vt 0.8408 0.1646
vt 0.8017 0.1535
vt 0.7886 0.1535
vt 0.7886 0.0832
vt 0.8424 0.2125
vt 0.7925 0.1627
vt 0.9224 0.2163
vt 0.8517 0.2163
vt 0.9816 0.1627
vt 0.9317 0.2125
vt 0.9855 0.0832
vt 0.9855 0.1535
vt 0.9317 0.0242
vt 0.9816 0.0739
vt 0.8517 0.0204
vt 0.9224 0.0204
vt 0.7925 0.0739
vt 0.8424 0.0242
vt 0.7925 0.0739
vt 0.8424 0.0242
vt 0.8517 0.0204
vt 0.9224 0.0204
vt 0.7886 0.1535
vt 0.7886 0.0832
vt 0.8424 0.2125
vt 0.7925 0.1627
vt 0.9224 0.2163
vt 0.8517 0.2163
vt 0.9816 0.1627
vt 0.9317 0.2125
vt 0.9855 0.0832
vt 0.9855 0.1535
vt 0.9317 0.0242
vt 0.9816 0.0739
vn 0.6036 -0.7972 0.0000
vn 0.4268 -0.7972 0.4269
vn 0.4137 0.8110 0.4136
vn 0.5850 0.8110 0.0000
vn 0.0000 -0.7972 0.6036
vn 0.0000 0.8110 0.5850
vn -0.4268 -0.7973 0.4268
vn -0.4137 0.8110 0.4137
vn -0.6037 -0.7972 0.0000
vn -0.5850 0.8110 0.0000
vn -0.4268 -0.7973 -0.4268
vn -0.4137 0.8110 -0.4137
vn 0.0000 -0.7972 -0.6036
vn 0.0000 0.8110 -0.5850
vn 0.4268 -0.7972 -0.4269
vn 0.4137 0.8110 -0.4136
vn -0.7213 -0.6252 0.2980
vn -0.2994 -0.6249 0.7210
vn 0.2980 -0.6252 0.7213
vn 0.7210 -0.6249 0.2994
vn 0.7210 -0.6249 -0.2994
vn 0.2980 -0.6252 -0.7213
vn -0.2994 -0.6249 -0.7210
vn -0.7213 -0.6252 -0.2980
vn -0.7135 0.6355 -0.2948
vn -0.7135 0.6355 0.2948
vn -0.2962 0.6352 0.7132
vn 0.2948 0.6355 0.7135
vn 0.7132 0.6352 0.2962
vn 0.7132 0.6352 -0.2962
vn 0.2948 0.6355 -0.7135
vn -0.2962 0.6352 -0.7132
vn -0.3835 0.0000 0.9235
vn -0.9242 0.0000 0.3818
vn 0.3818 0.0000 0.9242
vn 0.9235 0.0000 0.3835
vn 0.9235 0.0000 -0.3835
vn 0.3818 0.0000 -0.9242
vn -0.3835 0.0000 -0.9235
vn -0.9242 0.0000 -0.3818
usemtl pipes
s 1
f 3/1/1 21/2/2 36/3/3 4/4/4
f 21/2/2 19/5/5 5/6/6 36/3/3
f 19/5/5 6/7/7 7/8/8 5/6/6
f 6/7/7 17/9/9 30/10/10 7/8/8
f 17/11/9 8/12/11 31/13/12 30/14/10
f 8/12/11 26/15/13 9/16/14 31/13/12
f 26/15/13 24/17/15 10/18/16 9/16/14
f 24/17/15 3/1/1 4/4/4 10/18/16
f 17/19/9 6/20/7 18/21/17
f 6/20/7 19/22/5 20/23/18
f 19/22/5 21/24/2 22/25/19
f 21/24/2 3/26/1 23/27/20
f 3/26/1 24/28/15 25/29/21
f 24/28/15 26/30/13 27/31/22
f 26/30/13 8/32/11 28/33/23
f 29/34/24 17/19/9 18/21/17
f 20/23/18 18/21/17 6/20/7
f 22/25/19 20/23/18 19/22/5
f 23/27/20 22/25/19 21/24/2
f 25/29/21 23/27/20 3/26/1
f 27/31/22 25/29/21 24/28/15
f 28/33/23 27/31/22 26/30/13
f 8/32/11 17/19/9 29/34/24
f 29/34/24 28/33/23 8/32/11
f 30/35/10 31/36/12 32/37/25
f 30/35/10 32/37/25 33/38/26
f 7/39/8 33/38/26 34/40/27
f 5/41/6 34/40/27 35/42/28
f 36/43/3 35/42/28 37/44/29
f 4/45/4 37/44/29 38/46/30
f 10/47/16 38/46/30 39/48/31
f 9/49/14 39/48/31 40/50/32
f 31/36/12 40/50/32 32/37/25
f 33/38/26 7/39/8 30/35/10
f 34/40/27 5/41/6 7/39/8
f 35/42/28 36/43/3 5/41/6
f 37/44/29 4/45/4 36/43/3
f 38/46/30 10/47/16 4/45/4
f 39/48/31 9/49/14 10/47/16
f 40/50/32 31/36/12 9/49/14
f 18/21/17 20/23/18 41/51/33 42/52/34
f 20/23/18 22/25/19 43/53/35 41/54/33
f 22/25/19 23/27/20 2/55/36 43/56/35
f 23/27/20 25/29/21 44/57/37 2/58/36
f 25/29/21 27/31/22 45/59/38 44/60/37
f 27/31/22 28/33/23 46/61/39 45/62/38
f 28/33/23 29/34/24 1/63/40 46/64/39
f 42/65/34 1/66/40 29/34/24 18/21/17
f 33/38/26 32/37/25 47/67/40 12/68/34
f 12/69/34 11/70/33 34/40/27 33/38/26
f 16/71/39 47/72/40 32/37/25 40/50/32
f 48/73/38 16/74/39 40/50/32 39/48/31
f 15/75/37 48/76/38 39/48/31 38/46/30
f 14/77/36 15/78/37 38/46/30 37/44/29
f 13/79/35 14/80/36 37/44/29 35/42/28
f 11/81/33 13/82/35 35/42/28 34/40/27
