# Blender v2.83.3 OBJ File: 'untitled.blend'
# www.blender.org
mtllib mesh.mtl
o rail_double_1_Plane.018
v 0.069282 1.103275 -1.000000
v 0.040000 1.132557 -1.000000
v -0.000000 1.143275 -1.000000
v -0.040000 1.132557 -1.000000
v -0.069282 1.103275 -1.000000
v -0.080000 1.063275 -1.000000
v -0.069282 1.023275 -1.000000
v -0.040000 0.993993 -1.000000
v -0.000000 0.983275 -1.000000
v 0.040000 0.993993 -1.000000
v 0.069282 1.023275 -1.000000
v 0.080000 1.063275 -1.000000
v 0.069282 1.103275 1.000000
v 0.040000 1.132557 1.000000
v -0.000000 1.143275 1.000000
v -0.040000 1.132557 1.000000
v -0.069282 1.103275 1.000000
v -0.080000 1.063275 1.000000
v -0.069282 1.023275 1.000000
v -0.040000 0.993993 1.000000
v -0.000000 0.983275 1.000000
v 0.040000 0.993993 1.000000
v 0.069282 1.023275 1.000000
v 0.080000 1.063275 1.000000
v 0.069282 0.063275 -1.040000
v 0.040000 0.063275 -1.069282
v 0.000000 0.063275 -1.080000
v -0.040000 0.063275 -1.069282
v -0.069282 0.063275 -1.040000
v -0.080000 0.063275 -1.000000
v -0.069282 0.063275 -0.960000
v -0.040000 0.063275 -0.930718
v -0.000000 0.063275 -0.920000
v 0.040000 0.063275 -0.930718
v 0.069282 0.063275 -0.960000
v 0.080000 0.063275 -1.000000
v 0.069282 1.817255 -1.039807
v 0.040000 1.820126 -1.068948
v -0.000000 1.821176 -1.079615
v -0.040000 1.820126 -1.068949
v -0.069282 1.817255 -1.039807
v -0.080000 1.813335 -1.000000
v -0.069282 1.809414 -0.960193
v -0.040000 1.806544 -0.931052
v -0.000000 1.805493 -0.920385
v 0.040000 1.806544 -0.931051
v 0.069282 1.809414 -0.960193
v 0.080000 1.813335 -1.000000
v 0.069282 1.924290 -1.017930
v 0.040000 1.935496 -1.044983
v -0.000000 1.939597 -1.054885
v -0.040000 1.935496 -1.044983
v -0.069282 1.924290 -1.017930
v -0.080000 1.908983 -0.980974
v -0.069282 1.893675 -0.944019
v -0.040000 1.882470 -0.916966
v -0.000000 1.878368 -0.907064
v 0.040000 1.882470 -0.916966
v 0.069282 1.893675 -0.944019
v 0.080000 1.908983 -0.980974
v 0.069282 2.018353 -0.955078
v 0.040000 2.039059 -0.975784
v -0.000000 2.046638 -0.983363
v -0.040000 2.039059 -0.975784
v -0.069282 2.018353 -0.955079
v -0.080000 1.990069 -0.926794
v -0.069282 1.961785 -0.898510
v -0.040000 1.941079 -0.877804
v -0.000000 1.933501 -0.870226
v 0.040000 1.941079 -0.877804
v 0.069282 1.961785 -0.898510
v 0.080000 1.990069 -0.926794
v 0.069282 2.081205 -0.861015
v 0.040000 2.108258 -0.872221
v -0.000000 2.118160 -0.876322
v -0.040000 2.108258 -0.872221
v -0.069282 2.081205 -0.861015
v -0.080000 2.044250 -0.845708
v -0.069282 2.007294 -0.830400
v -0.040000 1.980241 -0.819195
v -0.000000 1.970339 -0.815093
v 0.040000 1.980241 -0.819195
v 0.069282 2.007294 -0.830400
v 0.080000 2.044249 -0.845708
v 0.069282 2.103082 -0.753981
v 0.040000 2.132224 -0.756851
v -0.000000 2.142890 -0.757901
v -0.040000 2.132224 -0.756851
v -0.069282 2.103082 -0.753981
v -0.080000 2.063275 -0.750060
v -0.069282 2.023468 -0.746139
v -0.040000 1.994327 -0.743269
v -0.000000 1.983660 -0.742218
v 0.040000 1.994326 -0.743269
v 0.069282 2.023468 -0.746139
v 0.080000 2.063275 -0.750060
v 0.069282 2.103082 0.753981
v 0.040000 2.132224 0.756851
v -0.000000 2.142890 0.757901
v -0.040000 2.132224 0.756851
v -0.069282 2.103082 0.753981
v -0.080000 2.063275 0.750060
v -0.069282 2.023468 0.746139
v -0.040000 1.994327 0.743269
v -0.000000 1.983660 0.742218
v 0.040000 1.994326 0.743269
v 0.069282 2.023468 0.746139
v 0.080000 2.063275 0.750060
v 0.069282 2.081205 0.861015
v 0.040000 2.108258 0.872221
v -0.000000 2.118160 0.876322
v -0.040000 2.108258 0.872221
v -0.069282 2.081205 0.861015
v -0.080000 2.044250 0.845708
v -0.069282 2.007294 0.830400
v -0.040000 1.980241 0.819195
v -0.000000 1.970339 0.815093
v 0.040000 1.980241 0.819195
v 0.069282 2.007294 0.830400
v 0.080000 2.044249 0.845708
v 0.069282 2.018353 0.955078
v 0.040000 2.039059 0.975784
v -0.000000 2.046638 0.983363
v -0.040000 2.039059 0.975784
v -0.069282 2.018353 0.955079
v -0.080000 1.990069 0.926794
v -0.069282 1.961785 0.898510
v -0.040000 1.941079 0.877804
v -0.000000 1.933501 0.870226
v 0.040000 1.941079 0.877804
v 0.069282 1.961785 0.898510
v 0.080000 1.990069 0.926794
v 0.069282 1.924290 1.017930
v 0.040000 1.935496 1.044983
v -0.000000 1.939597 1.054885
v -0.040000 1.935496 1.044983
v -0.069282 1.924290 1.017930
v -0.080000 1.908983 0.980974
v -0.069282 1.893675 0.944019
v -0.040000 1.882470 0.916966
v -0.000000 1.878368 0.907064
v 0.040000 1.882470 0.916966
v 0.069282 1.893675 0.944019
v 0.080000 1.908983 0.980974
v 0.069282 1.817255 1.039807
v 0.040000 1.820126 1.068948
v -0.000000 1.821176 1.079615
v -0.040000 1.820126 1.068949
v -0.069282 1.817255 1.039807
v -0.080000 1.813335 1.000000
v -0.069282 1.809414 0.960193
v -0.040000 1.806544 0.931052
v -0.000000 1.805493 0.920385
v 0.040000 1.806544 0.931052
v 0.069282 1.809414 0.960193
v 0.080000 1.813335 1.000000
v 0.069282 0.063275 1.040000
v 0.040000 0.063275 1.069282
v 0.000000 0.063275 1.080000
v -0.040000 0.063275 1.069282
v -0.069282 0.063275 1.040000
v -0.080000 0.063275 1.000000
v -0.069282 0.063275 0.960000
v -0.040000 0.063275 0.930718
v -0.000000 0.063275 0.920000
v 0.040000 0.063275 0.930718
v 0.069282 0.063275 0.960000
v 0.080000 0.063275 1.000000
v 0.098238 0.063275 -1.056717
v 0.056718 0.063275 -1.098238
v 0.000000 0.063275 -1.113435
v -0.056717 0.063275 -1.098238
v -0.098238 0.063275 -1.056718
v -0.113435 0.063275 -1.000000
v -0.098238 0.063275 -0.943283
v -0.056718 0.063275 -0.901762
v -0.000000 0.063275 -0.886565
v 0.056717 0.063275 -0.901762
v 0.098238 0.063275 -0.943282
v 0.113435 0.063275 -1.000000
v 0.098238 0.063275 1.056717
v 0.056718 0.063275 1.098238
v 0.000000 0.063275 1.113435
v -0.056717 0.063275 1.098238
v -0.098238 0.063275 1.056718
v -0.113435 0.063275 1.000000
v -0.098238 0.063275 0.943283
v -0.056718 0.063275 0.901762
v -0.000000 0.063275 0.886565
v 0.056717 0.063275 0.901762
v 0.098238 0.063275 0.943282
v 0.113435 0.063275 1.000000
v 0.098238 0.000000 -1.056717
v 0.056718 0.000000 -1.098238
v 0.000000 0.000000 -1.113435
v -0.056717 0.000000 -1.098238
v -0.098238 0.000000 -1.056718
v -0.113435 0.000000 -1.000000
v -0.098238 0.000000 -0.943283
v -0.056718 0.000000 -0.901762
v -0.000000 0.000000 -0.886565
v 0.056717 0.000000 -0.901762
v 0.098238 0.000000 -0.943282
v 0.113435 0.000000 -1.000000
v 0.098238 0.000000 1.056717
v 0.056718 0.000000 1.098238
v 0.000000 0.000000 1.113435
v -0.056717 0.000000 1.098238
v -0.098238 -0.000000 1.056718
v -0.113435 -0.000000 1.000000
v -0.098238 -0.000000 0.943283
v -0.056718 -0.000000 0.901762
v -0.000000 -0.000000 0.886565
v 0.056717 0.000000 0.901762
v 0.098238 0.000000 0.943282
v 0.113435 0.000000 1.000000
vt 0.949061 0.514854
vt 0.050939 0.514854
vt 0.050939 0.496187
vt 0.949061 0.496187
vt 0.949061 0.528518
vt 0.050939 0.528518
vt 0.949061 0.533520
vt 0.050939 0.533520
vt 0.949061 0.528518
vt 0.050939 0.528518
vt 0.949061 0.514854
vt 0.050939 0.514854
vt 0.949061 0.496187
vt 0.050939 0.496187
vt 0.949061 0.477521
vt 0.050939 0.477521
vt 0.949061 0.463856
vt 0.050939 0.463856
vt 0.949061 0.458855
vt 0.050939 0.458855
vt 0.949061 0.463856
vt 0.050939 0.463856
vt 0.949061 0.477521
vt 0.050939 0.477521
vt 0.967024 0.029528
vt 0.966937 0.848040
vt 0.949061 0.846210
vt 0.949061 0.029528
vt 0.980173 0.029528
vt 0.980023 0.849379
vt 0.984986 0.029528
vt 0.984813 0.849869
vt 0.980173 0.029528
vt 0.980023 0.849379
vt 0.967024 0.029528
vt 0.966937 0.848040
vt 0.949061 0.029528
vt 0.949061 0.846210
vt 0.931099 0.029528
vt 0.931185 0.844380
vt 0.917949 0.029528
vt 0.918099 0.843041
vt 0.913136 0.029528
vt 0.913309 0.842550
vt 0.917949 0.029528
vt 0.918099 0.843041
vt 0.931099 0.029528
vt 0.931185 0.844380
vt 0.957112 0.897988
vt 0.940517 0.890845
vt 0.969261 0.903217
vt 0.973708 0.905131
vt 0.969261 0.903217
vt 0.957113 0.897988
vt 0.940517 0.890845
vt 0.923922 0.883702
vt 0.911773 0.878472
vt 0.907327 0.876558
vt 0.911773 0.878472
vt 0.923922 0.883702
vt 0.928888 0.941884
vt 0.916187 0.928685
vt 0.938186 0.951546
vt 0.941590 0.955083
vt 0.938186 0.951546
vt 0.928888 0.941884
vt 0.916187 0.928685
vt 0.903486 0.915486
vt 0.894188 0.905823
vt 0.890784 0.902287
vt 0.894188 0.905823
vt 0.903486 0.915486
vt 0.886648 0.971214
vt 0.879774 0.953968
vt 0.891680 0.983838
vt 0.893522 0.988459
vt 0.891680 0.983838
vt 0.886648 0.971214
vt 0.879774 0.953968
vt 0.872900 0.936723
vt 0.867868 0.924098
vt 0.866026 0.919477
vt 0.867868 0.924098
vt 0.872900 0.936723
vt 0.838583 0.981423
vt 0.836822 0.962847
vt 0.839872 0.995022
vt 0.840344 1.000000
vt 0.839872 0.995022
vt 0.838583 0.981423
vt 0.836822 0.962847
vt 0.835062 0.944270
vt 0.833773 0.930671
vt 0.833301 0.925694
vt 0.833773 0.930671
vt 0.835062 0.944270
vt 0.161417 0.981423
vt 0.163178 0.962847
vt 0.160128 0.995022
vt 0.159656 1.000000
vt 0.160128 0.995022
vt 0.161417 0.981423
vt 0.163178 0.962847
vt 0.164938 0.944270
vt 0.166227 0.930671
vt 0.166699 0.925694
vt 0.166227 0.930671
vt 0.164938 0.944270
vt 0.113352 0.971214
vt 0.120226 0.953968
vt 0.108320 0.983838
vt 0.106478 0.988459
vt 0.108320 0.983838
vt 0.113352 0.971214
vt 0.120226 0.953968
vt 0.127099 0.936723
vt 0.132132 0.924098
vt 0.133973 0.919477
vt 0.132132 0.924098
vt 0.127099 0.936723
vt 0.071112 0.941884
vt 0.083813 0.928685
vt 0.061813 0.951546
vt 0.058410 0.955083
vt 0.061813 0.951546
vt 0.071112 0.941884
vt 0.083813 0.928685
vt 0.096514 0.915486
vt 0.105812 0.905823
vt 0.109216 0.902287
vt 0.105812 0.905823
vt 0.096514 0.915486
vt 0.042888 0.897988
vt 0.059483 0.890845
vt 0.030739 0.903217
vt 0.026292 0.905131
vt 0.030739 0.903217
vt 0.042887 0.897988
vt 0.059483 0.890845
vt 0.076078 0.883702
vt 0.088226 0.878472
vt 0.092673 0.876558
vt 0.088226 0.878472
vt 0.076078 0.883702
vt 0.033063 0.848040
vt 0.050939 0.846210
vt 0.019977 0.849379
vt 0.015187 0.849869
vt 0.019977 0.849379
vt 0.033063 0.848040
vt 0.050939 0.846210
vt 0.068815 0.844380
vt 0.081901 0.843041
vt 0.086691 0.842550
vt 0.081901 0.843041
vt 0.068815 0.844380
vt 0.032977 0.029528
vt 0.050939 0.029528
vt 0.019827 0.029528
vt 0.015014 0.029528
vt 0.019827 0.029528
vt 0.032977 0.029528
vt 0.050939 0.029528
vt 0.068902 0.029528
vt 0.082051 0.029528
vt 0.086864 0.029528
vt 0.082051 0.029528
vt 0.068902 0.029528
vt 0.000000 0.029528
vt 0.006824 0.029528
vt 0.076409 0.029528
vt 0.050939 0.029528
vt 0.993176 0.029528
vt 1.000000 0.029528
vt 0.923591 0.029528
vt 0.904946 0.029528
vt 0.949061 0.029528
vt 0.974530 0.029528
vt 0.076409 0.029528
vt 0.095054 0.029528
vt 0.006824 0.029528
vt 0.050939 0.029528
vt 0.974531 0.029528
vt 0.949061 0.029528
vt 0.904946 0.029528
vt 0.923591 0.029528
vt 0.025470 0.029528
vt 0.095054 0.029528
vt 0.993176 0.029528
vt 0.898122 0.029528
vt 0.025469 0.029528
vt 0.101878 0.029528
vt 0.095054 0.000000
vt 0.076409 0.000000
vt 0.025470 0.000000
vt 0.050939 0.000000
vt 0.974531 0.000000
vt 0.949061 0.000000
vt 0.101878 0.000000
vt 0.006824 0.000000
vt 0.923591 0.000000
vt 0.095054 0.000000
vt 0.000000 0.000000
vt 0.904946 0.000000
vt 0.076409 0.000000
vt 0.949061 0.000000
vt 0.974530 0.000000
vt 0.006824 0.000000
vt 0.898122 0.000000
vt 0.993176 0.000000
vt 0.025469 0.000000
vt 0.904946 0.000000
vt 1.000000 0.000000
vt 0.050939 0.000000
vt 0.923591 0.000000
vt 0.993176 0.000000
vn 0.8660 0.5000 0.0000
vn 1.0000 -0.0000 0.0000
vn 0.5000 0.8660 0.0000
vn 0.0000 1.0000 0.0000
vn -0.5000 0.8660 0.0000
vn -0.8660 0.5000 0.0000
vn -1.0000 0.0000 0.0000
vn -0.8660 -0.5000 0.0000
vn -0.5000 -0.8660 0.0000
vn -0.0000 -1.0000 0.0000
vn 0.5000 -0.8660 0.0000
vn 0.8660 -0.5000 0.0000
vn 0.8656 0.0001 -0.5008
vn 0.8584 0.0520 -0.5103
vn 0.9999 0.0020 -0.0160
vn 0.4992 0.0002 -0.8665
vn 0.4923 0.0890 -0.8659
vn 0.0000 0.0002 -1.0000
vn 0.0000 0.1025 -0.9947
vn -0.4992 0.0002 -0.8665
vn -0.4923 0.0890 -0.8659
vn -0.8656 0.0001 -0.5008
vn -0.8584 0.0520 -0.5103
vn -0.9999 0.0020 -0.0160
vn -0.8656 0.0001 0.5008
vn -0.8722 -0.0462 0.4869
vn -0.4992 0.0002 0.8665
vn -0.5056 -0.0793 0.8591
vn -0.0000 0.0002 1.0000
vn -0.0000 -0.0908 0.9959
vn 0.4992 0.0002 0.8665
vn 0.5056 -0.0793 0.8591
vn 0.8656 0.0001 0.5008
vn 0.8722 -0.0462 0.4869
vn 0.8529 0.2015 -0.4817
vn 0.9995 0.0127 -0.0296
vn 0.4878 0.3374 -0.8051
vn 0.0000 0.3867 -0.9222
vn -0.4878 0.3374 -0.8051
vn -0.8529 0.2015 -0.4817
vn -0.9995 0.0127 -0.0296
vn -0.8809 -0.1797 0.4378
vn -0.5165 -0.3229 0.7931
vn -0.0000 -0.3759 0.9267
vn 0.5165 -0.3229 0.7931
vn 0.8809 -0.1797 0.4378
vn 0.8521 0.3701 -0.3701
vn 0.9995 0.0229 -0.0229
vn 0.4866 0.6178 -0.6178
vn 0.0000 0.7071 -0.7071
vn -0.4866 0.6178 -0.6178
vn -0.8521 0.3701 -0.3701
vn -0.9995 0.0229 -0.0229
vn -0.8800 -0.3359 0.3359
vn -0.5145 -0.6064 0.6064
vn -0.0000 -0.7071 0.7071
vn 0.5145 -0.6064 0.6064
vn 0.8800 -0.3359 0.3359
vn 0.8529 0.4817 -0.2015
vn 0.9995 0.0296 -0.0127
vn 0.4878 0.8051 -0.3374
vn 0.0000 0.9222 -0.3867
vn -0.4878 0.8051 -0.3374
vn -0.8529 0.4817 -0.2015
vn -0.9995 0.0296 -0.0127
vn -0.8809 -0.4378 0.1797
vn -0.5165 -0.7931 0.3229
vn -0.0000 -0.9267 0.3759
vn 0.5165 -0.7931 0.3229
vn 0.8809 -0.4378 0.1797
vn 0.8582 0.5107 -0.0520
vn 0.9999 0.0161 -0.0020
vn 0.4919 0.8661 -0.0889
vn 0.0000 0.9947 -0.1024
vn -0.4919 0.8661 -0.0889
vn -0.8582 0.5107 -0.0520
vn -0.9999 0.0161 -0.0020
vn -0.8720 -0.4873 0.0462
vn -0.5052 -0.8594 0.0794
vn -0.0000 -0.9959 0.0909
vn 0.5052 -0.8594 0.0794
vn 0.8720 -0.4873 0.0462
vn 0.8582 0.5107 0.0520
vn 0.9999 0.0161 0.0020
vn 0.4919 0.8661 0.0889
vn 0.0000 0.9947 0.1024
vn -0.4919 0.8661 0.0889
vn -0.8582 0.5107 0.0520
vn -0.9999 0.0161 0.0020
vn -0.8720 -0.4873 -0.0462
vn -0.5052 -0.8594 -0.0794
vn -0.0000 -0.9959 -0.0909
vn 0.5052 -0.8594 -0.0794
vn 0.8720 -0.4873 -0.0462
vn 0.8529 0.4817 0.2015
vn 0.9995 0.0296 0.0127
vn 0.4878 0.8051 0.3374
vn 0.0000 0.9222 0.3867
vn -0.4878 0.8051 0.3374
vn -0.8529 0.4817 0.2015
vn -0.9995 0.0296 0.0127
vn -0.8809 -0.4378 -0.1797
vn -0.5165 -0.7931 -0.3229
vn -0.0000 -0.9267 -0.3759
vn 0.5165 -0.7931 -0.3229
vn 0.8809 -0.4378 -0.1797
vn 0.8521 0.3701 0.3701
vn 0.9995 0.0229 0.0229
vn 0.4866 0.6178 0.6178
vn 0.0000 0.7071 0.7071
vn -0.4866 0.6178 0.6178
vn -0.8521 0.3701 0.3701
vn -0.9995 0.0229 0.0229
vn -0.8800 -0.3359 -0.3359
vn -0.5145 -0.6064 -0.6064
vn -0.0000 -0.7071 -0.7071
vn 0.5145 -0.6064 -0.6064
vn 0.8800 -0.3359 -0.3359
vn 0.8529 0.2015 0.4817
vn 0.9995 0.0127 0.0296
vn 0.4878 0.3374 0.8051
vn 0.0000 0.3867 0.9222
vn -0.4878 0.3374 0.8051
vn -0.8529 0.2015 0.4817
vn -0.9995 0.0127 0.0296
vn -0.8809 -0.1797 -0.4378
vn -0.5165 -0.3229 -0.7931
vn -0.0000 -0.3759 -0.9267
vn 0.5165 -0.3229 -0.7931
vn 0.8809 -0.1797 -0.4378
vn 0.8584 0.0520 0.5103
vn 0.9999 0.0020 0.0160
vn 0.4923 0.0890 0.8659
vn 0.0000 0.1025 0.9947
vn -0.4923 0.0890 0.8659
vn -0.8584 0.0520 0.5103
vn -0.9999 0.0020 0.0160
vn -0.8722 -0.0462 -0.4869
vn -0.5056 -0.0793 -0.8591
vn -0.0000 -0.0908 -0.9959
vn 0.5056 -0.0793 -0.8591
vn 0.8722 -0.0462 -0.4869
vn -0.8660 0.0000 -0.5000
vn -0.5000 0.0000 -0.8660
vn 0.8660 0.0000 0.5000
vn -0.0000 0.0000 -1.0000
vn 0.5000 0.0000 0.8660
vn -0.8660 0.0000 0.5000
vn 0.5000 0.0000 -0.8660
vn -0.0000 0.0000 1.0000
vn -0.5000 0.0000 0.8660
vn 0.8660 0.0000 -0.5000
usemtl Material.001
s 1
f 1/1/1 13/2/1 24/3/2 12/4/2
f 2/5/3 14/6/3 13/2/1 1/1/1
f 3/7/4 15/8/4 14/6/3 2/5/3
f 4/9/5 16/10/5 15/8/4 3/7/4
f 5/11/6 17/12/6 16/10/5 4/9/5
f 6/13/7 18/14/7 17/12/6 5/11/6
f 7/15/8 19/16/8 18/14/7 6/13/7
f 8/17/9 20/18/9 19/16/8 7/15/8
f 9/19/10 21/20/10 20/18/9 8/17/9
f 10/21/11 22/22/11 21/20/10 9/19/10
f 11/23/12 23/24/12 22/22/11 10/21/11
f 12/4/2 24/3/2 23/24/12 11/23/12
f 25/25/13 37/26/14 48/27/15 36/28/2
f 26/29/16 38/30/17 37/26/14 25/25/13
f 27/31/18 39/32/19 38/30/17 26/29/16
f 28/33/20 40/34/21 39/32/19 27/31/18
f 29/35/22 41/36/23 40/34/21 28/33/20
f 30/37/7 42/38/24 41/36/23 29/35/22
f 31/39/25 43/40/26 42/38/24 30/37/7
f 32/41/27 44/42/28 43/40/26 31/39/25
f 33/43/29 45/44/30 44/42/28 32/41/27
f 34/45/31 46/46/32 45/44/30 33/43/29
f 35/47/33 47/48/34 46/46/32 34/45/31
f 36/28/2 48/27/15 47/48/34 35/47/33
f 37/26/14 49/49/35 60/50/36 48/27/15
f 38/30/17 50/51/37 49/49/35 37/26/14
f 39/32/19 51/52/38 50/51/37 38/30/17
f 40/34/21 52/53/39 51/52/38 39/32/19
f 41/36/23 53/54/40 52/53/39 40/34/21
f 42/38/24 54/55/41 53/54/40 41/36/23
f 43/40/26 55/56/42 54/55/41 42/38/24
f 44/42/28 56/57/43 55/56/42 43/40/26
f 45/44/30 57/58/44 56/57/43 44/42/28
f 46/46/32 58/59/45 57/58/44 45/44/30
f 47/48/34 59/60/46 58/59/45 46/46/32
f 48/27/15 60/50/36 59/60/46 47/48/34
f 49/49/35 61/61/47 72/62/48 60/50/36
f 50/51/37 62/63/49 61/61/47 49/49/35
f 51/52/38 63/64/50 62/63/49 50/51/37
f 52/53/39 64/65/51 63/64/50 51/52/38
f 53/54/40 65/66/52 64/65/51 52/53/39
f 54/55/41 66/67/53 65/66/52 53/54/40
f 55/56/42 67/68/54 66/67/53 54/55/41
f 56/57/43 68/69/55 67/68/54 55/56/42
f 57/58/44 69/70/56 68/69/55 56/57/43
f 58/59/45 70/71/57 69/70/56 57/58/44
f 59/60/46 71/72/58 70/71/57 58/59/45
f 60/50/36 72/62/48 71/72/58 59/60/46
f 61/61/47 73/73/59 84/74/60 72/62/48
f 62/63/49 74/75/61 73/73/59 61/61/47
f 63/64/50 75/76/62 74/75/61 62/63/49
f 64/65/51 76/77/63 75/76/62 63/64/50
f 65/66/52 77/78/64 76/77/63 64/65/51
f 66/67/53 78/79/65 77/78/64 65/66/52
f 67/68/54 79/80/66 78/79/65 66/67/53
f 68/69/55 80/81/67 79/80/66 67/68/54
f 69/70/56 81/82/68 80/81/67 68/69/55
f 70/71/57 82/83/69 81/82/68 69/70/56
f 71/72/58 83/84/70 82/83/69 70/71/57
f 72/62/48 84/74/60 83/84/70 71/72/58
f 73/73/59 85/85/71 96/86/72 84/74/60
f 74/75/61 86/87/73 85/85/71 73/73/59
f 75/76/62 87/88/74 86/87/73 74/75/61
f 76/77/63 88/89/75 87/88/74 75/76/62
f 77/78/64 89/90/76 88/89/75 76/77/63
f 78/79/65 90/91/77 89/90/76 77/78/64
f 79/80/66 91/92/78 90/91/77 78/79/65
f 80/81/67 92/93/79 91/92/78 79/80/66
f 81/82/68 93/94/80 92/93/79 80/81/67
f 82/83/69 94/95/81 93/94/80 81/82/68
f 83/84/70 95/96/82 94/95/81 82/83/69
f 84/74/60 96/86/72 95/96/82 83/84/70
f 85/85/71 97/97/83 108/98/84 96/86/72
f 86/87/73 98/99/85 97/97/83 85/85/71
f 87/88/74 99/100/86 98/99/85 86/87/73
f 88/89/75 100/101/87 99/100/86 87/88/74
f 89/90/76 101/102/88 100/101/87 88/89/75
f 90/91/77 102/103/89 101/102/88 89/90/76
f 91/92/78 103/104/90 102/103/89 90/91/77
f 92/93/79 104/105/91 103/104/90 91/92/78
f 93/94/80 105/106/92 104/105/91 92/93/79
f 94/95/81 106/107/93 105/106/92 93/94/80
f 95/96/82 107/108/94 106/107/93 94/95/81
f 96/86/72 108/98/84 107/108/94 95/96/82
f 97/97/83 109/109/95 120/110/96 108/98/84
f 98/99/85 110/111/97 109/109/95 97/97/83
f 99/100/86 111/112/98 110/111/97 98/99/85
f 100/101/87 112/113/99 111/112/98 99/100/86
f 101/102/88 113/114/100 112/113/99 100/101/87
f 102/103/89 114/115/101 113/114/100 101/102/88
f 103/104/90 115/116/102 114/115/101 102/103/89
f 104/105/91 116/117/103 115/116/102 103/104/90
f 105/106/92 117/118/104 116/117/103 104/105/91
f 106/107/93 118/119/105 117/118/104 105/106/92
f 107/108/94 119/120/106 118/119/105 106/107/93
f 108/98/84 120/110/96 119/120/106 107/108/94
f 109/109/95 121/121/107 132/122/108 120/110/96
f 110/111/97 122/123/109 121/121/107 109/109/95
f 111/112/98 123/124/110 122/123/109 110/111/97
f 112/113/99 124/125/111 123/124/110 111/112/98
f 113/114/100 125/126/112 124/125/111 112/113/99
f 114/115/101 126/127/113 125/126/112 113/114/100
f 115/116/102 127/128/114 126/127/113 114/115/101
f 116/117/103 128/129/115 127/128/114 115/116/102
f 117/118/104 129/130/116 128/129/115 116/117/103
f 118/119/105 130/131/117 129/130/116 117/118/104
f 119/120/106 131/132/118 130/131/117 118/119/105
f 120/110/96 132/122/108 131/132/118 119/120/106
f 121/121/107 133/133/119 144/134/120 132/122/108
f 122/123/109 134/135/121 133/133/119 121/121/107
f 123/124/110 135/136/122 134/135/121 122/123/109
f 124/125/111 136/137/123 135/136/122 123/124/110
f 125/126/112 137/138/124 136/137/123 124/125/111
f 126/127/113 138/139/125 137/138/124 125/126/112
f 127/128/114 139/140/126 138/139/125 126/127/113
f 128/129/115 140/141/127 139/140/126 127/128/114
f 129/130/116 141/142/128 140/141/127 128/129/115
f 130/131/117 142/143/129 141/142/128 129/130/116
f 131/132/118 143/144/130 142/143/129 130/131/117
f 132/122/108 144/134/120 143/144/130 131/132/118
f 133/133/119 145/145/131 156/146/132 144/134/120
f 134/135/121 146/147/133 145/145/131 133/133/119
f 135/136/122 147/148/134 146/147/133 134/135/121
f 136/137/123 148/149/135 147/148/134 135/136/122
f 137/138/124 149/150/136 148/149/135 136/137/123
f 138/139/125 150/151/137 149/150/136 137/138/124
f 139/140/126 151/152/138 150/151/137 138/139/125
f 140/141/127 152/153/139 151/152/138 139/140/126
f 141/142/128 153/154/140 152/153/139 140/141/127
f 142/143/129 154/155/141 153/154/140 141/142/128
f 143/144/130 155/156/142 154/155/141 142/143/129
f 144/134/120 156/146/132 155/156/142 143/144/130
f 145/145/131 157/157/33 168/158/2 156/146/132
f 146/147/133 158/159/31 157/157/33 145/145/131
f 147/148/134 159/160/29 158/159/31 146/147/133
f 148/149/135 160/161/27 159/160/29 147/148/134
f 149/150/136 161/162/25 160/161/27 148/149/135
f 150/151/137 162/163/7 161/162/25 149/150/136
f 151/152/138 163/164/22 162/163/7 150/151/137
f 152/153/139 164/165/20 163/164/22 151/152/138
f 153/154/140 165/166/18 164/165/20 152/153/139
f 154/155/141 166/167/16 165/166/18 153/154/140
f 155/156/142 167/168/13 166/167/16 154/155/141
f 156/146/132 168/158/2 167/168/13 155/156/142
f 158/159/4 159/160/4 183/169/4 182/170/4
f 162/163/4 163/164/4 187/171/4 186/172/4
f 27/31/4 26/29/4 170/173/4 171/174/4
f 32/41/4 31/39/4 175/175/4 176/176/4
f 25/25/4 36/28/4 180/177/4 169/178/4
f 166/167/4 167/168/4 191/179/4 190/180/4
f 159/160/4 160/161/4 184/181/4 183/169/4
f 167/168/4 168/158/4 192/182/4 191/179/4
f 30/37/4 29/35/4 173/183/4 174/184/4
f 35/47/4 34/45/4 178/185/4 179/186/4
f 168/158/4 157/157/4 181/187/4 192/182/4
f 163/164/4 164/165/4 188/188/4 187/171/4
f 28/33/4 27/31/4 171/174/4 172/189/4
f 33/43/4 32/41/4 176/176/4 177/190/4
f 160/161/4 161/162/4 185/191/4 184/181/4
f 164/165/4 165/166/4 189/192/4 188/188/4
f 26/29/4 25/25/4 169/178/4 170/173/4
f 31/39/4 30/37/4 174/184/4 175/175/4
f 157/157/4 158/159/4 182/170/4 181/187/4
f 36/28/4 35/47/4 179/186/4 180/177/4
f 161/162/4 162/163/4 186/172/4 185/191/4
f 165/166/4 166/167/4 190/180/4 189/192/4
f 29/35/4 28/33/4 172/189/4 173/183/4
f 34/45/4 33/43/4 177/190/4 178/185/4
f 187/171/143 188/188/144 212/193/144 211/194/143
f 192/182/2 181/187/145 205/195/145 216/196/2
f 174/184/7 173/183/143 197/197/143 198/198/7
f 188/188/144 189/192/146 213/199/146 212/193/144
f 181/187/145 182/170/147 206/200/147 205/195/145
f 175/175/148 174/184/7 198/198/7 199/201/148
f 189/192/146 190/180/149 214/202/149 213/199/146
f 182/170/147 183/169/150 207/203/150 206/200/147
f 176/176/151 175/175/148 199/201/148 200/204/151
f 190/180/149 191/179/152 215/205/152 214/202/149
f 169/178/152 180/177/2 204/206/2 193/207/152
f 183/169/150 184/181/151 208/208/151 207/203/150
f 177/190/150 176/176/151 200/204/151 201/209/150
f 191/179/152 192/182/2 216/196/2 215/205/152
f 170/173/149 169/178/152 193/207/152 194/210/149
f 184/181/151 185/191/148 209/211/148 208/208/151
f 178/185/147 177/190/150 201/209/150 202/212/147
f 171/174/146 170/173/149 194/210/149 195/213/146
f 185/191/148 186/172/7 210/214/7 209/211/148
f 179/186/145 178/185/147 202/212/147 203/215/145
f 172/189/144 171/174/146 195/213/146 196/216/144
f 186/172/7 187/171/143 211/194/143 210/214/7
f 180/177/2 179/186/145 203/215/145 204/206/2
f 173/183/143 172/189/144 196/216/144 197/197/143
