# Blender v3.1.2 OBJ File: 'project.blend'
# www.blender.org
mtllib mesh.mtl
o stalagmite_1_Mesh.013
v 0.130023 -0.028485 -0.082214
v 0.095641 -0.028555 -0.126858
v 0.045754 -0.031704 -0.156990
v -0.043638 -0.030621 -0.151053
v -0.096402 -0.028923 -0.127935
v -0.133588 -0.028736 -0.084098
v -0.160571 -0.028566 -0.001526
v -0.153808 -0.028652 0.055023
v -0.123198 -0.028988 0.101187
v -0.053929 -0.029075 0.151015
v -0.000277 -0.029122 0.162959
v 0.048086 -0.029129 0.154360
v 0.127239 -0.029129 0.096972
v 0.150315 -0.029129 0.053743
v 0.155288 -0.029047 -0.000827
v 0.147256 -0.000456 -0.092199
v 0.115397 0.002614 -0.148364
v 0.053715 -0.001030 -0.179183
v -0.049087 -0.008257 -0.172709
v -0.109545 -0.006886 -0.149208
v -0.154321 -0.004317 -0.096823
v -0.187355 -0.002787 -0.004478
v -0.173770 -0.003011 0.060967
v -0.134771 -0.003865 0.107674
v -0.060158 -0.002739 0.159174
v -0.001597 -0.003385 0.168572
v 0.049672 -0.005695 0.157189
v 0.136180 -0.005421 0.100937
v 0.161015 -0.005531 0.055659
v 0.167430 -0.004875 -0.002243
v 0.056153 0.373850 0.005392
v 0.066400 0.345956 0.031799
v 0.056187 0.347648 0.053519
v 0.018230 0.349312 0.071130
v -0.002158 0.350959 0.068202
v -0.024793 0.369716 0.058033
v -0.048754 0.377768 0.041734
v -0.056913 0.385479 0.023114
v -0.058278 0.382598 0.001775
v -0.051519 0.368120 -0.028182
v -0.037757 0.361595 -0.043846
v -0.018232 0.357377 -0.052419
v 0.012401 0.358978 -0.048711
v 0.023771 0.383684 -0.032960
v 0.038504 0.389819 -0.019093
v 0.033889 0.436660 0.021481
v 0.012783 0.475933 -0.000992
v -0.003812 0.469359 -0.015157
v -0.015247 0.435606 -0.031168
v -0.042165 0.446025 -0.012232
v -0.034886 0.476301 0.003782
v -0.022278 0.474908 0.020035
v 0.000031 0.428669 0.043038
v -0.029826 0.449161 -0.022012
v -0.019631 0.483642 -0.006086
v -0.004295 0.487850 0.009040
v 0.017593 0.443456 0.032243
v 0.037694 0.349949 0.063992
v 0.089374 -0.029129 0.128018
v 0.139320 0.057470 -0.085909
v 0.155682 0.051734 -0.002863
v 0.156125 0.051689 0.051910
v 0.127521 0.052083 0.085186
v 0.030902 0.045554 0.099349
v -0.010243 0.060615 0.130863
v -0.064294 0.066851 0.135493
v -0.125345 0.056175 0.093914
v -0.158397 0.053399 0.052729
v -0.171964 0.053687 -0.003889
v -0.140056 0.051835 -0.085301
v -0.097505 0.052182 -0.125948
v -0.044825 0.054168 -0.151014
v 0.049477 0.059954 -0.161745
v 0.106915 0.061488 -0.140233
v 0.107982 0.146879 -0.051483
v 0.083374 0.150616 -0.084226
v 0.044252 0.151343 -0.102769
v -0.026275 0.151958 -0.108502
v -0.060086 0.145123 -0.084590
v -0.083298 0.145464 -0.051667
v -0.101420 0.147039 0.004333
v -0.097750 0.147265 0.041376
v -0.079713 0.146745 0.074304
v -0.042928 0.141737 0.108663
v -0.002977 0.129196 0.100174
v 0.034500 0.124815 0.081079
v 0.117985 0.144679 0.077629
v 0.151252 0.141860 0.053600
v 0.141014 0.140900 0.005559
v 0.034159 0.246965 0.086418
v 0.008925 0.246743 0.084340
v -0.022341 0.254292 0.079074
v -0.051279 0.242886 0.063068
v -0.065076 0.240100 0.039904
v -0.068900 0.233218 0.010785
v -0.063285 0.245578 -0.036281
v -0.045491 0.251374 -0.065942
v -0.006870 0.241887 -0.078328
v 0.042932 0.223607 -0.066876
v 0.071148 0.223586 -0.053413
v 0.091375 0.228047 -0.032023
v 0.109136 0.246134 0.005637
v 0.108889 0.250523 0.043539
v 0.088826 0.241808 0.066802
v 0.111476 -0.014181 -0.145413
v 0.145980 -0.015900 -0.092376
v 0.052788 -0.017855 -0.178561
v -0.049154 -0.021041 -0.172022
v -0.108976 -0.019274 -0.147309
v -0.151808 -0.017716 -0.096021
v -0.183199 -0.016951 -0.003363
v -0.172932 -0.017096 0.061057
v -0.136357 -0.018016 0.110529
v -0.059659 -0.018295 0.165036
v -0.000376 -0.018481 0.177027
v 0.052767 -0.018510 0.167508
v 0.097999 -0.018510 0.138722
v 0.139563 -0.018510 0.104926
v 0.164852 -0.018510 0.057765
v 0.170783 -0.018184 -0.001738
v 0.081577 0.053071 0.088591
v 0.061076 0.246297 0.079012
v 0.078671 0.135558 0.077906
v 0.094645 -0.004969 0.130782
v 0.003366 -0.028736 0.009521
vt 0.000000 0.045436
vt 0.001768 0.029988
vt 0.009999 0.016253
vt 0.044054 0.047550
vt 0.424737 0.848860
vt 0.409130 0.853942
vt 0.403170 0.838573
vt 0.419356 0.833755
vt 0.440327 0.845514
vt 0.436305 0.828623
vt 0.462545 0.822744
vt 0.465646 0.841750
vt 0.481726 0.840421
vt 0.480323 0.820276
vt 0.297220 0.983359
vt 0.295906 0.999741
vt 0.275339 0.998051
vt 0.280787 0.980357
vt 0.287665 0.955889
vt 0.302642 0.960876
vt 0.308089 0.946811
vt 0.293215 0.939977
vt 0.315019 0.935166
vt 0.299874 0.925743
vt 0.312343 0.905309
vt 0.327510 0.920083
vt 0.336035 0.908079
vt 0.321300 0.892213
vt 0.345171 0.896771
vt 0.330397 0.881003
vt 0.353647 0.863981
vt 0.364420 0.877646
vt 0.356024 0.887690
vt 0.342032 0.872257
vt 0.374724 0.870343
vt 0.365944 0.856563
vt 0.388137 0.862850
vt 0.380042 0.848619
vt 0.431707 0.900010
vt 0.423605 0.903147
vt 0.417606 0.880302
vt 0.429187 0.877535
vt 0.440772 0.898963
vt 0.441829 0.875713
vt 0.455947 0.903195
vt 0.462572 0.874363
vt 0.467200 0.907215
vt 0.474700 0.874262
vt 0.361844 0.987083
vt 0.362159 0.997147
vt 0.329946 0.996801
vt 0.331259 0.985322
vt 0.361296 0.972596
vt 0.334580 0.967946
vt 0.365605 0.964648
vt 0.337807 0.957137
vt 0.369353 0.957332
vt 0.342080 0.946685
vt 0.377011 0.950104
vt 0.347653 0.932673
vt 0.380667 0.941180
vt 0.353272 0.921441
vt 0.385282 0.935331
vt 0.360941 0.912047
vt 0.395604 0.921686
vt 0.390548 0.928991
vt 0.371325 0.905057
vt 0.380257 0.898872
vt 0.403986 0.917537
vt 0.387887 0.891140
vt 0.413359 0.911566
vt 0.399747 0.885181
vt 0.438592 0.947979
vt 0.429244 0.945431
vt 0.419034 0.941085
vt 0.413708 0.945157
vt 0.409985 0.949767
vt 0.406115 0.954001
vt 0.403446 0.958932
vt 0.404785 0.967066
vt 0.403757 0.975083
vt 0.404494 0.980914
vt 0.402702 0.986389
vt 0.397558 0.994073
vt 0.395375 0.999721
vt 0.463050 0.941143
vt 0.457400 0.938576
vt 0.448773 0.938303
vt 0.444106 0.945839
vt 0.401745 0.834440
vt 0.398773 0.828952
vt 0.415551 0.821690
vt 0.418135 0.829170
vt 0.434022 0.817267
vt 0.435304 0.824118
vt 0.461792 0.819192
vt 0.459948 0.812958
vt 0.476525 0.809614
vt 0.479509 0.816518
vt 0.271806 0.996566
vt 0.265676 0.992210
vt 0.270820 0.976458
vt 0.277108 0.979270
vt 0.283904 0.954325
vt 0.277417 0.952082
vt 0.284081 0.935669
vt 0.289669 0.938369
vt 0.291906 0.920510
vt 0.296286 0.923672
vt 0.308836 0.902153
vt 0.304500 0.899616
vt 0.313716 0.885790
vt 0.317697 0.888873
vt 0.323895 0.874314
vt 0.327083 0.877800
vt 0.338905 0.868798
vt 0.351341 0.860734
vt 0.335871 0.865032
vt 0.348338 0.856741
vt 0.361231 0.848722
vt 0.363853 0.853302
vt 0.376063 0.840545
vt 0.378114 0.845257
vt 0.429120 0.968391
vt 0.431618 0.963490
vt 0.440351 0.973474
vt 0.439454 0.980586
vt 0.447439 0.979062
vt 0.446395 0.972479
vt 0.452390 0.962656
vt 0.455516 0.968506
vt 0.421944 0.991619
vt 0.430658 0.987131
vt 0.431899 0.981850
vt 0.422496 0.969912
vt 0.424064 0.995874
vt 0.435958 0.988658
vt 0.042151 0.088546
vt 0.028483 0.087257
vt 0.016430 0.080589
vt 0.030468 0.002744
vt 0.046371 0.000000
vt 0.082465 0.018521
vt 0.088179 0.033799
vt 0.088256 0.049621
vt 0.079360 0.072088
vt 0.068475 0.083034
vt 0.055878 0.088544
vt 0.006542 0.068690
vt 0.062064 0.003892
vn -0.0625 -0.9960 0.0635
vn -0.0798 -0.9965 0.0268
vn -0.0903 -0.9959 -0.0114
vn -0.0011 -1.0000 0.0029
vn 0.5869 0.3987 -0.7047
vn 0.8866 0.2970 -0.3546
vn 0.9334 0.1334 -0.3332
vn 0.6604 0.1369 -0.7383
vn 0.0916 0.4128 -0.9062
vn 0.1040 0.2075 -0.9727
vn -0.2033 0.2551 -0.9453
vn -0.2158 0.4145 -0.8841
vn -0.5503 0.4473 -0.7051
vn -0.5447 0.2790 -0.7909
vn -0.7710 0.4636 -0.4365
vn -0.8470 0.2127 -0.4871
vn -0.9747 0.1842 -0.1270
vn -0.8760 0.4653 -0.1272
vn -0.8309 0.4334 0.3490
vn -0.8847 0.2128 0.4148
vn -0.6529 0.3685 0.6618
vn -0.6399 0.2462 0.7279
vn -0.3364 0.3397 0.8783
vn -0.3457 0.3771 0.8592
vn 0.2860 0.4231 0.8598
vn 0.1761 0.5437 0.8206
vn 0.3443 0.4702 0.8126
vn 0.3159 0.6505 0.6908
vn 0.5991 0.3748 0.7075
vn 0.4907 0.2215 0.8427
vn 0.1612 0.3601 0.9189
vn 0.3002 0.5978 0.7434
vn 0.9466 0.1367 0.2919
vn 0.9345 0.2021 0.2930
vn 0.9638 0.2043 -0.1714
vn 0.9820 0.1601 -0.1004
vn 0.5775 0.3126 -0.7542
vn 0.7761 0.2934 -0.5582
vn 0.8346 0.3440 -0.4302
vn 0.5682 0.4787 -0.6693
vn 0.3108 0.3095 -0.8987
vn 0.1612 0.4665 -0.8697
vn -0.0154 0.2764 -0.9609
vn -0.1653 0.4304 -0.8874
vn -0.6040 0.2242 -0.7648
vn -0.5938 0.4193 -0.6867
vn -0.9270 0.1836 -0.3270
vn -0.7982 0.4647 -0.3834
vn -0.9753 0.2090 -0.0709
vn -0.8609 0.4964 -0.1114
vn -0.9384 0.1972 0.2839
vn -0.8312 0.4689 0.2987
vn -0.7047 0.2249 0.6729
vn -0.6735 0.3956 0.6244
vn -0.3208 0.1956 0.9267
vn -0.2761 0.3436 0.8976
vn 0.0606 0.1238 0.9905
vn 0.2911 0.1981 0.9360
vn 0.1748 0.0688 0.9822
vn 0.2682 0.1101 0.9570
vn 0.4947 0.2362 0.8364
vn 0.2590 0.1064 0.9600
vn 0.1155 0.0819 0.9899
vn 0.4167 0.1568 0.8954
vn 0.8912 0.3661 0.2680
vn 0.9302 0.2188 0.2947
vn 0.8942 0.3296 -0.3030
vn 0.9309 0.2613 -0.2552
vn 0.7520 0.3248 -0.5736
vn 0.8961 0.3543 -0.2672
vn 0.9021 0.3835 0.1981
vn 0.6853 0.3366 0.6458
vn 0.3974 0.2907 0.8704
vn 0.0945 0.2415 0.9658
vn -0.1627 0.1968 0.9668
vn -0.3724 0.2231 0.9009
vn -0.6692 0.2049 0.7143
vn -0.9428 0.1723 0.2853
vn -0.9916 0.1154 -0.0590
vn -0.9263 0.1270 -0.3547
vn -0.5780 0.1976 -0.7918
vn -0.0411 0.2193 -0.9748
vn 0.3429 0.2337 -0.9098
vn 0.5358 0.2905 -0.7928
vn 0.7660 -0.5476 -0.3367
vn 0.0990 -0.9944 -0.0371
vn 0.0874 -0.9946 -0.0563
vn 0.5447 -0.5962 -0.5898
vn 0.0252 -0.9958 -0.0882
vn 0.1617 -0.6031 -0.7811
vn -0.1383 -0.6480 -0.7490
vn -0.0273 -0.9980 -0.0578
vn -0.0455 -0.9983 -0.0365
vn -0.4457 -0.6856 -0.5755
vn -0.0706 -0.9970 -0.0311
vn -0.6520 -0.6819 -0.3316
vn -0.7444 -0.6615 -0.0912
vn -0.7513 -0.5833 0.3086
vn -0.6119 -0.4287 0.6646
vn -0.3974 -0.3229 0.8590
vn -0.0376 -0.9967 0.0726
vn -0.0026 -0.9975 0.0708
vn -0.0071 -0.1982 0.9801
vn 0.0291 -0.9968 0.0744
vn 0.3553 -0.1474 0.9231
vn 0.5598 -0.2095 0.8017
vn 0.7270 -0.3127 0.6112
vn 0.0409 -0.9975 0.0569
vn 0.0609 -0.9968 0.0512
vn 0.0678 -0.9976 0.0172
vn 0.8832 -0.3889 0.2621
vn 0.0832 -0.9964 -0.0179
vn 0.8770 -0.4670 -0.1134
vn 0.4079 0.4777 0.7781
vn 0.8787 0.4482 0.1644
vn 0.7619 0.5565 -0.3313
vn 0.2828 0.8266 0.4867
vn -0.2705 0.7956 -0.5420
vn 0.3590 0.4281 -0.8293
vn 0.0646 0.3234 -0.9441
vn -0.4633 0.3485 -0.8148
vn -0.8996 0.2832 -0.3325
vn -0.8606 0.4654 0.2071
vn -0.4246 0.4741 0.7714
vn -0.0927 0.3737 0.9229
usemtl stalagmite6
s 1
f 9/1/1 8/2/2 7/3/3 125/4/4
f 74/5/5 60/6/6 16/7/7 17/8/8
f 73/9/9 74/5/5 17/8/8 18/10/10
f 19/11/11 72/12/12 73/9/9 18/10/10
f 71/13/13 72/12/12 19/11/11 20/14/14
f 70/15/15 71/16/13 20/17/14 21/18/16
f 22/19/17 69/20/18 70/15/15 21/18/16
f 68/21/19 69/20/18 22/19/17 23/22/20
f 67/23/21 68/21/19 23/22/20 24/24/22
f 25/25/23 66/26/24 67/23/21 24/24/22
f 65/27/25 66/26/24 25/25/23 26/28/26
f 64/29/27 65/27/25 26/28/26 27/30/28
f 28/31/29 63/32/30 121/33/31 124/34/32
f 62/35/33 63/32/30 28/31/29 29/36/34
f 61/37/35 62/35/33 29/36/34 30/38/36
f 16/7/7 60/6/6 61/37/35 30/38/36
f 100/39/37 101/40/38 75/41/39 76/42/40
f 99/43/41 100/39/37 76/42/40 77/44/42
f 98/45/43 99/43/41 77/44/42 78/46/44
f 97/47/45 98/45/43 78/46/44 79/48/46
f 96/49/47 97/50/45 79/51/46 80/52/48
f 95/53/49 96/49/47 80/52/48 81/54/50
f 94/55/51 95/53/49 81/54/50 82/56/52
f 93/57/53 94/55/51 82/56/52 83/58/54
f 92/59/55 93/57/53 83/58/54 84/60/56
f 91/61/57 92/59/55 84/60/56 85/62/58
f 90/63/59 91/61/57 85/62/58 86/64/60
f 104/65/61 122/66/62 123/67/63 87/68/64
f 103/69/65 104/65/61 87/68/64 88/70/66
f 102/71/67 103/69/65 88/70/66 89/72/68
f 75/41/39 101/40/38 102/71/67 89/72/68
f 101/40/38 45/73/69 31/74/70 102/71/67
f 31/74/70 32/75/71 103/69/65 102/71/67
f 32/75/71 33/76/72 104/65/61 103/69/65
f 104/65/61 33/76/72 58/77/73 122/66/62
f 34/78/74 35/79/75 91/61/57 90/63/59
f 35/79/75 36/80/76 92/59/55 91/61/57
f 92/59/55 36/80/76 37/81/77 93/57/53
f 37/81/77 38/82/78 94/55/51 93/57/53
f 38/82/78 39/83/79 95/53/49 94/55/51
f 95/53/49 39/83/79 40/84/80 96/49/47
f 40/84/80 41/85/81 97/50/45 96/49/47
f 41/86/81 42/87/82 98/45/43 97/47/45
f 98/45/43 42/87/82 43/88/83 99/43/41
f 43/88/83 44/89/84 100/39/37 99/43/41
f 44/89/84 45/73/69 101/40/38 100/39/37
f 106/90/85 1/91/86 2/92/87 105/93/88
f 106/90/85 105/93/88 17/8/8 16/7/7
f 105/93/88 2/92/87 3/94/89 107/95/90
f 105/93/88 107/95/90 18/10/10 17/8/8
f 19/11/11 18/10/10 107/95/90 108/96/91
f 107/95/90 3/94/89 4/97/92 108/96/91
f 108/96/91 4/97/92 5/98/93 109/99/94
f 108/96/91 109/99/94 20/14/14 19/11/11
f 109/100/94 5/101/93 6/102/95 110/103/96
f 109/100/94 110/103/96 21/18/16 20/17/14
f 22/19/17 21/18/16 110/103/96 111/104/97
f 110/103/96 6/102/95 7/105/3 111/104/97
f 111/104/97 7/105/3 8/106/2 112/107/98
f 111/104/97 112/107/98 23/22/20 22/19/17
f 112/107/98 8/106/2 9/108/1 113/109/99
f 112/107/98 113/109/99 24/24/22 23/22/20
f 25/25/23 24/24/22 113/109/99 114/110/100
f 113/109/99 9/108/1 10/111/101 114/110/100
f 114/110/100 10/111/101 11/112/102 115/113/103
f 114/110/100 115/113/103 26/28/26 25/25/23
f 115/113/103 11/112/102 12/114/104 116/115/105
f 115/113/103 116/115/105 27/30/28 26/28/26
f 28/31/29 124/34/32 117/116/106 118/117/107
f 117/116/106 59/118/108 13/119/109 118/117/107
f 118/117/107 13/119/109 14/120/110 119/121/111
f 118/117/107 119/121/111 29/36/34 28/31/29
f 119/121/111 14/120/110 15/122/112 120/123/113
f 119/121/111 120/123/113 30/38/36 29/36/34
f 106/90/85 16/7/7 30/38/36 120/123/113
f 106/90/85 120/123/113 15/122/112 1/91/86
f 57/124/114 58/77/73 33/76/72 46/125/115
f 57/124/114 46/125/115 47/126/116 56/127/117
f 55/128/118 56/127/117 47/126/116 48/129/119
f 49/130/120 43/88/83 42/87/82
f 54/131/121 55/128/118 48/129/119 49/130/120
f 46/125/115 33/76/72 32/75/71 31/74/70
f 46/125/115 31/74/70 45/73/69 47/126/116
f 48/129/119 47/126/116 45/73/69 44/89/84
f 40/84/80 39/83/79 50/132/122
f 50/132/122 39/83/79 38/82/78 51/133/123
f 51/133/123 38/82/78 37/81/77 52/134/124
f 52/134/124 37/81/77 36/80/76 53/135/125
f 53/135/125 36/80/76 35/79/75 34/78/74
f 48/129/119 44/89/84 43/88/83 49/130/120
f 49/130/120 42/87/82 41/86/81 54/131/121
f 54/136/121 41/85/81 40/84/80 50/132/122
f 54/136/121 50/132/122 51/133/123 55/137/118
f 55/137/118 51/133/123 52/134/124 56/127/117
f 57/124/114 56/127/117 52/134/124 53/135/125
f 57/124/114 53/135/125 34/78/74 58/77/73
f 58/77/73 34/78/74 90/63/59 122/66/62
f 123/67/63 122/66/62 90/63/59 86/64/60
f 124/34/32 121/33/31 64/29/27 27/30/28
f 124/34/32 27/30/28 116/115/105 117/116/106
f 116/115/105 12/114/104 59/118/108 117/116/106
f 76/42/40 75/41/39 60/6/6 74/5/5
f 77/44/42 76/42/40 74/5/5 73/9/9
f 72/12/12 78/46/44 77/44/42 73/9/9
f 79/48/46 78/46/44 72/12/12 71/13/13
f 80/52/48 79/51/46 71/16/13 70/15/15
f 69/20/18 81/54/50 80/52/48 70/15/15
f 82/56/52 81/54/50 69/20/18 68/21/19
f 83/58/54 82/56/52 68/21/19 67/23/21
f 66/26/24 84/60/56 83/58/54 67/23/21
f 85/62/58 84/60/56 66/26/24 65/27/25
f 86/64/60 85/62/58 65/27/25 64/29/27
f 123/67/63 86/64/60 64/29/27 121/33/31
f 63/32/30 87/68/64 123/67/63 121/33/31
f 88/70/66 87/68/64 63/32/30 62/35/33
f 89/72/68 88/70/66 62/35/33 61/37/35
f 60/6/6 75/41/39 89/72/68 61/37/35
f 59/138/108 12/139/104 11/140/102 125/4/4
f 7/3/3 6/141/95 5/142/93 125/4/4
f 3/143/89 2/144/87 1/145/86 125/4/4
f 1/145/86 15/146/112 14/147/110 125/4/4
f 14/147/110 13/148/109 59/138/108 125/4/4
f 125/4/4 11/140/102 10/149/101 9/1/1
f 5/142/93 4/150/92 3/143/89 125/4/4
