# Blender v2.78 (sub 0) OBJ File: 'fence01.blend'
# www.blender.org
mtllib mesh.mtl
o fence01_b_Cube.006
v 0.250000 0.499978 0.000000
v 0.250000 -0.499978 -0.000000
v -0.250000 0.499978 0.000000
v -0.250000 -0.499978 -0.000000
v 0.250000 0.000000 0.000000
v -0.250000 0.000000 0.000000
vt 0.7749 0.8311
vt 0.7749 0.0786
vt 0.0000 0.0786
vt 0.0000 0.8311
vt 0.0000 0.8311
vt 0.0000 0.0786
vt 0.7871 0.0786
vt 0.7871 0.8311
vn 0.0000 0.0000 -1.0000
usemtl Material
s off
f 6/1/1 5/2/1 2/3/1 4/4/1
f 3/5/1 1/6/1 5/7/1 6/8/1
