<?xml version="1.0" encoding="UTF-8" standalone="no"?>
<!-- Created with Inkscape (http://www.inkscape.org/) -->

<svg
   xmlns:dc="http://purl.org/dc/elements/1.1/"
   xmlns:cc="http://creativecommons.org/ns#"
   xmlns:rdf="http://www.w3.org/1999/02/22-rdf-syntax-ns#"
   xmlns:svg="http://www.w3.org/2000/svg"
   xmlns="http://www.w3.org/2000/svg"
   xmlns:sodipodi="http://sodipodi.sourceforge.net/DTD/sodipodi-0.dtd"
   xmlns:inkscape="http://www.inkscape.org/namespaces/inkscape"
   width="1000"
   height="1000"
   viewBox="0 0 999.9999880656118 999.9999880410413"
   id="svg2"
   version="1.1"
   inkscape:version="0.91 r13725"
   sodipodi:docname="AbstraktSonnenlicht-c.svg">
  <sodipodi:namedview
     id="base"
     pagecolor="#000000"
     bordercolor="#666666"
     borderopacity="1.0"
     inkscape:pageopacity="0"
     inkscape:pageshadow="2"
     inkscape:zoom="0.6999999996306452"
     inkscape:cx="125.1185472816777"
     inkscape:cy="485.9047230643851"
     inkscape:document-units="px"
     inkscape:current-layer="layer1"
     showgrid="false"
     units="px"
     showguides="true"
     inkscape:object-paths="false"
     inkscape:snap-intersection-paths="true"
     inkscape:snap-grids="true"
     inkscape:snap-to-guides="true"
     inkscape:snap-bbox="false" />
  <defs
     id="defs4" />
  <metadata
     id="metadata7">
    <rdf:RDF>
      <cc:Work
         rdf:about="">
        <dc:format>image/svg+xml</dc:format>
        <dc:type
           rdf:resource="http://purl.org/dc/dcmitype/StillImage" />
        <dc:title></dc:title>
      </cc:Work>
    </rdf:RDF>
  </metadata>
  <g
     style="display:inline"
     transform="translate(0,-52.36228930856214)"
     id="layer1"
     inkscape:groupmode="layer"
     inkscape:label="Ebene 1">
    <rect
       inkscape:export-ydpi="90"
       inkscape:export-xdpi="90"
       rx="62"
       ry="62"
       y="97.59736633300781"
       x="45.23507690429688"
       height="909.5298461914062"
       width="909.5298461914062"
       id="rect4008"
       style="opacity:1;fill:none;fill-opacity:1;fill-rule:evenodd;stroke:#ffffff;stroke-width:40.4701728821;stroke-linecap:butt;stroke-linejoin:miter;stroke-miterlimit:4;stroke-dasharray:none;stroke-opacity:1" />
    <circle
       r="150"
       cy="552.3623046875"
       cx="500"
       id="path4149"
       style="opacity:1;fill:#ffffff;fill-opacity:1;stroke:none;stroke-width:41.1730003357;stroke-miterlimit:4;stroke-dasharray:none;stroke-opacity:1" />
    <path
       sodipodi:nodetypes="caaaaaaac"
       inkscape:connector-curvature="0"
       id="path4157-3-2-6"
       d="m 177.5378730075811,874.8244107837025 c 0,0 19.4825979749843,-9.4848478725149 27.004047376,-17.007610123562 7.5214175546547,-7.5227303991271 11.3351453774069,-18.0046454575464 17.002824796,-27.0069009914379 5.6679872445631,-9.0027444691038 9.4822955341919,-19.4850136299794 17.004175204,-27.0080990085621 7.5214397372776,-7.5226453755336 18.0025082799928,-11.3383725597436 27.003793756,-17.0075090854377 9.0013811905596,-5.6691968080687 19.4826874473129,-9.4847646283372 27.004206244,-17.0074909145623 7.521950627651,-7.5231581865143 11.3360464188807,-18.0056839073882 17.00413204,-27.008486567438 5.6679143802588,-9.0025306726844 9.4821406721714,-19.4845864395554 17.00386796,-27.0075134325618 7.5212610529586,-7.5224606837727 27.003127317,-17.007120808438 27.003127317,-17.007120808438"
       style="display:inline;opacity:1;fill:none;fill-opacity:0.3921568627;stroke:#ffffff;stroke-width:15;stroke-linecap:round;stroke-linejoin:miter;stroke-miterlimit:4;stroke-dasharray:none;stroke-opacity:1" />
    <path
       sodipodi:nodetypes="caaaaac"
       inkscape:connector-curvature="0"
       id="path4157-6"
       d="m 706.3366360679998,552.3622893089999 c 0,0 18.1679274226614,-5.000042535985 27.477497621,-5.0000000004378 9.3091027140448,4.25334113e-5 18.3173786249355,3.3333487188223 27.4760721370002,5.0000000004378 9.158862603576,1.6666820520068 18.1673216274644,4.9999749798828 27.4765962099999,4.9999999995622 9.3095495730427,2.50204182e-5 18.3182965385496,-3.3332964080987 27.4774347289998,-4.9999999995622 9.1587323694008,-1.666629743533 18.1670398633676,-5.0000000004676 27.4761769510003,-5.0000000004378 9.3091370873047,2.98e-11 27.47617695,5.0000000004378 27.47617695,5.0000000004378"
       style="display:inline;opacity:1;fill:none;fill-opacity:0.3921568627;stroke:#ffffff;stroke-width:15;stroke-linecap:round;stroke-linejoin:miter;stroke-miterlimit:4;stroke-dasharray:none;stroke-opacity:1" />
    <path
       sodipodi:nodetypes="caaaaac"
       inkscape:connector-curvature="0"
       id="path4157-6-5"
       d="m 128.8000164218373,552.3622893080374 c 0,0 18.1679274226613,5.0000425359851 27.477497621,5.0000000004378 9.3091027140448,-4.25334113e-5 18.3173786249354,-3.3333487188222 27.4760721370001,-5.0000000004378 9.1588626035759,-1.6666820520068 18.1673216274644,-4.9999749798825 27.4765962099999,-4.9999999995622 9.3095495730427,-2.50204182e-5 18.3182965385496,3.3332964080988 27.4774347289999,4.9999999995622 9.1587323694007,1.666629743533 18.1670398633675,5.0000000004676 27.4761769510003,5.0000000004378 9.3091370873047,-2.99e-11 27.4761769499999,-5.0000000004378 27.4761769499999,-5.0000000004378"
       style="display:inline;opacity:1;fill:none;fill-opacity:0.3921568627;stroke:#ffffff;stroke-width:15;stroke-linecap:round;stroke-linejoin:miter;stroke-miterlimit:4;stroke-dasharray:none;stroke-opacity:1" />
    <path
       sodipodi:nodetypes="caaaaaaac"
       inkscape:connector-curvature="0"
       id="path4157-3-2-6-6"
       d="m 177.5381175182903,229.9453792815747 c 0,0 19.4825979749844,9.4848478725148 27.0040473759999,17.0076101235618 7.5214175546549,7.5227303991274 11.3351453774071,18.0046454575462 17.0028247960001,27.0069009914376 5.6679872445632,9.0027444691037 9.482295534192,19.4850136299796 17.0041752039999,27.0080990085622 7.5214397372778,7.5226453755339 18.002508279993,11.3383725597437 27.0037937560003,17.0075090854378 9.0013811905594,5.6691968080685 19.4826874473129,9.4847646283371 27.0042062440002,17.007490914562 7.5219506276509,7.5231581865144 11.3360464188806,18.0056839073885 17.0041320399998,27.0084865674381 5.6679143802588,9.0025306726846 9.4821406721716,19.4845864395556 17.0038679599999,27.0075134325619 7.5212610529588,7.5224606837724 27.0031273170002,17.0071208084376 27.0031273170002,17.0071208084376"
       style="display:inline;opacity:1;fill:none;fill-opacity:0.3921568627;stroke:#ffffff;stroke-width:15;stroke-linecap:round;stroke-linejoin:miter;stroke-miterlimit:4;stroke-dasharray:none;stroke-opacity:1" />
    <path
       sodipodi:nodetypes="caaaaaaac"
       inkscape:connector-curvature="0"
       id="path4157-3-2-6-6-8"
       d="m 646.4521162024392,406.0061102135653 c 0,0 19.4825979749844,-9.4848478725148 27.0040473759999,-17.0076101235618 7.5214175546547,-7.5227303991277 11.3351453774069,-18.0046454575463 17.0028247960003,-27.0069009914375 5.6679872445632,-9.002744469104 9.4822955341918,-19.4850136299797 17.0041752039998,-27.0080990085626 7.5214397372777,-7.5226453755339 18.0025082799931,-11.3383725597433 27.0037937560002,-17.0075090854377 9.0013811905593,-5.6691968080685 19.4826874473131,-9.4847646283371 27.0042062440003,-17.0074909145618 7.5219506276508,-7.5231581865145 11.3360464188806,-18.005683907389 17.0041320399998,-27.0084865674385 5.6679143802588,-9.0025306726844 9.4821406721717,-19.4845864395554 17.00386796,-27.0075134325617 7.5212610529586,-7.5224606837725 27.003127317,-17.0071208084377 27.003127317,-17.0071208084377"
       style="display:inline;opacity:1;fill:none;fill-opacity:0.3921568627;stroke:#ffffff;stroke-width:15;stroke-linecap:round;stroke-linejoin:miter;stroke-miterlimit:4;stroke-dasharray:none;stroke-opacity:1" />
    <path
       sodipodi:nodetypes="caaaaac"
       inkscape:connector-curvature="0"
       id="path4157-6-2"
       d="m 499.9999999994755,346.0292728867253 c 0,0 5.000042535985,-18.1679274226614 5.0000000004378,-27.477497621 -4.25334115e-5,-9.3091027140448 -3.3333487188222,-18.3173786249355 -5.0000000004378,-27.4760721370002 -1.6666820520069,-9.1588626035758 -4.9999749798825,-18.1673216274642 -4.9999999995622,-27.4765962099999 -2.50204182e-5,-9.3095495730428 3.3332964080987,-18.3182965385496 4.9999999995622,-27.4774347289998 1.666629743533,-9.1587323694007 5.0000000004677,-18.1670398633677 5.0000000004378,-27.4761769510003 -2.98e-11,-9.309137087305 -5.0000000004378,-27.4761769500001 -5.0000000004378,-27.4761769500001"
       style="display:inline;opacity:1;fill:none;fill-opacity:0.3921568627;stroke:#ffffff;stroke-width:15;stroke-linecap:round;stroke-linejoin:miter;stroke-miterlimit:4;stroke-dasharray:none;stroke-opacity:1" />
    <path
       sodipodi:nodetypes="caaaaac"
       inkscape:connector-curvature="0"
       id="path4157-6-2-4"
       d="m 500.0000000005246,923.5622728867256 c 0,0 -5.0000425359851,-18.1679274226617 -5.000000000438,-27.4774976210001 4.25334114e-5,-9.3091027140447 3.3333487188224,-18.3173786249355 5.000000000438,-27.4760721370002 1.6666820520066,-9.1588626035758 4.9999749798823,-18.1673216274644 4.9999999995619,-27.4765962099999 2.50204185e-5,-9.3095495730429 -3.3332964080985,-18.3182965385496 -4.9999999995619,-27.4774347289998 -1.6666297435332,-9.1587323694007 -5.000000000468,-18.1670398633677 -5.000000000438,-27.4761769510003 2.97e-11,-9.3091370873051 5.000000000438,-27.4761769500001 5.000000000438,-27.4761769500001"
       style="display:inline;opacity:1;fill:none;fill-opacity:0.3921568627;stroke:#ffffff;stroke-width:15;stroke-linecap:round;stroke-linejoin:miter;stroke-miterlimit:4;stroke-dasharray:none;stroke-opacity:1" />
    <path
       sodipodi:nodetypes="caaaaaaac"
       inkscape:connector-curvature="0"
       id="path4157-3-2-6-0"
       d="m 822.482291886714,874.8241108802709 c 0,0 -19.4825979749844,-9.484847872515 -27.004047376,-17.0076101235619 -7.5214175546547,-7.5227303991273 -11.3351453774069,-18.0046454575466 -17.002824796,-27.0069009914381 -5.6679872445631,-9.0027444691038 -9.482295534192,-19.4850136299798 -17.0041752040001,-27.008099008562 -7.5214397372774,-7.5226453755339 -18.0025082799928,-11.3383725597439 -27.0037937559998,-17.0075090854382 -9.0013811905598,-5.6691968080687 -19.4826874473131,-9.4847646283372 -27.004206244,-17.0074909145619 -7.521950627651,-7.5231581865146 -11.3360464188809,-18.0056839073884 -17.0041320400002,-27.0084865674379 -5.6679143802588,-9.0025306726849 -9.4821406721713,-19.4845864395556 -17.0038679599998,-27.0075134325623 -7.5212610529587,-7.5224606837727 -27.0031273170001,-17.007120808438 -27.0031273170001,-17.007120808438"
       style="display:inline;opacity:1;fill:none;fill-opacity:0.3921568627;stroke:#ffffff;stroke-width:15;stroke-linecap:round;stroke-linejoin:miter;stroke-miterlimit:4;stroke-dasharray:none;stroke-opacity:1" />
  </g>
</svg>
