# Blender v2.78 (sub 0) OBJ File: 'fence01.blend'
# www.blender.org
mtllib mesh.mtl
o fence01_gate_Cube.011
v 0.112594 0.027398 -0.014901
v 0.112594 0.053846 -0.014901
v 0.112594 0.027398 -0.028190
v 0.112594 0.053846 -0.028190
v 0.202004 0.027398 -0.014901
v 0.202004 0.053846 -0.014901
v 0.202004 0.027398 -0.028190
v 0.202004 0.053846 -0.028190
v -0.180000 -0.436500 0.010099
v 0.225000 -0.090312 0.010099
v 0.202500 -0.090507 0.010099
v 0.225000 0.089001 0.010099
v 0.202500 0.089093 0.010099
v -0.180000 0.436500 0.010099
v -0.202500 0.449980 0.010099
v 0.225000 -0.449980 0.010099
v 0.225000 0.089001 0.014900
v 0.090342 0.089093 0.014901
v 0.089861 -0.090507 0.014901
v 0.225000 -0.090312 0.014900
v 0.225000 0.449980 0.010099
v -0.202500 -0.449980 0.010099
v 0.225000 0.089001 -0.014901
v 0.090342 0.089093 -0.014900
v 0.202500 -0.436500 0.010099
v 0.202500 0.436500 0.010099
v -0.202500 -0.449980 -0.009901
v -0.202500 0.449980 -0.009901
v 0.225000 -0.449980 -0.009901
v 0.202500 -0.436500 -0.009901
v 0.225000 0.449980 -0.009901
v -0.180000 -0.436500 -0.009901
v -0.180000 0.436500 -0.009901
v 0.202500 0.436500 -0.009901
v 0.202500 0.089093 -0.009901
v 0.225000 0.089001 -0.009901
v 0.202500 -0.090507 -0.009901
v 0.225000 -0.090312 -0.009901
v -0.202500 0.337500 -0.008901
v -0.202500 0.292500 -0.008901
v -0.202500 0.337500 0.009099
v -0.202500 0.292500 0.009099
v -0.225000 0.337500 -0.003227
v -0.219893 0.337500 -0.008901
v -0.219893 0.292500 -0.008901
v -0.225000 0.292500 -0.003227
v -0.219893 0.337500 0.009099
v -0.225000 0.337500 0.003424
v -0.225000 0.292500 0.003424
v -0.219893 0.292500 0.009099
v -0.202500 -0.292500 -0.008901
v -0.202500 -0.337500 -0.008901
v -0.202500 -0.292500 0.009099
v -0.202500 -0.337500 0.009099
v -0.225000 -0.292500 -0.003227
v -0.219893 -0.292500 -0.008901
v -0.219893 -0.337500 -0.008901
v -0.225000 -0.337500 -0.003227
v -0.219893 -0.292500 0.009099
v -0.225000 -0.292500 0.003424
v -0.225000 -0.337500 0.003424
v -0.219893 -0.337500 0.009099
v -0.180000 -0.000000 0.000000
v -0.180000 0.436500 0.000000
v -0.180000 -0.436500 -0.000000
v 0.202500 -0.000000 0.000000
v 0.202500 0.436500 0.000000
v 0.202500 -0.436500 0.000000
v 0.089861 -0.090507 -0.014900
v 0.225000 -0.090312 -0.014901
v 0.112594 0.027398 0.014901
v 0.112594 0.053846 0.014901
v 0.112594 0.027398 0.028191
v 0.112594 0.053846 0.028191
v 0.202004 0.027398 0.014901
v 0.202004 0.053846 0.014901
v 0.202004 0.027398 0.028191
v 0.202004 0.053846 0.028191
vt 0.9976 0.0249
vt 0.7285 0.0249
vt 0.7285 0.0142
vt 0.9976 0.0142
vt 0.0117 0.9961
vt 0.0117 0.9844
vt 0.5352 0.9844
vt 0.5352 0.9961
vt 0.7578 0.8594
vt 0.7578 0.9785
vt 0.6680 0.9785
vt 0.6680 0.8589
vt 0.4365 0.0171
vt 0.2285 0.0171
vt 0.2285 0.0063
vt 0.4365 0.0063
vt 0.7417 0.0059
vt 0.9839 0.0059
vt 0.6680 0.8413
vt 0.7578 0.8413
vt 0.7578 0.9961
vt 0.6680 0.9961
vt 0.7109 0.0127
vt 0.7109 0.0234
vt 0.4688 0.0234
vt 0.4688 0.0127
vt 0.2168 0.0420
vt 0.0020 0.0420
vt 0.0020 0.0312
vt 0.2168 0.0312
vt 0.2285 0.0415
vt 0.2285 0.0308
vt 0.4443 0.0308
vt 0.4443 0.0415
vt 0.2168 0.0068
vt 0.2168 0.0176
vt 0.0103 0.0176
vt 0.0103 0.0068
vt 0.2168 0.0552
vt 0.0103 0.0552
vt 0.7241 0.0317
vt 0.7241 0.0425
vt 0.4551 0.0425
vt 0.4551 0.0317
vt 0.4688 0.0503
vt 0.7109 0.0503
vt 0.4365 0.0547
vt 0.2285 0.0547
vt 0.7754 0.8594
vt 0.7754 0.9785
vt 0.5610 0.9790
vt 0.5601 0.8599
vt 0.6499 0.8589
vt 0.6504 0.9785
vt 0.5430 0.9609
vt 0.0039 0.9609
vt 0.0117 0.9453
vt 0.5352 0.9453
vt 0.7417 0.0327
vt 0.9839 0.0327
vt 0.9839 0.0435
vt 0.7417 0.0435
vt 0.0039 0.9688
vt 0.5430 0.9688
vt 0.4971 0.8721
vt 0.4971 0.8442
vt 0.4258 0.8442
vt 0.4258 0.8721
vt 0.5327 0.9009
vt 0.5327 0.8755
vt 0.5054 0.8755
vt 0.4971 0.8833
vt 0.4971 0.8931
vt 0.5054 0.9009
vt 0.4258 0.8931
vt 0.4258 0.8833
vt 0.4180 0.8755
vt 0.3901 0.8755
vt 0.3901 0.9009
vt 0.4180 0.9009
vt 0.4971 0.9316
vt 0.4971 0.9043
vt 0.4258 0.9043
vt 0.4258 0.9316
vt 0.4971 0.8721
vt 0.4971 0.8442
vt 0.4258 0.8442
vt 0.4258 0.8721
vt 0.5327 0.9009
vt 0.5327 0.8755
vt 0.5054 0.8755
vt 0.4971 0.8833
vt 0.4971 0.8931
vt 0.5054 0.9009
vt 0.4258 0.8931
vt 0.4258 0.8833
vt 0.4180 0.8755
vt 0.3901 0.8755
vt 0.3901 0.9009
vt 0.4180 0.9009
vt 0.4971 0.9316
vt 0.4971 0.9043
vt 0.4258 0.9043
vt 0.4258 0.9316
vt 0.0228 0.7931
vt 0.7749 0.7932
vt 0.7749 0.1162
vt 0.0233 0.1160
vt 0.7871 0.7932
vt 0.0215 0.7933
vt 0.0215 0.1164
vt 0.7871 0.1162
vt 0.0078 0.9102
vt 0.0078 0.8633
vt 0.0312 0.8633
vt 0.0312 0.9102
vt 0.1836 0.8633
vt 0.1836 0.9102
vt 0.2070 0.8633
vt 0.2070 0.9102
vt 0.1836 0.9336
vt 0.0312 0.9336
vt 0.0312 0.8398
vt 0.1836 0.8398
vt 0.0078 0.9102
vt 0.0078 0.8633
vt 0.0312 0.8633
vt 0.0312 0.9102
vt 0.1836 0.8633
vt 0.1836 0.9102
vt 0.2070 0.8633
vt 0.2070 0.9102
vt 0.1836 0.9336
vt 0.0312 0.9336
vt 0.0312 0.8398
vt 0.1836 0.8398
vn 0.0000 1.0000 0.0000
vn 1.0000 0.0000 0.0000
vn 0.0000 -0.0000 1.0000
vn -1.0000 0.0000 0.0000
vn 0.0014 -1.0000 -0.0000
vn 0.0007 1.0000 -0.0000
vn 0.0000 -1.0000 0.0000
vn -0.0000 0.0000 -1.0000
vn -1.0000 0.0027 0.0000
vn -0.7433 0.0000 0.6690
vn -0.7433 0.0000 -0.6690
usemtl Material
s off
f 31/1/1 28/2/1 15/3/1 21/4/1
f 9/5/2 32/6/2 33/7/2 14/8/2
f 20/9/3 17/10/3 18/11/3 19/12/3
f 34/13/4 35/14/4 13/15/4 26/16/4
f 15/3/3 14/17/3 26/18/3 21/4/3
f 20/9/5 19/12/5 69/19/5 70/20/5
f 18/11/6 17/10/6 23/21/6 24/22/6
f 25/23/1 30/24/1 32/25/1 9/26/1
f 10/27/2 16/28/2 29/29/2 38/30/2
f 12/31/2 36/32/2 31/33/2 21/34/2
f 11/35/4 37/36/4 30/37/4 25/38/4
f 16/28/3 10/27/3 11/39/3 25/40/3
f 29/41/7 16/42/7 22/43/7 27/44/7
f 9/45/3 22/43/3 16/42/3 25/46/3
f 12/31/3 21/34/3 26/47/3 13/48/3
f 70/49/2 23/50/2 17/10/2 20/9/2
f 23/51/8 70/52/8 69/53/8 24/54/8
f 15/55/3 22/56/3 9/57/3 14/58/3
f 33/59/7 34/60/7 26/61/7 14/62/7
f 27/44/8 32/25/8 30/24/8 29/41/8
f 27/63/8 28/64/8 33/7/8 32/6/8
f 29/29/8 30/37/8 37/36/8 38/30/8
f 31/33/8 36/32/8 35/14/8 34/13/8
f 28/2/8 31/1/8 34/60/8 33/59/8
f 28/64/4 27/63/4 22/56/4 15/55/4
f 24/54/9 69/53/9 19/12/9 18/11/9
f 44/65/8 39/66/8 40/67/8 45/68/8
f 41/69/1 39/70/1 44/71/1 43/72/1 48/73/1 47/74/1
f 49/75/7 46/76/7 45/77/7 40/78/7 42/79/7 50/80/7
f 41/81/3 47/82/3 50/83/3 42/84/3
f 49/75/10 50/83/10 47/82/10 48/73/10
f 45/68/11 46/76/11 43/72/11 44/65/11
f 48/73/4 43/72/4 46/76/4 49/75/4
f 56/85/8 51/86/8 52/87/8 57/88/8
f 53/89/1 51/90/1 56/91/1 55/92/1 60/93/1 59/94/1
f 61/95/7 58/96/7 57/97/7 52/98/7 54/99/7 62/100/7
f 53/101/3 59/102/3 62/103/3 54/104/3
f 61/95/10 62/103/10 59/102/10 60/93/10
f 57/88/11 58/96/11 55/92/11 56/85/11
f 60/93/4 55/92/4 58/96/4 61/95/4
f 65/105/8 63/106/8 66/107/8 68/108/8
f 63/109/8 64/110/8 67/111/8 66/112/8
usemtl Material_NONE
f 1/113/4 2/114/4 4/115/4 3/116/4
f 3/116/8 4/115/8 8/117/8 7/118/8
f 7/118/2 8/117/2 6/119/2 5/120/2
f 3/116/7 7/118/7 5/121/7 1/122/7
f 8/117/1 4/115/1 2/123/1 6/124/1
f 71/125/2 72/126/2 74/127/2 73/128/2
f 73/128/8 74/127/8 78/129/8 77/130/8
f 77/130/4 78/129/4 76/131/4 75/132/4
f 73/128/1 77/130/1 75/133/1 71/134/1
f 78/129/7 74/127/7 72/135/7 76/136/7
