# Exported from Wings 3D 2.1.5
mtllib windowcorner.mtl
o Torus6
#105 vertices, 76 faces
v -68.00000000 0.0000000e+0 8.3275982e-15
v -52.00000000 -9.7971744e-16 6.3681634e-15
v -53.07179677 4.00000000 6.4994206e-15
v -56.00000000 6.92820323 6.8580221e-15
v -60.00000000 8.00000000 7.3478808e-15
v -64.00000000 6.92820323 7.8377395e-15
v -66.92820323 4.00000000 8.1963410e-15
v -51.00083458 -9.7971744e-16 -10.14469674
v -52.05203708 4.00000000 -10.35379392
v -54.92397570 6.92820323 -10.92505803
v -58.84711682 8.00000000 -11.70541932
v -62.77025795 6.92820323 -12.48578061
v -65.64219657 4.00000000 -13.05704472
v -48.04173569 -9.7971744e-16 -19.89953848
v -49.03194679 4.00000000 -20.30969735
v -51.73725382 6.92820323 -21.43027221
v -55.43277195 8.00000000 -22.96100594
v -59.12829008 6.92820323 -24.49173967
v -61.83359711 4.00000000 -25.61231453
v -43.23641984 -9.7971744e-16 -28.88965212
v -44.12758628 4.00000000 -29.48511050
v -46.56229829 6.92820323 -31.11193305
v -49.88817674 8.00000000 -33.33421398
v -53.21405519 6.92820323 -35.55649491
v -55.64876719 4.00000000 -37.18331746
v -36.76955262 -9.7971744e-16 -36.76955262
v -37.52742739 4.00000000 -37.52742739
v -39.59797975 6.92820323 -39.59797975
v -42.42640687 8.00000000 -42.42640687
v -45.25483400 6.92820323 -45.25483400
v -47.32538636 4.00000000 -47.32538636
v -28.88965212 -9.7971744e-16 -43.23641984
v -29.48511050 4.00000000 -44.12758628
v -31.11193305 6.92820323 -46.56229829
v -33.33421398 8.00000000 -49.88817674
v -35.55649491 6.92820323 -53.21405519
v -37.18331746 4.00000000 -55.64876719
v -19.89953848 -9.7971744e-16 -48.04173569
v -20.30969735 4.00000000 -49.03194679
v -21.43027221 6.92820323 -51.73725382
v -22.96100594 8.00000000 -55.43277195
v -24.49173967 6.92820323 -59.12829008
v -25.61231453 4.00000000 -61.83359711
v -10.14469674 -9.7971744e-16 -51.00083458
v -10.35379392 4.00000000 -52.05203708
v -10.92505803 6.92820323 -54.92397570
v -11.70541932 8.00000000 -58.84711682
v -12.48578061 6.92820323 -62.77025795
v -13.05704472 4.00000000 -65.64219657
v -1.2491397e-14 0.0000000e+0 -68.00000000
v -9.5522450e-15 -9.7971744e-16 -52.00000000
v -9.7491309e-15 4.00000000 -53.07179677
v -1.0287033e-14 6.92820323 -56.00000000
v -1.1021821e-14 8.00000000 -60.00000000
v -1.1756609e-14 6.92820323 -64.00000000
v -1.2294511e-14 4.00000000 -66.92820323
v 60.00000000 4.00000000 -66.92820323
v 60.00000000 6.92820323 -64.00000000
v 60.00000000 8.00000000 -60.00000000
v 60.00000000 6.92820323 -56.00000000
v 60.00000000 4.00000000 -53.07179677
v 60.00000000 -9.7971744e-16 -52.00000000
v -52.00000000 -9.7971744e-16 60.00000000
v -53.07179677 4.00000000 60.00000000
v -56.00000000 6.92820323 60.00000000
v -60.00000000 8.00000000 60.00000000
v -64.00000000 6.92820323 60.00000000
v -66.92820323 4.00000000 60.00000000
v -76.28220944 -1.1899335e-15 9.5488224e-15
v -76.28220944 -1.1899335e-15 60.00000000
v -74.65560984 6.07055236 60.00000000
v -74.65560984 6.07055236 9.3357586e-15
v -1.3712622e-14 -1.1899335e-15 -76.28220944
v 60.00000000 -1.1899335e-15 -76.28220944
v -1.3433929e-14 6.07055236 -74.65560984
v 60.00000000 6.07055236 -74.65560984
v -76.23967565 -9.5133412e-16 -0.81153722
v -74.62087605 6.06124547 -0.75766214
v -74.85314528 6.4695409e-15 -14.88921633
v -73.25534343 6.07990127 -14.57139379
v -70.51012107 7.0972301e-15 -29.20624843
v -69.00502464 6.07990127 -28.58281708
v -63.45743246 1.8925947e-14 -42.40090078
v -62.10288146 6.07990127 -41.49581874
v -53.96611030 -9.9181752e-15 -53.96611030
v -52.81415936 6.07990127 -52.81415936
v -42.40090078 0.0000000e+0 -63.45743246
v -41.49581874 6.07990127 -62.10288146
v -29.20624843 -9.4629735e-15 -70.51012107
v -28.58281708 6.07990127 -69.00502464
v -14.88921633 7.1321518e-16 -74.85314528
v -14.57139379 6.07990127 -73.25534343
v -0.81153722 -1.1891676e-15 -76.23967565
v -0.75766214 6.06124547 -74.62087605
v -68.00000000 0.0000000e+0 8.3275982e-15
v -66.92820323 4.00000000 8.1963410e-15
v -65.64219657 4.00000000 -13.05704472
v -61.83359711 4.00000000 -25.61231453
v -55.64876719 4.00000000 -37.18331746
v -47.32538636 4.00000000 -47.32538636
v -37.18331746 4.00000000 -55.64876719
v -25.61231453 4.00000000 -61.83359711
v -13.05704472 4.00000000 -65.64219657
v -1.2491397e-14 0.0000000e+0 -68.00000000
v -1.2294511e-14 4.00000000 -66.92820323
vt 7.9040469e-3 9.4844844e-2
vt 4.3483656e-2 8.3162546e-2
vt 8.8775351e-2 6.8295570e-2
vt 9.1220364e-2 3.5895025e-2
vt 0.11471004 2.9013322e-2
vt 0.11944152 0.43452149
vt 0.12108149 0.43917187
vt 0.13820056 2.2131892e-2
vt 0.15058857 0.51806027
vt 0.15497489 0.42277549
vt 0.15632486 0.42699918
vt 0.16169176 1.5249489e-2
vt 0.18419953 0.50303185
vt 0.18518383 8.3638458e-3
vt 0.19094052 0.37623511
vt 0.19178992 0.59685133
vt 0.20027261 0.40798508
vt 0.20086205 0.41077096
vt 0.20867587 1.4736946e-3
vt 0.21438441 0.36937538
vt 0.21769083 0.44806992
vt 0.22324288 0.57770868
vt 0.22724879 0.48413583
vt 0.23790550 0.36263742
vt 0.23972726 0.43808951
vt 0.24289810 0.66995218
vt 0.25403079 0.51550686
vt 0.26150087 0.35586851
vt 0.26192984 0.42803295
vt 0.26339949 0.55322698
vt 0.27174311 0.64679033
vt 0.27452716 0.50256595
vt 0.28448103 0.41778812
vt 0.28508441 0.34894742
vt 0.29518315 0.48948342
vt 0.29941668 0.57762880
vt 0.30343446 0.73628473
vt 0.30719278 0.40740893
vt 0.30851466 0.61712152
vt 0.30851956 0.34185563
vt 0.31619068 0.47612889
vt 0.31804851 0.56191985
vt 0.32912697 0.70928008
vt 0.32945282 0.39716614
vt 0.33271869 0.70558519
vt 0.33681715 0.54604052
vt 0.33736828 0.46259817
vt 0.35321319 0.63333721
vt 0.35590577 0.52982962
vt 0.35810670 0.44926215
vt 0.36200292 0.67488565
vt 0.36957170 0.61506137
vt 0.37244996 0.79301466
vt 0.37515528 0.51340533
vt 0.38605404 0.59664719
vt 0.39395438 0.76333506
vt 0.39401628 0.49721437
vt 0.40283887 0.57789506
vt 0.41451926 0.68065590
vt 0.41981674 0.55892726
vt 0.42165360 0.72560514
vt 0.42807564 0.66040395
vt 0.43654478 0.54023858
vt 0.44178625 0.63999724
vt 0.44705244 0.83966442
vt 0.45579109 0.61923590
vt 0.46431810 0.80784788
vt 0.46999025 0.59829110
vt 0.48127130 0.71890742
vt 0.48400039 0.57775820
vt 0.48652491 0.76730053
vt 0.49187075 0.69710788
vt 0.50259332 0.67513405
vt 0.51354744 0.65278081
vt 0.52465789 0.63023910
vt 0.52619848 0.87603985
vt 0.53562331 0.60815537
vt 0.53925138 0.84251582
vt 0.55230738 0.74758162
vt 0.55569782 0.79961304
vt 0.55979442 0.72457820
vt 0.56733880 0.70140125
vt 0.57503183 0.67785704
vt 0.58284066 0.65413841
vt 0.59056380 0.63088379
vt 0.60437890 0.90089623
vt 0.60891922 0.90223270
vt 0.61469632 0.86615136
vt 0.61890282 0.86729800
vt 0.62665594 0.76623933
vt 0.62830914 0.82193196
vt 0.63088602 0.74218152
vt 0.63155206 0.82284420
vt 0.63498654 0.71806042
vt 0.63910962 0.69386208
vt 0.64338527 0.66965870
vt 0.64784695 0.64558396
vt 0.94231606 0.99722966
vt 0.95226716 0.96230838
vt 0.96493491 0.91785692
vt 0.97592349 0.82778335
vt 0.98017034 0.80367760
vt 0.98441684 0.77957104
vt 0.98866422 0.75546371
vt 0.99291473 0.73135515
vt 0.99716972 0.70724612
vn 0.0000000e+0 0.0000000e+0 0.0000000e+0
vn 0.96483978 0.25852804 4.7407186e-2
vn 0.86517218 0.49966830 4.2528831e-2
vn 0.49972746 0.86583368 2.4586572e-2
vn 3.3050256e-16 1.00000000 1.5594293e-17
vn -0.49972746 0.86583368 -2.4586572e-2
vn -0.25842991 0.96582163 -2.0063976e-2
vn 0.94736583 0.25881905 0.18844278
vn 0.84924790 0.50024198 0.16892591
vn 0.49015428 0.86616567 9.7497748e-2
vn 4.8146235e-16 1.00000000 1.2934809e-16
vn -0.49015428 0.86616567 -9.7497748e-2
vn -0.69351992 0.70710678 -0.13794969
vn 0.89239910 0.25881905 0.36964381
vn 0.79997403 0.50024198 0.33136009
vn 0.46171523 0.86616567 0.19124871
vn 4.9583436e-16 1.00000000 2.3713817e-16
vn -0.46171523 0.86616567 -0.19124871
vn -0.65328148 0.70710678 -0.27059805
vn 0.80313797 0.25881905 0.53663964
vn 0.71995761 0.50024198 0.48106029
vn 0.41553273 0.86616567 0.27765010
vn 4.3834632e-16 1.00000000 3.0181222e-16
vn -0.41553273 0.86616567 -0.27765010
vn -0.58793780 0.70710678 -0.39284748
vn 0.68301270 0.25881905 0.68301270
vn 0.61227362 0.50024198 0.61227362
vn 0.35338154 0.86616567 0.35338154
vn 4.2397431e-16 1.00000000 3.8804428e-16
vn -0.35338154 0.86616567 -0.35338154
vn -0.50000000 0.70710678 -0.50000000
vn 0.53663964 0.25881905 0.80313797
vn 0.48106029 0.50024198 0.71995761
vn 0.27765010 0.86616567 0.41553273
vn 2.6588219e-16 1.00000000 3.8804428e-16
vn -0.27765010 0.86616567 -0.41553273
vn -0.39284748 0.70710678 -0.58793780
vn 0.36964381 0.25881905 0.89239910
vn 0.33136009 0.50024198 0.79997403
vn 0.19124871 0.86616567 0.46171523
vn 6.8267050e-17 1.00000000 2.2276616e-16
vn -0.19124871 0.86616567 -0.46171523
vn -0.27059805 0.70710678 -0.65328148
vn 0.18844278 0.25881905 0.94736583
vn 0.16892591 0.50024198 0.84924790
vn 9.7497748e-2 0.86616567 0.49015428
vn 3.9523029e-17 1.00000000 1.8683614e-16
vn -9.7497748e-2 0.86616567 -0.49015428
vn -0.13794969 0.70710678 -0.69351992
vn 0.0000000e+0 0.0000000e+0 0.0000000e+0
vn 4.7407186e-2 0.25852804 0.96483978
vn 4.2528831e-2 0.49966830 0.86517218
vn 2.4586572e-2 0.86583368 0.49972746
vn 3.6386859e-17 1.00000000 3.4487223e-16
vn -2.4586572e-2 0.86583368 -0.49972746
vn -2.0063976e-2 0.96582163 -0.25842991
vn -5.5140750e-17 0.96592583 -0.25881905
vn -8.0491169e-17 0.86602540 -0.50000000
vn 9.2518585e-19 1.00000000 4.0228561e-16
vn 6.1062266e-17 0.86602540 0.50000000
vn 1.3322676e-16 0.50000000 0.86602540
vn 1.7158289e-16 0.25881905 0.96592583
vn 0.96592583 0.25881905 -1.1438860e-16
vn 0.86602540 0.50000000 -1.2397490e-16
vn 0.50000000 0.86602540 -8.8817842e-17
vn 2.5861218e-16 1.00000000 -8.3266727e-18
vn -0.50000000 0.86602540 3.7932620e-17
vn -0.25881905 0.96592583 7.6728560e-18
vn -0.96566077 0.25864588 -2.4527215e-2
vn -0.96592583 0.25881905 2.2847373e-16
vn -0.50000000 0.86602540 1.4062076e-16
vn -0.49970696 0.86602091 -1.7341606e-2
vn -2.4527215e-2 0.25864588 -0.96566077
vn 0.0000000e+0 0.25881905 -0.96592583
vn -1.7341606e-2 0.86602091 -0.49970696
vn 2.0934566e-17 0.86602540 -0.50000000
vn -0.96345191 0.25805403 -7.1892562e-2
vn -0.49873119 0.86575698 -4.1617929e-2
vn -0.94736583 0.25881905 -0.18844278
vn -0.48891851 0.86692498 -9.6952439e-2
vn -0.89239910 0.25881905 -0.36964381
vn -0.46026646 0.86706856 -0.19064861
vn -0.80313797 0.25881905 -0.53663964
vn -0.41422887 0.86706856 -0.27677888
vn -0.68301270 0.25881905 -0.68301270
vn -0.35227270 0.86706856 -0.35227270
vn -0.53663964 0.25881905 -0.80313797
vn -0.27677888 0.86706856 -0.41422887
vn -0.36964381 0.25881905 -0.89239910
vn -0.19064861 0.86706856 -0.46026646
vn -0.18844278 0.25881905 -0.94736583
vn -9.6952439e-2 0.86692498 -0.48891851
vn -7.1892562e-2 0.25805403 -0.96345191
vn -4.1617929e-2 0.86575698 -0.49873119
vn 0.0000000e+0 0.0000000e+0 0.0000000e+0
vn 0.25816770 0.96601211 1.3039780e-2
vn 0.25321177 0.96607671 5.0789746e-2
vn 0.23911762 0.96592583 9.9045761e-2
vn 0.21520017 0.96592583 0.14379216
vn 0.18301270 0.96592583 0.18301270
vn 0.14379216 0.96592583 0.21520017
vn 9.9045761e-2 0.96592583 0.23911762
vn 5.0789746e-2 0.96607671 0.25321177
vn 0.0000000e+0 0.0000000e+0 0.0000000e+0
vn 1.3039780e-2 0.96601211 0.25816770
g Torus6_Torus6_auv
usemtl Torus6_auv
s 1
f 1/45/1 95/45/95 96/18/96 7/17/7
f 2/40/2 8/44/8 9/38/9 3/34/3
f 3/34/3 9/38/9 10/33/10 4/28/4
f 3/34/3 64/14/64 63/19/63 2/40/2
f 4/28/4 10/33/10 11/29/11 5/24/5
f 4/28/4 65/12/65 64/14/64 3/34/3
f 5/24/5 11/29/11 12/25/12 6/20/6
f 5/24/5 66/8/66 65/12/65 4/28/4
f 6/20/6 12/25/12 13/21/13 7/15/7
f 6/20/6 67/5/67 66/8/66 5/24/5
f 7/15/7 68/4/68 67/5/67 6/20/6
f 7/17/7 72/10/72 71/2/71 68/3/68
f 7/17/7 96/18/96 78/11/78 72/10/72
f 8/44/8 14/50/14 15/47/15 9/38/9
f 9/38/9 15/47/15 16/41/16 10/33/10
f 10/33/10 16/41/16 17/35/17 11/29/11
f 11/29/11 17/35/17 18/32/18 12/25/12
f 12/25/12 18/32/18 19/27/19 13/21/13
f 14/50/14 20/57/20 21/54/21 15/47/15
f 15/47/15 21/54/21 22/49/22 16/41/16
f 16/41/16 22/49/22 23/46/23 17/35/17
f 17/35/17 23/46/23 24/42/24 18/32/18
f 18/32/18 24/42/24 25/36/25 19/27/19
f 20/57/20 26/63/26 27/60/27 21/54/21
f 21/54/21 27/60/27 28/58/28 22/49/22
f 22/49/22 28/58/28 29/55/29 23/46/23
f 23/46/23 29/55/29 30/52/30 24/42/24
f 24/42/24 30/52/30 31/48/31 25/36/25
f 26/63/26 32/70/32 33/68/33 27/60/27
f 27/60/27 33/68/33 34/66/34 28/58/28
f 28/58/28 34/66/34 35/64/35 29/55/29
f 29/55/29 35/64/35 36/62/36 30/52/30
f 30/52/30 36/62/36 37/59/37 31/48/31
f 32/70/32 38/77/38 39/75/39 33/68/33
f 33/68/33 39/75/39 40/74/40 34/66/34
f 34/66/34 40/74/40 41/73/41 35/64/35
f 35/64/35 41/73/41 42/72/42 36/62/36
f 36/62/36 42/72/42 43/69/43 37/59/37
f 38/77/38 44/85/44 45/84/45 39/75/39
f 39/75/39 45/84/45 46/83/46 40/74/40
f 40/74/40 46/83/46 47/82/47 41/73/41
f 41/73/41 47/82/47 48/81/48 42/72/42
f 42/72/42 48/81/48 49/79/49 43/69/43
f 44/85/44 51/97/51 52/96/52 45/84/45
f 45/84/45 52/96/52 53/95/53 46/83/46
f 46/83/46 53/95/53 54/94/54 47/82/47
f 47/82/47 54/94/54 55/92/55 48/81/48
f 48/81/48 55/92/55 56/90/56 49/79/49
f 51/97/51 62/106/62 61/105/61 52/96/52
f 52/96/52 61/105/61 60/104/60 53/95/53
f 53/95/53 60/104/60 59/103/59 54/94/54
f 54/94/54 59/103/59 58/102/58 55/92/55
f 55/92/55 58/102/58 57/101/57 56/90/56
f 56/93/56 105/91/105 104/45/104 50/45/50
f 57/100/57 76/99/76 75/89/75 56/93/56
f 70/1/70 71/2/71 72/10/72 69/6/69
f 72/10/72 78/11/78 77/7/77 69/6/69
f 73/87/73 75/89/75 76/99/76 74/98/74
f 73/87/73 93/86/93 94/88/94 75/89/75
f 75/89/75 94/88/94 105/91/105 56/93/56
f 78/11/78 80/13/80 79/9/79 77/7/77
f 78/11/78 96/18/96 97/23/97 80/13/80
f 80/13/80 82/22/82 81/16/81 79/9/79
f 80/13/80 97/23/97 98/30/98 82/22/82
f 82/22/82 84/31/84 83/26/83 81/16/81
f 82/22/82 98/30/98 99/39/99 84/31/84
f 84/31/84 86/43/86 85/37/85 83/26/83
f 84/31/84 99/39/99 100/51/100 86/43/86
f 86/43/86 88/56/88 87/53/87 85/37/85
f 86/43/86 100/51/100 101/61/101 88/56/88
f 88/56/88 90/67/90 89/65/89 87/53/87
f 88/56/88 101/61/101 102/71/102 90/67/90
f 90/67/90 92/78/92 91/76/91 89/65/89
f 90/67/90 102/71/102 103/80/103 92/78/92
f 92/78/92 94/88/94 93/86/93 91/76/91
f 92/78/92 103/80/103 105/91/105 94/88/94
