# Blender v3.1.2 OBJ File: 'project.blend'
# www.blender.org
mtllib mesh.mtl
o stalacite_4_Mesh.006
v 0.002186 -3.882723 0.058313
v -0.032749 -3.882723 0.048298
v -0.056525 -3.882723 -0.016205
v -0.024851 -3.882723 -0.048497
v 0.032750 -3.882723 -0.048298
v 0.046225 -3.882723 -0.035820
v 0.056526 -3.882723 0.016204
v 0.036286 -3.882723 0.046054
v 0.016371 -0.000004 0.436731
v -0.245271 0.000001 0.361722
v -0.413227 0.000001 0.148549
v -0.423345 0.000001 -0.121365
v -0.271759 0.000001 -0.344922
v -0.016371 0.000001 -0.436731
v 0.245271 0.000001 -0.361723
v 0.413228 0.000001 -0.148550
v 0.423346 0.000001 0.121364
v 0.271760 0.000001 0.344921
v 0.016579 -3.988534 -0.009165
v 0.003204 -3.988534 0.019423
v -0.006305 -3.988534 -0.019798
v -0.021613 -3.988534 0.002776
v 0.005059 -0.000002 0.134959
v -0.005059 -0.000002 -0.134957
v -0.069310 -3.889208 0.015351
v -0.003798 -3.889208 -0.055355
v -0.030081 -3.049389 0.060517
v -0.029916 -2.805512 0.039434
v 0.053803 -3.049749 0.030427
v 0.065031 -2.805453 0.005303
v 0.103574 -3.049883 -0.042944
v 0.121367 -2.805558 -0.077797
v 0.099555 -3.048777 -0.133060
v 0.117498 -2.806241 -0.178053
v 0.044950 -3.046638 -0.202533
v 0.054999 -2.806857 -0.257181
v -0.041432 -3.045206 -0.227603
v -0.042201 -2.806751 -0.285066
v -0.124440 -3.045620 -0.197495
v -0.137034 -2.805668 -0.251116
v -0.174939 -3.046918 -0.123395
v -0.193337 -2.804141 -0.168190
v -0.172472 -3.048534 -0.034731
v -0.189574 -2.804120 -0.067796
v -0.116050 -3.049075 0.035835
v -0.127140 -2.804815 0.011523
v -0.007550 -3.282873 0.094416
v 0.003684 -3.527483 0.098280
v -0.055169 -3.527897 0.081362
v -0.081024 -3.283649 0.073444
v -0.099816 -3.530103 0.031299
v -0.131128 -3.286672 0.012830
v -0.095241 -3.527732 -0.027304
v -0.130597 -3.286266 -0.061680
v -0.055715 -3.526951 -0.078838
v -0.085278 -3.287559 -0.124566
v -0.004460 -3.529052 -0.097040
v -0.016561 -3.289814 -0.148826
v 0.055192 -3.527538 -0.081396
v 0.056996 -3.286157 -0.129153
v 0.088649 -3.527890 -0.041094
v 0.102088 -3.284387 -0.073388
v 0.095226 -3.527880 0.027299
v 0.106923 -3.283341 0.005813
v 0.061157 -3.527478 0.077620
v 0.064281 -3.282870 0.068593
v 0.007442 -2.418908 0.028434
v 0.020103 -2.176304 0.061596
v -0.105418 -2.419367 -0.003895
v -0.102190 -2.175751 0.026707
v -0.177812 -2.418534 -0.095872
v -0.180787 -2.174116 -0.072497
v -0.182151 -2.417649 -0.212391
v -0.185583 -2.172977 -0.198463
v -0.116764 -2.417934 -0.308801
v -0.114658 -2.173286 -0.303108
v -0.006545 -2.417461 -0.348485
v 0.004807 -2.172739 -0.345953
v 0.106382 -2.417202 -0.316160
v 0.127219 -2.172655 -0.310844
v 0.179021 -2.416167 -0.224295
v 0.205821 -2.172320 -0.211033
v 0.183263 -2.416953 -0.107719
v 0.210434 -2.174203 -0.085233
v 0.117638 -2.418478 -0.011177
v 0.139455 -2.176340 0.018680
v 0.022442 -1.780920 0.183623
v 0.018268 -1.541907 0.238979
v -0.114651 -1.781254 0.144218
v -0.128735 -1.541559 0.196894
v -0.202521 -1.783674 0.031875
v -0.223105 -1.541451 0.077144
v -0.207716 -1.785456 -0.109864
v -0.228813 -1.541253 -0.074486
v -0.128415 -1.784505 -0.226679
v -0.143739 -1.540191 -0.200069
v 0.005281 -1.784090 -0.274665
v -0.000195 -1.540339 -0.251670
v 0.142262 -1.784211 -0.235417
v 0.146850 -1.540217 -0.209512
v 0.230134 -1.785171 -0.124028
v 0.241235 -1.540646 -0.089726
v 0.235515 -1.783845 0.017596
v 0.246927 -1.540421 0.061977
v 0.156239 -1.781634 0.135303
v 0.161736 -1.540762 0.187567
v 0.012070 -0.921287 0.368141
v 0.016219 -0.679426 0.407226
v 0.214880 -0.679572 0.335804
v 0.191226 -0.921389 0.303706
v 0.332676 -0.680459 0.161957
v 0.297393 -0.922479 0.146672
v 0.324644 -0.681728 -0.047736
v 0.290020 -0.924268 -0.042778
v 0.194055 -0.682498 -0.213241
v 0.172206 -0.925579 -0.192190
v -0.009221 -0.682398 -0.271540
v -0.011014 -0.925876 -0.244719
v -0.207639 -0.682459 -0.200196
v -0.189828 -0.925812 -0.180436
v -0.325502 -0.681827 -0.026595
v -0.296047 -0.924981 -0.023812
v -0.317805 -0.680640 0.183105
v -0.289118 -0.923337 0.165565
v -0.187302 -0.679617 0.348872
v -0.171461 -0.921835 0.315376
v 0.007493 -1.053123 0.330676
v 0.008256 -1.292672 0.278049
v -0.149922 -1.292764 0.232686
v -0.165591 -1.052560 0.281208
v -0.251449 -1.292905 0.103792
v -0.276883 -1.050787 0.140521
v -0.257524 -1.293264 -0.059407
v -0.283721 -1.049380 -0.038041
v -0.165854 -1.293680 -0.194554
v -0.183306 -1.048966 -0.186144
v -0.011488 -1.293777 -0.250046
v -0.014064 -1.049082 -0.246988
v 0.146648 -1.293838 -0.204713
v 0.159307 -1.049175 -0.197287
v 0.248150 -1.294199 -0.075893
v 0.270475 -1.049984 -0.056117
v 0.254263 -1.294242 0.087220
v 0.276936 -1.051501 0.122386
v 0.162659 -1.293499 0.222425
v 0.176453 -1.052789 0.270034
vt 0.531465 0.982222
vt 0.465498 0.994214
vt 0.405411 0.965187
vt 0.496520 0.916305
vt 0.336534 0.868731
vt 0.304385 0.880490
vt 0.322852 0.858839
vt 0.330581 0.864933
vt 0.279317 0.862110
vt 0.300171 0.876182
vt 0.272365 0.868732
vt 0.301896 0.873281
vt 0.292649 0.854675
vt 0.302715 0.853038
vt 0.305964 0.874248
vt 0.309639 0.853660
vt 0.316489 0.855600
vt 0.289292 0.855864
vt 0.283519 0.860645
vt 0.587629 0.867422
vt 0.578115 0.933791
vt 0.374155 0.906229
vt 0.465264 0.857346
vt 0.556373 0.808463
vt 0.383670 0.839860
vt 0.430319 0.791429
vt 0.496286 0.779437
vt 0.338811 0.685504
vt 0.342775 0.632188
vt 0.364523 0.634187
vt 0.358111 0.686536
vt 0.319335 0.683685
vt 0.321055 0.629739
vt 0.300001 0.681566
vt 0.299310 0.627574
vt 0.280482 0.679506
vt 0.277426 0.626708
vt 0.261404 0.678741
vt 0.255440 0.627787
vt 0.242088 0.680557
vt 0.233569 0.630866
vt 0.223719 0.685526
vt 0.212453 0.635994
vt 0.206245 0.693459
vt 0.192128 0.642813
vt 0.407242 0.637307
vt 0.396085 0.688399
vt 0.377346 0.687240
vt 0.385988 0.635659
vt 0.333174 0.734919
vt 0.327798 0.784615
vt 0.314897 0.783049
vt 0.317229 0.733573
vt 0.349111 0.736171
vt 0.340723 0.786865
vt 0.365493 0.738124
vt 0.354670 0.790509
vt 0.381034 0.740273
vt 0.366667 0.793734
vt 0.239152 0.795138
vt 0.222524 0.744102
vt 0.237905 0.737527
vt 0.251712 0.789311
vt 0.253243 0.733754
vt 0.262925 0.786103
vt 0.269466 0.730995
vt 0.275946 0.783168
vt 0.284720 0.730741
vt 0.287159 0.782176
vt 0.301372 0.731957
vt 0.301928 0.782187
vt 0.346628 0.545942
vt 0.349514 0.490481
vt 0.376986 0.494627
vt 0.371897 0.549496
vt 0.321540 0.543478
vt 0.321949 0.488871
vt 0.403746 0.500715
vt 0.397137 0.553317
vt 0.429657 0.507930
vt 0.422032 0.556990
vt 0.175248 0.561319
vt 0.164695 0.507775
vt 0.191004 0.505265
vt 0.199481 0.555755
vt 0.217278 0.501689
vt 0.223442 0.550629
vt 0.243264 0.497230
vt 0.247556 0.546363
vt 0.269135 0.492735
vt 0.271970 0.543373
vt 0.295213 0.489703
vt 0.296608 0.542419
vt 0.355198 0.400819
vt 0.359573 0.349482
vt 0.391676 0.354465
vt 0.384721 0.405848
vt 0.325492 0.400378
vt 0.327325 0.348294
vt 0.422934 0.363314
vt 0.413350 0.414834
vt 0.453240 0.374656
vt 0.441311 0.425677
vt 0.146242 0.425529
vt 0.133660 0.376374
vt 0.165747 0.371472
vt 0.176108 0.423088
vt 0.198335 0.366801
vt 0.206487 0.419436
vt 0.231001 0.361468
vt 0.236953 0.414671
vt 0.263340 0.355848
vt 0.266793 0.409273
vt 0.295293 0.350857
vt 0.296097 0.403836
vt 0.375177 0.217957
vt 0.381824 0.167991
vt 0.425409 0.175119
vt 0.414752 0.224869
vt 0.334900 0.215014
vt 0.338036 0.163811
vt 0.294621 0.215690
vt 0.293829 0.163149
vt 0.253981 0.219696
vt 0.249211 0.165908
vt 0.212968 0.226160
vt 0.204179 0.171990
vt 0.171917 0.234352
vt 0.159324 0.181357
vt 0.131376 0.244367
vt 0.115426 0.193965
vt 0.092572 0.256188
vt 0.073243 0.210530
vt 0.510839 0.200019
vt 0.491291 0.249350
vt 0.453524 0.235466
vt 0.468507 0.185786
vt 0.372005 0.246271
vt 0.365820 0.297130
vt 0.329489 0.295440
vt 0.332666 0.243500
vt 0.410687 0.252552
vt 0.401679 0.302898
vt 0.448109 0.262264
vt 0.436141 0.312286
vt 0.484061 0.275144
vt 0.468981 0.324566
vt 0.119519 0.326838
vt 0.102641 0.279287
vt 0.139533 0.269585
vt 0.153588 0.320024
vt 0.177318 0.261240
vt 0.187951 0.313938
vt 0.215638 0.253832
vt 0.222790 0.307727
vt 0.254381 0.247859
vt 0.257900 0.301925
vt 0.293395 0.244177
vt 0.293423 0.297424
vt 0.403643 0.026107
vt 0.461592 0.035632
vt 0.518507 0.048356
vt 0.573745 0.065182
vt 0.015040 0.075381
vt 0.066653 0.051396
vt 0.120367 0.033558
vt 0.175848 0.022620
vt 0.231975 0.017458
vt 0.288515 0.016951
vt 0.345710 0.020031
vn -0.0000 1.0000 -0.0000
vn -0.8961 -0.1537 -0.4165
vn -0.8028 -0.5848 0.1167
vn -0.5512 -0.1522 0.8204
vn -0.9262 -0.1540 0.3443
vn -0.5713 -0.1484 -0.8072
vn -0.3113 -0.5140 -0.7993
vn 0.8229 -0.5616 -0.0859
vn 0.9169 -0.1442 -0.3722
vn 0.9703 -0.1533 0.1872
vn 0.2517 -0.5460 0.7991
vn 0.6217 -0.1506 0.7686
vn 0.0092 -0.1463 0.9892
vn 0.4323 -0.1441 -0.8901
vn -0.0024 -0.1477 -0.9890
vn 0.0238 0.1137 0.9932
vn 0.0209 0.0484 0.9986
vn -0.5633 0.0616 0.8240
vn -0.5623 0.0523 0.8253
vn 0.6056 0.1015 0.7893
vn 0.6049 -0.0117 0.7962
vn 0.9635 0.0129 0.2673
vn 0.9561 -0.0969 0.2764
vn 0.9306 -0.1101 -0.3490
vn 0.9237 -0.1687 -0.3439
vn 0.5318 -0.2176 -0.8184
vn 0.5381 -0.1999 -0.8188
vn -0.0387 -0.2683 -0.9626
vn -0.0428 -0.1826 -0.9822
vn -0.5973 -0.2545 -0.7606
vn -0.6158 -0.1245 -0.7780
vn -0.9419 -0.1792 -0.2840
vn -0.9610 -0.0452 -0.2728
vn -0.9392 -0.0595 0.3383
vn -0.9390 0.0261 0.3429
vn 0.0376 0.0867 0.9955
vn 0.0371 -0.0477 0.9982
vn 0.6093 -0.0460 0.7916
vn 0.6069 0.0926 0.7894
vn -0.5414 0.0181 0.8406
vn -0.5289 -0.0678 0.8460
vn -0.9290 -0.0950 0.3577
vn -0.9278 -0.1045 0.3582
vn -0.9291 -0.2150 -0.3010
vn -0.9099 -0.1430 -0.3893
vn -0.5904 -0.2768 -0.7582
vn -0.6030 -0.1682 -0.7798
vn -0.0231 -0.2677 -0.9632
vn -0.0163 -0.1640 -0.9863
vn 0.5396 -0.1972 -0.8185
vn 0.5065 -0.1413 -0.8506
vn 0.9402 -0.0803 -0.3309
vn 0.9376 -0.1029 -0.3322
vn 0.9640 0.0254 0.2646
vn 0.9723 -0.0734 0.2220
vn 0.0400 -0.0440 0.9982
vn 0.0353 -0.2435 0.9693
vn -0.5536 -0.2012 0.8081
vn -0.5601 -0.0020 0.8284
vn 0.6224 -0.0947 0.7769
vn 0.6106 -0.2154 0.7621
vn -0.9401 -0.1032 0.3249
vn -0.9429 0.0133 0.3327
vn -0.9542 0.0125 -0.2991
vn -0.9559 -0.0026 -0.2937
vn -0.5953 0.0952 -0.7978
vn -0.5990 -0.0421 -0.7996
vn -0.0285 0.1186 -0.9925
vn -0.0247 -0.0883 -0.9958
vn 0.5453 0.0791 -0.8345
vn 0.5495 -0.1258 -0.8260
vn 0.9303 -0.0122 -0.3666
vn 0.9237 -0.1426 -0.3557
vn 0.9596 -0.1268 0.2513
vn 0.9579 -0.1326 0.2546
vn 0.0329 -0.2656 0.9635
vn 0.0342 -0.1863 0.9819
vn -0.5431 -0.1861 0.8188
vn -0.5323 -0.2387 0.8122
vn 0.5907 -0.2240 0.7752
vn 0.6047 -0.1457 0.7830
vn -0.9262 -0.1441 0.3485
vn -0.9224 -0.1477 0.3568
vn -0.9605 -0.0716 -0.2689
vn -0.9649 -0.0171 -0.2619
vn -0.6145 0.0029 -0.7889
vn -0.6154 0.0975 -0.7822
vn -0.0302 0.0481 -0.9984
vn -0.0307 0.1463 -0.9888
vn 0.5614 0.0456 -0.8263
vn 0.5615 0.1126 -0.8198
vn 0.9408 -0.0024 -0.3390
vn 0.9433 0.0091 -0.3317
vn 0.9570 -0.0763 0.2800
vn 0.9499 -0.1218 0.2879
vn 0.0318 -0.1969 0.9799
vn 0.0330 -0.0695 0.9970
vn -0.5473 -0.0819 0.8329
vn -0.5449 -0.1777 0.8195
vn 0.5976 -0.1949 0.7777
vn 0.6036 -0.0838 0.7929
vn 0.9454 -0.1709 0.2776
vn 0.9504 -0.1196 0.2872
vn 0.9322 -0.1313 -0.3373
vn 0.9306 -0.1627 -0.3279
vn 0.5576 -0.0915 -0.8251
vn 0.5538 -0.1963 -0.8092
vn -0.0323 -0.0691 -0.9971
vn -0.0309 -0.2089 -0.9775
vn -0.6135 -0.0736 -0.7863
vn -0.6070 -0.1956 -0.7702
vn -0.9578 -0.1027 -0.2684
vn -0.9526 -0.1605 -0.2585
vn -0.9264 -0.1428 0.3483
vn -0.9267 -0.1167 0.3571
vn 0.0288 -0.2382 0.9708
vn 0.0285 -0.1863 0.9821
vn 0.6050 -0.1531 0.7814
vn 0.5944 -0.2176 0.7742
vn -0.5445 -0.2134 0.8112
vn -0.5519 -0.1831 0.8136
vn -0.9265 -0.1518 0.3445
vn -0.9302 -0.1453 0.3372
vn -0.9600 -0.0737 -0.2700
vn -0.9569 -0.0858 -0.2776
vn -0.6165 -0.0096 -0.7873
vn -0.6125 -0.0266 -0.7900
vn -0.0355 0.0147 -0.9993
vn -0.0357 0.0086 -0.9993
vn 0.5573 -0.0105 -0.8302
vn 0.5528 0.0065 -0.8333
vn 0.9367 -0.0762 -0.3416
vn 0.9359 -0.0325 -0.3506
vn 0.9481 -0.1564 0.2768
vn 0.9579 -0.0941 0.2713
vn 0.0321 -0.0434 0.9985
vn -0.5659 -0.0638 0.8220
vn -0.9385 -0.1150 0.3256
vn -0.9410 -0.1753 -0.2894
vn -0.5888 -0.2202 -0.7777
vn -0.0321 -0.2355 -0.9713
vn 0.5341 -0.2178 -0.8169
vn 0.9176 -0.1722 -0.3582
vn 0.9602 -0.1127 0.2555
vn 0.6207 -0.0624 0.7815
usemtl Stalacite3
s 1
f 9/1/1 18/2/1 17/3/1 23/4/1
f 3/5/2 22/6/3 2/7/4 25/8/5
f 4/9/6 21/10/7 22/6/3 3/11/2
f 19/12/8 6/13/9 7/14/10
f 20/15/11 19/12/8 7/14/10 8/16/12
f 1/17/13 20/15/11 8/16/12
f 21/10/7 5/18/14 6/13/9 19/12/8
f 22/6/3 21/10/7 19/12/8 20/15/11
f 2/7/4 22/6/3 20/15/11 1/17/13
f 5/18/14 21/10/7 4/9/6 26/19/15
f 9/1/1 23/4/1 11/20/1 10/21/1
f 23/4/1 17/3/1 16/22/1 24/23/1
f 11/20/1 23/4/1 24/23/1 12/24/1
f 24/23/1 16/22/1 15/25/1 14/26/1
f 12/24/1 24/23/1 14/26/1 13/27/1
f 27/28/16 28/29/17 46/30/18 45/31/19
f 28/29/17 27/28/16 29/32/20 30/33/21
f 30/33/21 29/32/20 31/34/22 32/35/23
f 32/35/23 31/34/22 33/36/24 34/37/25
f 34/37/25 33/36/24 35/38/26 36/39/27
f 36/39/27 35/38/26 37/40/28 38/41/29
f 38/41/29 37/40/28 39/42/30 40/43/31
f 40/43/31 39/42/30 41/44/32 42/45/33
f 42/46/33 41/47/32 43/48/34 44/49/35
f 44/49/35 43/48/34 45/31/19 46/30/18
f 47/50/36 48/51/37 65/52/38 66/53/39
f 48/51/37 47/50/36 50/54/40 49/55/41
f 49/55/41 50/54/40 52/56/42 51/57/43
f 51/57/43 52/56/42 54/58/44 53/59/45
f 53/60/45 54/61/44 56/62/46 55/63/47
f 55/63/47 56/62/46 58/64/48 57/65/49
f 57/65/49 58/64/48 60/66/50 59/67/51
f 59/67/51 60/66/50 62/68/52 61/69/53
f 61/69/53 62/68/52 64/70/54 63/71/55
f 63/71/55 64/70/54 66/53/39 65/52/38
f 67/72/56 68/73/57 70/74/58 69/75/59
f 68/73/57 67/72/56 85/76/60 86/77/61
f 69/75/59 70/74/58 72/78/62 71/79/63
f 71/79/63 72/78/62 74/80/64 73/81/65
f 73/82/65 74/83/64 76/84/66 75/85/67
f 75/85/67 76/84/66 78/86/68 77/87/69
f 77/87/69 78/86/68 80/88/70 79/89/71
f 79/89/71 80/88/70 82/90/72 81/91/73
f 81/91/73 82/90/72 84/92/74 83/93/75
f 83/93/75 84/92/74 86/77/61 85/76/60
f 87/94/76 88/95/77 90/96/78 89/97/79
f 88/95/77 87/94/76 105/98/80 106/99/81
f 89/97/79 90/96/78 92/100/82 91/101/83
f 91/101/83 92/100/82 94/102/84 93/103/85
f 93/104/85 94/105/84 96/106/86 95/107/87
f 95/107/87 96/106/86 98/108/88 97/109/89
f 97/109/89 98/108/88 100/110/90 99/111/91
f 99/111/91 100/110/90 102/112/92 101/113/93
f 101/113/93 102/112/92 104/114/94 103/115/95
f 103/115/95 104/114/94 106/99/81 105/98/80
f 107/116/96 108/117/97 125/118/98 126/119/99
f 108/117/97 107/116/96 110/120/100 109/121/101
f 109/121/101 110/120/100 112/122/102 111/123/103
f 111/123/103 112/122/102 114/124/104 113/125/105
f 113/125/105 114/124/104 116/126/106 115/127/107
f 115/127/107 116/126/106 118/128/108 117/129/109
f 117/129/109 118/128/108 120/130/110 119/131/111
f 119/131/111 120/130/110 122/132/112 121/133/113
f 121/134/113 122/135/112 124/136/114 123/137/115
f 123/137/115 124/136/114 126/119/99 125/118/98
f 127/138/116 128/139/117 145/140/118 146/141/119
f 128/139/117 127/138/116 130/142/120 129/143/121
f 129/143/121 130/142/120 132/144/122 131/145/123
f 131/145/123 132/144/122 134/146/124 133/147/125
f 133/148/125 134/149/124 136/150/126 135/151/127
f 135/151/127 136/150/126 138/152/128 137/153/129
f 137/153/129 138/152/128 140/154/130 139/155/131
f 139/155/131 140/154/130 142/156/132 141/157/133
f 141/157/133 142/156/132 144/158/134 143/159/135
f 143/159/135 144/158/134 146/141/119 145/140/118
f 1/17/13 48/51/37 49/55/41 2/7/4
f 2/7/4 49/55/41 51/57/43 25/8/5
f 4/9/6 3/11/2 53/60/45 55/63/47
f 4/9/6 55/63/47 57/65/49 26/19/15
f 6/13/9 5/18/14 59/67/51 61/69/53
f 7/14/10 6/13/9 61/69/53 63/71/55
f 8/16/12 7/14/10 63/71/55 65/52/38
f 8/16/12 65/52/38 48/51/37 1/17/13
f 46/30/18 28/29/17 67/72/56 69/75/59
f 44/49/35 46/30/18 69/75/59 71/79/63
f 42/46/33 44/49/35 71/79/63 73/81/65
f 40/43/31 42/45/33 73/82/65 75/85/67
f 38/41/29 40/43/31 75/85/67 77/87/69
f 36/39/27 38/41/29 77/87/69 79/89/71
f 34/37/25 36/39/27 79/89/71 81/91/73
f 32/35/23 34/37/25 81/91/73 83/93/75
f 30/33/21 32/35/23 83/93/75 85/76/60
f 28/29/17 30/33/21 85/76/60 67/72/56
f 88/95/77 128/139/117 129/143/121 90/96/78
f 90/96/78 129/143/121 131/145/123 92/100/82
f 92/100/82 131/145/123 133/147/125 94/102/84
f 94/105/84 133/148/125 135/151/127 96/106/86
f 96/106/86 135/151/127 137/153/129 98/108/88
f 98/108/88 137/153/129 139/155/131 100/110/90
f 100/110/90 139/155/131 141/157/133 102/112/92
f 102/112/92 141/157/133 143/159/135 104/114/94
f 104/114/94 143/159/135 145/140/118 106/99/81
f 106/99/81 145/140/118 128/139/117 88/95/77
f 125/118/98 108/117/97 9/160/136 10/161/137
f 123/137/115 125/118/98 10/161/137 11/162/138
f 121/134/113 123/137/115 11/162/138 12/163/139
f 119/131/111 121/133/113 12/164/139 13/165/140
f 117/129/109 119/131/111 13/165/140 14/166/141
f 115/127/107 117/129/109 14/166/141 15/167/142
f 113/125/105 115/127/107 15/167/142 16/168/143
f 111/123/103 113/125/105 16/168/143 17/169/144
f 109/121/101 111/123/103 17/169/144 18/170/145
f 108/117/97 109/121/101 18/170/145 9/160/136
f 25/8/5 51/57/43 53/59/45 3/5/2
f 5/18/14 26/19/15 57/65/49 59/67/51
f 50/54/40 47/50/36 27/28/16 45/31/19
f 52/56/42 50/54/40 45/31/19 43/48/34
f 54/58/44 52/56/42 43/48/34 41/47/32
f 56/62/46 54/61/44 41/44/32 39/42/30
f 58/64/48 56/62/46 39/42/30 37/40/28
f 60/66/50 58/64/48 37/40/28 35/38/26
f 62/68/52 60/66/50 35/38/26 33/36/24
f 64/70/54 62/68/52 33/36/24 31/34/22
f 66/53/39 64/70/54 31/34/22 29/32/20
f 47/50/36 66/53/39 29/32/20 27/28/16
f 70/74/58 68/73/57 87/94/76 89/97/79
f 72/78/62 70/74/58 89/97/79 91/101/83
f 74/80/64 72/78/62 91/101/83 93/103/85
f 76/84/66 74/83/64 93/104/85 95/107/87
f 78/86/68 76/84/66 95/107/87 97/109/89
f 80/88/70 78/86/68 97/109/89 99/111/91
f 82/90/72 80/88/70 99/111/91 101/113/93
f 84/92/74 82/90/72 101/113/93 103/115/95
f 86/77/61 84/92/74 103/115/95 105/98/80
f 68/73/57 86/77/61 105/98/80 87/94/76
f 130/142/120 127/138/116 107/116/96 126/119/99
f 132/144/122 130/142/120 126/119/99 124/136/114
f 134/146/124 132/144/122 124/136/114 122/135/112
f 136/150/126 134/149/124 122/132/112 120/130/110
f 138/152/128 136/150/126 120/130/110 118/128/108
f 140/154/130 138/152/128 118/128/108 116/126/106
f 142/156/132 140/154/130 116/126/106 114/124/104
f 144/158/134 142/156/132 114/124/104 112/122/102
f 146/141/119 144/158/134 112/122/102 110/120/100
f 127/138/116 146/141/119 110/120/100 107/116/96
