<?xml version="1.0" encoding="UTF-8" standalone="no"?>
<!-- Created with Inkscape (http://www.inkscape.org/) -->

<svg
   xmlns:dc="http://purl.org/dc/elements/1.1/"
   xmlns:cc="http://creativecommons.org/ns#"
   xmlns:rdf="http://www.w3.org/1999/02/22-rdf-syntax-ns#"
   xmlns:svg="http://www.w3.org/2000/svg"
   xmlns="http://www.w3.org/2000/svg"
   xmlns:sodipodi="http://sodipodi.sourceforge.net/DTD/sodipodi-0.dtd"
   xmlns:inkscape="http://www.inkscape.org/namespaces/inkscape"
   width="1000"
   height="1000"
   viewBox="0 0 999.9999880656118 999.9999880410413"
   id="svg2"
   version="1.1"
   inkscape:version="0.91 r13725"
   sodipodi:docname="RE-modes-capturedefend.svg"
   inkscape:export-filename="D:\Samuel Daten\Ico\Eigene Ico\Inkscape\RE-player-white.png"
   inkscape:export-xdpi="90"
   inkscape:export-ydpi="90">
  <defs
     id="defs4">
    <filter
       style="color-interpolation-filters:sRGB;"
       inkscape:label="Lightness-Contrast"
       id="filter4246">
      <feColorMatrix
         values="10.688 0 0 -5.844 -4.844 0 10.688 0 -5.844 -4.844 0 0 10.688 -5.844 -4.844 0 0 0 1 0"
         id="feColorMatrix4248"
         result="fbSourceGraphic" />
      <feColorMatrix
         result="fbSourceGraphicAlpha"
         in="fbSourceGraphic"
         values="0 0 0 -1 0 0 0 0 -1 0 0 0 0 -1 0 0 0 0 1 0"
         id="feColorMatrix4250" />
      <feColorMatrix
         id="feColorMatrix4252"
         values="10.688 0 0 -5.844 -4.844 0 10.688 0 -5.844 -4.844 0 0 10.688 -5.844 -4.844 0 0 0 1 0"
         in="fbSourceGraphic" />
    </filter>
  </defs>
  <sodipodi:namedview
     id="base"
     pagecolor="#000000"
     bordercolor="#666666"
     borderopacity="1.0"
     inkscape:pageopacity="0"
     inkscape:pageshadow="2"
     inkscape:zoom="0.5000000023743019"
     inkscape:cx="-85.57887130128597"
     inkscape:cy="394.1179414819026"
     inkscape:document-units="px"
     inkscape:current-layer="g4159"
     showgrid="false"
     units="px"
     inkscape:snap-bbox="true"
     inkscape:showpageshadow="false"
     borderlayer="true"
     showborder="true"
     inkscape:snap-intersection-paths="true"
     inkscape:object-nodes="true"
     inkscape:snap-smooth-nodes="true"
     inkscape:object-paths="true" />
  <metadata
     id="metadata7">
    <rdf:RDF>
      <cc:Work
         rdf:about="">
        <dc:format>image/svg+xml</dc:format>
        <dc:type
           rdf:resource="http://purl.org/dc/dcmitype/StillImage" />
        <dc:title></dc:title>
      </cc:Work>
    </rdf:RDF>
  </metadata>
  <g
     inkscape:label="Ebene 1"
     inkscape:groupmode="layer"
     id="layer1"
     transform="translate(0,-52.36228930856214)">
    <g
       id="g4159"
       transform="translate(0,-0.8133121303205825)">
      <g
         id="g4233"
         transform="matrix(-0.58514646,6.6612354e-9,6.6612354e-9,0.58514646,820.55457,112.08029)">
        <g
           id="g4204">
          <path
             style="opacity:1;fill:#ffffff;fill-opacity:1;fill-rule:nonzero;stroke:none;stroke-width:20;stroke-linecap:round;stroke-linejoin:miter;stroke-miterlimit:4;stroke-dasharray:none;stroke-dashoffset:260;stroke-opacity:1"
             d="M 794.63876,954.91546 C 602.87719,688.20099 737.75005,423.99823 659,249.36229 c -134.45883,6.15113 -234.28827,-46.97211 -281,3 -51.14962,54.71974 -19.36145,670.77153 -19.36145,670.77153 49.60528,44.10275 113.52194,18.9718 181,83.99998 4.164,-37.30368 29.06068,-51.52204 148.9748,26.5736 -9.5456,-86.83496 36.85398,-98.17758 106.02541,-78.79194 z"
             id="path4213-1"
             inkscape:connector-curvature="0"
             sodipodi:nodetypes="ccscccc" />
          <path
             style="opacity:1;fill:#ffffff;fill-opacity:1;fill-rule:nonzero;stroke:none;stroke-width:20;stroke-linecap:round;stroke-linejoin:miter;stroke-miterlimit:4;stroke-dasharray:none;stroke-dashoffset:260;stroke-opacity:1"
             d="m 302,309.36227 38,0 0,568.00002 -19,62.99998 -19,-62.99998 z"
             id="rect4160-1"
             inkscape:connector-curvature="0"
             sodipodi:nodetypes="cccccc" />
          <path
             style="opacity:1;fill:#ffffff;fill-opacity:1;fill-rule:nonzero;stroke:none;stroke-width:20;stroke-linecap:round;stroke-linejoin:miter;stroke-miterlimit:4;stroke-dasharray:none;stroke-dashoffset:260;stroke-opacity:1"
             d="m 304,297.36229 c 5.92334,-58.48571 43.95729,-119 105,-119 69.35248,0 187.9283,26 232,26 67.75166,0 73,-12 73,-12 0,0 -24.01762,44 -78,44 -52.61741,0 -136.46207,-24 -219,-24 -46.67201,0 -70.09527,40.6355 -77,85 z"
             id="rect4160-4-2"
             inkscape:connector-curvature="0"
             sodipodi:nodetypes="csscsscc" />
          <rect
             style="opacity:1;fill:#000000;fill-opacity:1;fill-rule:nonzero;stroke:none;stroke-width:20;stroke-linecap:round;stroke-linejoin:miter;stroke-miterlimit:4;stroke-dasharray:none;stroke-dashoffset:260;stroke-opacity:1"
             id="rect4211-2"
             width="40"
             height="14"
             x="301"
             y="377.36227" />
          <path
             style="opacity:1;fill:#ffffff;fill-opacity:1;fill-rule:nonzero;stroke:none;stroke-width:20;stroke-linecap:round;stroke-linejoin:miter;stroke-miterlimit:4;stroke-dasharray:none;stroke-dashoffset:260;stroke-opacity:1"
             d="m 302,698.27849 38,0 0,568.00001 -19,62.9999 -19,-62.9999 z"
             id="rect4160-1-6"
             inkscape:connector-curvature="0"
             sodipodi:nodetypes="cccccc" />
        </g>
      </g>
      <path
         style="opacity:1;fill:#000000;fill-opacity:1;fill-rule:nonzero;stroke:none;stroke-width:40.47000122;stroke-linecap:round;stroke-linejoin:round;stroke-miterlimit:4;stroke-dasharray:none;stroke-dashoffset:260;stroke-opacity:1"
         d="m 262.70117,574.67578 c -13.31932,0.25914 -26.8338,0.0115 -39.99023,1.85938 -17.54322,13.615 -28.59334,33.50601 -44.02694,49.15968 -9.79421,11.37318 -20.5552,22.5559 -26.64884,36.44578 -0.44123,47.83629 0.29989,95.67712 -0.41016,143.51172 -6.85207,7.14536 -15.96414,17.37449 -11.0957,27.94532 7.14999,10.33637 21.3479,7.07729 32.00548,7.18554 22.36195,-0.75765 45.27033,2.90696 67.22108,-2.54687 9.75851,-7.77309 6.42226,-21.48993 6.66211,-32.23828 0.3556,-38.54571 0.065,-77.10238 0.1582,-115.65235 10.41406,-12.39778 20.82813,-24.79557 31.24219,-37.19336 29.09224,52.70245 58.6026,105.45718 87.43359,158.12696 -6.60442,6.21083 -11.5294,18.82744 -3.21875,25.61718 11.27289,7.96149 25.4748,2.24214 38.0055,3.93068 27.19108,-0.59134 54.69059,2.31979 81.65075,-2.01661 9.57053,-6.23692 7.48059,-20.98454 0.0664,-28.13672 -43.02181,-77.32479 -84.64188,-155.50734 -129.30274,-231.8711 -10.86737,-7.27041 -24.58092,-2.70457 -36.73632,-3.76562 -17.67284,0.0245 -35.34271,-0.4261 -53.01563,-0.36133 z"
         id="path4156-8"
         inkscape:connector-curvature="0" />
      <path
         sodipodi:nodetypes="cccc"
         inkscape:connector-curvature="0"
         id="path3016"
         d="M 390.42706,268.32421 C 187.33537,254.80123 215.69362,368.67191 207.66308,397.81722 l 79.54386,0 z"
         style="display:inline;fill:#ffffff;fill-opacity:1;stroke:none;stroke-width:3.26572108px;stroke-linecap:butt;stroke-linejoin:miter;stroke-opacity:0" />
      <path
         style="display:inline;fill:#ffffff;fill-opacity:1;stroke:none;stroke-width:3.47557473px;stroke-linecap:butt;stroke-linejoin:miter;stroke-opacity:0"
         d="m 329.74016,386.30894 -28.44578,29.62484 -106.90463,0 1.24984,-24.31194 -61.42275,74.08225 0,72.67781 17.97348,17.97349 37.08795,0 0,-50.95155 94.40734,0 19.48461,20.31747 37.22839,-38.83858 -29.10118,50.40393 -15.28002,0 -21.08066,-22.1661 -76.48285,0 0,25.60533 32.19637,34.69714 19.06764,0 0,-19.69256 18.75518,0 0,19.69256 74.65273,0 39.12927,-46.88741 0,-92.21468 z"
         id="path4341"
         inkscape:connector-curvature="0"
         sodipodi:nodetypes="cccccccccccccccccccccccccc" />
      <path
         sodipodi:nodetypes="ccsccccc"
         id="path3786-0"
         d="m 15.000002,464.2747 226.378468,0 c 2.08405,0 3.73858,0.91046 4.86844,2.08866 l 56.92313,59.35843 37.22847,-38.83926 -29.10129,50.40454 -296.234208,2.1e-4 z"
         style="display:inline;fill:#000000;fill-opacity:1;stroke:none;stroke-width:3.47557473px;stroke-linecap:butt;stroke-linejoin:miter;stroke-opacity:0"
         inkscape:connector-curvature="0" />
      <path
         sodipodi:nodetypes="cccccc"
         inkscape:connector-curvature="0"
         id="path3813-8"
         d="m 22.052664,477.71267 216.443246,0 43.87609,46.13754 -231.8031,0 -28.516236,-26.03282 z"
         style="color:#000000;font-style:normal;font-variant:normal;font-weight:normal;font-stretch:normal;font-size:medium;line-height:normal;font-family:sans-serif;text-indent:0;text-align:start;text-decoration:none;text-decoration-line:none;text-decoration-style:solid;text-decoration-color:#000000;letter-spacing:normal;word-spacing:normal;text-transform:none;direction:ltr;block-progression:tb;writing-mode:lr-tb;baseline-shift:baseline;text-anchor:start;white-space:normal;clip-rule:nonzero;display:inline;overflow:visible;visibility:visible;opacity:1;isolation:auto;mix-blend-mode:normal;color-interpolation:sRGB;color-interpolation-filters:linearRGB;solid-color:#000000;solid-opacity:1;fill:#ffffff;fill-opacity:1;fill-rule:nonzero;stroke:none;stroke-width:24;stroke-linecap:butt;stroke-linejoin:round;stroke-miterlimit:4;stroke-dasharray:none;stroke-dashoffset:0;stroke-opacity:1;color-rendering:auto;image-rendering:auto;shape-rendering:auto;text-rendering:auto;enable-background:accumulate" />
      <path
         sodipodi:nodetypes="cccccccccccc"
         inkscape:connector-curvature="0"
         id="path4156"
         d="m 280.19767,628.54691 102.04566,184.24912 -11.33841,14.17299 104.09508,0 -131.87418,-238.10654 -115.08483,0 -62.13292,73.69965 0,147.39926 -13.60608,17.00763 80.27437,0 0,-141.73008 z"
         style="opacity:1;fill:#ffffff;fill-opacity:1;fill-rule:nonzero;stroke:none;stroke-width:40.47000122;stroke-linecap:round;stroke-linejoin:round;stroke-miterlimit:4;stroke-dasharray:none;stroke-dashoffset:260;stroke-opacity:1" />
      <g
         id="g4403"
         transform="translate(0,-15.306043)">
        <path
           style="fill:#000000;fill-opacity:1;stroke:none;stroke-width:3.26572108px;stroke-linecap:butt;stroke-linejoin:miter;stroke-opacity:0"
           d="m 632.15722,274.69849 c -16.76727,0.38291 -33.49249,1.72392 -50.22461,2.80274 41.37423,51.90191 82.7466,103.80532 124.12109,155.70703 34.7513,0 69.50261,0 104.25391,0 -10.02477,-31.39169 -3.29409,-67.29376 -20.92188,-96.50391 -17.23134,-31.6481 -51.55952,-50.24024 -86.12109,-56.44531 -23.34304,-4.94735 -47.31882,-5.81076 -71.10742,-5.56055 z"
           id="path3016-2-8"
           inkscape:connector-curvature="0" />
        <path
           style="fill:#000000;fill-opacity:1;stroke:none;stroke-width:3.47557473px;stroke-linecap:butt;stroke-linejoin:miter;stroke-opacity:0"
           d="m 788.52245,377.62623 c 0.78148,15.23251 1.56661,30.46483 2.34961,45.69726 -28.73242,0 -57.46484,0 -86.19727,0 -11.32494,-11.79289 -22.64928,-23.58637 -33.9746,-35.3789 -22.318,21.25559 -44.63707,42.51005 -66.95508,63.76562 0,34.42904 0,68.85808 0,103.28711 15.52702,18.60519 31.05356,37.21079 46.58008,55.81641 31.36914,0 62.73828,0 94.10742,0 0.1945,-3.03084 4.1073,0.35804 6.27148,-0.10352 7.30438,0.17872 14.89152,1.00588 22.01953,-0.77148 11.48538,-4.01529 16.79647,-16.22584 25.55469,-23.57617 3.2351,5.53095 10.22776,6.53121 15.9707,5.38281 13.36394,0 26.72787,0 40.0918,0 7.71589,-11.21294 22.23833,-17.84586 25.44141,-31.97266 0,-25.90755 0,-51.8151 0,-77.72265 -30.52234,-36.81352 -61.04416,-73.62748 -91.56836,-110.43946 0.10286,2.00521 0.20573,4.01042 0.30859,6.01563 z"
           id="path4341-7-8"
           inkscape:connector-curvature="0" />
        <path
           style="opacity:1;fill:#000000;fill-opacity:1;fill-rule:nonzero;stroke:none;stroke-width:40.47000122;stroke-linecap:round;stroke-linejoin:round;stroke-miterlimit:4;stroke-dasharray:none;stroke-dashoffset:260;stroke-opacity:1"
           d="m 766.41308,595.81568 c -37.74502,1.74946 -76.19418,-5.00368 -113.36133,1.67383 -5.49924,0.988 -16.19802,20.17706 -21.43381,29.63349 -40.12676,72.47347 -80.99122,144.56761 -119.94119,217.67315 -2.51526,11.77474 11.61428,21.07211 22.18164,17.5918 33.44275,-0.88913 67.0152,1.61885 100.37109,-1.3086 11.36224,-5.20029 9.48338,-22.25345 0.35352,-28.74414 29.51184,-52.41717 58.29578,-105.2521 87.60156,-157.78711 l 31.25391,37.20118 c 0.59933,47.03186 -1.33734,94.15893 1.0664,141.1289 5.06344,10.88228 19.21854,10.33099 29.32813,9.31641 23.53872,-0.71697 47.44843,2.55412 70.70508,-2.1211 10.66454,-6.96015 6.20974,-23.82296 -3.64454,-29.39843 -6.50673,-7.63539 -1.36588,-18.00918 -2.95332,-26.96874 -0.38765,-41.60145 1.88035,-83.4248 -1.49003,-124.87697 -20.0116,-27.65947 -43.0741,-52.99836 -65.56446,-78.57617 -4.13682,-3.0741 -9.33841,-4.58315 -14.47265,-4.4375 z"
           id="path4156-5-4"
           inkscape:connector-curvature="0"
           sodipodi:nodetypes="csscccccccccccccc" />
        <path
           sodipodi:nodetypes="cccccccccccccccccccccccccc"
           inkscape:connector-curvature="0"
           id="path4341-7"
           d="m 670.25982,407.69929 28.44578,29.62484 106.90463,0 -1.24984,-24.31194 61.42275,74.08225 0,72.67781 -17.97348,17.97349 -37.08795,0 0,-50.95155 -94.40734,0 -19.48461,20.31747 -37.22839,-38.83858 29.10118,50.40393 15.28002,0 21.08066,-22.1661 76.48285,0 0,25.60533 -32.19637,34.69714 -19.06764,0 0,-19.69256 -18.75518,0 0,19.69256 -74.65273,0 -39.12927,-46.88741 0,-92.21468 z"
           style="display:inline;fill:#ffffff;fill-opacity:1;stroke:none;stroke-width:3.47557473px;stroke-linecap:butt;stroke-linejoin:miter;stroke-opacity:0" />
        <path
           inkscape:connector-curvature="0"
           style="display:inline;fill:#000000;fill-opacity:1;stroke:none;stroke-width:3.47557473px;stroke-linecap:butt;stroke-linejoin:miter;stroke-opacity:0"
           d="m 985.00002,485.66505 -226.37851,0 c -2.08405,0 -3.73858,0.91046 -4.86844,2.08866 l -56.92313,59.35843 -37.22847,-38.83926 29.10129,50.40454 296.23416,2.1e-4 z"
           id="path3786-0-4"
           sodipodi:nodetypes="ccsccccc" />
        <path
           style="color:#000000;font-style:normal;font-variant:normal;font-weight:normal;font-stretch:normal;font-size:medium;line-height:normal;font-family:sans-serif;text-indent:0;text-align:start;text-decoration:none;text-decoration-line:none;text-decoration-style:solid;text-decoration-color:#000000;letter-spacing:normal;word-spacing:normal;text-transform:none;direction:ltr;block-progression:tb;writing-mode:lr-tb;baseline-shift:baseline;text-anchor:start;white-space:normal;clip-rule:nonzero;display:inline;overflow:visible;visibility:visible;opacity:1;isolation:auto;mix-blend-mode:normal;color-interpolation:sRGB;color-interpolation-filters:linearRGB;solid-color:#000000;solid-opacity:1;fill:#ffffff;fill-opacity:1;fill-rule:nonzero;stroke:none;stroke-width:24;stroke-linecap:butt;stroke-linejoin:round;stroke-miterlimit:4;stroke-dasharray:none;stroke-dashoffset:0;stroke-opacity:1;color-rendering:auto;image-rendering:auto;shape-rendering:auto;text-rendering:auto;enable-background:accumulate"
           d="m 977.94732,499.10302 -216.44325,0 -43.87609,46.13754 231.80314,0 28.5162,-26.03282 z"
           id="path3813-8-1"
           inkscape:connector-curvature="0"
           sodipodi:nodetypes="cccccc" />
        <path
           style="display:inline;fill:#ffffff;fill-opacity:1;stroke:none;stroke-width:3.26572108px;stroke-linecap:butt;stroke-linejoin:miter;stroke-opacity:0"
           d="m 609.57292,289.71456 c 203.09169,-13.52298 174.73344,100.3477 182.76398,129.49301 l -79.54386,0 z"
           id="path3016-2"
           inkscape:connector-curvature="0"
           sodipodi:nodetypes="cccc" />
        <path
           style="opacity:1;fill:#ffffff;fill-opacity:1;fill-rule:nonzero;stroke:none;stroke-width:40.47000122;stroke-linecap:round;stroke-linejoin:round;stroke-miterlimit:4;stroke-dasharray:none;stroke-dashoffset:260;stroke-opacity:1"
           d="m 719.80231,649.93726 -102.04566,184.24912 11.33841,14.17299 -104.09506,0 131.87416,-238.10654 115.08483,0 62.13292,73.69965 0,147.39926 13.60608,17.00763 -80.27437,0 0,-141.73008 z"
           id="path4156-5"
           inkscape:connector-curvature="0"
           sodipodi:nodetypes="cccccccccccc" />
      </g>
      <path
         style="opacity:1;fill:#000000;fill-opacity:1;fill-rule:nonzero;stroke:none;stroke-width:20;stroke-linecap:round;stroke-linejoin:miter;stroke-miterlimit:4;stroke-dasharray:none;stroke-dashoffset:260;stroke-opacity:1"
         d="m 507.05273,453.4375 c -31.91213,-0.47036 -65.66412,17.27215 -77.28515,48.13281 -9.92708,23.95199 -8.4196,51.63573 1.13867,75.45117 -1.22936,17.06496 2.46686,36.13735 16.35213,47.48421 6.37809,5.62624 12.72,13.6321 9.95076,22.64408 -0.56692,5.99908 -1.05598,12.0059 -1.33414,18.02601 35.6263,0 71.2526,0 106.87891,0 3.90691,-10.33637 -4.70135,-22.23779 2.04687,-31.73242 11.83649,-12.32569 25.73497,-27.1195 23.87695,-45.60352 -0.56878,-16.9109 9.77689,-32.05915 8.44336,-49.12109 0.93701,-30.86641 -15.02135,-63.68941 -44.20117,-76.46875 -14.25702,-6.71255 -30.2191,-9.03362 -45.86719,-8.8125 z"
         id="path4146-1-3-0-4-6-8-1"
         inkscape:connector-curvature="0" />
      <g
         transform="matrix(0.22371914,0,0,0.22371914,398.14043,439.13647)"
         id="g4179-2-61">
        <path
           inkscape:connector-curvature="0"
           id="path4146-1-3-0-4-6-8"
           transform="translate(0,52.362289)"
           d="M 500,65.333984 C 165.82383,66.04827 117.3195,369.7872 200,550.33398 l 2,82 c 0,87.54082 124.64547,144.29758 119,209 l -5.5,63.03516 369,0 -5.5,-63.03516 c -5.64547,-64.70242 119,-121.45918 119,-209 l 2,-82 C 882.6805,369.7872 834.17617,66.04827 500,65.333984 Z"
           style="opacity:1;fill:#ffffff;fill-opacity:1;fill-rule:nonzero;stroke:none;stroke-width:20;stroke-linecap:round;stroke-linejoin:miter;stroke-miterlimit:4;stroke-dasharray:none;stroke-dashoffset:260;stroke-opacity:1"
           sodipodi:nodetypes="cccsccsccc" />
        <g
           id="g4229-9-17"
           transform="translate(2.352284e-4,-4.6662998)"
           style="fill:#000000;fill-opacity:1;stroke:none">
          <path
             sodipodi:nodetypes="ssss"
             inkscape:connector-curvature="0"
             id="path4208-1-7"
             d="m 343,777.00515 c 31.8135,0 104,-86.29939 104,-142.64286 0,-72.13626 -199,-44.34765 -199,31 0,24.99068 58.92076,111.64286 95,111.64286 z"
             style="opacity:1;fill:#000000;fill-opacity:1;fill-rule:nonzero;stroke:none;stroke-width:20;stroke-linecap:round;stroke-linejoin:miter;stroke-miterlimit:4;stroke-dasharray:none;stroke-dashoffset:260;stroke-opacity:1" />
          <path
             sodipodi:nodetypes="ssss"
             inkscape:connector-curvature="0"
             id="path4208-0-0-5"
             d="m 657,777.00529 c -31.8135,0 -104,-86.29939 -104,-142.64286 0,-72.13626 199,-44.34765 199,31 0,24.99068 -58.92076,111.64286 -95,111.64286 z"
             style="opacity:1;fill:#000000;fill-opacity:1;fill-rule:nonzero;stroke:none;stroke-width:20;stroke-linecap:round;stroke-linejoin:miter;stroke-miterlimit:4;stroke-dasharray:none;stroke-dashoffset:260;stroke-opacity:1" />
        </g>
      </g>
    </g>
  </g>
</svg>
