<?xml version="1.0" encoding="UTF-8" standalone="no"?>
<!-- Created with Inkscape (http://www.inkscape.org/) -->

<svg
   xmlns:dc="http://purl.org/dc/elements/1.1/"
   xmlns:cc="http://creativecommons.org/ns#"
   xmlns:rdf="http://www.w3.org/1999/02/22-rdf-syntax-ns#"
   xmlns:svg="http://www.w3.org/2000/svg"
   xmlns="http://www.w3.org/2000/svg"
   xmlns:sodipodi="http://sodipodi.sourceforge.net/DTD/sodipodi-0.dtd"
   xmlns:inkscape="http://www.inkscape.org/namespaces/inkscape"
   width="1000"
   height="1000"
   viewBox="0 0 999.9999880656118 999.9999880410413"
   id="svg4166"
   version="1.1"
   inkscape:version="0.92.0 r"
   sodipodi:docname="RE-modes-bomberbasket_export.svg">
  <defs
     id="defs4168" />
  <sodipodi:namedview
     id="base"
     pagecolor="#000000"
     bordercolor="#666666"
     borderopacity="1.0"
     inkscape:pageopacity="0"
     inkscape:pageshadow="2"
     inkscape:zoom="0.6999999996305816"
     inkscape:cx="281.0381802747484"
     inkscape:cy="577.8999787920583"
     inkscape:document-units="px"
     inkscape:current-layer="layer1"
     showgrid="false"
     units="px"
     showguides="true"
     inkscape:showpageshadow="false"
     showborder="true"
     inkscape:object-nodes="true"
     inkscape:snap-intersection-paths="true"
     inkscape:object-paths="true"
     inkscape:snap-smooth-nodes="true"
     inkscape:snap-nodes="false" />
  <metadata
     id="metadata4171">
    <rdf:RDF>
      <cc:Work
         rdf:about="">
        <dc:format>image/svg+xml</dc:format>
        <dc:type
           rdf:resource="http://purl.org/dc/dcmitype/StillImage" />
        <dc:title />
      </cc:Work>
    </rdf:RDF>
  </metadata>
  <g
     inkscape:label="Ebene 1"
     inkscape:groupmode="layer"
     id="layer1"
     transform="translate(0,-52.36228930856214)">
    <path
       style="color:#000000;clip-rule:nonzero;overflow:visible;visibility:visible;opacity:1;isolation:auto;mix-blend-mode:normal;color-interpolation:sRGB;color-interpolation-filters:linearRGB;solid-color:#000000;solid-opacity:1;fill:#fcffff;fill-opacity:1;fill-rule:nonzero;stroke:none;stroke-width:6;stroke-linecap:butt;stroke-linejoin:miter;stroke-miterlimit:0;stroke-dasharray:none;stroke-dashoffset:0;stroke-opacity:1;color-rendering:auto;image-rendering:auto;shape-rendering:auto;text-rendering:auto;enable-background:accumulate"
       d="M 765 535 A 210.00002 72.5 0 0 0 584.92969 570.36328 A 210.00002 110 0 0 0 765 624 A 210.00002 110 0 0 0 945.06445 570.34766 A 210.00002 72.5 0 0 0 765 535 z "
       transform="translate(0,52.362289)"
       id="path4232-9-80" />
    <ellipse
       ry="115"
       rx="160"
       cy="787.3623"
       cx="765"
       id="path4232-6-8-9-3-8-4-6"
       style="color:#000000;clip-rule:nonzero;display:inline;overflow:visible;visibility:visible;opacity:1;isolation:auto;mix-blend-mode:normal;color-interpolation:sRGB;color-interpolation-filters:linearRGB;solid-color:#000000;solid-opacity:1;fill:#ffffff;fill-opacity:1;fill-rule:nonzero;stroke:none;stroke-width:6;stroke-linecap:butt;stroke-linejoin:miter;stroke-miterlimit:0;stroke-dasharray:none;stroke-dashoffset:0;stroke-opacity:1;color-rendering:auto;image-rendering:auto;shape-rendering:auto;text-rendering:auto;enable-background:accumulate" />
    <ellipse
       ry="125"
       rx="210"
       cy="763.3623"
       cx="765"
       id="path4232-6-8-9-3-8-4-4"
       style="color:#000000;clip-rule:nonzero;display:inline;overflow:visible;visibility:visible;opacity:1;isolation:auto;mix-blend-mode:normal;color-interpolation:sRGB;color-interpolation-filters:linearRGB;solid-color:#000000;solid-opacity:1;fill:#000000;fill-opacity:1;fill-rule:nonzero;stroke:none;stroke-width:6;stroke-linecap:butt;stroke-linejoin:miter;stroke-miterlimit:0;stroke-dasharray:none;stroke-dashoffset:0;stroke-opacity:1;color-rendering:auto;image-rendering:auto;shape-rendering:auto;text-rendering:auto;enable-background:accumulate" />
    <ellipse
       ry="125"
       rx="190"
       cy="729.3623"
       cx="765"
       id="path4232-6-8-9-3-8-4"
       style="color:#000000;clip-rule:nonzero;display:inline;overflow:visible;visibility:visible;opacity:1;isolation:auto;mix-blend-mode:normal;color-interpolation:sRGB;color-interpolation-filters:linearRGB;solid-color:#000000;solid-opacity:1;fill:#ffffff;fill-opacity:1;fill-rule:nonzero;stroke:none;stroke-width:6;stroke-linecap:butt;stroke-linejoin:miter;stroke-miterlimit:0;stroke-dasharray:none;stroke-dashoffset:0;stroke-opacity:1;color-rendering:auto;image-rendering:auto;shape-rendering:auto;text-rendering:auto;enable-background:accumulate" />
    <ellipse
       ry="125"
       rx="225"
       cy="716.70508"
       cx="765"
       id="path4232-6-8-9-3-8-8"
       style="color:#000000;clip-rule:nonzero;display:inline;overflow:visible;visibility:visible;opacity:1;isolation:auto;mix-blend-mode:normal;color-interpolation:sRGB;color-interpolation-filters:linearRGB;solid-color:#000000;solid-opacity:1;fill:#000000;fill-opacity:1;fill-rule:nonzero;stroke:none;stroke-width:6;stroke-linecap:butt;stroke-linejoin:miter;stroke-miterlimit:0;stroke-dasharray:none;stroke-dashoffset:0;stroke-opacity:1;color-rendering:auto;image-rendering:auto;shape-rendering:auto;text-rendering:auto;enable-background:accumulate" />
    <ellipse
       ry="110"
       rx="200"
       cy="701.3623"
       cx="765"
       id="path4232-6-8-9-3-8"
       style="color:#000000;clip-rule:nonzero;display:inline;overflow:visible;visibility:visible;opacity:1;isolation:auto;mix-blend-mode:normal;color-interpolation:sRGB;color-interpolation-filters:linearRGB;solid-color:#000000;solid-opacity:1;fill:#ffffff;fill-opacity:1;fill-rule:nonzero;stroke:none;stroke-width:6;stroke-linecap:butt;stroke-linejoin:miter;stroke-miterlimit:0;stroke-dasharray:none;stroke-dashoffset:0;stroke-opacity:1;color-rendering:auto;image-rendering:auto;shape-rendering:auto;text-rendering:auto;enable-background:accumulate" />
    <ellipse
       ry="100"
       rx="225"
       cy="697.3623"
       cx="765"
       id="path4232-6-8-9-3"
       style="color:#000000;clip-rule:nonzero;display:inline;overflow:visible;visibility:visible;opacity:1;isolation:auto;mix-blend-mode:normal;color-interpolation:sRGB;color-interpolation-filters:linearRGB;solid-color:#000000;solid-opacity:1;fill:#000000;fill-opacity:1;fill-rule:nonzero;stroke:none;stroke-width:6;stroke-linecap:butt;stroke-linejoin:miter;stroke-miterlimit:0;stroke-dasharray:none;stroke-dashoffset:0;stroke-opacity:1;color-rendering:auto;image-rendering:auto;shape-rendering:auto;text-rendering:auto;enable-background:accumulate" />
    <path
       style="color:#000000;clip-rule:nonzero;display:inline;overflow:visible;visibility:visible;opacity:1;isolation:auto;mix-blend-mode:normal;color-interpolation:sRGB;color-interpolation-filters:linearRGB;solid-color:#000000;solid-opacity:1;fill:#ffffff;fill-opacity:1;fill-rule:nonzero;stroke:none;stroke-width:6;stroke-linecap:butt;stroke-linejoin:miter;stroke-miterlimit:0;stroke-dasharray:none;stroke-dashoffset:0;stroke-opacity:1;color-rendering:auto;image-rendering:auto;shape-rendering:auto;text-rendering:auto;enable-background:accumulate"
       d="M 950.59961 666.48047 A 225 72.5 0 0 1 937.08984 672.20508 A 225 72.5 0 0 1 921.75977 677.50781 A 225 72.5 0 0 1 904.86133 682.29102 A 225 72.5 0 0 1 886.56836 686.50586 A 225 72.5 0 0 1 867.05859 690.11328 A 225 72.5 0 0 1 846.53125 693.07227 A 225 72.5 0 0 1 825.1875 695.35742 A 225 72.5 0 0 1 803.24219 696.94531 A 225 72.5 0 0 1 780.91602 697.81836 A 225 72.5 0 0 1 765 698 A 225 72.5 0 0 1 742.53711 697.63867 A 225 72.5 0 0 1 720.29883 696.55469 A 225 72.5 0 0 1 698.50781 694.76172 A 225 72.5 0 0 1 677.38086 692.27734 A 225 72.5 0 0 1 657.12891 689.125 A 225 72.5 0 0 1 637.95508 685.33594 A 225 72.5 0 0 1 620.05078 680.95117 A 225 72.5 0 0 1 603.5957 676.01172 A 225 72.5 0 0 1 588.75195 670.56641 A 225 72.5 0 0 1 578.52539 665.95898 A 220 100 0 0 0 765 713 A 220 100 0 0 0 950.59961 666.48047 z "
       id="path4888"
       transform="translate(0,52.362289)" />
    <path
       style="color:#000000;clip-rule:nonzero;display:inline;overflow:visible;visibility:visible;opacity:1;isolation:auto;mix-blend-mode:normal;color-interpolation:sRGB;color-interpolation-filters:linearRGB;solid-color:#000000;solid-opacity:1;fill:#ffffff;fill-opacity:1;fill-rule:nonzero;stroke:none;stroke-width:6;stroke-linecap:butt;stroke-linejoin:miter;stroke-miterlimit:0;stroke-dasharray:none;stroke-dashoffset:0;stroke-opacity:1;color-rendering:auto;image-rendering:auto;shape-rendering:auto;text-rendering:auto;enable-background:accumulate"
       d="M 874.55664 646.6582 A 125 185 0 0 0 798 817 A 125 185 0 0 0 807.4707 887.26758 A 122.5 230 0 0 1 806.30664 869.26953 A 122.5 230 0 0 1 806 853 A 122.5 230 0 0 1 806.61133 830.03906 A 122.5 230 0 0 1 808.44141 807.30664 A 122.5 230 0 0 1 811.4707 785.03125 A 122.5 230 0 0 1 815.66992 763.43359 A 122.5 230 0 0 1 820.99609 742.73242 A 122.5 230 0 0 1 827.39648 723.13281 A 122.5 230 0 0 1 834.80664 704.83008 A 122.5 230 0 0 1 843.1543 688.00781 A 122.5 230 0 0 1 852.35352 672.83398 A 122.5 230 0 0 1 862.3125 659.46094 A 122.5 230 0 0 1 872.93359 648.02148 A 122.5 230 0 0 1 874.55664 646.6582 z "
       id="path4738"
       transform="translate(0,52.362289)" />
    <path
       style="color:#000000;clip-rule:nonzero;display:inline;overflow:visible;visibility:visible;opacity:1;isolation:auto;mix-blend-mode:normal;color-interpolation:sRGB;color-interpolation-filters:linearRGB;solid-color:#000000;solid-opacity:1;fill:#ffffff;fill-opacity:1;fill-rule:nonzero;stroke:none;stroke-width:6;stroke-linecap:butt;stroke-linejoin:miter;stroke-miterlimit:0;stroke-dasharray:none;stroke-dashoffset:0;stroke-opacity:1;color-rendering:auto;image-rendering:auto;shape-rendering:auto;text-rendering:auto;enable-background:accumulate"
       d="M 947.06445 637.64844 A 167.5 202.5 0 0 0 835 828.5 A 167.5 202.5 0 0 0 837.99219 865.90234 A 167.5 297.5 0 0 1 838.59766 858.77734 A 167.5 297.5 0 0 1 842.74023 829.96289 A 167.5 297.5 0 0 1 848.48242 802.0293 A 167.5 297.5 0 0 1 855.76367 775.25195 A 167.5 297.5 0 0 1 864.51562 749.90039 A 167.5 297.5 0 0 1 874.64844 726.22656 A 167.5 297.5 0 0 1 886.06055 704.4668 A 167.5 297.5 0 0 1 898.63867 684.8418 A 167.5 297.5 0 0 1 912.25781 667.54297 A 167.5 297.5 0 0 1 926.78125 652.74609 A 167.5 297.5 0 0 1 942.06445 640.59961 A 167.5 297.5 0 0 1 947.06445 637.64844 z "
       id="path4733"
       transform="translate(0,52.362289)" />
    <path
       style="color:#000000;clip-rule:nonzero;display:inline;overflow:visible;visibility:visible;opacity:1;isolation:auto;mix-blend-mode:normal;color-interpolation:sRGB;color-interpolation-filters:linearRGB;solid-color:#000000;solid-opacity:1;fill:#000000;fill-opacity:1;fill-rule:nonzero;stroke:none;stroke-width:6;stroke-linecap:butt;stroke-linejoin:miter;stroke-miterlimit:0;stroke-dasharray:none;stroke-dashoffset:0;stroke-opacity:1;color-rendering:auto;image-rendering:auto;shape-rendering:auto;text-rendering:auto;enable-background:accumulate"
       d="M 564.49805 545.96094 A 210.00002 72.5 0 0 0 555 567.5 A 210.00002 72.5 0 0 0 765 640 A 210.00002 72.5 0 0 0 975 567.5 A 210.00002 72.5 0 0 0 965.54883 546.23633 A 210.00002 110 0 0 1 765 623.625 A 210.00002 110 0 0 1 564.49805 545.96094 z "
       id="path4232-0"
       transform="translate(0,52.362289)" />
    <path
       style="color:#000000;clip-rule:nonzero;display:inline;overflow:visible;visibility:visible;opacity:1;isolation:auto;mix-blend-mode:normal;color-interpolation:sRGB;color-interpolation-filters:linearRGB;solid-color:#000000;solid-opacity:1;fill:#ffffff;fill-opacity:1;fill-rule:nonzero;stroke:none;stroke-width:6;stroke-linecap:butt;stroke-linejoin:miter;stroke-miterlimit:0;stroke-dasharray:none;stroke-dashoffset:0;stroke-opacity:1;color-rendering:auto;image-rendering:auto;shape-rendering:auto;text-rendering:auto;enable-background:accumulate"
       d="M 765 490 A 227.5 92.5 0 0 0 561.70703 541.21875 A 210.00002 110 0 0 0 603.02539 583.69727 A 210.00002 110 0 0 1 765 543.625 A 210.00002 110 0 0 1 926.94922 583.72852 A 210.00002 110 0 0 0 968.28906 541.0332 A 227.5 92.5 0 0 0 765 490 z "
       transform="translate(0,52.362289)"
       id="path4232-5-0" />
    <path
       style="color:#000000;clip-rule:nonzero;display:inline;overflow:visible;visibility:visible;opacity:1;isolation:auto;mix-blend-mode:normal;color-interpolation:sRGB;color-interpolation-filters:linearRGB;solid-color:#000000;solid-opacity:1;fill:#000000;fill-opacity:1;fill-rule:nonzero;stroke:none;stroke-width:6;stroke-linecap:butt;stroke-linejoin:miter;stroke-miterlimit:0;stroke-dasharray:none;stroke-dashoffset:0;stroke-opacity:1;color-rendering:auto;image-rendering:auto;shape-rendering:auto;text-rendering:auto;enable-background:accumulate"
       d="M 765 525 A 210.00002 72.5 0 0 0 555 597.5 A 210.00002 72.5 0 0 0 555.65234 602.99219 A 210.00002 72.5 0 0 1 765 535 A 210.00002 72.5 0 0 1 974.34766 602.00781 A 210.00002 72.5 0 0 0 975 597.5 A 210.00002 72.5 0 0 0 765 525 z "
       id="path4232-6"
       transform="translate(0,52.362289)" />
    <path
       style="color:#000000;clip-rule:nonzero;display:inline;overflow:visible;visibility:visible;opacity:1;isolation:auto;mix-blend-mode:normal;color-interpolation:sRGB;color-interpolation-filters:linearRGB;solid-color:#000000;solid-opacity:1;fill:#ffffff;fill-opacity:1;fill-rule:nonzero;stroke:none;stroke-width:6;stroke-linecap:butt;stroke-linejoin:miter;stroke-miterlimit:0;stroke-dasharray:none;stroke-dashoffset:0;stroke-opacity:1;color-rendering:auto;image-rendering:auto;shape-rendering:auto;text-rendering:auto;enable-background:accumulate"
       d="M 812.08789 658.07227 A 115 180 0 0 0 762 806.42773 A 115 180 0 0 0 772.42773 880.78516 A 110 225 0 0 1 771.59961 873.24219 A 110 225 0 0 1 770.27539 850.91602 A 110 225 0 0 1 770 835 A 110 225 0 0 1 770.54883 812.53711 A 110 225 0 0 1 772.19336 790.29883 A 110 225 0 0 1 774.91211 768.50781 A 110 225 0 0 1 778.68359 747.38086 A 110 225 0 0 1 783.4668 727.12891 A 110 225 0 0 1 789.21289 707.95508 A 110 225 0 0 1 795.86719 690.05078 A 110 225 0 0 1 803.36133 673.5957 A 110 225 0 0 1 811.62305 658.75195 A 110 225 0 0 1 812.08789 658.07227 z "
       id="path4723"
       transform="translate(0,52.362289)" />
    <path
       style="color:#000000;clip-rule:nonzero;display:inline;overflow:visible;visibility:visible;opacity:1;isolation:auto;mix-blend-mode:normal;color-interpolation:sRGB;color-interpolation-filters:linearRGB;solid-color:#000000;solid-opacity:1;fill:#ffffff;fill-opacity:1;fill-rule:nonzero;stroke:none;stroke-width:6;stroke-linecap:butt;stroke-linejoin:miter;stroke-miterlimit:0;stroke-dasharray:none;stroke-dashoffset:0;stroke-opacity:1;color-rendering:auto;image-rendering:auto;shape-rendering:auto;text-rendering:auto;enable-background:accumulate"
       d="M 765 490 A 227.5 92.5 0 0 0 537.5 582.5 A 227.5 92.5 0 0 0 765 675 A 227.5 92.5 0 0 0 992.5 582.5 A 227.5 92.5 0 0 0 765 490 z M 765 495 A 210.00002 72.5 0 0 1 975 567.5 A 210.00002 72.5 0 0 1 765 640 A 210.00002 72.5 0 0 1 555 567.5 A 210.00002 72.5 0 0 1 765 495 z "
       id="path4232-5"
       transform="translate(0,52.362289)" />
    <path
       style="color:#000000;clip-rule:nonzero;display:inline;overflow:visible;visibility:visible;opacity:1;isolation:auto;mix-blend-mode:normal;color-interpolation:sRGB;color-interpolation-filters:linearRGB;solid-color:#000000;solid-opacity:1;fill:#000000;fill-opacity:1;fill-rule:evenodd;stroke:none;stroke-width:1px;stroke-linecap:butt;stroke-linejoin:miter;stroke-miterlimit:4;stroke-dasharray:none;stroke-dashoffset:0;stroke-opacity:1;color-rendering:auto;image-rendering:auto;shape-rendering:auto;text-rendering:auto;enable-background:accumulate"
       d="M 418.18164,244.3125 C 278.78039,245.72848 139.3659,304.81412 45.902344,409.0957 22.55389,435.6543 3.2961359,465.64992 -12.255859,497.37109 95.940832,446.25381 218.60255,419.83982 337.86517,437.87482 c 114.29809,17.04916 221.11853,74.12275 304.18366,153.81268 -25.74728,7.60527 -77.12522,23.22691 -77.12522,23.22691 l 2.78224,19.74917 c 0,0 179.5647,32.68161 269.30392,49.18017 26.64917,-57.96801 53.30057,-115.93499 79.95117,-173.90234 -20.30457,6.0301 -40.60799,12.06408 -60.91211,18.0957 C 807.18601,435.28098 735.67772,352.04232 643.16274,300.88256 574.78843,262.86818 496.34008,243.56096 418.18164,244.3125 Z"
       id="path4153-3"
       inkscape:connector-curvature="0"
       sodipodi:nodetypes="cccccccccccc" />
    <path
       style="color:#000000;clip-rule:nonzero;display:inline;overflow:visible;visibility:visible;opacity:1;isolation:auto;mix-blend-mode:normal;color-interpolation:sRGB;color-interpolation-filters:linearRGB;solid-color:#000000;solid-opacity:1;fill:#ffffff;fill-opacity:1;fill-rule:evenodd;stroke:none;stroke-width:1px;stroke-linecap:butt;stroke-linejoin:miter;stroke-miterlimit:4;stroke-dasharray:none;stroke-dashoffset:0;stroke-opacity:1;color-rendering:auto;image-rendering:auto;shape-rendering:auto;text-rendering:auto;enable-background:accumulate"
       d="m 15,472.36229 c 134.61825,-233.16566 611.01768,-364.91825 835,70 l 45,-13.37836 -65,141.37836 -255,-46.24326 90,-26.75674 c -150.13816,-151.2141 -376.13007,-239.32115 -650,-125 z"
       id="path4153"
       inkscape:connector-curvature="0"
       sodipodi:nodetypes="ccccccc" />
    <circle
       style="color:#000000;clip-rule:nonzero;overflow:visible;visibility:visible;opacity:1;isolation:auto;mix-blend-mode:normal;color-interpolation:sRGB;color-interpolation-filters:linearRGB;solid-color:#000000;solid-opacity:1;fill:#000000;fill-opacity:1;fill-rule:nonzero;stroke:none;stroke-width:5;stroke-linecap:round;stroke-linejoin:miter;stroke-miterlimit:4;stroke-dasharray:none;stroke-dashoffset:0;stroke-opacity:0.39215686;color-rendering:auto;image-rendering:auto;shape-rendering:auto;text-rendering:auto;enable-background:accumulate"
       id="path4159-5"
       cx="473.04135"
       cy="319.32092"
       r="148.04135" />
    <circle
       style="color:#000000;clip-rule:nonzero;overflow:visible;visibility:visible;opacity:1;isolation:auto;mix-blend-mode:normal;color-interpolation:sRGB;color-interpolation-filters:linearRGB;solid-color:#000000;solid-opacity:1;fill:#ffffff;fill-opacity:1;fill-rule:nonzero;stroke:none;stroke-width:5;stroke-linecap:round;stroke-linejoin:miter;stroke-miterlimit:4;stroke-dasharray:none;stroke-dashoffset:0;stroke-opacity:0.39215686;color-rendering:auto;image-rendering:auto;shape-rendering:auto;text-rendering:auto;enable-background:accumulate"
       id="path4159"
       cx="473.04135"
       cy="319.32092"
       r="128.73161" />
    <path
       id="path4213"
       style="opacity:1;fill:#000000;fill-opacity:1;fill-rule:nonzero;stroke:none;stroke-width:2;stroke-linecap:butt;stroke-linejoin:round;stroke-miterlimit:4;stroke-dasharray:none;stroke-dashoffset:0;stroke-opacity:1"
       d="m 563.45055,294.80237 c -8.92986,8.04048 -27.03244,2.49344 -40.43324,-12.38966 -13.4008,-14.88309 -17.02522,-33.46633 -8.09536,-41.50681 l 32.87685,-29.60244 43.70708,16.41272 4.82152,37.48375 z"
       inkscape:connector-curvature="0"
       sodipodi:nodetypes="csccccc" />
    <path
       style="color:#000000;clip-rule:nonzero;display:inline;overflow:visible;visibility:visible;opacity:1;isolation:auto;mix-blend-mode:normal;color-interpolation:sRGB;color-interpolation-filters:linearRGB;solid-color:#000000;solid-opacity:1;fill:#ffffff;fill-opacity:1;fill-rule:nonzero;stroke:none;stroke-width:5;stroke-linecap:round;stroke-linejoin:miter;stroke-miterlimit:4;stroke-dasharray:none;stroke-dashoffset:0;stroke-opacity:0.39215686;color-rendering:auto;image-rendering:auto;shape-rendering:auto;text-rendering:auto;enable-background:accumulate"
       id="path4217"
       sodipodi:type="arc"
       sodipodi:cx="261.84967"
       sodipodi:cy="561.82574"
       sodipodi:rx="19.780516"
       sodipodi:ry="31.729622"
       sodipodi:start="0.72954763"
       sodipodi:end="5.5326937"
       d="m 276.59557,582.97457 a 19.780516,31.729622 0 0 1 -21.70551,8.55199 19.780516,31.729622 0 0 1 -12.81982,-29.36855 19.780516,31.729622 0 0 1 12.43358,-29.79277 19.780516,31.729622 0 0 1 21.8124,7.82095 l -14.46655,21.63955 z"
       transform="matrix(0.74314482,-0.66913061,0.66913061,0.74314482,0,0)" />
    <ellipse
       style="color:#000000;clip-rule:nonzero;display:inline;overflow:visible;visibility:visible;opacity:1;isolation:auto;mix-blend-mode:normal;color-interpolation:sRGB;color-interpolation-filters:linearRGB;solid-color:#000000;solid-opacity:1;fill:#000000;fill-opacity:1;fill-rule:nonzero;stroke:none;stroke-width:5;stroke-linecap:round;stroke-linejoin:miter;stroke-miterlimit:4;stroke-dasharray:none;stroke-dashoffset:0;stroke-opacity:0.39215686;color-rendering:auto;image-rendering:auto;shape-rendering:auto;text-rendering:auto;enable-background:accumulate"
       id="path4217-8"
       cx="271.21307"
       cy="561.82574"
       rx="17.390982"
       ry="22.664017"
       transform="matrix(0.74314482,-0.66913061,0.66913061,0.74314482,0,0)" />
    <path
       style="opacity:1;fill:#ffffff;fill-opacity:1;fill-rule:nonzero;stroke:none;stroke-width:2;stroke-linecap:butt;stroke-linejoin:round;stroke-miterlimit:4;stroke-dasharray:none;stroke-dashoffset:0;stroke-opacity:1"
       d="m 572.54838,238.79066 c 4.61287,5.41011 10.53992,4.66063 10.53992,4.66063 6.33809,-5.70685 29.64695,-23.8661 43.57889,-23.13596 21.09955,1.10578 23.44158,27.01516 35.10271,40.61132 1.8825,-7.56528 21.5243,-13.16493 14.06567,-18.5203 -6.9013,-4.9552 -16.29,-43.51308 -45.64263,-45.27194 -30.58715,-1.83284 -62.2778,31.63312 -62.2778,31.63312 0,0 0.0204,4.61302 4.63324,10.02313 z"
       id="path4234"
       inkscape:connector-curvature="0"
       sodipodi:nodetypes="zcscsscz" />
    <ellipse
       style="color:#000000;clip-rule:nonzero;display:inline;overflow:visible;visibility:visible;opacity:1;isolation:auto;mix-blend-mode:normal;color-interpolation:sRGB;color-interpolation-filters:linearRGB;solid-color:#000000;solid-opacity:1;fill:#000000;fill-opacity:1;fill-rule:nonzero;stroke:none;stroke-width:5;stroke-linecap:round;stroke-linejoin:miter;stroke-miterlimit:4;stroke-dasharray:none;stroke-dashoffset:0;stroke-opacity:0.39215686;color-rendering:auto;image-rendering:auto;shape-rendering:auto;text-rendering:auto;enable-background:accumulate"
       id="path4236-9"
       cx="18.572014"
       cy="721.30347"
       rx="15.236915"
       ry="12.480212"
       transform="matrix(0.40146742,-0.91587331,0.92509944,0.37972494,0,0)" />
    <path
       style="color:#000000;clip-rule:nonzero;overflow:visible;visibility:visible;opacity:1;isolation:auto;mix-blend-mode:normal;color-interpolation:sRGB;color-interpolation-filters:linearRGB;solid-color:#000000;solid-opacity:1;fill:#000000;fill-opacity:1;fill-rule:nonzero;stroke:none;stroke-width:5;stroke-linecap:round;stroke-linejoin:miter;stroke-miterlimit:4;stroke-dasharray:none;stroke-dashoffset:0;stroke-opacity:0.39215686;color-rendering:auto;image-rendering:auto;shape-rendering:auto;text-rendering:auto;enable-background:accumulate"
       d="m 374.49212,364.64897 c -18.93906,-42.53783 -10.16223,-92.3137 22.18346,-125.80865 32.34569,-33.49494 81.78494,-44.00358 124.95782,-26.5606 0,0 -62.72612,-1.06351 -107.35199,43.56235 -44.62586,44.62587 -39.78929,108.8069 -39.78929,108.8069 z"
       id="path4159-8"
       inkscape:connector-curvature="0"
       sodipodi:nodetypes="csczc" />
    <ellipse
       style="color:#000000;clip-rule:nonzero;display:inline;overflow:visible;visibility:visible;opacity:1;isolation:auto;mix-blend-mode:normal;color-interpolation:sRGB;color-interpolation-filters:linearRGB;solid-color:#000000;solid-opacity:1;fill:#ffffff;fill-opacity:1;fill-rule:nonzero;stroke:none;stroke-width:5;stroke-linecap:round;stroke-linejoin:miter;stroke-miterlimit:4;stroke-dasharray:none;stroke-dashoffset:0;stroke-opacity:0.39215686;color-rendering:auto;image-rendering:auto;shape-rendering:auto;text-rendering:auto;enable-background:accumulate"
       id="path4236"
       cx="17.362921"
       cy="728.86572"
       rx="15.236915"
       ry="12.480212"
       transform="matrix(0.40146742,-0.91587331,0.92509944,0.37972494,0,0)" />
  </g>
</svg>
