<?xml version="1.0" encoding="UTF-8" standalone="no"?>
<!-- Created with Inkscape (http://www.inkscape.org/) -->

<svg
   xmlns:dc="http://purl.org/dc/elements/1.1/"
   xmlns:cc="http://creativecommons.org/ns#"
   xmlns:rdf="http://www.w3.org/1999/02/22-rdf-syntax-ns#"
   xmlns:svg="http://www.w3.org/2000/svg"
   xmlns="http://www.w3.org/2000/svg"
   xmlns:sodipodi="http://sodipodi.sourceforge.net/DTD/sodipodi-0.dtd"
   xmlns:inkscape="http://www.inkscape.org/namespaces/inkscape"
   width="1000"
   height="1000"
   viewBox="0 0 999.9999880656118 999.9999880410413"
   id="svg4166"
   version="1.1"
   inkscape:version="0.91 r13725"
   sodipodi:docname="RE-modes-duel.svg">
  <defs
     id="defs4168" />
  <sodipodi:namedview
     id="base"
     pagecolor="#000000"
     bordercolor="#666666"
     borderopacity="1.0"
     inkscape:pageopacity="0"
     inkscape:pageshadow="2"
     inkscape:zoom="0.4949747466999914"
     inkscape:cx="120.5787282171278"
     inkscape:cy="324.84939709184"
     inkscape:document-units="px"
     inkscape:current-layer="layer1"
     showgrid="false"
     units="px"
     showguides="true"
     inkscape:showpageshadow="false"
     showborder="true" />
  <metadata
     id="metadata4171">
    <rdf:RDF>
      <cc:Work
         rdf:about="">
        <dc:format>image/svg+xml</dc:format>
        <dc:type
           rdf:resource="http://purl.org/dc/dcmitype/StillImage" />
        <dc:title />
      </cc:Work>
    </rdf:RDF>
  </metadata>
  <g
     inkscape:label="Ebene 1"
     inkscape:groupmode="layer"
     id="layer1"
     transform="translate(0,-52.36228930856214)">
    <g
       id="g4226"
       transform="translate(-90.94017706425211,4.4696554753275)">
      <path
         sodipodi:nodetypes="cccccccssccscccccccscccc"
         inkscape:connector-curvature="0"
         id="path4146-4"
         d="m 646.4991378916547,238.6381762786917 -35.2235379044273,24.6637867630953 2.869582235243,16.302315718792 -121.2345029091874,84.8893128281203 1.6400044964828,11.0594023764795 -81.915204428899,57.3576436351045 -29.4945737548663,-15.9709147834041 -98.2982453146788,68.8291723621253 c -17.9420687808443,12.5631718114245 -32.3789253846874,46.4371926762187 -23.3381830215423,71.2764281740668 12.1307392040096,33.3289320443089 38.5103464025074,46.2812404755845 38.5103464025074,46.2812404755845 l -9.7456992575051,22.694081739128 c 160.246473181928,-29.0208324506715 57.3319678605289,83.7970252593691 119.9633005248191,199.2204972566634 13.297024910207,24.5051273393342 49.5680489736648,32.4346808361718 49.5680489736648,32.4346808361718 l 102.3940055361236,-71.6970545438816 -6.9670425101754,-25.640989034384 -5.9628630949744,-4.5007093528285 -40.7526041783231,-133.6972107380231 45.053362435894,-31.5467039993074 -16.6388168146428,-60.3750757764225 c -1.2605573155263,-14.40823604709 19.3006303586595,-27.1830094558853 34.2412354726748,-19.0928728405347 L 590.8307999497533,521.7724838975068 774.3208578704877,393.291362154873 740.0626218629372,290.3186800219355 Z"
         style="opacity:1;fill:#ffffff;fill-opacity:1;fill-rule:nonzero;stroke:none;stroke-width:50;stroke-linecap:butt;stroke-linejoin:round;stroke-miterlimit:4;stroke-dasharray:none;stroke-dashoffset:0;stroke-opacity:1" />
      <path
         inkscape:connector-curvature="0"
         id="path4146-44"
         d="m 509.740234375,217.306640625 c -35.7980787007943,17.2920388794064 -70.9835447678786,36.2374610980229 -104.404296875,57.875 -18.4494192379198,32.0718976240724 -23.9924140077799,69.5678475327479 -38.0303510496851,103.4651953131088 -4.0881137541699,11.5959861279248 -3.0048676963762,27.0655462160214 8.4268354246851,34.1012109368912 16.6894241331941,12.8642206836446 34.716060323417,23.6178764484994 51.541015625,36.291015625 45.0683407797985,31.2620631461814 89.1499809517499,64.1796966592851 135.541015625,93.39453125 13.9391547341845,4.0547841943041 25.3051270920269,-7.8453830057535 37.5390625,-11.77734375 1.0793132794474,2.9347005079147 -2.3480425100636,5.443797476749 -2.1275838175987,8.6160125178083 C 593.1633273192785,558.8016893112469 583.0150270477729,578.8515600440364 587.56640625,599.513671875 c 9.1730614356381,14.3997305570826 25.2987469266631,21.5470358004108 38.560546875,31.40234375 -13.4716309334329,38.2129586247888 -21.178865191426,78.4568791018226 -37.611328125,115.580078125 -8.0497375774617,12.6756161845198 -11.4760876135099,28.0691368676348 -11.703125,42.892578125 2.72803432987,15.0620178024795 18.6703534856003,21.1800281009855 29.7234513948476,29.0825567269263 C 636.3209257887865,838.6563243209484 663.969978661378,862.7617008129111 696.6953125,878.111328125 c 13.4048595672886,1.9973155452072 26.306194264645,-4.4088907325583 38.115234375,-9.869140625 25.9104036442636,-14.0992107970563 42.8103686474298,-40.7279636782264 49.9120518492286,-68.8311396418524 C 798.4816700960232,754.7755963550614 793.9722693196031,707.4491675621927 796.2421875,661.537109375 c 1.0748805399649,-9.2239676590182 8.6018659575529,-17.0268979909793 18.05859375,-17.46484375 21.8210233776426,-4.1402297277089 44.0928192295423,7.2113411918129 65.62109375,0.501953125 12.1065612557564,-6.3316708941474 13.9530580085446,-23.3640704661414 7.78515625,-34.439453125 C 919.7834945030845,585.4560934085925 933.4196110781989,537.659396319309 914.5625,500.953125 902.9386324725171,476.3653886054863 879.9886582005417,459.905635843445 857.1448161065245,446.5672035032708 831.3889488703074,428.9102232550231 807.4273692904937,407.6917480195143 778.306640625,395.65234375 767.4264627926727,395.6111640012464 757.9406560176394,401.9033105067724 749,407.25390625 729.3304657437772,392.4210232154187 708.017068246432,379.8444084487626 688.962890625,364.18359375 687.2151532420982,348.5047697451847 672.1937576569705,339.8420842498181 659.9894711875831,332.5386855384143 630.2328377646366,311.5091537009796 599.8416777975935,291.0153195700696 570.5625,269.52734375 c 1.4853871336431,-13.9487206305793 -8.2567632761973,-27.0217942410382 -20.83203125,-32.142578125 -11.9580812857492,-8.7562241485332 -24.1076316430371,-20.3922686295055 -39.990234375,-20.078125 z"
         style="opacity:1;fill:#000000;fill-opacity:1;fill-rule:nonzero;stroke:none;stroke-width:50;stroke-linecap:butt;stroke-linejoin:round;stroke-miterlimit:4;stroke-dasharray:none;stroke-dashoffset:0;stroke-opacity:1" />
      <path
         sodipodi:nodetypes="cccccccssccscccccccscccc"
         inkscape:connector-curvature="0"
         id="path4146"
         d="m 513.6306809795626,238.6381762786916 35.2235379044266,24.6637867630949 -2.8695822352429,16.3023157187922 121.234502909188,84.8893128281203 -1.6400044964828,11.0594023764795 81.9152044288992,57.3576436351046 29.4945737548667,-15.970914783404 98.2982453146783,68.8291723621253 c 17.9420687808447,12.5631718114244 32.3789253846876,46.4371926762194 23.3381830215428,71.276428174067 -12.1307392040102,33.3289320443095 -38.5103464025076,46.2812404755846 -38.5103464025076,46.2812404755846 l 9.7456992575053,22.6940817391287 C 709.614221254508,596.999813117113 812.5287265759068,709.817670827153 749.8973939116167,825.2411428244477 c -13.2970249102076,24.5051273393353 -49.5680489736651,32.4346808361714 -49.5680489736651,32.4346808361714 l -102.3940055361238,-71.6970545438809 6.9670425101756,-25.6409890343839 5.9628630949745,-4.5007093528286 40.7526041783232,-133.6972107380235 -45.0533624358947,-31.5467039993074 16.6388168146425,-60.3750757764222 c 1.2605573155264,-14.4082360470906 -19.3006303586601,-27.1830094558862 -34.2412354726747,-19.0928728405347 l -19.663049169911,10.647276522269 -183.4900579207338,-128.4811217426341 34.2582360075503,-102.9726821329375 z"
         style="opacity:1;fill:#ffffff;fill-opacity:1;fill-rule:nonzero;stroke:none;stroke-width:50;stroke-linecap:butt;stroke-linejoin:round;stroke-miterlimit:4;stroke-dasharray:none;stroke-dashoffset:0;stroke-opacity:1" />
    </g>
  </g>
</svg>
