<?xml version="1.0" encoding="UTF-8" standalone="no"?>
<!-- Created with Inkscape (http://www.inkscape.org/) -->

<svg
   xmlns:dc="http://purl.org/dc/elements/1.1/"
   xmlns:cc="http://creativecommons.org/ns#"
   xmlns:rdf="http://www.w3.org/1999/02/22-rdf-syntax-ns#"
   xmlns:svg="http://www.w3.org/2000/svg"
   xmlns="http://www.w3.org/2000/svg"
   xmlns:sodipodi="http://sodipodi.sourceforge.net/DTD/sodipodi-0.dtd"
   xmlns:inkscape="http://www.inkscape.org/namespaces/inkscape"
   width="1000"
   height="1000"
   viewBox="0 0 999.9999880656118 999.9999880410413"
   id="svg4166"
   version="1.1"
   inkscape:version="0.91 r13725"
   sodipodi:docname="RE-modes-bomberhold.svg">
  <defs
     id="defs4168" />
  <sodipodi:namedview
     id="base"
     pagecolor="#000000"
     bordercolor="#666666"
     borderopacity="1.0"
     inkscape:pageopacity="0"
     inkscape:pageshadow="2"
     inkscape:zoom="0.6999999996305816"
     inkscape:cx="281.0381802747484"
     inkscape:cy="577.8999787920583"
     inkscape:document-units="px"
     inkscape:current-layer="layer1"
     showgrid="false"
     units="px"
     showguides="true"
     inkscape:showpageshadow="false"
     showborder="true"
     inkscape:object-nodes="true"
     inkscape:snap-intersection-paths="true"
     inkscape:object-paths="true"
     inkscape:snap-smooth-nodes="true"
     inkscape:snap-nodes="false" />
  <metadata
     id="metadata4171">
    <rdf:RDF>
      <cc:Work
         rdf:about="">
        <dc:format>image/svg+xml</dc:format>
        <dc:type
           rdf:resource="http://purl.org/dc/dcmitype/StillImage" />
        <dc:title></dc:title>
      </cc:Work>
    </rdf:RDF>
  </metadata>
  <g
     inkscape:label="Ebene 1"
     inkscape:groupmode="layer"
     id="layer1"
     transform="translate(0,-52.36228930856214)">
    <circle
       style="color:#000000;clip-rule:nonzero;overflow:visible;visibility:visible;opacity:1;isolation:auto;mix-blend-mode:normal;color-interpolation:sRGB;color-interpolation-filters:linearRGB;solid-color:#000000;solid-opacity:1;fill:#ffffff;fill-opacity:1;fill-rule:nonzero;stroke:none;stroke-width:5;stroke-linecap:round;stroke-linejoin:miter;stroke-miterlimit:4;stroke-dasharray:none;stroke-dashoffset:0;stroke-opacity:0.39215686;color-rendering:auto;image-rendering:auto;shape-rendering:auto;text-rendering:auto;enable-background:accumulate"
       id="path4159"
       cx="372.4068"
       cy="552.3623"
       r="355" />
    <path
       id="path4213"
       style="opacity:1;fill:#000000;fill-opacity:1;fill-rule:nonzero;stroke:none;stroke-width:2;stroke-linecap:butt;stroke-linejoin:round;stroke-miterlimit:4;stroke-dasharray:none;stroke-dashoffset:0;stroke-opacity:1"
       d="m 621.726,484.74803 c -24.62565,22.17304 -74.54669,6.87611 -111.50175,-34.16665 -36.95506,-41.04275 -46.95003,-92.28928 -22.32437,-114.46231 l 90.66368,-81.63393 120.52994,45.26095 13.29618,103.36802 z"
       inkscape:connector-curvature="0"
       sodipodi:nodetypes="csccccc" />
    <path
       style="color:#000000;clip-rule:nonzero;display:inline;overflow:visible;visibility:visible;opacity:1;isolation:auto;mix-blend-mode:normal;color-interpolation:sRGB;color-interpolation-filters:linearRGB;solid-color:#000000;solid-opacity:1;fill:#ffffff;fill-opacity:1;fill-rule:nonzero;stroke:none;stroke-width:5;stroke-linecap:round;stroke-linejoin:miter;stroke-miterlimit:4;stroke-dasharray:none;stroke-dashoffset:0;stroke-opacity:0.39215686;color-rendering:auto;image-rendering:auto;shape-rendering:auto;text-rendering:auto;enable-background:accumulate"
       id="path4217"
       sodipodi:type="arc"
       sodipodi:cx="249.04308"
       sodipodi:cy="681.7287"
       sodipodi:rx="54.548241"
       sodipodi:ry="87.5"
       sodipodi:start="0.72954763"
       sodipodi:end="5.5326937"
       d="m 289.70748,740.05029 a 54.548241,87.5 0 0 1 -59.85675,23.58362 54.548241,87.5 0 0 1 -35.3529,-80.98893 54.548241,87.5 0 0 1 34.28778,-82.15879 54.548241,87.5 0 0 1 60.15152,21.56765 l -39.89405,59.67486 z"
       transform="matrix(0.74314483,-0.66913061,0.66913061,0.74314483,0,0)" />
    <ellipse
       style="color:#000000;clip-rule:nonzero;display:inline;overflow:visible;visibility:visible;opacity:1;isolation:auto;mix-blend-mode:normal;color-interpolation:sRGB;color-interpolation-filters:linearRGB;solid-color:#000000;solid-opacity:1;fill:#000000;fill-opacity:1;fill-rule:nonzero;stroke:none;stroke-width:5;stroke-linecap:round;stroke-linejoin:miter;stroke-miterlimit:4;stroke-dasharray:none;stroke-dashoffset:0;stroke-opacity:0.39215686;color-rendering:auto;image-rendering:auto;shape-rendering:auto;text-rendering:auto;enable-background:accumulate"
       id="path4217-8"
       cx="274.86432"
       cy="681.7287"
       rx="47.958683"
       ry="62.5"
       transform="matrix(0.74314483,-0.66913061,0.66913061,0.74314483,0,0)" />
    <path
       style="opacity:1;fill:#ffffff;fill-opacity:1;fill-rule:nonzero;stroke:none;stroke-width:2;stroke-linecap:butt;stroke-linejoin:round;stroke-miterlimit:4;stroke-dasharray:none;stroke-dashoffset:0;stroke-opacity:1"
       d="m 646.81488,330.28592 c 12.7208,14.91932 29.06567,12.8525 29.06567,12.8525 17.4784,-15.73763 81.75667,-65.81496 120.17643,-63.80146 58.18571,3.04938 64.64428,74.49904 96.80189,111.99282 5.19131,-20.86257 59.35703,-36.3046 38.78856,-51.07296 C 912.61587,326.59197 886.7249,220.26187 805.77986,215.41149 721.43044,210.35711 634.0379,302.64536 634.0379,302.64536 c 0,0 0.0562,12.72123 12.77698,27.64056 z"
       id="path4234"
       inkscape:connector-curvature="0"
       sodipodi:nodetypes="zcscsscz" />
    <ellipse
       style="color:#000000;clip-rule:nonzero;display:inline;overflow:visible;visibility:visible;opacity:1;isolation:auto;mix-blend-mode:normal;color-interpolation:sRGB;color-interpolation-filters:linearRGB;solid-color:#000000;solid-opacity:1;fill:#000000;fill-opacity:1;fill-rule:nonzero;stroke:none;stroke-width:5;stroke-linecap:round;stroke-linejoin:miter;stroke-miterlimit:4;stroke-dasharray:none;stroke-dashoffset:0;stroke-opacity:0.39215686;color-rendering:auto;image-rendering:auto;shape-rendering:auto;text-rendering:auto;enable-background:accumulate"
       id="path4236-9"
       cx="0.90186656"
       cy="1003.4015"
       rx="42.018467"
       ry="34.416374"
       transform="matrix(0.40146742,-0.9158733,0.92509944,0.37972493,0,0)" />
    <path
       style="color:#000000;clip-rule:nonzero;overflow:visible;visibility:visible;opacity:1;isolation:auto;mix-blend-mode:normal;color-interpolation:sRGB;color-interpolation-filters:linearRGB;solid-color:#000000;solid-opacity:1;fill:#000000;fill-opacity:1;fill-rule:nonzero;stroke:none;stroke-width:5;stroke-linecap:round;stroke-linejoin:miter;stroke-miterlimit:4;stroke-dasharray:none;stroke-dashoffset:0;stroke-opacity:0.39215686;color-rendering:auto;image-rendering:auto;shape-rendering:auto;text-rendering:auto;enable-background:accumulate"
       d="M 100.63999,677.36229 C 48.412203,560.05676 72.615853,422.79105 161.81477,330.42286 c 89.19892,-92.36818 225.53632,-121.34759 344.59312,-73.24552 0,0 -172.9783,-2.93282 -296.04195,120.13084 C 87.302282,500.37183 100.63999,677.36229 100.63999,677.36229 Z"
       id="path4159-8"
       inkscape:connector-curvature="0"
       sodipodi:nodetypes="csczc" />
    <ellipse
       style="color:#000000;clip-rule:nonzero;display:inline;overflow:visible;visibility:visible;opacity:1;isolation:auto;mix-blend-mode:normal;color-interpolation:sRGB;color-interpolation-filters:linearRGB;solid-color:#000000;solid-opacity:1;fill:#ffffff;fill-opacity:1;fill-rule:nonzero;stroke:none;stroke-width:5;stroke-linecap:round;stroke-linejoin:miter;stroke-miterlimit:4;stroke-dasharray:none;stroke-dashoffset:0;stroke-opacity:0.39215686;color-rendering:auto;image-rendering:auto;shape-rendering:auto;text-rendering:auto;enable-background:accumulate"
       id="path4236"
       cx="-2.4324229"
       cy="1024.2557"
       rx="42.018467"
       ry="34.416374"
       transform="matrix(0.40146742,-0.9158733,0.92509944,0.37972493,0,0)" />
    <g
       id="g4536"
       transform="matrix(-1,0,0,1,651.99998,0)">
      <path
         inkscape:connector-curvature="0"
         id="path4289-7-8"
         d="m 332.46345,423.24288 c -28.95606,0.0773 -57.3718,6.61761 -85.29961,13.65422 10.24317,38.22654 20.4872,76.45287 30.72846,114.67993 62.46994,-27.24242 142.76627,-3.78375 180.12156,53.76386 33.63158,49.78403 33.59046,120.53931 -2.86128,168.84545 -33.60979,47.0045 -96.02302,71.59239 -152.31443,57.53821 -46.61219,-10.62808 -87.12066,-44.13981 -104.26241,-89.06997 -8.68558,-21.17597 -11.12621,-44.2791 -11.83883,-66.70624 -4.24921,-9.62547 -16.67631,-9.23761 -25.49503,-8.47647 -30.06102,0 -60.12205,0 -90.183066,0 -6.83417,94.55754 40.129266,191.99164 120.850916,242.61972 74.7119,48.72827 174.86056,56.36142 255.41229,17.50236 74.16493,-34.31378 130.97401,-104.57447 146.9656,-184.95528 16.68007,-77.91975 -3.57168,-163.2635 -55.48137,-224.05982 -49.7514,-60.01891 -126.92963,-96.55323 -205.05433,-95.34041 l -1.01805,0.003 -0.27042,9.3e-4 z"
         style="fill:#000000;fill-opacity:1" />
      <path
         inkscape:connector-curvature="0"
         id="path4306-0"
         d="M 124.46874,568.15616 C 82.987264,614.83378 41.489129,661.51574 3.684628e-6,708.19393 c 89.185555315372,0 178.371116315372,0 267.556686315372,0 -47.21745,-47.21744 -94.43489,-94.43489 -141.65234,-141.65234 -0.47854,0.5382 -0.95707,1.07638 -1.43561,1.61457 z"
         style="fill:#000000;fill-opacity:1;fill-rule:evenodd;stroke:none;stroke-width:1px;stroke-linecap:butt;stroke-linejoin:miter;stroke-opacity:1" />
      <path
         style="fill:#ffffff;fill-opacity:1"
         d="m 344.81015,443.67691 a 244.33238,244.33238 0 0 0 -72.56747,8.14897 l 19.77868,73.82013 A 167.9785,167.9785 0 0 1 335.48028,519.85236 167.9785,167.9785 0 0 1 503.46035,687.83243 167.9785,167.9785 0 0 1 335.48028,855.8125 167.9785,167.9785 0 0 1 167.50021,687.83243 l 50.90326,0 -91.62519,-91.62519 -81.443891,91.62519 45.814214,0 A 244.33238,244.33238 0 0 0 256.94301,919.19688 244.33238,244.33238 0 0 0 529.323,836.57208 244.33238,244.33238 0 0 0 538.63656,552.08936 244.33238,244.33238 0 0 0 344.81015,443.67691 Z"
         id="path4289-7-9"
         inkscape:connector-curvature="0" />
      <circle
         transform="matrix(-0.90630779,0.42261826,-0.42261826,-0.90630779,0,0)"
         id="path4239-6-8-5-7-3-6"
         style="color:#000000;clip-rule:nonzero;display:inline;overflow:visible;visibility:visible;opacity:1;isolation:auto;mix-blend-mode:normal;color-interpolation:sRGB;color-interpolation-filters:linearRGB;solid-color:#000000;solid-opacity:1;fill:#000000;fill-opacity:1;fill-rule:nonzero;stroke:none;stroke-width:5;stroke-linecap:round;stroke-linejoin:miter;stroke-miterlimit:4;stroke-dasharray:none;stroke-dashoffset:0;stroke-opacity:0.39215686;color-rendering:auto;image-rendering:auto;shape-rendering:auto;text-rendering:auto;enable-background:accumulate"
         cx="-12.063342"
         cy="-767.83789"
         r="41" />
      <circle
         transform="matrix(-0.90630779,0.42261826,-0.42261826,-0.90630779,0,0)"
         id="path4239-6-8-5-7-3"
         style="color:#000000;clip-rule:nonzero;display:inline;overflow:visible;visibility:visible;opacity:1;isolation:auto;mix-blend-mode:normal;color-interpolation:sRGB;color-interpolation-filters:linearRGB;solid-color:#000000;solid-opacity:1;fill:#ffffff;fill-opacity:1;fill-rule:nonzero;stroke:none;stroke-width:5;stroke-linecap:round;stroke-linejoin:miter;stroke-miterlimit:4;stroke-dasharray:none;stroke-dashoffset:0;stroke-opacity:0.39215686;color-rendering:auto;image-rendering:auto;shape-rendering:auto;text-rendering:auto;enable-background:accumulate"
         cx="-12.063333"
         cy="-767.83789"
         r="23.621979" />
      <path
         sodipodi:nodetypes="cccc"
         inkscape:connector-curvature="0"
         id="path4551-7-6"
         d="M 364.61185,662.59291 479.5799,632.51778 374.0178,687.09626 Z"
         style="opacity:1;fill:#000000;fill-opacity:1;stroke:none;stroke-width:20;stroke-linecap:butt;stroke-linejoin:miter;stroke-miterlimit:4;stroke-dasharray:none;stroke-dashoffset:260;stroke-opacity:1" />
      <path
         style="opacity:1;fill:#000000;fill-opacity:1;stroke:none;stroke-width:20;stroke-linecap:butt;stroke-linejoin:miter;stroke-miterlimit:4;stroke-dasharray:none;stroke-dashoffset:260;stroke-opacity:1"
         d="m 367.51736,707.72313 48.39776,69.44115 -64.0018,-55.39121 z"
         id="path4551-1-0-0"
         inkscape:connector-curvature="0"
         sodipodi:nodetypes="cccc" />
    </g>
  </g>
</svg>
