<?xml version="1.0" encoding="UTF-8" standalone="no"?>
<!-- Created with Inkscape (http://www.inkscape.org/) -->

<svg
   xmlns:dc="http://purl.org/dc/elements/1.1/"
   xmlns:cc="http://creativecommons.org/ns#"
   xmlns:rdf="http://www.w3.org/1999/02/22-rdf-syntax-ns#"
   xmlns:svg="http://www.w3.org/2000/svg"
   xmlns="http://www.w3.org/2000/svg"
   xmlns:sodipodi="http://sodipodi.sourceforge.net/DTD/sodipodi-0.dtd"
   xmlns:inkscape="http://www.inkscape.org/namespaces/inkscape"
   width="1000"
   height="1000"
   viewBox="0 0 999.9999880656118 999.9999880410413"
   id="svg4166"
   version="1.1"
   inkscape:version="0.92.0 r"
   sodipodi:docname="RE-modes-defend.svg">
  <defs
     id="defs4168">
    <pattern
       y="0"
       x="0"
       height="6"
       width="6"
       patternUnits="userSpaceOnUse"
       id="EMFhbasepattern" />
    <pattern
       y="0"
       x="0"
       height="6"
       width="6"
       patternUnits="userSpaceOnUse"
       id="EMFhbasepattern-0" />
  </defs>
  <sodipodi:namedview
     id="base"
     pagecolor="#000000"
     bordercolor="#666666"
     borderopacity="1.0"
     inkscape:pageopacity="0"
     inkscape:pageshadow="2"
     inkscape:zoom="0.6999999996306545"
     inkscape:cx="459.1565775240073"
     inkscape:cy="503.7777245416161"
     inkscape:document-units="px"
     inkscape:current-layer="layer1"
     showgrid="false"
     units="px"
     showguides="false"
     inkscape:showpageshadow="false"
     showborder="true"
     inkscape:object-paths="true"
     inkscape:snap-intersection-paths="true"
     inkscape:object-nodes="true"
     inkscape:snap-smooth-nodes="true" />
  <metadata
     id="metadata4171">
    <rdf:RDF>
      <cc:Work
         rdf:about="">
        <dc:format>image/svg+xml</dc:format>
        <dc:type
           rdf:resource="http://purl.org/dc/dcmitype/StillImage" />
        <dc:title />
      </cc:Work>
    </rdf:RDF>
  </metadata>
  <g
     inkscape:label="Ebene 1"
     inkscape:groupmode="layer"
     id="layer1"
     transform="translate(0,-52.36228930856214)">
    <path
       sodipodi:nodetypes="cccc"
       inkscape:connector-curvature="0"
       id="path3016"
       d="M 458.88018,190.21082 C 216.05316,174.04205 249.95977,310.19177 240.35803,345.03943 l 95.10679,0 z"
       style="display:inline;fill:#ffffff;fill-opacity:1;stroke:none;stroke-width:3.26572108px;stroke-linecap:butt;stroke-linejoin:miter;stroke-opacity:0" />
    <path
       style="display:inline;fill:#ffffff;fill-opacity:1;stroke:none;stroke-width:3.47557473px;stroke-linecap:butt;stroke-linejoin:miter;stroke-opacity:0"
       d="m 386.31975,331.27952 -34.01125,35.42101 -127.82075,0 1.49437,-29.06863 -73.44025,88.5766 0,86.89739 21.49004,21.49004 44.34428,0 0,-60.92034 112.87835,0 23.29682,24.29264 44.5122,-46.43744 -34.79489,60.26558 -18.26959,0 -25.20514,-26.50296 -91.44688,0 0,30.61508 38.49566,41.4857 22.79826,0 0,-23.54544 22.42467,0 0,23.54544 89.25871,0 46.78499,-56.06102 0,-110.25669 z"
       id="path4341"
       inkscape:connector-curvature="0"
       sodipodi:nodetypes="cccccccccccccccccccccccccc" />
    <path
       sodipodi:nodetypes="ccsccccc"
       id="path3786-0"
       d="m 10,424.49945 270.66992,0 c 2.49179,0 4.47004,1.0886 5.82096,2.49731 l 68.06025,70.97205 44.51231,-46.43825 -34.79502,60.2663 -354.193085,2.5e-4 z"
       style="display:inline;fill:#000000;fill-opacity:1;stroke:none;stroke-width:3.47557473px;stroke-linecap:butt;stroke-linejoin:miter;stroke-opacity:0"
       inkscape:connector-curvature="0" />
    <path
       sodipodi:nodetypes="cccccc"
       inkscape:connector-curvature="0"
       id="path3813-8"
       d="m 18.432527,440.56659 258.790843,0 52.46055,55.16445 -277.155891,0 -34.095502,-31.12619 z"
       style="color:#000000;font-style:normal;font-variant:normal;font-weight:normal;font-stretch:normal;font-size:medium;line-height:normal;font-family:sans-serif;text-indent:0;text-align:start;text-decoration:none;text-decoration-line:none;text-decoration-style:solid;text-decoration-color:#000000;letter-spacing:normal;word-spacing:normal;text-transform:none;direction:ltr;block-progression:tb;writing-mode:lr-tb;baseline-shift:baseline;text-anchor:start;white-space:normal;clip-rule:nonzero;display:inline;overflow:visible;visibility:visible;opacity:1;isolation:auto;mix-blend-mode:normal;color-interpolation:sRGB;color-interpolation-filters:linearRGB;solid-color:#000000;solid-opacity:1;fill:#ffffff;fill-opacity:1;fill-rule:nonzero;stroke:none;stroke-width:24;stroke-linecap:butt;stroke-linejoin:round;stroke-miterlimit:4;stroke-dasharray:none;stroke-dashoffset:0;stroke-opacity:1;color-rendering:auto;image-rendering:auto;shape-rendering:auto;text-rendering:auto;enable-background:accumulate" />
    <path
       sodipodi:nodetypes="cccccccccccc"
       inkscape:connector-curvature="0"
       id="path4156"
       d="m 327.08417,620.91188 122.01111,220.29788 -13.55679,16.94596 124.46151,0 -157.67564,-284.69261 -137.60143,0 -74.28936,88.11915 0,176.23826 -16.26815,20.3352 95.98023,0 0,-169.45988 z"
       style="opacity:1;fill:#ffffff;fill-opacity:1;fill-rule:nonzero;stroke:none;stroke-width:40.47000122;stroke-linecap:round;stroke-linejoin:round;stroke-miterlimit:4;stroke-dasharray:none;stroke-dashoffset:260;stroke-opacity:1" />
    <path
       sodipodi:nodetypes="cccc"
       inkscape:connector-curvature="0"
       id="path3016-8"
       d="M 536.11978,158.21082 C 778.9468,142.04205 745.04019,278.19177 754.64192,313.03943 l -95.10679,0 z"
       style="display:inline;fill:#ffffff;fill-opacity:1;stroke:none;stroke-width:3.26572108px;stroke-linecap:butt;stroke-linejoin:miter;stroke-opacity:0" />
    <path
       style="display:inline;fill:#ffffff;fill-opacity:1;stroke:none;stroke-width:3.47557473px;stroke-linecap:butt;stroke-linejoin:miter;stroke-opacity:0"
       d="m 608.6802,299.27952 34.01125,35.42101 127.82076,0 -1.49437,-29.06863 73.44024,88.5766 0,86.89739 -21.49003,21.49004 -44.34428,0 0,-60.92034 -112.87835,0 -23.29682,24.29264 -44.5122,-46.43744 34.79488,60.26558 18.26959,0 25.20514,-26.50296 91.44689,0 0,30.61508 -38.49566,41.4857 -22.79826,0 0,-23.54544 -22.42468,0 0,23.54544 -89.2587,0 -46.785,-56.06102 0,-110.25669 z"
       id="path4341-7"
       inkscape:connector-curvature="0"
       sodipodi:nodetypes="cccccccccccccccccccccccccc" />
    <path
       sodipodi:nodetypes="ccsccccc"
       id="path3786-0-6"
       d="m 984.99996,392.49945 -270.66992,0 c -2.4918,0 -4.47004,1.0886 -5.82096,2.49731 l -68.06026,70.97205 -44.5123,-46.43825 34.79502,60.2663 354.19308,2.5e-4 z"
       style="display:inline;fill:#000000;fill-opacity:1;stroke:none;stroke-width:3.47557473px;stroke-linecap:butt;stroke-linejoin:miter;stroke-opacity:0"
       inkscape:connector-curvature="0" />
    <path
       sodipodi:nodetypes="cccccc"
       inkscape:connector-curvature="0"
       id="path3813-8-4"
       d="m 976.56743,408.56659 -258.79084,0 -52.46055,55.16445 277.15589,0 34.0955,-31.12619 z"
       style="color:#000000;font-style:normal;font-variant:normal;font-weight:normal;font-stretch:normal;font-size:medium;line-height:normal;font-family:sans-serif;text-indent:0;text-align:start;text-decoration:none;text-decoration-line:none;text-decoration-style:solid;text-decoration-color:#000000;letter-spacing:normal;word-spacing:normal;text-transform:none;direction:ltr;block-progression:tb;writing-mode:lr-tb;baseline-shift:baseline;text-anchor:start;white-space:normal;clip-rule:nonzero;display:inline;overflow:visible;visibility:visible;opacity:1;isolation:auto;mix-blend-mode:normal;color-interpolation:sRGB;color-interpolation-filters:linearRGB;solid-color:#000000;solid-opacity:1;fill:#ffffff;fill-opacity:1;fill-rule:nonzero;stroke:none;stroke-width:24;stroke-linecap:butt;stroke-linejoin:round;stroke-miterlimit:4;stroke-dasharray:none;stroke-dashoffset:0;stroke-opacity:1;color-rendering:auto;image-rendering:auto;shape-rendering:auto;text-rendering:auto;enable-background:accumulate" />
    <path
       sodipodi:nodetypes="cccccccccccc"
       inkscape:connector-curvature="0"
       id="path4156-2"
       d="m 667.91579,588.91188 -122.01112,220.29788 13.55679,16.94596 -124.46151,0 157.67565,-284.69261 137.60143,0 74.28936,88.11915 0,176.23826 16.26815,20.3352 -95.98023,0 0,-169.45988 z"
       style="opacity:1;fill:#ffffff;fill-opacity:1;fill-rule:nonzero;stroke:none;stroke-width:40.47000122;stroke-linecap:round;stroke-linejoin:round;stroke-miterlimit:4;stroke-dasharray:none;stroke-dashoffset:260;stroke-opacity:1" />
    <path
       style="color:#000000;clip-rule:nonzero;display:inline;overflow:visible;visibility:visible;opacity:1;isolation:auto;mix-blend-mode:normal;color-interpolation:sRGB;color-interpolation-filters:linearRGB;solid-color:#000000;solid-opacity:1;fill:#000000;fill-opacity:1;fill-rule:evenodd;stroke:none;stroke-width:1px;stroke-linecap:butt;stroke-linejoin:miter;stroke-miterlimit:4;stroke-dasharray:none;stroke-dashoffset:0;stroke-opacity:1;color-rendering:auto;image-rendering:auto;shape-rendering:auto;text-rendering:auto;enable-background:accumulate"
       d="m 431.58984,747.9707 c -26.88306,4.75562 -53.91877,9.52694 -80.86132,14.28516 -3.58279,11.92927 -7.16252,23.85945 -10.74414,35.78906 -31.28387,0.77697 -64.11582,-4.27634 -94.0625,7.25586 -20.85178,11.04287 -29.38551,34.70767 -39.48017,54.51156 -8.74115,17.80303 -17.40261,35.69154 -27.80109,52.60563 13.22108,4.50235 19.06382,21.94089 34.19532,22.34961 37.40919,0.83978 75.02164,-1.96254 112.2207,1.36914 19.046,8.86589 40.33095,10.45582 60.95898,12.2832 -1.32393,10.04094 3.91403,22.71025 15.16211,23.74024 12.99498,2.0484 26.08435,3.48151 39.05469,5.625 34.36806,3.45363 68.99493,1.90144 103.45117,1.25 22.25076,-1.55509 44.46478,-4.77517 66.34571,-8.68946 6.5104,-4.18598 2.75555,-12.86423 3.31836,-18.91211 -0.74982,-1.77996 0.12737,-4.72092 2.48632,-3.30273 21.23997,-1.23147 42.80833,-4.29043 62.31446,-13.2207 39.07775,-0.21033 78.15624,-0.15085 117.23437,-0.19922 8.25449,-8.25397 16.50922,-16.50771 24.76367,-24.76172 -21.24331,-31.30605 -30.40905,-70.08676 -56.4082,-98.24805 -18.37884,-14.98657 -43.68616,-13.71624 -66.00778,-13.97146 -12.58509,-0.0603 -25.16881,0.25999 -37.75394,0.18631 -3.56859,-11.88665 -7.13531,-23.77386 -10.70508,-35.66016 -27.31478,-4.81906 -54.62926,-9.63992 -81.94336,-14.46289 -9.75872,10.41699 -19.51971,20.83186 -29.27929,31.24805 -25.36589,0 -50.73177,0 -76.09766,0 C 452.187,768.6203 442.4216,758.20074 432.6582,747.7793 l -0.98432,0.17635 -0.084,0.015 z"
       id="path4147-0"
       inkscape:connector-curvature="0" />
    <circle
       style="color:#000000;clip-rule:nonzero;display:inline;overflow:visible;visibility:visible;opacity:1;isolation:auto;mix-blend-mode:normal;color-interpolation:sRGB;color-interpolation-filters:linearRGB;solid-color:#000000;solid-opacity:1;fill:#000000;fill-opacity:1;fill-rule:nonzero;stroke:none;stroke-width:6;stroke-linecap:butt;stroke-linejoin:miter;stroke-miterlimit:0;stroke-dasharray:none;stroke-dashoffset:0;stroke-opacity:1;color-rendering:auto;image-rendering:auto;shape-rendering:auto;text-rendering:auto;enable-background:accumulate"
       id="path4171"
       cx="500"
       cy="700.7005"
       r="91.25" />
    <path
       style="color:#000000;clip-rule:nonzero;display:inline;overflow:visible;visibility:visible;opacity:1;isolation:auto;mix-blend-mode:normal;color-interpolation:sRGB;color-interpolation-filters:linearRGB;solid-color:#000000;solid-opacity:1;fill:#ffffff;fill-opacity:1;fill-rule:evenodd;stroke:none;stroke-width:1px;stroke-linecap:butt;stroke-linejoin:miter;stroke-miterlimit:4;stroke-dasharray:none;stroke-dashoffset:0;stroke-opacity:1;color-rendering:auto;image-rendering:auto;shape-rendering:auto;text-rendering:auto;enable-background:accumulate"
       d="m 426.92169,765.0594 -63.7093,11.24283 -11.24281,37.47606 C 223.93637,814.75625 256.88362,803.18185 200,907.46841 l 11.24282,11.24282 114.49351,0 c 13.06925,5.11801 11.91535,10.45936 76.63438,14.99043 l 0,22.48562 52.65804,7.38541 89.94252,0 52.65802,-7.38541 0,-22.48562 c 64.71906,-4.53107 63.56511,-9.87242 76.63438,-14.99043 l 114.49351,0 L 800,907.46841 C 743.1164,803.18185 776.06361,814.75625 648.03042,813.77829 l -11.24281,-37.47606 -63.7093,-11.24283 -28.10704,29.98086 -89.94252,0 z"
       id="path4147"
       inkscape:connector-curvature="0"
       sodipodi:nodetypes="ccccccccccccccccccccc" />
    <circle
       style="color:#000000;clip-rule:nonzero;display:inline;overflow:visible;visibility:visible;opacity:1;isolation:auto;mix-blend-mode:normal;color-interpolation:sRGB;color-interpolation-filters:linearRGB;solid-color:#000000;solid-opacity:1;fill:#ffffff;fill-opacity:1;fill-rule:nonzero;stroke:none;stroke-width:6;stroke-linecap:butt;stroke-linejoin:miter;stroke-miterlimit:0;stroke-dasharray:none;stroke-dashoffset:0;stroke-opacity:1;color-rendering:auto;image-rendering:auto;shape-rendering:auto;text-rendering:auto;enable-background:accumulate"
       id="path4153"
       cx="500"
       cy="700.7005"
       r="74.95211" />
    <path
       style="color:#000000;clip-rule:nonzero;display:inline;overflow:visible;visibility:visible;opacity:1;isolation:auto;mix-blend-mode:normal;color-interpolation:sRGB;color-interpolation-filters:linearRGB;solid-color:#000000;solid-opacity:1;fill:#000000;fill-opacity:1;fill-rule:evenodd;stroke:none;stroke-width:1px;stroke-linecap:butt;stroke-linejoin:miter;stroke-miterlimit:4;stroke-dasharray:none;stroke-dashoffset:0;stroke-opacity:1;color-rendering:auto;image-rendering:auto;shape-rendering:auto;text-rendering:auto;enable-background:accumulate"
       d="m 425.04788,700.70055 c 34.77946,-34.77947 64.30347,-49.04417 101.05212,-70.26101 -59.75599,55.42664 -28.25979,10.97284 47.96576,81.75371 -95.37645,-60.17814 -97.43025,-37.14581 -149.01788,-11.4927 z"
       id="path4155"
       inkscape:connector-curvature="0"
       sodipodi:nodetypes="cccc" />
    <path
       style="color:#000000;clip-rule:nonzero;display:inline;overflow:visible;visibility:visible;opacity:1;isolation:auto;mix-blend-mode:normal;color-interpolation:sRGB;color-interpolation-filters:linearRGB;solid-color:#000000;solid-opacity:1;fill:#000000;fill-opacity:1;fill-rule:evenodd;stroke:none;stroke-width:1px;stroke-linecap:butt;stroke-linejoin:miter;stroke-miterlimit:4;stroke-dasharray:none;stroke-dashoffset:0;stroke-opacity:1;color-rendering:auto;image-rendering:auto;shape-rendering:auto;text-rendering:auto;enable-background:accumulate"
       d="m 499.99999,775.65262 c -9.84819,-72.49466 -4.6163,-70.5881 -71.41883,-52.21077 54.98213,5.88853 45.9314,-13.33024 71.41883,52.21077 z"
       id="path4157"
       inkscape:connector-curvature="0"
       sodipodi:nodetypes="ccc" />
    <path
       style="color:#000000;clip-rule:nonzero;display:inline;overflow:visible;visibility:visible;opacity:1;isolation:auto;mix-blend-mode:normal;color-interpolation:sRGB;color-interpolation-filters:linearRGB;solid-color:#000000;solid-opacity:1;fill:#000000;fill-opacity:1;fill-rule:evenodd;stroke:none;stroke-width:1px;stroke-linecap:butt;stroke-linejoin:miter;stroke-miterlimit:4;stroke-dasharray:none;stroke-dashoffset:0;stroke-opacity:1;color-rendering:auto;image-rendering:auto;shape-rendering:auto;text-rendering:auto;enable-background:accumulate"
       d="m 569.46489,728.85095 c -44.34489,-29.94258 -81.99117,-56.13856 -56.83578,4.88914 -2.58293,-36.92559 12.75918,-32.57867 28.68467,29.49836 2.42556,-53.99763 -10.10673,-44.63866 28.15111,-34.3875 z"
       id="path4177"
       inkscape:connector-curvature="0"
       sodipodi:nodetypes="cccc" />
    <path
       style="color:#000000;clip-rule:nonzero;display:inline;overflow:visible;visibility:visible;opacity:1;isolation:auto;mix-blend-mode:normal;color-interpolation:sRGB;color-interpolation-filters:linearRGB;solid-color:#000000;solid-opacity:1;fill:#000000;fill-opacity:1;fill-rule:evenodd;stroke:none;stroke-width:1px;stroke-linecap:butt;stroke-linejoin:miter;stroke-miterlimit:4;stroke-dasharray:none;stroke-dashoffset:0;stroke-opacity:1;color-rendering:auto;image-rendering:auto;shape-rendering:auto;text-rendering:auto;enable-background:accumulate"
       d="m 363.21239,825.0224 c -128.03319,0.97798 -99.16093,-21.45998 -156.04453,82.82659 l 3.46909,3.46906 c 0,0 37.15661,-59.41339 62.33042,-67.33192 17.6021,-5.5368 79.00221,-0.22702 79.00221,-0.22702 z"
       id="path4147-7"
       inkscape:connector-curvature="0"
       sodipodi:nodetypes="cccscc" />
    <ellipse
       style="color:#000000;clip-rule:nonzero;display:inline;overflow:visible;visibility:visible;opacity:1;isolation:auto;mix-blend-mode:normal;color-interpolation:sRGB;color-interpolation-filters:linearRGB;solid-color:#000000;solid-opacity:1;fill:#000000;fill-opacity:1;fill-rule:nonzero;stroke:none;stroke-width:6;stroke-linecap:butt;stroke-linejoin:miter;stroke-miterlimit:0;stroke-dasharray:none;stroke-dashoffset:0;stroke-opacity:1;color-rendering:auto;image-rendering:auto;shape-rendering:auto;text-rendering:auto;enable-background:accumulate"
       id="path4333"
       cx="500"
       cy="822.77679"
       rx="37.476059"
       ry="10.180995" />
    <ellipse
       style="color:#000000;clip-rule:nonzero;display:inline;overflow:visible;visibility:visible;opacity:1;isolation:auto;mix-blend-mode:normal;color-interpolation:sRGB;color-interpolation-filters:linearRGB;solid-color:#000000;solid-opacity:1;fill:#000000;fill-opacity:1;fill-rule:nonzero;stroke:none;stroke-width:6;stroke-linecap:butt;stroke-linejoin:miter;stroke-miterlimit:0;stroke-dasharray:none;stroke-dashoffset:0;stroke-opacity:1;color-rendering:auto;image-rendering:auto;shape-rendering:auto;text-rendering:auto;enable-background:accumulate"
       id="path4335"
       cx="533.49353"
       cy="674.02789"
       rx="10.086389"
       ry="4.3978806"
       transform="matrix(0.97387152,0.22709968,-0.1321589,0.99122854,0,0)" />
    <ellipse
       style="color:#000000;clip-rule:nonzero;display:inline;overflow:visible;visibility:visible;opacity:1;isolation:auto;mix-blend-mode:normal;color-interpolation:sRGB;color-interpolation-filters:linearRGB;solid-color:#000000;solid-opacity:1;fill:#000000;fill-opacity:1;fill-rule:nonzero;stroke:none;stroke-width:6;stroke-linecap:butt;stroke-linejoin:miter;stroke-miterlimit:0;stroke-dasharray:none;stroke-dashoffset:0;stroke-opacity:1;color-rendering:auto;image-rendering:auto;shape-rendering:auto;text-rendering:auto;enable-background:accumulate"
       id="path4339"
       cx="545.46057"
       cy="691.97595"
       rx="10.187303"
       ry="5.225769"
       transform="matrix(0.98480775,0.17364818,-0.17364818,0.98480775,0,0)" />
    <rect
       style="color:#000000;clip-rule:nonzero;display:inline;overflow:visible;visibility:visible;opacity:1;isolation:auto;mix-blend-mode:normal;color-interpolation:sRGB;color-interpolation-filters:linearRGB;solid-color:#000000;solid-opacity:1;fill:#000000;fill-opacity:1;fill-rule:nonzero;stroke:none;stroke-width:1;stroke-linecap:butt;stroke-linejoin:miter;stroke-miterlimit:4;stroke-dasharray:none;stroke-dashoffset:0;stroke-opacity:1;color-rendering:auto;image-rendering:auto;shape-rendering:auto;text-rendering:auto;enable-background:accumulate"
       id="rect5014"
       width="101.80995"
       height="8.1447964"
       x="449.09497"
       y="937.19458" />
    <path
       style="color:#000000;clip-rule:nonzero;display:inline;overflow:visible;visibility:visible;opacity:1;isolation:auto;mix-blend-mode:normal;color-interpolation:sRGB;color-interpolation-filters:linearRGB;solid-color:#000000;solid-opacity:1;fill:#000000;fill-opacity:1;fill-rule:evenodd;stroke:none;stroke-width:1px;stroke-linecap:butt;stroke-linejoin:miter;stroke-miterlimit:4;stroke-dasharray:none;stroke-dashoffset:0;stroke-opacity:1;color-rendering:auto;image-rendering:auto;shape-rendering:auto;text-rendering:auto;enable-background:accumulate"
       d="m 387.64315,812.30762 -50.39329,90.6228 c 12.33145,4.82904 12.62715,9.85643 66.37,14.21494 l 0,-60.72009 12.01042,-0.289 21.92626,-40.43499 z"
       id="path5016"
       inkscape:connector-curvature="0"
       sodipodi:nodetypes="ccccccc" />
    <path
       inkscape:connector-curvature="0"
       style="color:#000000;clip-rule:nonzero;display:inline;overflow:visible;visibility:visible;opacity:1;isolation:auto;mix-blend-mode:normal;color-interpolation:sRGB;color-interpolation-filters:linearRGB;solid-color:#000000;solid-opacity:1;fill:#000000;fill-opacity:1;fill-rule:evenodd;stroke:none;stroke-width:1px;stroke-linecap:butt;stroke-linejoin:miter;stroke-miterlimit:4;stroke-dasharray:none;stroke-dashoffset:0;stroke-opacity:1;color-rendering:auto;image-rendering:auto;shape-rendering:auto;text-rendering:auto;enable-background:accumulate"
       d="m 612.35687,812.30762 50.39329,90.6228 c -12.33144,4.82904 -12.62715,9.85643 -66.37,14.21494 l 0,-60.72009 -12.01039,-0.289 -21.92629,-40.43499 z"
       id="path5016-5"
       sodipodi:nodetypes="ccccccc" />
    <path
       style="color:#000000;clip-rule:nonzero;display:inline;overflow:visible;visibility:visible;opacity:1;isolation:auto;mix-blend-mode:normal;color-interpolation:sRGB;color-interpolation-filters:linearRGB;solid-color:#000000;solid-opacity:1;fill:#ffffff;fill-opacity:1;fill-rule:evenodd;stroke:none;stroke-width:1px;stroke-linecap:butt;stroke-linejoin:miter;stroke-miterlimit:4;stroke-dasharray:none;stroke-dashoffset:0;stroke-opacity:1;color-rendering:auto;image-rendering:auto;shape-rendering:auto;text-rendering:auto;enable-background:accumulate"
       d="m 354.45945,897.1234 c 11.99668,4.175 24.36778,5.38464 36.94323,6.60042 0,-19.74335 0,-39.48673 0,-59.23008 5.6221,-0.13564 11.24416,-0.27226 16.86626,-0.40828 3.16078,-5.82667 6.32157,-11.65336 9.48237,-17.48005 -7.7334,-0.52672 -15.4668,-1.05345 -23.20022,-1.58017 -13.36385,24.03273 -26.72774,48.06546 -40.09164,72.09816 z"
       id="path5016-4"
       inkscape:connector-curvature="0" />
    <path
       style="color:#000000;clip-rule:nonzero;display:inline;overflow:visible;visibility:visible;opacity:1;isolation:auto;mix-blend-mode:normal;color-interpolation:sRGB;color-interpolation-filters:linearRGB;solid-color:#000000;solid-opacity:1;fill:#ffffff;fill-opacity:1;fill-rule:evenodd;stroke:none;stroke-width:1px;stroke-linecap:butt;stroke-linejoin:miter;stroke-miterlimit:4;stroke-dasharray:none;stroke-dashoffset:0;stroke-opacity:1;color-rendering:auto;image-rendering:auto;shape-rendering:auto;text-rendering:auto;enable-background:accumulate"
       d="m 582.24864,826.60541 c 3.16077,5.82669 6.32157,11.65338 9.48237,17.48005 5.62208,0.13587 11.24414,0.27271 16.86624,0.40828 0,19.74071 0,39.48141 0,59.22212 12.50409,-1.18757 25.06398,-2.42542 36.92201,-6.6256 -13.3568,-24.02166 -26.71362,-48.04333 -40.07042,-72.06502 -7.7334,0.52672 -15.46683,1.05345 -23.2002,1.58017 z"
       id="path5016-5-2"
       inkscape:connector-curvature="0" />
    <path
       style="color:#000000;clip-rule:nonzero;display:inline;overflow:visible;visibility:visible;opacity:1;isolation:auto;mix-blend-mode:normal;color-interpolation:sRGB;color-interpolation-filters:linearRGB;solid-color:#000000;solid-opacity:1;fill:#000000;fill-opacity:1;fill-rule:evenodd;stroke:none;stroke-width:1px;stroke-linecap:butt;stroke-linejoin:miter;stroke-miterlimit:4;stroke-dasharray:none;stroke-dashoffset:0;stroke-opacity:1;color-rendering:auto;image-rendering:auto;shape-rendering:auto;text-rendering:auto;enable-background:accumulate"
       d="m 432.12669,859.14017 13.90846,60.06789 107.92962,0.33935 13.90854,-60.40724 z"
       id="path5232"
       inkscape:connector-curvature="0"
       sodipodi:nodetypes="ccccc" />
    <ellipse
       style="color:#000000;clip-rule:nonzero;display:inline;overflow:visible;visibility:visible;opacity:1;isolation:auto;mix-blend-mode:normal;color-interpolation:sRGB;color-interpolation-filters:linearRGB;solid-color:#000000;solid-opacity:1;fill:#ffffff;fill-opacity:1;fill-rule:nonzero;stroke:none;stroke-width:6;stroke-linecap:butt;stroke-linejoin:miter;stroke-miterlimit:0;stroke-dasharray:none;stroke-dashoffset:0;stroke-opacity:1;color-rendering:auto;image-rendering:auto;shape-rendering:auto;text-rendering:auto;enable-background:accumulate"
       id="path4333-5"
       cx="500"
       cy="859.1402"
       rx="67.873268"
       ry="8.4841633" />
    <ellipse
       style="color:#000000;clip-rule:nonzero;display:inline;overflow:visible;visibility:visible;opacity:1;isolation:auto;mix-blend-mode:normal;color-interpolation:sRGB;color-interpolation-filters:linearRGB;solid-color:#000000;solid-opacity:1;fill:#000000;fill-opacity:1;fill-rule:nonzero;stroke:none;stroke-width:6;stroke-linecap:butt;stroke-linejoin:miter;stroke-miterlimit:0;stroke-dasharray:none;stroke-dashoffset:0;stroke-opacity:1;color-rendering:auto;image-rendering:auto;shape-rendering:auto;text-rendering:auto;enable-background:accumulate"
       id="path4335-25"
       transform="matrix(0.97604012,0.21759063,-0.13812804,0.99041438,0,0)"
       ry="4.6696005"
       rx="11.168413"
       cy="689.3681"
       cx="513.72137" />
    <ellipse
       style="color:#000000;clip-rule:nonzero;display:inline;overflow:visible;visibility:visible;opacity:1;isolation:auto;mix-blend-mode:normal;color-interpolation:sRGB;color-interpolation-filters:linearRGB;solid-color:#000000;solid-opacity:1;fill:#000000;fill-opacity:1;fill-rule:nonzero;stroke:none;stroke-width:6;stroke-linecap:butt;stroke-linejoin:miter;stroke-miterlimit:0;stroke-dasharray:none;stroke-dashoffset:0;stroke-opacity:1;color-rendering:auto;image-rendering:auto;shape-rendering:auto;text-rendering:auto;enable-background:accumulate"
       id="path4339-4"
       cx="519.30072"
       cy="701.38367"
       rx="10.187303"
       ry="5.225769"
       transform="matrix(0.98480775,0.17364818,-0.17364818,0.98480775,0,0)" />
    <ellipse
       style="color:#000000;clip-rule:nonzero;display:inline;overflow:visible;visibility:visible;opacity:1;isolation:auto;mix-blend-mode:normal;color-interpolation:sRGB;color-interpolation-filters:linearRGB;solid-color:#000000;solid-opacity:1;fill:#000000;fill-opacity:1;fill-rule:nonzero;stroke:none;stroke-width:6;stroke-linecap:butt;stroke-linejoin:miter;stroke-miterlimit:0;stroke-dasharray:none;stroke-dashoffset:0;stroke-opacity:1;color-rendering:auto;image-rendering:auto;shape-rendering:auto;text-rendering:auto;enable-background:accumulate"
       id="path4339-0"
       cx="-439.3472"
       cy="865.62408"
       rx="10.187303"
       ry="5.225769"
       transform="matrix(-0.98480775,0.17364818,0.17364818,0.98480775,0,0)" />
    <ellipse
       style="color:#000000;clip-rule:nonzero;display:inline;overflow:visible;visibility:visible;opacity:1;isolation:auto;mix-blend-mode:normal;color-interpolation:sRGB;color-interpolation-filters:linearRGB;solid-color:#000000;solid-opacity:1;fill:#000000;fill-opacity:1;fill-rule:nonzero;stroke:none;stroke-width:6;stroke-linecap:butt;stroke-linejoin:miter;stroke-miterlimit:0;stroke-dasharray:none;stroke-dashoffset:0;stroke-opacity:1;color-rendering:auto;image-rendering:auto;shape-rendering:auto;text-rendering:auto;enable-background:accumulate"
       id="path4335-25-0"
       transform="matrix(-0.97604012,0.21759063,0.13812804,0.99041438,0,0)"
       ry="4.6696005"
       rx="11.168413"
       cy="907.67053"
       cx="-479.9328" />
    <ellipse
       style="color:#000000;clip-rule:nonzero;display:inline;overflow:visible;visibility:visible;opacity:1;isolation:auto;mix-blend-mode:normal;color-interpolation:sRGB;color-interpolation-filters:linearRGB;solid-color:#000000;solid-opacity:1;fill:#000000;fill-opacity:1;fill-rule:nonzero;stroke:none;stroke-width:6;stroke-linecap:butt;stroke-linejoin:miter;stroke-miterlimit:0;stroke-dasharray:none;stroke-dashoffset:0;stroke-opacity:1;color-rendering:auto;image-rendering:auto;shape-rendering:auto;text-rendering:auto;enable-background:accumulate"
       id="path4339-4-1"
       cx="-465.50711"
       cy="875.03192"
       rx="10.187303"
       ry="5.225769"
       transform="matrix(-0.98480775,0.17364818,0.17364818,0.98480775,0,0)" />
    <ellipse
       style="color:#000000;clip-rule:nonzero;display:inline;overflow:visible;visibility:visible;opacity:1;isolation:auto;mix-blend-mode:normal;color-interpolation:sRGB;color-interpolation-filters:linearRGB;solid-color:#000000;solid-opacity:1;fill:#000000;fill-opacity:1;fill-rule:nonzero;stroke:none;stroke-width:6;stroke-linecap:butt;stroke-linejoin:miter;stroke-miterlimit:0;stroke-dasharray:none;stroke-dashoffset:0;stroke-opacity:1;color-rendering:auto;image-rendering:auto;shape-rendering:auto;text-rendering:auto;enable-background:accumulate"
       id="path4335-2"
       cx="-462.37329"
       cy="902.19031"
       rx="10.086389"
       ry="4.3978806"
       transform="matrix(-0.97387152,0.22709968,0.1321589,0.99122854,0,0)" />
    <path
       style="color:#000000;clip-rule:nonzero;display:inline;overflow:visible;visibility:visible;opacity:1;isolation:auto;mix-blend-mode:normal;color-interpolation:sRGB;color-interpolation-filters:linearRGB;solid-color:#000000;solid-opacity:1;fill:#ffffff;fill-opacity:1;fill-rule:evenodd;stroke:none;stroke-width:1px;stroke-linecap:butt;stroke-linejoin:miter;stroke-miterlimit:4;stroke-dasharray:none;stroke-dashoffset:0;stroke-opacity:1;color-rendering:auto;image-rendering:auto;shape-rendering:auto;text-rendering:auto;enable-background:accumulate"
       d="m 553.46612,873.8052 c -29.82898,4.5366 -60.16065,3.42153 -90.18372,2.04338 -6.04881,-0.50263 -12.0802,-1.23055 -18.06626,-2.23823 2.85684,12.02412 5.5653,24.08415 8.37017,36.12132 30.93537,0.095 61.87075,0.18999 92.80612,0.28501 2.76863,-12.14812 5.68911,-24.26168 8.38739,-36.42624 l -0.66986,0.10966 -0.64384,0.10534 z"
       id="path5232-9"
       inkscape:connector-curvature="0" />
    <path
       style="color:#000000;clip-rule:nonzero;display:inline;overflow:visible;visibility:visible;opacity:1;isolation:auto;mix-blend-mode:normal;color-interpolation:sRGB;color-interpolation-filters:linearRGB;solid-color:#000000;solid-opacity:1;fill:#000000;fill-opacity:1;fill-rule:evenodd;stroke:none;stroke-width:1px;stroke-linecap:butt;stroke-linejoin:miter;stroke-miterlimit:4;stroke-dasharray:none;stroke-dashoffset:0;stroke-opacity:1;color-rendering:auto;image-rendering:auto;shape-rendering:auto;text-rendering:auto;enable-background:accumulate"
       d="m 636.78759,825.0224 c 128.0332,0.97798 99.16098,-21.45998 156.04457,82.82659 l -3.46911,3.46906 c 0,0 -37.15659,-59.41339 -62.33045,-67.33192 -17.60204,-5.5368 -79.00213,-0.22702 -79.00213,-0.22702 z"
       id="path4147-7-6"
       inkscape:connector-curvature="0"
       sodipodi:nodetypes="cccscc" />
  </g>
</svg>
