<?xml version="1.0" encoding="UTF-8" standalone="no"?>
<!-- Created with Inkscape (http://www.inkscape.org/) -->

<svg
   xmlns:dc="http://purl.org/dc/elements/1.1/"
   xmlns:cc="http://creativecommons.org/ns#"
   xmlns:rdf="http://www.w3.org/1999/02/22-rdf-syntax-ns#"
   xmlns:svg="http://www.w3.org/2000/svg"
   xmlns="http://www.w3.org/2000/svg"
   xmlns:sodipodi="http://sodipodi.sourceforge.net/DTD/sodipodi-0.dtd"
   xmlns:inkscape="http://www.inkscape.org/namespaces/inkscape"
   width="1000"
   height="1000"
   viewBox="0 0 999.9999880656118 999.9999880410413"
   id="svg2"
   version="1.1"
   inkscape:version="0.91 r13725"
   sodipodi:docname="RE-modes-hover.svg"
   inkscape:export-filename="D:\Samuel Daten\Ico\Eigene Ico\Inkscape\RE-player-white.png"
   inkscape:export-xdpi="90"
   inkscape:export-ydpi="90">
  <defs
     id="defs4">
    <filter
       style="color-interpolation-filters:sRGB;"
       inkscape:label="Lightness-Contrast"
       id="filter4246">
      <feColorMatrix
         values="10.688 0 0 -5.844 -4.844 0 10.688 0 -5.844 -4.844 0 0 10.688 -5.844 -4.844 0 0 0 1 0"
         id="feColorMatrix4248"
         result="fbSourceGraphic" />
      <feColorMatrix
         result="fbSourceGraphicAlpha"
         in="fbSourceGraphic"
         values="0 0 0 -1 0 0 0 0 -1 0 0 0 0 -1 0 0 0 0 1 0"
         id="feColorMatrix4250" />
      <feColorMatrix
         id="feColorMatrix4252"
         values="10.688 0 0 -5.844 -4.844 0 10.688 0 -5.844 -4.844 0 0 10.688 -5.844 -4.844 0 0 0 1 0"
         in="fbSourceGraphic" />
    </filter>
  </defs>
  <sodipodi:namedview
     id="base"
     pagecolor="#000000"
     bordercolor="#666666"
     borderopacity="1.0"
     inkscape:pageopacity="0"
     inkscape:pageshadow="2"
     inkscape:zoom="0.3535533923654314"
     inkscape:cx="-253.5565592746281"
     inkscape:cy="133.6786187790784"
     inkscape:document-units="px"
     inkscape:current-layer="g4159"
     showgrid="false"
     units="px"
     inkscape:snap-bbox="true"
     inkscape:showpageshadow="false"
     borderlayer="true"
     showborder="true"
     inkscape:snap-intersection-paths="true"
     inkscape:object-nodes="true"
     inkscape:snap-smooth-nodes="false"
     inkscape:object-paths="false"
     inkscape:snap-nodes="true"
     showguides="true" />
  <metadata
     id="metadata7">
    <rdf:RDF>
      <cc:Work
         rdf:about="">
        <dc:format>image/svg+xml</dc:format>
        <dc:type
           rdf:resource="http://purl.org/dc/dcmitype/StillImage" />
        <dc:title></dc:title>
      </cc:Work>
    </rdf:RDF>
  </metadata>
  <g
     inkscape:label="Ebene 1"
     inkscape:groupmode="layer"
     id="layer1"
     transform="translate(0,-52.36228930856214)">
    <g
       id="g4159"
       transform="translate(0,-0.8133121303205825)">
      <g
         id="g4360"
         transform="translate(-7.86523,-9.6202289)">
        <rect
           y="573.1756"
           x="255"
           height="40"
           width="380"
           id="rect4259"
           style="color:#000000;clip-rule:nonzero;display:inline;overflow:visible;visibility:visible;opacity:1;isolation:auto;mix-blend-mode:normal;color-interpolation:sRGB;color-interpolation-filters:linearRGB;solid-color:#000000;solid-opacity:1;fill:#ffffff;fill-opacity:1;fill-rule:nonzero;stroke:none;stroke-width:1;stroke-linecap:butt;stroke-linejoin:miter;stroke-miterlimit:4;stroke-dasharray:none;stroke-dashoffset:0;stroke-opacity:1;color-rendering:auto;image-rendering:auto;shape-rendering:auto;text-rendering:auto;enable-background:accumulate" />
        <rect
           y="653.1756"
           x="255"
           height="40"
           width="380"
           id="rect4259-2"
           style="color:#000000;clip-rule:nonzero;display:inline;overflow:visible;visibility:visible;opacity:1;isolation:auto;mix-blend-mode:normal;color-interpolation:sRGB;color-interpolation-filters:linearRGB;solid-color:#000000;solid-opacity:1;fill:#ffffff;fill-opacity:1;fill-rule:nonzero;stroke:none;stroke-width:1;stroke-linecap:butt;stroke-linejoin:miter;stroke-miterlimit:4;stroke-dasharray:none;stroke-dashoffset:0;stroke-opacity:1;color-rendering:auto;image-rendering:auto;shape-rendering:auto;text-rendering:auto;enable-background:accumulate" />
        <rect
           y="733.1756"
           x="255"
           height="40"
           width="380"
           id="rect4259-2-1"
           style="color:#000000;clip-rule:nonzero;display:inline;overflow:visible;visibility:visible;opacity:1;isolation:auto;mix-blend-mode:normal;color-interpolation:sRGB;color-interpolation-filters:linearRGB;solid-color:#000000;solid-opacity:1;fill:#ffffff;fill-opacity:1;fill-rule:nonzero;stroke:none;stroke-width:1;stroke-linecap:butt;stroke-linejoin:miter;stroke-miterlimit:4;stroke-dasharray:none;stroke-dashoffset:0;stroke-opacity:1;color-rendering:auto;image-rendering:auto;shape-rendering:auto;text-rendering:auto;enable-background:accumulate" />
        <rect
           y="813.1756"
           x="255"
           height="40"
           width="380"
           id="rect4259-2-1-8"
           style="color:#000000;clip-rule:nonzero;display:inline;overflow:visible;visibility:visible;opacity:1;isolation:auto;mix-blend-mode:normal;color-interpolation:sRGB;color-interpolation-filters:linearRGB;solid-color:#000000;solid-opacity:1;fill:#ffffff;fill-opacity:1;fill-rule:nonzero;stroke:none;stroke-width:1;stroke-linecap:butt;stroke-linejoin:miter;stroke-miterlimit:4;stroke-dasharray:none;stroke-dashoffset:0;stroke-opacity:1;color-rendering:auto;image-rendering:auto;shape-rendering:auto;text-rendering:auto;enable-background:accumulate" />
        <rect
           y="893.1756"
           x="255"
           height="40"
           width="380"
           id="rect4259-2-1-8-9"
           style="color:#000000;clip-rule:nonzero;display:inline;overflow:visible;visibility:visible;opacity:1;isolation:auto;mix-blend-mode:normal;color-interpolation:sRGB;color-interpolation-filters:linearRGB;solid-color:#000000;solid-opacity:1;fill:#ffffff;fill-opacity:1;fill-rule:nonzero;stroke:none;stroke-width:1;stroke-linecap:butt;stroke-linejoin:miter;stroke-miterlimit:4;stroke-dasharray:none;stroke-dashoffset:0;stroke-opacity:1;color-rendering:auto;image-rendering:auto;shape-rendering:auto;text-rendering:auto;enable-background:accumulate" />
        <rect
           y="973.1756"
           x="255"
           height="40"
           width="380"
           id="rect4259-2-1-8-0"
           style="color:#000000;clip-rule:nonzero;display:inline;overflow:visible;visibility:visible;opacity:1;isolation:auto;mix-blend-mode:normal;color-interpolation:sRGB;color-interpolation-filters:linearRGB;solid-color:#000000;solid-opacity:1;fill:#ffffff;fill-opacity:1;fill-rule:nonzero;stroke:none;stroke-width:1;stroke-linecap:butt;stroke-linejoin:miter;stroke-miterlimit:4;stroke-dasharray:none;stroke-dashoffset:0;stroke-opacity:1;color-rendering:auto;image-rendering:auto;shape-rendering:auto;text-rendering:auto;enable-background:accumulate" />
        <path
           sodipodi:nodetypes="cccccc"
           inkscape:connector-curvature="0"
           id="path4213"
           d="m 416.21752,249.1756 -91.21752,0 -75,79 0,200 151,0 z"
           style="color:#000000;clip-rule:nonzero;display:inline;overflow:visible;visibility:visible;opacity:1;isolation:auto;mix-blend-mode:normal;color-interpolation:sRGB;color-interpolation-filters:linearRGB;solid-color:#000000;solid-opacity:1;fill:#ffffff;fill-opacity:1;fill-rule:evenodd;stroke:none;stroke-width:1px;stroke-linecap:butt;stroke-linejoin:miter;stroke-miterlimit:4;stroke-dasharray:none;stroke-dashoffset:0;stroke-opacity:1;color-rendering:auto;image-rendering:auto;shape-rendering:auto;text-rendering:auto;enable-background:accumulate" />
        <path
           inkscape:connector-curvature="0"
           id="path4341-9-7"
           d="m 593.21094,224.6875 c 1.01006,19.67912 2.02367,39.35806 3.03515,59.03711 -41.55664,0 -83.11328,0 -124.66992,0 -15.26245,-15.89316 -30.52429,-31.78689 -45.78711,-47.67969 -29.78989,28.36964 -59.58114,56.73785 -89.37109,85.10742 0,46.8698 0,93.73959 0,140.60938 20.93652,25.08697 41.87258,50.17432 62.80859,75.26172 40.35801,0.13709 81.11113,-0.27394 121.22266,0.20508 2.87552,4.03975 7.66162,-1.10068 11.48242,-0.1836 14.03816,-1.09836 29.99623,3.38254 42.57813,-5.14258 9.71255,-10.2649 20.03141,-21.99344 29.36914,-31.35351 -0.84986,5.79668 3.96257,11.93163 10.30273,10.01562 21.54232,0 43.08464,0 64.62695,0 10.44396,-13.97122 28.02191,-22.85702 33.77344,-40.10937 0,-35.8125 0,-71.625 0,-107.4375 -39.8928,-48.11559 -79.78499,-96.23168 -119.67969,-144.3457 0.10287,2.0052 0.20573,4.01041 0.3086,6.01562 z"
           style="display:inline;fill:#000000;fill-opacity:1;stroke:none;stroke-width:3.47557473px;stroke-linecap:butt;stroke-linejoin:miter;stroke-opacity:0" />
        <path
           style="display:inline;fill:#ffffff;fill-opacity:1;stroke:none;stroke-width:3.26572108px;stroke-linecap:butt;stroke-linejoin:miter;stroke-opacity:0"
           d="M 341.07889,94.910012 C 622.87731,76.146305 583.52901,234.14674 594.67173,274.58711 l -110.37051,0 z"
           id="path3016"
           inkscape:connector-curvature="0"
           sodipodi:nodetypes="cccc" />
        <path
           sodipodi:nodetypes="cccccccccccccccccccccccccc"
           inkscape:connector-curvature="0"
           id="path4341"
           d="m 425.28457,258.61888 39.46972,41.10573 148.33476,0 -1.73421,-33.73386 85.2267,102.79229 0,100.84358 -24.93899,24.93898 -51.4611,0 0,-70.69746 -130.99423,0 -27.03574,28.19137 -51.65597,-53.8902 40.37912,69.93762 21.20169,0 29.25032,-30.75642 106.12322,0 0,35.52849 -44.67384,48.14376 -26.45716,0 0,-27.32426 -26.02362,0 0,27.32426 -103.58386,0 -54.29354,-65.05827 0,-127.95183 z"
           style="display:inline;fill:#ffffff;fill-opacity:1;stroke:none;stroke-width:3.47557473px;stroke-linecap:butt;stroke-linejoin:miter;stroke-opacity:0" />
        <path
           inkscape:connector-curvature="0"
           id="path4157-8"
           d="m 595.79688,486.3125 c -11.09778,11.95181 -22.19248,23.90647 -33.28907,35.85938 -54.96028,-10e-6 -109.92057,0 -164.88086,0 -7.20428,70.13386 -14.40323,140.26827 -21.60547,210.40234 -46.05208,46.05208 -92.10416,92.10417 -138.15625,138.15625 43.15468,53.82938 86.30741,107.66032 129.45899,161.49223 0,-27.2344 0,-54.46879 0,-81.70317 52.07877,-52.07877 104.15755,-104.15755 156.23633,-156.23633 5.64445,-54.92219 11.28202,-109.8451 16.92383,-164.76758 15.27799,18.1224 30.55598,36.2448 45.83398,54.36719 -14.9655,14.9655 -29.93099,29.93099 -44.89648,44.89649 39.8811,49.82584 79.76396,99.65029 119.64453,149.47656 0,-27.30208 0,-54.60417 0,-81.90625 35.08072,-35.08008 70.16148,-70.16013 105.24218,-105.24023 -56.31551,-68.82679 -112.63392,-137.65121 -168.95117,-206.47657 -0.52018,0.5599 -1.04036,1.11979 -1.56054,1.67969 z"
           style="color:#000000;clip-rule:nonzero;display:inline;overflow:visible;visibility:visible;opacity:1;isolation:auto;mix-blend-mode:normal;color-interpolation:sRGB;color-interpolation-filters:linearRGB;solid-color:#000000;solid-opacity:1;fill:#000000;fill-opacity:1;fill-rule:evenodd;stroke:none;stroke-width:1px;stroke-linecap:butt;stroke-linejoin:miter;stroke-miterlimit:4;stroke-dasharray:none;stroke-dashoffset:0;stroke-opacity:1;color-rendering:auto;image-rendering:auto;shape-rendering:auto;text-rendering:auto;enable-background:accumulate" />
        <path
           sodipodi:nodetypes="ccccccccccccccc"
           inkscape:connector-curvature="0"
           id="path4157"
           d="M 413.86945,540.17271 393.28325,740.76558 262,872.04885 l 87.32407,108.93339 0,-37.9153 156.99217,-156.99215 20.5862,-200.59287 83.83171,99.43792 -45.19579,45.19579 77.52845,96.84695 0,-38.06534 99.00061,-99.00061 -145.5686,-177.89173 -26.13763,28.16781 z"
           style="color:#000000;clip-rule:nonzero;display:inline;overflow:visible;visibility:visible;opacity:1;isolation:auto;mix-blend-mode:normal;color-interpolation:sRGB;color-interpolation-filters:linearRGB;solid-color:#000000;solid-opacity:1;fill:#ffffff;fill-opacity:1;fill-rule:evenodd;stroke:none;stroke-width:1px;stroke-linecap:butt;stroke-linejoin:miter;stroke-miterlimit:4;stroke-dasharray:none;stroke-dashoffset:0;stroke-opacity:1;color-rendering:auto;image-rendering:auto;shape-rendering:auto;text-rendering:auto;enable-background:accumulate" />
        <path
           sodipodi:nodetypes="cccccccccccccccccccccccccc"
           inkscape:connector-curvature="0"
           id="path4341-9"
           d="m 425.28471,258.61861 39.46972,41.10573 148.33476,0 -1.73421,-33.73386 85.2267,102.79229 0,100.84358 -24.93899,24.93898 -51.4611,0 0,-70.69746 -130.99423,0 -27.03574,28.19137 -51.65597,-53.8902 40.37912,69.93762 21.20169,0 29.25032,-30.75642 106.12322,0 0,35.52849 -44.67384,48.14376 -26.45716,0 0,-27.32426 -26.02362,0 0,27.32426 -103.58386,0 -54.29354,-65.05827 0,-127.95183 z"
           style="display:inline;fill:#ffffff;fill-opacity:1;stroke:none;stroke-width:3.47557473px;stroke-linecap:butt;stroke-linejoin:miter;stroke-opacity:0" />
        <path
           inkscape:connector-curvature="0"
           style="display:inline;fill:#000000;fill-opacity:1;stroke:none;stroke-width:3.47557473px;stroke-linecap:butt;stroke-linejoin:miter;stroke-opacity:0"
           d="m 862,366.7997 -314.10982,0 c -2.89171,0 -5.18744,1.2633 -6.75517,2.89811 l -78.98326,82.36236 -51.6561,-53.89113 40.37928,69.93845 411.03764,3e-4 z"
           id="path3786-0"
           sodipodi:nodetypes="ccsccccc" />
        <path
           style="color:#000000;font-style:normal;font-variant:normal;font-weight:normal;font-stretch:normal;font-size:medium;line-height:normal;font-family:sans-serif;text-indent:0;text-align:start;text-decoration:none;text-decoration-line:none;text-decoration-style:solid;text-decoration-color:#000000;letter-spacing:normal;word-spacing:normal;text-transform:none;direction:ltr;block-progression:tb;writing-mode:lr-tb;baseline-shift:baseline;text-anchor:start;white-space:normal;clip-rule:nonzero;display:inline;overflow:visible;visibility:visible;opacity:1;isolation:auto;mix-blend-mode:normal;color-interpolation:sRGB;color-interpolation-filters:linearRGB;solid-color:#000000;solid-opacity:1;fill:#ffffff;fill-opacity:1;fill-rule:nonzero;stroke:none;stroke-width:24;stroke-linecap:butt;stroke-linejoin:round;stroke-miterlimit:4;stroke-dasharray:none;stroke-dashoffset:0;stroke-opacity:1;color-rendering:auto;image-rendering:auto;shape-rendering:auto;text-rendering:auto;enable-background:accumulate"
           d="m 852.21413,385.44546 -300.32426,0 -60.87996,64.01781 321.63672,0 39.5675,-36.12164 z"
           id="path3813-8"
           inkscape:connector-curvature="0"
           sodipodi:nodetypes="cccccc" />
      </g>
    </g>
  </g>
</svg>
