<?xml version="1.0" encoding="UTF-8" standalone="no"?>
<!-- Created with Inkscape (http://www.inkscape.org/) -->

<svg
   xmlns:dc="http://purl.org/dc/elements/1.1/"
   xmlns:cc="http://creativecommons.org/ns#"
   xmlns:rdf="http://www.w3.org/1999/02/22-rdf-syntax-ns#"
   xmlns:svg="http://www.w3.org/2000/svg"
   xmlns="http://www.w3.org/2000/svg"
   xmlns:sodipodi="http://sodipodi.sourceforge.net/DTD/sodipodi-0.dtd"
   xmlns:inkscape="http://www.inkscape.org/namespaces/inkscape"
   width="1000"
   height="1000"
   viewBox="0 0 999.9999880656118 999.9999880410413"
   id="svg4166"
   version="1.1"
   inkscape:version="0.92.0 r"
   sodipodi:docname="RE-modes-kaboom_export.svg">
  <defs
     id="defs4168" />
  <sodipodi:namedview
     id="base"
     pagecolor="#000000"
     bordercolor="#666666"
     borderopacity="1.0"
     inkscape:pageopacity="0"
     inkscape:pageshadow="2"
     inkscape:zoom="0.6999999996306545"
     inkscape:cx="459.1565775240073"
     inkscape:cy="503.7777245416161"
     inkscape:document-units="px"
     inkscape:current-layer="layer1"
     showgrid="false"
     units="px"
     showguides="true"
     inkscape:showpageshadow="false"
     showborder="true"
     inkscape:object-paths="true"
     inkscape:snap-intersection-paths="true"
     inkscape:object-nodes="true"
     inkscape:snap-nodes="true"
     inkscape:snap-smooth-nodes="true"
     inkscape:snap-midpoints="false"
     inkscape:snap-object-midpoints="false"
     inkscape:guide-bbox="true" />
  <metadata
     id="metadata4171">
    <rdf:RDF>
      <cc:Work
         rdf:about="">
        <dc:format>image/svg+xml</dc:format>
        <dc:type
           rdf:resource="http://purl.org/dc/dcmitype/StillImage" />
        <dc:title />
      </cc:Work>
    </rdf:RDF>
  </metadata>
  <g
     inkscape:label="Ebene 1"
     inkscape:groupmode="layer"
     id="layer1"
     transform="translate(0,-52.36228930856214)">
    <g
       id="g4141"
       transform="translate(-5.339848e-8,2.4999925)">
      <path
         id="path4144"
         transform="translate(0,52.362289)"
         d="M 500,85 A 485,340 0 0 0 304.9668,114.16016 C 365.41417,104.34134 431.63632,99.014221 500,99 c 68.91349,0.02144 135.64777,5.44086 196.48047,15.41797 A 485,340 0 0 0 500,85 Z m 0,40 c -103.57679,0.0155 -202.21694,8.89296 -283.30859,24.55859 a 485,340 0 0 0 -84.5625,55.00977 C 221.86976,173.95191 354.65883,155.02858 500,155 c 146.23932,0.0541 279.74274,19.23403 369.44141,50.20312 A 485,340 0 0 0 783.7793,149.67578 C 702.61018,133.94398 603.78726,125.02346 500,125 Z m 0,63 c -161.81458,0.0224 -308.06336,16.54497 -396.67188,42.56445 A 485,340 0 0 0 63.851562,278.39258 485,107 0 0 1 500,218 485,107 0 0 1 936.7793,278.79492 485,340 0 0 0 897.60938,230.92578 C 809.18254,204.71475 662.45424,188.04231 500,188 Z m 0,67 A 485,77.778175 0 0 0 47.482422,305.04297 485,340 0 0 0 27.923828,351.21875 C 48.417728,336.49461 92.76226,322.88731 157.05273,312.01758 248.00788,296.6396 371.37,288 500,288 c 128.63,0 251.99213,8.6396 342.94727,24.01758 64.88179,10.96971 109.46248,24.72726 129.70117,39.60742 A 485,340 0 0 0 952.98828,305.28516 485,77.778175 0 0 0 500,255 Z m 0,73.20703 A 500,71.792892 0 0 0 20.164062,380.32617 485,340 0 0 0 15,425 c 0,44.49976 -9.2800418,185 485,185 494.28007,0 485,-140.50024 485,-185 A 485,340 0 0 0 979.85938,380.01953 500,71.792892 0 0 0 500,328.20703 Z"
         style="fill:#ffffff;fill-opacity:1;stroke:none;stroke-width:6;stroke-miterlimit:0;stroke-dasharray:none;stroke-opacity:1"
         inkscape:connector-curvature="0" />
      <ellipse
         ry="35"
         rx="225"
         cy="927.3623"
         cx="500"
         id="path4198"
         style="color:#000000;clip-rule:nonzero;display:inline;overflow:visible;visibility:visible;opacity:1;isolation:auto;mix-blend-mode:normal;color-interpolation:sRGB;color-interpolation-filters:linearRGB;solid-color:#000000;solid-opacity:1;fill:#ffffff;fill-opacity:1;fill-rule:nonzero;stroke:none;stroke-width:6;stroke-linecap:butt;stroke-linejoin:miter;stroke-miterlimit:0;stroke-dasharray:none;stroke-dashoffset:0;stroke-opacity:1;color-rendering:auto;image-rendering:auto;shape-rendering:auto;text-rendering:auto;enable-background:accumulate" />
      <ellipse
         ry="75"
         rx="392"
         cy="572.3623"
         cx="500"
         id="path4194"
         style="color:#000000;clip-rule:nonzero;display:inline;overflow:visible;visibility:visible;opacity:1;isolation:auto;mix-blend-mode:normal;color-interpolation:sRGB;color-interpolation-filters:linearRGB;solid-color:#000000;solid-opacity:1;fill:#000000;fill-opacity:1;fill-rule:nonzero;stroke:none;stroke-width:6;stroke-linecap:butt;stroke-linejoin:miter;stroke-miterlimit:0;stroke-dasharray:none;stroke-dashoffset:0;stroke-opacity:1;color-rendering:auto;image-rendering:auto;shape-rendering:auto;text-rendering:auto;enable-background:accumulate" />
      <path
         inkscape:connector-curvature="0"
         id="path4250-3"
         d="m 493.89258,609.61719 c -68.40699,1.16934 -139.27774,7.71247 -200.97924,39.70664 -20.45142,10.66341 -38.69325,31.69805 -36.90162,56.03359 2.61542,24.39706 23.35094,42.11531 44.30731,51.94534 57.24449,27.93067 122.02997,32.84288 184.67566,35.78043 70.45869,1.42834 142.49914,-5.69599 208.23383,-32.4953 21.43772,-9.7901 43.55532,-25.25713 49.98437,-49.22461 4.94336,-22.73624 -9.10381,-45.58606 -28.33835,-56.951 -29.05934,-19.98692 -64.40145,-27.20704 -98.16946,-35.02166 -40.44221,-7.67101 -81.71645,-9.86965 -122.8125,-9.77343 z"
         style="color:#000000;clip-rule:nonzero;display:inline;overflow:visible;visibility:visible;opacity:1;isolation:auto;mix-blend-mode:normal;color-interpolation:sRGB;color-interpolation-filters:linearRGB;solid-color:#000000;solid-opacity:1;fill:#000000;fill-opacity:1;fill-rule:nonzero;stroke:none;stroke-width:6;stroke-linecap:butt;stroke-linejoin:miter;stroke-miterlimit:0;stroke-dasharray:none;stroke-dashoffset:0;stroke-opacity:1;color-rendering:auto;image-rendering:auto;shape-rendering:auto;text-rendering:auto;enable-background:accumulate" />
      <path
         sodipodi:nodetypes="sccccs"
         inkscape:connector-curvature="0"
         id="path4200"
         transform="translate(0,52.362289)"
         d="m 500,487 c -51.11587,0 -75,8 -75,8 l 43,385 64,0 43,-385 c 0,0 -23.88413,-8 -75,-8 z"
         style="color:#000000;clip-rule:nonzero;display:inline;overflow:visible;visibility:visible;opacity:1;isolation:auto;mix-blend-mode:normal;color-interpolation:sRGB;color-interpolation-filters:linearRGB;solid-color:#000000;solid-opacity:1;fill:#ffffff;fill-opacity:1;fill-rule:evenodd;stroke:none;stroke-width:1px;stroke-linecap:butt;stroke-linejoin:miter;stroke-miterlimit:4;stroke-dasharray:none;stroke-dashoffset:0;stroke-opacity:1;color-rendering:auto;image-rendering:auto;shape-rendering:auto;text-rendering:auto;enable-background:accumulate" />
      <path
         inkscape:connector-curvature="0"
         id="path4250-9"
         d="m 495.10156,619.49023 c -67.25278,1.37986 -136.87353,7.24621 -197.64258,38.65039 -16.07155,9.09363 -31.67466,24.40153 -31.62109,44.23047 1.10941,21.32717 19.7326,36.30051 37.33076,45.30475 7.72668,4.54182 19.16045,10.5259 27.09893,3.40619 6.6759,-6.68021 0.67353,-15.84093 -1.90861,-22.66175 3.38866,-9.10142 14.70647,-11.02429 22.47111,-15.24255 41.95476,-17.08862 88.00668,-18.95598 132.67707,-21.4324 56.58206,-1.35885 114.44072,2.60909 168.04231,22.00785 7.70643,3.46024 16.9595,7.52858 20.53482,15.5593 -1.03578,5.55532 -8.41908,10.07619 -5.15069,16.54885 2.82824,9.51617 15.77476,10.9844 22.90211,5.2752 16.91979,-8.89187 35.96746,-19.10991 42.38696,-38.53887 6.4715,-16.51792 -3.2645,-34.10583 -15.84571,-44.63477 -21.54756,-17.36985 -48.77077,-25.537 -75.00936,-32.88829 -47.65,-12.20062 -97.23268,-15.25483 -146.26603,-15.58437 z"
         style="color:#000000;clip-rule:nonzero;display:inline;overflow:visible;visibility:visible;opacity:1;isolation:auto;mix-blend-mode:normal;color-interpolation:sRGB;color-interpolation-filters:linearRGB;solid-color:#000000;solid-opacity:1;fill:#000000;fill-opacity:1;fill-rule:nonzero;stroke:none;stroke-width:6;stroke-linecap:butt;stroke-linejoin:miter;stroke-miterlimit:0;stroke-dasharray:none;stroke-dashoffset:0;stroke-opacity:1;color-rendering:auto;image-rendering:auto;shape-rendering:auto;text-rendering:auto;enable-background:accumulate" />
      <path
         id="path4250"
         transform="translate(0,52.362289)"
         d="M 500,579 A 222.5,70 0 0 0 277.5,649 222.5,70 0 0 0 322.79492,691.23047 185,50 0 0 1 315,677 185,50 0 0 1 500,627 185,50 0 0 1 685,677 185,50 0 0 1 677.34766,691.12891 222.5,70 0 0 0 722.5,649 222.5,70 0 0 0 500,579 Z"
         style="color:#000000;clip-rule:nonzero;display:inline;overflow:visible;visibility:visible;opacity:1;isolation:auto;mix-blend-mode:normal;color-interpolation:sRGB;color-interpolation-filters:linearRGB;solid-color:#000000;solid-opacity:1;fill:#ffffff;fill-opacity:1;fill-rule:nonzero;stroke:none;stroke-width:6;stroke-linecap:butt;stroke-linejoin:miter;stroke-miterlimit:0;stroke-dasharray:none;stroke-dashoffset:0;stroke-opacity:1;color-rendering:auto;image-rendering:auto;shape-rendering:auto;text-rendering:auto;enable-background:accumulate"
         inkscape:connector-curvature="0" />
      <path
         sodipodi:nodetypes="cccccccc"
         inkscape:connector-curvature="0"
         id="path4248"
         d="m 475,932.36229 50,0 L 544,710.36525 513.35952,816.18863 498,757.36229 l -11,90 -25,-32 z"
         style="color:#000000;clip-rule:nonzero;display:inline;overflow:visible;visibility:visible;opacity:1;isolation:auto;mix-blend-mode:normal;color-interpolation:sRGB;color-interpolation-filters:linearRGB;solid-color:#000000;solid-opacity:1;fill:#000000;fill-opacity:1;fill-rule:evenodd;stroke:none;stroke-width:1px;stroke-linecap:butt;stroke-linejoin:miter;stroke-miterlimit:4;stroke-dasharray:none;stroke-dashoffset:0;stroke-opacity:1;color-rendering:auto;image-rendering:auto;shape-rendering:auto;text-rendering:auto;enable-background:accumulate" />
    </g>
  </g>
</svg>
