<?xml version="1.0" encoding="UTF-8" standalone="no"?>
<svg
   width="1024"
   height="1024"
   viewBox="0 0 1024 1024"
   version="1.1"
   id="svg8"
   xml:space="preserve"
   xmlns="http://www.w3.org/2000/svg"
   xmlns:svg="http://www.w3.org/2000/svg"
   xmlns:rdf="http://www.w3.org/1999/02/22-rdf-syntax-ns#"
   xmlns:cc="http://creativecommons.org/ns#"
   xmlns:dc="http://purl.org/dc/elements/1.1/"><defs
     id="defs2" /><metadata
     id="metadata5"><rdf:RDF><cc:Work
         rdf:about=""><dc:format>image/svg+xml</dc:format><dc:type
           rdf:resource="http://purl.org/dc/dcmitype/StillImage" /></cc:Work></rdf:RDF></metadata><path
     id="path1-6"
     style="fill:#ffffff;fill-opacity:1;stroke:none;stroke-width:1.12569px;stroke-linecap:butt;stroke-linejoin:miter;stroke-opacity:1"
     d="m 725.05626,362.91088 -13.55905,19.36431 -15.40132,4.33221 -48.87185,-34.22042 c 0,0 2.74744,-6.32149 -6.2692,-12.63502 -9.01666,-6.31354 -14.01723,-1.56969 -14.01723,-1.56969 l -26.74118,-18.72439 c 0,0 2.74746,-6.32149 -6.2692,-12.63502 -9.01665,-6.31353 -14.01723,-1.56968 -14.01723,-1.56968 l -26.74117,-18.72439 c 0,0 2.74743,-6.32148 -6.26923,-12.63501 -9.01663,-6.31351 -14.01722,-1.56969 -14.01722,-1.56969 l -26.7412,-18.7244 c 0,0 2.74746,-6.32148 -6.26918,-12.63502 -9.01666,-6.31352 -14.01723,-1.56969 -14.01723,-1.56969 l -37.80651,-26.4724 c 1.63109,-3.80325 0.5298,-7.10641 -1.01298,-10.32879 l 12.91337,-18.44219 -10.14323,-7.10235 -12.91335,18.4422 c -6.7737,-4.3036 -11.57929,-4.34162 -14.66288,-0.64757 l -92.21103,-64.56686 -20.84505,23.88208 -78.37936,-54.881828 -3.13555,0.55289 -63.62561,-44.551118 -26.19022,-1.848047 -58.110157,82.989903 10.048519,24.90081 63.625588,44.55113 -12.82059,14.38453 c -7.98979,1.38846 -17.59006,1.65964 -22.31813,6.36006 l -94.267581,134.62808 6.545644,14.20281 81.512997,68.06969 90.3668,63.27552 132.36203,-189.03258 4.61056,3.22836 -171.74782,245.28128 20.28643,14.20471 2.39137,45.64922 108.80898,76.18887 42.79203,-14.01145 21.20855,14.85035 171.7478,-245.2813 4.61053,3.22836 -58.3885,95.1629 c -18.91041,30.82062 50.21473,73.63858 69.98949,39.3877 22.01572,-38.13238 51.73971,-4.99781 45.64734,11.34943 l -31.27429,83.91583 -17.61669,19.27152 c 35.80857,32.38384 67.79846,49.1196 93.68983,40.86652 l 52.8616,-140.25927 c 103.72467,66.83043 82.51172,140.35212 21.91829,215.98233 64.56729,45.9699 127.51902,94.09592 156.29286,143.79269 49.9863,-61.93588 92.87613,-129.43756 127.38413,-203.51175 C 914.50828,642.21855 837.9202,537.45846 807.57266,510.01328 l -33.65604,-30.43729 -34.11808,-23.88973 -1.47408,-15.55801 10.00848,-0.66287 1.05725,21.09042 c 0.0624,1.24569 1.11534,2.19873 2.36102,2.13636 l 2.24843,-0.11385 c 1.2457,-0.0624 2.19872,-1.11536 2.13634,-2.36104 l -2.42125,-48.34344 c -0.0624,-1.24567 -1.11533,-2.19871 -2.36103,-2.13633 l -2.24845,0.11386 c -1.24568,0.0624 -2.1987,1.11532 -2.1363,2.36103 l 1.13985,22.75868 -9.41411,0.70332 c 0.86535,-17.20247 -7.5142,-26.84259 -15.3956,-36.89016 l 3.87401,-5.53266 -10.1432,-7.10234 13.55903,-19.36431 z M 445.26662,320.91183 598.3369,428.09279 599.6244,453.73013 419.16727,328.74689 Z m 160.5337,211.20255 c 5.19941,3.57517 10.41153,8.81207 13.91539,12.63968 7.00761,7.65523 0.89266,27.85558 -9.9634,26.00466 -10.85606,-1.85093 -18.3538,-8.08614 -23.69842,-15.21959 -5.34461,-7.13346 -1.00359,-20.46571 5.90571,-26.09745 3.45465,-2.81587 8.64136,-0.90245 13.84072,2.6727 z m -431.74504,-266.43401 11.98743,8.3937 -19.37004,27.6633 -11.98744,-8.39369 z m 24.43592,17.11022 14.75376,10.33069 -19.37006,27.66331 -14.75377,-10.33069 z m 27.6633,19.37004 14.75376,10.33072 -19.37006,27.6633 -14.75377,-10.3307 z m 27.6633,19.37007 11.98742,8.39369 -19.37005,27.6633 -11.98743,-8.39369 z m 67.4011,84.29846 139.23862,97.49596 -11.62205,16.59796 -139.23862,-97.49593 z m -18.7244,26.74121 139.23862,97.49593 -11.62202,16.59798 -139.23863,-97.49593 z m -18.07872,25.81908 139.23863,97.49594 -11.62203,16.59797 -139.23862,-97.49593 z m -18.72438,26.7412 139.23862,97.49593 -11.62202,16.59798 -139.23864,-97.49593 z m -18.07873,25.81907 139.23863,97.49595 -11.62203,16.59798 -139.23862,-97.49596 z" /><g
     id="layer1" /><path
     style="fill:#ffffff;fill-opacity:1;stroke:none;stroke-width:1px;stroke-linecap:butt;stroke-linejoin:miter;stroke-opacity:1"
     d="m -663,-374 c 0,0 1.22171,-6 11,-6 9.77829,0 11,6 11,6 z"
     id="path1-6-9" /><path
     style="fill:#ffffff;fill-opacity:1;stroke:none;stroke-width:1px;stroke-linecap:butt;stroke-linejoin:miter;stroke-opacity:0.165249"
     d="m -1073,-346 h 85 l 3,-28 h 100 c 0.36168,-4.25931 3.878,-6.68025 11,-7 v -20 h 11 v 20 c 2.76457,1.55878 5.24904,3.40131 6,7 h 269 l 9,-11 v -21 h 6 v 21 h 11 v 6 c 10.8548,3.29566 21.86445,6.041 30,19 l 7.33795,-6 2.66205,3 -8,6.43024 9,10.56976 h 37 l 40,5 c 36.06792,4.50849 145.17872,41.71702 271,89 12.6322,71.48617 15.8161,142.45999 11,213 -46.26075,-21.50266 -116.59168,-24.4474 -187,-25 5.5571,-85.90989 -16.46804,-150.21941 -126,-146 l 33,129 c -14.63568,19.19825 -46.44174,23.31972 -89,18 l 3,-23 -20,-77 c -3.8961,-15 -42.40912,-23.96637 -39,15 3.0621,35 -69.05676,39.0634 -71,7 l -6,-99 h -5 V 26 h -23 l -24,32 h -118 l -25,-32 h -22 v -266 h -5 v 205 h -98 l -94,-8 -12,-7 v -146 c 1.0455,-5.82958 7.8934,-10.91853 13,-16 l 2,-17 h -69 l -20,-13 v -90 l 20,-12 h 69 z"
     id="path2-1" /><path
     style="fill:#000000;fill-opacity:1;stroke:none;stroke-width:1px;stroke-linecap:butt;stroke-linejoin:miter;stroke-opacity:1"
     d="m -973,-196 v 30 h 16 v -30 z"
     id="path3-3" /><path
     style="fill:#000000;fill-opacity:1;stroke:none;stroke-width:1px;stroke-linecap:butt;stroke-linejoin:miter;stroke-opacity:1"
     d="m -1003,-196 v 30 h 16 v -30 z"
     id="path3-2-5" /><path
     style="fill:#000000;fill-opacity:1;stroke:none;stroke-width:1px;stroke-linecap:butt;stroke-linejoin:miter;stroke-opacity:1"
     d="m -1029.5,-196 v 30 h 13 v -30 z"
     id="path3-9-8" /><path
     style="fill:#000000;fill-opacity:1;stroke:none;stroke-width:1px;stroke-linecap:butt;stroke-linejoin:miter;stroke-opacity:1"
     d="m -943,-196 v 30 h 13 v -30 z"
     id="path3-9-6-4" /><path
     style="fill:#000000;fill-opacity:1;stroke:none;stroke-width:1px;stroke-linecap:butt;stroke-linejoin:miter;stroke-opacity:1"
     d="m -804,-294 h 166 l 14,18 -195,1 z"
     id="path4-8" /><path
     style="fill:#000000;fill-opacity:1;stroke:none;stroke-width:1px;stroke-linecap:butt;stroke-linejoin:miter;stroke-opacity:0.505747"
     d="m -591,-217 c -2.15827,7.61871 1.47602,19.53232 9,22 7.52398,2.46768 16.15703,3.18463 25,-1 8.84297,-4.18463 3,-22 -6,-24 -9,-2 -25.84173,-4.61871 -28,3 z"
     id="path5-5" /><path
     style="fill:#ffffff;fill-opacity:0.997701;stroke:none;stroke-width:1px;stroke-linecap:butt;stroke-linejoin:miter;stroke-opacity:1"
     d="m -816,-374 c 0,0 1.22171,-6 11,-6 9.77829,0 11,6 11,6 z"
     id="path1-67" /><path
     style="fill:#ffffff;fill-opacity:0.997701;stroke:none;stroke-width:1px;stroke-linecap:butt;stroke-linejoin:miter;stroke-opacity:1"
     d="m -765,-374 c 0,0 1.22171,-6 11,-6 9.77829,0 11,6 11,6 z"
     id="path1-2-8" /><path
     style="fill:#ffffff;fill-opacity:0.997701;stroke:none;stroke-width:1px;stroke-linecap:butt;stroke-linejoin:miter;stroke-opacity:1"
     d="m -714,-374 c 0,0 1.22171,-6 11,-6 9.77829,0 11,6 11,6 z"
     id="path1-7-2" /><rect
     style="opacity:0.99;fill:#ffffff;fill-opacity:1;fill-rule:evenodd;stroke:none;stroke-width:22.2785;stroke-linecap:round;stroke-linejoin:round"
     id="rect1-5"
     width="6"
     height="47"
     x="-190.61403"
     y="-633.20618"
     ry="2"
     rx="2"
     transform="rotate(-37.867369)" /><path
     style="fill:#000000;fill-opacity:1;stroke:none;stroke-width:1px;stroke-linecap:butt;stroke-linejoin:miter;stroke-opacity:1"
     d="m -851,-169 v 18 h 151 v -18 z"
     id="path6-6" /><path
     style="fill:#000000;fill-opacity:1;stroke:none;stroke-width:1px;stroke-linecap:butt;stroke-linejoin:miter;stroke-opacity:1"
     d="m -851,-140 v 18 h 151 v -18 z"
     id="path6-9-0" /><path
     style="fill:#000000;fill-opacity:1;stroke:none;stroke-width:1px;stroke-linecap:butt;stroke-linejoin:miter;stroke-opacity:1"
     d="m -851,-83 v 18 h 151 v -18 z"
     id="path6-4-0" /><path
     style="fill:#000000;fill-opacity:1;stroke:none;stroke-width:1px;stroke-linecap:butt;stroke-linejoin:miter;stroke-opacity:1"
     d="m -851,-55 v 18 h 151 v -18 z"
     id="path6-46-2" /><path
     style="fill:#000000;fill-opacity:1;stroke:none;stroke-width:1px;stroke-linecap:butt;stroke-linejoin:miter;stroke-opacity:1"
     d="m -851,-112 v 18 h 151 v -18 z"
     id="path6-8-0" /></svg>
