<?xml version="1.0" encoding="UTF-8" standalone="no"?>
<!-- Created with Inkscape (http://www.inkscape.org/) -->

<svg
   xmlns:dc="http://purl.org/dc/elements/1.1/"
   xmlns:cc="http://creativecommons.org/ns#"
   xmlns:rdf="http://www.w3.org/1999/02/22-rdf-syntax-ns#"
   xmlns:svg="http://www.w3.org/2000/svg"
   xmlns="http://www.w3.org/2000/svg"
   xmlns:sodipodi="http://sodipodi.sourceforge.net/DTD/sodipodi-0.dtd"
   xmlns:inkscape="http://www.inkscape.org/namespaces/inkscape"
   width="1000"
   height="1000"
   viewBox="0 0 999.9999880656118 999.9999880410413"
   id="svg4166"
   version="1.1"
   inkscape:version="0.92.4 (5da689c313, 2019-01-14)"
   sodipodi:docname="pistol.svg">
  <defs
     id="defs4168" />
  <sodipodi:namedview
     id="base"
     pagecolor="#000000"
     bordercolor="#666666"
     borderopacity="1.0"
     inkscape:pageopacity="0"
     inkscape:pageshadow="2"
     inkscape:zoom="0.175"
     inkscape:cx="117.40979"
     inkscape:cy="43.350743"
     inkscape:document-units="px"
     inkscape:current-layer="layer1"
     showgrid="false"
     units="px"
     showguides="true"
     inkscape:showpageshadow="false"
     showborder="true"
     inkscape:window-width="2560"
     inkscape:window-height="1361"
     inkscape:window-x="-9"
     inkscape:window-y="-9"
     inkscape:window-maximized="1" />
  <metadata
     id="metadata4171">
    <rdf:RDF>
      <cc:Work
         rdf:about="">
        <dc:format>image/svg+xml</dc:format>
        <dc:type
           rdf:resource="http://purl.org/dc/dcmitype/StillImage" />
        <dc:title />
      </cc:Work>
    </rdf:RDF>
  </metadata>
  <g
     inkscape:label="Ebene 1"
     inkscape:groupmode="layer"
     id="layer1"
     transform="translate(0,-52.36228930856214)">
    <path
       style="opacity:1;fill:#ffffff;fill-opacity:1;fill-rule:nonzero;stroke:none;stroke-width:83.66066742;stroke-linecap:butt;stroke-linejoin:round;stroke-miterlimit:4;stroke-dasharray:none;stroke-dashoffset:0;stroke-opacity:1"
       d="m 189.61146,92.543747 67.60918,24.607733 2.42204,27.5905 232.70135,84.69636 2.1388,18.58443 157.23064,57.22727 40.75277,-38.5851 188.67677,68.67273 c 34.43856,12.53461 72.44091,61.02978 68.58613,105.09015 -5.1723,59.11954 -42.19791,91.47701 -42.19791,91.47701 l 25.57885,32.45771 C 661.552,586.85533 876.73928,724.62346 825.49974,938.29398 814.62127,983.65757 759.434,1012.1808 759.434,1012.1808 l -196.53829,-71.53406 0.15606,-44.45811 7.68811,-9.85632 7.96551,-233.72976 -86.47685,-31.47499 0.74566,-104.78381 c -4.20231,-23.83248 -42.96555,-35.57486 -63.60904,-16.02941 L 402.19664,526.03774 50.000003,397.84865 60.774877,216.58834 Z"
       id="path4146"
       inkscape:connector-curvature="0"
       sodipodi:nodetypes="cccccccssccscccccccscccc" />
  </g>
</svg>
