<?xml version="1.0" encoding="UTF-8" standalone="no"?>
<svg
   xmlns:dc="http://purl.org/dc/elements/1.1/"
   xmlns:cc="http://creativecommons.org/ns#"
   xmlns:rdf="http://www.w3.org/1999/02/22-rdf-syntax-ns#"
   xmlns:svg="http://www.w3.org/2000/svg"
   xmlns="http://www.w3.org/2000/svg"
   xmlns:sodipodi="http://sodipodi.sourceforge.net/DTD/sodipodi-0.dtd"
   xmlns:inkscape="http://www.inkscape.org/namespaces/inkscape"
   width="1000"
   height="1000"
   viewBox="0 0 999.9999880656118 999.9999880410413"
   id="svg4166"
   version="1.1"
   inkscape:version="1.0beta1 (41b5402, 2019-11-21)"
   sodipodi:docname="rifle.svg">
  <style
     id="style838" />
  <defs
     id="defs4168" />
  <sodipodi:namedview
     inkscape:bbox-paths="true"
     inkscape:bbox-nodes="false"
     inkscape:snap-bbox-edge-midpoints="true"
     inkscape:snap-bbox-midpoints="true"
     inkscape:snap-bbox="true"
     inkscape:snap-midpoints="true"
     inkscape:snap-smooth-nodes="true"
     inkscape:snap-text-baseline="false"
     id="base"
     pagecolor="#000000"
     bordercolor="#666666"
     borderopacity="1.0"
     inkscape:pageopacity="0"
     inkscape:pageshadow="2"
     inkscape:zoom="1.4"
     inkscape:cx="384.01797"
     inkscape:cy="471.48953"
     inkscape:document-units="px"
     inkscape:current-layer="layer1"
     showgrid="false"
     units="px"
     showguides="true"
     inkscape:showpageshadow="false"
     showborder="true"
     inkscape:window-width="2560"
     inkscape:window-height="1361"
     inkscape:window-x="-9"
     inkscape:window-y="-9"
     inkscape:window-maximized="1"
     inkscape:object-paths="true"
     inkscape:snap-intersection-paths="false"
     inkscape:document-rotation="0"
     inkscape:snap-global="true"
     inkscape:object-nodes="true" />
  <metadata
     id="metadata4171">
    <rdf:RDF>
      <cc:Work
         rdf:about="">
        <dc:format>image/svg+xml</dc:format>
        <dc:type
           rdf:resource="http://purl.org/dc/dcmitype/StillImage" />
        <dc:title />
      </cc:Work>
    </rdf:RDF>
  </metadata>
  <g
     inkscape:label="Ebene 1"
     inkscape:groupmode="layer"
     id="layer1"
     transform="translate(0,-52.36228930856214)">
    <path
       sodipodi:nodetypes="cccccccccccccccccccccccccccsccccccccccccccccccccccccccccccccccccccccccccccccccc"
       inkscape:connector-curvature="0"
       id="path10"
       d="m 472.57333,460.09993 11.44151,-1.31845 -36.00475,-36.32459 32.68233,-32.68233 21.96371,21.96371 2.39609,8.16356 16.32501,16.32501 2.32184,-0.5619 19.9549,19.9549 4.80577,4.5e-4 50.46582,50.46492 v 4.80622 l 33.16295,33.16296 h 4.80623 l 50.46536,50.46536 v 4.80622 l 20.70838,20.70839 -0.41018,2.47355 16.70973,16.70973 -29.79859,29.7986 -9.79133,-9.79133 -1.33238,11.16381 12.13754,12.13754 3.43969,-0.40529 35.91877,35.91877 c 6.79183,6.79183 5.06012,16.84283 -5.75634,18.27478 l 32.89277,32.89277 c 4.61396,-0.0271 5.07048,-1.65823 12.5889,5.86018 l 42.36005,42.36005 c 4.01201,4.01202 1.08049,5.39382 -0.99754,5.73119 l 28.52325,28.52324 12.35795,0.14374 14.72281,5.78963 77.31621,77.31621 c -55.83452,9.84513 -75.09417,15.78419 -126.74074,67.43077 l -69.69026,-69.69027 49.36679,-39.06775 -141.95529,-141.95529 -13.8488,29.90032 -8.73432,30.73035 -8.40866,37.65855 -8.82367,34.32017 -14.46057,47.65838 -147.57963,-147.57963 6.4079,-22.42946 -4.24815,-4.24814 20.14375,-64.44582 -20.83311,-20.83311 c 4.00293,-20.81113 -1.28684,-33.96917 -12.04349,-44.72582 l -29.85838,-29.85838 6.99525,-25.68708 -267.71392,-267.71392 5.73314,-21.18172 -21.11306,-21.11306 5.73314,-21.18172 -9.90369,-9.90369 -11.14324,0.3917 -75.180566,-75.18057 0.247391,-10.3263 52.200545,52.20054 11.62935,-2.78933 -62.189126,-62.18912 30.759841,-30.75984 79.611685,79.61169 16.68448,-5.35551 107.79676,107.45346 7.66683,4.41971 3.30749,-0.39448 30.89006,32.83208 6.67566,2.79163 13.59405,13.83681 3.27713,-0.60687 50.49605,49.38215 -0.55787,4.24836 2.87515,2.87515 3.47593,-0.47204 50.85154,50.76579 0.42914,5.40701 z"
       style="fill:#ffffff;fill-opacity:0.996337;stroke:none;stroke-width:1px;stroke-linecap:butt;stroke-linejoin:miter;stroke-opacity:1" />
    <path
       sodipodi:nodetypes="ccccccccccccc"
       inkscape:connector-curvature="0"
       d="m 136.56669,149.46329 -4.80622,-4.80622 8.6512,-2.88374 -10.57369,-10.57369 -8.65121,2.88373 -4.80622,-4.80622 c 0,0 -38.50116,12.83496 -54.736523,18.24676 l 4.806225,4.80622 -8.651205,2.88374 10.573695,10.57369 8.651205,-2.88373 4.806226,4.80622 z"
       style="fill:#ffffff;fill-opacity:1;stroke:none;stroke-width:1px;stroke-linecap:butt;stroke-linejoin:miter;stroke-opacity:1"
       id="path863" />
    <path
       sodipodi:nodetypes="ccccccccccccccccccccccccccccccccccccc"
       inkscape:connector-curvature="0"
       d="m 297.40019,423.72371 -10.57369,10.5737 -16.34117,-16.34117 -13.45743,13.45743 -5.28685,-5.28684 -7.81199,7.81199 0.12203,11.41291 19.94584,19.94583 -0.48062,3.36436 3.36435,3.36436 3.36436,-0.48063 16.82179,16.82179 -0.48062,3.36436 3.36435,3.36436 3.36436,-0.48063 16.82179,16.82179 -0.48062,3.36436 3.35496,3.35497 3.36436,-0.48063 16.82179,16.82179 -0.48062,3.36436 3.36436,3.36436 3.36435,-0.48063 16.82179,16.82179 -0.48062,3.36436 3.36436,3.36436 3.36435,-0.48062 19.94584,19.94583 11.41291,0.12203 7.81199,-7.81199 -5.28685,-5.28685 13.45743,-13.45743 -16.34116,-16.34116 10.57369,-10.5737 -53.33971,-53.33971 -0.008,-0.008 z"
       style="fill:#ffffff;fill-opacity:0.996337;stroke:none;stroke-width:1px;stroke-linecap:butt;stroke-linejoin:miter;stroke-opacity:1"
       id="path1100" />
    <path
       sodipodi:nodetypes="ccccc"
       inkscape:connector-curvature="0"
       id="path1194"
       d="m 193.79915,341.27006 -5.28684,5.28685 55.75221,55.75221 8.27961,-2.29408 z"
       style="fill:#ffffff;fill-opacity:0.996337;stroke:none;stroke-width:1px;stroke-linecap:butt;stroke-linejoin:miter;stroke-opacity:1" />
    <path
       sodipodi:nodetypes="cccccccccc"
       inkscape:connector-curvature="0"
       id="path1196"
       d="m 564.91879,862.74438 -67.43878,-66.87799 34.41601,-116.46513 40.16645,-10.81387 39.39373,39.39374 -13.8488,29.90032 -8.73431,30.73035 -8.40867,37.65854 -8.82367,34.32018 z"
       style="fill:#000000;fill-opacity:1;stroke:none;stroke-width:1px;stroke-linecap:butt;stroke-linejoin:miter;stroke-opacity:1" />
    <path
       id="path1582-6"
       style="fill:#000000;fill-opacity:1;stroke:none;stroke-width:1px;stroke-linecap:butt;stroke-linejoin:miter;stroke-opacity:1"
       d="m 146.57086,189.12765 -17.44336,4.1836 303.95313,303.95312 17.44336,-4.18359 z"
       inkscape:connector-curvature="0"
       sodipodi:nodetypes="ccccc" />
    <circle
       r="47.5"
       cy="599.8623"
       cx="527.5"
       id="path29-0"
       style="fill:#000000;fill-opacity:1;stroke:none;stroke-width:20;stroke-linecap:square;stroke-opacity:1" />
    <rect
       transform="rotate(45)"
       y="82.594963"
       x="747.16553"
       height="22"
       width="100"
       id="rect1230-0-5"
       style="fill:#ffffff;fill-opacity:1;stroke:none;stroke-width:10;stroke-linecap:square;stroke-linejoin:round;stroke-opacity:0;paint-order:stroke fill markers" />
    <rect
       style="fill:#ffffff;fill-opacity:1;stroke:none;stroke-width:10;stroke-linecap:square;stroke-linejoin:round;stroke-opacity:0;paint-order:stroke fill markers"
       id="rect1230-0-5-9"
       width="100"
       height="22"
       x="747.16559"
       y="-2.2578681"
       transform="rotate(45)" />
    <rect
       y="537.44159"
       x="454.63565"
       height="22"
       width="100"
       id="rect1230-0-5-9-3"
       style="fill:#ffffff;fill-opacity:1;stroke:none;stroke-width:10;stroke-linecap:square;stroke-linejoin:round;stroke-opacity:0;paint-order:stroke fill markers" />
    <rect
       transform="rotate(45)"
       y="40.167877"
       x="747.16553"
       height="22"
       width="100"
       id="rect1230-0-9"
       style="fill:#ffffff;fill-opacity:1;stroke:none;stroke-width:10;stroke-linecap:square;stroke-linejoin:round;stroke-opacity:0;paint-order:stroke fill markers" />
    <rect
       style="fill:#ffffff;fill-opacity:1;stroke:none;stroke-width:10;stroke-linecap:square;stroke-linejoin:round;stroke-opacity:0;paint-order:stroke fill markers"
       id="rect1230-0-5-9-3-0"
       width="50"
       height="22"
       x="504.63599"
       y="-662.28302"
       transform="scale(1,-1)" />
    <path
       style="fill:#000000;fill-opacity:1;stroke:none;stroke-width:1px;stroke-linecap:butt;stroke-linejoin:miter;stroke-opacity:0.593407"
       d="m 544.41956,519.0901 -12.984,-12.92106 12.21841,-50.5492 12.97171,12.97172 z"
       id="path1403-8"
       inkscape:connector-curvature="0"
       sodipodi:nodetypes="ccccc" />
    <path
       sodipodi:nodetypes="ccccc"
       inkscape:connector-curvature="0"
       id="path1403-8-9"
       d="m 586.71944,561.38997 -12.984,-12.92106 12.21841,-50.5492 12.97171,12.97172 z"
       style="fill:#000000;fill-opacity:1;stroke:none;stroke-width:1px;stroke-linecap:butt;stroke-linejoin:miter;stroke-opacity:0.593407" />
    <path
       style="fill:#000000;fill-opacity:1;stroke:none;stroke-width:1px;stroke-linecap:butt;stroke-linejoin:miter;stroke-opacity:0.593407"
       d="m 581.58995,556.26054 12.92109,12.98396 50.54919,-12.21839 -12.97172,-12.97172 z"
       id="path1403-3"
       inkscape:connector-curvature="0"
       sodipodi:nodetypes="ccccc" />
    <path
       style="fill:#000000;fill-opacity:1;stroke:none;stroke-width:1px;stroke-linecap:butt;stroke-linejoin:miter;stroke-opacity:0.593407"
       d="m 623.88982,598.5604 12.92109,12.98396 50.54919,-12.21839 -12.97172,-12.97172 z"
       id="path1403-35"
       inkscape:connector-curvature="0"
       sodipodi:nodetypes="ccccc" />
  </g>
</svg>
