<?xml version="1.0" encoding="UTF-8" standalone="no"?>
<!-- Created with Inkscape (http://www.inkscape.org/) -->

<svg
   xmlns:dc="http://purl.org/dc/elements/1.1/"
   xmlns:cc="http://creativecommons.org/ns#"
   xmlns:rdf="http://www.w3.org/1999/02/22-rdf-syntax-ns#"
   xmlns:svg="http://www.w3.org/2000/svg"
   xmlns="http://www.w3.org/2000/svg"
   xmlns:sodipodi="http://sodipodi.sourceforge.net/DTD/sodipodi-0.dtd"
   xmlns:inkscape="http://www.inkscape.org/namespaces/inkscape"
   width="1000"
   height="1000"
   viewBox="0 0 999.9999880656118 999.9999880410413"
   id="svg4166"
   version="1.1"
   inkscape:version="0.92.4 (5da689c313, 2019-01-14)"
   sodipodi:docname="sword.svg">
  <defs
     id="defs4168" />
  <sodipodi:namedview
     id="base"
     pagecolor="#000000"
     bordercolor="#666666"
     borderopacity="1.0"
     inkscape:pageopacity="0"
     inkscape:pageshadow="2"
     inkscape:zoom="0.98994949"
     inkscape:cx="356.00647"
     inkscape:cy="379.50706"
     inkscape:document-units="px"
     inkscape:current-layer="layer1"
     showgrid="false"
     units="px"
     showguides="true"
     inkscape:showpageshadow="false"
     showborder="true"
     inkscape:window-width="2560"
     inkscape:window-height="1361"
     inkscape:window-x="-9"
     inkscape:window-y="-9"
     inkscape:window-maximized="1"
     inkscape:object-paths="true"
     inkscape:snap-intersection-paths="true" />
  <metadata
     id="metadata4171">
    <rdf:RDF>
      <cc:Work
         rdf:about="">
        <dc:format>image/svg+xml</dc:format>
        <dc:type
           rdf:resource="http://purl.org/dc/dcmitype/StillImage" />
        <dc:title />
      </cc:Work>
    </rdf:RDF>
  </metadata>
  <g
     inkscape:label="Ebene 1"
     inkscape:groupmode="layer"
     id="layer1"
     transform="translate(0,-52.36228930856214)">
    <path
       style="fill:#ffffff;fill-opacity:1;stroke:none;stroke-width:1.23146832px;stroke-linecap:butt;stroke-linejoin:miter;stroke-opacity:1"
       d="m 88.049295,100.23695 -38.049296,110.16201 170.664571,245.78162 188.02278,203.81554 199.58009,161.54599 89.77125,122.99232 30.76717,21.5434 155.8152,21.15728 -6.65949,7.36374 14.12264,9.88875 31.22603,-13.46388 L 950,951.8333 l -14.12264,-9.88878 -7.56674,2.21844 -127.41139,-53.13413 47.27097,-42.81945 -0.15016,-8.37354 -12.10512,-8.4761 -32.18404,10.53809 -5.54818,-3.88488 -1.56389,1.15997 -27.53894,-20.78631 -16.29032,-19.67501 -26.177,-20.58435 -17.65225,-19.87696 -23.50389,-17.96095 -19.97219,-23.00475 0.9083,-2.37069 -6.60769,-2.37174 5.14844,-23.45523 -0.50333,-7.86917 -10.59198,-7.41658 -7.91991,2.72281 -16.95429,39.24223 -156.36975,-126.6197 4.59106,-36.64876 -0.59711,-11.61783 -11.69367,-3.63218 -5.59354,8.80171 -6.89558,28.01157 -180.74891,-192.43138 z"
       id="path838"
       inkscape:connector-curvature="0"
       sodipodi:nodetypes="cccccccccccccccccccccccccccccccccccccccccc" />
    <path
       style="fill:#000000;fill-opacity:1;stroke:none;stroke-width:1.23146832px;stroke-linecap:butt;stroke-linejoin:miter;stroke-opacity:1"
       d="m 651.80788,762.58042 1.26147,-2.87507 19.51961,12.9161 15.43277,19.82621 20.02399,13.26928 16.44153,20.53255 19.16643,13.42048 17.95467,21.59207 -2.11902,3.02628 5.54818,3.88487 -46.56463,41.81069 -85.585,-119.3094 13.8762,-31.62577 z"
       id="path840"
       inkscape:connector-curvature="0"
       sodipodi:nodetypes="cccccccccccccc" />
    <path
       style="fill:#000000;fill-opacity:1;stroke:none;stroke-width:1.23146832px;stroke-linecap:butt;stroke-linejoin:miter;stroke-opacity:1"
       d="m 609.54073,700.03849 19.42303,15.72773 -16.44012,20.30283 -19.42304,-15.72772 z"
       id="path1073"
       inkscape:connector-curvature="0" />
    <path
       style="fill:#000000;fill-opacity:1;stroke:none;stroke-width:1.23146832px;stroke-linecap:butt;stroke-linejoin:miter;stroke-opacity:1"
       d="m 601.30952,693.37333 -16.44012,20.30283 -23.14332,-18.7402 16.44012,-20.30284 z"
       id="path1075"
       inkscape:connector-curvature="0" />
    <path
       style="fill:#000000;fill-opacity:1;stroke:none;stroke-width:1.23146832px;stroke-linecap:butt;stroke-linejoin:miter;stroke-opacity:1"
       d="m 569.935,667.96796 -16.44013,20.30283 -23.14331,-18.7402 16.44012,-20.30284 z"
       id="path1075-6"
       inkscape:connector-curvature="0" />
    <path
       style="fill:#000000;fill-opacity:1;stroke:none;stroke-width:1.23146832px;stroke-linecap:butt;stroke-linejoin:miter;stroke-opacity:1"
       d="m 538.56048,642.56259 -16.44013,20.30283 -23.14332,-18.7402 16.44013,-20.30283 z"
       id="path1075-2"
       inkscape:connector-curvature="0"
       inkscape:transform-center-x="10.480333"
       inkscape:transform-center-y="-6.5659915" />
    <path
       style="fill:#000000;fill-opacity:1;stroke:none;stroke-width:1.23146832px;stroke-linecap:butt;stroke-linejoin:miter;stroke-opacity:1"
       d="m 507.18595,617.15722 -16.44012,20.30283 -23.14332,-18.7402 16.44013,-20.30283 z"
       id="path1075-8"
       inkscape:connector-curvature="0" />
    <path
       style="fill:#000000;fill-opacity:1;stroke:none;stroke-width:1.23146832px;stroke-linecap:butt;stroke-linejoin:miter;stroke-opacity:1"
       d="m 469.1308,538.56365 -17.76639,76.97664 -10.11783,37.05291 4.97162,4.35365 10.00832,-38.15957 16.8926,-78.98482 z"
       id="path1106"
       inkscape:connector-curvature="0"
       sodipodi:nodetypes="ccccccc" />
  </g>
</svg>
